<svg width="550" height="500" viewBox="0 0 550 500" fill="none" xmlns="http://www.w3.org/2000/svg">
<mask id="mask0" mask-type="alpha" maskUnits="userSpaceOnUse" x="0" y="0" width="550" height="500">
<path d="M0.5 9.99999C0.5 4.75329 4.75329 0.5 10 0.5H540C545.247 0.5 549.5 4.7533 549.5 10V499.5H0.5V9.99999Z" fill="#F1F2F4"/>
<path d="M0.5 9.99999C0.5 4.75329 4.75329 0.5 10 0.5H540C545.247 0.5 549.5 4.7533 549.5 10V499.5H0.5V9.99999Z" fill="white"/>
<path d="M0.5 9.99999C0.5 4.75329 4.75329 0.5 10 0.5H540C545.247 0.5 549.5 4.7533 549.5 10V499.5H0.5V9.99999Z" fill="#5551FF" fill-opacity="0.05"/>
<path d="M0.5 9.99999C0.5 4.75329 4.75329 0.5 10 0.5H540C545.247 0.5 549.5 4.7533 549.5 10V499.5H0.5V9.99999Z" stroke="#D7D7D7"/>
</mask>
<g mask="url(#mask0)">
<circle cx="275" cy="248" r="84.5" stroke="#B4B3FD" stroke-opacity="0.5"/>
<circle cx="275" cy="248" r="101.5" stroke="#B4B3FD" stroke-opacity="0.5"/>
<circle cx="275" cy="248" r="117.5" stroke="#B4B3FD" stroke-opacity="0.5"/>
<circle cx="275" cy="248" r="136.5" stroke="#B4B3FD" stroke-opacity="0.5"/>
<circle cx="275" cy="248" r="153.5" stroke="#B4B3FD" stroke-opacity="0.5"/>
<circle cx="275" cy="248" r="171.5" stroke="#B4B3FD" stroke-opacity="0.5"/>
<circle cx="275" cy="248" r="187.5" stroke="#B4B3FD" stroke-opacity="0.5"/>
<circle cx="275" cy="248" r="206.5" stroke="#B4B3FD" stroke-opacity="0.5"/>
<circle cx="275" cy="248" r="225.5" stroke="#B4B3FD" stroke-opacity="0.5"/>
</g>
<g filter="url(#filter0_dii)">
<circle cx="274" cy="247" r="45" fill="#F5F5F5"/>
<circle cx="274" cy="247" r="45" fill="url(#paint0_linear)"/>
<circle cx="274" cy="247" r="44.5" stroke="url(#paint1_radial)"/>
</g>
<path d="M259.303 241.612C258.169 241.62 257.298 240.793 257.3 239.712C257.302 238.616 258.161 237.822 259.357 237.81C260.514 237.798 261.363 238.58 261.379 239.673C261.395 240.787 260.522 241.604 259.303 241.612Z" fill="#5551FF"/>
<path d="M261.165 237.547C260.111 237.555 259.206 236.668 259.21 235.635C259.216 234.517 260.136 233.682 261.357 233.689C262.385 233.695 263.267 234.556 263.291 235.578C263.317 236.678 262.389 237.537 261.165 237.547Z" fill="#5551FF"/>
<path d="M288.165 235.152C287.004 235.16 286.184 234.384 286.182 233.272C286.18 232.136 287.025 231.352 288.255 231.346C289.353 231.342 290.206 232.148 290.228 233.215C290.248 234.321 289.373 235.142 288.165 235.152Z" fill="#5551FF"/>
<path d="M284.27 237.345C284.274 236.249 285.179 235.429 286.38 235.429C287.445 235.429 288.33 236.308 288.32 237.351C288.308 238.444 287.394 239.269 286.2 239.267C285.123 239.263 284.266 238.41 284.27 237.345Z" fill="#5551FF"/>
<path d="M258.616 233.737C257.54 233.741 256.712 232.967 256.699 231.948C256.685 230.891 257.609 230.062 258.785 230.074C259.8 230.086 260.596 230.899 260.594 231.92C260.59 233.015 259.808 233.733 258.616 233.737Z" fill="#5551FF"/>
<path d="M290.736 238.776C289.681 238.782 288.824 237.961 288.838 236.957C288.852 235.926 289.719 235.133 290.853 235.119C291.86 235.107 292.703 235.926 292.711 236.924C292.719 237.979 291.878 238.768 290.736 238.776Z" fill="#5551FF"/>
<path d="M288.805 242.826C287.73 242.824 286.982 242.082 286.988 241.025C286.994 239.98 287.813 239.234 288.953 239.234C289.982 239.234 290.802 240.045 290.79 241.052C290.776 242.08 289.941 242.828 288.805 242.826Z" fill="#5551FF"/>
<path d="M272.225 259.905C271.21 259.911 270.43 259.167 270.426 258.195C270.422 257.188 271.257 256.416 272.346 256.422C273.334 256.426 274.121 257.204 274.117 258.172C274.111 259.183 273.33 259.899 272.225 259.905Z" fill="#5551FF"/>
<path d="M282.647 241.412C282.657 240.444 283.423 239.757 284.488 239.763C285.4 239.769 286.151 240.535 286.139 241.446C286.127 242.401 285.331 243.11 284.284 243.096C283.36 243.086 282.636 242.344 282.647 241.412Z" fill="#5551FF"/>
<path d="M263.715 240.965C262.819 240.947 262.057 240.172 262.082 239.303C262.108 238.337 262.91 237.63 263.953 237.654C264.847 237.674 265.599 238.44 265.589 239.317C265.578 240.265 264.758 240.985 263.715 240.965Z" fill="#5551FF"/>
<path d="M276.682 259.401C275.746 259.395 275.032 258.698 275.032 257.793C275.032 256.851 275.8 256.135 276.821 256.127C277.745 256.121 278.497 256.869 278.487 257.786C278.476 258.755 277.747 259.408 276.682 259.401Z" fill="#5551FF"/>
<path d="M274.852 263.448C273.856 263.46 273.154 262.807 273.152 261.865C273.15 260.966 273.886 260.273 274.864 260.252C275.818 260.232 276.532 260.893 276.548 261.807C276.562 262.789 275.895 263.436 274.852 263.448Z" fill="#5551FF"/>
<path d="M257.407 245.355C256.457 245.359 255.774 244.718 255.766 243.817C255.76 242.883 256.514 242.183 257.522 242.191C258.395 242.198 259.145 242.953 259.131 243.813C259.117 244.686 258.373 245.351 257.407 245.355Z" fill="#5551FF"/>
<path d="M256.716 237.573C255.788 237.577 255.078 236.908 255.074 236.027C255.068 235.129 255.806 234.448 256.798 234.43C257.69 234.414 258.44 235.129 258.438 235.994C258.436 236.92 257.73 237.569 256.716 237.573Z" fill="#5551FF"/>
<path d="M282.525 243.986C283.386 243.982 284.1 244.657 284.106 245.486C284.114 246.357 283.356 247.055 282.412 247.051C281.571 247.047 280.849 246.337 280.854 245.518C280.858 244.674 281.601 243.992 282.525 243.986Z" fill="#5551FF"/>
<path d="M258.028 253.079C257.199 253.075 256.512 252.392 256.51 251.567C256.506 250.728 257.28 250.039 258.206 250.055C259.038 250.069 259.722 250.754 259.722 251.573C259.72 252.434 258.992 253.081 258.028 253.079Z" fill="#5551FF"/>
<path d="M290.18 258.087C289.296 258.083 288.613 257.414 288.631 256.571C288.651 255.72 289.359 255.092 290.293 255.096C291.192 255.1 291.825 255.734 291.813 256.62C291.801 257.511 291.154 258.091 290.18 258.087Z" fill="#5551FF"/>
<path d="M269.642 255.965C268.747 255.963 268.088 255.322 268.096 254.461C268.104 253.6 268.789 252.978 269.733 252.974C270.608 252.97 271.293 253.641 271.283 254.486C271.273 255.349 270.584 255.967 269.642 255.965Z" fill="#5551FF"/>
<path d="M263.508 243.378C263.514 244.268 262.822 244.902 261.852 244.896C261.03 244.892 260.32 244.187 260.334 243.387C260.346 242.554 261.086 241.885 261.986 241.887C262.828 241.889 263.504 242.548 263.508 243.378Z" fill="#5551FF"/>
<path d="M278.616 255.162C277.737 255.162 277.098 254.55 277.092 253.701C277.084 252.828 277.805 252.167 278.753 252.181C279.576 252.193 280.281 252.898 280.267 253.697C280.249 254.554 279.564 255.162 278.616 255.162Z" fill="#5551FF"/>
<path d="M279.009 249.525C279.037 248.67 279.732 248.092 280.703 248.118C281.547 248.142 282.214 248.84 282.172 249.654C282.128 250.517 281.372 251.146 280.432 251.101C279.597 251.063 278.98 250.38 279.009 249.525Z" fill="#5551FF"/>
<path d="M291.411 246.17C290.539 246.168 289.923 245.576 289.923 244.735C289.923 243.888 290.598 243.267 291.516 243.273C292.354 243.28 293.013 243.92 293.011 244.727C293.009 245.58 292.354 246.17 291.411 246.17Z" fill="#5551FF"/>
<path d="M291.086 248.819C291.08 249.65 290.362 250.287 289.463 250.262C288.66 250.24 288.01 249.575 288.026 248.797C288.042 247.995 288.729 247.398 289.629 247.404C290.461 247.412 291.092 248.025 291.086 248.819Z" fill="#5551FF"/>
<path d="M258.835 257.93C259.67 257.928 260.277 258.522 260.279 259.345C260.281 260.173 259.622 260.784 258.728 260.782C257.96 260.78 257.301 260.139 257.289 259.381C257.277 258.568 257.956 257.932 258.835 257.93Z" fill="#5551FF"/>
<path d="M268.564 250.752C268.574 251.581 267.92 252.197 267.028 252.195C266.28 252.195 265.627 251.573 265.605 250.839C265.579 250.032 266.25 249.392 267.139 249.373C267.932 249.355 268.556 249.96 268.564 250.752Z" fill="#5551FF"/>
<path d="M290.029 230.569C289.254 230.555 288.6 229.886 288.628 229.142C288.66 228.326 289.297 227.784 290.202 227.806C290.989 227.825 291.593 228.427 291.581 229.179C291.567 229.969 290.878 230.586 290.029 230.569Z" fill="#5551FF"/>
<path d="M256.184 256.974C255.406 256.976 254.799 256.414 254.787 255.682C254.777 254.942 255.436 254.32 256.243 254.31C257.001 254.3 257.643 254.93 257.631 255.674C257.621 256.414 256.999 256.974 256.184 256.974Z" fill="#5551FF"/>
<path d="M264.534 245.794C265.313 245.79 265.919 246.358 265.917 247.088C265.915 247.831 265.296 248.389 264.476 248.387C263.698 248.385 263.15 247.864 263.142 247.116C263.134 246.322 263.685 245.798 264.534 245.794Z" fill="#5551FF"/>
<path d="M286.965 246.433C286.249 246.461 285.606 245.869 285.592 245.168C285.576 244.424 286.188 243.84 287.001 243.824C287.706 243.809 288.311 244.363 288.351 245.061C288.392 245.782 287.767 246.401 286.965 246.433Z" fill="#5551FF"/>
<path d="M260.075 246.2C260.847 246.206 261.393 246.746 261.387 247.494C261.381 248.23 260.786 248.779 259.992 248.781C259.254 248.785 258.64 248.205 258.636 247.5C258.63 246.754 259.252 246.194 260.075 246.2Z" fill="#5551FF"/>
<path d="M266.503 241.7C267.196 241.71 267.794 242.305 267.8 242.988C267.804 243.716 267.146 244.324 266.367 244.31C265.63 244.298 265.054 243.714 265.064 242.992C265.074 242.232 265.68 241.69 266.503 241.7Z" fill="#5551FF"/>
<path d="M292.082 253.747C291.322 253.741 290.812 253.226 290.828 252.474C290.843 251.744 291.413 251.241 292.211 251.253C292.904 251.263 293.484 251.823 293.495 252.488C293.505 253.204 292.884 253.755 292.082 253.747Z" fill="#5551FF"/>
<path d="M292.616 234.072C291.918 234.06 291.405 233.538 291.419 232.851C291.433 232.146 292.001 231.638 292.761 231.653C293.434 231.667 293.984 232.227 293.97 232.88C293.952 233.581 293.38 234.084 292.616 234.072Z" fill="#5551FF"/>
<path d="M288.306 261.822C287.651 261.826 287.13 261.339 287.112 260.71C287.094 260.053 287.637 259.544 288.359 259.54C289.01 259.536 289.539 260.025 289.56 260.65C289.58 261.299 289.022 261.82 288.306 261.822Z" fill="#5551FF"/>
<path d="M255.489 248.986C254.86 248.98 254.346 248.476 254.357 247.872C254.367 247.225 254.908 246.74 255.606 246.758C256.206 246.774 256.709 247.268 256.717 247.852C256.728 248.491 256.184 248.992 255.489 248.986Z" fill="#5551FF"/>
<path d="M294.004 260.264C294.016 260.865 293.478 261.388 292.833 261.404C292.211 261.42 291.673 260.937 291.653 260.343C291.631 259.71 292.17 259.181 292.844 259.175C293.454 259.171 293.992 259.672 294.004 260.264Z" fill="#5551FF"/>
<path d="M255.77 263.373C255.802 262.77 256.332 262.338 256.989 262.372C257.589 262.404 258.05 262.879 258.032 263.447C258.014 264.062 257.452 264.551 256.803 264.513C256.201 264.478 255.738 263.965 255.77 263.373Z" fill="#5551FF"/>
<path d="M267.892 246.722C267.888 246.109 268.379 245.628 269.019 245.618C269.618 245.608 270.137 246.095 270.147 246.673C270.157 247.266 269.642 247.759 269.003 247.769C268.377 247.777 267.896 247.324 267.892 246.722Z" fill="#5551FF"/>
<path d="M274.145 255.146C273.527 255.136 273.048 254.659 273.056 254.067C273.066 253.472 273.606 252.993 274.238 253.017C274.822 253.04 275.312 253.523 275.307 254.075C275.303 254.669 274.776 255.156 274.145 255.146Z" fill="#5551FF"/>
<path d="M254.838 241.103C254.258 241.105 253.781 240.662 253.774 240.114C253.768 239.546 254.239 239.108 254.866 239.1C255.448 239.092 255.911 239.526 255.919 240.086C255.927 240.658 255.456 241.101 254.838 241.103Z" fill="#5551FF"/>
<path d="M288.697 252.913C288.689 253.489 288.202 253.934 287.599 253.914C287.053 253.896 286.599 253.445 286.597 252.921C286.595 252.351 287.07 251.899 287.676 251.896C288.248 251.894 288.705 252.349 288.697 252.913Z" fill="#5551FF"/>
<path d="M256.087 227.301C256.667 227.301 257.061 227.669 257.065 228.214C257.071 228.774 256.653 229.179 256.069 229.177C255.523 229.177 255.082 228.766 255.072 228.253C255.064 227.721 255.513 227.301 256.087 227.301Z" fill="#5551FF" fill-opacity="0.4"/>
<path d="M260.68 256.167C260.142 256.163 259.732 255.773 259.726 255.262C259.72 254.756 260.168 254.342 260.73 254.338C261.248 254.334 261.676 254.746 261.68 255.254C261.682 255.775 261.248 256.171 260.68 256.167Z" fill="#5551FF"/>
<path d="M293.399 239.736C293.947 239.742 294.335 240.124 294.327 240.65C294.319 241.178 293.885 241.584 293.331 241.576C292.823 241.57 292.381 241.131 292.389 240.644C292.399 240.122 292.835 239.73 293.399 239.736Z" fill="#5551FF" fill-opacity="0.4"/>
<path d="M270.399 261.357C270.935 261.362 271.339 261.76 271.327 262.267C271.315 262.774 270.911 263.142 270.361 263.142C269.801 263.142 269.415 262.785 269.413 262.261C269.409 261.725 269.817 261.351 270.399 261.357Z" fill="#5551FF"/>
<path d="M263.192 230.636C263.738 230.644 264.124 231.028 264.11 231.552C264.096 232.085 263.681 232.439 263.091 232.421C262.58 232.407 262.189 232.02 262.189 231.533C262.189 231.014 262.62 230.628 263.192 230.636Z" fill="#5551FF" fill-opacity="0.4"/>
<path d="M284.167 249.212C284.167 248.723 284.573 248.343 285.093 248.343C285.58 248.343 285.96 248.721 285.956 249.204C285.954 249.707 285.56 250.081 285.038 250.073C284.553 250.069 284.167 249.687 284.167 249.212Z" fill="#5551FF"/>
<path d="M260.536 228.678C260.023 228.672 259.669 228.32 259.679 227.825C259.689 227.35 260.073 227 260.578 227C261.084 227 261.468 227.358 261.47 227.831C261.474 228.318 261.07 228.684 260.536 228.678Z" fill="#5551FF" fill-opacity="0.4"/>
<path d="M271.558 251.215C271.051 251.207 270.703 250.849 270.723 250.352C270.742 249.881 271.134 249.535 271.635 249.547C272.102 249.559 272.478 249.921 272.486 250.37C272.492 250.855 272.09 251.223 271.558 251.215Z" fill="#5551FF"/>
<path d="M254.321 258.93C254.81 258.928 255.182 259.259 255.194 259.708C255.208 260.153 254.798 260.565 254.327 260.581C253.834 260.597 253.448 260.235 253.441 259.752C253.437 259.267 253.795 258.932 254.321 258.93Z" fill="#5551FF" fill-opacity="0.4"/>
<path d="M290.9 265.162C290.417 265.16 290.047 264.806 290.059 264.359C290.069 263.919 290.449 263.581 290.938 263.581C291.411 263.581 291.791 263.945 291.779 264.39C291.765 264.836 291.391 265.166 290.9 265.162Z" fill="#5551FF" fill-opacity="0.4"/>
<path d="M286.431 229.571C286.427 229.997 286.065 230.331 285.592 230.337C285.141 230.343 284.775 229.981 284.792 229.547C284.808 229.122 285.182 228.803 285.653 228.817C286.097 228.827 286.433 229.154 286.431 229.571Z" fill="#5551FF" fill-opacity="0.4"/>
<path d="M284.51 233.642C284.514 234.06 284.13 234.424 283.684 234.42C283.255 234.418 282.903 234.079 282.899 233.66C282.895 233.228 283.267 232.874 283.718 232.88C284.143 232.888 284.506 233.238 284.51 233.642Z" fill="#5551FF" fill-opacity="0.4"/>
<path d="M294.841 248.408C294.847 248.86 294.52 249.184 294.049 249.188C293.594 249.194 293.271 248.901 293.256 248.468C293.24 248.005 293.604 247.64 294.071 247.646C294.493 247.654 294.835 247.991 294.841 248.408Z" fill="#5551FF" fill-opacity="0.4"/>
<path d="M267.788 259.292C267.344 259.3 266.998 258.98 267.002 258.562C267.006 258.16 267.368 257.826 267.798 257.828C268.221 257.83 268.542 258.133 268.552 258.538C268.562 258.96 268.237 259.283 267.788 259.292Z" fill="#5551FF" fill-opacity="0.4"/>
<path d="M282.578 237.717C282.59 238.101 282.254 238.445 281.844 238.471C281.397 238.5 281.045 238.19 281.035 237.762C281.025 237.333 281.353 237.012 281.805 237.008C282.216 237.008 282.565 237.327 282.578 237.717Z" fill="#5551FF" fill-opacity="0.4"/>
<path d="M254.917 232.322C254.915 232.738 254.607 233.023 254.165 233.023C253.724 233.023 253.421 232.73 253.427 232.309C253.433 231.907 253.762 231.592 254.181 231.59C254.593 231.59 254.921 231.913 254.917 232.322Z" fill="#5551FF" fill-opacity="0.4"/>
<path d="M281.236 258.081C280.821 258.079 280.528 257.796 280.526 257.392C280.524 256.976 280.84 256.681 281.276 256.685C281.689 256.689 281.994 256.984 281.994 257.374C281.994 257.782 281.67 258.083 281.236 258.081Z" fill="#5551FF" fill-opacity="0.4"/>
<path d="M283.154 253.988C282.754 253.992 282.442 253.683 282.448 253.291C282.454 252.899 282.764 252.604 283.172 252.604C283.552 252.604 283.896 252.937 283.892 253.305C283.887 253.671 283.552 253.984 283.154 253.988Z" fill="#5551FF" fill-opacity="0.4"/>
<path d="M278.709 245.883C278.721 246.271 278.42 246.564 278 246.568C277.585 246.572 277.329 246.378 277.294 245.951C277.262 245.555 277.557 245.242 277.961 245.222C278.343 245.201 278.697 245.513 278.709 245.883Z" fill="#5551FF" fill-opacity="0.4"/>
<path d="M280.579 241.828C280.573 242.192 280.264 242.489 279.89 242.491C279.514 242.493 279.211 242.196 279.215 241.826C279.217 241.458 279.52 241.169 279.9 241.167C280.276 241.163 280.585 241.464 280.579 241.828Z" fill="#5551FF" fill-opacity="0.4"/>
<path d="M279.32 262.116C278.938 262.103 278.645 261.798 278.683 261.426C278.723 261.026 278.968 260.836 279.36 260.832C279.748 260.828 280.047 261.125 280.037 261.489C280.027 261.845 279.702 262.128 279.32 262.116Z" fill="#5551FF" fill-opacity="0.4"/>
<path d="M276.746 250.021C276.736 250.397 276.437 250.67 276.043 250.639C275.657 250.609 275.423 250.389 275.4 249.999C275.38 249.651 275.72 249.348 276.092 249.348C276.472 249.348 276.757 249.641 276.746 250.021Z" fill="#5551FF" fill-opacity="0.4"/>
<path d="M261.935 251.138C261.955 250.762 262.252 250.518 262.665 250.544C263.065 250.57 263.283 250.795 263.293 251.189C263.303 251.555 262.982 251.825 262.586 251.815C262.192 251.807 261.913 251.516 261.935 251.138Z" fill="#5551FF" fill-opacity="0.4"/>
<path d="M265.747 234.605C266.099 234.602 266.416 234.904 266.386 235.237C266.349 235.633 266.095 235.837 265.71 235.833C265.337 235.829 265.126 235.597 265.096 235.233C265.072 234.906 265.399 234.607 265.747 234.605Z" fill="#5551FF" fill-opacity="0.4"/>
<path d="M253.621 252.555C253.257 252.543 253.015 252.349 253.001 251.979C252.986 251.599 253.237 251.403 253.601 251.369C253.959 251.335 254.286 251.624 254.266 251.967C254.24 252.345 253.995 252.521 253.621 252.555Z" fill="#5551FF" fill-opacity="0.4"/>
<path d="M272.926 266.52C272.59 266.472 272.35 266.302 272.366 265.938C272.382 265.582 272.607 265.395 272.966 265.403C273.328 265.411 273.544 265.605 273.534 265.965C273.522 266.328 273.27 266.484 272.926 266.52Z" fill="#5551FF" fill-opacity="0.4"/>
<path d="M265.787 254.882C265.728 255.235 265.514 255.434 265.166 255.421C264.841 255.411 264.635 255.209 264.61 254.878C264.588 254.568 264.926 254.273 265.253 254.31C265.585 254.348 265.75 254.558 265.787 254.882Z" fill="#5551FF" fill-opacity="0.4"/>
<path d="M294.717 255.662C295.067 255.682 295.283 255.862 295.296 256.19C295.308 256.525 295.083 256.725 294.76 256.739C294.412 256.756 294.174 256.572 294.176 256.198C294.18 255.85 294.416 255.707 294.717 255.662Z" fill="#5551FF" fill-opacity="0.4"/>
<g filter="url(#filter1_i)">
<path d="M146 123C146 136.807 134.807 148 121 148C107.193 148 96 136.807 96 123C96 109.193 107.193 98 121 98C134.807 98 146 109.193 146 123Z" fill="white"/>
<path d="M146 123C146 136.807 134.807 148 121 148C107.193 148 96 136.807 96 123C96 109.193 107.193 98 121 98C134.807 98 146 109.193 146 123Z" fill="url(#paint2_linear)"/>
<path d="M146 123C146 136.807 134.807 148 121 148C107.193 148 96 136.807 96 123C96 109.193 107.193 98 121 98C134.807 98 146 109.193 146 123Z" fill="url(#paint3_linear)"/>
</g>
<path d="M145.5 123C145.5 136.531 134.531 147.5 121 147.5C107.469 147.5 96.5 136.531 96.5 123C96.5 109.469 107.469 98.5 121 98.5C134.531 98.5 145.5 109.469 145.5 123Z" stroke="#AEACFF"/>
<path d="M115.981 121.024H112.095V123.484H115.647C115.72 123.484 115.757 123.522 115.757 123.598V124.271C115.757 124.343 115.72 124.38 115.647 124.38H112.095V126.845H115.981C116.057 126.845 116.096 126.881 116.096 126.954V127.741C116.096 127.814 116.057 127.851 115.981 127.851H111.204C111.127 127.851 111.089 127.814 111.089 127.741V120.127C111.089 120.095 111.1 120.067 111.122 120.045C111.144 120.024 111.171 120.013 111.204 120.013H115.981C116.014 120.013 116.041 120.024 116.063 120.045C116.085 120.067 116.096 120.095 116.096 120.127V120.909C116.096 120.942 116.085 120.969 116.063 120.991C116.041 121.013 116.014 121.024 115.981 121.024Z" fill="black"/>
<path d="M124.148 120.013C124.181 120.013 124.209 120.024 124.23 120.045C124.252 120.067 124.263 120.095 124.263 120.127V120.8C124.263 120.873 124.225 120.909 124.148 120.909H121.519V127.741C121.519 127.814 121.481 127.851 121.405 127.851H120.623C120.547 127.851 120.508 127.814 120.508 127.741V120.909H117.879C117.806 120.909 117.77 120.873 117.77 120.8V120.127C117.77 120.051 117.806 120.013 117.879 120.013H124.148Z" fill="black"/>
<path d="M131.731 120.013C131.804 120.013 131.841 120.051 131.841 120.127V127.741C131.841 127.814 131.804 127.851 131.731 127.851H130.95C130.873 127.851 130.835 127.814 130.835 127.741V124.221H127.173V127.741C127.173 127.814 127.136 127.851 127.064 127.851H126.282C126.205 127.851 126.167 127.814 126.167 127.741V120.127C126.167 120.095 126.178 120.067 126.2 120.045C126.222 120.024 126.249 120.013 126.282 120.013H127.064C127.136 120.013 127.173 120.051 127.173 120.127V123.33H130.835V120.127C130.835 120.095 130.846 120.067 130.868 120.045C130.89 120.024 130.917 120.013 130.95 120.013H131.731Z" fill="black"/>
<g filter="url(#filter2_i)">
<path d="M315 72C315 85.8071 303.807 97 290 97C276.193 97 265 85.8071 265 72C265 58.1929 276.193 47 290 47C303.807 47 315 58.1929 315 72Z" fill="white"/>
<path d="M315 72C315 85.8071 303.807 97 290 97C276.193 97 265 85.8071 265 72C265 58.1929 276.193 47 290 47C303.807 47 315 58.1929 315 72Z" fill="url(#paint4_linear)"/>
<path d="M315 72C315 85.8071 303.807 97 290 97C276.193 97 265 85.8071 265 72C265 58.1929 276.193 47 290 47C303.807 47 315 58.1929 315 72Z" fill="url(#paint5_linear)"/>
</g>
<path d="M314.5 72C314.5 85.531 303.531 96.5 290 96.5C276.469 96.5 265.5 85.531 265.5 72C265.5 58.469 276.469 47.5 290 47.5C303.531 47.5 314.5 58.469 314.5 72Z" stroke="#AEACFF"/>
<path d="M283.237 76.714C283.266 76.7468 283.273 76.7778 283.259 76.8069C283.244 76.8361 283.215 76.8506 283.171 76.8506H282.182C282.113 76.8506 282.065 76.8288 282.04 76.7851L279.192 72.9535L278.252 73.9428V76.7413C278.252 76.8142 278.215 76.8506 278.142 76.8506H277.361C277.284 76.8506 277.246 76.8142 277.246 76.7413V69.1274C277.246 69.0946 277.257 69.0673 277.279 69.0454C277.301 69.0236 277.328 69.0126 277.361 69.0126H278.142C278.215 69.0126 278.252 69.0509 278.252 69.1274V72.6201L281.657 69.0728C281.697 69.0327 281.743 69.0126 281.794 69.0126H282.778C282.821 69.0126 282.849 69.0254 282.86 69.0509C282.874 69.0764 282.865 69.1092 282.832 69.1493L279.913 72.2047L283.237 76.714Z" fill="black"/>
<path d="M287.797 76.96C288.347 76.96 288.852 76.8561 289.311 76.6484C289.77 76.4371 290.136 76.1474 290.41 75.7793C290.687 75.4077 290.834 74.9959 290.852 74.5441C290.863 74.2817 290.838 74.0467 290.776 73.839C290.717 73.6313 290.621 73.4527 290.486 73.3033C290.351 73.1503 290.2 73.0191 290.032 72.9098C289.868 72.8005 289.664 72.7057 289.42 72.6256C289.18 72.5454 288.943 72.4798 288.71 72.4288C288.48 72.3778 288.209 72.3286 287.895 72.2812C287.666 72.2411 287.482 72.2065 287.343 72.1774C287.205 72.1482 287.052 72.1118 286.884 72.068C286.72 72.0207 286.591 71.9715 286.496 71.9205C286.401 71.8694 286.31 71.8075 286.223 71.7346C286.135 71.6581 286.073 71.5706 286.037 71.4723C286 71.3702 285.982 71.2555 285.982 71.1279C285.982 70.738 286.146 70.4192 286.474 70.1714C286.802 69.9236 287.243 69.7997 287.797 69.7997C288.343 69.7997 288.775 69.9254 289.092 70.1769C289.409 70.4283 289.581 70.7836 289.606 71.2427C289.606 71.3156 289.644 71.352 289.721 71.352H290.502C290.579 71.352 290.617 71.3156 290.617 71.2427C290.599 70.7763 290.459 70.3627 290.196 70.002C289.934 69.6412 289.593 69.3679 289.174 69.1821C288.755 68.9962 288.296 68.9033 287.797 68.9033C287.01 68.9033 286.35 69.1147 285.818 69.5374C285.286 69.96 285.006 70.4902 284.977 71.1279C284.966 71.332 284.982 71.5196 285.026 71.6909C285.073 71.8585 285.135 72.0043 285.212 72.1282C285.292 72.2484 285.401 72.3595 285.54 72.4616C285.682 72.56 285.822 72.6438 285.96 72.713C286.099 72.7786 286.274 72.8405 286.485 72.8988C286.7 72.9571 286.895 73.0045 287.07 73.041C287.248 73.0738 287.467 73.112 287.726 73.1557C288.513 73.2869 289.061 73.4454 289.371 73.6313C289.684 73.8171 289.841 74.1214 289.841 74.5441C289.841 74.9886 289.664 75.3548 289.311 75.6427C288.961 75.9269 288.456 76.069 287.797 76.069C287.221 76.069 286.74 75.9123 286.354 75.599C285.971 75.2819 285.765 74.8939 285.736 74.4347C285.736 74.3582 285.694 74.32 285.611 74.32H284.84C284.763 74.32 284.725 74.3546 284.725 74.4238C284.743 74.9303 284.896 75.3803 285.184 75.7739C285.472 76.1638 285.844 76.4589 286.299 76.6593C286.755 76.8598 287.254 76.96 287.797 76.96Z" fill="black"/>
<path d="M293.051 76.8506C292.975 76.8506 292.937 76.8142 292.937 76.7413V69.1274C292.937 69.0946 292.947 69.0673 292.969 69.0454C292.991 69.0236 293.019 69.0126 293.051 69.0126H293.97C294.021 69.0126 294.061 69.0436 294.09 69.1056L296.888 75.599L299.687 69.1056C299.716 69.0436 299.758 69.0126 299.813 69.0126H300.731C300.804 69.0126 300.84 69.0509 300.84 69.1274V76.7413C300.84 76.8142 300.804 76.8506 300.731 76.8506H299.944C299.871 76.8506 299.834 76.8142 299.834 76.7413V71.3083L297.424 76.7632C297.406 76.8215 297.366 76.8506 297.304 76.8506H296.473C296.411 76.8506 296.371 76.8215 296.353 76.7632L293.942 71.3083V76.7413C293.942 76.8142 293.906 76.8506 293.833 76.8506H293.051Z" fill="black"/>
<g filter="url(#filter3_i)">
<path d="M459 136C459 149.807 447.807 161 434 161C420.193 161 409 149.807 409 136C409 122.193 420.193 111 434 111C447.807 111 459 122.193 459 136Z" fill="white"/>
<path d="M459 136C459 149.807 447.807 161 434 161C420.193 161 409 149.807 409 136C409 122.193 420.193 111 434 111C447.807 111 459 122.193 459 136Z" fill="url(#paint6_linear)"/>
<path d="M459 136C459 149.807 447.807 161 434 161C420.193 161 409 149.807 409 136C409 122.193 420.193 111 434 111C447.807 111 459 122.193 459 136Z" fill="url(#paint7_linear)"/>
</g>
<path d="M458.5 136C458.5 149.531 447.531 160.5 434 160.5C420.469 160.5 409.5 149.531 409.5 136C409.5 122.469 420.469 111.5 434 111.5C447.531 111.5 458.5 122.469 458.5 136Z" stroke="#AEACFF"/>
<path d="M424.701 133.013C425.361 133.013 425.944 133.115 426.45 133.319C426.96 133.519 427.37 133.8 427.68 134.16C427.99 134.521 428.221 134.933 428.374 135.396C428.531 135.859 428.609 136.367 428.609 136.921C428.609 137.358 428.562 137.77 428.467 138.156C428.372 138.542 428.221 138.901 428.013 139.233C427.809 139.564 427.556 139.85 427.254 140.091C426.955 140.328 426.587 140.514 426.15 140.648C425.716 140.783 425.233 140.851 424.701 140.851H422.564C422.487 140.851 422.449 140.814 422.449 140.741V133.127C422.449 133.095 422.46 133.067 422.482 133.045C422.504 133.024 422.531 133.013 422.564 133.013H424.701ZM424.701 139.856C425.124 139.856 425.501 139.805 425.833 139.703C426.168 139.601 426.445 139.462 426.663 139.287C426.882 139.109 427.062 138.894 427.204 138.642C427.35 138.391 427.454 138.125 427.516 137.844C427.578 137.56 427.609 137.252 427.609 136.921C427.609 136.502 427.558 136.123 427.456 135.784C427.354 135.445 427.192 135.141 426.969 134.871C426.751 134.598 426.448 134.386 426.062 134.237C425.68 134.088 425.226 134.013 424.701 134.013H423.444V139.856H424.701Z" fill="black"/>
<path d="M434.06 140.96C434.636 140.96 435.15 140.86 435.602 140.659C436.054 140.459 436.422 140.178 436.706 139.818C436.99 139.457 437.205 139.034 437.351 138.55C437.5 138.061 437.575 137.522 437.575 136.932C437.575 136.341 437.5 135.802 437.351 135.314C437.201 134.822 436.983 134.397 436.695 134.04C436.407 133.679 436.039 133.401 435.591 133.204C435.143 133.004 434.632 132.903 434.06 132.903C433.481 132.903 432.965 133.004 432.514 133.204C432.065 133.401 431.697 133.679 431.409 134.04C431.122 134.401 430.903 134.825 430.754 135.314C430.608 135.802 430.535 136.341 430.535 136.932C430.535 137.73 430.664 138.427 430.923 139.025C431.182 139.623 431.579 140.095 432.115 140.441C432.65 140.787 433.299 140.96 434.06 140.96ZM434.06 133.8C434.88 133.8 435.5 134.082 435.919 134.647C436.338 135.212 436.547 135.973 436.547 136.932C436.547 137.398 436.496 137.821 436.394 138.2C436.292 138.579 436.141 138.908 435.941 139.189C435.744 139.47 435.485 139.686 435.165 139.839C434.844 139.993 434.476 140.069 434.06 140.069C433.641 140.069 433.271 139.993 432.951 139.839C432.63 139.686 432.37 139.47 432.169 139.189C431.969 138.908 431.818 138.579 431.716 138.2C431.617 137.821 431.568 137.398 431.568 136.932C431.568 136.465 431.617 136.044 431.716 135.669C431.818 135.29 431.969 134.96 432.169 134.68C432.37 134.399 432.63 134.182 432.951 134.029C433.271 133.876 433.641 133.8 434.06 133.8Z" fill="black"/>
<path d="M445.284 133.013C445.316 133.013 445.344 133.024 445.365 133.045C445.387 133.067 445.398 133.095 445.398 133.127V133.8C445.398 133.873 445.36 133.909 445.284 133.909H442.654V140.741C442.654 140.814 442.616 140.851 442.54 140.851H441.758C441.682 140.851 441.643 140.814 441.643 140.741V133.909H439.014C438.941 133.909 438.905 133.873 438.905 133.8V133.127C438.905 133.051 438.941 133.013 439.014 133.013H445.284Z" fill="black"/>
<g filter="url(#filter4_i)">
<path d="M302 391C302 404.807 290.807 416 277 416C263.193 416 252 404.807 252 391C252 377.193 263.193 366 277 366C290.807 366 302 377.193 302 391Z" fill="white"/>
<path d="M302 391C302 404.807 290.807 416 277 416C263.193 416 252 404.807 252 391C252 377.193 263.193 366 277 366C290.807 366 302 377.193 302 391Z" fill="url(#paint8_linear)"/>
<path d="M302 391C302 404.807 290.807 416 277 416C263.193 416 252 404.807 252 391C252 377.193 263.193 366 277 366C290.807 366 302 377.193 302 391Z" fill="url(#paint9_linear)"/>
</g>
<path d="M301.5 391C301.5 404.531 290.531 415.5 277 415.5C263.469 415.5 252.5 404.531 252.5 391C252.5 377.469 263.469 366.5 277 366.5C290.531 366.5 301.5 377.469 301.5 391Z" stroke="#AEACFF"/>
<path d="M270.945 388.013C270.977 388.013 271.005 388.024 271.027 388.045C271.049 388.067 271.059 388.095 271.059 388.127V388.909C271.059 388.942 271.049 388.969 271.027 388.991C271.005 389.013 270.977 389.024 270.945 389.024H267.058V391.484H270.611C270.684 391.484 270.721 391.522 270.721 391.598V392.271C270.721 392.343 270.684 392.38 270.611 392.38H267.058V395.741C267.058 395.814 267.022 395.851 266.949 395.851H266.168C266.091 395.851 266.053 395.814 266.053 395.741V388.127C266.053 388.095 266.064 388.067 266.086 388.045C266.107 388.024 266.135 388.013 266.168 388.013H270.945Z" fill="black"/>
<path d="M278.664 388.013C278.697 388.013 278.724 388.024 278.746 388.045C278.768 388.067 278.779 388.095 278.779 388.127V388.8C278.779 388.873 278.741 388.909 278.664 388.909H276.035V395.741C276.035 395.814 275.997 395.851 275.92 395.851H275.139C275.062 395.851 275.024 395.814 275.024 395.741V388.909H272.395C272.322 388.909 272.286 388.873 272.286 388.8V388.127C272.286 388.051 272.322 388.013 272.395 388.013H278.664Z" fill="black"/>
<path d="M280.798 395.851C280.721 395.851 280.683 395.814 280.683 395.741V388.127C280.683 388.095 280.694 388.067 280.716 388.045C280.737 388.024 280.765 388.013 280.798 388.013H281.716C281.767 388.013 281.807 388.044 281.836 388.106L284.635 394.599L287.433 388.106C287.462 388.044 287.504 388.013 287.559 388.013H288.477C288.55 388.013 288.586 388.051 288.586 388.127V395.741C288.586 395.814 288.55 395.851 288.477 395.851H287.69C287.617 395.851 287.581 395.814 287.581 395.741V390.308L285.17 395.763C285.152 395.822 285.112 395.851 285.05 395.851H284.219C284.157 395.851 284.117 395.822 284.099 395.763L281.689 390.308V395.741C281.689 395.814 281.652 395.851 281.579 395.851H280.798Z" fill="black"/>
<g filter="url(#filter5_i)">
<path d="M152 323C152 336.807 140.807 348 127 348C113.193 348 102 336.807 102 323C102 309.193 113.193 298 127 298C140.807 298 152 309.193 152 323Z" fill="white"/>
<path d="M152 323C152 336.807 140.807 348 127 348C113.193 348 102 336.807 102 323C102 309.193 113.193 298 127 298C140.807 298 152 309.193 152 323Z" fill="url(#paint10_linear)"/>
<path d="M152 323C152 336.807 140.807 348 127 348C113.193 348 102 336.807 102 323C102 309.193 113.193 298 127 298C140.807 298 152 309.193 152 323Z" fill="url(#paint11_linear)"/>
</g>
<path d="M151.5 323C151.5 336.531 140.531 347.5 127 347.5C113.469 347.5 102.5 336.531 102.5 323C102.5 309.469 113.469 298.5 127 298.5C140.531 298.5 151.5 309.469 151.5 323Z" stroke="#AEACFF"/>
<path d="M119.707 323.899C120.275 323.899 120.732 324.072 121.079 324.418C121.425 324.761 121.598 325.171 121.598 325.648C121.598 326.256 121.381 326.776 120.947 327.206C120.514 327.636 119.993 327.851 119.384 327.851H115.815C115.738 327.851 115.7 327.814 115.7 327.741V320.127C115.7 320.095 115.711 320.067 115.733 320.045C115.755 320.024 115.782 320.013 115.815 320.013H119.094C119.699 320.013 120.217 320.229 120.647 320.663C121.08 321.093 121.297 321.612 121.297 322.221C121.297 322.345 121.281 322.476 121.248 322.614C121.215 322.753 121.159 322.899 121.079 323.052C120.998 323.201 120.898 323.336 120.778 323.456C120.661 323.573 120.51 323.671 120.324 323.751C120.138 323.828 119.933 323.866 119.707 323.866V323.899ZM119.094 320.909H116.706V323.483H119.094C119.444 323.483 119.73 323.36 119.953 323.112C120.179 322.864 120.291 322.567 120.291 322.221C120.291 321.813 120.189 321.492 119.985 321.259C119.781 321.026 119.484 320.909 119.094 320.909ZM119.384 326.954C119.781 326.954 120.082 326.841 120.286 326.615C120.49 326.389 120.592 326.067 120.592 325.648C120.592 325.302 120.477 325.005 120.248 324.757C120.022 324.506 119.734 324.38 119.384 324.38H116.706V326.954H119.384Z" fill="black"/>
<path d="M126.645 327.96C127.195 327.96 127.699 327.856 128.159 327.648C128.618 327.437 128.984 327.147 129.257 326.779C129.534 326.408 129.682 325.996 129.7 325.544C129.711 325.282 129.685 325.047 129.623 324.839C129.565 324.631 129.469 324.453 129.334 324.303C129.199 324.15 129.048 324.019 128.88 323.91C128.716 323.8 128.512 323.706 128.268 323.626C128.027 323.545 127.791 323.48 127.557 323.429C127.328 323.378 127.056 323.329 126.743 323.281C126.513 323.241 126.329 323.207 126.191 323.177C126.052 323.148 125.899 323.112 125.732 323.068C125.568 323.021 125.438 322.971 125.344 322.92C125.249 322.869 125.158 322.808 125.07 322.735C124.983 322.658 124.921 322.571 124.885 322.472C124.848 322.37 124.83 322.255 124.83 322.128C124.83 321.738 124.994 321.419 125.322 321.171C125.65 320.924 126.091 320.8 126.645 320.8C127.191 320.8 127.623 320.925 127.94 321.177C128.257 321.428 128.428 321.784 128.454 322.243C128.454 322.316 128.492 322.352 128.569 322.352H129.35C129.427 322.352 129.465 322.316 129.465 322.243C129.447 321.776 129.306 321.363 129.044 321.002C128.782 320.641 128.441 320.368 128.022 320.182C127.603 319.996 127.144 319.903 126.645 319.903C125.857 319.903 125.198 320.115 124.666 320.537C124.134 320.96 123.853 321.49 123.824 322.128C123.813 322.332 123.83 322.52 123.873 322.691C123.921 322.859 123.983 323.004 124.059 323.128C124.139 323.248 124.249 323.36 124.387 323.462C124.529 323.56 124.67 323.644 124.808 323.713C124.946 323.779 125.121 323.841 125.333 323.899C125.548 323.957 125.743 324.005 125.918 324.041C126.096 324.074 126.315 324.112 126.573 324.156C127.361 324.287 127.909 324.445 128.219 324.631C128.532 324.817 128.689 325.121 128.689 325.544C128.689 325.989 128.512 326.355 128.159 326.643C127.809 326.927 127.304 327.069 126.645 327.069C126.069 327.069 125.588 326.912 125.202 326.599C124.819 326.282 124.613 325.894 124.584 325.435C124.584 325.358 124.542 325.32 124.458 325.32H123.688C123.611 325.32 123.573 325.355 123.573 325.424C123.591 325.93 123.744 326.38 124.032 326.774C124.32 327.164 124.691 327.459 125.147 327.659C125.602 327.86 126.102 327.96 126.645 327.96Z" fill="black"/>
<path d="M137.261 325.03C137.272 324.961 137.312 324.926 137.381 324.926H138.19C138.267 324.926 138.299 324.968 138.289 325.052C138.194 325.478 138.059 325.865 137.884 326.211C137.709 326.553 137.491 326.858 137.228 327.124C136.966 327.39 136.643 327.596 136.261 327.741C135.882 327.887 135.457 327.96 134.987 327.96C134.433 327.96 133.938 327.858 133.5 327.654C133.063 327.45 132.704 327.166 132.424 326.801C132.143 326.437 131.928 326.012 131.779 325.528C131.633 325.039 131.56 324.507 131.56 323.932C131.56 323.352 131.633 322.82 131.779 322.336C131.924 321.847 132.136 321.423 132.413 321.062C132.693 320.698 133.052 320.413 133.49 320.209C133.93 320.005 134.43 319.903 134.987 319.903C135.454 319.903 135.874 319.974 136.25 320.116C136.629 320.255 136.949 320.455 137.212 320.718C137.474 320.976 137.693 321.275 137.868 321.614C138.046 321.949 138.186 322.33 138.289 322.756C138.299 322.84 138.267 322.882 138.19 322.882H137.381C137.312 322.882 137.272 322.848 137.261 322.778C137.181 322.472 137.081 322.204 136.96 321.975C136.84 321.742 136.691 321.534 136.512 321.352C136.337 321.17 136.12 321.031 135.862 320.936C135.607 320.838 135.315 320.789 134.987 320.789C134.448 320.789 133.992 320.927 133.621 321.204C133.253 321.481 132.985 321.851 132.817 322.314C132.65 322.777 132.566 323.316 132.566 323.932C132.566 324.383 132.615 324.799 132.713 325.178C132.812 325.553 132.958 325.885 133.151 326.173C133.344 326.457 133.597 326.679 133.91 326.839C134.224 327 134.583 327.08 134.987 327.08C135.315 327.08 135.607 327.031 135.862 326.932C136.12 326.83 136.337 326.685 136.512 326.495C136.691 326.306 136.84 326.092 136.96 325.856C137.081 325.619 137.181 325.344 137.261 325.03Z" fill="black"/>
<g filter="url(#filter6_i)">
<path d="M434 320C434 333.807 422.807 345 409 345C395.193 345 384 333.807 384 320C384 306.193 395.193 295 409 295C422.807 295 434 306.193 434 320Z" fill="white"/>
<path d="M434 320C434 333.807 422.807 345 409 345C395.193 345 384 333.807 384 320C384 306.193 395.193 295 409 295C422.807 295 434 306.193 434 320Z" fill="url(#paint12_linear)"/>
<path d="M434 320C434 333.807 422.807 345 409 345C395.193 345 384 333.807 384 320C384 306.193 395.193 295 409 295C422.807 295 434 306.193 434 320Z" fill="url(#paint13_linear)"/>
</g>
<path d="M433.5 320C433.5 333.531 422.531 344.5 409 344.5C395.469 344.5 384.5 333.531 384.5 320C384.5 306.469 395.469 295.5 409 295.5C422.531 295.5 433.5 306.469 433.5 320Z" stroke="#AEACFF"/>
<path d="M399.899 324.725C399.914 324.761 399.912 324.792 399.894 324.818C399.876 324.84 399.847 324.851 399.807 324.851H398.981C398.912 324.851 398.866 324.821 398.845 324.763L398.15 322.823H394.794L394.111 324.763C394.093 324.821 394.047 324.851 393.975 324.851H393.149C393.109 324.851 393.08 324.84 393.062 324.818C393.047 324.792 393.047 324.761 393.062 324.725L395.97 317.106C395.991 317.044 396.037 317.013 396.106 317.013H396.855C396.921 317.013 396.964 317.044 396.986 317.106L399.899 324.725ZM395.117 321.926H397.839L396.472 318.1L395.117 321.926Z" fill="black"/>
<path d="M406.449 317.013C406.482 317.013 406.509 317.024 406.531 317.045C406.553 317.067 406.564 317.095 406.564 317.127V317.8C406.564 317.873 406.526 317.909 406.449 317.909H403.82V324.741C403.82 324.814 403.782 324.851 403.705 324.851H402.924C402.847 324.851 402.809 324.814 402.809 324.741V317.909H400.18C400.107 317.909 400.071 317.873 400.071 317.8V317.127C400.071 317.051 400.107 317.013 400.18 317.013H406.449Z" fill="black"/>
<path d="M411.419 324.96C411.995 324.96 412.509 324.86 412.961 324.659C413.413 324.459 413.781 324.178 414.065 323.818C414.349 323.457 414.564 323.034 414.71 322.55C414.859 322.061 414.934 321.522 414.934 320.932C414.934 320.341 414.859 319.802 414.71 319.314C414.561 318.822 414.342 318.397 414.054 318.04C413.766 317.679 413.398 317.401 412.95 317.204C412.502 317.004 411.992 316.903 411.419 316.903C410.84 316.903 410.324 317.004 409.873 317.204C409.424 317.401 409.056 317.679 408.769 318.04C408.481 318.401 408.262 318.825 408.113 319.314C407.967 319.802 407.894 320.341 407.894 320.932C407.894 321.73 408.023 322.427 408.282 323.025C408.541 323.623 408.938 324.095 409.474 324.441C410.009 324.787 410.658 324.96 411.419 324.96ZM411.419 317.8C412.239 317.8 412.859 318.082 413.278 318.647C413.697 319.212 413.906 319.973 413.906 320.932C413.906 321.398 413.855 321.821 413.753 322.2C413.651 322.579 413.5 322.908 413.3 323.189C413.103 323.47 412.844 323.686 412.524 323.839C412.203 323.993 411.835 324.069 411.419 324.069C411 324.069 410.631 323.993 410.31 323.839C409.989 323.686 409.729 323.47 409.528 323.189C409.328 322.908 409.177 322.579 409.075 322.2C408.976 321.821 408.927 321.398 408.927 320.932C408.927 320.465 408.976 320.044 409.075 319.669C409.177 319.29 409.328 318.96 409.528 318.68C409.729 318.399 409.989 318.182 410.31 318.029C410.631 317.876 411 317.8 411.419 317.8Z" fill="black"/>
<path d="M417.275 324.851C417.199 324.851 417.16 324.814 417.16 324.741V317.127C417.16 317.095 417.171 317.067 417.193 317.045C417.215 317.024 417.242 317.013 417.275 317.013H418.193C418.244 317.013 418.285 317.044 418.314 317.106L421.112 323.599L423.911 317.106C423.94 317.044 423.982 317.013 424.036 317.013H424.955C425.028 317.013 425.064 317.051 425.064 317.127V324.741C425.064 324.814 425.028 324.851 424.955 324.851H424.168C424.095 324.851 424.058 324.814 424.058 324.741V319.308L421.648 324.763C421.63 324.821 421.59 324.851 421.528 324.851H420.697C420.635 324.851 420.595 324.821 420.577 324.763L418.166 319.308V324.741C418.166 324.814 418.13 324.851 418.057 324.851H417.275Z" fill="black"/>
<defs>
<filter id="filter0_dii" x="225" y="200" width="98" height="100" filterUnits="userSpaceOnUse" color-interpolation-filters="sRGB">
<feFlood flood-opacity="0" result="BackgroundImageFix"/>
<feColorMatrix in="SourceAlpha" type="matrix" values="0 0 0 0 0 0 0 0 0 0 0 0 0 0 0 0 0 0 127 0"/>
<feOffset dy="4"/>
<feGaussianBlur stdDeviation="2"/>
<feColorMatrix type="matrix" values="0 0 0 0 0 0 0 0 0 0 0 0 0 0 0 0 0 0 0.15 0"/>
<feBlend mode="normal" in2="BackgroundImageFix" result="effect1_dropShadow"/>
<feBlend mode="normal" in="SourceGraphic" in2="effect1_dropShadow" result="shape"/>
<feColorMatrix in="SourceAlpha" type="matrix" values="0 0 0 0 0 0 0 0 0 0 0 0 0 0 0 0 0 0 127 0" result="hardAlpha"/>
<feOffset dy="-2"/>
<feGaussianBlur stdDeviation="2"/>
<feComposite in2="hardAlpha" operator="arithmetic" k2="-1" k3="1"/>
<feColorMatrix type="matrix" values="0 0 0 0 0 0 0 0 0 0 0 0 0 0 0 0 0 0 0.1 0"/>
<feBlend mode="normal" in2="shape" result="effect2_innerShadow"/>
<feColorMatrix in="SourceAlpha" type="matrix" values="0 0 0 0 0 0 0 0 0 0 0 0 0 0 0 0 0 0 127 0" result="hardAlpha"/>
<feOffset/>
<feGaussianBlur stdDeviation="1"/>
<feComposite in2="hardAlpha" operator="arithmetic" k2="-1" k3="1"/>
<feColorMatrix type="matrix" values="0 0 0 0 1 0 0 0 0 1 0 0 0 0 1 0 0 0 1 0"/>
<feBlend mode="normal" in2="effect2_innerShadow" result="effect3_innerShadow"/>
</filter>
<filter id="filter1_i" x="96" y="98" width="50" height="50" filterUnits="userSpaceOnUse" color-interpolation-filters="sRGB">
<feFlood flood-opacity="0" result="BackgroundImageFix"/>
<feBlend mode="normal" in="SourceGraphic" in2="BackgroundImageFix" result="shape"/>
<feColorMatrix in="SourceAlpha" type="matrix" values="0 0 0 0 0 0 0 0 0 0 0 0 0 0 0 0 0 0 127 0" result="hardAlpha"/>
<feOffset/>
<feGaussianBlur stdDeviation="1"/>
<feComposite in2="hardAlpha" operator="arithmetic" k2="-1" k3="1"/>
<feColorMatrix type="matrix" values="0 0 0 0 1 0 0 0 0 1 0 0 0 0 1 0 0 0 1 0"/>
<feBlend mode="normal" in2="shape" result="effect1_innerShadow"/>
</filter>
<filter id="filter2_i" x="265" y="47" width="50" height="50" filterUnits="userSpaceOnUse" color-interpolation-filters="sRGB">
<feFlood flood-opacity="0" result="BackgroundImageFix"/>
<feBlend mode="normal" in="SourceGraphic" in2="BackgroundImageFix" result="shape"/>
<feColorMatrix in="SourceAlpha" type="matrix" values="0 0 0 0 0 0 0 0 0 0 0 0 0 0 0 0 0 0 127 0" result="hardAlpha"/>
<feOffset/>
<feGaussianBlur stdDeviation="1"/>
<feComposite in2="hardAlpha" operator="arithmetic" k2="-1" k3="1"/>
<feColorMatrix type="matrix" values="0 0 0 0 1 0 0 0 0 1 0 0 0 0 1 0 0 0 1 0"/>
<feBlend mode="normal" in2="shape" result="effect1_innerShadow"/>
</filter>
<filter id="filter3_i" x="409" y="111" width="50" height="50" filterUnits="userSpaceOnUse" color-interpolation-filters="sRGB">
<feFlood flood-opacity="0" result="BackgroundImageFix"/>
<feBlend mode="normal" in="SourceGraphic" in2="BackgroundImageFix" result="shape"/>
<feColorMatrix in="SourceAlpha" type="matrix" values="0 0 0 0 0 0 0 0 0 0 0 0 0 0 0 0 0 0 127 0" result="hardAlpha"/>
<feOffset/>
<feGaussianBlur stdDeviation="1"/>
<feComposite in2="hardAlpha" operator="arithmetic" k2="-1" k3="1"/>
<feColorMatrix type="matrix" values="0 0 0 0 1 0 0 0 0 1 0 0 0 0 1 0 0 0 1 0"/>
<feBlend mode="normal" in2="shape" result="effect1_innerShadow"/>
</filter>
<filter id="filter4_i" x="252" y="366" width="50" height="50" filterUnits="userSpaceOnUse" color-interpolation-filters="sRGB">
<feFlood flood-opacity="0" result="BackgroundImageFix"/>
<feBlend mode="normal" in="SourceGraphic" in2="BackgroundImageFix" result="shape"/>
<feColorMatrix in="SourceAlpha" type="matrix" values="0 0 0 0 0 0 0 0 0 0 0 0 0 0 0 0 0 0 127 0" result="hardAlpha"/>
<feOffset/>
<feGaussianBlur stdDeviation="1"/>
<feComposite in2="hardAlpha" operator="arithmetic" k2="-1" k3="1"/>
<feColorMatrix type="matrix" values="0 0 0 0 1 0 0 0 0 1 0 0 0 0 1 0 0 0 1 0"/>
<feBlend mode="normal" in2="shape" result="effect1_innerShadow"/>
</filter>
<filter id="filter5_i" x="102" y="298" width="50" height="50" filterUnits="userSpaceOnUse" color-interpolation-filters="sRGB">
<feFlood flood-opacity="0" result="BackgroundImageFix"/>
<feBlend mode="normal" in="SourceGraphic" in2="BackgroundImageFix" result="shape"/>
<feColorMatrix in="SourceAlpha" type="matrix" values="0 0 0 0 0 0 0 0 0 0 0 0 0 0 0 0 0 0 127 0" result="hardAlpha"/>
<feOffset/>
<feGaussianBlur stdDeviation="1"/>
<feComposite in2="hardAlpha" operator="arithmetic" k2="-1" k3="1"/>
<feColorMatrix type="matrix" values="0 0 0 0 1 0 0 0 0 1 0 0 0 0 1 0 0 0 1 0"/>
<feBlend mode="normal" in2="shape" result="effect1_innerShadow"/>
</filter>
<filter id="filter6_i" x="384" y="295" width="50" height="50" filterUnits="userSpaceOnUse" color-interpolation-filters="sRGB">
<feFlood flood-opacity="0" result="BackgroundImageFix"/>
<feBlend mode="normal" in="SourceGraphic" in2="BackgroundImageFix" result="shape"/>
<feColorMatrix in="SourceAlpha" type="matrix" values="0 0 0 0 0 0 0 0 0 0 0 0 0 0 0 0 0 0 127 0" result="hardAlpha"/>
<feOffset/>
<feGaussianBlur stdDeviation="1"/>
<feComposite in2="hardAlpha" operator="arithmetic" k2="-1" k3="1"/>
<feColorMatrix type="matrix" values="0 0 0 0 1 0 0 0 0 1 0 0 0 0 1 0 0 0 1 0"/>
<feBlend mode="normal" in2="shape" result="effect1_innerShadow"/>
</filter>
<linearGradient id="paint0_linear" x1="274" y1="202" x2="274" y2="292" gradientUnits="userSpaceOnUse">
<stop stop-color="white"/>
<stop offset="1" stop-color="white" stop-opacity="0"/>
</linearGradient>
<radialGradient id="paint1_radial" cx="0" cy="0" r="1" gradientUnits="userSpaceOnUse" gradientTransform="translate(273.8 243.4) rotate(89.7642) scale(48.6004)">
<stop/>
<stop offset="1" stop-color="#BFBFC1" stop-opacity="0.11"/>
</radialGradient>
<linearGradient id="paint2_linear" x1="121" y1="98" x2="121" y2="148" gradientUnits="userSpaceOnUse">
<stop offset="0.254721" stop-color="#5551FF"/>
<stop offset="1" stop-color="#5551FF" stop-opacity="0"/>
</linearGradient>
<linearGradient id="paint3_linear" x1="121" y1="98" x2="121" y2="148" gradientUnits="userSpaceOnUse">
<stop stop-color="white"/>
<stop offset="1" stop-color="white" stop-opacity="0"/>
</linearGradient>
<linearGradient id="paint4_linear" x1="290" y1="47" x2="290" y2="97" gradientUnits="userSpaceOnUse">
<stop offset="0.254721" stop-color="#5551FF"/>
<stop offset="1" stop-color="#5551FF" stop-opacity="0"/>
</linearGradient>
<linearGradient id="paint5_linear" x1="290" y1="47" x2="290" y2="97" gradientUnits="userSpaceOnUse">
<stop stop-color="white"/>
<stop offset="1" stop-color="white" stop-opacity="0"/>
</linearGradient>
<linearGradient id="paint6_linear" x1="434" y1="111" x2="434" y2="161" gradientUnits="userSpaceOnUse">
<stop offset="0.254721" stop-color="#5551FF"/>
<stop offset="1" stop-color="#5551FF" stop-opacity="0"/>
</linearGradient>
<linearGradient id="paint7_linear" x1="434" y1="111" x2="434" y2="161" gradientUnits="userSpaceOnUse">
<stop stop-color="white"/>
<stop offset="1" stop-color="white" stop-opacity="0"/>
</linearGradient>
<linearGradient id="paint8_linear" x1="277" y1="366" x2="277" y2="416" gradientUnits="userSpaceOnUse">
<stop offset="0.254721" stop-color="#5551FF"/>
<stop offset="1" stop-color="#5551FF" stop-opacity="0"/>
</linearGradient>
<linearGradient id="paint9_linear" x1="277" y1="366" x2="277" y2="416" gradientUnits="userSpaceOnUse">
<stop stop-color="white"/>
<stop offset="1" stop-color="white" stop-opacity="0"/>
</linearGradient>
<linearGradient id="paint10_linear" x1="127" y1="298" x2="127" y2="348" gradientUnits="userSpaceOnUse">
<stop offset="0.254721" stop-color="#5551FF"/>
<stop offset="1" stop-color="#5551FF" stop-opacity="0"/>
</linearGradient>
<linearGradient id="paint11_linear" x1="127" y1="298" x2="127" y2="348" gradientUnits="userSpaceOnUse">
<stop stop-color="white"/>
<stop offset="1" stop-color="white" stop-opacity="0"/>
</linearGradient>
<linearGradient id="paint12_linear" x1="409" y1="295" x2="409" y2="345" gradientUnits="userSpaceOnUse">
<stop offset="0.254721" stop-color="#5551FF"/>
<stop offset="1" stop-color="#5551FF" stop-opacity="0"/>
</linearGradient>
<linearGradient id="paint13_linear" x1="409" y1="295" x2="409" y2="345" gradientUnits="userSpaceOnUse">
<stop stop-color="white"/>
<stop offset="1" stop-color="white" stop-opacity="0"/>
</linearGradient>
</defs>
</svg>
