<svg width="216" height="45" viewBox="0 0 216 45" fill="none" xmlns="http://www.w3.org/2000/svg">
<path d="M87.8857 5.26062C87.8857 5.06212 88.049 4.90332 88.2531 4.90332H99.9685C103.52 4.90332 106.541 5.61792 109.071 7.04712C111.602 8.47632 113.521 10.501 114.868 13.0815C116.174 15.662 116.868 18.7189 116.868 22.1728C116.868 25.7458 116.215 28.8424 114.868 31.4626C113.521 34.0431 111.602 36.0281 109.071 37.4176C106.541 38.8071 103.52 39.482 100.009 39.482H88.2939C88.0898 39.482 87.9266 39.3232 87.9266 39.1247V5.26062H87.8857ZM99.4787 35.6708C101.765 35.6708 103.765 35.3532 105.438 34.718C107.112 34.0828 108.337 33.1697 109.153 32.0184C110.051 30.748 110.704 29.3982 111.072 27.8896C111.48 26.381 111.684 24.5151 111.684 22.2522C111.684 19.9893 111.48 18.1234 111.072 16.6148C110.663 15.1062 110.01 13.7564 109.153 12.5257C108.296 11.3347 107.03 10.3819 105.357 9.74672C103.683 9.11152 101.724 8.79392 99.5195 8.79392H92.8658C92.6617 8.79392 92.4984 8.95272 92.4984 9.15122V35.3532C92.4984 35.5517 92.6617 35.7105 92.8658 35.7105H99.4787V35.6708Z" fill="#5E5E62"/>
<path d="M122.828 4.94238H147.32C147.525 4.94238 147.688 5.10118 147.688 5.29968V8.63449C147.688 8.83299 147.525 8.99179 147.32 8.99179H127.4C127.196 8.99179 127.033 9.15059 127.033 9.34909V16.7333C127.033 16.9318 127.196 17.0906 127.4 17.0906H145.443C145.647 17.0906 145.81 17.2494 145.81 17.4479V20.6636C145.81 20.8621 145.647 21.0209 145.443 21.0209H127.033H122.828C122.624 21.0209 122.461 20.8621 122.461 20.6636V5.25998C122.502 5.10118 122.624 4.94238 122.828 4.94238Z" fill="#5E5E62"/>
<path d="M122.502 24.3954C122.502 24.1969 122.665 24.0381 122.869 24.0381H127.074H145.484C145.688 24.0381 145.851 24.1969 145.851 24.3954V27.7302C145.851 27.9287 145.688 28.0875 145.484 28.0875H127.441C127.237 28.0875 127.074 28.2463 127.074 28.4448V35.1938C127.074 35.3923 127.237 35.5511 127.441 35.5511H147.361C147.566 35.5511 147.729 35.7099 147.729 35.9084V39.2432C147.729 39.4417 147.566 39.6005 147.361 39.6005H122.869C122.665 39.6005 122.502 39.4417 122.502 39.2432V24.3954Z" fill="#5E5E62"/>
<path d="M156.873 37.0206C154.505 34.9562 153.321 31.9787 153.321 28.0881V5.26062C153.321 5.06212 153.485 4.90332 153.689 4.90332H157.607C157.812 4.90332 157.975 5.06212 157.975 5.26062V28.0881C157.975 29.8349 158.383 31.3435 159.24 32.5345C160.057 33.7652 161.2 34.6386 162.587 35.2341C163.975 35.8296 165.527 36.1075 167.241 36.1075C168.915 36.1075 170.466 35.8296 171.894 35.2341C173.323 34.6386 174.425 33.7255 175.283 32.5345C176.14 31.3038 176.548 29.8349 176.548 28.0881V5.26062C176.548 5.06212 176.711 4.90332 176.915 4.90332H180.834C181.038 4.90332 181.201 5.06212 181.201 5.26062V28.0881C181.201 31.9787 180.018 34.9165 177.65 36.9809C175.283 39.0453 171.813 40.0775 167.323 40.0775C162.669 40.1172 159.24 39.085 156.873 37.0206Z" fill="#5E5E62"/>
<path d="M193.324 38.8069C191.12 37.9335 189.324 36.5837 188.018 34.7972C186.752 33.0901 186.099 31.0257 186.018 28.5643C186.018 28.4055 186.14 28.2467 186.344 28.207L190.508 27.81C190.712 27.7703 190.875 27.9291 190.875 28.1276C190.916 29.7553 191.324 31.1845 192.141 32.3755C192.957 33.6459 194.141 34.6384 195.57 35.3133C197.039 35.9882 198.672 36.3455 200.55 36.3455C203.448 36.3455 205.815 35.8294 207.611 34.7972C209.408 33.765 210.306 32.0976 210.306 29.7553C210.306 28.5643 209.938 27.6115 209.203 26.9366C208.469 26.2617 207.53 25.7456 206.428 25.428C205.326 25.1104 203.815 24.7928 201.937 24.4752C200.468 24.237 199.407 23.9988 198.672 23.84C196.345 23.3239 194.386 22.6887 192.753 22.0138C191.12 21.3389 189.773 20.3464 188.671 19.076C187.569 17.7659 187.038 16.0985 187.038 14.0341C187.038 11.8109 187.65 9.98472 188.875 8.51582C190.1 7.04692 191.692 6.01472 193.61 5.33982C195.529 4.66492 197.529 4.30762 199.611 4.30762C203.611 4.30762 206.877 5.18102 209.448 6.92782C211.938 8.63492 213.367 11.3345 213.775 15.0266C213.775 15.1854 213.653 15.3839 213.49 15.3839L209.408 16.0985C209.203 16.1382 208.999 15.9794 208.999 15.7809C208.918 14.2326 208.51 12.8828 207.816 11.7712C207.04 10.5405 205.979 9.62742 204.55 8.99222C203.162 8.35702 201.448 8.03942 199.529 8.03942C198.304 8.03942 197.08 8.23792 195.896 8.67462C194.712 9.11132 193.692 9.74652 192.916 10.6596C192.181 11.4933 191.773 12.5255 191.732 13.7165C191.692 14.9472 192.263 16.1382 193.243 16.9322C194.182 17.6865 195.406 18.282 196.835 18.679C198.304 19.1157 200.019 19.473 201.978 19.7509C204.917 20.1876 207.244 20.7037 209.04 21.2595C210.795 21.8153 212.265 22.7284 213.408 24.0385C214.551 25.3089 215.122 27.0954 215.122 29.4377C215.122 32.0579 214.428 34.2017 213.081 35.75C211.734 37.338 209.979 38.4496 207.816 39.1245C205.693 39.7994 203.325 40.117 200.794 40.117C198.019 40.117 195.529 39.6803 193.324 38.8069Z" fill="#5E5E62"/>
<path d="M72.7412 12.2475C73.0269 11.7711 73.231 11.2153 73.231 10.6595C73.231 10.5007 73.1902 10.3419 73.1902 10.2228C72.9861 8.75385 71.6798 7.64225 70.1287 7.64225H70.0879C68.8632 7.64225 67.7611 8.35685 67.2713 9.38906C61.4748 8.71416 57.4336 6.13365 55.2293 4.22805C55.3926 3.87075 55.515 3.43405 55.515 2.99735C55.515 1.72695 54.6986 0.57565 53.474 0.17865C52.8209 -0.05955 52.0453 -0.05955 51.3922 0.17865C50.1676 0.61535 49.3512 1.76665 49.3512 2.99735C49.3512 3.43405 49.4328 3.83105 49.6369 4.22805C47.3918 6.09395 43.3506 8.71416 37.5133 9.38906C37.0235 8.35685 35.9622 7.68195 34.7376 7.64225C34.7376 7.64225 34.7376 7.64225 34.6967 7.64225C33.268 7.64225 31.9618 8.63476 31.676 10.0243C31.6352 10.2228 31.5944 10.4213 31.5944 10.6198C31.5944 11.2153 31.7577 11.7711 32.0842 12.2475C31.0637 13.8355 29.9616 16.0984 29.4717 18.7583C28.4512 24.4751 30.2473 32.7724 44.6569 39.9184C46.0856 40.633 47.6367 41.3079 49.2695 41.9828V42.0225C49.2695 43.6899 50.6574 45 52.3719 45C54.0863 45 55.4742 43.6502 55.4742 42.0225V41.9828C57.0254 41.3476 58.5357 40.6727 59.9236 39.9978C68.4142 35.7896 73.5168 30.7874 75.0679 25.0309C76.5374 19.6714 74.4556 14.9471 72.7412 12.2475ZM54.3313 31.7799C53.8414 31.3035 53.1883 31.0653 52.4535 31.0653C51.7188 31.0653 51.0656 31.3432 50.5758 31.7799C49.841 31.4226 48.943 30.9462 48.0858 30.3507C45.1467 28.2069 43.6364 25.3485 43.6364 21.8549C43.6364 20.9815 43.7588 20.1875 44.0037 19.3935C44.4119 19.3935 44.8201 19.2744 45.1467 19.1156V19.3935V19.1156C46.0448 18.6789 46.6571 17.8055 46.6571 16.7733C46.6571 16.3366 46.5346 15.9793 46.3713 15.622C47.9633 14.1928 50.0451 13.2797 52.4127 13.2797C54.7395 13.2797 56.8621 14.1928 58.4541 15.622C58.2908 15.9793 58.1684 16.3366 58.1684 16.7733C58.1684 18.2025 59.3521 19.3538 60.8217 19.3935C61.0666 20.1875 61.189 20.9815 61.189 21.8549C61.189 25.3485 59.7195 28.2069 56.7396 30.3507C55.9232 30.9462 55.0252 31.4226 54.3313 31.7799ZM52.4535 5.97485C52.4943 5.97485 52.4943 5.97485 52.5352 5.97485C53.025 7.84075 53.8006 9.66695 54.8211 11.3344C54.0863 11.1756 53.2699 11.0962 52.4535 11.0962C51.6371 11.0962 50.8615 11.1756 50.086 11.3344C51.1065 9.66695 51.882 7.84075 52.3719 5.97485C52.3719 5.97485 52.4127 5.97485 52.4535 5.97485ZM45.1467 13.7561C45.1059 13.7958 45.1059 13.7958 45.1059 13.7958C45.0651 13.8355 45.0242 13.8355 45.0242 13.8752C44.861 13.9943 44.7385 14.1134 44.616 14.1928C44.4119 14.1531 44.2078 14.1134 44.0037 14.1134C43.718 14.1134 43.4323 14.1531 43.1873 14.2325C41.9627 13.1209 40.6157 12.1284 39.1461 11.2947C43.8405 10.5007 47.3918 8.59505 49.7594 6.84825C48.8205 9.54786 47.2285 11.8902 45.1467 13.7561ZM61.7197 14.2722C61.4748 14.1928 61.1482 14.1531 60.8625 14.1531C60.6584 14.1531 60.4543 14.1928 60.2502 14.2325C60.1277 14.1134 60.0053 14.034 59.8828 13.9149L59.5971 13.6767C57.5561 11.8108 56.0049 9.46846 55.1477 6.96735C57.5561 8.71415 61.1482 10.6595 65.8834 11.4138C64.373 12.1681 62.9851 13.1606 61.7197 14.2722ZM45.759 38.0128C35.309 32.8121 30.4514 26.3013 31.7577 19.1553C32.1659 16.8924 33.1047 14.9471 33.962 13.5576C34.2069 13.637 34.4518 13.637 34.6967 13.637C35.554 13.637 36.3704 13.3194 36.901 12.7239C38.5747 13.5179 40.085 14.5104 41.4729 15.7808C41.3504 16.0984 41.2688 16.416 41.2688 16.7733C41.2688 17.4085 41.5137 18.004 41.9219 18.4804C41.5545 19.5523 41.3504 20.6639 41.3504 21.8549C41.3504 26.0631 43.2282 29.5964 46.7795 32.1769C47.8 32.9312 48.8613 33.487 49.7186 33.884C49.8002 34.8368 50.4125 35.6705 51.2697 36.0675V39.3229C50.8207 39.4817 50.4533 39.7596 50.1676 40.0375C48.6164 39.3626 47.1061 38.6877 45.759 38.0128ZM72.9044 24.5545C71.5574 29.6361 66.8222 34.2016 58.9439 38.0922C57.5969 38.7274 56.1682 39.4023 54.6578 39.9978C54.3721 39.6802 53.9639 39.442 53.5557 39.2832V36.0278C54.4129 35.6308 55.0252 34.7971 55.1068 33.8443C56.0049 33.4473 57.0254 32.8915 58.0459 32.1372C61.5972 29.5964 63.475 26.0234 63.475 21.8152C63.475 20.6242 63.2709 19.5126 62.9035 18.4407C63.3117 17.9643 63.5566 17.4085 63.5566 16.7336C63.5566 16.416 63.475 16.0587 63.3525 15.7808C64.7404 14.5501 66.2508 13.5576 67.9652 12.8033C68.5367 13.3194 69.2715 13.637 70.0879 13.637H70.1287C70.3736 13.637 70.6593 13.5973 70.9043 13.5179C72.3738 15.9396 74.1291 19.989 72.9044 24.5545Z" fill="#8D8C92"/>
<path d="M43.0653 19.3931C42.6163 19.3931 42.1673 19.4725 41.7591 19.671L26.0841 4.42623C26.2474 4.02923 26.3698 3.63223 26.3698 3.15583C26.3698 1.40903 24.9003 0.0195312 23.1451 0.0195312C21.3898 0.0195312 19.9203 1.44873 19.9203 3.15583C19.9203 3.59253 20.0019 4.02923 20.206 4.42623L4.53104 19.6313C4.12284 19.4725 3.71464 19.3534 3.2248 19.3534C1.42871 19.3534 0 20.7826 0 22.4897C0 24.1968 1.46953 25.626 3.2248 25.626C3.67382 25.626 4.12284 25.5466 4.53104 25.3481L20.206 40.593C20.0427 40.99 19.9203 41.387 19.9203 41.8634C19.9203 43.6102 21.3898 44.9997 23.1451 44.9997C24.9003 44.9997 26.3698 43.5705 26.3698 41.8634C26.3698 41.4267 26.2882 40.99 26.0841 40.593L41.7591 25.3481C42.1673 25.5069 42.5755 25.626 43.0653 25.626C44.8614 25.626 46.2901 24.1968 46.2901 22.4897C46.2901 20.7826 44.8614 19.3931 43.0653 19.3931ZM40.0446 21.4178L33.9624 22.847C33.4317 22.1721 32.6153 21.6957 31.6765 21.6957C30.9825 21.6957 30.3702 21.9339 29.8804 22.3309L25.9208 20.5444C25.9208 20.5047 25.9208 20.5047 25.9208 20.465C25.9208 19.3534 25.2677 18.4403 24.288 18.0036V6.09363C24.3288 6.09363 24.3697 6.05393 24.4105 6.05393L40.0854 21.2987C40.0854 21.2987 40.0446 21.3781 40.0446 21.4178ZM23.1451 38.7668C23.0634 38.7668 22.9818 38.7668 22.9001 38.7668L16.7771 26.1818C17.1853 25.7054 17.4302 25.1099 17.4302 24.435L21.4306 22.6088C21.9204 22.9661 22.5328 23.2043 23.1451 23.2043C23.7982 23.2043 24.4105 22.9661 24.9003 22.6088L28.9007 24.435C28.9007 24.435 28.9007 24.435 28.9007 24.4747C28.9007 25.1496 29.1456 25.7451 29.5538 26.2215L23.3492 38.7668C23.3083 38.7668 23.2267 38.7668 23.1451 38.7668ZM21.9613 6.09363V18.0036C21.0224 18.4403 20.3285 19.3931 20.3285 20.465C20.3285 20.5047 20.3285 20.5444 20.3285 20.5444L16.3689 22.3309C15.8791 21.9339 15.2668 21.6957 14.5728 21.6957C13.6339 21.6957 12.8175 22.1324 12.2869 22.847L6.24549 21.4178C6.24549 21.3781 6.20467 21.3384 6.20467 21.259L21.8796 6.01423C21.8796 6.05393 21.9204 6.05393 21.9613 6.09363ZM6.20467 23.7601L11.8787 25.1099C12.2052 26.3009 13.2666 27.1743 14.6136 27.1743H14.6545L19.1447 36.3848L6.20467 23.7601ZM31.6357 27.1743H31.6765C32.9827 27.1743 34.0849 26.3009 34.4114 25.1099L40.0854 23.7601C40.0854 23.7601 40.0854 23.7601 40.0854 23.7998L27.1454 36.3848L31.6357 27.1743Z" fill="#5E5E62"/>
</svg>
