<svg width="653" height="359" viewBox="0 0 653 359" fill="none" xmlns="http://www.w3.org/2000/svg">
<path d="M324.5 69C353.537 69 381.829 78.1925 405.32 95.2601L324.5 206.5V69Z" fill="#FDB3B3"/>
<path d="M405.32 95.26C440.929 121.131 462 162.485 462 206.5H324.5L405.32 95.26Z" fill="#F0CBCB"/>
<path d="M462 206.5C462 250.514 440.929 291.868 405.32 317.739L324.5 206.5H462Z" fill="#FFA451"/>
<path d="M282.01 75.7297C295.732 71.271 310.071 69 324.5 69V206.5L282.01 75.7297Z" fill="#8F00FF"/>
<path d="M236.854 100.554C250.208 89.5078 265.528 81.085 282.01 75.7297L324.5 206.5L236.854 100.554Z" fill="#8BE3F5"/>
<path d="M187.272 215.133C184.508 171.206 202.941 128.61 236.855 100.554L324.5 206.499L187.272 215.133Z" fill="#AEACFF"/>
<path d="M405.32 317.739C364.744 347.219 311.336 352.268 265.955 330.913C220.574 309.558 190.421 265.188 187.271 215.133L324.5 206.5L405.32 317.739Z" fill="#5551FF"/>
<g filter="url(#filter0_d)">
<path d="M23 309C23 303.477 27.4772 299 33 299H188C193.523 299 198 303.477 198 309V334C198 339.523 193.523 344 188 344H33C27.4772 344 23 339.523 23 334V309Z" fill="white"/>
</g>
<g filter="url(#filter1_d)">
<path fill-rule="evenodd" clip-rule="evenodd" d="M188 300H33C28.0294 300 24 304.029 24 309V334C24 338.971 28.0294 343 33 343H188C192.971 343 197 338.971 197 334V309C197 304.029 192.971 300 188 300ZM33 299C27.4772 299 23 303.477 23 309V334C23 339.523 27.4772 344 33 344H188C193.523 344 198 339.523 198 334V309C198 303.477 193.523 299 188 299H33Z" fill="#5551FF"/>
</g>
<path d="M40.5386 314.564H36.3792V317.965H41.2109V319H35.1135V309.402H41.145V310.444H36.3792V313.529H40.5386V314.564Z" fill="white"/>
<path d="M45.3242 318.136C45.7593 318.136 46.1394 318.005 46.4646 317.741C46.7898 317.477 46.97 317.148 47.0051 316.752H48.1587C48.1367 317.161 47.9961 317.55 47.7368 317.919C47.4775 318.288 47.1304 318.583 46.6953 318.802C46.2646 319.022 45.8076 319.132 45.3242 319.132C44.353 319.132 43.5796 318.809 43.0039 318.163C42.4326 317.512 42.147 316.625 42.147 315.5V315.295C42.147 314.601 42.2744 313.984 42.5293 313.443C42.7842 312.903 43.1489 312.483 43.6235 312.184C44.1025 311.885 44.6672 311.736 45.3176 311.736C46.1174 311.736 46.781 311.975 47.3083 312.454C47.8401 312.933 48.1235 313.555 48.1587 314.32H47.0051C46.97 313.858 46.7942 313.48 46.4778 313.186C46.1658 312.887 45.7791 312.738 45.3176 312.738C44.698 312.738 44.2168 312.962 43.874 313.41C43.5356 313.854 43.3665 314.498 43.3665 315.342V315.572C43.3665 316.394 43.5356 317.027 43.874 317.471C44.2124 317.915 44.6958 318.136 45.3242 318.136Z" fill="white"/>
<path d="M49.2068 315.368C49.2068 314.669 49.343 314.041 49.6155 313.483C49.8923 312.925 50.2747 312.494 50.7625 312.191C51.2546 311.887 51.8149 311.736 52.4434 311.736C53.4146 311.736 54.199 312.072 54.7966 312.744C55.3987 313.417 55.6997 314.311 55.6997 315.427V315.513C55.6997 316.207 55.5657 316.831 55.2976 317.385C55.0339 317.934 54.6538 318.363 54.1572 318.67C53.665 318.978 53.0981 319.132 52.4565 319.132C51.4897 319.132 50.7053 318.796 50.1033 318.123C49.5056 317.451 49.2068 316.561 49.2068 315.454V315.368ZM50.4329 315.513C50.4329 316.304 50.6152 316.939 50.98 317.418C51.3491 317.897 51.8413 318.136 52.4565 318.136C53.0762 318.136 53.5684 317.895 53.9331 317.411C54.2979 316.924 54.4802 316.242 54.4802 315.368C54.4802 314.586 54.2935 313.953 53.9199 313.469C53.5508 312.982 53.0586 312.738 52.4434 312.738C51.8413 312.738 51.3557 312.977 50.9866 313.456C50.6174 313.935 50.4329 314.621 50.4329 315.513Z" fill="white"/>
<path d="M61.3818 317.108C61.3818 316.779 61.2566 316.524 61.0061 316.344C60.76 316.159 60.3271 316.001 59.7075 315.869C59.0923 315.737 58.6023 315.579 58.2375 315.394C57.8772 315.21 57.6091 314.99 57.4333 314.735C57.262 314.48 57.1763 314.177 57.1763 313.825C57.1763 313.241 57.4224 312.747 57.9146 312.342C58.4111 311.938 59.0439 311.736 59.813 311.736C60.6216 311.736 61.2764 311.945 61.7773 312.362C62.2827 312.78 62.5354 313.313 62.5354 313.964H61.3093C61.3093 313.63 61.1665 313.342 60.8809 313.1C60.5996 312.859 60.2437 312.738 59.813 312.738C59.3691 312.738 59.022 312.834 58.7715 313.028C58.521 313.221 58.3958 313.474 58.3958 313.786C58.3958 314.08 58.5122 314.302 58.7451 314.452C58.978 314.601 59.3977 314.744 60.0042 314.88C60.615 315.016 61.1094 315.179 61.4873 315.368C61.8652 315.557 62.1443 315.785 62.3245 316.053C62.509 316.317 62.6013 316.64 62.6013 317.022C62.6013 317.66 62.3464 318.172 61.8367 318.558C61.3269 318.941 60.6655 319.132 59.8525 319.132C59.2812 319.132 58.7759 319.031 58.3364 318.829C57.897 318.626 57.552 318.345 57.3015 317.985C57.0554 317.62 56.9324 317.227 56.9324 316.805H58.1519C58.1738 317.214 58.3364 317.539 58.6396 317.781C58.9473 318.018 59.3516 318.136 59.8525 318.136C60.314 318.136 60.6831 318.044 60.96 317.86C61.2412 317.671 61.3818 317.42 61.3818 317.108Z" fill="white"/>
<path d="M66.5234 317.214L68.1846 311.868H69.4897L66.6223 320.101C66.1785 321.287 65.4731 321.881 64.5063 321.881L64.2756 321.861L63.8208 321.775V320.786L64.1504 320.813C64.5635 320.813 64.8843 320.729 65.1128 320.562C65.3457 320.395 65.5369 320.09 65.6863 319.646L65.9565 318.921L63.4121 311.868H64.7437L66.5234 317.214Z" fill="white"/>
<path d="M74.7368 317.108C74.7368 316.779 74.6116 316.524 74.3611 316.344C74.115 316.159 73.6821 316.001 73.0625 315.869C72.4473 315.737 71.9573 315.579 71.5925 315.394C71.2322 315.21 70.9641 314.99 70.7883 314.735C70.6169 314.48 70.5312 314.177 70.5312 313.825C70.5312 313.241 70.7773 312.747 71.2695 312.342C71.7661 311.938 72.3989 311.736 73.168 311.736C73.9766 311.736 74.6313 311.945 75.1323 312.362C75.6377 312.78 75.8904 313.313 75.8904 313.964H74.6643C74.6643 313.63 74.5215 313.342 74.2358 313.1C73.9546 312.859 73.5986 312.738 73.168 312.738C72.7241 312.738 72.377 312.834 72.1265 313.028C71.876 313.221 71.7507 313.474 71.7507 313.786C71.7507 314.08 71.8672 314.302 72.1001 314.452C72.333 314.601 72.7527 314.744 73.3591 314.88C73.97 315.016 74.4644 315.179 74.8423 315.368C75.2202 315.557 75.4993 315.785 75.6794 316.053C75.864 316.317 75.9563 316.64 75.9563 317.022C75.9563 317.66 75.7014 318.172 75.1917 318.558C74.6819 318.941 74.0205 319.132 73.2075 319.132C72.6362 319.132 72.1309 319.031 71.6914 318.829C71.252 318.626 70.907 318.345 70.6565 317.985C70.4104 317.62 70.2874 317.227 70.2874 316.805H71.5068C71.5288 317.214 71.6914 317.539 71.9946 317.781C72.3022 318.018 72.7065 318.136 73.2075 318.136C73.6689 318.136 74.0381 318.044 74.3149 317.86C74.5962 317.671 74.7368 317.42 74.7368 317.108Z" fill="white"/>
<path d="M79.1995 310.141V311.868H80.531V312.81H79.1995V317.233C79.1995 317.519 79.2588 317.734 79.3774 317.879C79.4961 318.02 79.6982 318.09 79.9839 318.09C80.1245 318.09 80.3179 318.064 80.564 318.011V319C80.2432 319.088 79.9312 319.132 79.6279 319.132C79.083 319.132 78.6721 318.967 78.3953 318.637C78.1184 318.308 77.98 317.84 77.98 317.233V312.81H76.6814V311.868H77.98V310.141H79.1995Z" fill="white"/>
<path d="M84.9211 319.132C83.9543 319.132 83.1677 318.815 82.5613 318.183C81.9548 317.545 81.6516 316.695 81.6516 315.632V315.407C81.6516 314.7 81.7856 314.069 82.0537 313.516C82.3262 312.958 82.7041 312.522 83.1875 312.21C83.6753 311.894 84.2026 311.736 84.7695 311.736C85.6968 311.736 86.4175 312.041 86.9316 312.652C87.4458 313.263 87.7029 314.137 87.7029 315.276V315.783H82.8711C82.8887 316.486 83.093 317.055 83.4841 317.49C83.8796 317.921 84.3806 318.136 84.9871 318.136C85.4177 318.136 85.7825 318.049 86.0813 317.873C86.3801 317.697 86.6416 317.464 86.8657 317.174L87.6106 317.754C87.0129 318.673 86.1165 319.132 84.9211 319.132ZM84.7695 312.738C84.2773 312.738 83.8643 312.918 83.5303 313.278C83.1963 313.634 82.9897 314.135 82.9106 314.781H86.4834V314.689C86.4482 314.069 86.2812 313.59 85.9824 313.252C85.6836 312.909 85.2793 312.738 84.7695 312.738Z" fill="white"/>
<path d="M90.2671 311.868L90.3 312.659C90.823 312.043 91.5283 311.736 92.416 311.736C93.4136 311.736 94.0925 312.118 94.4529 312.883C94.6902 312.54 94.9978 312.263 95.3757 312.052C95.7581 311.841 96.2085 311.736 96.7271 311.736C98.2915 311.736 99.0869 312.564 99.1133 314.221V319H97.8938V314.293C97.8938 313.784 97.7773 313.404 97.5444 313.153C97.3115 312.898 96.9204 312.771 96.3711 312.771C95.9185 312.771 95.5427 312.907 95.2439 313.179C94.9451 313.448 94.7715 313.81 94.7231 314.267V319H93.4971V314.326C93.4971 313.289 92.9895 312.771 91.9744 312.771C91.1746 312.771 90.6274 313.111 90.333 313.792V319H89.1135V311.868H90.2671Z" fill="white"/>
<path d="M36.5703 329.608H37.4866C38.0623 329.599 38.5149 329.448 38.8445 329.153C39.1741 328.859 39.3389 328.461 39.3389 327.96C39.3389 326.835 38.7786 326.272 37.658 326.272C37.1306 326.272 36.7087 326.424 36.3923 326.727C36.0803 327.026 35.9243 327.424 35.9243 327.92H34.7048C34.7048 327.16 34.9817 326.53 35.5354 326.029C36.0935 325.523 36.801 325.271 37.658 325.271C38.5632 325.271 39.2729 325.51 39.7871 325.989C40.3013 326.468 40.5583 327.134 40.5583 327.986C40.5583 328.404 40.4221 328.808 40.1497 329.199C39.8816 329.59 39.5146 329.883 39.0488 330.076C39.5762 330.243 39.9827 330.52 40.2683 330.906C40.5583 331.293 40.7034 331.766 40.7034 332.324C40.7034 333.185 40.4221 333.868 39.8596 334.374C39.2971 334.879 38.5654 335.132 37.6646 335.132C36.7637 335.132 36.0298 334.888 35.4629 334.4C34.9004 333.912 34.6191 333.269 34.6191 332.469H35.8452C35.8452 332.974 36.01 333.378 36.3396 333.682C36.6692 333.985 37.1108 334.136 37.6646 334.136C38.2534 334.136 38.7039 333.983 39.0159 333.675C39.3279 333.367 39.4839 332.926 39.4839 332.35C39.4839 331.792 39.3125 331.364 38.9697 331.065C38.627 330.766 38.1326 330.612 37.4866 330.603H36.5703V329.608Z" fill="white"/>
<path d="M47.5259 331.777H48.8574V332.772H47.5259V335H46.2998V332.772H41.9294V332.053L46.2273 325.402H47.5259V331.777ZM43.3137 331.777H46.2998V327.07L46.1548 327.334L43.3137 331.777Z" fill="white"/>
<path d="M49.8528 327.248C49.8528 326.672 50.0352 326.198 50.3999 325.824C50.769 325.451 51.2415 325.264 51.8171 325.264C52.4016 325.264 52.874 325.453 53.2344 325.831C53.5991 326.204 53.7815 326.69 53.7815 327.288V327.756C53.7815 328.336 53.5969 328.81 53.2278 329.179C52.863 329.544 52.3972 329.727 51.8303 329.727C51.259 329.727 50.7866 329.544 50.4131 329.179C50.0396 328.81 49.8528 328.32 49.8528 327.709V327.248ZM50.7625 327.756C50.7625 328.098 50.8591 328.382 51.0525 328.606C51.2458 328.826 51.5051 328.936 51.8303 328.936C52.1423 328.936 52.3928 328.828 52.5818 328.613C52.7751 328.397 52.8718 328.103 52.8718 327.729V327.248C52.8718 326.905 52.7773 326.622 52.5884 326.398C52.3994 326.174 52.1423 326.062 51.8171 326.062C51.4919 326.062 51.2349 326.174 51.0459 326.398C50.8569 326.622 50.7625 326.914 50.7625 327.274V327.756ZM54.5264 332.647C54.5264 332.071 54.7087 331.599 55.0735 331.229C55.4426 330.856 55.915 330.669 56.4907 330.669C57.0664 330.669 57.5388 330.854 57.908 331.223C58.2771 331.592 58.4617 332.082 58.4617 332.693V333.161C58.4617 333.737 58.2771 334.211 57.908 334.585C57.5432 334.954 57.0752 335.138 56.5039 335.138C55.9326 335.138 55.4602 334.956 55.0867 334.591C54.7131 334.222 54.5264 333.732 54.5264 333.121V332.647ZM55.436 333.161C55.436 333.508 55.5327 333.794 55.7261 334.018C55.9194 334.238 56.1787 334.347 56.5039 334.347C56.8203 334.347 57.073 334.24 57.262 334.024C57.4509 333.805 57.5454 333.508 57.5454 333.135V332.647C57.5454 332.3 57.4487 332.016 57.2554 331.796C57.0664 331.577 56.8115 331.467 56.4907 331.467C56.1787 331.467 55.9238 331.577 55.7261 331.796C55.5327 332.012 55.436 332.304 55.436 332.673V333.161ZM52.1072 334.275L51.415 333.84L56.1018 326.338L56.7939 326.773L52.1072 334.275Z" fill="white"/>
<path fill-rule="evenodd" clip-rule="evenodd" d="M47.3083 312.454C46.781 311.975 46.1174 311.736 45.3176 311.736C44.6672 311.736 44.1025 311.885 43.6235 312.184C43.1489 312.483 42.7842 312.903 42.5293 313.443C42.2744 313.984 42.147 314.601 42.147 315.295V315.5C42.147 316.625 42.4326 317.512 43.0039 318.163C43.4901 318.708 44.1174 319.024 44.8857 319.108C45.0271 319.124 45.1733 319.132 45.3242 319.132C45.6375 319.132 45.9398 319.086 46.2309 318.993C46.389 318.943 46.5438 318.88 46.6953 318.802C47.1304 318.583 47.4775 318.288 47.7368 317.919C47.7755 317.864 47.8116 317.808 47.8451 317.752C48.0355 317.433 48.14 317.1 48.1587 316.752H47.0051C46.97 317.148 46.7898 317.477 46.4646 317.741C46.2981 317.876 46.1172 317.976 45.922 318.042C45.7358 318.105 45.5366 318.136 45.3242 318.136C45.2126 318.136 45.1055 318.129 45.003 318.115C44.5286 318.051 44.1523 317.836 43.874 317.471C43.5356 317.027 43.3665 316.394 43.3665 315.572V315.342C43.3665 314.498 43.5356 313.854 43.874 313.41C44.2168 312.962 44.698 312.738 45.3176 312.738C45.7791 312.738 46.1658 312.887 46.4778 313.186C46.7942 313.48 46.97 313.858 47.0051 314.32H48.1587C48.1419 313.954 48.0681 313.62 47.9375 313.32C47.7952 312.993 47.5855 312.704 47.3083 312.454ZM55.2976 317.385C55.5657 316.831 55.6997 316.207 55.6997 315.513V315.427C55.6997 314.311 55.3987 313.417 54.7966 312.744C54.199 312.072 53.4146 311.736 52.4434 311.736C51.8149 311.736 51.2546 311.887 50.7625 312.191C50.2747 312.494 49.8923 312.925 49.6155 313.483C49.343 314.041 49.2068 314.669 49.2068 315.368V315.454C49.2068 316.561 49.5056 317.451 50.1033 318.123C50.6201 318.7 51.2712 319.03 52.0568 319.112C52.1864 319.125 52.3196 319.132 52.4565 319.132C52.6062 319.132 52.7517 319.123 52.8932 319.107C53.3585 319.052 53.7798 318.906 54.1572 318.67C54.6538 318.363 55.0339 317.934 55.2976 317.385ZM53.9199 313.469C53.5508 312.982 53.0586 312.738 52.4434 312.738C51.8413 312.738 51.3557 312.977 50.9866 313.456C50.6174 313.935 50.4329 314.621 50.4329 315.513C50.4329 316.304 50.6152 316.939 50.98 317.418C51.2906 317.821 51.6882 318.054 52.173 318.118C52.2644 318.13 52.3589 318.136 52.4565 318.136C52.564 318.136 52.6676 318.129 52.7673 318.115C53.243 318.045 53.6316 317.811 53.9331 317.411C54.2979 316.924 54.4802 316.242 54.4802 315.368C54.4802 314.586 54.2935 313.953 53.9199 313.469ZM58.6396 317.781C58.3364 317.539 58.1738 317.214 58.1519 316.805H56.9324C56.9324 317.158 57.0187 317.492 57.1914 317.805C57.2248 317.866 57.2616 317.926 57.3015 317.985C57.552 318.345 57.897 318.626 58.3364 318.829C58.6451 318.971 58.9864 319.063 59.3601 319.105C59.5184 319.123 59.6826 319.132 59.8525 319.132C60.0263 319.132 60.1931 319.123 60.353 319.106C60.9413 319.041 61.4359 318.859 61.8367 318.558C62.3464 318.172 62.6013 317.66 62.6013 317.022C62.6013 316.64 62.509 316.317 62.3245 316.053C62.1443 315.785 61.8652 315.557 61.4873 315.368C61.184 315.216 60.8056 315.082 60.3522 314.964C60.338 314.96 60.3237 314.957 60.3093 314.953C60.2111 314.928 60.1093 314.904 60.0042 314.88C59.3977 314.744 58.978 314.601 58.7451 314.452C58.5122 314.302 58.3958 314.08 58.3958 313.786C58.3958 313.474 58.521 313.221 58.7715 313.028C59.022 312.834 59.3691 312.738 59.813 312.738C60.2437 312.738 60.5996 312.859 60.8809 313.1C61.1665 313.342 61.3093 313.63 61.3093 313.964H62.5354C62.5354 313.593 62.4531 313.259 62.2884 312.964C62.1646 312.742 61.9942 312.541 61.7773 312.362C61.2764 311.945 60.6216 311.736 59.813 311.736C59.0439 311.736 58.4111 311.938 57.9146 312.342C57.4224 312.747 57.1763 313.241 57.1763 313.825C57.1763 314.177 57.262 314.48 57.4333 314.735C57.6091 314.99 57.8772 315.21 58.2375 315.394C58.6023 315.579 59.0923 315.737 59.7075 315.869C60.3271 316.001 60.76 316.159 61.0061 316.344C61.2566 316.524 61.3818 316.779 61.3818 317.108C61.3818 317.42 61.2412 317.671 60.96 317.86C60.7641 317.99 60.522 318.075 60.2337 318.113C60.1145 318.129 59.9875 318.136 59.8525 318.136C59.7212 318.136 59.5965 318.128 59.4785 318.112C59.1462 318.066 58.8666 317.956 58.6396 317.781ZM66.5234 317.214L64.7437 311.868H63.4121L65.9565 318.921L65.6863 319.646C65.5369 320.09 65.3457 320.395 65.1128 320.562C64.9584 320.675 64.7619 320.75 64.5233 320.786C64.4087 320.804 64.2844 320.813 64.1504 320.813L63.8208 320.786V321.775L64.2756 321.861L64.5063 321.881C65.4 321.881 66.0702 321.374 66.517 320.36C66.5536 320.277 66.5887 320.191 66.6223 320.101L69.4897 311.868H68.1846L66.5234 317.214ZM75.1323 312.362C74.6313 311.945 73.9766 311.736 73.168 311.736C72.3989 311.736 71.7661 311.938 71.2695 312.342C70.7773 312.747 70.5312 313.241 70.5312 313.825C70.5312 314.177 70.6169 314.48 70.7883 314.735C70.9641 314.99 71.2322 315.21 71.5925 315.394C71.9573 315.579 72.4473 315.737 73.0625 315.869C73.6821 316.001 74.115 316.159 74.3611 316.344C74.6116 316.524 74.7368 316.779 74.7368 317.108C74.7368 317.42 74.5962 317.671 74.3149 317.86C74.119 317.99 73.8769 318.075 73.5886 318.113C73.4695 318.129 73.3424 318.136 73.2075 318.136C73.0762 318.136 72.9515 318.128 72.8335 318.112C72.5012 318.066 72.2216 317.956 71.9946 317.781C71.6914 317.539 71.5288 317.214 71.5068 316.805H70.2874C70.2874 317.158 70.3737 317.492 70.5464 317.805C70.5798 317.866 70.6165 317.926 70.6565 317.985C70.907 318.345 71.252 318.626 71.6914 318.829C72.0001 318.971 72.3413 319.063 72.7151 319.105C72.8734 319.123 73.0375 319.132 73.2075 319.132C73.3813 319.132 73.5481 319.123 73.708 319.106C74.2963 319.041 74.7908 318.859 75.1917 318.558C75.7014 318.172 75.9563 317.66 75.9563 317.022C75.9563 316.64 75.864 316.317 75.6794 316.053C75.4993 315.785 75.2202 315.557 74.8423 315.368C74.5389 315.216 74.1606 315.082 73.7072 314.964C73.693 314.96 73.6787 314.957 73.6643 314.953C73.566 314.928 73.4643 314.904 73.3591 314.88C72.7527 314.744 72.333 314.601 72.1001 314.452C71.8672 314.302 71.7507 314.08 71.7507 313.786C71.7507 313.474 71.876 313.221 72.1265 313.028C72.377 312.834 72.7241 312.738 73.168 312.738C73.5986 312.738 73.9546 312.859 74.2358 313.1C74.5215 313.342 74.6643 313.63 74.6643 313.964H75.8904C75.8904 313.912 75.8888 313.861 75.8855 313.81C75.8676 313.529 75.7995 313.271 75.6814 313.036C75.6692 313.012 75.6566 312.988 75.6433 312.964C75.5195 312.742 75.3492 312.541 75.1323 312.362ZM76.6814 312.81H77.98V317.233C77.98 317.84 78.1184 318.308 78.3953 318.637C78.6721 318.967 79.083 319.132 79.6279 319.132C79.8193 319.132 80.0143 319.114 80.2127 319.079C80.3286 319.059 80.4457 319.032 80.564 319V318.011C80.4705 318.031 80.3847 318.047 80.3064 318.06C80.2225 318.073 80.1474 318.082 80.081 318.087C80.0462 318.089 80.0139 318.09 79.9839 318.09C79.8146 318.09 79.6746 318.066 79.564 318.016C79.4879 317.982 79.4258 317.937 79.3774 317.879C79.2588 317.734 79.1995 317.519 79.1995 317.233V312.81H80.531V311.868H79.1995V310.141H77.98V311.868H76.6814V312.81ZM83.1875 312.21C82.7041 312.522 82.3262 312.958 82.0537 313.516C81.7856 314.069 81.6516 314.7 81.6516 315.407V315.632C81.6516 316.695 81.9548 317.545 82.5613 318.183C83.1322 318.778 83.8629 319.094 84.7532 319.129C84.8086 319.131 84.8646 319.132 84.9211 319.132C84.9432 319.132 84.9652 319.132 84.9871 319.131C85.6011 319.123 86.1348 318.99 86.5882 318.735C86.5912 318.733 86.5942 318.731 86.5972 318.73C86.7103 318.665 86.8184 318.593 86.9214 318.513C86.9275 318.509 86.9336 318.504 86.9396 318.499C87.0527 318.41 87.1597 318.311 87.2606 318.204C87.3869 318.068 87.5035 317.919 87.6106 317.754L86.8657 317.174C86.8609 317.18 86.8561 317.186 86.8513 317.193C86.8396 317.208 86.8277 317.222 86.8158 317.237C86.6639 317.423 86.4956 317.585 86.311 317.721C86.2422 317.772 86.1712 317.819 86.0979 317.863C86.0924 317.866 86.0869 317.87 86.0813 317.873C85.7825 318.049 85.4177 318.136 84.9871 318.136C84.9649 318.136 84.943 318.136 84.9211 318.136C84.8826 318.135 84.8445 318.133 84.8069 318.13C84.2807 318.091 83.8398 317.878 83.4841 317.49C83.2991 317.285 83.1559 317.049 83.0545 316.783C82.9415 316.487 82.8804 316.154 82.8711 315.783H87.7029V315.276C87.7029 315.106 87.6971 314.941 87.6857 314.783C87.6203 313.882 87.369 313.172 86.9316 312.652C86.4175 312.041 85.6968 311.736 84.7695 311.736C84.2026 311.736 83.6753 311.894 83.1875 312.21ZM82.9106 314.781C82.9578 314.396 83.0501 314.063 83.1876 313.781C83.281 313.59 83.3952 313.422 83.5303 313.278C83.8643 312.918 84.2773 312.738 84.7695 312.738C85.2793 312.738 85.6836 312.909 85.9824 313.252C86.1141 313.401 86.2202 313.578 86.3007 313.781C86.4028 314.04 86.4637 314.342 86.4834 314.689V314.781H82.9106ZM90.2671 311.868H89.1135V319H90.333V313.792C90.4565 313.507 90.6245 313.281 90.837 313.115C91.1309 312.886 91.5101 312.771 91.9744 312.771C91.9819 312.771 91.9894 312.771 91.9969 312.771C92.997 312.779 93.4971 313.297 93.4971 314.326V319H94.7231V314.267C94.7239 314.26 94.7247 314.253 94.7255 314.246C94.7677 313.879 94.8919 313.573 95.098 313.329C95.1428 313.277 95.1914 313.227 95.2439 313.179C95.4107 313.027 95.6014 312.918 95.8162 312.851C95.8176 312.85 95.8191 312.85 95.8205 312.849C95.9716 312.802 96.1346 312.777 96.3093 312.772C96.3298 312.771 96.3503 312.771 96.3711 312.771C96.9204 312.771 97.3115 312.898 97.5444 313.153C97.7773 313.404 97.8938 313.784 97.8938 314.293V319H99.1133V314.221C99.0869 312.564 98.2915 311.736 96.7271 311.736C96.5443 311.736 96.3699 311.749 96.2041 311.775C95.8994 311.823 95.6233 311.916 95.3757 312.052C95.3147 312.086 95.2556 312.122 95.1983 312.16C95.0137 312.28 94.8481 312.419 94.7015 312.575C94.7 312.576 94.6985 312.578 94.697 312.58C94.6087 312.674 94.5273 312.775 94.4529 312.883C94.4186 312.81 94.3815 312.741 94.3415 312.675C94.1966 312.437 94.0138 312.244 93.7932 312.096C93.4343 311.856 92.9752 311.736 92.416 311.736C92.2422 311.736 92.0754 311.748 91.9156 311.771C91.6864 311.805 91.4716 311.863 91.2712 311.945C90.8975 312.099 90.5738 312.337 90.3 312.659L90.2671 311.868ZM36.3792 313.529V310.444H41.145V309.402H35.1135V319H41.2109V317.965H36.3792V314.564H40.5386V313.529H36.3792ZM40.1497 329.199C40.4221 328.808 40.5583 328.404 40.5583 327.986C40.5583 327.134 40.3013 326.468 39.7871 325.989C39.2729 325.51 38.5632 325.271 37.658 325.271C36.801 325.271 36.0935 325.523 35.5354 326.029C35.246 326.29 35.0322 326.588 34.894 326.92C34.7679 327.224 34.7048 327.558 34.7048 327.92H35.9243C35.9243 327.424 36.0803 327.026 36.3923 326.727C36.7087 326.424 37.1306 326.272 37.658 326.272C38.7786 326.272 39.3389 326.835 39.3389 327.96C39.3389 328.345 39.2414 328.67 39.0463 328.933C38.9878 329.012 38.9205 329.085 38.8445 329.153C38.8018 329.191 38.7571 329.227 38.7103 329.26C38.4157 329.47 38.0395 329.585 37.5815 329.605C37.579 329.605 37.5764 329.605 37.5739 329.605C37.5495 329.606 37.5249 329.607 37.5001 329.608C37.4956 329.608 37.4911 329.608 37.4866 329.608H36.5703V330.603H37.4866C37.4916 330.603 37.4967 330.603 37.5018 330.604C37.5296 330.604 37.5571 330.605 37.5843 330.606C38.0747 330.624 38.4733 330.73 38.7803 330.924C38.8479 330.967 38.911 331.014 38.9697 331.065C39.0074 331.098 39.0431 331.132 39.0766 331.168C39.3481 331.459 39.4839 331.853 39.4839 332.35C39.4839 332.926 39.3279 333.367 39.0159 333.675C38.7879 333.9 38.486 334.042 38.1102 334.103C37.9717 334.125 37.8231 334.136 37.6646 334.136C37.5533 334.136 37.4466 334.13 37.3444 334.118C36.9379 334.069 36.603 333.924 36.3396 333.682C36.01 333.378 35.8452 332.974 35.8452 332.469H34.6191C34.6191 332.835 34.678 333.168 34.7958 333.469C34.9354 333.825 35.1578 334.136 35.4629 334.4C35.9387 334.81 36.5321 335.047 37.2431 335.113C37.3793 335.126 37.5198 335.132 37.6646 335.132C37.8688 335.132 38.0644 335.119 38.2513 335.093C38.8886 335.004 39.4247 334.765 39.8596 334.374C40.4221 333.868 40.7034 333.185 40.7034 332.324C40.7034 331.766 40.5583 331.293 40.2683 330.906C40.205 330.821 40.1358 330.741 40.0607 330.666C39.9517 330.557 39.8303 330.46 39.6965 330.374C39.6699 330.357 39.6429 330.34 39.6153 330.324C39.4898 330.251 39.3541 330.186 39.2082 330.131C39.1564 330.112 39.1033 330.093 39.0488 330.076C39.0998 330.055 39.1495 330.032 39.1981 330.009C39.2941 329.962 39.3854 329.911 39.4722 329.856C39.578 329.788 39.6769 329.713 39.769 329.631C39.8518 329.558 39.9291 329.479 40.0009 329.394C40.0534 329.332 40.1031 329.267 40.1497 329.199ZM48.8574 332.772V331.777H47.5259V325.402H46.2273L41.9294 332.053V332.772H46.2998V335H47.5259V332.772H48.8574ZM46.5259 326.871V326.783L46.4768 326.859L46.5259 326.871ZM43.3137 331.777H46.2998V327.07L46.1548 327.334L43.3137 331.777ZM53.2344 325.831C52.874 325.453 52.4016 325.264 51.8171 325.264C51.2415 325.264 50.769 325.451 50.3999 325.824C50.3948 325.829 50.3896 325.835 50.3846 325.84C50.03 326.211 49.8528 326.68 49.8528 327.248V327.709C49.8528 327.725 49.8529 327.74 49.8531 327.756C49.8623 328.339 50.045 328.809 50.4013 329.168C50.4033 329.17 50.4053 329.172 50.4073 329.174C50.4092 329.176 50.4112 329.178 50.4131 329.179C50.7866 329.544 51.259 329.727 51.8303 329.727C52.3084 329.727 52.7146 329.597 53.0489 329.337C53.1085 329.291 53.1658 329.241 53.2208 329.186C53.2231 329.184 53.2255 329.182 53.2278 329.179C53.4878 328.919 53.6563 328.607 53.7331 328.242C53.7654 328.089 53.7815 327.927 53.7815 327.756V327.288C53.7815 327.274 53.7814 327.261 53.7812 327.248C53.7734 326.675 53.5951 326.207 53.2462 325.843C53.2423 325.839 53.2383 325.835 53.2344 325.831ZM52.5818 328.613C52.5943 328.599 52.6064 328.584 52.6181 328.57C52.783 328.364 52.8675 328.093 52.8717 327.756C52.8718 327.747 52.8718 327.738 52.8718 327.729V327.248C52.8718 326.923 52.787 326.652 52.6173 326.433C52.6152 326.431 52.613 326.428 52.6109 326.425C52.6036 326.416 52.596 326.407 52.5884 326.398C52.3994 326.174 52.1423 326.062 51.8171 326.062C51.4919 326.062 51.2349 326.174 51.0459 326.398C51.037 326.408 51.0284 326.419 51.0199 326.43C51.0189 326.431 51.0178 326.432 51.0167 326.434C50.8516 326.647 50.7669 326.919 50.7626 327.248C50.7625 327.257 50.7625 327.266 50.7625 327.274V327.756C50.7625 328.076 50.847 328.345 51.0162 328.562C51.0173 328.563 51.0184 328.565 51.0194 328.566C51.0301 328.579 51.0411 328.593 51.0525 328.606C51.2458 328.826 51.5051 328.936 51.8303 328.936C52.1423 328.936 52.3928 328.828 52.5818 328.613ZM52.1072 334.275L52.1084 334.273L54.4159 330.58L56.7939 326.773L56.1018 326.338L56.1006 326.34L51.415 333.84L52.1072 334.275ZM54.5603 332.236C54.5377 332.366 54.5264 332.503 54.5264 332.647V333.121C54.5264 333.135 54.5265 333.148 54.5266 333.161C54.5345 333.747 54.7172 334.22 55.0749 334.58C55.0769 334.582 55.0789 334.584 55.0809 334.586C55.0828 334.587 55.0847 334.589 55.0867 334.591C55.4602 334.956 55.9326 335.138 56.5039 335.138C57.0734 335.138 57.5402 334.955 57.9045 334.588C57.9056 334.587 57.9068 334.586 57.908 334.585C57.9088 334.584 57.9096 334.583 57.9105 334.582C58.2779 334.209 58.4617 333.735 58.4617 333.161V332.693C58.4617 332.677 58.4616 332.662 58.4613 332.647C58.4523 332.061 58.27 331.589 57.9145 331.23C57.9123 331.227 57.9102 331.225 57.908 331.223C57.9078 331.223 57.9081 331.223 57.908 331.223C57.5389 330.854 57.0662 330.669 56.4907 330.669C56.0367 330.669 55.6469 330.785 55.3213 331.018C55.2381 331.077 55.1591 331.144 55.0842 331.219C55.084 331.219 55.0844 331.218 55.0842 331.219C55.0809 331.222 55.0768 331.226 55.0735 331.229C54.7996 331.507 54.6285 331.842 54.5603 332.236ZM55.69 331.839C55.525 332.044 55.4404 332.313 55.4362 332.647C55.4361 332.655 55.436 332.664 55.436 332.673V333.161C55.436 333.486 55.5206 333.757 55.6898 333.974C55.6909 333.975 55.692 333.976 55.693 333.978C55.7037 333.991 55.7147 334.005 55.7261 334.018C55.9194 334.238 56.1787 334.347 56.5039 334.347C56.8203 334.347 57.073 334.24 57.262 334.024C57.2741 334.01 57.2858 333.996 57.2972 333.981C57.2971 333.981 57.2972 333.981 57.2972 333.981C57.4585 333.772 57.5412 333.498 57.5453 333.161C57.5454 333.152 57.5454 333.143 57.5454 333.135V332.647C57.5454 332.322 57.4607 332.053 57.2914 331.839C57.2798 331.825 57.2678 331.81 57.2554 331.796C57.0664 331.577 56.8115 331.467 56.4907 331.467C56.1787 331.467 55.9238 331.577 55.7261 331.796C55.7137 331.81 55.7016 331.824 55.69 331.839C55.6901 331.839 55.69 331.839 55.69 331.839Z" fill="#5551FF"/>
<path d="M300 288C300 289.657 298.657 291 297 291C295.343 291 294 289.657 294 288C294 286.343 295.343 285 297 285C298.657 285 300 286.343 300 288Z" fill="#3330C3"/>
<path fill-rule="evenodd" clip-rule="evenodd" d="M297.854 288.354L265.207 321H197.5V320H264.793L297.146 287.646L297.854 288.354Z" fill="#3330C3"/>
<g filter="url(#filter2_d)">
<path d="M10 165C10 159.477 14.4772 155 20 155H175C180.523 155 185 159.477 185 165V190C185 195.523 180.523 200 175 200H20C14.4772 200 10 195.523 10 190V165Z" fill="white"/>
</g>
<g filter="url(#filter3_d)">
<path fill-rule="evenodd" clip-rule="evenodd" d="M175 156H20C15.0294 156 11 160.029 11 165V190C11 194.971 15.0294 199 20 199H175C179.971 199 184 194.971 184 190V165C184 160.029 179.971 156 175 156ZM20 155C14.4772 155 10 159.477 10 165V190C10 195.523 14.4772 200 20 200H175C180.523 200 185 195.523 185 190V165C185 159.477 180.523 155 175 155H20Z" fill="#5551FF"/>
</g>
<path d="M28.7456 166.444H25.6606V175H24.4016V166.444H21.3232V165.402H28.7456V166.444Z" fill="#5551FF"/>
<path d="M32.2788 175.132C31.312 175.132 30.5254 174.815 29.9189 174.183C29.3125 173.545 29.0093 172.695 29.0093 171.632V171.407C29.0093 170.7 29.1433 170.069 29.4114 169.516C29.6838 168.958 30.0618 168.522 30.5452 168.21C31.033 167.894 31.5603 167.736 32.1272 167.736C33.0544 167.736 33.7751 168.041 34.2893 168.652C34.8035 169.263 35.0605 170.137 35.0605 171.276V171.783H30.2288C30.2463 172.486 30.4507 173.055 30.8418 173.49C31.2373 173.921 31.7383 174.136 32.3447 174.136C32.7754 174.136 33.1401 174.049 33.439 173.873C33.7378 173.697 33.9993 173.464 34.2234 173.174L34.9683 173.754C34.3706 174.673 33.4741 175.132 32.2788 175.132ZM32.1272 168.738C31.635 168.738 31.2219 168.918 30.8879 169.278C30.554 169.634 30.3474 170.135 30.2683 170.781H33.8411V170.689C33.8059 170.069 33.6389 169.59 33.3401 169.252C33.0413 168.909 32.637 168.738 32.1272 168.738Z" fill="#5551FF"/>
<path d="M40.8811 175C40.8108 174.859 40.7537 174.609 40.7097 174.249C40.1428 174.837 39.4661 175.132 38.6794 175.132C37.9763 175.132 37.3984 174.934 36.9458 174.539C36.4976 174.139 36.2734 173.633 36.2734 173.022C36.2734 172.28 36.5547 171.704 37.1172 171.295C37.6841 170.882 38.4795 170.676 39.5034 170.676H40.6899V170.115C40.6899 169.689 40.5625 169.351 40.3076 169.1C40.0527 168.845 39.677 168.718 39.1804 168.718C38.7454 168.718 38.3806 168.828 38.0862 169.048C37.7917 169.267 37.6445 169.533 37.6445 169.845H36.4185C36.4185 169.489 36.5437 169.146 36.7942 168.817C37.0491 168.483 37.3918 168.219 37.8225 168.026C38.2576 167.833 38.7344 167.736 39.2529 167.736C40.0747 167.736 40.7185 167.942 41.1843 168.355C41.6501 168.764 41.8918 169.329 41.9094 170.05V173.332C41.9094 173.987 41.9929 174.508 42.1599 174.895V175H40.8811ZM38.8574 174.071C39.2397 174.071 39.6023 173.972 39.9451 173.774C40.2878 173.576 40.5361 173.319 40.6899 173.003V171.539H39.7341C38.24 171.539 37.4929 171.977 37.4929 172.851C37.4929 173.233 37.6204 173.532 37.8752 173.748C38.1301 173.963 38.4575 174.071 38.8574 174.071Z" fill="#5551FF"/>
<path d="M44.968 167.868L45.001 168.659C45.5239 168.043 46.2292 167.736 47.1169 167.736C48.1145 167.736 48.7935 168.118 49.1538 168.883C49.3911 168.54 49.6987 168.263 50.0767 168.052C50.459 167.841 50.9094 167.736 51.428 167.736C52.9924 167.736 53.7878 168.564 53.8142 170.221V175H52.5947V170.293C52.5947 169.784 52.4783 169.404 52.2454 169.153C52.0125 168.898 51.6213 168.771 51.072 168.771C50.6194 168.771 50.2437 168.907 49.9448 169.179C49.646 169.448 49.4724 169.81 49.4241 170.267V175H48.198V170.326C48.198 169.289 47.6904 168.771 46.6753 168.771C45.8755 168.771 45.3284 169.111 45.0339 169.792V175H43.8145V167.868H44.968Z" fill="#5551FF"/>
<path d="M25.8057 191H24.5796V182.872L22.1208 183.775V182.668L25.6145 181.356H25.8057V191Z" fill="#5551FF"/>
<path d="M29.9387 186.188L30.4265 181.402H35.344V182.53H31.4614L31.1714 185.146C31.6416 184.87 32.1755 184.731 32.7732 184.731C33.6477 184.731 34.342 185.021 34.8562 185.601C35.3704 186.177 35.6274 186.957 35.6274 187.941C35.6274 188.93 35.3594 189.71 34.8232 190.281C34.2915 190.848 33.5466 191.132 32.5886 191.132C31.7405 191.132 31.0483 190.897 30.5122 190.427C29.9761 189.956 29.6707 189.306 29.5959 188.475H30.7495C30.8242 189.025 31.0198 189.44 31.3362 189.721C31.6526 189.998 32.0701 190.136 32.5886 190.136C33.1555 190.136 33.5994 189.943 33.9202 189.556C34.2454 189.17 34.408 188.636 34.408 187.955C34.408 187.313 34.2322 186.799 33.8806 186.412C33.5334 186.021 33.0698 185.825 32.4897 185.825C31.958 185.825 31.5405 185.942 31.2373 186.175L30.9143 186.438L29.9387 186.188Z" fill="#5551FF"/>
<path d="M36.8535 183.248C36.8535 182.672 37.0359 182.198 37.4006 181.824C37.7698 181.451 38.2422 181.264 38.8179 181.264C39.4023 181.264 39.8748 181.453 40.2351 181.831C40.5999 182.204 40.7822 182.69 40.7822 183.288V183.756C40.7822 184.336 40.5977 184.81 40.2285 185.179C39.8638 185.544 39.3979 185.727 38.8311 185.727C38.2598 185.727 37.7874 185.544 37.4138 185.179C37.0403 184.81 36.8535 184.32 36.8535 183.709V183.248ZM37.7632 183.756C37.7632 184.098 37.8599 184.382 38.0532 184.606C38.2466 184.826 38.5059 184.936 38.8311 184.936C39.1431 184.936 39.3936 184.828 39.5825 184.613C39.7759 184.397 39.8726 184.103 39.8726 183.729V183.248C39.8726 182.905 39.7781 182.622 39.5891 182.398C39.4001 182.174 39.1431 182.062 38.8179 182.062C38.4927 182.062 38.2356 182.174 38.0466 182.398C37.8577 182.622 37.7632 182.914 37.7632 183.274V183.756ZM41.5271 188.647C41.5271 188.071 41.7095 187.599 42.0742 187.229C42.4434 186.856 42.9158 186.669 43.4915 186.669C44.0671 186.669 44.5396 186.854 44.9087 187.223C45.2778 187.592 45.4624 188.082 45.4624 188.693V189.161C45.4624 189.737 45.2778 190.211 44.9087 190.585C44.5439 190.954 44.0759 191.138 43.5046 191.138C42.9333 191.138 42.4609 190.956 42.0874 190.591C41.7139 190.222 41.5271 189.732 41.5271 189.121V188.647ZM42.4368 189.161C42.4368 189.508 42.5334 189.794 42.7268 190.018C42.9202 190.238 43.1794 190.347 43.5046 190.347C43.821 190.347 44.0737 190.24 44.2627 190.024C44.4517 189.805 44.5461 189.508 44.5461 189.135V188.647C44.5461 188.3 44.4495 188.016 44.2561 187.796C44.0671 187.577 43.8123 187.467 43.4915 187.467C43.1794 187.467 42.9246 187.577 42.7268 187.796C42.5334 188.012 42.4368 188.304 42.4368 188.673V189.161ZM39.1079 190.275L38.4158 189.84L43.1025 182.338L43.7947 182.773L39.1079 190.275Z" fill="#5551FF"/>
<path fill-rule="evenodd" clip-rule="evenodd" d="M224.5 178.5H184.5V177.5H224.5V178.5Z" fill="#5551FF"/>
<path d="M228 178C228 179.657 226.657 181 225 181C223.343 181 222 179.657 222 178C222 176.343 223.343 175 225 175C226.657 175 228 176.343 228 178Z" fill="#5551FF"/>
<g filter="url(#filter4_d)">
<path d="M65 15C65 9.47715 69.4772 5 75 5H230C235.523 5 240 9.47715 240 15V40C240 45.5228 235.523 50 230 50H75C69.4772 50 65 45.5228 65 40V15Z" fill="white"/>
</g>
<g filter="url(#filter5_d)">
<path fill-rule="evenodd" clip-rule="evenodd" d="M230 6H75C70.0294 6 66 10.0294 66 15V40C66 44.9706 70.0294 49 75 49H230C234.971 49 239 44.9706 239 40V15C239 10.0294 234.971 6 230 6ZM75 5C69.4772 5 65 9.47715 65 15V40C65 45.5228 69.4772 50 75 50H230C235.523 50 240 45.5228 240 40V15C240 9.47715 235.523 5 230 5H75Z" fill="#5551FF"/>
</g>
<path d="M78.7493 15.4023L81.887 23.2334L85.0247 15.4023H86.666V25H85.4004V21.2625L85.519 17.2283L82.3682 25H81.3992L78.2549 17.248L78.3801 21.2625V25H77.1145V15.4023H78.7493Z" fill="#5551FF"/>
<path d="M93.1128 25C93.0425 24.8594 92.9854 24.6089 92.9414 24.2485C92.3745 24.8374 91.6978 25.1318 90.9111 25.1318C90.208 25.1318 89.6301 24.9341 89.1775 24.5386C88.7292 24.1387 88.5051 23.6333 88.5051 23.0225C88.5051 22.2798 88.7864 21.7041 89.3489 21.2954C89.9158 20.8823 90.7112 20.6758 91.7351 20.6758H92.9216V20.1155C92.9216 19.6892 92.7942 19.3508 92.5393 19.1003C92.2844 18.8455 91.9087 18.718 91.4121 18.718C90.9771 18.718 90.6123 18.8279 90.3179 19.0476C90.0234 19.2673 89.8762 19.5332 89.8762 19.8452H88.6501C88.6501 19.4893 88.7754 19.1465 89.0259 18.8169C89.2808 18.4829 89.6235 18.2192 90.0542 18.0259C90.4893 17.8325 90.9661 17.7358 91.4846 17.7358C92.3064 17.7358 92.9502 17.9424 93.416 18.3555C93.8818 18.7642 94.1235 19.3289 94.1411 20.0496V23.3323C94.1411 23.9871 94.2246 24.5078 94.3916 24.8945V25H93.1128ZM91.0891 24.0706C91.4714 24.0706 91.834 23.9717 92.1768 23.7739C92.5195 23.5762 92.7678 23.3191 92.9216 23.0027V21.5393H91.9658C90.4717 21.5393 89.7246 21.9766 89.7246 22.8511C89.7246 23.2334 89.8521 23.5322 90.1069 23.7476C90.3618 23.9629 90.6892 24.0706 91.0891 24.0706Z" fill="#5551FF"/>
<path d="M99.5002 18.9619C99.3157 18.9312 99.1157 18.9158 98.9004 18.9158C98.1006 18.9158 97.5579 19.2563 97.2722 19.9375V25H96.0527V17.8677H97.2393L97.259 18.6917C97.6589 18.0544 98.2258 17.7358 98.9597 17.7358C99.197 17.7358 99.3772 17.7666 99.5002 17.8281V18.9619Z" fill="#5551FF"/>
<path d="M102.618 21.6975L101.854 22.4951V25H100.634V14.875H101.854V20.9988L102.506 20.2144L104.728 17.8677H106.211L103.436 20.8472L106.534 25H105.103L102.618 21.6975Z" fill="#5551FF"/>
<path d="M110.298 25.1318C109.331 25.1318 108.544 24.8154 107.938 24.1826C107.331 23.5454 107.028 22.6951 107.028 21.6316V21.4075C107.028 20.7 107.162 20.0693 107.43 19.5156C107.703 18.9575 108.081 18.5225 108.564 18.2104C109.052 17.894 109.579 17.7358 110.146 17.7358C111.073 17.7358 111.794 18.0413 112.308 18.6521C112.822 19.2629 113.079 20.1375 113.079 21.2756V21.7832H108.248C108.265 22.4863 108.469 23.0554 108.861 23.4905C109.256 23.9211 109.757 24.1365 110.364 24.1365C110.794 24.1365 111.159 24.0486 111.458 23.8728C111.757 23.697 112.018 23.4641 112.242 23.1741L112.987 23.7542C112.389 24.6726 111.493 25.1318 110.298 25.1318ZM110.146 18.7378C109.654 18.7378 109.241 18.918 108.907 19.2783C108.573 19.6343 108.366 20.1353 108.287 20.7812H111.86V20.689C111.825 20.0693 111.658 19.5903 111.359 19.252C111.06 18.9092 110.656 18.7378 110.146 18.7378Z" fill="#5551FF"/>
<path d="M116.151 16.1406V17.8677H117.483V18.8103H116.151V23.2334C116.151 23.519 116.21 23.7344 116.329 23.8794C116.448 24.02 116.65 24.0903 116.936 24.0903C117.076 24.0903 117.27 24.064 117.516 24.0112V25C117.195 25.0879 116.883 25.1318 116.58 25.1318C116.035 25.1318 115.624 24.967 115.347 24.6375C115.07 24.3079 114.932 23.8398 114.932 23.2334V18.8103H113.633V17.8677H114.932V16.1406H116.151Z" fill="#5551FF"/>
<path d="M120.238 25H119.019V17.8677H120.238V25ZM118.92 15.9758C118.92 15.7781 118.979 15.6111 119.098 15.4749C119.221 15.3386 119.401 15.2705 119.638 15.2705C119.875 15.2705 120.056 15.3386 120.179 15.4749C120.302 15.6111 120.363 15.7781 120.363 15.9758C120.363 16.1736 120.302 16.3384 120.179 16.4702C120.056 16.6021 119.875 16.668 119.638 16.668C119.401 16.668 119.221 16.6021 119.098 16.4702C118.979 16.3384 118.92 16.1736 118.92 15.9758Z" fill="#5551FF"/>
<path d="M123.349 17.8677L123.389 18.7642C123.934 18.0786 124.646 17.7358 125.525 17.7358C127.032 17.7358 127.792 18.5862 127.805 20.2869V25H126.586V20.2803C126.582 19.7661 126.463 19.386 126.23 19.1399C126.001 18.8938 125.643 18.7708 125.156 18.7708C124.76 18.7708 124.413 18.8762 124.114 19.0872C123.815 19.2981 123.582 19.575 123.415 19.9177V25H122.196V17.8677H123.349Z" fill="#5551FF"/>
<path d="M129.354 21.3745C129.354 20.2627 129.612 19.3794 130.126 18.7246C130.64 18.0654 131.321 17.7358 132.169 17.7358C133.039 17.7358 133.718 18.0435 134.206 18.6587L134.265 17.8677H135.379V24.8286C135.379 25.7515 135.105 26.4788 134.555 27.0105C134.01 27.5422 133.277 27.8081 132.354 27.8081C131.84 27.8081 131.336 27.6982 130.844 27.4785C130.352 27.2588 129.976 26.9578 129.717 26.5754L130.35 25.8438C130.873 26.4897 131.512 26.8127 132.268 26.8127C132.861 26.8127 133.323 26.6458 133.652 26.3118C133.986 25.9778 134.153 25.5076 134.153 24.9011V24.2881C133.666 24.8506 133 25.1318 132.156 25.1318C131.321 25.1318 130.644 24.7957 130.126 24.1233C129.612 23.4509 129.354 22.5347 129.354 21.3745ZM130.581 21.5129C130.581 22.3171 130.745 22.95 131.075 23.4114C131.405 23.8684 131.866 24.0969 132.459 24.0969C133.228 24.0969 133.793 23.7476 134.153 23.0488V19.7925C133.78 19.1113 133.219 18.7708 132.472 18.7708C131.879 18.7708 131.416 19.0015 131.082 19.4629C130.748 19.9243 130.581 20.6077 130.581 21.5129Z" fill="#5551FF"/>
<path d="M77.3584 36.188L77.8462 31.4023H82.7637V32.5295H78.8811L78.5911 35.1465C79.0613 34.8696 79.5952 34.7312 80.1929 34.7312C81.0674 34.7312 81.7617 35.0212 82.2759 35.6013C82.79 36.177 83.0471 36.957 83.0471 37.9414C83.0471 38.9302 82.7791 39.7102 82.2429 40.2815C81.7112 40.8484 80.9663 41.1318 80.0083 41.1318C79.1602 41.1318 78.468 40.8967 77.9319 40.4265C77.3958 39.9563 77.0903 39.3059 77.0156 38.4753H78.1692C78.2439 39.0247 78.4395 39.4399 78.7559 39.7212C79.0723 39.998 79.4897 40.1365 80.0083 40.1365C80.5752 40.1365 81.019 39.9431 81.3398 39.5564C81.665 39.1697 81.8276 38.6357 81.8276 37.9546C81.8276 37.313 81.6519 36.7988 81.3003 36.4121C80.9531 36.021 80.4895 35.8254 79.9094 35.8254C79.3777 35.8254 78.9602 35.9419 78.657 36.1748L78.334 36.4385L77.3584 36.188Z" fill="#5551FF"/>
<path d="M84.2732 33.248C84.2732 32.6724 84.4556 32.1978 84.8203 31.8242C85.1895 31.4507 85.6619 31.2639 86.2375 31.2639C86.822 31.2639 87.2944 31.4529 87.6548 31.8308C88.0195 32.2043 88.2019 32.6899 88.2019 33.2876V33.7556C88.2019 34.3357 88.0173 34.8103 87.6482 35.1794C87.2834 35.5442 86.8176 35.7266 86.2507 35.7266C85.6794 35.7266 85.207 35.5442 84.8335 35.1794C84.46 34.8103 84.2732 34.3203 84.2732 33.7095V33.248ZM85.1829 33.7556C85.1829 34.0984 85.2795 34.3818 85.4729 34.606C85.6663 34.8257 85.9255 34.9355 86.2507 34.9355C86.5627 34.9355 86.8132 34.8279 87.0022 34.6125C87.1956 34.3972 87.2922 34.1028 87.2922 33.7292V33.248C87.2922 32.9053 87.1978 32.6218 87.0088 32.3977C86.8198 32.1736 86.5627 32.0615 86.2375 32.0615C85.9124 32.0615 85.6553 32.1736 85.4663 32.3977C85.2773 32.6218 85.1829 32.9141 85.1829 33.2744V33.7556ZM88.9468 38.6467C88.9468 38.071 89.1292 37.5986 89.4939 37.2295C89.863 36.856 90.3354 36.6692 90.9111 36.6692C91.4868 36.6692 91.9592 36.8538 92.3284 37.2229C92.6975 37.592 92.8821 38.082 92.8821 38.6929V39.1609C92.8821 39.7366 92.6975 40.2112 92.3284 40.5847C91.9636 40.9539 91.4956 41.1384 90.9243 41.1384C90.353 41.1384 89.8806 40.9561 89.5071 40.5913C89.1335 40.2222 88.9468 39.7322 88.9468 39.1213V38.6467ZM89.8564 39.1609C89.8564 39.5081 89.9531 39.7937 90.1465 40.0178C90.3398 40.2375 90.5991 40.3474 90.9243 40.3474C91.2407 40.3474 91.4934 40.2397 91.6824 40.0244C91.8713 39.8047 91.9658 39.5081 91.9658 39.1345V38.6467C91.9658 38.2996 91.8691 38.0161 91.6758 37.7964C91.4868 37.5767 91.2319 37.4668 90.9111 37.4668C90.5991 37.4668 90.3442 37.5767 90.1465 37.7964C89.9531 38.0117 89.8564 38.304 89.8564 38.6731V39.1609ZM86.5276 40.2749L85.8354 39.8398L90.5222 32.3384L91.2144 32.7734L86.5276 40.2749Z" fill="#5551FF"/>
<path d="M306 89C306 90.6569 304.657 92 303 92C301.343 92 300 90.6569 300 89C300 87.3431 301.343 86 303 86C304.657 86 306 87.3431 306 89Z" fill="#5551FF"/>
<path fill-rule="evenodd" clip-rule="evenodd" d="M261.135 35.2802C257.247 30.366 251.325 27.5 245.058 27.5H240V28.5H245.058C251.019 28.5 256.652 31.2262 260.351 35.9007L302.608 89.3102L303.393 88.6898L261.135 35.2802Z" fill="#5551FF"/>
<g filter="url(#filter6_d)">
<path d="M47 90C47 84.4772 51.4772 80 57 80H212C217.523 80 222 84.4772 222 90V115C222 120.523 217.523 125 212 125H57C51.4772 125 47 120.523 47 115V90Z" fill="white"/>
</g>
<g filter="url(#filter7_d)">
<path fill-rule="evenodd" clip-rule="evenodd" d="M212 81H57C52.0294 81 48 85.0294 48 90V115C48 119.971 52.0294 124 57 124H212C216.971 124 221 119.971 221 115V90C221 85.0294 216.971 81 212 81ZM57 80C51.4772 80 47 84.4772 47 90V115C47 120.523 51.4772 125 57 125H212C217.523 125 222 120.523 222 115V90C222 84.4772 217.523 80 212 80H57Z" fill="#5551FF"/>
</g>
<path d="M60.3796 96.2427V100H59.114V90.4023H62.6538C63.7041 90.4023 64.5259 90.6704 65.1191 91.2065C65.7168 91.7427 66.0156 92.4524 66.0156 93.3357C66.0156 94.2673 65.7234 94.9858 65.1389 95.4912C64.5588 95.9922 63.7261 96.2427 62.6406 96.2427H60.3796ZM60.3796 95.2078H62.6538C63.3306 95.2078 63.8491 95.0496 64.2095 94.7332C64.5698 94.4124 64.75 93.9509 64.75 93.3489C64.75 92.7776 64.5698 92.3206 64.2095 91.9778C63.8491 91.635 63.3547 91.457 62.7263 91.4438H60.3796V95.2078Z" fill="#5551FF"/>
<path d="M71.7637 100C71.6934 99.8594 71.6362 99.6089 71.5923 99.2485C71.0254 99.8374 70.3486 100.132 69.562 100.132C68.8589 100.132 68.281 99.9341 67.8284 99.5386C67.3801 99.1387 67.156 98.6333 67.156 98.0225C67.156 97.2798 67.4373 96.7041 67.9998 96.2954C68.5667 95.8823 69.3621 95.6758 70.386 95.6758H71.5725V95.1155C71.5725 94.6892 71.4451 94.3508 71.1902 94.1003C70.9353 93.8455 70.5596 93.718 70.063 93.718C69.6279 93.718 69.2632 93.8279 68.9688 94.0476C68.6743 94.2673 68.5271 94.5332 68.5271 94.8452H67.301C67.301 94.4893 67.4263 94.1465 67.6768 93.8169C67.9316 93.4829 68.2744 93.2192 68.7051 93.0259C69.1401 92.8325 69.6169 92.7358 70.1355 92.7358C70.9573 92.7358 71.6011 92.9424 72.0669 93.3555C72.5327 93.7642 72.7744 94.3289 72.792 95.0496V98.3323C72.792 98.9871 72.8755 99.5078 73.0425 99.8945V100H71.7637ZM69.74 99.0706C70.1223 99.0706 70.4849 98.9717 70.8276 98.7739C71.1704 98.5762 71.4187 98.3191 71.5725 98.0027V96.5393H70.6167C69.1226 96.5393 68.3755 96.9766 68.3755 97.8511C68.3755 98.2334 68.5029 98.5322 68.7578 98.7476C69.0127 98.9629 69.3401 99.0706 69.74 99.0706Z" fill="#5551FF"/>
<path d="M78.1511 93.9619C77.9666 93.9312 77.7666 93.9158 77.5513 93.9158C76.7515 93.9158 76.2087 94.2563 75.9231 94.9375V100H74.7036V92.8677H75.8901L75.9099 93.6917C76.3098 93.0544 76.8767 92.7358 77.6106 92.7358C77.8479 92.7358 78.0281 92.7666 78.1511 92.8281V93.9619Z" fill="#5551FF"/>
<path d="M81.2625 91.1406V92.8677H82.594V93.8103H81.2625V98.2334C81.2625 98.519 81.3218 98.7344 81.4404 98.8794C81.5591 99.02 81.7612 99.0903 82.0469 99.0903C82.1875 99.0903 82.3809 99.064 82.627 99.0112V100C82.3062 100.088 81.9941 100.132 81.6909 100.132C81.146 100.132 80.7351 99.967 80.4583 99.6375C80.1814 99.3079 80.043 98.8398 80.043 98.2334V93.8103H78.7444V92.8677H80.043V91.1406H81.2625Z" fill="#5551FF"/>
<path d="M85.178 92.8677L85.2175 93.7642C85.7625 93.0786 86.4744 92.7358 87.3533 92.7358C88.8606 92.7358 89.6208 93.5862 89.634 95.2869V100H88.4146V95.2803C88.4102 94.7661 88.2915 94.386 88.0586 94.1399C87.8301 93.8938 87.4719 93.7708 86.9841 93.7708C86.5886 93.7708 86.2415 93.8762 85.9426 94.0872C85.6438 94.2981 85.4109 94.575 85.2439 94.9177V100H84.0244V92.8677H85.178Z" fill="#5551FF"/>
<path d="M94.4329 100.132C93.4661 100.132 92.6794 99.8154 92.073 99.1826C91.4666 98.5454 91.1633 97.6951 91.1633 96.6316V96.4075C91.1633 95.7 91.2974 95.0693 91.5654 94.5156C91.8379 93.9575 92.2158 93.5225 92.6992 93.2104C93.187 92.894 93.7144 92.7358 94.2812 92.7358C95.2085 92.7358 95.9292 93.0413 96.4434 93.6521C96.9575 94.2629 97.2146 95.1375 97.2146 96.2756V96.7832H92.3828C92.4004 97.4863 92.6047 98.0554 92.9958 98.4905C93.3914 98.9211 93.8923 99.1365 94.4988 99.1365C94.9294 99.1365 95.2942 99.0486 95.593 98.8728C95.8918 98.697 96.1533 98.4641 96.3774 98.1741L97.1223 98.7542C96.5247 99.6726 95.6282 100.132 94.4329 100.132ZM94.2812 93.7378C93.7891 93.7378 93.376 93.918 93.042 94.2783C92.708 94.6343 92.5015 95.1353 92.4224 95.7812H95.9951V95.689C95.96 95.0693 95.793 94.5903 95.4941 94.252C95.1953 93.9092 94.791 93.7378 94.2812 93.7378Z" fill="#5551FF"/>
<path d="M102.079 93.9619C101.895 93.9312 101.695 93.9158 101.479 93.9158C100.68 93.9158 100.137 94.2563 99.8513 94.9375V100H98.6318V92.8677H99.8184L99.8381 93.6917C100.238 93.0544 100.805 92.7358 101.539 92.7358C101.776 92.7358 101.956 92.7666 102.079 92.8281V93.9619Z" fill="#5551FF"/>
<path d="M107.359 98.1082C107.359 97.7786 107.234 97.5237 106.984 97.3435C106.738 97.1589 106.305 97.0007 105.685 96.8689C105.07 96.7371 104.58 96.5789 104.215 96.3943C103.855 96.2097 103.587 95.99 103.411 95.7351C103.24 95.4802 103.154 95.177 103.154 94.8254C103.154 94.241 103.4 93.7466 103.892 93.3423C104.389 92.938 105.021 92.7358 105.791 92.7358C106.599 92.7358 107.254 92.9446 107.755 93.3621C108.26 93.7795 108.513 94.3135 108.513 94.9639H107.287C107.287 94.6299 107.144 94.342 106.858 94.1003C106.577 93.8586 106.221 93.7378 105.791 93.7378C105.347 93.7378 105 93.8345 104.749 94.0278C104.499 94.2212 104.373 94.4739 104.373 94.7859C104.373 95.0803 104.49 95.3022 104.723 95.4517C104.956 95.6011 105.375 95.7439 105.982 95.8801C106.593 96.0164 107.087 96.179 107.465 96.3679C107.843 96.5569 108.122 96.7854 108.302 97.0535C108.487 97.3171 108.579 97.6401 108.579 98.0225C108.579 98.6597 108.324 99.1716 107.814 99.5583C107.304 99.9407 106.643 100.132 105.83 100.132C105.259 100.132 104.753 100.031 104.314 99.8286C103.875 99.6265 103.53 99.3452 103.279 98.9849C103.033 98.6201 102.91 98.2268 102.91 97.8049H104.129C104.151 98.2136 104.314 98.5388 104.617 98.7805C104.925 99.0178 105.329 99.1365 105.83 99.1365C106.292 99.1365 106.661 99.0442 106.938 98.8596C107.219 98.6707 107.359 98.4202 107.359 98.1082Z" fill="#5551FF"/>
<path d="M113.259 97.4226C113.259 96.9612 113.386 96.5371 113.641 96.1504C113.901 95.7637 114.393 95.3132 115.118 94.7991C114.692 94.2805 114.406 93.863 114.261 93.5466C114.116 93.2302 114.043 92.916 114.043 92.604C114.043 91.8745 114.259 91.3032 114.689 90.8901C115.12 90.4771 115.705 90.2705 116.443 90.2705C117.102 90.2705 117.647 90.4639 118.078 90.8506C118.508 91.2329 118.724 91.7163 118.724 92.3008C118.724 92.6875 118.625 93.0457 118.427 93.3752C118.234 93.7004 117.893 94.0432 117.405 94.4036L116.7 94.9243L118.836 97.4753C119.135 96.9041 119.284 96.269 119.284 95.5703H120.385C120.385 96.6909 120.115 97.6204 119.574 98.3586L120.945 100H119.482L118.842 99.2419C118.517 99.532 118.135 99.7539 117.695 99.9077C117.26 100.057 116.816 100.132 116.364 100.132C115.428 100.132 114.676 99.8835 114.109 99.387C113.542 98.8904 113.259 98.2356 113.259 97.4226ZM116.364 99.1365C117.01 99.1365 117.601 98.8904 118.137 98.3982L115.797 95.5967L115.579 95.7549C114.845 96.2954 114.479 96.8513 114.479 97.4226C114.479 97.9412 114.646 98.3564 114.979 98.6685C115.318 98.9805 115.779 99.1365 116.364 99.1365ZM115.263 92.5645C115.263 92.9863 115.522 93.5137 116.041 94.1465L116.819 93.5994C117.117 93.3884 117.322 93.1885 117.432 92.9995C117.542 92.8062 117.596 92.5732 117.596 92.3008C117.596 92.0063 117.487 91.7625 117.267 91.5691C117.047 91.3713 116.77 91.2725 116.436 91.2725C116.076 91.2725 115.79 91.3955 115.579 91.6416C115.368 91.8833 115.263 92.1909 115.263 92.5645Z" fill="#5551FF"/>
<path d="M130.754 97.4951H126.733L125.83 100H124.524L128.189 90.4023H129.297L132.969 100H131.67L130.754 97.4951ZM127.115 96.4536H130.378L128.743 91.9646L127.115 96.4536Z" fill="#5551FF"/>
<path d="M133.773 96.3745C133.773 95.2803 134.032 94.4014 134.551 93.7378C135.069 93.0698 135.748 92.7358 136.587 92.7358C137.422 92.7358 138.084 93.0215 138.572 93.5928V89.875H139.791V100H138.67L138.611 99.2354C138.123 99.833 137.444 100.132 136.574 100.132C135.748 100.132 135.073 99.7935 134.551 99.1167C134.032 98.4399 133.773 97.5566 133.773 96.4668V96.3745ZM134.992 96.5129C134.992 97.3215 135.159 97.9543 135.493 98.4114C135.827 98.8684 136.289 99.0969 136.877 99.0969C137.651 99.0969 138.216 98.7498 138.572 98.0554V94.7793C138.207 94.1069 137.646 93.7708 136.891 93.7708C136.293 93.7708 135.827 94.0015 135.493 94.4629C135.159 94.9243 134.992 95.6077 134.992 96.5129Z" fill="#5551FF"/>
<path d="M144.043 98.3455L145.809 92.8677H147.055L144.498 100H143.568L140.984 92.8677H142.23L144.043 98.3455Z" fill="#5551FF"/>
<path d="M149.553 100H148.334V92.8677H149.553V100ZM148.235 90.9758C148.235 90.7781 148.294 90.6111 148.413 90.4749C148.536 90.3386 148.716 90.2705 148.954 90.2705C149.191 90.2705 149.371 90.3386 149.494 90.4749C149.617 90.6111 149.679 90.7781 149.679 90.9758C149.679 91.1736 149.617 91.3384 149.494 91.4702C149.371 91.6021 149.191 91.668 148.954 91.668C148.716 91.668 148.536 91.6021 148.413 91.4702C148.294 91.3384 148.235 91.1736 148.235 90.9758Z" fill="#5551FF"/>
<path d="M155.664 98.1082C155.664 97.7786 155.539 97.5237 155.288 97.3435C155.042 97.1589 154.609 97.0007 153.99 96.8689C153.375 96.7371 152.885 96.5789 152.52 96.3943C152.159 96.2097 151.891 95.99 151.716 95.7351C151.544 95.4802 151.458 95.177 151.458 94.8254C151.458 94.241 151.705 93.7466 152.197 93.3423C152.693 92.938 153.326 92.7358 154.095 92.7358C154.904 92.7358 155.559 92.9446 156.06 93.3621C156.565 93.7795 156.818 94.3135 156.818 94.9639H155.592C155.592 94.6299 155.449 94.342 155.163 94.1003C154.882 93.8586 154.526 93.7378 154.095 93.7378C153.651 93.7378 153.304 93.8345 153.054 94.0278C152.803 94.2212 152.678 94.4739 152.678 94.7859C152.678 95.0803 152.794 95.3022 153.027 95.4517C153.26 95.6011 153.68 95.7439 154.286 95.8801C154.897 96.0164 155.392 96.179 155.77 96.3679C156.147 96.5569 156.427 96.7854 156.607 97.0535C156.791 97.3171 156.884 97.6401 156.884 98.0225C156.884 98.6597 156.629 99.1716 156.119 99.5583C155.609 99.9407 154.948 100.132 154.135 100.132C153.563 100.132 153.058 100.031 152.619 99.8286C152.179 99.6265 151.834 99.3452 151.584 98.9849C151.338 98.6201 151.215 98.2268 151.215 97.8049H152.434C152.456 98.2136 152.619 98.5388 152.922 98.7805C153.229 99.0178 153.634 99.1365 154.135 99.1365C154.596 99.1365 154.965 99.0442 155.242 98.8596C155.523 98.6707 155.664 98.4202 155.664 98.1082Z" fill="#5551FF"/>
<path d="M158.149 96.3679C158.149 95.6692 158.285 95.0408 158.558 94.4827C158.835 93.9246 159.217 93.4939 159.705 93.1907C160.197 92.8875 160.757 92.7358 161.386 92.7358C162.357 92.7358 163.141 93.072 163.739 93.7444C164.341 94.4167 164.642 95.311 164.642 96.4272V96.5129C164.642 97.2073 164.508 97.8313 164.24 98.385C163.976 98.9343 163.596 99.3628 163.1 99.6704C162.607 99.978 162.041 100.132 161.399 100.132C160.432 100.132 159.648 99.7957 159.046 99.1233C158.448 98.4509 158.149 97.561 158.149 96.4536V96.3679ZM159.375 96.5129C159.375 97.304 159.558 97.939 159.922 98.418C160.292 98.897 160.784 99.1365 161.399 99.1365C162.019 99.1365 162.511 98.8948 162.875 98.4114C163.24 97.9236 163.423 97.2424 163.423 96.3679C163.423 95.5857 163.236 94.9529 162.862 94.4695C162.493 93.9817 162.001 93.7378 161.386 93.7378C160.784 93.7378 160.298 93.9773 159.929 94.4563C159.56 94.9353 159.375 95.6208 159.375 96.5129Z" fill="#5551FF"/>
<path d="M169.619 93.9619C169.434 93.9312 169.234 93.9158 169.019 93.9158C168.219 93.9158 167.677 94.2563 167.391 94.9375V100H166.171V92.8677H167.358L167.378 93.6917C167.778 93.0544 168.344 92.7358 169.078 92.7358C169.316 92.7358 169.496 92.7666 169.619 92.8281V93.9619Z" fill="#5551FF"/>
<path d="M174.899 98.1082C174.899 97.7786 174.774 97.5237 174.523 97.3435C174.277 97.1589 173.844 97.0007 173.225 96.8689C172.609 96.7371 172.119 96.5789 171.755 96.3943C171.394 96.2097 171.126 95.99 170.95 95.7351C170.779 95.4802 170.693 95.177 170.693 94.8254C170.693 94.241 170.939 93.7466 171.432 93.3423C171.928 92.938 172.561 92.7358 173.33 92.7358C174.139 92.7358 174.793 92.9446 175.294 93.3621C175.8 93.7795 176.052 94.3135 176.052 94.9639H174.826C174.826 94.6299 174.684 94.342 174.398 94.1003C174.117 93.8586 173.761 93.7378 173.33 93.7378C172.886 93.7378 172.539 93.8345 172.289 94.0278C172.038 94.2212 171.913 94.4739 171.913 94.7859C171.913 95.0803 172.029 95.3022 172.262 95.4517C172.495 95.6011 172.915 95.7439 173.521 95.8801C174.132 96.0164 174.626 96.179 175.004 96.3679C175.382 96.5569 175.661 96.7854 175.842 97.0535C176.026 97.3171 176.118 97.6401 176.118 98.0225C176.118 98.6597 175.864 99.1716 175.354 99.5583C174.844 99.9407 174.183 100.132 173.37 100.132C172.798 100.132 172.293 100.031 171.854 99.8286C171.414 99.6265 171.069 99.3452 170.819 98.9849C170.573 98.6201 170.449 98.2268 170.449 97.8049H171.669C171.691 98.2136 171.854 98.5388 172.157 98.7805C172.464 99.0178 172.869 99.1365 173.37 99.1365C173.831 99.1365 174.2 99.0442 174.477 98.8596C174.758 98.6707 174.899 98.4202 174.899 98.1082Z" fill="#5551FF"/>
<path d="M63.5833 106.396V107.431H63.3591C62.4099 107.448 61.6541 107.729 61.0916 108.274C60.5291 108.819 60.2039 109.586 60.116 110.575C60.6213 109.995 61.3113 109.705 62.1858 109.705C63.0208 109.705 63.6865 109.999 64.1831 110.588C64.6841 111.177 64.9346 111.937 64.9346 112.869C64.9346 113.858 64.6643 114.649 64.1238 115.242C63.5876 115.835 62.8669 116.132 61.9617 116.132C61.0432 116.132 60.2983 115.78 59.7271 115.077C59.1558 114.37 58.8701 113.46 58.8701 112.348V111.88C58.8701 110.114 59.2458 108.764 59.9973 107.833C60.7532 106.897 61.876 106.418 63.3657 106.396H63.5833ZM61.9814 110.72C61.564 110.72 61.1794 110.845 60.8279 111.096C60.4763 111.346 60.2324 111.66 60.0962 112.038V112.487C60.0962 113.278 60.2742 113.915 60.6301 114.398C60.9861 114.882 61.4299 115.123 61.9617 115.123C62.511 115.123 62.9417 114.921 63.2537 114.517C63.5701 114.113 63.7283 113.583 63.7283 112.928C63.7283 112.269 63.5679 111.737 63.2471 111.333C62.9307 110.924 62.5088 110.72 61.9814 110.72Z" fill="#5551FF"/>
<path d="M66.2727 108.248C66.2727 107.672 66.4551 107.198 66.8198 106.824C67.189 106.451 67.6614 106.264 68.2371 106.264C68.8215 106.264 69.2939 106.453 69.6543 106.831C70.019 107.204 70.2014 107.69 70.2014 108.288V108.756C70.2014 109.336 70.0168 109.81 69.6477 110.179C69.283 110.544 68.8171 110.727 68.2502 110.727C67.679 110.727 67.2065 110.544 66.833 110.179C66.4595 109.81 66.2727 109.32 66.2727 108.709V108.248ZM67.1824 108.756C67.1824 109.098 67.2791 109.382 67.4724 109.606C67.6658 109.826 67.925 109.936 68.2502 109.936C68.5623 109.936 68.8127 109.828 69.0017 109.613C69.1951 109.397 69.2917 109.103 69.2917 108.729V108.248C69.2917 107.905 69.1973 107.622 69.0083 107.398C68.8193 107.174 68.5623 107.062 68.2371 107.062C67.9119 107.062 67.6548 107.174 67.4658 107.398C67.2769 107.622 67.1824 107.914 67.1824 108.274V108.756ZM70.9463 113.647C70.9463 113.071 71.1287 112.599 71.4934 112.229C71.8625 111.856 72.335 111.669 72.9106 111.669C73.4863 111.669 73.9587 111.854 74.3279 112.223C74.697 112.592 74.8816 113.082 74.8816 113.693V114.161C74.8816 114.737 74.697 115.211 74.3279 115.585C73.9631 115.954 73.4951 116.138 72.9238 116.138C72.3525 116.138 71.8801 115.956 71.5066 115.591C71.1331 115.222 70.9463 114.732 70.9463 114.121V113.647ZM71.856 114.161C71.856 114.508 71.9526 114.794 72.146 115.018C72.3394 115.238 72.5986 115.347 72.9238 115.347C73.2402 115.347 73.4929 115.24 73.6819 115.024C73.8708 114.805 73.9653 114.508 73.9653 114.135V113.647C73.9653 113.3 73.8687 113.016 73.6753 112.796C73.4863 112.577 73.2314 112.467 72.9106 112.467C72.5986 112.467 72.3438 112.577 72.146 112.796C71.9526 113.012 71.856 113.304 71.856 113.673V114.161ZM68.5271 115.275L67.835 114.84L72.5217 107.338L73.2139 107.773L68.5271 115.275Z" fill="#5551FF"/>
<path fill-rule="evenodd" clip-rule="evenodd" d="M261.5 103.5H221.5V102.5H261.5V103.5Z" fill="#5551FF"/>
<path d="M265 103C265 104.657 263.657 106 262 106C260.343 106 259 104.657 259 103C259 101.343 260.343 100 262 100C263.657 100 265 101.343 265 103Z" fill="#5551FF"/>
<g filter="url(#filter8_d)">
<path d="M436 22C436 16.4772 440.477 12 446 12H601C606.523 12 611 16.4772 611 22V47C611 52.5228 606.523 57 601 57H446C440.477 57 436 52.5228 436 47V22Z" fill="white"/>
</g>
<g filter="url(#filter9_d)">
<path fill-rule="evenodd" clip-rule="evenodd" d="M601 13H446C441.029 13 437 17.0294 437 22V47C437 51.9706 441.029 56 446 56H601C605.971 56 610 51.9706 610 47V22C610 17.0294 605.971 13 601 13ZM446 12C440.477 12 436 16.4772 436 22V47C436 52.5228 440.477 57 446 57H601C606.523 57 611 52.5228 611 47V22C611 16.4772 606.523 12 601 12H446Z" fill="#5551FF"/>
</g>
<path d="M527.756 27.7219C526.671 27.4099 525.88 27.0276 525.383 26.575C524.891 26.1179 524.645 25.5554 524.645 24.8875C524.645 24.1316 524.946 23.5076 525.548 23.0154C526.155 22.5188 526.941 22.2705 527.908 22.2705C528.567 22.2705 529.154 22.3979 529.668 22.6528C530.187 22.9077 530.586 23.2593 530.868 23.7075C531.153 24.1558 531.296 24.6458 531.296 25.1775H530.024C530.024 24.5974 529.839 24.1426 529.47 23.813C529.101 23.479 528.58 23.312 527.908 23.312C527.284 23.312 526.796 23.4504 526.445 23.7273C526.097 23.9998 525.924 24.3799 525.924 24.8677C525.924 25.2588 526.089 25.5906 526.418 25.863C526.752 26.1311 527.317 26.3772 528.112 26.6013C528.912 26.8254 529.536 27.0737 529.984 27.3462C530.437 27.6143 530.771 27.9285 530.986 28.2888C531.206 28.6492 531.316 29.0732 531.316 29.561C531.316 30.3389 531.013 30.9629 530.406 31.4331C529.8 31.8989 528.989 32.1318 527.974 32.1318C527.315 32.1318 526.699 32.0066 526.128 31.7561C525.557 31.5012 525.115 31.1541 524.803 30.7146C524.496 30.2751 524.342 29.7764 524.342 29.2183H525.614C525.614 29.7983 525.827 30.2576 526.253 30.5959C526.684 30.9299 527.258 31.0969 527.974 31.0969C528.642 31.0969 529.154 30.9607 529.51 30.6882C529.866 30.4158 530.044 30.0444 530.044 29.5742C530.044 29.104 529.879 28.7415 529.549 28.4866C529.22 28.2273 528.622 27.9724 527.756 27.7219Z" fill="#5551FF"/>
<path d="M535.713 32.1318C534.746 32.1318 533.959 31.8154 533.353 31.1826C532.746 30.5454 532.443 29.6951 532.443 28.6316V28.4075C532.443 27.7 532.577 27.0693 532.845 26.5156C533.118 25.9575 533.496 25.5225 533.979 25.2104C534.467 24.894 534.994 24.7358 535.561 24.7358C536.488 24.7358 537.209 25.0413 537.723 25.6521C538.237 26.2629 538.494 27.1375 538.494 28.2756V28.7832H533.663C533.68 29.4863 533.885 30.0554 534.276 30.4905C534.671 30.9211 535.172 31.1365 535.779 31.1365C536.209 31.1365 536.574 31.0486 536.873 30.8728C537.172 30.697 537.433 30.4641 537.657 30.1741L538.402 30.7542C537.804 31.6726 536.908 32.1318 535.713 32.1318ZM535.561 25.7378C535.069 25.7378 534.656 25.918 534.322 26.2783C533.988 26.6343 533.781 27.1353 533.702 27.7812H537.275V27.689C537.24 27.0693 537.073 26.5903 536.774 26.252C536.475 25.9092 536.071 25.7378 535.561 25.7378Z" fill="#5551FF"/>
<path d="M542.871 32.1318C541.905 32.1318 541.118 31.8154 540.511 31.1826C539.905 30.5454 539.602 29.6951 539.602 28.6316V28.4075C539.602 27.7 539.736 27.0693 540.004 26.5156C540.276 25.9575 540.654 25.5225 541.138 25.2104C541.625 24.894 542.153 24.7358 542.72 24.7358C543.647 24.7358 544.368 25.0413 544.882 25.6521C545.396 26.2629 545.653 27.1375 545.653 28.2756V28.7832H540.821C540.839 29.4863 541.043 30.0554 541.434 30.4905C541.83 30.9211 542.331 31.1365 542.937 31.1365C543.368 31.1365 543.733 31.0486 544.031 30.8728C544.33 30.697 544.592 30.4641 544.816 30.1741L545.561 30.7542C544.963 31.6726 544.067 32.1318 542.871 32.1318ZM542.72 25.7378C542.228 25.7378 541.814 25.918 541.48 26.2783C541.146 26.6343 540.94 27.1353 540.861 27.7812H544.434V27.689C544.398 27.0693 544.231 26.5903 543.933 26.252C543.634 25.9092 543.229 25.7378 542.72 25.7378Z" fill="#5551FF"/>
<path d="M546.774 28.3745C546.774 27.2803 547.033 26.4014 547.552 25.7378C548.07 25.0698 548.749 24.7358 549.588 24.7358C550.423 24.7358 551.085 25.0215 551.573 25.5928V21.875H552.792V32H551.671L551.612 31.2354C551.124 31.833 550.445 32.1318 549.575 32.1318C548.749 32.1318 548.074 31.7935 547.552 31.1167C547.033 30.4399 546.774 29.5566 546.774 28.4668V28.3745ZM547.993 28.5129C547.993 29.3215 548.16 29.9543 548.494 30.4114C548.828 30.8684 549.29 31.0969 549.878 31.0969C550.652 31.0969 551.217 30.7498 551.573 30.0554V26.7793C551.208 26.1069 550.647 25.7708 549.892 25.7708C549.294 25.7708 548.828 26.0015 548.494 26.4629C548.16 26.9243 547.993 27.6077 547.993 28.5129Z" fill="#5551FF"/>
<path d="M561.75 28.1174H559.496V32H558.224V22.4023H561.401C562.482 22.4023 563.312 22.6484 563.893 23.1406C564.477 23.6328 564.769 24.3491 564.769 25.2896C564.769 25.8872 564.607 26.408 564.281 26.8518C563.961 27.2957 563.512 27.6274 562.937 27.8472L565.191 31.9209V32H563.833L561.75 28.1174ZM559.496 27.0825H561.44C562.069 27.0825 562.568 26.9199 562.937 26.5947C563.31 26.2695 563.497 25.8345 563.497 25.2896C563.497 24.6963 563.319 24.2415 562.963 23.925C562.612 23.6086 562.102 23.4482 561.434 23.4438H559.496V27.0825Z" fill="#5551FF"/>
<path d="M566.035 28.3679C566.035 27.6692 566.171 27.0408 566.444 26.4827C566.72 25.9246 567.103 25.4939 567.591 25.1907C568.083 24.8875 568.643 24.7358 569.271 24.7358C570.243 24.7358 571.027 25.072 571.625 25.7444C572.227 26.4167 572.528 27.311 572.528 28.4272V28.5129C572.528 29.2073 572.394 29.8313 572.126 30.385C571.862 30.9343 571.482 31.3628 570.985 31.6704C570.493 31.978 569.926 32.1318 569.285 32.1318C568.318 32.1318 567.533 31.7957 566.931 31.1233C566.334 30.4509 566.035 29.561 566.035 28.4536V28.3679ZM567.261 28.5129C567.261 29.304 567.443 29.939 567.808 30.418C568.177 30.897 568.669 31.1365 569.285 31.1365C569.904 31.1365 570.396 30.8948 570.761 30.4114C571.126 29.9236 571.308 29.2424 571.308 28.3679C571.308 27.5857 571.122 26.9529 570.748 26.4695C570.379 25.9817 569.887 25.7378 569.271 25.7378C568.669 25.7378 568.184 25.9773 567.815 26.4563C567.446 26.9353 567.261 27.6208 567.261 28.5129Z" fill="#5551FF"/>
<path d="M578.46 31.2947C577.986 31.8528 577.289 32.1318 576.371 32.1318C575.611 32.1318 575.031 31.9121 574.631 31.4727C574.235 31.0288 574.035 30.374 574.031 29.5083V24.8677H575.25V29.4753C575.25 30.5564 575.69 31.0969 576.569 31.0969C577.5 31.0969 578.12 30.7498 578.427 30.0554V24.8677H579.647V32H578.487L578.46 31.2947Z" fill="#5551FF"/>
<path d="M582.659 24.8677L582.699 25.7642C583.244 25.0786 583.956 24.7358 584.835 24.7358C586.342 24.7358 587.102 25.5862 587.115 27.2869V32H585.896V27.2803C585.892 26.7661 585.773 26.386 585.54 26.1399C585.312 25.8938 584.953 25.7708 584.466 25.7708C584.07 25.7708 583.723 25.8762 583.424 26.0872C583.125 26.2981 582.892 26.575 582.725 26.9177V32H581.506V24.8677H582.659Z" fill="#5551FF"/>
<path d="M588.658 28.3745C588.658 27.2803 588.917 26.4014 589.436 25.7378C589.954 25.0698 590.633 24.7358 591.473 24.7358C592.308 24.7358 592.969 25.0215 593.457 25.5928V21.875H594.676V32H593.556L593.496 31.2354C593.009 31.833 592.33 32.1318 591.459 32.1318C590.633 32.1318 589.959 31.7935 589.436 31.1167C588.917 30.4399 588.658 29.5566 588.658 28.4668V28.3745ZM589.877 28.5129C589.877 29.3215 590.044 29.9543 590.378 30.4114C590.712 30.8684 591.174 31.0969 591.763 31.0969C592.536 31.0969 593.101 30.7498 593.457 30.0554V26.7793C593.092 26.1069 592.532 25.7708 591.776 25.7708C591.178 25.7708 590.712 26.0015 590.378 26.4629C590.044 26.9243 589.877 27.6077 589.877 28.5129Z" fill="#5551FF"/>
<path d="M578.757 48H577.531V39.8723L575.072 40.7754V39.668L578.566 38.3562H578.757V48Z" fill="#5551FF"/>
<path d="M588.348 43.9065C588.348 45.3347 588.104 46.396 587.616 47.0903C587.129 47.7847 586.366 48.1318 585.329 48.1318C584.305 48.1318 583.547 47.7935 583.055 47.1167C582.563 46.4355 582.308 45.4204 582.29 44.0713V42.4431C582.29 41.0325 582.534 39.9844 583.022 39.2988C583.51 38.6133 584.274 38.2705 585.316 38.2705C586.349 38.2705 587.109 38.6023 587.597 39.2659C588.084 39.925 588.335 40.9446 588.348 42.3245V43.9065ZM587.129 42.2388C587.129 41.2061 586.984 40.4546 586.694 39.9844C586.404 39.5098 585.944 39.2725 585.316 39.2725C584.692 39.2725 584.237 39.5076 583.951 39.9778C583.666 40.448 583.519 41.1709 583.51 42.1465V44.0977C583.51 45.1348 583.659 45.9016 583.958 46.3982C584.261 46.8904 584.718 47.1365 585.329 47.1365C585.931 47.1365 586.377 46.9036 586.667 46.4377C586.962 45.9719 587.115 45.238 587.129 44.2361V42.2388Z" fill="#5551FF"/>
<path d="M589.805 40.248C589.805 39.6724 589.987 39.1978 590.352 38.8242C590.721 38.4507 591.194 38.2639 591.769 38.2639C592.354 38.2639 592.826 38.4529 593.187 38.8308C593.551 39.2043 593.734 39.6899 593.734 40.2876V40.7556C593.734 41.3357 593.549 41.8103 593.18 42.1794C592.815 42.5442 592.349 42.7266 591.782 42.7266C591.211 42.7266 590.739 42.5442 590.365 42.1794C589.992 41.8103 589.805 41.3203 589.805 40.7095V40.248ZM590.715 40.7556C590.715 41.0984 590.811 41.3818 591.005 41.606C591.198 41.8257 591.457 41.9355 591.782 41.9355C592.094 41.9355 592.345 41.8279 592.534 41.6125C592.727 41.3972 592.824 41.1028 592.824 40.7292V40.248C592.824 39.9053 592.729 39.6218 592.541 39.3977C592.352 39.1736 592.094 39.0615 591.769 39.0615C591.444 39.0615 591.187 39.1736 590.998 39.3977C590.809 39.6218 590.715 39.9141 590.715 40.2744V40.7556ZM594.479 45.6467C594.479 45.071 594.661 44.5986 595.026 44.2295C595.395 43.856 595.867 43.6692 596.443 43.6692C597.019 43.6692 597.491 43.8538 597.86 44.2229C598.229 44.592 598.414 45.082 598.414 45.6929V46.1609C598.414 46.7366 598.229 47.2112 597.86 47.5847C597.495 47.9539 597.027 48.1384 596.456 48.1384C595.885 48.1384 595.412 47.9561 595.039 47.5913C594.665 47.2222 594.479 46.7322 594.479 46.1213V45.6467ZM595.388 46.1609C595.388 46.5081 595.485 46.7937 595.678 47.0178C595.872 47.2375 596.131 47.3474 596.456 47.3474C596.772 47.3474 597.025 47.2397 597.214 47.0244C597.403 46.8047 597.498 46.5081 597.498 46.1345V45.6467C597.498 45.2996 597.401 45.0161 597.208 44.7964C597.019 44.5767 596.764 44.4668 596.443 44.4668C596.131 44.4668 595.876 44.5767 595.678 44.7964C595.485 45.0117 595.388 45.304 595.388 45.6731V46.1609ZM592.059 47.2749L591.367 46.8398L596.054 39.3384L596.746 39.7734L592.059 47.2749Z" fill="#5551FF"/>
<path d="M354 110C354 111.657 352.657 113 351 113C349.343 113 348 111.657 348 110C348 108.343 349.343 107 351 107C352.657 107 354 108.343 354 110Z" fill="#5551FF"/>
<path fill-rule="evenodd" clip-rule="evenodd" d="M410.137 40.6168C414.031 36.0982 419.701 33.5 425.666 33.5H436.5V34.5H425.666C419.992 34.5 414.599 36.9715 410.895 41.2696L351.379 110.326L350.621 109.674L410.137 40.6168Z" fill="#5551FF"/>
<g filter="url(#filter10_d)">
<path d="M468 120C468 114.477 472.477 110 478 110H633C638.523 110 643 114.477 643 120V145C643 150.523 638.523 155 633 155H478C472.477 155 468 150.523 468 145V120Z" fill="white"/>
</g>
<g filter="url(#filter11_d)">
<path fill-rule="evenodd" clip-rule="evenodd" d="M633 111H478C473.029 111 469 115.029 469 120V145C469 149.971 473.029 154 478 154H633C637.971 154 642 149.971 642 145V120C642 115.029 637.971 111 633 111ZM478 110C472.477 110 468 114.477 468 120V145C468 150.523 472.477 155 478 155H633C638.523 155 643 150.523 643 145V120C643 114.477 638.523 110 633 110H478Z" fill="#5551FF"/>
</g>
<path d="M546.421 126.243V130H545.155V120.402H548.695C549.745 120.402 550.567 120.67 551.16 121.207C551.758 121.743 552.057 122.452 552.057 123.336C552.057 124.267 551.765 124.986 551.18 125.491C550.6 125.992 549.767 126.243 548.682 126.243H546.421ZM546.421 125.208H548.695C549.372 125.208 549.89 125.05 550.251 124.733C550.611 124.412 550.791 123.951 550.791 123.349C550.791 122.778 550.611 122.321 550.251 121.978C549.89 121.635 549.396 121.457 548.768 121.444H546.421V125.208Z" fill="#5551FF"/>
<path d="M556.928 123.962C556.744 123.931 556.544 123.916 556.328 123.916C555.529 123.916 554.986 124.256 554.7 124.938V130H553.481V122.868H554.667L554.687 123.692C555.087 123.054 555.654 122.736 556.388 122.736C556.625 122.736 556.805 122.767 556.928 122.828V123.962Z" fill="#5551FF"/>
<path d="M559.38 130H558.161V122.868H559.38V130ZM558.062 120.976C558.062 120.778 558.121 120.611 558.24 120.475C558.363 120.339 558.543 120.271 558.781 120.271C559.018 120.271 559.198 120.339 559.321 120.475C559.444 120.611 559.506 120.778 559.506 120.976C559.506 121.174 559.444 121.338 559.321 121.47C559.198 121.602 559.018 121.668 558.781 121.668C558.543 121.668 558.363 121.602 558.24 121.47C558.121 121.338 558.062 121.174 558.062 120.976Z" fill="#5551FF"/>
<path d="M563.691 128.345L565.458 122.868H566.704L564.146 130H563.217L560.633 122.868H561.879L563.691 128.345Z" fill="#5551FF"/>
<path d="M572.175 130C572.105 129.859 572.048 129.609 572.004 129.249C571.437 129.837 570.76 130.132 569.973 130.132C569.27 130.132 568.692 129.934 568.24 129.539C567.792 129.139 567.567 128.633 567.567 128.022C567.567 127.28 567.849 126.704 568.411 126.295C568.978 125.882 569.773 125.676 570.797 125.676H571.984V125.115C571.984 124.689 571.856 124.351 571.602 124.1C571.347 123.845 570.971 123.718 570.474 123.718C570.039 123.718 569.675 123.828 569.38 124.048C569.086 124.267 568.938 124.533 568.938 124.845H567.712C567.712 124.489 567.838 124.146 568.088 123.817C568.343 123.483 568.686 123.219 569.116 123.026C569.552 122.833 570.028 122.736 570.547 122.736C571.369 122.736 572.012 122.942 572.478 123.355C572.944 123.764 573.186 124.329 573.203 125.05V128.332C573.203 128.987 573.287 129.508 573.454 129.895V130H572.175ZM570.151 129.071C570.534 129.071 570.896 128.972 571.239 128.774C571.582 128.576 571.83 128.319 571.984 128.003V126.539H571.028C569.534 126.539 568.787 126.977 568.787 127.851C568.787 128.233 568.914 128.532 569.169 128.748C569.424 128.963 569.751 129.071 570.151 129.071Z" fill="#5551FF"/>
<path d="M576.77 121.141V122.868H578.101V123.81H576.77V128.233C576.77 128.519 576.829 128.734 576.948 128.879C577.066 129.02 577.268 129.09 577.554 129.09C577.695 129.09 577.888 129.064 578.134 129.011V130C577.813 130.088 577.501 130.132 577.198 130.132C576.653 130.132 576.242 129.967 575.965 129.637C575.688 129.308 575.55 128.84 575.55 128.233V123.81H574.251V122.868H575.55V121.141H576.77Z" fill="#5551FF"/>
<path d="M582.491 130.132C581.524 130.132 580.738 129.815 580.131 129.183C579.525 128.545 579.222 127.695 579.222 126.632V126.407C579.222 125.7 579.356 125.069 579.624 124.516C579.896 123.958 580.274 123.522 580.758 123.21C581.245 122.894 581.773 122.736 582.34 122.736C583.267 122.736 583.988 123.041 584.502 123.652C585.016 124.263 585.273 125.137 585.273 126.276V126.783H580.441C580.459 127.486 580.663 128.055 581.054 128.49C581.45 128.921 581.951 129.136 582.557 129.136C582.988 129.136 583.353 129.049 583.651 128.873C583.95 128.697 584.212 128.464 584.436 128.174L585.181 128.754C584.583 129.673 583.687 130.132 582.491 130.132ZM582.34 123.738C581.847 123.738 581.434 123.918 581.1 124.278C580.766 124.634 580.56 125.135 580.481 125.781H584.053V125.689C584.018 125.069 583.851 124.59 583.552 124.252C583.254 123.909 582.849 123.738 582.34 123.738Z" fill="#5551FF"/>
<path d="M597.099 126.117H594.844V130H593.572V120.402H596.749C597.83 120.402 598.661 120.648 599.241 121.141C599.825 121.633 600.118 122.349 600.118 123.29C600.118 123.887 599.955 124.408 599.63 124.852C599.309 125.296 598.861 125.627 598.285 125.847L600.54 129.921V130H599.182L597.099 126.117ZM594.844 125.083H596.789C597.417 125.083 597.916 124.92 598.285 124.595C598.659 124.27 598.845 123.834 598.845 123.29C598.845 122.696 598.667 122.241 598.312 121.925C597.96 121.609 597.45 121.448 596.782 121.444H594.844V125.083Z" fill="#5551FF"/>
<path d="M601.383 126.368C601.383 125.669 601.52 125.041 601.792 124.483C602.069 123.925 602.451 123.494 602.939 123.191C603.431 122.887 603.991 122.736 604.62 122.736C605.591 122.736 606.375 123.072 606.973 123.744C607.575 124.417 607.876 125.311 607.876 126.427V126.513C607.876 127.207 607.742 127.831 607.474 128.385C607.21 128.934 606.83 129.363 606.334 129.67C605.842 129.978 605.275 130.132 604.633 130.132C603.666 130.132 602.882 129.796 602.28 129.123C601.682 128.451 601.383 127.561 601.383 126.454V126.368ZM602.609 126.513C602.609 127.304 602.792 127.939 603.156 128.418C603.526 128.897 604.018 129.136 604.633 129.136C605.253 129.136 605.745 128.895 606.11 128.411C606.474 127.924 606.657 127.242 606.657 126.368C606.657 125.586 606.47 124.953 606.096 124.469C605.727 123.982 605.235 123.738 604.62 123.738C604.018 123.738 603.532 123.977 603.163 124.456C602.794 124.935 602.609 125.621 602.609 126.513Z" fill="#5551FF"/>
<path d="M613.809 129.295C613.334 129.853 612.638 130.132 611.719 130.132C610.959 130.132 610.379 129.912 609.979 129.473C609.583 129.029 609.384 128.374 609.379 127.508V122.868H610.599V127.475C610.599 128.556 611.038 129.097 611.917 129.097C612.849 129.097 613.468 128.75 613.776 128.055V122.868H614.995V130H613.835L613.809 129.295Z" fill="#5551FF"/>
<path d="M618.008 122.868L618.047 123.764C618.592 123.079 619.304 122.736 620.183 122.736C621.69 122.736 622.451 123.586 622.464 125.287V130H621.244V125.28C621.24 124.766 621.121 124.386 620.888 124.14C620.66 123.894 620.302 123.771 619.814 123.771C619.418 123.771 619.071 123.876 618.772 124.087C618.474 124.298 618.241 124.575 618.074 124.918V130H616.854V122.868H618.008Z" fill="#5551FF"/>
<path d="M624.006 126.375C624.006 125.28 624.266 124.401 624.784 123.738C625.303 123.07 625.982 122.736 626.821 122.736C627.656 122.736 628.317 123.021 628.805 123.593V119.875H630.025V130H628.904L628.845 129.235C628.357 129.833 627.678 130.132 626.808 130.132C625.982 130.132 625.307 129.793 624.784 129.117C624.266 128.44 624.006 127.557 624.006 126.467V126.375ZM625.226 126.513C625.226 127.322 625.393 127.954 625.727 128.411C626.061 128.868 626.522 129.097 627.111 129.097C627.885 129.097 628.449 128.75 628.805 128.055V124.779C628.44 124.107 627.88 123.771 627.124 123.771C626.527 123.771 626.061 124.001 625.727 124.463C625.393 124.924 625.226 125.608 625.226 126.513Z" fill="#5551FF"/>
<path d="M610.757 146H609.531V137.872L607.072 138.775V137.668L610.566 136.356H610.757V146Z" fill="#5551FF"/>
<path d="M614.89 141.188L615.378 136.402H620.295V137.53H616.413L616.123 140.146C616.593 139.87 617.127 139.731 617.724 139.731C618.599 139.731 619.293 140.021 619.807 140.601C620.322 141.177 620.579 141.957 620.579 142.941C620.579 143.93 620.311 144.71 619.774 145.281C619.243 145.848 618.498 146.132 617.54 146.132C616.692 146.132 616 145.897 615.463 145.427C614.927 144.956 614.622 144.306 614.547 143.475H615.701C615.775 144.025 615.971 144.44 616.287 144.721C616.604 144.998 617.021 145.136 617.54 145.136C618.107 145.136 618.551 144.943 618.871 144.556C619.197 144.17 619.359 143.636 619.359 142.955C619.359 142.313 619.183 141.799 618.832 141.412C618.485 141.021 618.021 140.825 617.441 140.825C616.909 140.825 616.492 140.942 616.188 141.175L615.865 141.438L614.89 141.188Z" fill="#5551FF"/>
<path d="M621.805 138.248C621.805 137.672 621.987 137.198 622.352 136.824C622.721 136.451 623.193 136.264 623.769 136.264C624.354 136.264 624.826 136.453 625.186 136.831C625.551 137.204 625.733 137.69 625.733 138.288V138.756C625.733 139.336 625.549 139.81 625.18 140.179C624.815 140.544 624.349 140.727 623.782 140.727C623.211 140.727 622.739 140.544 622.365 140.179C621.991 139.81 621.805 139.32 621.805 138.709V138.248ZM622.714 138.756C622.714 139.098 622.811 139.382 623.004 139.606C623.198 139.826 623.457 139.936 623.782 139.936C624.094 139.936 624.345 139.828 624.534 139.613C624.727 139.397 624.824 139.103 624.824 138.729V138.248C624.824 137.905 624.729 137.622 624.54 137.398C624.351 137.174 624.094 137.062 623.769 137.062C623.444 137.062 623.187 137.174 622.998 137.398C622.809 137.622 622.714 137.914 622.714 138.274V138.756ZM626.478 143.647C626.478 143.071 626.661 142.599 627.025 142.229C627.395 141.856 627.867 141.669 628.443 141.669C629.018 141.669 629.491 141.854 629.86 142.223C630.229 142.592 630.414 143.082 630.414 143.693V144.161C630.414 144.737 630.229 145.211 629.86 145.585C629.495 145.954 629.027 146.138 628.456 146.138C627.885 146.138 627.412 145.956 627.039 145.591C626.665 145.222 626.478 144.732 626.478 144.121V143.647ZM627.388 144.161C627.388 144.508 627.485 144.794 627.678 145.018C627.871 145.238 628.131 145.347 628.456 145.347C628.772 145.347 629.025 145.24 629.214 145.024C629.403 144.805 629.497 144.508 629.497 144.135V143.647C629.497 143.3 629.401 143.016 629.207 142.796C629.018 142.577 628.763 142.467 628.443 142.467C628.131 142.467 627.876 142.577 627.678 142.796C627.485 143.012 627.388 143.304 627.388 143.673V144.161ZM624.059 145.275L623.367 144.84L628.054 137.338L628.746 137.773L624.059 145.275Z" fill="#5551FF"/>
<path fill-rule="evenodd" clip-rule="evenodd" d="M446.789 137.504C450.633 133.66 455.847 131.5 461.284 131.5H468V132.5H461.284C456.113 132.5 451.153 134.554 447.496 138.211L425.354 160.354L424.646 159.646L446.789 137.504Z" fill="#5551FF"/>
<path d="M428 160C428 161.657 426.657 163 425 163C423.343 163 422 161.657 422 160C422 158.343 423.343 157 425 157C426.657 157 428 158.343 428 160Z" fill="#5551FF"/>
<g filter="url(#filter12_d)">
<path d="M426 277.5C426 271.977 430.477 267.5 436 267.5H591C596.523 267.5 601 271.977 601 277.5V302.5C601 308.023 596.523 312.5 591 312.5H436C430.477 312.5 426 308.023 426 302.5V277.5Z" fill="white"/>
</g>
<g filter="url(#filter13_d)">
<path fill-rule="evenodd" clip-rule="evenodd" d="M591 268.5H436C431.029 268.5 427 272.529 427 277.5V302.5C427 307.471 431.029 311.5 436 311.5H591C595.971 311.5 600 307.471 600 302.5V277.5C600 272.529 595.971 268.5 591 268.5ZM436 267.5C430.477 267.5 426 271.977 426 277.5V302.5C426 308.023 430.477 312.5 436 312.5H591C596.523 312.5 601 308.023 601 302.5V277.5C601 271.977 596.523 267.5 591 267.5H436Z" fill="#5551FF"/>
</g>
<path d="M540.721 286.465H545.27V287.5H539.449V277.902H540.721V286.465Z" fill="#5551FF"/>
<path d="M547.847 287.5H546.628V280.368H547.847V287.5ZM546.529 278.476C546.529 278.278 546.588 278.111 546.707 277.975C546.83 277.839 547.01 277.771 547.247 277.771C547.485 277.771 547.665 277.839 547.788 277.975C547.911 278.111 547.972 278.278 547.972 278.476C547.972 278.674 547.911 278.838 547.788 278.97C547.665 279.102 547.485 279.168 547.247 279.168C547.01 279.168 546.83 279.102 546.707 278.97C546.588 278.838 546.529 278.674 546.529 278.476Z" fill="#5551FF"/>
<path d="M549.508 283.875C549.508 282.754 549.765 281.868 550.28 281.218C550.794 280.563 551.484 280.236 552.349 280.236C553.193 280.236 553.859 280.519 554.347 281.086L554.399 280.368H555.52V290.242H554.301V286.841C553.808 287.368 553.154 287.632 552.336 287.632C551.475 287.632 550.787 287.298 550.273 286.63C549.763 285.958 549.508 285.068 549.508 283.96V283.875ZM550.728 284.013C550.728 284.83 550.899 285.472 551.242 285.938C551.589 286.404 552.055 286.636 552.639 286.636C553.365 286.636 553.918 286.316 554.301 285.674V282.18C553.914 281.552 553.365 281.238 552.653 281.238C552.064 281.238 551.596 281.473 551.249 281.943C550.901 282.409 550.728 283.099 550.728 284.013Z" fill="#5551FF"/>
<path d="M561.881 286.795C561.406 287.353 560.71 287.632 559.792 287.632C559.031 287.632 558.451 287.412 558.051 286.973C557.656 286.529 557.456 285.874 557.451 285.008V280.368H558.671V284.975C558.671 286.056 559.11 286.597 559.989 286.597C560.921 286.597 561.541 286.25 561.848 285.555V280.368H563.068V287.5H561.907L561.881 286.795Z" fill="#5551FF"/>
<path d="M566.251 287.5H565.032V280.368H566.251V287.5ZM564.933 278.476C564.933 278.278 564.992 278.111 565.111 277.975C565.234 277.839 565.414 277.771 565.652 277.771C565.889 277.771 566.069 277.839 566.192 277.975C566.315 278.111 566.377 278.278 566.377 278.476C566.377 278.674 566.315 278.838 566.192 278.97C566.069 279.102 565.889 279.168 565.652 279.168C565.414 279.168 565.234 279.102 565.111 278.97C564.992 278.838 564.933 278.674 564.933 278.476Z" fill="#5551FF"/>
<path d="M567.913 283.875C567.913 282.78 568.172 281.901 568.69 281.238C569.209 280.57 569.888 280.236 570.727 280.236C571.562 280.236 572.224 280.521 572.711 281.093V277.375H573.931V287.5H572.81L572.751 286.735C572.263 287.333 571.584 287.632 570.714 287.632C569.888 287.632 569.213 287.293 568.69 286.617C568.172 285.94 567.913 285.057 567.913 283.967V283.875ZM569.132 284.013C569.132 284.822 569.299 285.454 569.633 285.911C569.967 286.368 570.428 286.597 571.017 286.597C571.791 286.597 572.355 286.25 572.711 285.555V282.279C572.347 281.607 571.786 281.271 571.031 281.271C570.433 281.271 569.967 281.501 569.633 281.963C569.299 282.424 569.132 283.108 569.132 284.013Z" fill="#5551FF"/>
<path d="M577.154 287.5H575.935V280.368H577.154V287.5ZM575.836 278.476C575.836 278.278 575.895 278.111 576.014 277.975C576.137 277.839 576.317 277.771 576.554 277.771C576.792 277.771 576.972 277.839 577.095 277.975C577.218 278.111 577.28 278.278 577.28 278.476C577.28 278.674 577.218 278.838 577.095 278.97C576.972 279.102 576.792 279.168 576.554 279.168C576.317 279.168 576.137 279.102 576.014 278.97C575.895 278.838 575.836 278.674 575.836 278.476Z" fill="#5551FF"/>
<path d="M580.767 278.641V280.368H582.098V281.31H580.767V285.733C580.767 286.019 580.826 286.234 580.945 286.379C581.063 286.52 581.265 286.59 581.551 286.59C581.692 286.59 581.885 286.564 582.131 286.511V287.5C581.81 287.588 581.498 287.632 581.195 287.632C580.65 287.632 580.239 287.467 579.962 287.137C579.686 286.808 579.547 286.34 579.547 285.733V281.31H578.249V280.368H579.547V278.641H580.767Z" fill="#5551FF"/>
<path d="M585.862 285.714L587.523 280.368H588.828L585.961 288.601C585.517 289.787 584.812 290.381 583.845 290.381L583.614 290.361L583.159 290.275V289.286L583.489 289.313C583.902 289.313 584.223 289.229 584.451 289.062C584.684 288.895 584.875 288.59 585.025 288.146L585.295 287.421L582.751 280.368H584.082L585.862 285.714Z" fill="#5551FF"/>
<path d="M568.756 303.5H567.53V295.372L565.072 296.275V295.168L568.565 293.856H568.756V303.5Z" fill="#5551FF"/>
<path d="M572.889 298.688L573.377 293.902H578.295V295.03H574.412L574.122 297.646C574.592 297.37 575.126 297.231 575.724 297.231C576.598 297.231 577.293 297.521 577.807 298.101C578.321 298.677 578.578 299.457 578.578 300.441C578.578 301.43 578.31 302.21 577.774 302.781C577.242 303.348 576.497 303.632 575.539 303.632C574.691 303.632 573.999 303.397 573.463 302.927C572.927 302.456 572.621 301.806 572.547 300.975H573.7C573.775 301.525 573.97 301.94 574.287 302.221C574.603 302.498 575.021 302.636 575.539 302.636C576.106 302.636 576.55 302.443 576.871 302.056C577.196 301.67 577.359 301.136 577.359 300.455C577.359 299.813 577.183 299.299 576.831 298.912C576.484 298.521 576.021 298.325 575.44 298.325C574.909 298.325 574.491 298.442 574.188 298.675L573.865 298.938L572.889 298.688Z" fill="#5551FF"/>
<path d="M579.804 295.748C579.804 295.172 579.987 294.698 580.351 294.324C580.72 293.951 581.193 293.764 581.769 293.764C582.353 293.764 582.825 293.953 583.186 294.331C583.551 294.704 583.733 295.19 583.733 295.788V296.256C583.733 296.836 583.548 297.31 583.179 297.679C582.814 298.044 582.349 298.227 581.782 298.227C581.21 298.227 580.738 298.044 580.365 297.679C579.991 297.31 579.804 296.82 579.804 296.209V295.748ZM580.714 296.256C580.714 296.598 580.811 296.882 581.004 297.106C581.197 297.326 581.457 297.436 581.782 297.436C582.094 297.436 582.344 297.328 582.533 297.113C582.727 296.897 582.823 296.603 582.823 296.229V295.748C582.823 295.405 582.729 295.122 582.54 294.898C582.351 294.674 582.094 294.562 581.769 294.562C581.443 294.562 581.186 294.674 580.997 294.898C580.808 295.122 580.714 295.414 580.714 295.774V296.256ZM584.478 301.147C584.478 300.571 584.66 300.099 585.025 299.729C585.394 299.356 585.866 299.169 586.442 299.169C587.018 299.169 587.49 299.354 587.859 299.723C588.229 300.092 588.413 300.582 588.413 301.193V301.661C588.413 302.237 588.229 302.711 587.859 303.085C587.495 303.454 587.027 303.638 586.455 303.638C585.884 303.638 585.412 303.456 585.038 303.091C584.665 302.722 584.478 302.232 584.478 301.621V301.147ZM585.387 301.661C585.387 302.008 585.484 302.294 585.677 302.518C585.871 302.738 586.13 302.847 586.455 302.847C586.772 302.847 587.024 302.74 587.213 302.524C587.402 302.305 587.497 302.008 587.497 301.635V301.147C587.497 300.8 587.4 300.516 587.207 300.296C587.018 300.077 586.763 299.967 586.442 299.967C586.13 299.967 585.875 300.077 585.677 300.296C585.484 300.512 585.387 300.804 585.387 301.173V301.661ZM582.059 302.775L581.366 302.34L586.053 294.838L586.745 295.273L582.059 302.775Z" fill="#5551FF"/>
<path fill-rule="evenodd" clip-rule="evenodd" d="M425.5 257.5H504C509.523 257.5 514 261.977 514 267.5H513C513 262.529 508.971 258.5 504 258.5H425.5V257.5Z" fill="#5551FF"/>
<path d="M428 258C428 259.657 426.657 261 425 261C423.343 261 422 259.657 422 258C422 256.343 423.343 255 425 255C426.657 255 428 256.343 428 258Z" fill="#5551FF"/>
<defs>
<filter id="filter0_d" x="13" y="294" width="195" height="65" filterUnits="userSpaceOnUse" color-interpolation-filters="sRGB">
<feFlood flood-opacity="0" result="BackgroundImageFix"/>
<feColorMatrix in="SourceAlpha" type="matrix" values="0 0 0 0 0 0 0 0 0 0 0 0 0 0 0 0 0 0 127 0"/>
<feOffset dy="5"/>
<feGaussianBlur stdDeviation="5"/>
<feColorMatrix type="matrix" values="0 0 0 0 0.333333 0 0 0 0 0.317647 0 0 0 0 1 0 0 0 0.1 0"/>
<feBlend mode="normal" in2="BackgroundImageFix" result="effect1_dropShadow"/>
<feBlend mode="normal" in="SourceGraphic" in2="effect1_dropShadow" result="shape"/>
</filter>
<filter id="filter1_d" x="13" y="294" width="195" height="65" filterUnits="userSpaceOnUse" color-interpolation-filters="sRGB">
<feFlood flood-opacity="0" result="BackgroundImageFix"/>
<feColorMatrix in="SourceAlpha" type="matrix" values="0 0 0 0 0 0 0 0 0 0 0 0 0 0 0 0 0 0 127 0"/>
<feOffset dy="5"/>
<feGaussianBlur stdDeviation="5"/>
<feColorMatrix type="matrix" values="0 0 0 0 0.333333 0 0 0 0 0.317647 0 0 0 0 1 0 0 0 0.1 0"/>
<feBlend mode="normal" in2="BackgroundImageFix" result="effect1_dropShadow"/>
<feBlend mode="normal" in="SourceGraphic" in2="effect1_dropShadow" result="shape"/>
</filter>
<filter id="filter2_d" x="0" y="150" width="195" height="65" filterUnits="userSpaceOnUse" color-interpolation-filters="sRGB">
<feFlood flood-opacity="0" result="BackgroundImageFix"/>
<feColorMatrix in="SourceAlpha" type="matrix" values="0 0 0 0 0 0 0 0 0 0 0 0 0 0 0 0 0 0 127 0"/>
<feOffset dy="5"/>
<feGaussianBlur stdDeviation="5"/>
<feColorMatrix type="matrix" values="0 0 0 0 0.333333 0 0 0 0 0.317647 0 0 0 0 1 0 0 0 0.1 0"/>
<feBlend mode="normal" in2="BackgroundImageFix" result="effect1_dropShadow"/>
<feBlend mode="normal" in="SourceGraphic" in2="effect1_dropShadow" result="shape"/>
</filter>
<filter id="filter3_d" x="0" y="150" width="195" height="65" filterUnits="userSpaceOnUse" color-interpolation-filters="sRGB">
<feFlood flood-opacity="0" result="BackgroundImageFix"/>
<feColorMatrix in="SourceAlpha" type="matrix" values="0 0 0 0 0 0 0 0 0 0 0 0 0 0 0 0 0 0 127 0"/>
<feOffset dy="5"/>
<feGaussianBlur stdDeviation="5"/>
<feColorMatrix type="matrix" values="0 0 0 0 0.333333 0 0 0 0 0.317647 0 0 0 0 1 0 0 0 0.1 0"/>
<feBlend mode="normal" in2="BackgroundImageFix" result="effect1_dropShadow"/>
<feBlend mode="normal" in="SourceGraphic" in2="effect1_dropShadow" result="shape"/>
</filter>
<filter id="filter4_d" x="55" y="0" width="195" height="65" filterUnits="userSpaceOnUse" color-interpolation-filters="sRGB">
<feFlood flood-opacity="0" result="BackgroundImageFix"/>
<feColorMatrix in="SourceAlpha" type="matrix" values="0 0 0 0 0 0 0 0 0 0 0 0 0 0 0 0 0 0 127 0"/>
<feOffset dy="5"/>
<feGaussianBlur stdDeviation="5"/>
<feColorMatrix type="matrix" values="0 0 0 0 0.333333 0 0 0 0 0.317647 0 0 0 0 1 0 0 0 0.1 0"/>
<feBlend mode="normal" in2="BackgroundImageFix" result="effect1_dropShadow"/>
<feBlend mode="normal" in="SourceGraphic" in2="effect1_dropShadow" result="shape"/>
</filter>
<filter id="filter5_d" x="55" y="0" width="195" height="65" filterUnits="userSpaceOnUse" color-interpolation-filters="sRGB">
<feFlood flood-opacity="0" result="BackgroundImageFix"/>
<feColorMatrix in="SourceAlpha" type="matrix" values="0 0 0 0 0 0 0 0 0 0 0 0 0 0 0 0 0 0 127 0"/>
<feOffset dy="5"/>
<feGaussianBlur stdDeviation="5"/>
<feColorMatrix type="matrix" values="0 0 0 0 0.333333 0 0 0 0 0.317647 0 0 0 0 1 0 0 0 0.1 0"/>
<feBlend mode="normal" in2="BackgroundImageFix" result="effect1_dropShadow"/>
<feBlend mode="normal" in="SourceGraphic" in2="effect1_dropShadow" result="shape"/>
</filter>
<filter id="filter6_d" x="37" y="75" width="195" height="65" filterUnits="userSpaceOnUse" color-interpolation-filters="sRGB">
<feFlood flood-opacity="0" result="BackgroundImageFix"/>
<feColorMatrix in="SourceAlpha" type="matrix" values="0 0 0 0 0 0 0 0 0 0 0 0 0 0 0 0 0 0 127 0"/>
<feOffset dy="5"/>
<feGaussianBlur stdDeviation="5"/>
<feColorMatrix type="matrix" values="0 0 0 0 0.333333 0 0 0 0 0.317647 0 0 0 0 1 0 0 0 0.1 0"/>
<feBlend mode="normal" in2="BackgroundImageFix" result="effect1_dropShadow"/>
<feBlend mode="normal" in="SourceGraphic" in2="effect1_dropShadow" result="shape"/>
</filter>
<filter id="filter7_d" x="37" y="75" width="195" height="65" filterUnits="userSpaceOnUse" color-interpolation-filters="sRGB">
<feFlood flood-opacity="0" result="BackgroundImageFix"/>
<feColorMatrix in="SourceAlpha" type="matrix" values="0 0 0 0 0 0 0 0 0 0 0 0 0 0 0 0 0 0 127 0"/>
<feOffset dy="5"/>
<feGaussianBlur stdDeviation="5"/>
<feColorMatrix type="matrix" values="0 0 0 0 0.333333 0 0 0 0 0.317647 0 0 0 0 1 0 0 0 0.1 0"/>
<feBlend mode="normal" in2="BackgroundImageFix" result="effect1_dropShadow"/>
<feBlend mode="normal" in="SourceGraphic" in2="effect1_dropShadow" result="shape"/>
</filter>
<filter id="filter8_d" x="426" y="7" width="195" height="65" filterUnits="userSpaceOnUse" color-interpolation-filters="sRGB">
<feFlood flood-opacity="0" result="BackgroundImageFix"/>
<feColorMatrix in="SourceAlpha" type="matrix" values="0 0 0 0 0 0 0 0 0 0 0 0 0 0 0 0 0 0 127 0"/>
<feOffset dy="5"/>
<feGaussianBlur stdDeviation="5"/>
<feColorMatrix type="matrix" values="0 0 0 0 0.333333 0 0 0 0 0.317647 0 0 0 0 1 0 0 0 0.1 0"/>
<feBlend mode="normal" in2="BackgroundImageFix" result="effect1_dropShadow"/>
<feBlend mode="normal" in="SourceGraphic" in2="effect1_dropShadow" result="shape"/>
</filter>
<filter id="filter9_d" x="426" y="7" width="195" height="65" filterUnits="userSpaceOnUse" color-interpolation-filters="sRGB">
<feFlood flood-opacity="0" result="BackgroundImageFix"/>
<feColorMatrix in="SourceAlpha" type="matrix" values="0 0 0 0 0 0 0 0 0 0 0 0 0 0 0 0 0 0 127 0"/>
<feOffset dy="5"/>
<feGaussianBlur stdDeviation="5"/>
<feColorMatrix type="matrix" values="0 0 0 0 0.333333 0 0 0 0 0.317647 0 0 0 0 1 0 0 0 0.1 0"/>
<feBlend mode="normal" in2="BackgroundImageFix" result="effect1_dropShadow"/>
<feBlend mode="normal" in="SourceGraphic" in2="effect1_dropShadow" result="shape"/>
</filter>
<filter id="filter10_d" x="458" y="105" width="195" height="65" filterUnits="userSpaceOnUse" color-interpolation-filters="sRGB">
<feFlood flood-opacity="0" result="BackgroundImageFix"/>
<feColorMatrix in="SourceAlpha" type="matrix" values="0 0 0 0 0 0 0 0 0 0 0 0 0 0 0 0 0 0 127 0"/>
<feOffset dy="5"/>
<feGaussianBlur stdDeviation="5"/>
<feColorMatrix type="matrix" values="0 0 0 0 0.333333 0 0 0 0 0.317647 0 0 0 0 1 0 0 0 0.1 0"/>
<feBlend mode="normal" in2="BackgroundImageFix" result="effect1_dropShadow"/>
<feBlend mode="normal" in="SourceGraphic" in2="effect1_dropShadow" result="shape"/>
</filter>
<filter id="filter11_d" x="458" y="105" width="195" height="65" filterUnits="userSpaceOnUse" color-interpolation-filters="sRGB">
<feFlood flood-opacity="0" result="BackgroundImageFix"/>
<feColorMatrix in="SourceAlpha" type="matrix" values="0 0 0 0 0 0 0 0 0 0 0 0 0 0 0 0 0 0 127 0"/>
<feOffset dy="5"/>
<feGaussianBlur stdDeviation="5"/>
<feColorMatrix type="matrix" values="0 0 0 0 0.333333 0 0 0 0 0.317647 0 0 0 0 1 0 0 0 0.1 0"/>
<feBlend mode="normal" in2="BackgroundImageFix" result="effect1_dropShadow"/>
<feBlend mode="normal" in="SourceGraphic" in2="effect1_dropShadow" result="shape"/>
</filter>
<filter id="filter12_d" x="416" y="262.5" width="195" height="65" filterUnits="userSpaceOnUse" color-interpolation-filters="sRGB">
<feFlood flood-opacity="0" result="BackgroundImageFix"/>
<feColorMatrix in="SourceAlpha" type="matrix" values="0 0 0 0 0 0 0 0 0 0 0 0 0 0 0 0 0 0 127 0"/>
<feOffset dy="5"/>
<feGaussianBlur stdDeviation="5"/>
<feColorMatrix type="matrix" values="0 0 0 0 0.333333 0 0 0 0 0.317647 0 0 0 0 1 0 0 0 0.1 0"/>
<feBlend mode="normal" in2="BackgroundImageFix" result="effect1_dropShadow"/>
<feBlend mode="normal" in="SourceGraphic" in2="effect1_dropShadow" result="shape"/>
</filter>
<filter id="filter13_d" x="416" y="262.5" width="195" height="65" filterUnits="userSpaceOnUse" color-interpolation-filters="sRGB">
<feFlood flood-opacity="0" result="BackgroundImageFix"/>
<feColorMatrix in="SourceAlpha" type="matrix" values="0 0 0 0 0 0 0 0 0 0 0 0 0 0 0 0 0 0 127 0"/>
<feOffset dy="5"/>
<feGaussianBlur stdDeviation="5"/>
<feColorMatrix type="matrix" values="0 0 0 0 0.333333 0 0 0 0 0.317647 0 0 0 0 1 0 0 0 0.1 0"/>
<feBlend mode="normal" in2="BackgroundImageFix" result="effect1_dropShadow"/>
<feBlend mode="normal" in="SourceGraphic" in2="effect1_dropShadow" result="shape"/>
</filter>
</defs>
</svg>
