<svg width="282" height="220" viewBox="0 0 282 220" fill="none" xmlns="http://www.w3.org/2000/svg">
<g filter="url(#filter0_d)">
<ellipse cx="141" cy="146.22" rx="137" ry="64.8467" fill="#F5F5F5"/>
<ellipse cx="141" cy="146.22" rx="137" ry="64.8467" fill="url(#paint0_linear)"/>
</g>
<g filter="url(#filter1_d)">
<ellipse cx="141" cy="118.429" rx="137" ry="64.8467" fill="#F5F5F5"/>
<ellipse cx="141" cy="118.429" rx="137" ry="64.8467" fill="url(#paint1_linear)"/>
</g>
<g filter="url(#filter2_d)">
<ellipse cx="141" cy="91.6377" rx="137" ry="64.8467" fill="#F5F5F5"/>
<ellipse cx="141" cy="91.6377" rx="137" ry="64.8467" fill="url(#paint2_linear)"/>
</g>
<g filter="url(#filter3_di)">
<ellipse cx="141" cy="64.8467" rx="137" ry="64.8467" fill="#F5F5F5"/>
<ellipse cx="141" cy="64.8467" rx="137" ry="64.8467" fill="url(#paint3_linear)"/>
</g>
<path d="M81.5627 43.0204C82.3753 43.3879 83.6215 43.2643 84.3461 42.7443C85.0708 42.2243 84.9994 41.5048 84.1868 41.1373C83.3741 40.7697 82.1279 40.8933 81.4033 41.4134C80.6787 41.9334 80.7501 42.6528 81.5627 43.0204Z" fill="#5F5CFE" fill-opacity="0.5"/>
<path d="M103.608 51.1328C104.42 51.5003 105.666 51.3767 106.391 50.8567C107.116 50.3367 107.044 49.6172 106.232 49.2497C105.419 48.8822 104.173 49.0058 103.448 49.5258C102.724 50.0458 102.795 50.7653 103.608 51.1328Z" fill="#5F5CFE" fill-opacity="0.5"/>
<path d="M102.005 59.1981C102.817 59.5656 104.063 59.442 104.788 58.922C105.513 58.402 105.441 57.6825 104.629 57.315C103.816 56.9475 102.57 57.0711 101.845 57.5911C101.121 58.1111 101.192 58.8306 102.005 59.1981Z" fill="#5F5CFE" fill-opacity="0.5"/>
<path d="M124.951 63.1373C125.764 63.5049 127.01 63.3813 127.734 62.8612C128.459 62.3412 128.388 61.6218 127.575 61.2542C126.762 60.8867 125.516 61.0103 124.791 61.5303C124.067 62.0503 124.138 62.7698 124.951 63.1373Z" fill="#5F5CFE"/>
<path d="M122.766 14.8401C123.578 15.2076 124.825 15.084 125.549 14.564C126.274 14.044 126.203 13.3245 125.39 12.957C124.577 12.5894 123.331 12.7131 122.606 13.2331C121.882 13.7531 121.953 14.4725 122.766 14.8401Z" fill="#5F5CFE" fill-opacity="0.5"/>
<path d="M107.718 27.4431C108.976 28.0122 110.906 27.8208 112.028 27.0157C113.15 26.2105 113.039 25.0964 111.781 24.5274C110.522 23.9583 108.593 24.1497 107.471 24.9548C106.349 25.76 106.459 26.874 107.718 27.4431Z" fill="#5F5CFE" fill-opacity="0.5"/>
<path d="M125.695 57.8542C126.744 58.3284 128.352 58.1689 129.287 57.4979C130.222 56.827 130.13 55.8986 129.081 55.4244C128.033 54.9501 126.425 55.1096 125.49 55.7806C124.555 56.4516 124.647 57.3799 125.695 57.8542Z" fill="#5F5CFE"/>
<path d="M66.7827 55.3482C67.8313 55.8224 69.4393 55.6629 70.3743 54.992C71.3093 54.321 71.2172 53.3926 70.1686 52.9184C69.1201 52.4441 67.5121 52.6036 66.5771 53.2746C65.6421 53.9456 65.7342 54.8739 66.7827 55.3482Z" fill="#5F5CFE" fill-opacity="0.5"/>
<path d="M90.3953 55.506C91.5487 56.0277 93.3175 55.8522 94.346 55.1142C95.3744 54.3761 95.2732 53.3549 94.1197 52.8332C92.9663 52.3116 91.1975 52.487 90.169 53.2251C89.1405 53.9631 89.2418 54.9843 90.3953 55.506Z" fill="#5F5CFE"/>
<path d="M98.2497 75.7195C99.4032 76.2412 101.172 76.0657 102.2 75.3277C103.229 74.5896 103.128 73.5684 101.974 73.0467C100.821 72.5251 99.052 72.7005 98.0235 73.4386C96.995 74.1766 97.0963 75.1979 98.2497 75.7195Z" fill="#5F5CFE" fill-opacity="0.5"/>
<path d="M100.207 67.3712C101.125 67.7862 102.532 67.6466 103.35 67.0595C104.168 66.4724 104.088 65.6601 103.17 65.2451C102.253 64.8302 100.846 64.9697 100.027 65.5568C99.2094 66.1439 99.2899 66.9562 100.207 67.3712Z" fill="#5F5CFE" fill-opacity="0.5"/>
<path d="M64.6329 63.8332C66.0092 64.4557 68.1197 64.2463 69.3468 63.3657C70.574 62.485 70.4531 61.2665 69.0769 60.6441C67.7006 60.0217 65.5901 60.231 64.363 61.1117C63.1358 61.9923 63.2567 63.2108 64.6329 63.8332Z" fill="#5F5CFE"/>
<path d="M129.575 28.8617C131.685 29.8161 134.922 29.4952 136.803 28.1448C138.685 26.7945 138.5 24.9261 136.389 23.9717C134.279 23.0173 131.043 23.3383 129.161 24.6886C127.28 26.039 127.465 27.9073 129.575 28.8617Z" fill="#5F5CFE"/>
<path d="M131.617 20.4267C133.924 21.47 137.462 21.1191 139.519 19.643C141.576 18.1668 141.373 16.1244 139.066 15.0811C136.759 14.0378 133.222 14.3887 131.165 15.8648C129.108 17.3409 129.31 19.3834 131.617 20.4267Z" fill="#5F5CFE"/>
<path d="M116.782 32.8789C118.761 33.774 121.796 33.473 123.561 32.2065C125.326 30.9401 125.152 29.1877 123.173 28.2926C121.194 27.3975 118.159 27.6985 116.394 28.965C114.629 30.2315 114.803 31.9838 116.782 32.8789Z" fill="#5F5CFE"/>
<path d="M128.523 36.5298C130.607 37.4723 133.803 37.1553 135.661 35.8218C137.52 34.4882 137.337 32.6431 135.252 31.7005C133.168 30.758 129.973 31.075 128.114 32.4085C126.256 33.7421 126.439 35.5872 128.523 36.5298Z" fill="#5F5CFE"/>
<path d="M104.996 36.338C106.989 37.239 110.044 36.936 111.82 35.6611C113.597 34.3863 113.422 32.6224 111.43 31.7213C109.437 30.8203 106.382 31.1233 104.606 32.3982C102.829 33.673 103.004 35.4369 104.996 36.338Z" fill="#5F5CFE"/>
<path d="M116.135 40.3113C118.036 41.1709 120.95 40.8818 122.645 39.6657C124.34 38.4495 124.173 36.7669 122.272 35.9073C120.372 35.0478 117.457 35.3368 115.763 36.553C114.068 37.7691 114.235 39.4518 116.135 40.3113Z" fill="#5F5CFE"/>
<path d="M127.642 44.1031C129.294 44.85 131.826 44.5988 133.299 43.542C134.772 42.4852 134.627 41.023 132.975 40.2761C131.324 39.5292 128.791 39.7804 127.318 40.8372C125.846 41.894 125.991 43.3562 127.642 44.1031Z" fill="#5F5CFE"/>
<path d="M114.937 48.113C116.589 48.8599 119.121 48.6087 120.594 47.5519C122.067 46.4951 121.922 45.0329 120.27 44.286C118.619 43.5391 116.086 43.7903 114.613 44.8471C113.141 45.9038 113.286 47.366 114.937 48.113Z" fill="#5F5CFE"/>
<path d="M103.834 44.0312C105.485 44.7781 108.018 44.5269 109.491 43.4701C110.963 42.4133 110.818 40.9511 109.167 40.2042C107.515 39.4573 104.982 39.7085 103.51 40.7653C102.037 41.8221 102.182 43.2843 103.834 44.0312Z" fill="#5F5CFE"/>
<path d="M90.8351 48.2779C92.7225 49.1315 95.6169 48.8445 97.2999 47.6367C98.9829 46.429 98.8171 44.7579 96.9297 43.9043C95.0423 43.0506 92.1479 43.3377 90.4649 44.5455C88.7819 45.7532 88.9477 47.4243 90.8351 48.2779Z" fill="#5F5CFE"/>
<path d="M78.5134 52.039C80.1911 52.7978 82.7639 52.5426 84.2599 51.4691C85.7559 50.3955 85.6086 48.9101 83.9308 48.1514C82.2531 47.3926 79.6803 47.6478 78.1844 48.7213C76.6884 49.7949 76.8357 51.2803 78.5134 52.039Z" fill="#5F5CFE"/>
<path d="M111.39 64.4556C113.265 65.3033 116.139 65.0182 117.81 63.8188C119.482 62.6194 119.317 60.96 117.443 60.1123C115.568 59.2646 112.694 59.5497 111.023 60.749C109.351 61.9484 109.516 63.6079 111.39 64.4556Z" fill="#5F5CFE"/>
<path d="M112.882 56.4177C114.77 57.2713 117.664 56.9842 119.347 55.7765C121.03 54.5687 120.864 52.8977 118.977 52.044C117.09 51.1904 114.195 51.4775 112.512 52.6852C110.829 53.893 110.995 55.5641 112.882 56.4177Z" fill="#5F5CFE"/>
<path d="M76.484 60.3814C78.3715 61.2351 81.2659 60.948 82.9488 59.7402C84.6318 58.5325 84.4661 56.8614 82.5786 56.0078C80.6912 55.1542 77.7968 55.4412 76.1138 56.649C74.4309 57.8567 74.5966 59.5278 76.484 60.3814Z" fill="#5F5CFE"/>
<path d="M93.1284 39.6353C94.5309 40.2696 96.6816 40.0563 97.9321 39.1588C99.1827 38.2614 99.0595 37.0197 97.6571 36.3854C96.2546 35.7511 94.1039 35.9644 92.8534 36.8619C91.6028 37.7593 91.726 39.001 93.1284 39.6353Z" fill="#5F5CFE"/>
<path d="M126.44 51.8808C127.843 52.5151 129.994 52.3017 131.244 51.4043C132.495 50.5069 132.372 49.2652 130.969 48.6309C129.567 47.9966 127.416 48.2099 126.165 49.1074C124.915 50.0048 125.038 51.2465 126.44 51.8808Z" fill="#5F5CFE"/>
<path d="M119.112 24.3752C121.196 25.3178 124.392 25.0008 126.251 23.6672C128.109 22.3337 127.926 20.4885 125.842 19.546C123.758 18.6034 120.562 18.9204 118.704 20.254C116.845 21.5875 117.028 23.4327 119.112 24.3752Z" fill="#5F5CFE"/>
<path d="M122.782 69.6085C124.197 70.2487 126.368 70.0334 127.63 69.1276C128.893 68.2218 128.768 66.9685 127.353 66.3283C125.937 65.6881 123.766 65.9034 122.504 66.8092C121.242 67.715 121.366 68.9683 122.782 69.6085Z" fill="#5F5CFE"/>
<path d="M178.415 86.823C179.227 87.1905 180.474 87.0669 181.198 86.5469C181.923 86.0269 181.851 85.3074 181.039 84.9399C180.226 84.5724 178.98 84.696 178.255 85.216C177.531 85.736 177.602 86.4555 178.415 86.823Z" fill="#5F5CFE" fill-opacity="0.5"/>
<path d="M159.523 76.4221C160.336 76.7896 161.582 76.666 162.307 76.146C163.031 75.626 162.96 74.9065 162.147 74.539C161.335 74.1715 160.088 74.2951 159.364 74.8151C158.639 75.3351 158.711 76.0546 159.523 76.4221Z" fill="#5F5CFE" fill-opacity="0.5"/>
<path d="M146.124 79.151C146.936 79.5185 148.183 79.3949 148.907 78.8749C149.632 78.3549 149.56 77.6354 148.748 77.2679C147.935 76.9004 146.689 77.024 145.964 77.544C145.24 78.064 145.311 78.7835 146.124 79.151Z" fill="#5F5CFE" fill-opacity="0.5"/>
<path d="M134.184 67.3119C134.996 67.6794 136.243 67.5558 136.967 67.0358C137.692 66.5158 137.62 65.7963 136.808 65.4288C135.995 65.0613 134.749 65.1849 134.024 65.7049C133.3 66.2249 133.371 66.9444 134.184 67.3119Z" fill="#5F5CFE"/>
<path d="M217.244 57.5706C218.056 57.9381 219.303 57.8145 220.027 57.2945C220.752 56.7745 220.681 56.055 219.868 55.6874C219.055 55.3199 217.809 55.4435 217.084 55.9635C216.36 56.4835 216.431 57.203 217.244 57.5706Z" fill="#5F5CFE" fill-opacity="0.5"/>
<path d="M199.112 68.777C200.37 69.3461 202.3 69.1547 203.422 68.3495C204.544 67.5444 204.433 66.4303 203.175 65.8612C201.917 65.2921 199.987 65.4835 198.865 66.2887C197.743 67.0939 197.853 68.2079 199.112 68.777Z" fill="#5F5CFE" fill-opacity="0.5"/>
<path d="M143.045 65.7023C144.094 66.1765 145.702 66.0171 146.637 65.3461C147.571 64.6751 147.479 63.7467 146.431 63.2725C145.382 62.7983 143.774 62.9577 142.839 63.6287C141.904 64.2997 141.996 65.2281 143.045 65.7023Z" fill="#5F5CFE"/>
<path d="M160.667 97.8097C161.716 98.284 163.324 98.1245 164.259 97.4535C165.194 96.7825 165.101 95.8542 164.053 95.3799C163.004 94.9057 161.396 95.0652 160.461 95.7361C159.526 96.4071 159.618 97.3355 160.667 97.8097Z" fill="#5F5CFE" fill-opacity="0.5"/>
<path d="M155.044 84.7445C156.197 85.2662 157.966 85.0908 158.994 84.3527C160.023 83.6146 159.922 82.5934 158.768 82.0717C157.615 81.5501 155.846 81.7255 154.817 82.4636C153.789 83.2017 153.89 84.2229 155.044 84.7445Z" fill="#5F5CFE"/>
<path d="M118.731 84.9818C119.885 85.5035 121.653 85.3281 122.682 84.59C123.71 83.8519 123.609 82.8307 122.456 82.309C121.302 81.7874 119.533 81.9628 118.505 82.7009C117.476 83.439 117.578 84.4602 118.731 84.9818Z" fill="#5F5CFE" fill-opacity="0.5"/>
<path d="M132.533 81.9914C133.45 82.4064 134.857 82.2668 135.675 81.6797C136.493 81.0926 136.413 80.2803 135.495 79.8654C134.578 79.4504 133.171 79.59 132.353 80.1771C131.535 80.7642 131.615 81.5765 132.533 81.9914Z" fill="#5F5CFE" fill-opacity="0.5"/>
<path d="M146.65 100.928C148.027 101.551 150.137 101.341 151.364 100.461C152.592 99.58 152.471 98.3615 151.094 97.7391C149.718 97.1166 147.608 97.326 146.381 98.2066C145.153 99.0873 145.274 100.306 146.65 100.928Z" fill="#5F5CFE"/>
<path d="M191.707 56.9618C193.817 57.9162 197.053 57.5953 198.935 56.2449C200.817 54.8946 200.631 53.0262 198.521 52.0718C196.411 51.1174 193.175 51.4384 191.293 52.7887C189.411 54.1391 189.597 56.0074 191.707 56.9618Z" fill="#5F5CFE"/>
<path d="M205.664 53.915C207.97 54.9583 211.508 54.6074 213.565 53.1313C215.622 51.6551 215.419 49.6127 213.112 48.5694C210.806 47.5261 207.268 47.8769 205.211 49.3531C203.154 50.8292 203.357 52.8717 205.664 53.915Z" fill="#5F5CFE"/>
<path d="M187.743 64.9719C189.722 65.867 192.757 65.566 194.522 64.2995C196.286 63.0331 196.113 61.2808 194.133 60.3856C192.154 59.4905 189.119 59.7916 187.354 61.058C185.59 62.3245 185.763 64.0768 187.743 64.9719Z" fill="#5F5CFE"/>
<path d="M178.859 59.296C180.944 60.2385 184.139 59.9216 185.998 58.588C187.856 57.2544 187.673 55.4093 185.589 54.4668C183.505 53.5242 180.309 53.8412 178.451 55.1748C176.592 56.5083 176.775 58.3535 178.859 59.296Z" fill="#5F5CFE"/>
<path d="M184.501 72.295C186.494 73.196 189.549 72.893 191.325 71.6182C193.102 70.3433 192.927 68.5794 190.935 67.6784C188.942 66.7773 185.887 67.0803 184.111 68.3552C182.334 69.63 182.509 71.394 184.501 72.295Z" fill="#5F5CFE"/>
<path d="M175.205 67.0262C177.105 67.8857 180.02 67.5967 181.714 66.3805C183.409 65.1644 183.242 63.4817 181.342 62.6221C179.441 61.7626 176.527 62.0517 174.832 63.2678C173.137 64.484 173.304 66.1666 175.205 67.0262Z" fill="#5F5CFE"/>
<path d="M166.113 61.5032C167.764 62.2501 170.297 61.9989 171.769 60.9422C173.242 59.8854 173.097 58.4232 171.445 57.6763C169.794 56.9293 167.261 57.1805 165.789 58.2373C164.316 59.2941 164.461 60.7563 166.113 61.5032Z" fill="#5F5CFE"/>
<path d="M162.117 69.4511C163.768 70.198 166.301 69.9468 167.773 68.89C169.246 67.8333 169.101 66.3711 167.449 65.6241C165.798 64.8772 163.265 65.1284 161.793 66.1852C160.32 67.242 160.465 68.7042 162.117 69.4511Z" fill="#5F5CFE"/>
<path d="M171.636 74.6954C173.288 75.4423 175.82 75.1911 177.293 74.1343C178.765 73.0775 178.62 71.6153 176.969 70.8684C175.317 70.1215 172.785 70.3727 171.312 71.4295C169.84 72.4862 169.985 73.9484 171.636 74.6954Z" fill="#5F5CFE"/>
<path d="M167.301 82.8612C169.189 83.7148 172.083 83.4277 173.766 82.22C175.449 81.0122 175.283 79.3411 173.396 78.4875C171.509 77.6339 168.614 77.921 166.931 79.1287C165.248 80.3365 165.414 82.0075 167.301 82.8612Z" fill="#5F5CFE"/>
<path d="M163.665 90.5502C165.343 91.3089 167.916 91.0538 169.412 89.9802C170.908 88.9066 170.76 87.4212 169.083 86.6625C167.405 85.9037 164.832 86.1589 163.336 87.2324C161.84 88.306 161.988 89.7914 163.665 90.5502Z" fill="#5F5CFE"/>
<path d="M134.98 75.126C136.854 75.9737 139.728 75.6886 141.4 74.4892C143.071 73.2899 142.906 71.6304 141.032 70.7827C139.158 69.935 136.283 70.2201 134.612 71.4194C132.941 72.6188 133.105 74.2783 134.98 75.126Z" fill="#5F5CFE"/>
<path d="M148.385 72.4742C150.273 73.3278 153.167 73.0408 154.85 71.833C156.533 70.6252 156.367 68.9542 154.48 68.1006C152.593 67.2469 149.698 67.534 148.015 68.7418C146.332 69.9495 146.498 71.6206 148.385 72.4742Z" fill="#5F5CFE"/>
<path d="M149.887 93.5794C151.775 94.4331 154.669 94.146 156.352 92.9382C158.035 91.7305 157.869 90.0594 155.982 89.2058C154.095 88.3522 151.2 88.6392 149.517 89.847C147.834 91.0547 148 92.7258 149.887 93.5794Z" fill="#5F5CFE"/>
<path d="M181.557 79.6287C182.959 80.263 185.11 80.0497 186.36 79.1522C187.611 78.2548 187.488 77.0131 186.085 76.3788C184.683 75.7445 182.532 75.9579 181.282 76.8553C180.031 77.7527 180.154 78.9944 181.557 79.6287Z" fill="#5F5CFE"/>
<path d="M153.092 63.9331C154.494 64.5674 156.645 64.3541 157.896 63.4567C159.146 62.5593 159.023 61.3176 157.62 60.6833C156.218 60.049 154.067 60.2623 152.817 61.1597C151.566 62.0572 151.689 63.2988 153.092 63.9331Z" fill="#5F5CFE"/>
<path d="M201.773 61.7604C203.857 62.7029 207.052 62.3859 208.911 61.0524C210.769 59.7188 210.586 57.8737 208.502 56.9311C206.418 55.9886 203.222 56.3056 201.364 57.6391C199.506 58.9727 199.689 60.8178 201.773 61.7604Z" fill="#5F5CFE"/>
<path d="M123.612 69.9846C125.028 70.6248 127.199 70.4095 128.461 69.5037C129.723 68.5979 129.599 67.3446 128.183 66.7044C126.768 66.0642 124.597 66.2795 123.335 67.1853C122.072 68.0911 122.197 69.3444 123.612 69.9846Z" fill="#5F5CFE"/>
<path d="M122.803 70.0663C124.455 70.8133 126.987 70.5621 128.46 69.5053C129.932 68.4485 129.787 66.9863 128.136 66.2394C126.484 65.4925 123.952 65.7437 122.479 66.8004C121.007 67.8572 121.152 69.3194 122.803 70.0663Z" fill="#5F5CFE"/>
<path d="M108.265 80.4994C109.917 81.2464 112.45 80.9952 113.922 79.9384C115.395 78.8816 115.25 77.4194 113.598 76.6725C111.947 75.9256 109.414 76.1768 107.942 77.2335C106.469 78.2903 106.614 79.7525 108.265 80.4994Z" fill="#5F5CFE"/>
<path d="M110.079 72.282C111.731 73.0289 114.264 72.7778 115.736 71.721C117.209 70.6642 117.064 69.202 115.412 68.4551C113.761 67.7082 111.228 67.9594 109.755 69.0161C108.283 70.0729 108.428 71.5351 110.079 72.282Z" fill="#5F5CFE"/>
<path d="M121.899 77.6274C123.551 78.3743 126.083 78.1231 127.556 77.0663C129.029 76.0095 128.884 74.5473 127.232 73.8004C125.581 73.0535 123.048 73.3047 121.575 74.3615C120.103 75.4183 120.248 76.8804 121.899 77.6274Z" fill="#5F5CFE"/>
<path d="M99.5571 79.3718C100.265 79.6919 101.35 79.5843 101.981 79.1314C102.613 78.6785 102.55 78.0518 101.843 77.7317C101.135 77.4116 100.049 77.5193 99.4183 77.9722C98.7872 78.4251 98.8493 79.0517 99.5571 79.3718Z" fill="#5F5CFE" fill-opacity="0.5"/>
<path d="M108.268 83.3109C108.975 83.631 110.061 83.5234 110.692 83.0705C111.323 82.6176 111.261 81.9909 110.553 81.6708C109.845 81.3507 108.76 81.4583 108.129 81.9112C107.498 82.3642 107.56 82.9908 108.268 83.3109Z" fill="#5F5CFE" fill-opacity="0.5"/>
<defs>
<filter id="filter0_d" x="0" y="81.3732" width="282" height="137.693" filterUnits="userSpaceOnUse" color-interpolation-filters="sRGB">
<feFlood flood-opacity="0" result="BackgroundImageFix"/>
<feColorMatrix in="SourceAlpha" type="matrix" values="0 0 0 0 0 0 0 0 0 0 0 0 0 0 0 0 0 0 127 0"/>
<feOffset dy="4"/>
<feGaussianBlur stdDeviation="2"/>
<feColorMatrix type="matrix" values="0 0 0 0 0 0 0 0 0 0 0 0 0 0 0 0 0 0 0.25 0"/>
<feBlend mode="normal" in2="BackgroundImageFix" result="effect1_dropShadow"/>
<feBlend mode="normal" in="SourceGraphic" in2="effect1_dropShadow" result="shape"/>
</filter>
<filter id="filter1_d" x="0" y="53.5825" width="282" height="137.693" filterUnits="userSpaceOnUse" color-interpolation-filters="sRGB">
<feFlood flood-opacity="0" result="BackgroundImageFix"/>
<feColorMatrix in="SourceAlpha" type="matrix" values="0 0 0 0 0 0 0 0 0 0 0 0 0 0 0 0 0 0 127 0"/>
<feOffset dy="4"/>
<feGaussianBlur stdDeviation="2"/>
<feColorMatrix type="matrix" values="0 0 0 0 0 0 0 0 0 0 0 0 0 0 0 0 0 0 0.25 0"/>
<feBlend mode="normal" in2="BackgroundImageFix" result="effect1_dropShadow"/>
<feBlend mode="normal" in="SourceGraphic" in2="effect1_dropShadow" result="shape"/>
</filter>
<filter id="filter2_d" x="0" y="26.791" width="282" height="137.693" filterUnits="userSpaceOnUse" color-interpolation-filters="sRGB">
<feFlood flood-opacity="0" result="BackgroundImageFix"/>
<feColorMatrix in="SourceAlpha" type="matrix" values="0 0 0 0 0 0 0 0 0 0 0 0 0 0 0 0 0 0 127 0"/>
<feOffset dy="4"/>
<feGaussianBlur stdDeviation="2"/>
<feColorMatrix type="matrix" values="0 0 0 0 0 0 0 0 0 0 0 0 0 0 0 0 0 0 0.25 0"/>
<feBlend mode="normal" in2="BackgroundImageFix" result="effect1_dropShadow"/>
<feBlend mode="normal" in="SourceGraphic" in2="effect1_dropShadow" result="shape"/>
</filter>
<filter id="filter3_di" x="0" y="0" width="282" height="137.693" filterUnits="userSpaceOnUse" color-interpolation-filters="sRGB">
<feFlood flood-opacity="0" result="BackgroundImageFix"/>
<feColorMatrix in="SourceAlpha" type="matrix" values="0 0 0 0 0 0 0 0 0 0 0 0 0 0 0 0 0 0 127 0"/>
<feOffset dy="4"/>
<feGaussianBlur stdDeviation="2"/>
<feColorMatrix type="matrix" values="0 0 0 0 0 0 0 0 0 0 0 0 0 0 0 0 0 0 0.25 0"/>
<feBlend mode="normal" in2="BackgroundImageFix" result="effect1_dropShadow"/>
<feBlend mode="normal" in="SourceGraphic" in2="effect1_dropShadow" result="shape"/>
<feColorMatrix in="SourceAlpha" type="matrix" values="0 0 0 0 0 0 0 0 0 0 0 0 0 0 0 0 0 0 127 0" result="hardAlpha"/>
<feOffset/>
<feGaussianBlur stdDeviation="1"/>
<feComposite in2="hardAlpha" operator="arithmetic" k2="-1" k3="1"/>
<feColorMatrix type="matrix" values="0 0 0 0 1 0 0 0 0 1 0 0 0 0 1 0 0 0 1 0"/>
<feBlend mode="normal" in2="shape" result="effect2_innerShadow"/>
</filter>
<linearGradient id="paint0_linear" x1="141" y1="81.3732" x2="141" y2="211.067" gradientUnits="userSpaceOnUse">
<stop stop-color="white"/>
<stop offset="1" stop-color="white" stop-opacity="0"/>
</linearGradient>
<linearGradient id="paint1_linear" x1="141" y1="53.5825" x2="141" y2="183.276" gradientUnits="userSpaceOnUse">
<stop stop-color="white"/>
<stop offset="1" stop-color="white" stop-opacity="0"/>
</linearGradient>
<linearGradient id="paint2_linear" x1="141" y1="26.791" x2="141" y2="156.484" gradientUnits="userSpaceOnUse">
<stop stop-color="white"/>
<stop offset="1" stop-color="white" stop-opacity="0"/>
</linearGradient>
<linearGradient id="paint3_linear" x1="141" y1="0" x2="141" y2="129.693" gradientUnits="userSpaceOnUse">
<stop stop-color="white"/>
<stop offset="1" stop-color="white" stop-opacity="0"/>
</linearGradient>
</defs>
</svg>
