<svg width="612" height="479" viewBox="0 0 612 479" fill="none" xmlns="http://www.w3.org/2000/svg">
<g filter="url(#filter0_d)">
<path d="M301.6 5.46034C303.599 2.74922 307.652 2.74921 309.65 5.46033L564.432 351.117C566.865 354.418 564.508 359.083 560.407 359.083H50.843C46.7419 359.083 44.3849 354.418 46.8182 351.117L301.6 5.46034Z" fill="white"/>
<path d="M301.6 5.46034C303.599 2.74922 307.652 2.74921 309.65 5.46033L564.432 351.117C566.865 354.418 564.508 359.083 560.407 359.083H50.843C46.7419 359.083 44.3849 354.418 46.8182 351.117L301.6 5.46034Z" fill="#5551FF" fill-opacity="0.05"/>
</g>
<g filter="url(#filter1_dii)">
<circle cx="304" cy="211" r="45" fill="url(#paint0_radial)"/>
<circle cx="304" cy="211" r="44.5" stroke="url(#paint1_linear)"/>
</g>
<path d="M289.302 205.612C288.168 205.62 287.297 204.793 287.299 203.712C287.301 202.616 288.16 201.822 289.356 201.81C290.513 201.798 291.362 202.58 291.378 203.673C291.394 204.787 290.521 205.604 289.302 205.612Z" fill="white"/>
<path d="M291.164 201.547C290.11 201.555 289.205 200.668 289.209 199.635C289.215 198.517 290.135 197.682 291.356 197.689C292.384 197.695 293.266 198.556 293.29 199.578C293.316 200.678 292.388 201.537 291.164 201.547Z" fill="white"/>
<path d="M318.165 199.152C317.004 199.16 316.184 198.384 316.182 197.272C316.18 196.136 317.025 195.352 318.255 195.346C319.353 195.342 320.206 196.148 320.228 197.215C320.248 198.321 319.373 199.142 318.165 199.152Z" fill="white"/>
<path d="M314.27 201.345C314.274 200.249 315.179 199.429 316.38 199.429C317.445 199.429 318.33 200.308 318.32 201.351C318.308 202.444 317.394 203.269 316.2 203.267C315.123 203.263 314.266 202.41 314.27 201.345Z" fill="white"/>
<path d="M288.616 197.737C287.54 197.741 286.712 196.967 286.699 195.948C286.685 194.891 287.609 194.062 288.785 194.074C289.8 194.086 290.596 194.899 290.594 195.92C290.59 197.015 289.808 197.733 288.616 197.737Z" fill="white"/>
<path d="M320.736 202.776C319.681 202.782 318.824 201.961 318.838 200.957C318.852 199.926 319.719 199.133 320.853 199.119C321.86 199.107 322.703 199.926 322.711 200.924C322.719 201.979 321.878 202.768 320.736 202.776Z" fill="white"/>
<path d="M318.805 206.827C317.73 206.825 316.982 206.083 316.988 205.026C316.994 203.981 317.813 203.235 318.953 203.235C319.982 203.235 320.802 204.045 320.79 205.052C320.776 206.081 319.941 206.829 318.805 206.827Z" fill="white"/>
<path d="M302.225 223.905C301.21 223.911 300.43 223.167 300.426 222.195C300.422 221.188 301.257 220.416 302.346 220.422C303.334 220.426 304.121 221.204 304.117 222.172C304.111 223.183 303.33 223.899 302.225 223.905Z" fill="white"/>
<path d="M312.647 205.412C312.657 204.443 313.423 203.756 314.488 203.762C315.4 203.768 316.151 204.534 316.139 205.446C316.127 206.4 315.331 207.109 314.284 207.095C313.36 207.085 312.636 206.343 312.647 205.412Z" fill="white"/>
<path d="M293.716 204.965C292.82 204.947 292.058 204.172 292.083 203.303C292.109 202.337 292.911 201.63 293.954 201.654C294.848 201.674 295.6 202.44 295.59 203.317C295.579 204.265 294.759 204.985 293.716 204.965Z" fill="white"/>
<path d="M306.683 223.401C305.747 223.395 305.033 222.698 305.033 221.792C305.033 220.85 305.801 220.135 306.822 220.127C307.746 220.12 308.498 220.868 308.488 221.786C308.477 222.754 307.748 223.407 306.683 223.401Z" fill="white"/>
<path d="M304.852 227.448C303.856 227.46 303.154 226.807 303.152 225.865C303.15 224.965 303.886 224.272 304.864 224.252C305.818 224.232 306.532 224.893 306.548 225.806C306.562 226.789 305.895 227.435 304.852 227.448Z" fill="white"/>
<path d="M287.407 209.355C286.457 209.359 285.774 208.719 285.766 207.817C285.76 206.883 286.514 206.184 287.522 206.192C288.395 206.198 289.145 206.954 289.131 207.813C289.117 208.686 288.373 209.351 287.407 209.355Z" fill="white"/>
<path d="M286.716 201.574C285.788 201.578 285.078 200.909 285.074 200.027C285.068 199.13 285.806 198.449 286.798 198.43C287.69 198.414 288.44 199.13 288.438 199.995C288.436 200.921 287.73 201.569 286.716 201.574Z" fill="white"/>
<path d="M312.525 207.987C313.386 207.983 314.1 208.658 314.106 209.487C314.114 210.358 313.356 211.055 312.412 211.051C311.571 211.047 310.849 210.338 310.854 209.519C310.858 208.674 311.601 207.993 312.525 207.987Z" fill="white"/>
<path d="M288.028 217.078C287.199 217.074 286.512 216.391 286.51 215.566C286.506 214.728 287.28 214.038 288.206 214.054C289.038 214.069 289.722 214.754 289.722 215.572C289.72 216.434 288.992 217.08 288.028 217.078Z" fill="white"/>
<path d="M320.18 222.087C319.296 222.083 318.613 221.414 318.631 220.571C318.651 219.72 319.359 219.092 320.293 219.096C321.192 219.1 321.825 219.734 321.813 220.62C321.801 221.511 321.154 222.091 320.18 222.087Z" fill="white"/>
<path d="M299.642 219.965C298.747 219.963 298.088 219.322 298.096 218.461C298.104 217.6 298.789 216.977 299.733 216.973C300.608 216.969 301.293 217.64 301.283 218.485C301.273 219.348 300.584 219.967 299.642 219.965Z" fill="white"/>
<path d="M293.508 207.378C293.514 208.268 292.822 208.902 291.852 208.896C291.03 208.892 290.32 208.187 290.334 207.387C290.346 206.554 291.086 205.885 291.986 205.887C292.828 205.889 293.504 206.548 293.508 207.378Z" fill="white"/>
<path d="M308.616 219.162C307.737 219.162 307.098 218.55 307.092 217.701C307.084 216.828 307.805 216.167 308.753 216.181C309.576 216.193 310.281 216.898 310.267 217.697C310.249 218.554 309.564 219.162 308.616 219.162Z" fill="white"/>
<path d="M309.009 213.525C309.037 212.67 309.732 212.092 310.703 212.118C311.547 212.142 312.214 212.84 312.172 213.654C312.128 214.517 311.372 215.146 310.432 215.101C309.597 215.063 308.98 214.38 309.009 213.525Z" fill="white"/>
<path d="M321.411 210.17C320.54 210.168 319.924 209.576 319.924 208.735C319.924 207.888 320.599 207.267 321.517 207.273C322.355 207.28 323.014 207.92 323.012 208.727C323.01 209.58 322.355 210.17 321.411 210.17Z" fill="white"/>
<path d="M321.086 212.82C321.08 213.65 320.362 214.287 319.463 214.263C318.66 214.241 318.01 213.576 318.026 212.797C318.042 211.995 318.729 211.399 319.629 211.405C320.461 211.413 321.092 212.025 321.086 212.82Z" fill="white"/>
<path d="M288.835 221.93C289.67 221.928 290.277 222.522 290.279 223.345C290.281 224.173 289.622 224.784 288.728 224.782C287.96 224.78 287.301 224.139 287.289 223.381C287.277 222.568 287.956 221.932 288.835 221.93Z" fill="white"/>
<path d="M298.565 214.752C298.575 215.581 297.921 216.197 297.029 216.195C296.281 216.195 295.628 215.573 295.606 214.839C295.58 214.032 296.251 213.392 297.14 213.373C297.933 213.355 298.557 213.96 298.565 214.752Z" fill="white"/>
<path d="M320.029 194.569C319.254 194.555 318.6 193.886 318.628 193.142C318.66 192.326 319.297 191.784 320.202 191.806C320.989 191.825 321.593 192.427 321.581 193.179C321.567 193.969 320.878 194.586 320.029 194.569Z" fill="white"/>
<path d="M286.184 220.974C285.406 220.976 284.799 220.414 284.787 219.682C284.777 218.942 285.436 218.32 286.243 218.31C287.001 218.3 287.643 218.93 287.631 219.674C287.621 220.414 286.999 220.974 286.184 220.974Z" fill="white"/>
<path d="M294.533 209.794C295.312 209.79 295.918 210.358 295.916 211.088C295.914 211.831 295.295 212.389 294.475 212.387C293.697 212.385 293.149 211.864 293.141 211.116C293.133 210.322 293.684 209.798 294.533 209.794Z" fill="white"/>
<path d="M316.965 210.432C316.249 210.461 315.606 209.869 315.592 209.167C315.576 208.423 316.188 207.839 317.001 207.823C317.706 207.809 318.311 208.363 318.351 209.06C318.392 209.782 317.767 210.4 316.965 210.432Z" fill="white"/>
<path d="M290.076 210.2C290.848 210.206 291.394 210.746 291.388 211.494C291.382 212.23 290.787 212.779 289.993 212.781C289.255 212.785 288.641 212.205 288.637 211.5C288.631 210.754 289.253 210.194 290.076 210.2Z" fill="white"/>
<path d="M296.504 205.701C297.197 205.711 297.795 206.305 297.801 206.988C297.805 207.716 297.146 208.324 296.368 208.31C295.631 208.298 295.054 207.714 295.065 206.992C295.075 206.232 295.681 205.691 296.504 205.701Z" fill="white"/>
<path d="M322.082 217.747C321.322 217.741 320.812 217.226 320.828 216.474C320.843 215.744 321.413 215.241 322.211 215.253C322.904 215.263 323.484 215.823 323.495 216.488C323.505 217.204 322.884 217.755 322.082 217.747Z" fill="white"/>
<path d="M322.615 198.073C321.918 198.06 321.404 197.539 321.418 196.852C321.432 196.146 322 195.639 322.76 195.653C323.433 195.667 323.983 196.227 323.969 196.88C323.951 197.581 323.379 198.085 322.615 198.073Z" fill="white"/>
<path d="M318.306 225.823C317.651 225.827 317.13 225.339 317.112 224.711C317.094 224.054 317.637 223.545 318.359 223.541C319.01 223.537 319.539 224.026 319.56 224.65C319.58 225.299 319.022 225.821 318.306 225.823Z" fill="white"/>
<path d="M285.489 212.985C284.861 212.979 284.347 212.476 284.358 211.872C284.368 211.225 284.909 210.74 285.607 210.758C286.207 210.774 286.71 211.267 286.718 211.851C286.729 212.49 286.185 212.991 285.489 212.985Z" fill="white"/>
<path d="M324.004 224.264C324.016 224.865 323.478 225.388 322.833 225.404C322.211 225.42 321.673 224.937 321.653 224.343C321.631 223.71 322.17 223.181 322.844 223.175C323.454 223.171 323.992 223.672 324.004 224.264Z" fill="white"/>
<path d="M285.769 227.373C285.802 226.771 286.331 226.338 286.988 226.373C287.588 226.405 288.049 226.88 288.031 227.448C288.013 228.062 287.451 228.551 286.802 228.513C286.2 228.479 285.737 227.965 285.769 227.373Z" fill="white"/>
<path d="M297.891 210.721C297.887 210.109 298.378 209.628 299.019 209.618C299.617 209.608 300.136 210.095 300.146 210.673C300.157 211.265 299.641 211.758 299.002 211.768C298.376 211.777 297.895 211.324 297.891 210.721Z" fill="white"/>
<path d="M304.144 219.146C303.526 219.136 303.047 218.659 303.055 218.067C303.065 217.473 303.605 216.994 304.237 217.018C304.821 217.04 305.311 217.523 305.306 218.075C305.302 218.669 304.775 219.156 304.144 219.146Z" fill="white"/>
<path d="M284.839 205.102C284.259 205.104 283.782 204.662 283.775 204.114C283.769 203.546 284.24 203.107 284.867 203.099C285.449 203.091 285.912 203.526 285.92 204.086C285.928 204.658 285.457 205.1 284.839 205.102Z" fill="white"/>
<path d="M318.696 216.913C318.688 217.489 318.201 217.933 317.598 217.913C317.053 217.895 316.598 217.444 316.596 216.921C316.594 216.351 317.069 215.898 317.675 215.896C318.247 215.894 318.704 216.349 318.696 216.913Z" fill="white"/>
<path d="M286.087 191.301C286.667 191.301 287.061 191.669 287.065 192.215C287.071 192.775 286.653 193.179 286.069 193.177C285.523 193.177 285.082 192.767 285.072 192.253C285.064 191.722 285.513 191.301 286.087 191.301Z" fill="white" fill-opacity="0.4"/>
<path d="M290.679 220.167C290.141 220.163 289.731 219.773 289.725 219.262C289.719 218.756 290.167 218.342 290.729 218.338C291.247 218.334 291.675 218.746 291.679 219.254C291.681 219.775 291.247 220.171 290.679 220.167Z" fill="white"/>
<path d="M323.399 203.736C323.947 203.742 324.335 204.124 324.327 204.65C324.319 205.177 323.885 205.583 323.331 205.575C322.823 205.569 322.381 205.131 322.389 204.643C322.399 204.122 322.835 203.73 323.399 203.736Z" fill="white" fill-opacity="0.4"/>
<path d="M300.4 225.357C300.936 225.362 301.34 225.76 301.328 226.267C301.316 226.774 300.912 227.142 300.362 227.142C299.802 227.142 299.416 226.785 299.414 226.261C299.41 225.725 299.818 225.351 300.4 225.357Z" fill="white"/>
<path d="M293.192 194.636C293.738 194.644 294.124 195.028 294.11 195.552C294.096 196.086 293.681 196.439 293.091 196.421C292.58 196.407 292.189 196.021 292.189 195.534C292.189 195.014 292.62 194.628 293.192 194.636Z" fill="white" fill-opacity="0.4"/>
<path d="M314.166 213.212C314.166 212.723 314.572 212.343 315.092 212.343C315.579 212.343 315.959 212.721 315.955 213.204C315.953 213.707 315.559 214.081 315.037 214.073C314.552 214.069 314.166 213.687 314.166 213.212Z" fill="white"/>
<path d="M290.535 192.678C290.022 192.672 289.668 192.32 289.678 191.825C289.688 191.35 290.072 191 290.577 191C291.083 191 291.467 191.358 291.469 191.831C291.473 192.318 291.069 192.684 290.535 192.678Z" fill="white" fill-opacity="0.4"/>
<path d="M301.558 215.215C301.051 215.207 300.703 214.849 300.723 214.352C300.742 213.881 301.134 213.535 301.635 213.547C302.102 213.559 302.478 213.921 302.486 214.37C302.492 214.855 302.09 215.223 301.558 215.215Z" fill="white"/>
<path d="M284.321 222.93C284.81 222.928 285.182 223.26 285.194 223.708C285.208 224.153 284.798 224.565 284.327 224.582C283.834 224.598 283.448 224.236 283.441 223.753C283.437 223.268 283.795 222.932 284.321 222.93Z" fill="white" fill-opacity="0.4"/>
<path d="M320.9 229.162C320.417 229.16 320.047 228.806 320.059 228.359C320.069 227.919 320.449 227.581 320.938 227.581C321.411 227.581 321.791 227.945 321.779 228.39C321.765 228.836 321.391 229.166 320.9 229.162Z" fill="white" fill-opacity="0.4"/>
<path d="M316.431 193.571C316.427 193.998 316.065 194.331 315.592 194.337C315.141 194.343 314.775 193.982 314.792 193.547C314.808 193.123 315.182 192.803 315.653 192.817C316.097 192.827 316.433 193.155 316.431 193.571Z" fill="white" fill-opacity="0.4"/>
<path d="M314.509 197.642C314.513 198.06 314.129 198.424 313.683 198.42C313.254 198.418 312.903 198.079 312.898 197.66C312.894 197.228 313.266 196.874 313.717 196.88C314.142 196.888 314.505 197.238 314.509 197.642Z" fill="white" fill-opacity="0.4"/>
<path d="M324.841 212.407C324.847 212.86 324.52 213.183 324.049 213.187C323.594 213.193 323.271 212.9 323.256 212.468C323.24 212.005 323.604 211.639 324.071 211.645C324.493 211.653 324.835 211.991 324.841 212.407Z" fill="white" fill-opacity="0.4"/>
<path d="M297.788 223.292C297.344 223.3 296.998 222.981 297.002 222.562C297.006 222.16 297.368 221.827 297.798 221.829C298.221 221.831 298.542 222.134 298.552 222.538C298.562 222.961 298.237 223.284 297.788 223.292Z" fill="white" fill-opacity="0.4"/>
<path d="M312.578 201.717C312.59 202.101 312.254 202.444 311.844 202.471C311.397 202.499 311.045 202.19 311.035 201.761C311.025 201.333 311.353 201.011 311.805 201.007C312.216 201.007 312.565 201.327 312.578 201.717Z" fill="white" fill-opacity="0.4"/>
<path d="M284.918 196.322C284.915 196.738 284.608 197.023 284.166 197.023C283.725 197.023 283.422 196.73 283.428 196.31C283.434 195.908 283.763 195.592 284.182 195.59C284.594 195.59 284.922 195.914 284.918 196.322Z" fill="white" fill-opacity="0.4"/>
<path d="M311.235 222.081C310.821 222.079 310.527 221.796 310.525 221.392C310.523 220.976 310.839 220.681 311.275 220.685C311.688 220.689 311.993 220.984 311.993 221.374C311.993 221.782 311.669 222.083 311.235 222.081Z" fill="white" fill-opacity="0.4"/>
<path d="M313.155 217.988C312.755 217.992 312.443 217.683 312.449 217.291C312.455 216.899 312.765 216.604 313.173 216.604C313.553 216.604 313.897 216.937 313.892 217.305C313.888 217.671 313.553 217.984 313.155 217.988Z" fill="white" fill-opacity="0.4"/>
<path d="M308.708 209.883C308.72 210.271 308.419 210.564 307.999 210.568C307.585 210.572 307.328 210.378 307.293 209.951C307.261 209.555 307.556 209.242 307.96 209.222C308.342 209.201 308.696 209.513 308.708 209.883Z" fill="white" fill-opacity="0.4"/>
<path d="M310.579 205.828C310.573 206.192 310.264 206.489 309.89 206.491C309.514 206.493 309.211 206.196 309.215 205.826C309.217 205.458 309.52 205.169 309.9 205.167C310.276 205.163 310.585 205.464 310.579 205.828Z" fill="white" fill-opacity="0.4"/>
<path d="M309.32 226.116C308.938 226.103 308.645 225.798 308.683 225.426C308.723 225.026 308.968 224.836 309.36 224.832C309.748 224.828 310.047 225.125 310.037 225.489C310.027 225.845 309.702 226.128 309.32 226.116Z" fill="white" fill-opacity="0.4"/>
<path d="M306.747 214.02C306.737 214.396 306.438 214.669 306.044 214.639C305.658 214.608 305.423 214.388 305.401 213.998C305.381 213.65 305.721 213.347 306.093 213.347C306.473 213.347 306.758 213.64 306.747 214.02Z" fill="white" fill-opacity="0.4"/>
<path d="M291.935 215.138C291.955 214.762 292.252 214.518 292.665 214.544C293.065 214.57 293.283 214.795 293.293 215.189C293.303 215.555 292.982 215.825 292.586 215.815C292.192 215.807 291.913 215.516 291.935 215.138Z" fill="white" fill-opacity="0.4"/>
<path d="M295.746 198.604C296.098 198.602 296.415 198.903 296.385 199.237C296.348 199.633 296.094 199.837 295.709 199.833C295.336 199.829 295.125 199.596 295.095 199.233C295.071 198.905 295.398 198.606 295.746 198.604Z" fill="white" fill-opacity="0.4"/>
<path d="M283.621 216.555C283.257 216.543 283.015 216.349 283.001 215.979C282.986 215.599 283.237 215.403 283.601 215.369C283.959 215.334 284.286 215.623 284.266 215.967C284.24 216.345 283.995 216.521 283.621 216.555Z" fill="white" fill-opacity="0.4"/>
<path d="M302.926 230.52C302.59 230.471 302.35 230.302 302.366 229.938C302.382 229.582 302.607 229.394 302.966 229.402C303.328 229.41 303.544 229.604 303.534 229.964C303.522 230.328 303.27 230.483 302.926 230.52Z" fill="white" fill-opacity="0.4"/>
<path d="M295.787 218.882C295.728 219.235 295.514 219.434 295.166 219.421C294.841 219.411 294.635 219.209 294.61 218.878C294.588 218.568 294.926 218.273 295.253 218.31C295.585 218.348 295.75 218.558 295.787 218.882Z" fill="white" fill-opacity="0.4"/>
<path d="M324.717 219.662C325.067 219.682 325.283 219.862 325.296 220.189C325.308 220.525 325.083 220.725 324.76 220.739C324.412 220.755 324.174 220.571 324.176 220.197C324.18 219.85 324.416 219.706 324.717 219.662Z" fill="white" fill-opacity="0.4"/>
<defs>
<filter id="filter0_d" x="41.834" y="3.42676" width="527.582" height="363.656" filterUnits="userSpaceOnUse" color-interpolation-filters="sRGB">
<feFlood flood-opacity="0" result="BackgroundImageFix"/>
<feColorMatrix in="SourceAlpha" type="matrix" values="0 0 0 0 0 0 0 0 0 0 0 0 0 0 0 0 0 0 127 0"/>
<feOffset dy="4"/>
<feGaussianBlur stdDeviation="2"/>
<feColorMatrix type="matrix" values="0 0 0 0 0 0 0 0 0 0 0 0 0 0 0 0 0 0 0.25 0"/>
<feBlend mode="normal" in2="BackgroundImageFix" result="effect1_dropShadow"/>
<feBlend mode="normal" in="SourceGraphic" in2="effect1_dropShadow" result="shape"/>
</filter>
<filter id="filter1_dii" x="255" y="164" width="98" height="100" filterUnits="userSpaceOnUse" color-interpolation-filters="sRGB">
<feFlood flood-opacity="0" result="BackgroundImageFix"/>
<feColorMatrix in="SourceAlpha" type="matrix" values="0 0 0 0 0 0 0 0 0 0 0 0 0 0 0 0 0 0 127 0"/>
<feOffset dy="4"/>
<feGaussianBlur stdDeviation="2"/>
<feColorMatrix type="matrix" values="0 0 0 0 0 0 0 0 0 0 0 0 0 0 0 0 0 0 0.15 0"/>
<feBlend mode="normal" in2="BackgroundImageFix" result="effect1_dropShadow"/>
<feBlend mode="normal" in="SourceGraphic" in2="effect1_dropShadow" result="shape"/>
<feColorMatrix in="SourceAlpha" type="matrix" values="0 0 0 0 0 0 0 0 0 0 0 0 0 0 0 0 0 0 127 0" result="hardAlpha"/>
<feOffset dy="-2"/>
<feGaussianBlur stdDeviation="2"/>
<feComposite in2="hardAlpha" operator="arithmetic" k2="-1" k3="1"/>
<feColorMatrix type="matrix" values="0 0 0 0 0 0 0 0 0 0 0 0 0 0 0 0 0 0 0.1 0"/>
<feBlend mode="normal" in2="shape" result="effect2_innerShadow"/>
<feColorMatrix in="SourceAlpha" type="matrix" values="0 0 0 0 0 0 0 0 0 0 0 0 0 0 0 0 0 0 127 0" result="hardAlpha"/>
<feOffset/>
<feGaussianBlur stdDeviation="1"/>
<feComposite in2="hardAlpha" operator="arithmetic" k2="-1" k3="1"/>
<feColorMatrix type="matrix" values="0 0 0 0 1 0 0 0 0 1 0 0 0 0 1 0 0 0 1 0"/>
<feBlend mode="normal" in2="effect2_innerShadow" result="effect3_innerShadow"/>
</filter>
<radialGradient id="paint0_radial" cx="0" cy="0" r="1" gradientUnits="userSpaceOnUse" gradientTransform="translate(304 211) rotate(90) scale(45)">
<stop offset="0.932292"/>
<stop offset="1" stop-opacity="0"/>
</radialGradient>
<linearGradient id="paint1_linear" x1="304" y1="166" x2="304" y2="256" gradientUnits="userSpaceOnUse">
<stop stop-color="white"/>
<stop offset="1" stop-color="white" stop-opacity="0"/>
</linearGradient>
</defs>
</svg>
