<svg width="145" height="145" viewBox="0 0 145 145" fill="none" xmlns="http://www.w3.org/2000/svg">
<g filter="url(#filter0_d)">
<rect x="10" y="5" width="125" height="125" rx="10" fill="white"/>
<rect x="10.5" y="5.5" width="124" height="124" rx="9.5" stroke="#5551FF"/>
</g>
<g filter="url(#filter1_d)">
<path d="M22 97V38H51.4517L68.9318 55.7444V97H22Z" fill="white"/>
<path fill-rule="evenodd" clip-rule="evenodd" d="M22 38H51.7678L69.3788 55.7414V97H22V38ZM22.4407 38.4403V96.5597H68.9381V55.9227L51.5842 38.4403H22.4407Z" fill="#CECECE"/>
<path fill-rule="evenodd" clip-rule="evenodd" d="M69.2725 55.6939C69.5007 55.9279 69.3377 56.3257 69.0136 56.3257L51.8647 56.3257C51.6633 56.3257 51.5001 56.1597 51.5001 55.9549L51.5001 38.3714C51.5001 38.0404 51.8943 37.8753 52.1235 38.1103L69.2725 55.6939ZM68.8386 55.8808L51.9376 38.5515L51.9376 55.8808L68.8386 55.8808Z" fill="#CECECE"/>
</g>
<g filter="url(#filter2_d)">
<path d="M73.8486 97V38H103.3L120.78 55.7444V97H73.8486Z" fill="white"/>
<path fill-rule="evenodd" clip-rule="evenodd" d="M73.8486 38H103.616L121.227 55.7414V97H73.8486V38ZM74.2894 38.4403V96.5597H120.787V55.9227L103.433 38.4403H74.2894Z" fill="#CECECE"/>
<path fill-rule="evenodd" clip-rule="evenodd" d="M121.121 55.6939C121.349 55.9279 121.186 56.3257 120.862 56.3257L103.713 56.3257C103.512 56.3257 103.349 56.1597 103.349 55.9549L103.349 38.3714C103.349 38.0404 103.743 37.8753 103.972 38.1103L121.121 55.6939ZM120.687 55.8808L103.786 38.5515L103.786 55.8808L120.687 55.8808Z" fill="#CECECE"/>
</g>
<path d="M38.5939 71.5709C38.5939 71.4982 38.6321 71.4618 38.7085 71.4618H39.7124C39.7852 71.4618 39.8215 71.4982 39.8215 71.5709V72.5803C39.8215 72.6531 39.7852 72.6895 39.7124 72.6895H38.7085C38.6321 72.6895 38.5939 72.6531 38.5939 72.5803V71.5709ZM44.4888 66.9932C45.209 66.9932 45.7855 67.2478 46.2184 67.7571C46.6512 68.2663 46.8676 68.9611 46.8676 69.8413C46.8676 70.7289 46.6512 71.4436 46.2184 71.9856C45.7891 72.5276 45.2126 72.7986 44.4888 72.7986C43.9286 72.7986 43.5012 72.6931 43.2066 72.4821C42.9119 72.2711 42.7082 71.9601 42.5955 71.5491L42.6773 74.8119C42.6773 74.8446 42.6664 74.8719 42.6446 74.8937C42.6227 74.9156 42.5955 74.9265 42.5627 74.9265H41.7825C41.7498 74.9265 41.7225 74.9156 41.7007 74.8937C41.6788 74.8719 41.6679 74.8446 41.6679 74.8119V67.2115C41.6679 67.1387 41.7061 67.1023 41.7825 67.1023H42.5627C42.6391 67.1023 42.6773 67.1387 42.6773 67.2115L42.6446 68.0299C42.7682 67.6843 42.9719 67.4261 43.2557 67.2551C43.543 67.0805 43.954 66.9932 44.4888 66.9932ZM44.2651 72.0183C44.7998 72.0183 45.1981 71.8256 45.46 71.44C45.7255 71.0508 45.8583 70.5179 45.8583 69.8413C45.8583 68.4627 45.3272 67.7734 44.2651 67.7734C43.7303 67.7734 43.332 67.9517 43.0701 68.3081C42.8083 68.6646 42.6773 69.1757 42.6773 69.8413C42.6773 70.5179 42.8083 71.0508 43.0701 71.44C43.3357 71.8256 43.734 72.0183 44.2651 72.0183ZM49.1778 74.9265C49.1378 74.9265 49.1087 74.9119 49.0905 74.8828C49.0759 74.8574 49.0759 74.8265 49.0905 74.7901L49.9689 72.6895H49.8162C49.7507 72.6895 49.7089 72.6604 49.6907 72.6022L47.601 67.1896C47.5791 67.1314 47.5991 67.1023 47.661 67.1023H48.5612C48.6085 67.1023 48.6358 67.1242 48.6431 67.1678L50.3945 71.6855L52.1405 67.1678C52.1478 67.1242 52.1732 67.1023 52.2169 67.1023H53.1226C53.1808 67.1023 53.199 67.1314 53.1772 67.1896L50.2308 74.8337C50.209 74.8956 50.1672 74.9265 50.1053 74.9265H49.1778Z" fill="#313144"/>
<path d="M85.5255 71.5709C85.5255 71.4982 85.5637 71.4618 85.6401 71.4618H86.6441C86.7168 71.4618 86.7532 71.4982 86.7532 71.5709V72.5803C86.7532 72.6531 86.7168 72.6895 86.6441 72.6895H85.6401C85.5637 72.6895 85.5255 72.6531 85.5255 72.5803V71.5709ZM89.047 66.1093C88.9742 66.1093 88.9378 66.0711 88.9378 65.9947V64.9799C88.9378 64.9035 88.9742 64.8653 89.047 64.8653H90.0673C90.14 64.8653 90.1764 64.9035 90.1764 64.9799V65.9947C90.1764 66.0711 90.14 66.1093 90.0673 66.1093H89.047ZM89.1725 74.9265C89.1397 74.9265 89.1124 74.9156 89.0906 74.8937C89.0688 74.8719 89.0579 74.8446 89.0579 74.8119V67.2115C89.0579 67.1387 89.0961 67.1023 89.1725 67.1023H89.9527C90.0291 67.1023 90.0673 67.1387 90.0673 67.2115V74.8119C90.0673 74.8446 90.0564 74.8719 90.0345 74.8937C90.0127 74.9156 89.9854 74.9265 89.9527 74.9265H89.1725ZM96.5459 67.1023C96.6187 67.1023 96.655 67.1387 96.655 67.2115V72.5803C96.655 72.6531 96.6187 72.6895 96.5459 72.6895H95.7602C95.6875 72.6895 95.6511 72.6531 95.6511 72.5803L95.6838 71.7619C95.5602 72.1075 95.3547 72.3675 95.0673 72.5421C94.7836 72.7131 94.3744 72.7986 93.8397 72.7986C93.1194 72.7986 92.5429 72.544 92.1101 72.0347C91.6772 71.5255 91.4608 70.8307 91.4608 69.9505C91.4608 69.0629 91.6754 68.3482 92.1046 67.8062C92.5375 67.2642 93.1158 66.9932 93.8397 66.9932C94.3744 66.9932 94.7854 67.0878 95.0728 67.2769C95.3638 67.4624 95.5675 67.7425 95.6838 68.1172L95.6511 67.2115C95.6511 67.1387 95.6875 67.1023 95.7602 67.1023H96.5459ZM94.0634 72.0183C94.5981 72.0183 94.9964 71.8401 95.2583 71.4836C95.5202 71.1272 95.6511 70.6161 95.6511 69.9505C95.6511 69.2739 95.5183 68.7428 95.2528 68.3573C94.9909 67.968 94.5944 67.7734 94.0634 67.7734C93.5287 67.7734 93.1285 67.968 92.863 68.3573C92.5975 68.7428 92.4647 69.2739 92.4647 69.9505C92.4647 71.329 92.9976 72.0183 94.0634 72.0183ZM100.144 72.6895C100.1 72.6895 100.069 72.6676 100.051 72.624L97.9503 67.1896C97.9285 67.1314 97.9485 67.1023 98.0104 67.1023H98.9106C98.9579 67.1023 98.9852 67.1242 98.9925 67.1678L100.744 71.9092L102.49 67.1678C102.508 67.1242 102.534 67.1023 102.566 67.1023H103.472C103.53 67.1023 103.548 67.1314 103.527 67.1896L101.426 72.624C101.408 72.6676 101.379 72.6895 101.339 72.6895H100.144ZM109.405 67.1023C109.478 67.1023 109.514 67.1387 109.514 67.2115V72.5803C109.514 72.6531 109.478 72.6895 109.405 72.6895H108.619C108.547 72.6895 108.51 72.6531 108.51 72.5803L108.543 71.7619C108.419 72.1075 108.214 72.3675 107.926 72.5421C107.643 72.7131 107.233 72.7986 106.699 72.7986C105.979 72.7986 105.402 72.544 104.969 72.0347C104.536 71.5255 104.32 70.8307 104.32 69.9505C104.32 69.0629 104.534 68.3482 104.964 67.8062C105.397 67.2642 105.975 66.9932 106.699 66.9932C107.233 66.9932 107.645 67.0878 107.932 67.2769C108.223 67.4624 108.427 67.7425 108.543 68.1172L108.51 67.2115C108.51 67.1387 108.547 67.1023 108.619 67.1023H109.405ZM106.922 72.0183C107.457 72.0183 107.855 71.8401 108.117 71.4836C108.379 71.1272 108.51 70.6161 108.51 69.9505C108.51 69.2739 108.377 68.7428 108.112 68.3573C107.85 67.968 107.454 67.7734 106.922 67.7734C106.388 67.7734 105.988 67.968 105.722 68.3573C105.457 68.7428 105.324 69.2739 105.324 69.9505C105.324 71.329 105.857 72.0183 106.922 72.0183Z" fill="#313144"/>
<defs>
<filter id="filter0_d" x="0" y="0" width="145" height="145" filterUnits="userSpaceOnUse" color-interpolation-filters="sRGB">
<feFlood flood-opacity="0" result="BackgroundImageFix"/>
<feColorMatrix in="SourceAlpha" type="matrix" values="0 0 0 0 0 0 0 0 0 0 0 0 0 0 0 0 0 0 127 0"/>
<feOffset dy="5"/>
<feGaussianBlur stdDeviation="5"/>
<feColorMatrix type="matrix" values="0 0 0 0 0.333333 0 0 0 0 0.317647 0 0 0 0 1 0 0 0 0.1 0"/>
<feBlend mode="normal" in2="BackgroundImageFix" result="effect1_dropShadow"/>
<feBlend mode="normal" in="SourceGraphic" in2="effect1_dropShadow" result="shape"/>
</filter>
<filter id="filter1_d" x="20.2121" y="38" width="50.9545" height="62.5758" filterUnits="userSpaceOnUse" color-interpolation-filters="sRGB">
<feFlood flood-opacity="0" result="BackgroundImageFix"/>
<feColorMatrix in="SourceAlpha" type="matrix" values="0 0 0 0 0 0 0 0 0 0 0 0 0 0 0 0 0 0 127 0"/>
<feOffset dy="1.78788"/>
<feGaussianBlur stdDeviation="0.893939"/>
<feColorMatrix type="matrix" values="0 0 0 0 0 0 0 0 0 0 0 0 0 0 0 0 0 0 0.25 0"/>
<feBlend mode="normal" in2="BackgroundImageFix" result="effect1_dropShadow"/>
<feBlend mode="normal" in="SourceGraphic" in2="effect1_dropShadow" result="shape"/>
</filter>
<filter id="filter2_d" x="72.0608" y="38" width="50.9545" height="62.5758" filterUnits="userSpaceOnUse" color-interpolation-filters="sRGB">
<feFlood flood-opacity="0" result="BackgroundImageFix"/>
<feColorMatrix in="SourceAlpha" type="matrix" values="0 0 0 0 0 0 0 0 0 0 0 0 0 0 0 0 0 0 127 0"/>
<feOffset dy="1.78788"/>
<feGaussianBlur stdDeviation="0.893939"/>
<feColorMatrix type="matrix" values="0 0 0 0 0 0 0 0 0 0 0 0 0 0 0 0 0 0 0.25 0"/>
<feBlend mode="normal" in2="BackgroundImageFix" result="effect1_dropShadow"/>
<feBlend mode="normal" in="SourceGraphic" in2="effect1_dropShadow" result="shape"/>
</filter>
</defs>
</svg>
