<svg width="690" height="658" viewBox="0 0 690 658" fill="none" xmlns="http://www.w3.org/2000/svg">
<g filter="url(#filter0_if)">
<circle cx="345" cy="313" r="150" fill="#5551FF" fill-opacity="0.75"/>
<circle cx="345" cy="313" r="150" fill="url(#paint0_linear)"/>
<circle cx="345" cy="313" r="149.875" stroke="#D2D2D2" stroke-width="0.25"/>
</g>
<path d="M234.156 307.32C225.673 307.38 219.155 301.195 219.17 293.105C219.185 284.908 225.612 278.965 234.564 278.875C243.214 278.784 249.566 284.636 249.687 292.817C249.808 301.15 243.275 307.259 234.156 307.32Z" fill="black"/>
<path d="M248.084 276.908C240.206 276.969 233.431 270.33 233.461 262.603C233.506 254.24 240.387 247.994 249.521 248.04C257.218 248.085 263.812 254.527 263.993 262.179C264.19 270.406 257.248 276.833 248.084 276.908Z" fill="black"/>
<path d="M450.087 258.988C441.407 259.049 435.267 253.242 435.252 244.924C435.237 236.426 441.558 230.558 450.767 230.513C458.979 230.483 465.361 236.516 465.527 244.501C465.678 252.773 459.13 258.913 450.087 258.988Z" fill="black"/>
<path d="M420.945 275.396C420.976 267.199 427.75 261.06 436.733 261.06C444.703 261.06 451.326 267.638 451.251 275.441C451.16 283.622 444.325 289.792 435.387 289.777C427.327 289.747 420.915 283.365 420.945 275.396Z" fill="black"/>
<path d="M229.013 248.403C220.968 248.433 214.768 242.641 214.677 235.019C214.571 227.11 221.482 220.91 230.283 221.001C237.875 221.092 243.833 227.171 243.818 234.808C243.787 243.004 237.935 248.372 229.013 248.403Z" fill="black"/>
<path d="M469.326 286.103C461.432 286.148 455.02 280.009 455.126 272.493C455.232 264.78 461.72 258.852 470.203 258.747C477.734 258.656 484.04 264.78 484.101 272.251C484.161 280.145 477.87 286.042 469.326 286.103Z" fill="black"/>
<path d="M454.88 316.408C446.835 316.392 441.24 310.843 441.285 302.934C441.331 295.115 447.455 289.535 455.984 289.535C463.682 289.535 469.821 295.599 469.731 303.13C469.625 310.827 463.379 316.423 454.88 316.408Z" fill="black"/>
<path d="M330.83 444.176C323.239 444.221 317.401 438.656 317.371 431.382C317.341 423.852 323.586 418.075 331.737 418.12C339.132 418.15 345.015 423.972 344.985 431.216C344.939 438.777 339.102 444.131 330.83 444.176Z" fill="black"/>
<path d="M408.804 305.822C408.879 298.579 414.61 293.437 422.58 293.482C429.4 293.528 435.026 299.259 434.935 306.079C434.844 313.217 428.886 318.525 421.053 318.419C414.142 318.344 408.728 312.794 408.804 305.822Z" fill="black"/>
<path d="M267.164 302.48C260.465 302.344 254.764 296.552 254.946 290.05C255.142 282.821 261.146 277.528 268.949 277.71C275.633 277.861 281.258 283.592 281.183 290.156C281.107 297.248 274.968 302.631 267.164 302.48Z" fill="black"/>
<path d="M364.176 440.411C357.174 440.365 351.836 435.148 351.836 428.373C351.836 421.326 357.582 415.973 365.219 415.913C372.13 415.867 377.756 421.463 377.68 428.328C377.604 435.572 372.145 440.456 364.176 440.411Z" fill="black"/>
<path d="M350.489 470.686C343.034 470.776 337.787 465.892 337.772 458.845C337.756 452.115 343.261 446.929 350.58 446.777C357.718 446.626 363.056 451.571 363.177 458.406C363.283 465.756 358.293 470.595 350.489 470.686Z" fill="black"/>
<path d="M219.971 335.326C212.864 335.356 207.752 330.563 207.692 323.818C207.646 316.832 213.287 311.599 220.833 311.66C227.366 311.705 232.976 317.361 232.87 323.788C232.764 330.321 227.199 335.296 219.971 335.326Z" fill="black"/>
<path d="M214.797 277.105C207.856 277.135 202.548 272.129 202.518 265.536C202.472 258.822 207.992 253.726 215.417 253.589C222.086 253.468 227.697 258.822 227.681 265.294C227.666 272.22 222.389 277.074 214.797 277.105Z" fill="black"/>
<path d="M407.893 325.088C414.335 325.058 419.673 330.109 419.719 336.309C419.779 342.827 414.108 348.044 407.046 348.014C400.755 347.983 395.357 342.676 395.387 336.551C395.417 330.23 400.982 325.134 407.893 325.088Z" fill="black"/>
<path d="M224.617 393.108C218.417 393.078 213.275 387.967 213.26 381.797C213.23 375.521 219.021 370.365 225.948 370.485C232.178 370.591 237.289 375.718 237.289 381.842C237.274 388.284 231.83 393.124 224.617 393.108Z" fill="black"/>
<path d="M465.163 430.581C458.554 430.551 453.443 425.545 453.579 419.239C453.73 412.873 459.023 408.17 466.009 408.2C472.739 408.23 477.472 412.978 477.381 419.602C477.291 426.271 472.451 430.611 465.163 430.581Z" fill="black"/>
<path d="M311.509 414.703C304.809 414.688 299.88 409.894 299.94 403.452C300 397.01 305.127 392.352 312.189 392.322C318.737 392.291 323.864 397.312 323.788 403.633C323.712 410.09 318.556 414.718 311.509 414.703Z" fill="black"/>
<path d="M265.615 320.536C265.66 327.19 260.488 331.939 253.23 331.893C247.075 331.863 241.767 326.585 241.873 320.597C241.963 314.366 247.498 309.361 254.228 309.376C260.534 309.391 265.584 314.321 265.615 320.536Z" fill="black"/>
<path d="M378.647 408.699C372.069 408.699 367.29 404.117 367.245 397.766C367.184 391.233 372.583 386.288 379.675 386.394C385.83 386.484 391.108 391.762 391.002 397.735C390.866 404.147 385.739 408.699 378.647 408.699Z" fill="black"/>
<path d="M381.587 366.523C381.799 360.127 387.001 355.802 394.26 355.998C400.581 356.18 405.571 361.397 405.254 367.491C404.921 373.948 399.265 378.651 392.233 378.319C385.988 378.031 381.375 372.92 381.587 366.523Z" fill="black"/>
<path d="M474.37 341.42C467.853 341.405 463.24 336.974 463.24 330.683C463.24 324.347 468.291 319.704 475.157 319.749C481.432 319.795 486.362 324.588 486.347 330.622C486.332 337.004 481.432 341.42 474.37 341.42Z" fill="black"/>
<path d="M471.942 361.246C471.897 367.461 466.529 372.224 459.799 372.043C453.796 371.877 448.926 366.901 449.047 361.079C449.168 355.076 454.31 350.615 461.039 350.66C467.27 350.721 471.988 355.303 471.942 361.246Z" fill="black"/>
<path d="M230.658 429.402C236.903 429.387 241.44 433.832 241.455 439.987C241.47 446.187 236.54 450.754 229.856 450.739C224.11 450.724 219.18 445.93 219.089 440.259C218.998 434.18 224.079 429.417 230.658 429.402Z" fill="black"/>
<path d="M303.445 375.702C303.521 381.902 298.621 386.514 291.952 386.499C286.357 386.499 281.473 381.842 281.306 376.352C281.11 370.318 286.13 365.525 292.784 365.388C298.712 365.252 303.385 369.774 303.445 375.702Z" fill="black"/>
<path d="M464.031 224.705C458.239 224.6 453.34 219.594 453.552 214.029C453.793 207.92 458.557 203.867 465.332 204.033C471.214 204.169 475.736 208.676 475.645 214.301C475.539 220.214 470.383 224.826 464.031 224.705Z" fill="black"/>
<path d="M210.821 422.249C204.999 422.264 200.463 418.06 200.372 412.586C200.296 407.051 205.226 402.393 211.26 402.318C216.931 402.242 221.74 406.96 221.649 412.525C221.573 418.06 216.916 422.249 210.821 422.249Z" fill="black"/>
<path d="M273.295 338.607C279.117 338.577 283.654 342.826 283.639 348.286C283.623 353.851 278.996 358.024 272.856 358.009C267.034 357.994 262.936 354.093 262.876 348.497C262.815 342.554 266.944 338.638 273.295 338.607Z" fill="black"/>
<path d="M441.108 343.385C435.755 343.597 430.946 339.166 430.84 333.919C430.719 328.354 435.301 323.984 441.38 323.863C446.658 323.757 451.18 327.9 451.482 333.117C451.785 338.516 447.112 343.144 441.108 343.385Z" fill="black"/>
<path d="M239.931 341.647C245.708 341.692 249.791 345.73 249.746 351.325C249.701 356.83 245.255 360.943 239.311 360.958C233.792 360.989 229.195 356.648 229.164 351.371C229.119 345.791 233.777 341.602 239.931 341.647Z" fill="black"/>
<path d="M288.022 307.984C293.209 308.06 297.685 312.506 297.731 317.617C297.761 323.061 292.831 327.613 287.009 327.507C281.489 327.416 277.179 323.046 277.255 317.647C277.33 311.961 281.867 307.909 288.022 307.984Z" fill="black"/>
<path d="M479.392 398.113C473.706 398.068 469.895 394.212 470.016 388.586C470.122 383.127 474.387 379.362 480.36 379.453C485.547 379.528 489.887 383.717 489.963 388.692C490.038 394.046 485.396 398.174 479.392 398.113Z" fill="black"/>
<path d="M483.388 250.913C478.171 250.822 474.33 246.921 474.436 241.779C474.542 236.502 478.791 232.706 484.477 232.812C489.513 232.918 493.626 237.106 493.52 241.991C493.384 247.238 489.104 251.004 483.388 250.913Z" fill="black"/>
<path d="M451.148 458.527C446.248 458.558 442.346 454.913 442.21 450.21C442.074 445.295 446.142 441.485 451.541 441.454C456.41 441.424 460.372 445.084 460.523 449.756C460.675 454.611 456.501 458.512 451.148 458.527Z" fill="black"/>
<path d="M205.618 362.485C200.915 362.44 197.074 358.674 197.15 354.153C197.225 349.314 201.278 345.684 206.495 345.82C210.986 345.941 214.752 349.631 214.812 354.002C214.888 358.78 210.82 362.531 205.618 362.485Z" fill="black"/>
<path d="M493.772 446.868C493.863 451.36 489.84 455.276 485.016 455.397C480.358 455.518 476.336 451.904 476.185 447.458C476.018 442.725 480.056 438.763 485.092 438.717C489.659 438.687 493.681 442.437 493.772 446.868Z" fill="black"/>
<path d="M207.725 470.126C207.967 465.619 211.929 462.383 216.844 462.64C221.335 462.882 224.783 466.436 224.647 470.685C224.511 475.282 220.307 478.942 215.452 478.655C210.946 478.397 207.483 474.556 207.725 470.126Z" fill="black"/>
<path d="M298.412 345.548C298.382 340.966 302.057 337.367 306.851 337.291C311.327 337.216 315.213 340.86 315.289 345.185C315.364 349.616 311.508 353.306 306.73 353.382C302.042 353.442 298.443 350.055 298.412 345.548Z" fill="black"/>
<path d="M345.201 408.578C340.573 408.502 336.989 404.934 337.05 400.503C337.125 396.057 341.163 392.473 345.896 392.654C350.266 392.821 353.926 396.435 353.896 400.563C353.866 405.009 349.919 408.654 345.201 408.578Z" fill="black"/>
<path d="M200.748 303.508C196.408 303.523 192.839 300.212 192.793 296.113C192.748 291.864 196.272 288.583 200.959 288.522C205.315 288.462 208.778 291.713 208.838 295.902C208.899 300.181 205.375 303.493 200.748 303.508Z" fill="black"/>
<path d="M454.068 391.868C454.007 396.178 450.363 399.505 445.856 399.353C441.773 399.217 438.371 395.845 438.356 391.928C438.34 387.664 441.894 384.276 446.431 384.261C450.71 384.246 454.128 387.649 454.068 391.868Z" fill="black"/>
<path d="M210.096 200.253C214.436 200.253 217.385 203.005 217.415 207.088C217.461 211.277 214.33 214.302 209.96 214.286C205.877 214.286 202.58 211.217 202.505 207.376C202.444 203.398 205.801 200.253 210.096 200.253Z" fill="black"/>
<path d="M244.457 416.215C240.434 416.185 237.364 413.266 237.319 409.44C237.273 405.66 240.631 402.56 244.835 402.53C248.706 402.499 251.912 405.584 251.942 409.38C251.957 413.281 248.706 416.245 244.457 416.215Z" fill="black"/>
<path d="M489.251 293.285C493.35 293.331 496.253 296.189 496.193 300.121C496.132 304.068 492.881 307.107 488.737 307.047C484.942 307.001 481.63 303.72 481.69 300.075C481.766 296.174 485.032 293.24 489.251 293.285Z" fill="black"/>
<path d="M317.177 455.049C321.184 455.079 324.209 458.058 324.118 461.854C324.027 465.65 321.003 468.402 316.889 468.402C312.701 468.402 309.812 465.725 309.797 461.809C309.767 457.801 312.822 455.004 317.177 455.049Z" fill="black"/>
<path d="M263.253 225.205C267.336 225.265 270.224 228.139 270.118 232.055C270.012 236.047 266.912 238.694 262.497 238.558C258.671 238.452 255.752 235.564 255.752 231.919C255.752 228.033 258.973 225.144 263.253 225.205Z" fill="black"/>
<path d="M420.178 364.179C420.178 360.52 423.217 357.677 427.104 357.677C430.748 357.677 433.591 360.504 433.561 364.119C433.546 367.884 430.597 370.682 426.695 370.621C423.066 370.591 420.178 367.733 420.178 364.179Z" fill="black"/>
<path d="M243.38 210.552C239.539 210.506 236.893 207.875 236.968 204.17C237.044 200.616 239.917 198 243.698 198C247.478 198 250.352 200.677 250.367 204.215C250.397 207.86 247.373 210.597 243.38 210.552Z" fill="black"/>
<path d="M325.846 379.165C322.05 379.105 319.449 376.428 319.6 372.708C319.736 369.185 322.67 366.599 326.42 366.689C329.913 366.78 332.726 369.487 332.787 372.844C332.832 376.473 329.823 379.226 325.846 379.165Z" fill="black"/>
<path d="M196.879 436.887C200.539 436.872 203.321 439.352 203.412 442.709C203.518 446.036 200.448 449.121 196.925 449.242C193.235 449.363 190.346 446.656 190.301 443.042C190.271 439.412 192.947 436.902 196.879 436.887Z" fill="black"/>
<path d="M470.549 483.509C466.935 483.494 464.167 480.848 464.258 477.506C464.334 474.209 467.177 471.684 470.836 471.684C474.375 471.684 477.218 474.406 477.127 477.733C477.021 481.075 474.224 483.54 470.549 483.509Z" fill="black"/>
<path d="M437.116 217.236C437.085 220.426 434.379 222.922 430.84 222.967C427.468 223.012 424.731 220.305 424.852 217.054C424.972 213.878 427.77 211.489 431.294 211.595C434.621 211.671 437.131 214.12 437.116 217.236Z" fill="black"/>
<path d="M422.748 247.692C422.778 250.822 419.905 253.544 416.563 253.514C413.357 253.499 410.726 250.958 410.696 247.828C410.665 244.592 413.448 241.945 416.82 241.991C419.996 242.051 422.718 244.667 422.748 247.692Z" fill="black"/>
<path d="M500.038 358.161C500.083 361.548 497.633 363.968 494.11 363.998C490.707 364.043 488.287 361.851 488.182 358.614C488.061 355.151 490.783 352.414 494.276 352.46C497.436 352.52 499.992 355.045 500.038 358.161Z" fill="black"/>
<path d="M297.639 439.594C294.312 439.654 291.726 437.265 291.756 434.135C291.786 431.125 294.493 428.63 297.714 428.645C300.875 428.66 303.279 430.929 303.355 433.953C303.431 437.114 300.996 439.533 297.639 439.594Z" fill="black"/>
<path d="M408.286 278.178C408.377 281.052 405.867 283.622 402.797 283.819C399.455 284.031 396.823 281.717 396.748 278.511C396.672 275.305 399.122 272.901 402.509 272.87C405.579 272.87 408.195 275.26 408.286 278.178Z" fill="black"/>
<path d="M201.339 237.817C201.324 240.932 199.025 243.065 195.714 243.065C192.417 243.065 190.149 240.872 190.194 237.727C190.239 234.717 192.704 232.358 195.835 232.343C198.92 232.343 201.369 234.763 201.339 237.817Z" fill="black"/>
<path d="M398.247 430.536C395.147 430.521 392.955 428.404 392.94 425.379C392.924 422.264 395.283 420.056 398.55 420.086C401.635 420.117 403.918 422.325 403.918 425.243C403.918 428.298 401.499 430.551 398.247 430.536Z" fill="black"/>
<path d="M412.597 399.913C409.602 399.943 407.274 397.63 407.319 394.696C407.364 391.762 409.678 389.554 412.733 389.554C415.576 389.554 418.147 392.05 418.116 394.802C418.086 397.539 415.576 399.883 412.597 399.913Z" fill="black"/>
<path d="M379.346 339.272C379.437 342.176 377.183 344.369 374.038 344.399C370.938 344.429 369.017 342.977 368.76 339.786C368.518 336.822 370.726 334.479 373.751 334.327C376.609 334.176 379.255 336.505 379.346 339.272Z" fill="black"/>
<path d="M393.337 308.937C393.291 311.66 390.978 313.882 388.18 313.898C385.367 313.913 383.099 311.69 383.129 308.922C383.144 306.17 385.413 304.008 388.256 303.992C391.068 303.962 393.382 306.215 393.337 308.937Z" fill="black"/>
<path d="M383.912 460.719C381.054 460.629 378.861 458.345 379.148 455.563C379.451 452.569 381.281 451.147 384.214 451.117C387.118 451.087 389.356 453.309 389.28 456.032C389.205 458.693 386.77 460.81 383.912 460.719Z" fill="black"/>
<path d="M364.66 370.228C364.584 373.041 362.346 375.083 359.397 374.856C356.509 374.629 354.755 372.981 354.588 370.062C354.437 367.461 356.978 365.193 359.76 365.193C362.603 365.193 364.736 367.385 364.66 370.228Z" fill="black"/>
<path d="M253.847 378.591C253.998 375.778 256.221 373.948 259.306 374.145C262.301 374.341 263.934 376.02 264.009 378.969C264.085 381.706 261.681 383.732 258.717 383.656C255.768 383.596 253.681 381.418 253.847 378.591Z" fill="black"/>
<path d="M282.367 254.89C284.998 254.875 287.373 257.128 287.146 259.623C286.874 262.587 284.968 264.115 282.095 264.084C279.297 264.054 277.725 262.315 277.498 259.593C277.316 257.143 279.766 254.905 282.367 254.89Z" fill="black"/>
<path d="M191.647 389.192C188.925 389.101 187.11 387.649 187.004 384.882C186.898 382.039 188.774 380.572 191.496 380.315C194.172 380.058 196.622 382.22 196.471 384.791C196.274 387.619 194.444 388.934 191.647 389.192Z" fill="black"/>
<path d="M336.075 493.671C333.565 493.308 331.766 492.038 331.887 489.316C332.008 486.655 333.686 485.248 336.378 485.309C339.085 485.369 340.703 486.821 340.627 489.513C340.537 492.235 338.646 493.399 336.075 493.671Z" fill="black"/>
<path d="M282.664 406.597C282.226 409.244 280.623 410.726 278.022 410.635C275.587 410.559 274.045 409.047 273.863 406.567C273.697 404.253 276.222 402.045 278.672 402.317C281.152 402.605 282.392 404.178 282.664 406.597Z" fill="black"/>
<path d="M499.111 412.435C501.728 412.586 503.346 413.932 503.436 416.382C503.527 418.892 501.849 420.389 499.429 420.495C496.828 420.616 495.044 419.24 495.059 416.442C495.089 413.841 496.858 412.768 499.111 412.435Z" fill="black"/>
<defs>
<filter id="filter0_if" x="0" y="-32" width="690" height="690" filterUnits="userSpaceOnUse" color-interpolation-filters="sRGB">
<feFlood flood-opacity="0" result="BackgroundImageFix"/>
<feBlend mode="normal" in="SourceGraphic" in2="BackgroundImageFix" result="shape"/>
<feColorMatrix in="SourceAlpha" type="matrix" values="0 0 0 0 0 0 0 0 0 0 0 0 0 0 0 0 0 0 127 0" result="hardAlpha"/>
<feOffset dy="-1"/>
<feGaussianBlur stdDeviation="1"/>
<feComposite in2="hardAlpha" operator="arithmetic" k2="-1" k3="1"/>
<feColorMatrix type="matrix" values="0 0 0 0 0 0 0 0 0 0 0 0 0 0 0 0 0 0 0.2 0"/>
<feBlend mode="normal" in2="shape" result="effect1_innerShadow"/>
<feGaussianBlur stdDeviation="97.5" result="effect2_foregroundBlur"/>
</filter>
<linearGradient id="paint0_linear" x1="345" y1="163" x2="345" y2="463" gradientUnits="userSpaceOnUse">
<stop stop-color="white"/>
<stop offset="1" stop-color="white" stop-opacity="0"/>
</linearGradient>
</defs>
</svg>
