<svg width="20" height="30" viewBox="0 0 20 30" fill="none" xmlns="http://www.w3.org/2000/svg">
<path d="M9.34198 12.37C9.58151 12.7424 9.94079 13.1149 10.3001 13.3632C10.6594 13.6115 10.9588 13.6736 11.2582 13.6736C11.3779 13.6736 11.4977 13.6736 11.6773 13.6115C12.336 13.3632 12.6953 12.6183 12.9348 12.1217C13.6534 10.3214 13.5336 7.83829 11.6174 6.34842L10.1803 5.16894C9.94079 4.92063 9.58151 4.98271 9.34198 5.23102L9.2821 5.2931V5.41725C9.22222 5.60348 8.08449 10.3214 9.34198 12.37ZM11.1983 11.6871C10.4797 11.0043 10.36 9.26608 10.7192 7.96244C11.6174 8.76946 11.7372 10.5697 11.1983 11.6871Z" fill="black"/>
<path d="M9.34198 12.37C9.58151 12.7424 9.94079 13.1149 10.3001 13.3632C10.6594 13.6115 10.9588 13.6736 11.2582 13.6736C11.3779 13.6736 11.4977 13.6736 11.6773 13.6115C12.336 13.3632 12.6953 12.6183 12.9348 12.1217C13.6534 10.3214 13.5336 7.83829 11.6174 6.34842L10.1803 5.16894C9.94079 4.92063 9.58151 4.98271 9.34198 5.23102L9.2821 5.2931V5.41725C9.22222 5.60348 8.08449 10.3214 9.34198 12.37ZM11.1983 11.6871C10.4797 11.0043 10.36 9.26608 10.7192 7.96244C11.6174 8.76946 11.7372 10.5697 11.1983 11.6871Z" fill="url(#paint0_linear)"/>
<path d="M19.8802 27.8895C19.8204 27.7654 19.6407 27.7654 19.521 27.7654H16.2874L13.5928 18.702C15.8683 16.5293 19.521 12.4942 19.2216 8.58331C19.2216 6.53474 18.2635 3.555 17.3054 1.38227C17.2455 1.3202 17.2455 1.25812 17.1856 1.13396C17.1257 0.947729 16.8862 0.389028 16.4671 0.575261C15.7485 0.699417 15.8084 1.50643 15.8683 2.00305C15.8683 2.12721 15.8683 2.25136 15.8683 2.37552C15.9281 3.49292 16.2275 4.36201 16.4671 5.16903C16.6467 5.47941 16.7665 5.7898 16.8862 6.10019L12.994 2.9963H12.8144H12.6347L12.4551 3.05838L12.2156 3.30669L12.2754 3.49292C12.3952 3.98955 12.5749 4.61032 12.8743 5.2311C13.4731 6.47266 15.2695 7.71422 16.6467 8.64539C16.8263 8.76954 17.006 8.8937 17.1856 9.01785C16.8862 12.6184 13.7725 15.6602 10.8982 17.3984C8.38323 17.0259 5.68862 15.4119 4.13174 13.3012C3.05389 11.8114 2.51497 10.1973 2.69461 8.64539L3.23353 8.14876C3.77245 7.65214 4.19162 7.27967 4.67066 6.84513C4.91018 6.72097 5.02994 6.59682 5.1497 6.47266C6.10778 5.60357 6.94611 4.85864 6.94611 3.24461V3.18253L6.88623 3.12046C6.88623 2.9963 6.76647 2.87214 6.58683 2.81007L6.46707 2.74799H6.28743L6.22754 2.81007C5.62874 3.24461 3.9521 4.85864 2.99401 5.7898C3.11377 5.16903 3.29341 4.61032 3.41317 4.1137L3.53293 3.74123C3.83234 2.9963 4.01198 1.25812 3.29341 0.637339L3.17365 0.513184H3.05389C1.79641 0.513184 1.31737 2.9963 0.778443 6.53474C0 11.8734 1.55689 15.3498 5.98802 17.895L3.71257 27.7654L0 27.8275V28.1378C0 28.5724 0.239521 29.1932 0.479042 29.6277C0.598802 29.8139 0.778443 29.9381 1.01796 29.9381H17.3653C19.0419 29.9381 19.9401 29.3794 20 28.262C20 28.1378 20 28.0137 19.8802 27.8895ZM13.8922 27.7654H6.10778L8.08383 19.0745C8.20359 19.1366 8.32335 19.1366 8.44311 19.1986C9.58084 19.6332 10.7186 20.0056 11.9162 19.6953L13.8922 27.7654Z" fill="black"/>
<path d="M19.8802 27.8895C19.8204 27.7654 19.6407 27.7654 19.521 27.7654H16.2874L13.5928 18.702C15.8683 16.5293 19.521 12.4942 19.2216 8.58331C19.2216 6.53474 18.2635 3.555 17.3054 1.38227C17.2455 1.3202 17.2455 1.25812 17.1856 1.13396C17.1257 0.947729 16.8862 0.389028 16.4671 0.575261C15.7485 0.699417 15.8084 1.50643 15.8683 2.00305C15.8683 2.12721 15.8683 2.25136 15.8683 2.37552C15.9281 3.49292 16.2275 4.36201 16.4671 5.16903C16.6467 5.47941 16.7665 5.7898 16.8862 6.10019L12.994 2.9963H12.8144H12.6347L12.4551 3.05838L12.2156 3.30669L12.2754 3.49292C12.3952 3.98955 12.5749 4.61032 12.8743 5.2311C13.4731 6.47266 15.2695 7.71422 16.6467 8.64539C16.8263 8.76954 17.006 8.8937 17.1856 9.01785C16.8862 12.6184 13.7725 15.6602 10.8982 17.3984C8.38323 17.0259 5.68862 15.4119 4.13174 13.3012C3.05389 11.8114 2.51497 10.1973 2.69461 8.64539L3.23353 8.14876C3.77245 7.65214 4.19162 7.27967 4.67066 6.84513C4.91018 6.72097 5.02994 6.59682 5.1497 6.47266C6.10778 5.60357 6.94611 4.85864 6.94611 3.24461V3.18253L6.88623 3.12046C6.88623 2.9963 6.76647 2.87214 6.58683 2.81007L6.46707 2.74799H6.28743L6.22754 2.81007C5.62874 3.24461 3.9521 4.85864 2.99401 5.7898C3.11377 5.16903 3.29341 4.61032 3.41317 4.1137L3.53293 3.74123C3.83234 2.9963 4.01198 1.25812 3.29341 0.637339L3.17365 0.513184H3.05389C1.79641 0.513184 1.31737 2.9963 0.778443 6.53474C0 11.8734 1.55689 15.3498 5.98802 17.895L3.71257 27.7654L0 27.8275V28.1378C0 28.5724 0.239521 29.1932 0.479042 29.6277C0.598802 29.8139 0.778443 29.9381 1.01796 29.9381H17.3653C19.0419 29.9381 19.9401 29.3794 20 28.262C20 28.1378 20 28.0137 19.8802 27.8895ZM13.8922 27.7654H6.10778L8.08383 19.0745C8.20359 19.1366 8.32335 19.1366 8.44311 19.1986C9.58084 19.6332 10.7186 20.0056 11.9162 19.6953L13.8922 27.7654Z" fill="url(#paint1_linear)"/>
<defs>
<linearGradient id="paint0_linear" x1="11.0466" y1="5.01086" x2="11.0466" y2="13.6736" gradientUnits="userSpaceOnUse">
<stop stop-color="white" stop-opacity="0.4"/>
<stop offset="1" stop-color="white" stop-opacity="0"/>
</linearGradient>
<linearGradient id="paint1_linear" x1="10" y1="0.513184" x2="10" y2="29.9381" gradientUnits="userSpaceOnUse">
<stop stop-color="white" stop-opacity="0.4"/>
<stop offset="1" stop-color="white" stop-opacity="0"/>
</linearGradient>
</defs>
</svg>
