<svg width="558" height="508" viewBox="0 0 558 508" fill="none" xmlns="http://www.w3.org/2000/svg">
<g filter="url(#filter0_dii)">
<path d="M4 9.99999C4 4.47714 8.47715 0 14 0H544C549.523 0 554 4.47715 554 10V500H4V9.99999Z" fill="#DEDFE1"/>
<path d="M4 9.99999C4 4.47714 8.47715 0 14 0H544C549.523 0 554 4.47715 554 10V500H4V9.99999Z" fill="white"/>
<path d="M4 9.99999C4 4.47714 8.47715 0 14 0H544C549.523 0 554 4.47715 554 10V500H4V9.99999Z" fill="#5551FF" fill-opacity="0.05"/>
<path d="M4.5 9.99999C4.5 4.75329 8.75329 0.5 14 0.5H544C549.247 0.5 553.5 4.7533 553.5 10V499.5H4.5V9.99999Z" stroke="#D7D7D7"/>
</g>
<path d="M452.622 481.849V485.523C452.622 486.044 452.679 486.373 452.793 486.512C452.944 486.691 453.145 486.78 453.397 486.78H453.904V487H450.565V486.78H450.815C450.978 486.78 451.127 486.74 451.261 486.658C451.395 486.577 451.487 486.467 451.536 486.329C451.589 486.19 451.615 485.922 451.615 485.523V481.849H450.529V481.409H451.615V481.043C451.615 480.486 451.705 480.014 451.884 479.627C452.063 479.24 452.335 478.929 452.701 478.693C453.072 478.453 453.487 478.333 453.947 478.333C454.374 478.333 454.766 478.471 455.125 478.748C455.361 478.931 455.479 479.137 455.479 479.365C455.479 479.487 455.426 479.603 455.32 479.712C455.214 479.818 455.1 479.871 454.978 479.871C454.884 479.871 454.785 479.839 454.679 479.773C454.577 479.704 454.451 479.56 454.301 479.34C454.15 479.116 454.012 478.966 453.885 478.888C453.759 478.811 453.619 478.772 453.464 478.772C453.277 478.772 453.118 478.823 452.988 478.925C452.858 479.023 452.764 479.177 452.708 479.389C452.651 479.596 452.622 480.136 452.622 481.006V481.409H454.062V481.849H452.622ZM456.022 478.321C456.193 478.321 456.337 478.382 456.455 478.504C456.577 478.622 456.638 478.766 456.638 478.937C456.638 479.108 456.577 479.255 456.455 479.377C456.337 479.499 456.193 479.56 456.022 479.56C455.851 479.56 455.704 479.499 455.582 479.377C455.46 479.255 455.399 479.108 455.399 478.937C455.399 478.766 455.458 478.622 455.576 478.504C455.698 478.382 455.847 478.321 456.022 478.321ZM456.528 481.244V485.737C456.528 486.087 456.553 486.32 456.602 486.438C456.654 486.552 456.73 486.638 456.827 486.695C456.929 486.752 457.112 486.78 457.377 486.78V487H454.661V486.78C454.933 486.78 455.116 486.754 455.21 486.701C455.304 486.648 455.377 486.561 455.43 486.438C455.487 486.316 455.515 486.082 455.515 485.737V483.582C455.515 482.976 455.497 482.583 455.46 482.404C455.432 482.274 455.387 482.184 455.326 482.135C455.265 482.083 455.181 482.056 455.076 482.056C454.962 482.056 454.823 482.087 454.661 482.148L454.575 481.928L456.26 481.244H456.528ZM459.574 484.961C459.232 484.795 458.97 484.563 458.787 484.266C458.604 483.965 458.512 483.633 458.512 483.271C458.512 482.717 458.719 482.241 459.135 481.843C459.554 481.444 460.089 481.244 460.74 481.244C461.273 481.244 461.735 481.375 462.125 481.635H463.309C463.484 481.635 463.586 481.641 463.615 481.653C463.643 481.661 463.663 481.678 463.676 481.702C463.7 481.739 463.712 481.804 463.712 481.897C463.712 482.003 463.702 482.076 463.682 482.117C463.669 482.138 463.647 482.154 463.615 482.166C463.586 482.178 463.484 482.184 463.309 482.184H462.583C462.811 482.477 462.925 482.852 462.925 483.307C462.925 483.828 462.725 484.274 462.327 484.644C461.928 485.014 461.393 485.199 460.721 485.199C460.445 485.199 460.162 485.159 459.873 485.077C459.694 485.232 459.572 485.368 459.507 485.486C459.446 485.6 459.415 485.698 459.415 485.779C459.415 485.848 459.448 485.916 459.513 485.981C459.582 486.046 459.714 486.093 459.91 486.121C460.024 486.137 460.308 486.152 460.764 486.164C461.602 486.184 462.146 486.213 462.394 486.249C462.772 486.302 463.073 486.443 463.297 486.67C463.525 486.898 463.639 487.179 463.639 487.513C463.639 487.972 463.423 488.404 462.992 488.807C462.357 489.401 461.529 489.698 460.508 489.698C459.722 489.698 459.059 489.521 458.518 489.167C458.213 488.963 458.06 488.752 458.06 488.532C458.06 488.434 458.083 488.337 458.127 488.239C458.197 488.088 458.339 487.879 458.555 487.61C458.583 487.574 458.791 487.354 459.177 486.951C458.966 486.825 458.815 486.713 458.726 486.615C458.64 486.514 458.597 486.4 458.597 486.274C458.597 486.131 458.654 485.964 458.768 485.773C458.886 485.582 459.155 485.311 459.574 484.961ZM460.636 481.537C460.335 481.537 460.083 481.657 459.879 481.897C459.676 482.138 459.574 482.506 459.574 483.002C459.574 483.645 459.712 484.144 459.989 484.498C460.201 484.766 460.469 484.9 460.795 484.9C461.104 484.9 461.358 484.784 461.558 484.552C461.757 484.321 461.857 483.956 461.857 483.46C461.857 482.813 461.716 482.306 461.436 481.94C461.228 481.672 460.962 481.537 460.636 481.537ZM459.513 487C459.322 487.208 459.177 487.401 459.08 487.58C458.982 487.759 458.933 487.924 458.933 488.074C458.933 488.27 459.051 488.44 459.287 488.587C459.694 488.839 460.282 488.965 461.051 488.965C461.783 488.965 462.323 488.835 462.668 488.575C463.018 488.318 463.193 488.044 463.193 487.751C463.193 487.539 463.09 487.389 462.882 487.299C462.67 487.21 462.251 487.157 461.625 487.14C460.709 487.116 460.005 487.069 459.513 487ZM467.698 480.298C467.934 479.741 468.231 479.312 468.589 479.01C468.951 478.705 469.401 478.553 469.938 478.553C470.601 478.553 471.11 478.768 471.464 479.2C471.732 479.521 471.866 479.865 471.866 480.231C471.866 480.833 471.488 481.456 470.731 482.099C471.24 482.298 471.624 482.583 471.885 482.953C472.145 483.324 472.275 483.759 472.275 484.26C472.275 484.976 472.048 485.596 471.592 486.121C470.998 486.805 470.137 487.146 469.01 487.146C468.453 487.146 468.072 487.077 467.869 486.939C467.669 486.801 467.57 486.652 467.57 486.493C467.57 486.375 467.616 486.272 467.71 486.182C467.808 486.093 467.924 486.048 468.058 486.048C468.16 486.048 468.263 486.064 468.369 486.097C468.438 486.117 468.595 486.192 468.839 486.323C469.083 486.449 469.252 486.524 469.346 486.548C469.496 486.593 469.657 486.615 469.828 486.615C470.243 486.615 470.603 486.455 470.908 486.133C471.217 485.812 471.372 485.431 471.372 484.992C471.372 484.67 471.301 484.357 471.158 484.052C471.053 483.824 470.937 483.651 470.811 483.533C470.636 483.37 470.396 483.224 470.09 483.094C469.785 482.959 469.474 482.892 469.156 482.892H468.961V482.709C469.283 482.669 469.604 482.553 469.926 482.361C470.251 482.17 470.487 481.94 470.634 481.672C470.78 481.403 470.853 481.108 470.853 480.787C470.853 480.368 470.721 480.03 470.457 479.773C470.196 479.513 469.871 479.383 469.48 479.383C468.849 479.383 468.322 479.721 467.899 480.396L467.698 480.298ZM476.426 481.965L478.147 481.269H478.379V482.575C478.668 482.083 478.957 481.739 479.246 481.543C479.539 481.344 479.846 481.244 480.167 481.244C480.729 481.244 481.197 481.464 481.571 481.904C482.031 482.441 482.261 483.141 482.261 484.003C482.261 484.968 481.984 485.765 481.431 486.396C480.975 486.913 480.401 487.171 479.709 487.171C479.408 487.171 479.148 487.128 478.928 487.043C478.765 486.982 478.582 486.86 478.379 486.677V488.379C478.379 488.762 478.401 489.004 478.446 489.106C478.495 489.212 478.576 489.295 478.69 489.356C478.808 489.417 479.02 489.448 479.325 489.448V489.673H476.395V489.448H476.548C476.772 489.452 476.963 489.409 477.122 489.319C477.199 489.275 477.258 489.201 477.299 489.1C477.343 489.002 477.366 488.75 477.366 488.343V483.057C477.366 482.695 477.349 482.465 477.317 482.367C477.284 482.27 477.231 482.197 477.158 482.148C477.089 482.099 476.993 482.074 476.871 482.074C476.774 482.074 476.65 482.103 476.499 482.16L476.426 481.965ZM478.379 482.935V485.022C478.379 485.474 478.397 485.771 478.434 485.914C478.491 486.15 478.629 486.357 478.849 486.536C479.073 486.715 479.353 486.805 479.691 486.805C480.098 486.805 480.428 486.646 480.68 486.329C481.01 485.914 481.174 485.33 481.174 484.577C481.174 483.722 480.987 483.065 480.613 482.605C480.352 482.288 480.043 482.129 479.685 482.129C479.49 482.129 479.296 482.178 479.105 482.276C478.959 482.349 478.717 482.569 478.379 482.935ZM482.761 481.409H485.367V481.635H485.239C485.056 481.635 484.918 481.676 484.824 481.757C484.735 481.834 484.69 481.932 484.69 482.05C484.69 482.209 484.757 482.428 484.891 482.709L486.252 485.529L487.504 482.441C487.573 482.274 487.607 482.109 487.607 481.946C487.607 481.873 487.593 481.818 487.565 481.781C487.532 481.737 487.481 481.702 487.412 481.678C487.343 481.649 487.221 481.635 487.046 481.635V481.409H488.865V481.635C488.714 481.651 488.598 481.684 488.517 481.733C488.435 481.781 488.346 481.873 488.248 482.007C488.212 482.064 488.142 482.221 488.041 482.477L485.764 488.056C485.544 488.597 485.256 489.006 484.897 489.283C484.543 489.559 484.202 489.698 483.872 489.698C483.632 489.698 483.435 489.629 483.28 489.49C483.125 489.352 483.048 489.193 483.048 489.014C483.048 488.843 483.103 488.705 483.213 488.599C483.327 488.497 483.481 488.447 483.677 488.447C483.811 488.447 483.994 488.491 484.226 488.581C484.389 488.642 484.491 488.672 484.531 488.672C484.653 488.672 484.786 488.609 484.928 488.483C485.074 488.357 485.221 488.113 485.367 487.751L485.764 486.78L483.756 482.563C483.695 482.437 483.597 482.28 483.463 482.093C483.361 481.95 483.278 481.855 483.213 481.806C483.119 481.741 482.969 481.684 482.761 481.635V481.409ZM490.952 479.572V481.409H492.258V481.836H490.952V485.462C490.952 485.824 491.003 486.068 491.105 486.194C491.211 486.32 491.345 486.384 491.508 486.384C491.642 486.384 491.772 486.343 491.898 486.261C492.024 486.176 492.122 486.052 492.191 485.889H492.429C492.287 486.288 492.085 486.589 491.825 486.792C491.565 486.992 491.296 487.092 491.019 487.092C490.832 487.092 490.649 487.041 490.47 486.939C490.291 486.833 490.159 486.685 490.073 486.493C489.988 486.298 489.945 485.999 489.945 485.596V481.836H489.06V481.635C489.284 481.545 489.512 481.395 489.744 481.183C489.98 480.968 490.189 480.713 490.372 480.42C490.466 480.266 490.596 479.983 490.763 479.572H490.952ZM494.449 478.321V482.41C494.901 481.914 495.259 481.596 495.524 481.458C495.788 481.316 496.053 481.244 496.317 481.244C496.635 481.244 496.907 481.332 497.135 481.507C497.363 481.682 497.532 481.956 497.642 482.331C497.719 482.591 497.758 483.067 497.758 483.759V485.737C497.758 486.091 497.786 486.333 497.843 486.463C497.884 486.561 497.953 486.638 498.051 486.695C498.148 486.752 498.327 486.78 498.588 486.78V487H495.841V486.78H495.969C496.23 486.78 496.411 486.742 496.512 486.664C496.614 486.583 496.685 486.465 496.726 486.31C496.738 486.245 496.744 486.054 496.744 485.737V483.759C496.744 483.149 496.712 482.748 496.647 482.557C496.586 482.365 496.486 482.223 496.348 482.129C496.209 482.032 496.042 481.983 495.847 481.983C495.648 481.983 495.44 482.036 495.225 482.142C495.009 482.247 494.751 482.461 494.449 482.782V485.737C494.449 486.119 494.47 486.357 494.51 486.451C494.555 486.544 494.635 486.624 494.749 486.689C494.867 486.75 495.068 486.78 495.353 486.78V487H492.582V486.78C492.83 486.78 493.025 486.742 493.168 486.664C493.249 486.624 493.314 486.546 493.363 486.432C493.412 486.318 493.436 486.087 493.436 485.737V480.677C493.436 480.038 493.42 479.645 493.387 479.499C493.359 479.352 493.312 479.253 493.247 479.2C493.186 479.147 493.103 479.12 492.997 479.12C492.911 479.12 492.773 479.153 492.582 479.218L492.496 479.004L494.169 478.321H494.449ZM500.48 478.321C500.651 478.321 500.795 478.382 500.913 478.504C501.035 478.622 501.096 478.766 501.096 478.937C501.096 479.108 501.035 479.255 500.913 479.377C500.795 479.499 500.651 479.56 500.48 479.56C500.309 479.56 500.162 479.499 500.04 479.377C499.918 479.255 499.857 479.108 499.857 478.937C499.857 478.766 499.916 478.622 500.034 478.504C500.156 478.382 500.305 478.321 500.48 478.321ZM500.986 481.244V485.737C500.986 486.087 501.011 486.32 501.06 486.438C501.112 486.552 501.188 486.638 501.285 486.695C501.387 486.752 501.57 486.78 501.835 486.78V487H499.119V486.78C499.391 486.78 499.574 486.754 499.668 486.701C499.762 486.648 499.835 486.561 499.888 486.438C499.945 486.316 499.973 486.082 499.973 485.737V483.582C499.973 482.976 499.955 482.583 499.918 482.404C499.89 482.274 499.845 482.184 499.784 482.135C499.723 482.083 499.639 482.056 499.534 482.056C499.42 482.056 499.281 482.087 499.119 482.148L499.033 481.928L500.718 481.244H500.986ZM505.704 486.194C505.131 486.638 504.771 486.894 504.624 486.963C504.404 487.065 504.17 487.116 503.922 487.116C503.536 487.116 503.216 486.984 502.964 486.719C502.716 486.455 502.592 486.107 502.592 485.676C502.592 485.403 502.653 485.167 502.775 484.968C502.941 484.691 503.23 484.43 503.641 484.186C504.056 483.942 504.744 483.645 505.704 483.295V483.075C505.704 482.518 505.615 482.135 505.436 481.928C505.261 481.72 505.004 481.617 504.667 481.617C504.41 481.617 504.207 481.686 504.056 481.824C503.902 481.963 503.824 482.121 503.824 482.3L503.837 482.654C503.837 482.841 503.788 482.986 503.69 483.088C503.597 483.189 503.472 483.24 503.318 483.24C503.167 483.24 503.043 483.187 502.946 483.082C502.852 482.976 502.805 482.831 502.805 482.648C502.805 482.298 502.984 481.977 503.342 481.684C503.7 481.391 504.203 481.244 504.85 481.244C505.346 481.244 505.753 481.328 506.071 481.495C506.311 481.621 506.488 481.818 506.602 482.087C506.675 482.262 506.711 482.62 506.711 483.161V485.059C506.711 485.592 506.722 485.92 506.742 486.042C506.762 486.16 506.795 486.239 506.84 486.28C506.888 486.32 506.943 486.341 507.004 486.341C507.069 486.341 507.126 486.327 507.175 486.298C507.261 486.245 507.426 486.097 507.67 485.853V486.194C507.214 486.805 506.779 487.11 506.364 487.11C506.164 487.11 506.005 487.041 505.887 486.902C505.769 486.764 505.708 486.528 505.704 486.194ZM505.704 485.798V483.667C505.09 483.912 504.693 484.085 504.514 484.186C504.193 484.365 503.963 484.552 503.824 484.748C503.686 484.943 503.617 485.157 503.617 485.389C503.617 485.682 503.704 485.926 503.879 486.121C504.054 486.312 504.256 486.408 504.484 486.408C504.793 486.408 505.2 486.205 505.704 485.798ZM512.845 482.428C513.501 481.639 514.125 481.244 514.719 481.244C515.024 481.244 515.287 481.322 515.507 481.476C515.726 481.627 515.901 481.877 516.031 482.227C516.121 482.471 516.166 482.846 516.166 483.35V485.737C516.166 486.091 516.194 486.331 516.251 486.457C516.296 486.559 516.367 486.638 516.465 486.695C516.567 486.752 516.752 486.78 517.02 486.78V487H514.255V486.78H514.371C514.632 486.78 514.813 486.742 514.915 486.664C515.02 486.583 515.094 486.465 515.134 486.31C515.151 486.249 515.159 486.058 515.159 485.737V483.448C515.159 482.939 515.092 482.571 514.957 482.343C514.827 482.111 514.605 481.995 514.292 481.995C513.808 481.995 513.326 482.26 512.845 482.789V485.737C512.845 486.115 512.868 486.349 512.913 486.438C512.97 486.556 513.047 486.644 513.145 486.701C513.246 486.754 513.45 486.78 513.755 486.78V487H510.99V486.78H511.112C511.397 486.78 511.588 486.709 511.686 486.567C511.788 486.42 511.838 486.143 511.838 485.737V483.661C511.838 482.99 511.822 482.581 511.79 482.435C511.761 482.288 511.714 482.188 511.649 482.135C511.588 482.083 511.505 482.056 511.399 482.056C511.285 482.056 511.149 482.087 510.99 482.148L510.898 481.928L512.583 481.244H512.845V482.428ZM520.2 481.244C521.047 481.244 521.726 481.566 522.239 482.209C522.674 482.758 522.892 483.389 522.892 484.101C522.892 484.601 522.772 485.108 522.532 485.621C522.292 486.133 521.96 486.52 521.537 486.78C521.118 487.041 520.65 487.171 520.133 487.171C519.291 487.171 518.621 486.835 518.125 486.164C517.706 485.598 517.496 484.963 517.496 484.26C517.496 483.747 517.622 483.238 517.875 482.734C518.131 482.225 518.467 481.851 518.882 481.611C519.297 481.366 519.736 481.244 520.2 481.244ZM520.011 481.641C519.795 481.641 519.578 481.706 519.358 481.836C519.142 481.963 518.967 482.186 518.833 482.508C518.699 482.829 518.632 483.242 518.632 483.747C518.632 484.561 518.792 485.263 519.114 485.853C519.439 486.443 519.867 486.738 520.396 486.738C520.79 486.738 521.116 486.575 521.372 486.249C521.628 485.924 521.757 485.364 521.757 484.571C521.757 483.578 521.543 482.797 521.116 482.227C520.827 481.836 520.459 481.641 520.011 481.641ZM527.665 486.371C527.392 486.656 527.126 486.862 526.865 486.988C526.605 487.11 526.324 487.171 526.023 487.171C525.413 487.171 524.88 486.917 524.424 486.408C523.968 485.895 523.74 485.238 523.74 484.437C523.74 483.635 523.993 482.903 524.497 482.239C525.002 481.572 525.651 481.238 526.444 481.238C526.936 481.238 527.343 481.395 527.665 481.708V480.677C527.665 480.038 527.649 479.645 527.616 479.499C527.587 479.352 527.541 479.253 527.476 479.2C527.41 479.147 527.329 479.12 527.231 479.12C527.126 479.12 526.985 479.153 526.81 479.218L526.731 479.004L528.397 478.321H528.672V484.784C528.672 485.44 528.686 485.84 528.715 485.987C528.747 486.129 528.796 486.229 528.861 486.286C528.93 486.343 529.01 486.371 529.099 486.371C529.209 486.371 529.355 486.337 529.539 486.268L529.606 486.481L527.946 487.171H527.665V486.371ZM527.665 485.944V483.063C527.64 482.787 527.567 482.534 527.445 482.306C527.323 482.079 527.16 481.908 526.957 481.794C526.757 481.676 526.562 481.617 526.371 481.617C526.013 481.617 525.693 481.777 525.413 482.099C525.042 482.522 524.857 483.141 524.857 483.954C524.857 484.776 525.036 485.407 525.394 485.846C525.752 486.282 526.151 486.5 526.591 486.5C526.961 486.5 527.319 486.314 527.665 485.944ZM530.906 483.515C530.902 484.345 531.103 484.996 531.51 485.468C531.917 485.94 532.395 486.176 532.944 486.176C533.311 486.176 533.628 486.076 533.896 485.877C534.169 485.674 534.397 485.328 534.58 484.839L534.769 484.961C534.684 485.519 534.436 486.028 534.025 486.487C533.614 486.943 533.099 487.171 532.48 487.171C531.809 487.171 531.233 486.91 530.753 486.39C530.277 485.865 530.039 485.161 530.039 484.278C530.039 483.322 530.283 482.577 530.771 482.044C531.264 481.507 531.88 481.238 532.621 481.238C533.247 481.238 533.762 481.446 534.165 481.861C534.568 482.272 534.769 482.823 534.769 483.515H530.906ZM530.906 483.161H533.494C533.473 482.803 533.431 482.551 533.365 482.404C533.264 482.176 533.111 481.997 532.908 481.867C532.708 481.737 532.499 481.672 532.279 481.672C531.941 481.672 531.638 481.804 531.37 482.068C531.105 482.329 530.951 482.693 530.906 483.161ZM539.133 481.244V483.149H538.932C538.777 482.551 538.578 482.144 538.334 481.928C538.094 481.712 537.786 481.604 537.412 481.604C537.127 481.604 536.897 481.68 536.722 481.83C536.547 481.981 536.46 482.148 536.46 482.331C536.46 482.559 536.525 482.754 536.655 482.917C536.781 483.084 537.038 483.261 537.424 483.448L538.315 483.881C539.141 484.284 539.554 484.815 539.554 485.474C539.554 485.983 539.361 486.394 538.975 486.707C538.592 487.016 538.163 487.171 537.687 487.171C537.345 487.171 536.954 487.11 536.515 486.988C536.381 486.947 536.271 486.927 536.185 486.927C536.092 486.927 536.018 486.98 535.966 487.085H535.764V485.09H535.966C536.08 485.659 536.297 486.089 536.619 486.377C536.94 486.666 537.3 486.811 537.699 486.811C537.98 486.811 538.208 486.729 538.383 486.567C538.562 486.4 538.651 486.2 538.651 485.969C538.651 485.688 538.551 485.452 538.352 485.26C538.157 485.069 537.764 484.827 537.174 484.534C536.584 484.241 536.198 483.977 536.014 483.741C535.831 483.509 535.74 483.216 535.74 482.862C535.74 482.402 535.896 482.017 536.21 481.708C536.527 481.399 536.936 481.244 537.437 481.244C537.656 481.244 537.923 481.291 538.236 481.385C538.444 481.446 538.582 481.476 538.651 481.476C538.716 481.476 538.767 481.462 538.804 481.434C538.84 481.405 538.883 481.342 538.932 481.244H539.133Z" fill="#919191"/>
<path d="M116.5 131L252 212" stroke="#C4C4C4"/>
<path d="M251.5 212L228 75L444 215M251.5 212L444 215M251.5 212L128.5 304.5M251.5 212L288 378M444 215L410 87.5L369 291.5M444 215L472.5 337.5L369 291.5M369 291.5L288 378M288 378L81.5 394" stroke="#C4C4C4"/>
<path d="M409.5 89L228 76L473.5 337.5L288 377.5L116.5 131L409.5 89Z" stroke="#C4C4C4"/>
<path d="M408.5 89.5L252 211.5" stroke="#C4C4C4"/>
<path d="M229 75.5L116 132.5L129 304.5M229 75.5L129 304.5M229 75.5L369 292M129 304.5L83 393.5L252.5 212.5L369 292M129 304.5L288.5 377M129 304.5L369 292" stroke="#C4C4C4"/>
<g filter="url(#filter1_d)">
<g filter="url(#filter2_i)">
<circle cx="409" cy="87" r="20" fill="#F5F5F5"/>
<circle cx="409" cy="87" r="20" fill="url(#paint0_linear)"/>
</g>
<circle cx="409" cy="87" r="19.875" stroke="#D2D2D2" stroke-width="0.25"/>
<path d="M408.367 84.1801C408.567 84.4805 408.867 84.781 409.168 84.9813C409.468 85.1815 409.718 85.2316 409.969 85.2316C410.069 85.2316 410.169 85.2316 410.319 85.1815C410.87 84.9813 411.171 84.3804 411.371 83.9798C411.972 82.5277 411.872 80.5248 410.269 79.323L409.068 78.3716C408.867 78.1714 408.567 78.2214 408.367 78.4217L408.317 78.4718V78.5719C408.266 78.7222 407.315 82.5277 408.367 84.1801ZM409.919 83.6293C409.318 83.0785 409.218 81.6764 409.518 80.6249C410.269 81.2759 410.369 82.728 409.919 83.6293Z" fill="#C4C4C4"/>
<path d="M417.179 96.6983C417.129 96.5982 416.979 96.5982 416.879 96.5982H414.175L411.922 89.2875C413.824 87.535 416.879 84.2803 416.628 81.1257C416.628 79.4733 415.827 77.0698 415.026 75.3172C414.976 75.2672 414.976 75.2171 414.926 75.1169C414.876 74.9667 414.676 74.5161 414.325 74.6663C413.724 74.7664 413.774 75.4174 413.824 75.818C413.824 75.9181 413.824 76.0182 413.824 76.1184C413.874 77.0197 414.125 77.7207 414.325 78.3717C414.475 78.622 414.575 78.8724 414.676 79.1228L411.421 76.6191H411.271H411.121L410.97 76.6692L410.77 76.8695L410.82 77.0197C410.92 77.4203 411.071 77.921 411.321 78.4217C411.822 79.4232 413.324 80.4247 414.475 81.1757C414.626 81.2759 414.776 81.376 414.926 81.4762C414.676 84.3804 412.072 86.834 409.669 88.236C407.566 87.9356 405.312 86.6337 404.011 84.9312C403.109 83.7295 402.659 82.4276 402.809 81.1757L403.259 80.7752C403.71 80.3746 404.061 80.0741 404.461 79.7236C404.661 79.6235 404.762 79.5233 404.862 79.4232C405.663 78.7222 406.364 78.1213 406.364 76.8194V76.7693L406.314 76.7193C406.314 76.6191 406.214 76.519 406.063 76.4689L405.963 76.4188H405.813L405.763 76.4689C405.262 76.8194 403.86 78.1213 403.059 78.8724C403.159 78.3717 403.31 77.921 403.41 77.5204L403.51 77.22C403.76 76.6191 403.91 75.2171 403.31 74.7164L403.209 74.6162H403.109C402.058 74.6162 401.657 76.6191 401.207 79.4733C400.556 83.7795 401.858 86.5836 405.563 88.6366L403.66 96.5982L400.556 96.6482V96.8986C400.556 97.2491 400.756 97.7498 400.956 98.1004C401.056 98.2506 401.207 98.3507 401.407 98.3507H415.076C416.478 98.3507 417.229 97.9001 417.279 96.9988C417.279 96.8986 417.279 96.7985 417.179 96.6983ZM412.172 96.5982H405.663L407.315 89.588C407.415 89.6381 407.515 89.6381 407.616 89.6881C408.567 90.0386 409.518 90.3391 410.52 90.0887L412.172 96.5982Z" fill="#C4C4C4"/>
</g>
<g filter="url(#filter3_d)">
<g filter="url(#filter4_i)">
<circle cx="472" cy="336" r="20" fill="#F5F5F5"/>
<circle cx="472" cy="336" r="20" fill="url(#paint1_linear)"/>
</g>
<circle cx="472" cy="336" r="19.875" stroke="#D2D2D2" stroke-width="0.25"/>
<path d="M471.367 333.18C471.567 333.481 471.867 333.781 472.168 333.981C472.468 334.182 472.718 334.232 472.969 334.232C473.069 334.232 473.169 334.232 473.319 334.182C473.87 333.981 474.171 333.38 474.371 332.98C474.972 331.528 474.872 329.525 473.269 328.323L472.068 327.372C471.867 327.171 471.567 327.221 471.367 327.422L471.317 327.472V327.572C471.266 327.722 470.315 331.528 471.367 333.18ZM472.919 332.629C472.318 332.078 472.218 330.676 472.518 329.625C473.269 330.276 473.369 331.728 472.919 332.629Z" fill="#C4C4C4"/>
<path d="M480.179 345.698C480.129 345.598 479.979 345.598 479.879 345.598H477.175L474.922 338.288C476.824 336.535 479.879 333.28 479.628 330.126C479.628 328.473 478.827 326.07 478.026 324.317C477.976 324.267 477.976 324.217 477.926 324.117C477.876 323.967 477.676 323.516 477.325 323.666C476.724 323.766 476.774 324.417 476.824 324.818C476.824 324.918 476.824 325.018 476.824 325.118C476.874 326.02 477.125 326.721 477.325 327.372C477.475 327.622 477.575 327.872 477.676 328.123L474.421 325.619H474.271H474.121L473.97 325.669L473.77 325.869L473.82 326.02C473.92 326.42 474.071 326.921 474.321 327.422C474.822 328.423 476.324 329.425 477.475 330.176C477.626 330.276 477.776 330.376 477.926 330.476C477.676 333.38 475.072 335.834 472.669 337.236C470.566 336.936 468.312 335.634 467.011 333.931C466.109 332.729 465.659 331.428 465.809 330.176L466.259 329.775C466.71 329.375 467.061 329.074 467.461 328.724C467.661 328.623 467.762 328.523 467.862 328.423C468.663 327.722 469.364 327.121 469.364 325.819V325.769L469.314 325.719C469.314 325.619 469.214 325.519 469.063 325.469L468.963 325.419H468.813L468.763 325.469C468.262 325.819 466.86 327.121 466.059 327.872C466.159 327.372 466.31 326.921 466.41 326.52L466.51 326.22C466.76 325.619 466.91 324.217 466.31 323.716L466.209 323.616H466.109C465.058 323.616 464.657 325.619 464.207 328.473C463.556 332.78 464.858 335.584 468.563 337.637L466.66 345.598L463.556 345.648V345.899C463.556 346.249 463.756 346.75 463.956 347.1C464.056 347.251 464.207 347.351 464.407 347.351H478.076C479.478 347.351 480.229 346.9 480.279 345.999C480.279 345.899 480.279 345.798 480.179 345.698ZM475.172 345.598H468.663L470.315 338.588C470.415 338.638 470.515 338.638 470.616 338.688C471.567 339.039 472.518 339.339 473.52 339.089L475.172 345.598Z" fill="#C4C4C4"/>
</g>
<g filter="url(#filter5_d)">
<g filter="url(#filter6_i)">
<circle cx="82" cy="392" r="20" fill="#F5F5F5"/>
<circle cx="82" cy="392" r="20" fill="url(#paint2_linear)"/>
</g>
<circle cx="82" cy="392" r="19.875" stroke="#D2D2D2" stroke-width="0.25"/>
<path d="M81.3666 389.18C81.5669 389.481 81.8673 389.781 82.1677 389.981C82.4681 390.182 82.7185 390.232 82.9688 390.232C83.069 390.232 83.1691 390.232 83.3193 390.182C83.8701 389.981 84.1705 389.38 84.3708 388.98C84.9717 387.528 84.8715 385.525 83.2693 384.323L82.0676 383.372C81.8673 383.171 81.5669 383.221 81.3666 383.422L81.3165 383.472V383.572C81.2664 383.722 80.3151 387.528 81.3666 389.18ZM82.9188 388.629C82.3179 388.078 82.2178 386.676 82.5182 385.625C83.2693 386.276 83.3694 387.728 82.9188 388.629Z" fill="#C4C4C4"/>
<path d="M90.1792 401.698C90.1291 401.598 89.9789 401.598 89.8787 401.598H87.1749L84.9217 394.288C86.8244 392.535 89.8787 389.28 89.6284 386.126C89.6284 384.473 88.8272 382.07 88.0261 380.317C87.976 380.267 87.976 380.217 87.926 380.117C87.8759 379.967 87.6756 379.516 87.3251 379.666C86.7243 379.766 86.7743 380.417 86.8244 380.818C86.8244 380.918 86.8244 381.018 86.8244 381.118C86.8745 382.02 87.1248 382.721 87.3251 383.372C87.4753 383.622 87.5755 383.872 87.6756 384.123L84.421 381.619H84.2708H84.1206L83.9704 381.669L83.7701 381.869L83.8202 382.02C83.9203 382.42 84.0705 382.921 84.3209 383.422C84.8216 384.423 86.3237 385.425 87.4753 386.176C87.6255 386.276 87.7758 386.376 87.926 386.476C87.6756 389.38 85.0719 391.834 82.6685 393.236C80.5656 392.936 78.3124 391.634 77.0105 389.931C76.1093 388.729 75.6586 387.428 75.8088 386.176L76.2595 385.775C76.7101 385.375 77.0606 385.074 77.4612 384.724C77.6615 384.623 77.7616 384.523 77.8617 384.423C78.6629 383.722 79.3639 383.121 79.3639 381.819V381.769L79.3138 381.719C79.3138 381.619 79.2137 381.519 79.0634 381.469L78.9633 381.419H78.8131L78.763 381.469C78.2623 381.819 76.8603 383.121 76.0592 383.872C76.1593 383.372 76.3096 382.921 76.4097 382.52L76.5098 382.22C76.7602 381.619 76.9104 380.217 76.3096 379.716L76.2094 379.616H76.1093C75.0578 379.616 74.6572 381.619 74.2066 384.473C73.5557 388.78 74.8575 391.584 78.5627 393.637L76.6601 401.598L73.5557 401.648V401.899C73.5557 402.249 73.7559 402.75 73.9562 403.1C74.0564 403.251 74.2066 403.351 74.4069 403.351H88.0762C89.4782 403.351 90.2292 402.9 90.2793 401.999C90.2793 401.899 90.2793 401.798 90.1792 401.698ZM85.1721 401.598H78.6629L80.3152 394.588C80.4154 394.638 80.5155 394.638 80.6156 394.688C81.567 395.039 82.5183 395.339 83.5197 395.089L85.1721 401.598Z" fill="#C4C4C4"/>
</g>
<g filter="url(#filter7_d)">
<g filter="url(#filter8_i)">
<circle cx="129" cy="303" r="20" fill="#F5F5F5"/>
<circle cx="129" cy="303" r="20" fill="url(#paint3_linear)"/>
</g>
<circle cx="129" cy="303" r="19.875" stroke="#D2D2D2" stroke-width="0.25"/>
<path d="M128.367 300.18C128.567 300.481 128.867 300.781 129.168 300.981C129.468 301.182 129.718 301.232 129.969 301.232C130.069 301.232 130.169 301.232 130.319 301.182C130.87 300.981 131.171 300.38 131.371 299.98C131.972 298.528 131.872 296.525 130.269 295.323L129.068 294.372C128.867 294.171 128.567 294.221 128.367 294.422L128.317 294.472V294.572C128.266 294.722 127.315 298.528 128.367 300.18ZM129.919 299.629C129.318 299.078 129.218 297.676 129.518 296.625C130.269 297.276 130.369 298.728 129.919 299.629Z" fill="#C4C4C4"/>
<path d="M137.179 312.698C137.129 312.598 136.979 312.598 136.879 312.598H134.175L131.922 305.288C133.824 303.535 136.879 300.28 136.628 297.126C136.628 295.473 135.827 293.07 135.026 291.317C134.976 291.267 134.976 291.217 134.926 291.117C134.876 290.967 134.676 290.516 134.325 290.666C133.724 290.766 133.774 291.417 133.824 291.818C133.824 291.918 133.824 292.018 133.824 292.118C133.874 293.02 134.125 293.721 134.325 294.372C134.475 294.622 134.575 294.872 134.676 295.123L131.421 292.619H131.271H131.121L130.97 292.669L130.77 292.869L130.82 293.02C130.92 293.42 131.071 293.921 131.321 294.422C131.822 295.423 133.324 296.425 134.475 297.176C134.626 297.276 134.776 297.376 134.926 297.476C134.676 300.38 132.072 302.834 129.669 304.236C127.566 303.936 125.312 302.634 124.011 300.931C123.109 299.729 122.659 298.428 122.809 297.176L123.259 296.775C123.71 296.375 124.061 296.074 124.461 295.724C124.661 295.623 124.762 295.523 124.862 295.423C125.663 294.722 126.364 294.121 126.364 292.819V292.769L126.314 292.719C126.314 292.619 126.214 292.519 126.063 292.469L125.963 292.419H125.813L125.763 292.469C125.262 292.819 123.86 294.121 123.059 294.872C123.159 294.372 123.31 293.921 123.41 293.52L123.51 293.22C123.76 292.619 123.91 291.217 123.31 290.716L123.209 290.616H123.109C122.058 290.616 121.657 292.619 121.207 295.473C120.556 299.78 121.858 302.584 125.563 304.637L123.66 312.598L120.556 312.648V312.899C120.556 313.249 120.756 313.75 120.956 314.1C121.056 314.251 121.207 314.351 121.407 314.351H135.076C136.478 314.351 137.229 313.9 137.279 312.999C137.279 312.899 137.279 312.798 137.179 312.698ZM132.172 312.598H125.663L127.315 305.588C127.415 305.638 127.515 305.638 127.616 305.688C128.567 306.039 129.518 306.339 130.52 306.089L132.172 312.598Z" fill="#C4C4C4"/>
</g>
<g filter="url(#filter9_d)">
<g filter="url(#filter10_i)">
<circle cx="287" cy="376" r="20" fill="#F5F5F5"/>
<circle cx="287" cy="376" r="20" fill="url(#paint4_linear)"/>
</g>
<circle cx="287" cy="376" r="19.875" stroke="#D2D2D2" stroke-width="0.25"/>
<path d="M286.367 373.18C286.567 373.481 286.867 373.781 287.168 373.981C287.468 374.182 287.718 374.232 287.969 374.232C288.069 374.232 288.169 374.232 288.319 374.182C288.87 373.981 289.171 373.38 289.371 372.98C289.972 371.528 289.872 369.525 288.269 368.323L287.068 367.372C286.867 367.171 286.567 367.221 286.367 367.422L286.317 367.472V367.572C286.266 367.722 285.315 371.528 286.367 373.18ZM287.919 372.629C287.318 372.078 287.218 370.676 287.518 369.625C288.269 370.276 288.369 371.728 287.919 372.629Z" fill="#C4C4C4"/>
<path d="M295.179 385.698C295.129 385.598 294.979 385.598 294.879 385.598H292.175L289.922 378.288C291.824 376.535 294.879 373.28 294.628 370.126C294.628 368.473 293.827 366.07 293.026 364.317C292.976 364.267 292.976 364.217 292.926 364.117C292.876 363.967 292.676 363.516 292.325 363.666C291.724 363.766 291.774 364.417 291.824 364.818C291.824 364.918 291.824 365.018 291.824 365.118C291.874 366.02 292.125 366.721 292.325 367.372C292.475 367.622 292.575 367.872 292.676 368.123L289.421 365.619H289.271H289.121L288.97 365.669L288.77 365.869L288.82 366.02C288.92 366.42 289.071 366.921 289.321 367.422C289.822 368.423 291.324 369.425 292.475 370.176C292.626 370.276 292.776 370.376 292.926 370.476C292.676 373.38 290.072 375.834 287.669 377.236C285.566 376.936 283.312 375.634 282.011 373.931C281.109 372.729 280.659 371.428 280.809 370.176L281.259 369.775C281.71 369.375 282.061 369.074 282.461 368.724C282.661 368.623 282.762 368.523 282.862 368.423C283.663 367.722 284.364 367.121 284.364 365.819V365.769L284.314 365.719C284.314 365.619 284.214 365.519 284.063 365.469L283.963 365.419H283.813L283.763 365.469C283.262 365.819 281.86 367.121 281.059 367.872C281.159 367.372 281.31 366.921 281.41 366.52L281.51 366.22C281.76 365.619 281.91 364.217 281.31 363.716L281.209 363.616H281.109C280.058 363.616 279.657 365.619 279.207 368.473C278.556 372.78 279.858 375.584 283.563 377.637L281.66 385.598L278.556 385.648V385.899C278.556 386.249 278.756 386.75 278.956 387.1C279.056 387.251 279.207 387.351 279.407 387.351H293.076C294.478 387.351 295.229 386.9 295.279 385.999C295.279 385.899 295.279 385.798 295.179 385.698ZM290.172 385.598H283.663L285.315 378.588C285.415 378.638 285.515 378.638 285.616 378.688C286.567 379.039 287.518 379.339 288.52 379.089L290.172 385.598Z" fill="#C4C4C4"/>
</g>
<g filter="url(#filter11_d)">
<g filter="url(#filter12_i)">
<circle cx="228" cy="75" r="20" fill="#F5F5F5"/>
<circle cx="228" cy="75" r="20" fill="url(#paint5_linear)"/>
</g>
<circle cx="228" cy="75" r="19.875" stroke="#D2D2D2" stroke-width="0.25"/>
<path d="M227.367 72.1801C227.567 72.4805 227.867 72.781 228.168 72.9813C228.468 73.1815 228.718 73.2316 228.969 73.2316C229.069 73.2316 229.169 73.2316 229.319 73.1815C229.87 72.9813 230.171 72.3804 230.371 71.9798C230.972 70.5277 230.872 68.5248 229.269 67.323L228.068 66.3716C227.867 66.1714 227.567 66.2214 227.367 66.4217L227.317 66.4718V66.5719C227.266 66.7222 226.315 70.5277 227.367 72.1801ZM228.919 71.6293C228.318 71.0785 228.218 69.6764 228.518 68.6249C229.269 69.2759 229.369 70.728 228.919 71.6293Z" fill="black"/>
<path d="M236.179 84.6983C236.129 84.5982 235.979 84.5982 235.879 84.5982H233.175L230.922 77.2875C232.824 75.535 235.879 72.2803 235.628 69.1257C235.628 67.4733 234.827 65.0698 234.026 63.3172C233.976 63.2672 233.976 63.2171 233.926 63.1169C233.876 62.9667 233.676 62.5161 233.325 62.6663C232.724 62.7664 232.774 63.4174 232.824 63.818C232.824 63.9181 232.824 64.0182 232.824 64.1184C232.874 65.0197 233.125 65.7207 233.325 66.3717C233.475 66.622 233.575 66.8724 233.676 67.1228L230.421 64.6191H230.271H230.121L229.97 64.6692L229.77 64.8695L229.82 65.0197C229.92 65.4203 230.071 65.921 230.321 66.4217C230.822 67.4232 232.324 68.4247 233.475 69.1757C233.626 69.2759 233.776 69.376 233.926 69.4762C233.676 72.3804 231.072 74.834 228.669 76.236C226.566 75.9356 224.312 74.6337 223.011 72.9312C222.109 71.7295 221.659 70.4276 221.809 69.1757L222.259 68.7752C222.71 68.3746 223.061 68.0741 223.461 67.7236C223.661 67.6235 223.762 67.5233 223.862 67.4232C224.663 66.7222 225.364 66.1213 225.364 64.8194V64.7693L225.314 64.7193C225.314 64.6191 225.214 64.519 225.063 64.4689L224.963 64.4188H224.813L224.763 64.4689C224.262 64.8194 222.86 66.1213 222.059 66.8724C222.159 66.3717 222.31 65.921 222.41 65.5204L222.51 65.22C222.76 64.6191 222.91 63.2171 222.31 62.7164L222.209 62.6162H222.109C221.058 62.6162 220.657 64.6191 220.207 67.4733C219.556 71.7795 220.858 74.5836 224.563 76.6366L222.66 84.5982L219.556 84.6482V84.8986C219.556 85.2491 219.756 85.7498 219.956 86.1004C220.056 86.2506 220.207 86.3507 220.407 86.3507H234.076C235.478 86.3507 236.229 85.9001 236.279 84.9988C236.279 84.8986 236.279 84.7985 236.179 84.6983ZM231.172 84.5982H224.663L226.315 77.588C226.415 77.6381 226.515 77.6381 226.616 77.6881C227.567 78.0386 228.518 78.3391 229.52 78.0887L231.172 84.5982Z" fill="black"/>
</g>
<g filter="url(#filter13_d)">
<g filter="url(#filter14_i)">
<circle cx="444" cy="213" r="20" fill="#F5F5F5"/>
<circle cx="444" cy="213" r="20" fill="url(#paint6_linear)"/>
</g>
<circle cx="444" cy="213" r="19.875" stroke="#D2D2D2" stroke-width="0.25"/>
<path d="M443.367 210.18C443.567 210.481 443.867 210.781 444.168 210.981C444.468 211.182 444.718 211.232 444.969 211.232C445.069 211.232 445.169 211.232 445.319 211.182C445.87 210.981 446.171 210.38 446.371 209.98C446.972 208.528 446.872 206.525 445.269 205.323L444.068 204.372C443.867 204.171 443.567 204.221 443.367 204.422L443.317 204.472V204.572C443.266 204.722 442.315 208.528 443.367 210.18ZM444.919 209.629C444.318 209.078 444.218 207.676 444.518 206.625C445.269 207.276 445.369 208.728 444.919 209.629Z" fill="#C4C4C4"/>
<path d="M452.179 222.698C452.129 222.598 451.979 222.598 451.879 222.598H449.175L446.922 215.288C448.824 213.535 451.879 210.28 451.628 207.126C451.628 205.473 450.827 203.07 450.026 201.317C449.976 201.267 449.976 201.217 449.926 201.117C449.876 200.967 449.676 200.516 449.325 200.666C448.724 200.766 448.774 201.417 448.824 201.818C448.824 201.918 448.824 202.018 448.824 202.118C448.874 203.02 449.125 203.721 449.325 204.372C449.475 204.622 449.575 204.872 449.676 205.123L446.421 202.619H446.271H446.121L445.97 202.669L445.77 202.869L445.82 203.02C445.92 203.42 446.071 203.921 446.321 204.422C446.822 205.423 448.324 206.425 449.475 207.176C449.626 207.276 449.776 207.376 449.926 207.476C449.676 210.38 447.072 212.834 444.669 214.236C442.566 213.936 440.312 212.634 439.011 210.931C438.109 209.729 437.659 208.428 437.809 207.176L438.259 206.775C438.71 206.375 439.061 206.074 439.461 205.724C439.661 205.623 439.762 205.523 439.862 205.423C440.663 204.722 441.364 204.121 441.364 202.819V202.769L441.314 202.719C441.314 202.619 441.214 202.519 441.063 202.469L440.963 202.419H440.813L440.763 202.469C440.262 202.819 438.86 204.121 438.059 204.872C438.159 204.372 438.31 203.921 438.41 203.52L438.51 203.22C438.76 202.619 438.91 201.217 438.31 200.716L438.209 200.616H438.109C437.058 200.616 436.657 202.619 436.207 205.473C435.556 209.78 436.858 212.584 440.563 214.637L438.66 222.598L435.556 222.648V222.899C435.556 223.249 435.756 223.75 435.956 224.1C436.056 224.251 436.207 224.351 436.407 224.351H450.076C451.478 224.351 452.229 223.9 452.279 222.999C452.279 222.899 452.279 222.798 452.179 222.698ZM447.172 222.598H440.663L442.315 215.588C442.415 215.638 442.515 215.638 442.616 215.688C443.567 216.039 444.518 216.339 445.52 216.089L447.172 222.598Z" fill="#C4C4C4"/>
</g>
<g filter="url(#filter15_d)">
<g filter="url(#filter16_i)">
<circle cx="369" cy="291" r="20" fill="#F5F5F5"/>
<circle cx="369" cy="291" r="20" fill="url(#paint7_linear)"/>
</g>
<circle cx="369" cy="291" r="19.875" stroke="#D2D2D2" stroke-width="0.25"/>
<path d="M368.367 288.18C368.567 288.481 368.867 288.781 369.168 288.981C369.468 289.182 369.718 289.232 369.969 289.232C370.069 289.232 370.169 289.232 370.319 289.182C370.87 288.981 371.171 288.38 371.371 287.98C371.972 286.528 371.872 284.525 370.269 283.323L369.068 282.372C368.867 282.171 368.567 282.221 368.367 282.422L368.317 282.472V282.572C368.266 282.722 367.315 286.528 368.367 288.18ZM369.919 287.629C369.318 287.078 369.218 285.676 369.518 284.625C370.269 285.276 370.369 286.728 369.919 287.629Z" fill="#C4C4C4"/>
<path d="M377.179 300.698C377.129 300.598 376.979 300.598 376.879 300.598H374.175L371.922 293.288C373.824 291.535 376.879 288.28 376.628 285.126C376.628 283.473 375.827 281.07 375.026 279.317C374.976 279.267 374.976 279.217 374.926 279.117C374.876 278.967 374.676 278.516 374.325 278.666C373.724 278.766 373.774 279.417 373.824 279.818C373.824 279.918 373.824 280.018 373.824 280.118C373.874 281.02 374.125 281.721 374.325 282.372C374.475 282.622 374.575 282.872 374.676 283.123L371.421 280.619H371.271H371.121L370.97 280.669L370.77 280.869L370.82 281.02C370.92 281.42 371.071 281.921 371.321 282.422C371.822 283.423 373.324 284.425 374.475 285.176C374.626 285.276 374.776 285.376 374.926 285.476C374.676 288.38 372.072 290.834 369.669 292.236C367.566 291.936 365.312 290.634 364.011 288.931C363.109 287.729 362.659 286.428 362.809 285.176L363.259 284.775C363.71 284.375 364.061 284.074 364.461 283.724C364.661 283.623 364.762 283.523 364.862 283.423C365.663 282.722 366.364 282.121 366.364 280.819V280.769L366.314 280.719C366.314 280.619 366.214 280.519 366.063 280.469L365.963 280.419H365.813L365.763 280.469C365.262 280.819 363.86 282.121 363.059 282.872C363.159 282.372 363.31 281.921 363.41 281.52L363.51 281.22C363.76 280.619 363.91 279.217 363.31 278.716L363.209 278.616H363.109C362.058 278.616 361.657 280.619 361.207 283.473C360.556 287.78 361.858 290.584 365.563 292.637L363.66 300.598L360.556 300.648V300.899C360.556 301.249 360.756 301.75 360.956 302.1C361.056 302.251 361.207 302.351 361.407 302.351H375.076C376.478 302.351 377.229 301.9 377.279 300.999C377.279 300.899 377.279 300.798 377.179 300.698ZM372.172 300.598H365.663L367.315 293.588C367.415 293.638 367.515 293.638 367.616 293.688C368.567 294.039 369.518 294.339 370.52 294.089L372.172 300.598Z" fill="#C4C4C4"/>
</g>
<g filter="url(#filter17_d)">
<g filter="url(#filter18_i)">
<circle cx="251" cy="211" r="20" fill="#F5F5F5"/>
<circle cx="251" cy="211" r="20" fill="url(#paint8_linear)"/>
</g>
<circle cx="251" cy="211" r="19.875" stroke="#D2D2D2" stroke-width="0.25"/>
<path d="M250.367 208.18C250.567 208.481 250.867 208.781 251.168 208.981C251.468 209.182 251.718 209.232 251.969 209.232C252.069 209.232 252.169 209.232 252.319 209.182C252.87 208.981 253.171 208.38 253.371 207.98C253.972 206.528 253.872 204.525 252.269 203.323L251.068 202.372C250.867 202.171 250.567 202.221 250.367 202.422L250.317 202.472V202.572C250.266 202.722 249.315 206.528 250.367 208.18ZM251.919 207.629C251.318 207.078 251.218 205.676 251.518 204.625C252.269 205.276 252.369 206.728 251.919 207.629Z" fill="#C4C4C4"/>
<path d="M259.179 220.698C259.129 220.598 258.979 220.598 258.879 220.598H256.175L253.922 213.288C255.824 211.535 258.879 208.28 258.628 205.126C258.628 203.473 257.827 201.07 257.026 199.317C256.976 199.267 256.976 199.217 256.926 199.117C256.876 198.967 256.676 198.516 256.325 198.666C255.724 198.766 255.774 199.417 255.824 199.818C255.824 199.918 255.824 200.018 255.824 200.118C255.874 201.02 256.125 201.721 256.325 202.372C256.475 202.622 256.575 202.872 256.676 203.123L253.421 200.619H253.271H253.121L252.97 200.669L252.77 200.869L252.82 201.02C252.92 201.42 253.071 201.921 253.321 202.422C253.822 203.423 255.324 204.425 256.475 205.176C256.626 205.276 256.776 205.376 256.926 205.476C256.676 208.38 254.072 210.834 251.669 212.236C249.566 211.936 247.312 210.634 246.011 208.931C245.109 207.729 244.659 206.428 244.809 205.176L245.259 204.775C245.71 204.375 246.061 204.074 246.461 203.724C246.661 203.623 246.762 203.523 246.862 203.423C247.663 202.722 248.364 202.121 248.364 200.819V200.769L248.314 200.719C248.314 200.619 248.214 200.519 248.063 200.469L247.963 200.419H247.813L247.763 200.469C247.262 200.819 245.86 202.121 245.059 202.872C245.159 202.372 245.31 201.921 245.41 201.52L245.51 201.22C245.76 200.619 245.91 199.217 245.31 198.716L245.209 198.616H245.109C244.058 198.616 243.657 200.619 243.207 203.473C242.556 207.78 243.858 210.584 247.563 212.637L245.66 220.598L242.556 220.648V220.899C242.556 221.249 242.756 221.75 242.956 222.1C243.056 222.251 243.207 222.351 243.407 222.351H257.076C258.478 222.351 259.229 221.9 259.279 220.999C259.279 220.899 259.279 220.798 259.179 220.698ZM254.172 220.598H247.663L249.315 213.588C249.415 213.638 249.515 213.638 249.616 213.688C250.567 214.039 251.518 214.339 252.52 214.089L254.172 220.598Z" fill="#C4C4C4"/>
</g>
<g filter="url(#filter19_d)">
<g filter="url(#filter20_i)">
<circle cx="117" cy="131" r="20" fill="#F5F5F5"/>
<circle cx="117" cy="131" r="20" fill="url(#paint9_linear)"/>
</g>
<circle cx="117" cy="131" r="19.875" stroke="#D2D2D2" stroke-width="0.25"/>
<path d="M116.367 128.18C116.567 128.481 116.867 128.781 117.168 128.981C117.468 129.182 117.718 129.232 117.969 129.232C118.069 129.232 118.169 129.232 118.319 129.182C118.87 128.981 119.171 128.38 119.371 127.98C119.972 126.528 119.872 124.525 118.269 123.323L117.068 122.372C116.867 122.171 116.567 122.221 116.367 122.422L116.317 122.472V122.572C116.266 122.722 115.315 126.528 116.367 128.18ZM117.919 127.629C117.318 127.078 117.218 125.676 117.518 124.625C118.269 125.276 118.369 126.728 117.919 127.629Z" fill="#C4C4C4"/>
<path d="M125.179 140.698C125.129 140.598 124.979 140.598 124.879 140.598H122.175L119.922 133.288C121.824 131.535 124.879 128.28 124.628 125.126C124.628 123.473 123.827 121.07 123.026 119.317C122.976 119.267 122.976 119.217 122.926 119.117C122.876 118.967 122.676 118.516 122.325 118.666C121.724 118.766 121.774 119.417 121.824 119.818C121.824 119.918 121.824 120.018 121.824 120.118C121.874 121.02 122.125 121.721 122.325 122.372C122.475 122.622 122.575 122.872 122.676 123.123L119.421 120.619H119.271H119.121L118.97 120.669L118.77 120.869L118.82 121.02C118.92 121.42 119.071 121.921 119.321 122.422C119.822 123.423 121.324 124.425 122.475 125.176C122.626 125.276 122.776 125.376 122.926 125.476C122.676 128.38 120.072 130.834 117.669 132.236C115.566 131.936 113.312 130.634 112.011 128.931C111.109 127.729 110.659 126.428 110.809 125.176L111.259 124.775C111.71 124.375 112.061 124.074 112.461 123.724C112.661 123.623 112.762 123.523 112.862 123.423C113.663 122.722 114.364 122.121 114.364 120.819V120.769L114.314 120.719C114.314 120.619 114.214 120.519 114.063 120.469L113.963 120.419H113.813L113.763 120.469C113.262 120.819 111.86 122.121 111.059 122.872C111.159 122.372 111.31 121.921 111.41 121.52L111.51 121.22C111.76 120.619 111.91 119.217 111.31 118.716L111.209 118.616H111.109C110.058 118.616 109.657 120.619 109.207 123.473C108.556 127.78 109.858 130.584 113.563 132.637L111.66 140.598L108.556 140.648V140.899C108.556 141.249 108.756 141.75 108.956 142.1C109.056 142.251 109.207 142.351 109.407 142.351H123.076C124.478 142.351 125.229 141.9 125.279 140.999C125.279 140.899 125.279 140.798 125.179 140.698ZM120.172 140.598H113.663L115.315 133.588C115.415 133.638 115.515 133.638 115.616 133.688C116.567 134.039 117.518 134.339 118.52 134.089L120.172 140.598Z" fill="#C4C4C4"/>
</g>
<defs>
<filter id="filter0_dii" x="0" y="0" width="558" height="508" filterUnits="userSpaceOnUse" color-interpolation-filters="sRGB">
<feFlood flood-opacity="0" result="BackgroundImageFix"/>
<feColorMatrix in="SourceAlpha" type="matrix" values="0 0 0 0 0 0 0 0 0 0 0 0 0 0 0 0 0 0 127 0"/>
<feOffset dy="4"/>
<feGaussianBlur stdDeviation="2"/>
<feColorMatrix type="matrix" values="0 0 0 0 0 0 0 0 0 0 0 0 0 0 0 0 0 0 0.25 0"/>
<feBlend mode="normal" in2="BackgroundImageFix" result="effect1_dropShadow"/>
<feBlend mode="normal" in="SourceGraphic" in2="effect1_dropShadow" result="shape"/>
<feColorMatrix in="SourceAlpha" type="matrix" values="0 0 0 0 0 0 0 0 0 0 0 0 0 0 0 0 0 0 127 0" result="hardAlpha"/>
<feMorphology radius="0.5" operator="dilate" in="SourceAlpha" result="effect2_innerShadow"/>
<feOffset dy="1"/>
<feGaussianBlur stdDeviation="0.5"/>
<feComposite in2="hardAlpha" operator="arithmetic" k2="-1" k3="1"/>
<feColorMatrix type="matrix" values="0 0 0 0 0 0 0 0 0 0 0 0 0 0 0 0 0 0 0.25 0"/>
<feBlend mode="normal" in2="shape" result="effect2_innerShadow"/>
<feColorMatrix in="SourceAlpha" type="matrix" values="0 0 0 0 0 0 0 0 0 0 0 0 0 0 0 0 0 0 127 0" result="hardAlpha"/>
<feOffset dy="1"/>
<feGaussianBlur stdDeviation="1"/>
<feComposite in2="hardAlpha" operator="arithmetic" k2="-1" k3="1"/>
<feColorMatrix type="matrix" values="0 0 0 0 1 0 0 0 0 1 0 0 0 0 1 0 0 0 1 0"/>
<feBlend mode="normal" in2="effect2_innerShadow" result="effect3_innerShadow"/>
</filter>
<filter id="filter1_d" x="388" y="67" width="42" height="42" filterUnits="userSpaceOnUse" color-interpolation-filters="sRGB">
<feFlood flood-opacity="0" result="BackgroundImageFix"/>
<feColorMatrix in="SourceAlpha" type="matrix" values="0 0 0 0 0 0 0 0 0 0 0 0 0 0 0 0 0 0 127 0"/>
<feOffset dy="1"/>
<feGaussianBlur stdDeviation="0.5"/>
<feColorMatrix type="matrix" values="0 0 0 0 0 0 0 0 0 0 0 0 0 0 0 0 0 0 0.25 0"/>
<feBlend mode="normal" in2="BackgroundImageFix" result="effect1_dropShadow"/>
<feBlend mode="normal" in="SourceGraphic" in2="effect1_dropShadow" result="shape"/>
</filter>
<filter id="filter2_i" x="389" y="66" width="40" height="41" filterUnits="userSpaceOnUse" color-interpolation-filters="sRGB">
<feFlood flood-opacity="0" result="BackgroundImageFix"/>
<feBlend mode="normal" in="SourceGraphic" in2="BackgroundImageFix" result="shape"/>
<feColorMatrix in="SourceAlpha" type="matrix" values="0 0 0 0 0 0 0 0 0 0 0 0 0 0 0 0 0 0 127 0" result="hardAlpha"/>
<feOffset dy="-1"/>
<feGaussianBlur stdDeviation="1"/>
<feComposite in2="hardAlpha" operator="arithmetic" k2="-1" k3="1"/>
<feColorMatrix type="matrix" values="0 0 0 0 0 0 0 0 0 0 0 0 0 0 0 0 0 0 0.2 0"/>
<feBlend mode="normal" in2="shape" result="effect1_innerShadow"/>
</filter>
<filter id="filter3_d" x="451" y="316" width="42" height="42" filterUnits="userSpaceOnUse" color-interpolation-filters="sRGB">
<feFlood flood-opacity="0" result="BackgroundImageFix"/>
<feColorMatrix in="SourceAlpha" type="matrix" values="0 0 0 0 0 0 0 0 0 0 0 0 0 0 0 0 0 0 127 0"/>
<feOffset dy="1"/>
<feGaussianBlur stdDeviation="0.5"/>
<feColorMatrix type="matrix" values="0 0 0 0 0 0 0 0 0 0 0 0 0 0 0 0 0 0 0.25 0"/>
<feBlend mode="normal" in2="BackgroundImageFix" result="effect1_dropShadow"/>
<feBlend mode="normal" in="SourceGraphic" in2="effect1_dropShadow" result="shape"/>
</filter>
<filter id="filter4_i" x="452" y="315" width="40" height="41" filterUnits="userSpaceOnUse" color-interpolation-filters="sRGB">
<feFlood flood-opacity="0" result="BackgroundImageFix"/>
<feBlend mode="normal" in="SourceGraphic" in2="BackgroundImageFix" result="shape"/>
<feColorMatrix in="SourceAlpha" type="matrix" values="0 0 0 0 0 0 0 0 0 0 0 0 0 0 0 0 0 0 127 0" result="hardAlpha"/>
<feOffset dy="-1"/>
<feGaussianBlur stdDeviation="1"/>
<feComposite in2="hardAlpha" operator="arithmetic" k2="-1" k3="1"/>
<feColorMatrix type="matrix" values="0 0 0 0 0 0 0 0 0 0 0 0 0 0 0 0 0 0 0.2 0"/>
<feBlend mode="normal" in2="shape" result="effect1_innerShadow"/>
</filter>
<filter id="filter5_d" x="61" y="372" width="42" height="42" filterUnits="userSpaceOnUse" color-interpolation-filters="sRGB">
<feFlood flood-opacity="0" result="BackgroundImageFix"/>
<feColorMatrix in="SourceAlpha" type="matrix" values="0 0 0 0 0 0 0 0 0 0 0 0 0 0 0 0 0 0 127 0"/>
<feOffset dy="1"/>
<feGaussianBlur stdDeviation="0.5"/>
<feColorMatrix type="matrix" values="0 0 0 0 0 0 0 0 0 0 0 0 0 0 0 0 0 0 0.25 0"/>
<feBlend mode="normal" in2="BackgroundImageFix" result="effect1_dropShadow"/>
<feBlend mode="normal" in="SourceGraphic" in2="effect1_dropShadow" result="shape"/>
</filter>
<filter id="filter6_i" x="62" y="371" width="40" height="41" filterUnits="userSpaceOnUse" color-interpolation-filters="sRGB">
<feFlood flood-opacity="0" result="BackgroundImageFix"/>
<feBlend mode="normal" in="SourceGraphic" in2="BackgroundImageFix" result="shape"/>
<feColorMatrix in="SourceAlpha" type="matrix" values="0 0 0 0 0 0 0 0 0 0 0 0 0 0 0 0 0 0 127 0" result="hardAlpha"/>
<feOffset dy="-1"/>
<feGaussianBlur stdDeviation="1"/>
<feComposite in2="hardAlpha" operator="arithmetic" k2="-1" k3="1"/>
<feColorMatrix type="matrix" values="0 0 0 0 0 0 0 0 0 0 0 0 0 0 0 0 0 0 0.2 0"/>
<feBlend mode="normal" in2="shape" result="effect1_innerShadow"/>
</filter>
<filter id="filter7_d" x="108" y="283" width="42" height="42" filterUnits="userSpaceOnUse" color-interpolation-filters="sRGB">
<feFlood flood-opacity="0" result="BackgroundImageFix"/>
<feColorMatrix in="SourceAlpha" type="matrix" values="0 0 0 0 0 0 0 0 0 0 0 0 0 0 0 0 0 0 127 0"/>
<feOffset dy="1"/>
<feGaussianBlur stdDeviation="0.5"/>
<feColorMatrix type="matrix" values="0 0 0 0 0 0 0 0 0 0 0 0 0 0 0 0 0 0 0.25 0"/>
<feBlend mode="normal" in2="BackgroundImageFix" result="effect1_dropShadow"/>
<feBlend mode="normal" in="SourceGraphic" in2="effect1_dropShadow" result="shape"/>
</filter>
<filter id="filter8_i" x="109" y="282" width="40" height="41" filterUnits="userSpaceOnUse" color-interpolation-filters="sRGB">
<feFlood flood-opacity="0" result="BackgroundImageFix"/>
<feBlend mode="normal" in="SourceGraphic" in2="BackgroundImageFix" result="shape"/>
<feColorMatrix in="SourceAlpha" type="matrix" values="0 0 0 0 0 0 0 0 0 0 0 0 0 0 0 0 0 0 127 0" result="hardAlpha"/>
<feOffset dy="-1"/>
<feGaussianBlur stdDeviation="1"/>
<feComposite in2="hardAlpha" operator="arithmetic" k2="-1" k3="1"/>
<feColorMatrix type="matrix" values="0 0 0 0 0 0 0 0 0 0 0 0 0 0 0 0 0 0 0.2 0"/>
<feBlend mode="normal" in2="shape" result="effect1_innerShadow"/>
</filter>
<filter id="filter9_d" x="266" y="356" width="42" height="42" filterUnits="userSpaceOnUse" color-interpolation-filters="sRGB">
<feFlood flood-opacity="0" result="BackgroundImageFix"/>
<feColorMatrix in="SourceAlpha" type="matrix" values="0 0 0 0 0 0 0 0 0 0 0 0 0 0 0 0 0 0 127 0"/>
<feOffset dy="1"/>
<feGaussianBlur stdDeviation="0.5"/>
<feColorMatrix type="matrix" values="0 0 0 0 0 0 0 0 0 0 0 0 0 0 0 0 0 0 0.25 0"/>
<feBlend mode="normal" in2="BackgroundImageFix" result="effect1_dropShadow"/>
<feBlend mode="normal" in="SourceGraphic" in2="effect1_dropShadow" result="shape"/>
</filter>
<filter id="filter10_i" x="267" y="355" width="40" height="41" filterUnits="userSpaceOnUse" color-interpolation-filters="sRGB">
<feFlood flood-opacity="0" result="BackgroundImageFix"/>
<feBlend mode="normal" in="SourceGraphic" in2="BackgroundImageFix" result="shape"/>
<feColorMatrix in="SourceAlpha" type="matrix" values="0 0 0 0 0 0 0 0 0 0 0 0 0 0 0 0 0 0 127 0" result="hardAlpha"/>
<feOffset dy="-1"/>
<feGaussianBlur stdDeviation="1"/>
<feComposite in2="hardAlpha" operator="arithmetic" k2="-1" k3="1"/>
<feColorMatrix type="matrix" values="0 0 0 0 0 0 0 0 0 0 0 0 0 0 0 0 0 0 0.2 0"/>
<feBlend mode="normal" in2="shape" result="effect1_innerShadow"/>
</filter>
<filter id="filter11_d" x="207" y="55" width="42" height="42" filterUnits="userSpaceOnUse" color-interpolation-filters="sRGB">
<feFlood flood-opacity="0" result="BackgroundImageFix"/>
<feColorMatrix in="SourceAlpha" type="matrix" values="0 0 0 0 0 0 0 0 0 0 0 0 0 0 0 0 0 0 127 0"/>
<feOffset dy="1"/>
<feGaussianBlur stdDeviation="0.5"/>
<feColorMatrix type="matrix" values="0 0 0 0 0 0 0 0 0 0 0 0 0 0 0 0 0 0 0.25 0"/>
<feBlend mode="normal" in2="BackgroundImageFix" result="effect1_dropShadow"/>
<feBlend mode="normal" in="SourceGraphic" in2="effect1_dropShadow" result="shape"/>
</filter>
<filter id="filter12_i" x="208" y="54" width="40" height="41" filterUnits="userSpaceOnUse" color-interpolation-filters="sRGB">
<feFlood flood-opacity="0" result="BackgroundImageFix"/>
<feBlend mode="normal" in="SourceGraphic" in2="BackgroundImageFix" result="shape"/>
<feColorMatrix in="SourceAlpha" type="matrix" values="0 0 0 0 0 0 0 0 0 0 0 0 0 0 0 0 0 0 127 0" result="hardAlpha"/>
<feOffset dy="-1"/>
<feGaussianBlur stdDeviation="1"/>
<feComposite in2="hardAlpha" operator="arithmetic" k2="-1" k3="1"/>
<feColorMatrix type="matrix" values="0 0 0 0 0 0 0 0 0 0 0 0 0 0 0 0 0 0 0.2 0"/>
<feBlend mode="normal" in2="shape" result="effect1_innerShadow"/>
</filter>
<filter id="filter13_d" x="423" y="193" width="42" height="42" filterUnits="userSpaceOnUse" color-interpolation-filters="sRGB">
<feFlood flood-opacity="0" result="BackgroundImageFix"/>
<feColorMatrix in="SourceAlpha" type="matrix" values="0 0 0 0 0 0 0 0 0 0 0 0 0 0 0 0 0 0 127 0"/>
<feOffset dy="1"/>
<feGaussianBlur stdDeviation="0.5"/>
<feColorMatrix type="matrix" values="0 0 0 0 0 0 0 0 0 0 0 0 0 0 0 0 0 0 0.25 0"/>
<feBlend mode="normal" in2="BackgroundImageFix" result="effect1_dropShadow"/>
<feBlend mode="normal" in="SourceGraphic" in2="effect1_dropShadow" result="shape"/>
</filter>
<filter id="filter14_i" x="424" y="192" width="40" height="41" filterUnits="userSpaceOnUse" color-interpolation-filters="sRGB">
<feFlood flood-opacity="0" result="BackgroundImageFix"/>
<feBlend mode="normal" in="SourceGraphic" in2="BackgroundImageFix" result="shape"/>
<feColorMatrix in="SourceAlpha" type="matrix" values="0 0 0 0 0 0 0 0 0 0 0 0 0 0 0 0 0 0 127 0" result="hardAlpha"/>
<feOffset dy="-1"/>
<feGaussianBlur stdDeviation="1"/>
<feComposite in2="hardAlpha" operator="arithmetic" k2="-1" k3="1"/>
<feColorMatrix type="matrix" values="0 0 0 0 0 0 0 0 0 0 0 0 0 0 0 0 0 0 0.2 0"/>
<feBlend mode="normal" in2="shape" result="effect1_innerShadow"/>
</filter>
<filter id="filter15_d" x="348" y="271" width="42" height="42" filterUnits="userSpaceOnUse" color-interpolation-filters="sRGB">
<feFlood flood-opacity="0" result="BackgroundImageFix"/>
<feColorMatrix in="SourceAlpha" type="matrix" values="0 0 0 0 0 0 0 0 0 0 0 0 0 0 0 0 0 0 127 0"/>
<feOffset dy="1"/>
<feGaussianBlur stdDeviation="0.5"/>
<feColorMatrix type="matrix" values="0 0 0 0 0 0 0 0 0 0 0 0 0 0 0 0 0 0 0.25 0"/>
<feBlend mode="normal" in2="BackgroundImageFix" result="effect1_dropShadow"/>
<feBlend mode="normal" in="SourceGraphic" in2="effect1_dropShadow" result="shape"/>
</filter>
<filter id="filter16_i" x="349" y="270" width="40" height="41" filterUnits="userSpaceOnUse" color-interpolation-filters="sRGB">
<feFlood flood-opacity="0" result="BackgroundImageFix"/>
<feBlend mode="normal" in="SourceGraphic" in2="BackgroundImageFix" result="shape"/>
<feColorMatrix in="SourceAlpha" type="matrix" values="0 0 0 0 0 0 0 0 0 0 0 0 0 0 0 0 0 0 127 0" result="hardAlpha"/>
<feOffset dy="-1"/>
<feGaussianBlur stdDeviation="1"/>
<feComposite in2="hardAlpha" operator="arithmetic" k2="-1" k3="1"/>
<feColorMatrix type="matrix" values="0 0 0 0 0 0 0 0 0 0 0 0 0 0 0 0 0 0 0.2 0"/>
<feBlend mode="normal" in2="shape" result="effect1_innerShadow"/>
</filter>
<filter id="filter17_d" x="230" y="191" width="42" height="42" filterUnits="userSpaceOnUse" color-interpolation-filters="sRGB">
<feFlood flood-opacity="0" result="BackgroundImageFix"/>
<feColorMatrix in="SourceAlpha" type="matrix" values="0 0 0 0 0 0 0 0 0 0 0 0 0 0 0 0 0 0 127 0"/>
<feOffset dy="1"/>
<feGaussianBlur stdDeviation="0.5"/>
<feColorMatrix type="matrix" values="0 0 0 0 0 0 0 0 0 0 0 0 0 0 0 0 0 0 0.25 0"/>
<feBlend mode="normal" in2="BackgroundImageFix" result="effect1_dropShadow"/>
<feBlend mode="normal" in="SourceGraphic" in2="effect1_dropShadow" result="shape"/>
</filter>
<filter id="filter18_i" x="231" y="190" width="40" height="41" filterUnits="userSpaceOnUse" color-interpolation-filters="sRGB">
<feFlood flood-opacity="0" result="BackgroundImageFix"/>
<feBlend mode="normal" in="SourceGraphic" in2="BackgroundImageFix" result="shape"/>
<feColorMatrix in="SourceAlpha" type="matrix" values="0 0 0 0 0 0 0 0 0 0 0 0 0 0 0 0 0 0 127 0" result="hardAlpha"/>
<feOffset dy="-1"/>
<feGaussianBlur stdDeviation="1"/>
<feComposite in2="hardAlpha" operator="arithmetic" k2="-1" k3="1"/>
<feColorMatrix type="matrix" values="0 0 0 0 0 0 0 0 0 0 0 0 0 0 0 0 0 0 0.2 0"/>
<feBlend mode="normal" in2="shape" result="effect1_innerShadow"/>
</filter>
<filter id="filter19_d" x="96" y="111" width="42" height="42" filterUnits="userSpaceOnUse" color-interpolation-filters="sRGB">
<feFlood flood-opacity="0" result="BackgroundImageFix"/>
<feColorMatrix in="SourceAlpha" type="matrix" values="0 0 0 0 0 0 0 0 0 0 0 0 0 0 0 0 0 0 127 0"/>
<feOffset dy="1"/>
<feGaussianBlur stdDeviation="0.5"/>
<feColorMatrix type="matrix" values="0 0 0 0 0 0 0 0 0 0 0 0 0 0 0 0 0 0 0.25 0"/>
<feBlend mode="normal" in2="BackgroundImageFix" result="effect1_dropShadow"/>
<feBlend mode="normal" in="SourceGraphic" in2="effect1_dropShadow" result="shape"/>
</filter>
<filter id="filter20_i" x="97" y="110" width="40" height="41" filterUnits="userSpaceOnUse" color-interpolation-filters="sRGB">
<feFlood flood-opacity="0" result="BackgroundImageFix"/>
<feBlend mode="normal" in="SourceGraphic" in2="BackgroundImageFix" result="shape"/>
<feColorMatrix in="SourceAlpha" type="matrix" values="0 0 0 0 0 0 0 0 0 0 0 0 0 0 0 0 0 0 127 0" result="hardAlpha"/>
<feOffset dy="-1"/>
<feGaussianBlur stdDeviation="1"/>
<feComposite in2="hardAlpha" operator="arithmetic" k2="-1" k3="1"/>
<feColorMatrix type="matrix" values="0 0 0 0 0 0 0 0 0 0 0 0 0 0 0 0 0 0 0.2 0"/>
<feBlend mode="normal" in2="shape" result="effect1_innerShadow"/>
</filter>
<linearGradient id="paint0_linear" x1="409" y1="67" x2="409" y2="107" gradientUnits="userSpaceOnUse">
<stop stop-color="white"/>
<stop offset="1" stop-color="white" stop-opacity="0"/>
</linearGradient>
<linearGradient id="paint1_linear" x1="472" y1="316" x2="472" y2="356" gradientUnits="userSpaceOnUse">
<stop stop-color="white"/>
<stop offset="1" stop-color="white" stop-opacity="0"/>
</linearGradient>
<linearGradient id="paint2_linear" x1="82" y1="372" x2="82" y2="412" gradientUnits="userSpaceOnUse">
<stop stop-color="white"/>
<stop offset="1" stop-color="white" stop-opacity="0"/>
</linearGradient>
<linearGradient id="paint3_linear" x1="129" y1="283" x2="129" y2="323" gradientUnits="userSpaceOnUse">
<stop stop-color="white"/>
<stop offset="1" stop-color="white" stop-opacity="0"/>
</linearGradient>
<linearGradient id="paint4_linear" x1="287" y1="356" x2="287" y2="396" gradientUnits="userSpaceOnUse">
<stop stop-color="white"/>
<stop offset="1" stop-color="white" stop-opacity="0"/>
</linearGradient>
<linearGradient id="paint5_linear" x1="228" y1="55" x2="228" y2="95" gradientUnits="userSpaceOnUse">
<stop stop-color="white"/>
<stop offset="1" stop-color="white" stop-opacity="0"/>
</linearGradient>
<linearGradient id="paint6_linear" x1="444" y1="193" x2="444" y2="233" gradientUnits="userSpaceOnUse">
<stop stop-color="white"/>
<stop offset="1" stop-color="white" stop-opacity="0"/>
</linearGradient>
<linearGradient id="paint7_linear" x1="369" y1="271" x2="369" y2="311" gradientUnits="userSpaceOnUse">
<stop stop-color="white"/>
<stop offset="1" stop-color="white" stop-opacity="0"/>
</linearGradient>
<linearGradient id="paint8_linear" x1="251" y1="191" x2="251" y2="231" gradientUnits="userSpaceOnUse">
<stop stop-color="white"/>
<stop offset="1" stop-color="white" stop-opacity="0"/>
</linearGradient>
<linearGradient id="paint9_linear" x1="117" y1="111" x2="117" y2="151" gradientUnits="userSpaceOnUse">
<stop stop-color="white"/>
<stop offset="1" stop-color="white" stop-opacity="0"/>
</linearGradient>
</defs>
</svg>
