<svg width="233" height="233" viewBox="0 0 233 233" fill="none" xmlns="http://www.w3.org/2000/svg">
<g filter="url(#filter0_dii)">
<circle cx="116.5" cy="112.5" r="112.5" fill="#F5F5F5"/>
<circle cx="116.5" cy="112.5" r="112.5" fill="url(#paint0_linear)"/>
<circle cx="116.5" cy="112.5" r="112" stroke="url(#paint1_radial)"/>
</g>
<path d="M77.3921 99.0011C74.443 99.0222 72.1774 96.8721 72.1826 94.0598C72.1879 91.2106 74.422 89.1447 77.534 89.1132C80.5409 89.0816 82.7487 91.116 82.7908 93.9599C82.8328 96.8564 80.5619 98.9801 77.3921 99.0011Z" fill="#5551FF"/>
<path d="M82.2337 88.4303C79.4949 88.4513 77.1399 86.1436 77.1504 83.4574C77.1662 80.5504 79.558 78.3793 82.7331 78.3951C85.4088 78.4109 87.7008 80.6503 87.7638 83.3102C87.8322 86.1699 85.4193 88.404 82.2337 88.4303Z" fill="#5551FF"/>
<path d="M152.453 82.2003C149.435 82.2213 147.301 80.2027 147.296 77.3115C147.291 74.3572 149.488 72.3176 152.689 72.3018C155.544 72.2913 157.762 74.3887 157.82 77.1643C157.873 80.0398 155.596 82.174 152.453 82.2003Z" fill="#5551FF"/>
<path d="M142.323 87.9043C142.334 85.0551 144.689 82.9209 147.811 82.9209C150.582 82.9209 152.884 85.2076 152.858 87.9201C152.826 90.764 150.45 92.9088 147.343 92.9035C144.542 92.893 142.313 90.6746 142.323 87.9043Z" fill="#5551FF"/>
<path d="M75.6039 78.5207C72.8073 78.5312 70.6521 76.5179 70.6205 73.8685C70.5837 71.1192 72.9861 68.9639 76.0455 68.9955C78.6844 69.027 80.7556 71.1402 80.7503 73.7949C80.7398 76.6441 78.7054 78.5102 75.6039 78.5207Z" fill="#5551FF"/>
<path d="M159.141 91.6256C156.397 91.6413 154.168 89.5071 154.205 86.8945C154.241 84.2135 156.497 82.1529 159.446 82.1161C162.063 82.0845 164.255 84.2135 164.277 86.8104C164.298 89.5544 162.111 91.6045 159.141 91.6256Z" fill="#5551FF"/>
<path d="M154.12 102.161C151.324 102.155 149.379 100.226 149.395 97.4768C149.41 94.7591 151.539 92.8193 154.504 92.8193C157.18 92.8193 159.314 94.9273 159.283 97.5452C159.246 100.221 157.075 102.166 154.12 102.161Z" fill="#5551FF"/>
<path d="M110.998 146.576C108.359 146.591 106.33 144.657 106.319 142.128C106.309 139.51 108.48 137.502 111.313 137.518C113.884 137.529 115.929 139.553 115.918 142.071C115.902 144.699 113.873 146.56 110.998 146.576Z" fill="#5551FF"/>
<path d="M138.103 98.4805C138.129 95.9626 140.121 94.1753 142.892 94.191C145.263 94.2068 147.218 96.1991 147.187 98.5699C147.155 101.051 145.084 102.896 142.361 102.859C139.958 102.833 138.077 100.904 138.103 98.4805Z" fill="#5551FF"/>
<path d="M88.8661 97.3187C86.5374 97.2714 84.5556 95.258 84.6187 92.9976C84.687 90.4849 86.7739 88.645 89.4864 88.7081C91.8099 88.7607 93.7654 90.753 93.7391 93.0344C93.7129 95.4999 91.5786 97.3713 88.8661 97.3187Z" fill="#5551FF"/>
<path d="M122.589 145.266C120.155 145.25 118.3 143.436 118.3 141.081C118.3 138.632 120.297 136.771 122.952 136.75C125.354 136.734 127.31 138.679 127.284 141.065C127.257 143.583 125.36 145.281 122.589 145.266Z" fill="#5551FF"/>
<path d="M117.832 155.79C115.241 155.821 113.416 154.123 113.411 151.674C113.406 149.334 115.319 147.531 117.864 147.479C120.345 147.426 122.2 149.145 122.243 151.521C122.279 154.076 120.545 155.758 117.832 155.79Z" fill="#5551FF"/>
<path d="M72.461 108.737C69.9903 108.747 68.2135 107.081 68.1925 104.736C68.1767 102.308 70.1375 100.489 72.7606 100.51C75.0315 100.526 76.9818 102.492 76.945 104.726C76.9082 106.997 74.9737 108.726 72.461 108.737Z" fill="#5551FF"/>
<path d="M70.6631 88.4987C68.2503 88.5092 66.4051 86.7692 66.3946 84.4773C66.3789 82.1433 68.2976 80.3717 70.8786 80.3244C73.1969 80.2824 75.1471 82.1433 75.1419 84.3932C75.1366 86.8008 73.302 88.4882 70.6631 88.4987Z" fill="#5551FF"/>
<path d="M137.786 105.178C140.025 105.167 141.881 106.923 141.897 109.078C141.918 111.344 139.946 113.158 137.491 113.147C135.305 113.137 133.428 111.291 133.439 109.162C133.449 106.965 135.384 105.194 137.786 105.178Z" fill="#5551FF"/>
<path d="M74.0758 128.822C71.9205 128.812 70.1332 127.035 70.128 124.89C70.1175 122.709 72.1308 120.916 74.5384 120.958C76.7042 120.995 78.481 122.777 78.481 124.906C78.4757 127.145 76.5833 128.828 74.0758 128.822Z" fill="#5551FF"/>
<path d="M157.694 141.849C155.396 141.838 153.62 140.098 153.667 137.906C153.72 135.693 155.559 134.058 157.988 134.069C160.327 134.079 161.973 135.73 161.941 138.032C161.91 140.351 160.227 141.859 157.694 141.849Z" fill="#5551FF"/>
<path d="M104.281 136.329C101.953 136.324 100.239 134.657 100.26 132.418C100.281 130.178 102.063 128.559 104.518 128.549C106.794 128.538 108.576 130.284 108.55 132.481C108.524 134.726 106.731 136.334 104.281 136.329Z" fill="#5551FF"/>
<path d="M88.3269 103.595C88.3427 105.908 86.5449 107.559 84.0216 107.543C81.8821 107.533 80.037 105.698 80.0738 103.616C80.1053 101.451 82.0293 99.7106 84.3686 99.7158C86.5606 99.7211 88.3164 101.435 88.3269 103.595Z" fill="#5551FF"/>
<path d="M127.619 134.242C125.332 134.242 123.671 132.649 123.655 130.441C123.634 128.171 125.511 126.452 127.977 126.488C130.116 126.52 131.951 128.355 131.914 130.431C131.867 132.66 130.084 134.242 127.619 134.242Z" fill="#5551FF"/>
<path d="M128.642 119.581C128.716 117.357 130.524 115.854 133.047 115.922C135.245 115.985 136.979 117.799 136.869 119.917C136.753 122.162 134.787 123.797 132.343 123.681C130.172 123.581 128.568 121.804 128.642 119.581Z" fill="#5551FF"/>
<path d="M160.894 110.855C158.629 110.85 157.025 109.31 157.025 107.123C157.025 104.92 158.781 103.307 161.168 103.322C163.349 103.338 165.063 105.005 165.058 107.102C165.052 109.32 163.349 110.855 160.894 110.855Z" fill="#5551FF"/>
<path d="M160.051 117.747C160.036 119.907 158.169 121.563 155.83 121.5C153.743 121.442 152.051 119.713 152.093 117.689C152.135 115.602 153.922 114.051 156.261 114.067C158.427 114.088 160.067 115.681 160.051 117.747Z" fill="#5551FF"/>
<path d="M76.1771 141.439C78.3482 141.434 79.9252 142.979 79.9304 145.119C79.9357 147.274 78.222 148.862 75.8985 148.856C73.9009 148.851 72.1872 147.185 72.1557 145.213C72.1241 143.1 73.8904 141.444 76.1771 141.439Z" fill="#5551FF"/>
<path d="M101.478 122.772C101.504 124.927 99.8012 126.53 97.483 126.525C95.538 126.525 93.84 124.906 93.7822 122.998C93.7139 120.9 95.4591 119.234 97.7721 119.187C99.8328 119.139 101.457 120.711 101.478 122.772Z" fill="#5551FF"/>
<path d="M157.301 70.2829C155.287 70.2461 153.584 68.5061 153.658 66.5717C153.742 64.4479 155.398 63.0391 157.753 63.0969C159.797 63.1442 161.369 64.7108 161.338 66.6663C161.301 68.7217 159.508 70.325 157.301 70.2829Z" fill="#5551FF"/>
<path d="M69.2812 138.953C67.2573 138.958 65.6803 137.497 65.6487 135.594C65.6225 133.67 67.3362 132.051 69.4336 132.025C71.4049 131.998 73.0765 133.639 73.045 135.573C73.0187 137.497 71.3996 138.953 69.2812 138.953Z" fill="#5551FF"/>
<path d="M90.9981 109.878C93.022 109.867 94.599 111.345 94.5937 113.242C94.5885 115.177 92.9799 116.628 90.8457 116.622C88.8218 116.617 87.3972 115.261 87.3762 113.316C87.3552 111.25 88.7903 109.888 90.9981 109.878Z" fill="#5551FF"/>
<path d="M149.332 111.538C147.471 111.612 145.799 110.072 145.763 108.247C145.72 106.313 147.313 104.794 149.426 104.752C151.261 104.715 152.833 106.155 152.938 107.969C153.043 109.845 151.419 111.454 149.332 111.538Z" fill="#5551FF"/>
<path d="M79.4002 110.934C81.4082 110.95 82.8276 112.354 82.8118 114.299C82.796 116.212 81.2505 117.642 79.1846 117.647C77.2659 117.658 75.6679 116.149 75.6573 114.314C75.6416 112.375 77.2607 110.918 79.4002 110.934Z" fill="#5551FF"/>
<path d="M96.1172 99.2323C97.9203 99.2586 99.4763 100.804 99.492 102.581C99.5025 104.473 97.7888 106.056 95.765 106.019C93.8463 105.987 92.3481 104.468 92.3744 102.591C92.4006 100.615 93.9777 99.206 96.1172 99.2323Z" fill="#5551FF"/>
<path d="M162.64 130.562C160.664 130.546 159.339 129.206 159.381 127.25C159.418 125.353 160.9 124.044 162.976 124.075C164.78 124.102 166.288 125.558 166.315 127.287C166.341 129.148 164.727 130.583 162.64 130.562Z" fill="#5551FF"/>
<path d="M164.03 79.3942C162.216 79.3626 160.881 78.0064 160.918 76.2191C160.955 74.3845 162.432 73.065 164.408 73.1018C166.159 73.1386 167.589 74.5947 167.552 76.2927C167.504 78.1168 166.017 79.4257 164.03 79.3942Z" fill="#5551FF"/>
<path d="M152.822 151.564C151.119 151.574 149.762 150.307 149.715 148.673C149.668 146.964 151.082 145.639 152.958 145.629C154.651 145.618 156.028 146.891 156.081 148.515C156.134 150.202 154.683 151.559 152.822 151.564Z" fill="#5551FF"/>
<path d="M67.4715 118.178C65.8367 118.162 64.5014 116.853 64.5277 115.281C64.554 113.599 65.9628 112.337 67.7764 112.385C69.3377 112.427 70.6466 113.709 70.6676 115.229C70.6939 116.89 69.2798 118.193 67.4715 118.178Z" fill="#5551FF"/>
<path d="M167.639 147.511C167.67 149.072 166.272 150.434 164.595 150.476C162.976 150.518 161.578 149.262 161.525 147.716C161.467 146.071 162.871 144.694 164.621 144.678C166.209 144.667 167.607 145.971 167.639 147.511Z" fill="#5551FF"/>
<path d="M68.2043 155.596C68.2885 154.029 69.6657 152.904 71.3742 152.994C72.9354 153.078 74.134 154.313 74.0867 155.79C74.0394 157.388 72.578 158.661 70.8906 158.561C69.324 158.471 68.1202 157.136 68.2043 155.596Z" fill="#5551FF"/>
<path d="M99.7296 112.29C99.719 110.697 100.996 109.446 102.663 109.419C104.219 109.393 105.57 110.66 105.596 112.163C105.622 113.704 104.282 114.986 102.621 115.013C100.991 115.034 99.7401 113.856 99.7296 112.29Z" fill="#5551FF"/>
<path d="M115.993 134.201C114.384 134.174 113.138 132.934 113.159 131.394C113.186 129.848 114.589 128.602 116.235 128.665C117.754 128.723 119.026 129.98 119.015 131.415C119.005 132.96 117.633 134.227 115.993 134.201Z" fill="#5551FF"/>
<path d="M65.7789 97.6761C64.2702 97.6813 63.0296 96.5301 63.0138 95.1055C62.9981 93.6283 64.2229 92.4876 65.8525 92.4666C67.3664 92.4456 68.5702 93.5758 68.5913 95.0319C68.6123 96.5196 67.3875 97.6708 65.7789 97.6761Z" fill="#5551FF"/>
<path d="M153.837 128.392C153.816 129.89 152.549 131.046 150.982 130.994C149.563 130.947 148.38 129.774 148.375 128.413C148.37 126.93 149.605 125.753 151.182 125.748C152.67 125.742 153.858 126.925 153.837 128.392Z" fill="#5551FF"/>
<path d="M69.0278 61.7832C70.5365 61.7832 71.5616 62.7399 71.5721 64.1593C71.5879 65.6154 70.4997 66.6667 68.9805 66.6615C67.5612 66.6615 66.4152 65.5944 66.389 64.2591C66.3679 62.8766 67.5349 61.7832 69.0278 61.7832Z" fill="#5551FF" fill-opacity="0.4"/>
<path d="M80.9726 136.856C79.5743 136.845 78.5071 135.831 78.4914 134.501C78.4756 133.186 79.6426 132.109 81.104 132.098C82.4497 132.088 83.5641 133.16 83.5747 134.48C83.5799 135.836 82.4497 136.866 80.9726 136.856Z" fill="#5551FF"/>
<path d="M166.067 94.1227C167.492 94.1385 168.501 95.132 168.48 96.4988C168.459 97.8708 167.329 98.9274 165.888 98.9064C164.569 98.8906 163.418 97.7499 163.439 96.483C163.465 95.1268 164.601 94.107 166.067 94.1227Z" fill="#5551FF" fill-opacity="0.4"/>
<path d="M106.251 150.354C107.644 150.365 108.695 151.4 108.664 152.72C108.632 154.039 107.581 154.996 106.151 154.996C104.695 154.996 103.691 154.065 103.686 152.704C103.675 151.311 104.737 150.338 106.251 150.354Z" fill="#5551FF"/>
<path d="M87.5068 70.4574C88.9261 70.4784 89.9301 71.4772 89.8933 72.8387C89.8565 74.2265 88.7789 75.1464 87.2439 75.0991C85.914 75.0623 84.8994 74.0582 84.8994 72.7914C84.8994 71.4404 86.0191 70.4363 87.5068 70.4574Z" fill="#5551FF" fill-opacity="0.4"/>
<path d="M142.057 118.767C142.057 117.495 143.113 116.506 144.464 116.506C145.731 116.506 146.719 117.489 146.709 118.746C146.704 120.055 145.679 121.027 144.322 121.006C143.061 120.996 142.057 120.002 142.057 118.767Z" fill="#5551FF"/>
<path d="M80.5986 65.3631C79.2633 65.3473 78.3434 64.4327 78.3697 63.1448C78.396 61.9094 79.3948 61 80.709 61C82.0231 61 83.0219 61.9304 83.0272 63.1605C83.0377 64.4274 81.9863 65.3789 80.5986 65.3631Z" fill="#5551FF" fill-opacity="0.4"/>
<path d="M109.264 123.976C107.945 123.955 107.04 123.024 107.093 121.731C107.14 120.506 108.16 119.607 109.464 119.639C110.678 119.671 111.656 120.611 111.677 121.778C111.693 123.04 110.647 123.997 109.264 123.976Z" fill="#5551FF"/>
<path d="M64.4352 144.042C65.7074 144.036 66.6746 144.898 66.7061 146.065C66.7429 147.222 65.6758 148.294 64.451 148.336C63.1683 148.378 62.1643 147.437 62.1485 146.181C62.138 144.919 63.0685 144.047 64.4352 144.042Z" fill="#5551FF" fill-opacity="0.4"/>
<path d="M159.566 160.248C158.31 160.243 157.348 159.323 157.38 158.161C157.406 157.015 158.394 156.137 159.666 156.137C160.896 156.137 161.885 157.083 161.853 158.24C161.816 159.402 160.844 160.259 159.566 160.248Z" fill="#5551FF" fill-opacity="0.4"/>
<path d="M147.944 67.687C147.934 68.7962 146.993 69.6636 145.763 69.6794C144.59 69.6951 143.639 68.7542 143.681 67.624C143.723 66.52 144.696 65.6895 145.92 65.7263C147.077 65.7526 147.95 66.6042 147.944 67.687Z" fill="#5551FF" fill-opacity="0.4"/>
<path d="M142.949 78.274C142.96 79.3621 141.961 80.3084 140.799 80.2978C139.685 80.2926 138.77 79.4095 138.76 78.3213C138.749 77.1964 139.717 76.2764 140.889 76.2922C141.993 76.3132 142.939 77.2226 142.949 78.274Z" fill="#5551FF" fill-opacity="0.4"/>
<path d="M169.816 116.674C169.832 117.851 168.98 118.692 167.755 118.703C166.573 118.719 165.732 117.957 165.695 116.832C165.653 115.628 166.599 114.676 167.813 114.692C168.912 114.713 169.8 115.591 169.816 116.674Z" fill="#5551FF" fill-opacity="0.4"/>
<path d="M99.46 144.982C98.3035 145.003 97.4046 144.173 97.4151 143.084C97.4256 142.038 98.3666 141.171 99.4863 141.176C100.585 141.182 101.421 141.97 101.447 143.021C101.473 144.12 100.627 144.961 99.46 144.982Z" fill="#5551FF" fill-opacity="0.4"/>
<path d="M137.924 88.871C137.955 89.8698 137.083 90.7634 136.015 90.8318C134.854 90.9054 133.939 90.1011 133.913 88.9867C133.886 87.8722 134.738 87.0364 135.916 87.0259C136.983 87.0259 137.892 87.8564 137.924 88.871Z" fill="#5551FF" fill-opacity="0.4"/>
<path d="M65.9848 74.8409C65.9796 75.9238 65.1805 76.665 64.0293 76.665C62.8833 76.665 62.0948 75.9028 62.1106 74.8094C62.1264 73.7633 62.9832 72.9432 64.0714 72.938C65.1437 72.938 65.9953 73.7791 65.9848 74.8409Z" fill="#5551FF" fill-opacity="0.4"/>
<path d="M134.433 141.834C133.355 141.828 132.593 141.092 132.588 140.041C132.583 138.958 133.403 138.191 134.538 138.201C135.611 138.212 136.404 138.979 136.404 139.994C136.404 141.056 135.563 141.839 134.433 141.834Z" fill="#5551FF" fill-opacity="0.4"/>
<path d="M139.422 131.189C138.381 131.199 137.571 130.395 137.587 129.375C137.603 128.355 138.407 127.588 139.469 127.588C140.457 127.588 141.351 128.455 141.34 129.412C141.33 130.363 140.457 131.178 139.422 131.189Z" fill="#5551FF" fill-opacity="0.4"/>
<path d="M127.862 110.109C127.893 111.118 127.11 111.88 126.017 111.891C124.939 111.901 124.271 111.397 124.182 110.287C124.098 109.257 124.865 108.442 125.917 108.39C126.91 108.337 127.83 109.147 127.862 110.109Z" fill="#5551FF" fill-opacity="0.4"/>
<path d="M132.726 99.5633C132.71 100.51 131.906 101.282 130.934 101.288C129.956 101.293 129.167 100.52 129.178 99.558C129.183 98.6013 129.972 97.8496 130.96 97.8443C131.938 97.8338 132.742 98.6171 132.726 99.5633Z" fill="#5551FF" fill-opacity="0.4"/>
<path d="M129.451 152.325C128.457 152.294 127.695 151.5 127.795 150.533C127.9 149.492 128.536 148.998 129.556 148.987C130.565 148.977 131.343 149.75 131.317 150.696C131.291 151.621 130.444 152.357 129.451 152.325Z" fill="#5551FF" fill-opacity="0.4"/>
<path d="M122.758 120.869C122.732 121.847 121.954 122.557 120.929 122.478C119.925 122.399 119.315 121.826 119.257 120.811C119.205 119.907 120.088 119.119 121.055 119.119C122.043 119.119 122.784 119.881 122.758 120.869Z" fill="#5551FF" fill-opacity="0.4"/>
<path d="M84.2376 123.777C84.2902 122.799 85.0629 122.163 86.1353 122.231C87.1761 122.299 87.7439 122.883 87.7701 123.908C87.7964 124.859 86.9606 125.564 85.9303 125.538C84.9052 125.517 84.1798 124.76 84.2376 123.777Z" fill="#5551FF" fill-opacity="0.4"/>
<path d="M94.1511 80.7759C95.0657 80.7706 95.891 81.5539 95.8122 82.4213C95.7176 83.4516 95.0552 83.9825 94.0564 83.972C93.0839 83.9615 92.5372 83.357 92.4584 82.4108C92.3953 81.5592 93.2469 80.7812 94.1511 80.7759Z" fill="#5551FF" fill-opacity="0.4"/>
<path d="M62.6153 127.461C61.6691 127.43 61.0383 126.925 61.0015 125.963C60.9647 124.975 61.6165 124.465 62.5627 124.375C63.4932 124.286 64.3448 125.038 64.2922 125.931C64.2239 126.914 63.5878 127.372 62.6153 127.461Z" fill="#5551FF" fill-opacity="0.4"/>
<path d="M112.821 163.78C111.949 163.654 111.323 163.212 111.365 162.266C111.407 161.341 111.991 160.852 112.927 160.873C113.868 160.894 114.43 161.399 114.404 162.335C114.372 163.281 113.715 163.686 112.821 163.78Z" fill="#5551FF" fill-opacity="0.4"/>
<path d="M94.2545 133.512C94.1021 134.432 93.5449 134.947 92.6407 134.916C91.7944 134.889 91.2582 134.364 91.1951 133.502C91.1373 132.697 92.0151 131.93 92.8667 132.025C93.7289 132.124 94.1599 132.671 94.2545 133.512Z" fill="#5551FF" fill-opacity="0.4"/>
<path d="M169.496 135.541C170.405 135.593 170.968 136.061 170.999 136.913C171.031 137.785 170.447 138.306 169.606 138.342C168.702 138.384 168.082 137.906 168.087 136.934C168.097 136.029 168.712 135.656 169.496 135.541Z" fill="#5551FF" fill-opacity="0.4"/>
<defs>
<filter id="filter0_dii" x="0" y="-4" width="233" height="237" filterUnits="userSpaceOnUse" color-interpolation-filters="sRGB">
<feFlood flood-opacity="0" result="BackgroundImageFix"/>
<feColorMatrix in="SourceAlpha" type="matrix" values="0 0 0 0 0 0 0 0 0 0 0 0 0 0 0 0 0 0 127 0"/>
<feOffset dy="4"/>
<feGaussianBlur stdDeviation="2"/>
<feColorMatrix type="matrix" values="0 0 0 0 0 0 0 0 0 0 0 0 0 0 0 0 0 0 0.25 0"/>
<feBlend mode="normal" in2="BackgroundImageFix" result="effect1_dropShadow"/>
<feBlend mode="normal" in="SourceGraphic" in2="effect1_dropShadow" result="shape"/>
<feColorMatrix in="SourceAlpha" type="matrix" values="0 0 0 0 0 0 0 0 0 0 0 0 0 0 0 0 0 0 127 0" result="hardAlpha"/>
<feOffset dy="-4"/>
<feGaussianBlur stdDeviation="2"/>
<feComposite in2="hardAlpha" operator="arithmetic" k2="-1" k3="1"/>
<feColorMatrix type="matrix" values="0 0 0 0 0 0 0 0 0 0 0 0 0 0 0 0 0 0 0.1 0"/>
<feBlend mode="normal" in2="shape" result="effect2_innerShadow"/>
<feColorMatrix in="SourceAlpha" type="matrix" values="0 0 0 0 0 0 0 0 0 0 0 0 0 0 0 0 0 0 127 0" result="hardAlpha"/>
<feOffset/>
<feGaussianBlur stdDeviation="1"/>
<feComposite in2="hardAlpha" operator="arithmetic" k2="-1" k3="1"/>
<feColorMatrix type="matrix" values="0 0 0 0 1 0 0 0 0 1 0 0 0 0 1 0 0 0 1 0"/>
<feBlend mode="normal" in2="effect2_innerShadow" result="effect3_innerShadow"/>
</filter>
<linearGradient id="paint0_linear" x1="116.5" y1="0" x2="116.5" y2="225" gradientUnits="userSpaceOnUse">
<stop stop-color="white"/>
<stop offset="1" stop-color="white" stop-opacity="0"/>
</linearGradient>
<radialGradient id="paint1_radial" cx="0" cy="0" r="1" gradientUnits="userSpaceOnUse" gradientTransform="translate(116 103.5) rotate(89.7642) scale(121.501)">
<stop/>
<stop offset="1" stop-color="#BFBFC1" stop-opacity="0.11"/>
</radialGradient>
</defs>
</svg>
