<svg width="272" height="227" viewBox="0 0 272 227" fill="none" xmlns="http://www.w3.org/2000/svg">
<path d="M3.9958 140.434C6.20262 140.434 7.99161 138.645 7.99161 136.438C7.99161 134.231 6.20262 132.442 3.9958 132.442C1.78898 132.442 0 134.231 0 136.438C0 138.645 1.78898 140.434 3.9958 140.434Z" fill="#313144"/>
<path d="M59.5505 135.6C61.7573 135.6 63.5463 133.811 63.5463 131.604C63.5463 129.397 61.7573 127.608 59.5505 127.608C57.3437 127.608 55.5547 129.397 55.5547 131.604C55.5547 133.811 57.3437 135.6 59.5505 135.6Z" fill="#313144"/>
<path d="M75.5978 158.478C77.8047 158.478 79.5937 156.689 79.5937 154.483C79.5937 152.276 77.8047 150.487 75.5978 150.487C73.391 150.487 71.6021 152.276 71.6021 154.483C71.6021 156.689 73.391 158.478 75.5978 158.478Z" fill="#313144"/>
<path d="M122.967 141.722C125.174 141.722 126.963 139.933 126.963 137.726C126.963 135.519 125.174 133.73 122.967 133.73C120.76 133.73 118.971 135.519 118.971 137.726C118.971 139.933 120.76 141.722 122.967 141.722Z" fill="#313144"/>
<path d="M7.21846 18.5609C9.42528 18.5609 11.2143 16.772 11.2143 14.5651C11.2143 12.3583 9.42528 10.5693 7.21846 10.5693C5.01164 10.5693 3.22266 12.3583 3.22266 14.5651C3.22266 16.772 5.01164 18.5609 7.21846 18.5609Z" fill="#313144"/>
<path d="M11.4077 69.0885C14.8248 69.0885 17.5948 66.3184 17.5948 62.9014C17.5948 59.4844 14.8248 56.7144 11.4077 56.7144C7.99073 56.7144 5.2207 59.4844 5.2207 62.9014C5.2207 66.3184 7.99073 69.0885 11.4077 69.0885Z" fill="#313144"/>
<path d="M111.946 127.093C114.793 127.093 117.102 124.785 117.102 121.937C117.102 119.09 114.793 116.781 111.946 116.781C109.098 116.781 106.79 119.09 106.79 121.937C106.79 124.785 109.098 127.093 111.946 127.093Z" fill="#313144"/>
<path d="M7.99035 189.93C10.8379 189.93 13.1462 187.622 13.1462 184.774C13.1462 181.927 10.8379 179.618 7.99035 179.618C5.14284 179.618 2.83447 181.927 2.83447 184.774C2.83447 187.622 5.14284 189.93 7.99035 189.93Z" fill="#313144"/>
<path d="M47.6905 162.539C50.8228 162.539 53.362 160 53.362 156.867C53.362 153.735 50.8228 151.196 47.6905 151.196C44.5582 151.196 42.019 153.735 42.019 156.867C42.019 160 44.5582 162.539 47.6905 162.539Z" fill="#313144"/>
<path d="M107.693 205.913C110.826 205.913 113.365 203.374 113.365 200.241C113.365 197.109 110.826 194.57 107.693 194.57C104.561 194.57 102.022 197.109 102.022 200.241C102.022 203.374 104.561 205.913 107.693 205.913Z" fill="#313144"/>
<path d="M91.5807 181.873C94.0723 181.873 96.0921 179.854 96.0921 177.362C96.0921 174.87 94.0723 172.851 91.5807 172.851C89.0892 172.851 87.0693 174.87 87.0693 177.362C87.0693 179.854 89.0892 181.873 91.5807 181.873Z" fill="#313144"/>
<path d="M24.105 214.549C27.8423 214.549 30.8721 211.519 30.8721 207.782C30.8721 204.044 27.8423 201.015 24.105 201.015C20.3676 201.015 17.3379 204.044 17.3379 207.782C17.3379 211.519 20.3676 214.549 24.105 214.549Z" fill="#313144"/>
<path d="M51.1072 47.0478C56.8378 47.0478 61.4834 42.4022 61.4834 36.6716C61.4834 30.941 56.8378 26.2954 51.1072 26.2954C45.3765 26.2954 40.731 30.941 40.731 36.6716C40.731 42.4022 45.3765 47.0478 51.1072 47.0478Z" fill="#313144"/>
<path d="M34.9298 22.6859C41.1944 22.6859 46.2728 17.6075 46.2728 11.3429C46.2728 5.0784 41.1944 0 34.9298 0C28.6653 0 23.5869 5.0784 23.5869 11.3429C23.5869 17.6075 28.6653 22.6859 34.9298 22.6859Z" fill="#313144"/>
<path d="M39.1214 72.5689C44.496 72.5689 48.8531 68.2119 48.8531 62.8372C48.8531 57.4625 44.496 53.1055 39.1214 53.1055C33.7467 53.1055 29.3896 57.4625 29.3896 62.8372C29.3896 68.2119 33.7467 72.5689 39.1214 72.5689Z" fill="#313144"/>
<path d="M67.1555 68.2505C72.8149 68.2505 77.4028 63.6626 77.4028 58.0032C77.4028 52.3437 72.8149 47.7559 67.1555 47.7559C61.4961 47.7559 56.9082 52.3437 56.9082 58.0032C56.9082 63.6626 61.4961 68.2505 67.1555 68.2505Z" fill="#313144"/>
<path d="M27.5188 95.4483C32.9291 95.4483 37.315 91.0624 37.315 85.6521C37.315 80.2418 32.9291 75.856 27.5188 75.856C22.1085 75.856 17.7227 80.2418 17.7227 85.6521C17.7227 91.0624 22.1085 95.4483 27.5188 95.4483Z" fill="#313144"/>
<path d="M55.2967 92.6769C60.4578 92.6769 64.6417 88.493 64.6417 83.3318C64.6417 78.1707 60.4578 73.9868 55.2967 73.9868C50.1356 73.9868 45.9517 78.1707 45.9517 83.3318C45.9517 88.493 50.1356 92.6769 55.2967 92.6769Z" fill="#313144"/>
<path d="M83.266 89.0032C87.7508 89.0032 91.3865 85.3675 91.3865 80.8827C91.3865 76.3979 87.7508 72.7622 83.266 72.7622C78.7812 72.7622 75.1455 76.3979 75.1455 80.8827C75.1455 85.3675 78.7812 89.0032 83.266 89.0032Z" fill="#313144"/>
<path d="M71.4101 114.396C75.8949 114.396 79.5306 110.76 79.5306 106.275C79.5306 101.79 75.8949 98.1548 71.4101 98.1548C66.9252 98.1548 63.2896 101.79 63.2896 106.275C63.2896 110.76 66.9252 114.396 71.4101 114.396Z" fill="#313144"/>
<path d="M43.4374 116.845C47.9222 116.845 51.5579 113.209 51.5579 108.725C51.5579 104.24 47.9222 100.604 43.4374 100.604C38.9526 100.604 35.3169 104.24 35.3169 108.725C35.3169 113.209 38.9526 116.845 43.4374 116.845Z" fill="#313144"/>
<path d="M31.6453 143.204C36.7709 143.204 40.9259 139.049 40.9259 133.924C40.9259 128.798 36.7709 124.643 31.6453 124.643C26.5198 124.643 22.3647 128.798 22.3647 133.924C22.3647 139.049 26.5198 143.204 31.6453 143.204Z" fill="#313144"/>
<path d="M19.8485 167.502C24.4045 167.502 28.0979 163.808 28.0979 159.252C28.0979 154.696 24.4045 151.003 19.8485 151.003C15.2925 151.003 11.5991 154.696 11.5991 159.252C11.5991 163.808 15.2925 167.502 19.8485 167.502Z" fill="#313144"/>
<path d="M103.438 161.121C108.528 161.121 112.654 156.995 112.654 151.905C112.654 146.815 108.528 142.689 103.438 142.689C98.3484 142.689 94.2222 146.815 94.2222 151.905C94.2222 156.995 98.3484 161.121 103.438 161.121Z" fill="#313144"/>
<path d="M87.264 138.435C92.3895 138.435 96.5445 134.28 96.5445 129.154C96.5445 124.029 92.3895 119.874 87.264 119.874C82.1385 119.874 77.9834 124.029 77.9834 129.154C77.9834 134.28 82.1385 138.435 87.264 138.435Z" fill="#313144"/>
<path d="M35.8323 191.606C40.9579 191.606 45.1129 187.451 45.1129 182.325C45.1129 177.199 40.9579 173.044 35.8323 173.044C30.7068 173.044 26.5518 177.199 26.5518 182.325C26.5518 187.451 30.7068 191.606 35.8323 191.606Z" fill="#313144"/>
<path d="M15.4023 118.005C19.2109 118.005 22.2983 114.917 22.2983 111.109C22.2983 107.3 19.2109 104.213 15.4023 104.213C11.5938 104.213 8.50635 107.3 8.50635 111.109C8.50635 114.917 11.5938 118.005 15.4023 118.005Z" fill="#313144"/>
<path d="M99.3164 110.658C103.125 110.658 106.212 107.571 106.212 103.762C106.212 99.9536 103.125 96.8662 99.3164 96.8662C95.5079 96.8662 92.4204 99.9536 92.4204 103.762C92.4204 107.571 95.5079 110.658 99.3164 110.658Z" fill="#313144"/>
<path d="M23.2659 47.6919C28.9253 47.6919 33.5132 43.104 33.5132 37.4446C33.5132 31.7851 28.9253 27.1973 23.2659 27.1973C17.6064 27.1973 13.0186 31.7851 13.0186 37.4446C13.0186 43.104 17.6064 47.6919 23.2659 47.6919Z" fill="#313144"/>
<path d="M134.375 161.121C138.219 161.121 141.335 158.005 141.335 154.161C141.335 150.316 138.219 147.2 134.375 147.2C130.531 147.2 127.415 150.316 127.415 154.161C127.415 158.005 130.531 161.121 134.375 161.121Z" fill="#313144"/>
<path d="M267.009 140.434C269.215 140.434 271.004 138.645 271.004 136.438C271.004 134.231 269.215 132.442 267.009 132.442C264.802 132.442 263.013 134.231 263.013 136.438C263.013 138.645 264.802 140.434 267.009 140.434Z" fill="#313144"/>
<path d="M211.391 135.6C213.598 135.6 215.387 133.811 215.387 131.604C215.387 129.397 213.598 127.608 211.391 127.608C209.184 127.608 207.395 129.397 207.395 131.604C207.395 133.811 209.184 135.6 211.391 135.6Z" fill="#313144"/>
<path d="M195.408 158.478C197.615 158.478 199.404 156.689 199.404 154.483C199.404 152.276 197.615 150.487 195.408 150.487C193.202 150.487 191.413 152.276 191.413 154.483C191.413 156.689 193.202 158.478 195.408 158.478Z" fill="#313144"/>
<path d="M148.037 141.722C150.244 141.722 152.033 139.933 152.033 137.726C152.033 135.519 150.244 133.73 148.037 133.73C145.83 133.73 144.042 135.519 144.042 137.726C144.042 139.933 145.83 141.722 148.037 141.722Z" fill="#313144"/>
<path d="M263.787 18.5609C265.994 18.5609 267.783 16.772 267.783 14.5651C267.783 12.3583 265.994 10.5693 263.787 10.5693C261.58 10.5693 259.791 12.3583 259.791 14.5651C259.791 16.772 261.58 18.5609 263.787 18.5609Z" fill="#313144"/>
<path d="M259.598 69.0889C263.015 69.0889 265.785 66.3189 265.785 62.9019C265.785 59.4849 263.015 56.7148 259.598 56.7148C256.181 56.7148 253.411 59.4849 253.411 62.9019C253.411 66.3189 256.181 69.0889 259.598 69.0889Z" fill="#313144"/>
<path d="M159.06 127.093C161.908 127.093 164.216 124.785 164.216 121.937C164.216 119.09 161.908 116.781 159.06 116.781C156.213 116.781 153.904 119.09 153.904 121.937C153.904 124.785 156.213 127.093 159.06 127.093Z" fill="#313144"/>
<path d="M262.949 189.93C265.796 189.93 268.105 187.622 268.105 184.774C268.105 181.927 265.796 179.618 262.949 179.618C260.101 179.618 257.793 181.927 257.793 184.774C257.793 187.622 260.101 189.93 262.949 189.93Z" fill="#313144"/>
<path d="M223.249 162.539C226.381 162.539 228.921 160 228.921 156.867C228.921 153.735 226.381 151.196 223.249 151.196C220.117 151.196 217.578 153.735 217.578 156.867C217.578 160 220.117 162.539 223.249 162.539Z" fill="#313144"/>
<path d="M163.312 205.913C166.444 205.913 168.984 203.374 168.984 200.241C168.984 197.109 166.444 194.57 163.312 194.57C160.18 194.57 157.641 197.109 157.641 200.241C157.641 203.374 160.18 205.913 163.312 205.913Z" fill="#313144"/>
<path d="M179.36 181.873C181.852 181.873 183.871 179.854 183.871 177.362C183.871 174.87 181.852 172.851 179.36 172.851C176.868 172.851 174.849 174.87 174.849 177.362C174.849 179.854 176.868 181.873 179.36 181.873Z" fill="#313144"/>
<path d="M246.837 214.549C250.575 214.549 253.604 211.519 253.604 207.782C253.604 204.044 250.575 201.015 246.837 201.015C243.1 201.015 240.07 204.044 240.07 207.782C240.07 211.519 243.1 214.549 246.837 214.549Z" fill="#313144"/>
<path d="M219.833 47.0478C225.564 47.0478 230.209 42.4022 230.209 36.6716C230.209 30.941 225.564 26.2954 219.833 26.2954C214.103 26.2954 209.457 30.941 209.457 36.6716C209.457 42.4022 214.103 47.0478 219.833 47.0478Z" fill="#313144"/>
<path d="M236.009 22.6859C242.274 22.6859 247.352 17.6075 247.352 11.3429C247.352 5.0784 242.274 0 236.009 0C229.745 0 224.667 5.0784 224.667 11.3429C224.667 17.6075 229.745 22.6859 236.009 22.6859Z" fill="#313144"/>
<path d="M231.821 72.5689C237.195 72.5689 241.552 68.2119 241.552 62.8372C241.552 57.4625 237.195 53.1055 231.821 53.1055C226.446 53.1055 222.089 57.4625 222.089 62.8372C222.089 68.2119 226.446 72.5689 231.821 72.5689Z" fill="#313144"/>
<path d="M203.85 68.2505C209.509 68.2505 214.097 63.6626 214.097 58.0032C214.097 52.3437 209.509 47.7559 203.85 47.7559C198.19 47.7559 193.603 52.3437 193.603 58.0032C193.603 63.6626 198.19 68.2505 203.85 68.2505Z" fill="#313144"/>
<path d="M243.422 95.4483C248.832 95.4483 253.218 91.0624 253.218 85.6521C253.218 80.2418 248.832 75.856 243.422 75.856C238.012 75.856 233.626 80.2418 233.626 85.6521C233.626 91.0624 238.012 95.4483 243.422 95.4483Z" fill="#313144"/>
<path d="M215.708 92.6769C220.869 92.6769 225.053 88.493 225.053 83.3318C225.053 78.1707 220.869 73.9868 215.708 73.9868C210.547 73.9868 206.363 78.1707 206.363 83.3318C206.363 88.493 210.547 92.6769 215.708 92.6769Z" fill="#313144"/>
<path d="M187.737 89.0032C192.222 89.0032 195.858 85.3675 195.858 80.8827C195.858 76.3979 192.222 72.7622 187.737 72.7622C183.252 72.7622 179.617 76.3979 179.617 80.8827C179.617 85.3675 183.252 89.0032 187.737 89.0032Z" fill="#313144"/>
<path d="M199.533 114.396C204.018 114.396 207.654 110.76 207.654 106.275C207.654 101.79 204.018 98.1548 199.533 98.1548C195.048 98.1548 191.413 101.79 191.413 106.275C191.413 110.76 195.048 114.396 199.533 114.396Z" fill="#313144"/>
<path d="M227.567 116.846C232.052 116.846 235.688 113.21 235.688 108.725C235.688 104.24 232.052 100.604 227.567 100.604C223.082 100.604 219.447 104.24 219.447 108.725C219.447 113.21 223.082 116.846 227.567 116.846Z" fill="#313144"/>
<path d="M239.297 143.204C244.423 143.204 248.578 139.049 248.578 133.924C248.578 128.798 244.423 124.643 239.297 124.643C234.172 124.643 230.017 128.798 230.017 133.924C230.017 139.049 234.172 143.204 239.297 143.204Z" fill="#313144"/>
<path d="M251.092 167.502C255.648 167.502 259.341 163.808 259.341 159.252C259.341 154.696 255.648 151.003 251.092 151.003C246.536 151.003 242.842 154.696 242.842 159.252C242.842 163.808 246.536 167.502 251.092 167.502Z" fill="#313144"/>
<path d="M167.502 161.121C172.592 161.121 176.718 156.995 176.718 151.905C176.718 146.815 172.592 142.689 167.502 142.689C162.412 142.689 158.286 146.815 158.286 151.905C158.286 156.995 162.412 161.121 167.502 161.121Z" fill="#313144"/>
<path d="M183.678 138.435C188.803 138.435 192.958 134.28 192.958 129.154C192.958 124.029 188.803 119.874 183.678 119.874C178.552 119.874 174.397 124.029 174.397 129.154C174.397 134.28 178.552 138.435 183.678 138.435Z" fill="#313144"/>
<path d="M235.172 191.606C240.297 191.606 244.452 187.451 244.452 182.325C244.452 177.199 240.297 173.044 235.172 173.044C230.046 173.044 225.891 177.199 225.891 182.325C225.891 187.451 230.046 191.606 235.172 191.606Z" fill="#313144"/>
<path d="M255.539 118.005C259.347 118.005 262.435 114.917 262.435 111.109C262.435 107.3 259.347 104.213 255.539 104.213C251.73 104.213 248.643 107.3 248.643 111.109C248.643 114.917 251.73 118.005 255.539 118.005Z" fill="#313144"/>
<path d="M171.691 110.658C175.499 110.658 178.587 107.571 178.587 103.762C178.587 99.9536 175.499 96.8662 171.691 96.8662C167.882 96.8662 164.795 99.9536 164.795 103.762C164.795 107.571 167.882 110.658 171.691 110.658Z" fill="#313144"/>
<path d="M247.739 47.6919C253.398 47.6919 257.986 43.104 257.986 37.4446C257.986 31.7851 253.398 27.1973 247.739 27.1973C242.079 27.1973 237.491 31.7851 237.491 37.4446C237.491 43.104 242.079 47.6919 247.739 47.6919Z" fill="#313144"/>
<path d="M136.63 161.121C140.474 161.121 143.59 158.005 143.59 154.161C143.59 150.316 140.474 147.2 136.63 147.2C132.786 147.2 129.669 150.316 129.669 154.161C129.669 158.005 132.786 161.121 136.63 161.121Z" fill="#313144"/>
<path d="M135.471 162.282C139.956 162.282 143.592 158.646 143.592 154.161C143.592 149.676 139.956 146.041 135.471 146.041C130.986 146.041 127.351 149.676 127.351 154.161C127.351 158.646 130.986 162.282 135.471 162.282Z" fill="#313144"/>
<path d="M135.471 206.557C139.956 206.557 143.592 202.922 143.592 198.437C143.592 193.952 139.956 190.316 135.471 190.316C130.986 190.316 127.351 193.952 127.351 198.437C127.351 202.922 130.986 206.557 135.471 206.557Z" fill="#313144"/>
<path d="M119.423 183.034C123.908 183.034 127.543 179.398 127.543 174.913C127.543 170.428 123.908 166.792 119.423 166.792C114.938 166.792 111.302 170.428 111.302 174.913C111.302 179.398 114.938 183.034 119.423 183.034Z" fill="#313144"/>
<path d="M151.518 183.034C156.003 183.034 159.639 179.398 159.639 174.913C159.639 170.428 156.003 166.792 151.518 166.792C147.034 166.792 143.398 170.428 143.398 174.913C143.398 179.398 147.034 183.034 151.518 183.034Z" fill="#313144"/>
<path d="M123.676 226.729C125.598 226.729 127.156 225.171 127.156 223.249C127.156 221.327 125.598 219.769 123.676 219.769C121.753 219.769 120.195 221.327 120.195 223.249C120.195 225.171 121.753 226.729 123.676 226.729Z" fill="#313144"/>
<path d="M147.329 226.729C149.251 226.729 150.809 225.171 150.809 223.249C150.809 221.327 149.251 219.769 147.329 219.769C145.407 219.769 143.849 221.327 143.849 223.249C143.849 225.171 145.407 226.729 147.329 226.729Z" fill="#313144"/>
</svg>
