<svg width="272" height="227" viewBox="0 0 272 227" fill="none" xmlns="http://www.w3.org/2000/svg">
<path d="M3.9958 140.433C6.20262 140.433 7.99161 138.644 7.99161 136.437C7.99161 134.231 6.20262 132.442 3.9958 132.442C1.78898 132.442 0 134.231 0 136.437C0 138.644 1.78898 140.433 3.9958 140.433Z" fill="white"/>
<path d="M59.5505 135.6C61.7573 135.6 63.5463 133.811 63.5463 131.604C63.5463 129.397 61.7573 127.608 59.5505 127.608C57.3437 127.608 55.5547 129.397 55.5547 131.604C55.5547 133.811 57.3437 135.6 59.5505 135.6Z" fill="white"/>
<path d="M75.5974 158.478C77.8042 158.478 79.5932 156.689 79.5932 154.483C79.5932 152.276 77.8042 150.487 75.5974 150.487C73.3905 150.487 71.6016 152.276 71.6016 154.483C71.6016 156.689 73.3905 158.478 75.5974 158.478Z" fill="white"/>
<path d="M122.966 141.722C125.173 141.722 126.962 139.933 126.962 137.726C126.962 135.519 125.173 133.73 122.966 133.73C120.76 133.73 118.971 135.519 118.971 137.726C118.971 139.933 120.76 141.722 122.966 141.722Z" fill="white"/>
<path d="M7.21846 18.5612C9.42528 18.5612 11.2143 16.7722 11.2143 14.5654C11.2143 12.3586 9.42528 10.5696 7.21846 10.5696C5.01164 10.5696 3.22266 12.3586 3.22266 14.5654C3.22266 16.7722 5.01164 18.5612 7.21846 18.5612Z" fill="white"/>
<path d="M11.4077 69.0885C14.8248 69.0885 17.5948 66.3184 17.5948 62.9014C17.5948 59.4844 14.8248 56.7144 11.4077 56.7144C7.99073 56.7144 5.2207 59.4844 5.2207 62.9014C5.2207 66.3184 7.99073 69.0885 11.4077 69.0885Z" fill="white"/>
<path d="M111.946 127.093C114.793 127.093 117.102 124.784 117.102 121.937C117.102 119.089 114.793 116.781 111.946 116.781C109.098 116.781 106.79 119.089 106.79 121.937C106.79 124.784 109.098 127.093 111.946 127.093Z" fill="white"/>
<path d="M7.99084 189.93C10.8383 189.93 13.1467 187.622 13.1467 184.774C13.1467 181.927 10.8383 179.618 7.99084 179.618C5.14333 179.618 2.83496 181.927 2.83496 184.774C2.83496 187.622 5.14333 189.93 7.99084 189.93Z" fill="white"/>
<path d="M47.691 162.539C50.8233 162.539 53.3625 160 53.3625 156.867C53.3625 153.735 50.8233 151.196 47.691 151.196C44.5587 151.196 42.0195 153.735 42.0195 156.867C42.0195 160 44.5587 162.539 47.691 162.539Z" fill="white"/>
<path d="M107.694 205.913C110.826 205.913 113.365 203.373 113.365 200.241C113.365 197.109 110.826 194.57 107.694 194.57C104.562 194.57 102.022 197.109 102.022 200.241C102.022 203.373 104.562 205.913 107.694 205.913Z" fill="white"/>
<path d="M91.5807 181.873C94.0723 181.873 96.0921 179.854 96.0921 177.362C96.0921 174.87 94.0723 172.851 91.5807 172.851C89.0892 172.851 87.0693 174.87 87.0693 177.362C87.0693 179.854 89.0892 181.873 91.5807 181.873Z" fill="white"/>
<path d="M24.105 214.549C27.8423 214.549 30.8721 211.519 30.8721 207.782C30.8721 204.044 27.8423 201.015 24.105 201.015C20.3676 201.015 17.3379 204.044 17.3379 207.782C17.3379 211.519 20.3676 214.549 24.105 214.549Z" fill="white"/>
<path d="M51.1067 47.0476C56.8373 47.0476 61.4829 42.402 61.4829 36.6714C61.4829 30.9408 56.8373 26.2952 51.1067 26.2952C45.3761 26.2952 40.7305 30.9408 40.7305 36.6714C40.7305 42.402 45.3761 47.0476 51.1067 47.0476Z" fill="white"/>
<path d="M34.9298 22.6859C41.1944 22.6859 46.2728 17.6075 46.2728 11.3429C46.2728 5.0784 41.1944 0 34.9298 0C28.6653 0 23.5869 5.0784 23.5869 11.3429C23.5869 17.6075 28.6653 22.6859 34.9298 22.6859Z" fill="white"/>
<path d="M39.1214 72.5689C44.496 72.5689 48.8531 68.2119 48.8531 62.8372C48.8531 57.4625 44.496 53.1055 39.1214 53.1055C33.7467 53.1055 29.3896 57.4625 29.3896 62.8372C29.3896 68.2119 33.7467 72.5689 39.1214 72.5689Z" fill="white"/>
<path d="M67.1555 68.2505C72.8149 68.2505 77.4028 63.6626 77.4028 58.0032C77.4028 52.3437 72.8149 47.7559 67.1555 47.7559C61.4961 47.7559 56.9082 52.3437 56.9082 58.0032C56.9082 63.6626 61.4961 68.2505 67.1555 68.2505Z" fill="white"/>
<path d="M27.5188 95.4483C32.9291 95.4483 37.315 91.0624 37.315 85.6521C37.315 80.2418 32.9291 75.856 27.5188 75.856C22.1085 75.856 17.7227 80.2418 17.7227 85.6521C17.7227 91.0624 22.1085 95.4483 27.5188 95.4483Z" fill="white"/>
<path d="M55.2962 92.6771C60.4573 92.6771 64.6412 88.4932 64.6412 83.3321C64.6412 78.171 60.4573 73.9871 55.2962 73.9871C50.1351 73.9871 45.9512 78.171 45.9512 83.3321C45.9512 88.4932 50.1351 92.6771 55.2962 92.6771Z" fill="white"/>
<path d="M83.266 89.0032C87.7508 89.0032 91.3865 85.3675 91.3865 80.8827C91.3865 76.3979 87.7508 72.7622 83.266 72.7622C78.7812 72.7622 75.1455 76.3979 75.1455 80.8827C75.1455 85.3675 78.7812 89.0032 83.266 89.0032Z" fill="white"/>
<path d="M71.4096 114.396C75.8944 114.396 79.5301 110.76 79.5301 106.275C79.5301 101.79 75.8944 98.1545 71.4096 98.1545C66.9247 98.1545 63.2891 101.79 63.2891 106.275C63.2891 110.76 66.9247 114.396 71.4096 114.396Z" fill="white"/>
<path d="M43.4379 116.845C47.9227 116.845 51.5584 113.209 51.5584 108.725C51.5584 104.24 47.9227 100.604 43.4379 100.604C38.9531 100.604 35.3174 104.24 35.3174 108.725C35.3174 113.209 38.9531 116.845 43.4379 116.845Z" fill="white"/>
<path d="M31.6448 143.204C36.7704 143.204 40.9254 139.049 40.9254 133.924C40.9254 128.798 36.7704 124.643 31.6448 124.643C26.5193 124.643 22.3643 128.798 22.3643 133.924C22.3643 139.049 26.5193 143.204 31.6448 143.204Z" fill="white"/>
<path d="M19.848 167.502C24.4041 167.502 28.0974 163.808 28.0974 159.252C28.0974 154.696 24.4041 151.003 19.848 151.003C15.292 151.003 11.5986 154.696 11.5986 159.252C11.5986 163.808 15.292 167.502 19.848 167.502Z" fill="white"/>
<path d="M103.439 161.121C108.529 161.121 112.655 156.995 112.655 151.905C112.655 146.815 108.529 142.689 103.439 142.689C98.3489 142.689 94.2227 146.815 94.2227 151.905C94.2227 156.995 98.3489 161.121 103.439 161.121Z" fill="white"/>
<path d="M87.264 138.435C92.3895 138.435 96.5445 134.28 96.5445 129.154C96.5445 124.029 92.3895 119.874 87.264 119.874C82.1385 119.874 77.9834 124.029 77.9834 129.154C77.9834 134.28 82.1385 138.435 87.264 138.435Z" fill="white"/>
<path d="M35.8323 191.606C40.9579 191.606 45.1129 187.451 45.1129 182.325C45.1129 177.199 40.9579 173.044 35.8323 173.044C30.7068 173.044 26.5518 177.199 26.5518 182.325C26.5518 187.451 30.7068 191.606 35.8323 191.606Z" fill="white"/>
<path d="M15.4018 118.005C19.2104 118.005 22.2978 114.918 22.2978 111.109C22.2978 107.301 19.2104 104.213 15.4018 104.213C11.5933 104.213 8.50586 107.301 8.50586 111.109C8.50586 114.918 11.5933 118.005 15.4018 118.005Z" fill="white"/>
<path d="M99.3159 110.658C103.124 110.658 106.212 107.571 106.212 103.762C106.212 99.9536 103.124 96.8662 99.3159 96.8662C95.5074 96.8662 92.4199 99.9536 92.4199 103.762C92.4199 107.571 95.5074 110.658 99.3159 110.658Z" fill="white"/>
<path d="M23.2659 47.6916C28.9253 47.6916 33.5132 43.1038 33.5132 37.4443C33.5132 31.7849 28.9253 27.197 23.2659 27.197C17.6064 27.197 13.0186 31.7849 13.0186 37.4443C13.0186 43.1038 17.6064 47.6916 23.2659 47.6916Z" fill="white"/>
<path d="M134.374 161.121C138.219 161.121 141.335 158.005 141.335 154.161C141.335 150.316 138.219 147.2 134.374 147.2C130.53 147.2 127.414 150.316 127.414 154.161C127.414 158.005 130.53 161.121 134.374 161.121Z" fill="white"/>
<path d="M267.009 140.434C269.215 140.434 271.004 138.645 271.004 136.438C271.004 134.231 269.215 132.442 267.009 132.442C264.802 132.442 263.013 134.231 263.013 136.438C263.013 138.645 264.802 140.434 267.009 140.434Z" fill="white"/>
<path d="M211.39 135.6C213.597 135.6 215.386 133.811 215.386 131.604C215.386 129.397 213.597 127.608 211.39 127.608C209.184 127.608 207.395 129.397 207.395 131.604C207.395 133.811 209.184 135.6 211.39 135.6Z" fill="white"/>
<path d="M195.409 158.478C197.616 158.478 199.405 156.689 199.405 154.483C199.405 152.276 197.616 150.487 195.409 150.487C193.202 150.487 191.413 152.276 191.413 154.483C191.413 156.689 193.202 158.478 195.409 158.478Z" fill="white"/>
<path d="M148.037 141.722C150.244 141.722 152.033 139.933 152.033 137.726C152.033 135.519 150.244 133.73 148.037 133.73C145.83 133.73 144.041 135.519 144.041 137.726C144.041 139.933 145.83 141.722 148.037 141.722Z" fill="white"/>
<path d="M263.787 18.5612C265.994 18.5612 267.783 16.7722 267.783 14.5654C267.783 12.3586 265.994 10.5696 263.787 10.5696C261.58 10.5696 259.791 12.3586 259.791 14.5654C259.791 16.7722 261.58 18.5612 263.787 18.5612Z" fill="white"/>
<path d="M259.598 69.0889C263.015 69.0889 265.785 66.3189 265.785 62.9019C265.785 59.4849 263.015 56.7148 259.598 56.7148C256.181 56.7148 253.411 59.4849 253.411 62.9019C253.411 66.3189 256.181 69.0889 259.598 69.0889Z" fill="white"/>
<path d="M159.06 127.093C161.908 127.093 164.216 124.784 164.216 121.937C164.216 119.089 161.908 116.781 159.06 116.781C156.213 116.781 153.904 119.089 153.904 121.937C153.904 124.784 156.213 127.093 159.06 127.093Z" fill="white"/>
<path d="M262.949 189.93C265.796 189.93 268.105 187.622 268.105 184.774C268.105 181.927 265.796 179.618 262.949 179.618C260.101 179.618 257.793 181.927 257.793 184.774C257.793 187.622 260.101 189.93 262.949 189.93Z" fill="white"/>
<path d="M223.25 162.539C226.382 162.539 228.921 160 228.921 156.867C228.921 153.735 226.382 151.196 223.25 151.196C220.117 151.196 217.578 153.735 217.578 156.867C217.578 160 220.117 162.539 223.25 162.539Z" fill="white"/>
<path d="M163.312 205.913C166.444 205.913 168.984 203.373 168.984 200.241C168.984 197.109 166.444 194.57 163.312 194.57C160.18 194.57 157.641 197.109 157.641 200.241C157.641 203.373 160.18 205.913 163.312 205.913Z" fill="white"/>
<path d="M179.36 181.873C181.852 181.873 183.871 179.854 183.871 177.362C183.871 174.87 181.852 172.851 179.36 172.851C176.868 172.851 174.849 174.87 174.849 177.362C174.849 179.854 176.868 181.873 179.36 181.873Z" fill="white"/>
<path d="M246.837 214.549C250.575 214.549 253.604 211.519 253.604 207.782C253.604 204.044 250.575 201.015 246.837 201.015C243.1 201.015 240.07 204.044 240.07 207.782C240.07 211.519 243.1 214.549 246.837 214.549Z" fill="white"/>
<path d="M219.833 47.0476C225.564 47.0476 230.209 42.402 230.209 36.6714C230.209 30.9408 225.564 26.2952 219.833 26.2952C214.103 26.2952 209.457 30.9408 209.457 36.6714C209.457 42.402 214.103 47.0476 219.833 47.0476Z" fill="white"/>
<path d="M236.01 22.6859C242.274 22.6859 247.353 17.6075 247.353 11.3429C247.353 5.0784 242.274 0 236.01 0C229.745 0 224.667 5.0784 224.667 11.3429C224.667 17.6075 229.745 22.6859 236.01 22.6859Z" fill="white"/>
<path d="M231.821 72.5689C237.195 72.5689 241.552 68.2119 241.552 62.8372C241.552 57.4625 237.195 53.1055 231.821 53.1055C226.446 53.1055 222.089 57.4625 222.089 62.8372C222.089 68.2119 226.446 72.5689 231.821 72.5689Z" fill="white"/>
<path d="M203.85 68.2505C209.509 68.2505 214.097 63.6626 214.097 58.0032C214.097 52.3437 209.509 47.7559 203.85 47.7559C198.19 47.7559 193.603 52.3437 193.603 58.0032C193.603 63.6626 198.19 68.2505 203.85 68.2505Z" fill="white"/>
<path d="M243.422 95.4483C248.832 95.4483 253.218 91.0624 253.218 85.6521C253.218 80.2418 248.832 75.856 243.422 75.856C238.012 75.856 233.626 80.2418 233.626 85.6521C233.626 91.0624 238.012 95.4483 243.422 95.4483Z" fill="white"/>
<path d="M215.708 92.6771C220.869 92.6771 225.053 88.4932 225.053 83.3321C225.053 78.171 220.869 73.9871 215.708 73.9871C210.547 73.9871 206.363 78.171 206.363 83.3321C206.363 88.4932 210.547 92.6771 215.708 92.6771Z" fill="white"/>
<path d="M187.737 89.0032C192.222 89.0032 195.857 85.3675 195.857 80.8827C195.857 76.3979 192.222 72.7622 187.737 72.7622C183.252 72.7622 179.616 76.3979 179.616 80.8827C179.616 85.3675 183.252 89.0032 187.737 89.0032Z" fill="white"/>
<path d="M199.534 114.396C204.018 114.396 207.654 110.76 207.654 106.275C207.654 101.79 204.018 98.1545 199.534 98.1545C195.049 98.1545 191.413 101.79 191.413 106.275C191.413 110.76 195.049 114.396 199.534 114.396Z" fill="white"/>
<path d="M227.568 116.845C232.053 116.845 235.688 113.21 235.688 108.725C235.688 104.24 232.053 100.604 227.568 100.604C223.083 100.604 219.447 104.24 219.447 108.725C219.447 113.21 223.083 116.845 227.568 116.845Z" fill="white"/>
<path d="M239.297 143.204C244.423 143.204 248.578 139.049 248.578 133.924C248.578 128.798 244.423 124.643 239.297 124.643C234.172 124.643 230.017 128.798 230.017 133.924C230.017 139.049 234.172 143.204 239.297 143.204Z" fill="white"/>
<path d="M251.091 167.502C255.647 167.502 259.341 163.808 259.341 159.252C259.341 154.696 255.647 151.003 251.091 151.003C246.535 151.003 242.842 154.696 242.842 159.252C242.842 163.808 246.535 167.502 251.091 167.502Z" fill="white"/>
<path d="M167.501 161.121C172.591 161.121 176.717 156.995 176.717 151.905C176.717 146.815 172.591 142.689 167.501 142.689C162.411 142.689 158.285 146.815 158.285 151.905C158.285 156.995 162.411 161.121 167.501 161.121Z" fill="white"/>
<path d="M183.677 138.435C188.803 138.435 192.958 134.28 192.958 129.154C192.958 124.029 188.803 119.874 183.677 119.874C178.552 119.874 174.396 124.029 174.396 129.154C174.396 134.28 178.552 138.435 183.677 138.435Z" fill="white"/>
<path d="M235.172 191.606C240.298 191.606 244.453 187.451 244.453 182.325C244.453 177.199 240.298 173.044 235.172 173.044C230.047 173.044 225.892 177.199 225.892 182.325C225.892 187.451 230.047 191.606 235.172 191.606Z" fill="white"/>
<path d="M255.539 118.005C259.347 118.005 262.435 114.918 262.435 111.109C262.435 107.301 259.347 104.213 255.539 104.213C251.73 104.213 248.643 107.301 248.643 111.109C248.643 114.918 251.73 118.005 255.539 118.005Z" fill="white"/>
<path d="M171.691 110.658C175.499 110.658 178.587 107.571 178.587 103.762C178.587 99.9536 175.499 96.8662 171.691 96.8662C167.882 96.8662 164.795 99.9536 164.795 103.762C164.795 107.571 167.882 110.658 171.691 110.658Z" fill="white"/>
<path d="M247.739 47.6916C253.398 47.6916 257.986 43.1038 257.986 37.4443C257.986 31.7849 253.398 27.197 247.739 27.197C242.079 27.197 237.491 31.7849 237.491 37.4443C237.491 43.1038 242.079 47.6916 247.739 47.6916Z" fill="white"/>
<path d="M136.63 161.121C140.474 161.121 143.591 158.005 143.591 154.161C143.591 150.316 140.474 147.2 136.63 147.2C132.786 147.2 129.67 150.316 129.67 154.161C129.67 158.005 132.786 161.121 136.63 161.121Z" fill="white"/>
<path d="M135.471 162.282C139.956 162.282 143.592 158.646 143.592 154.161C143.592 149.676 139.956 146.041 135.471 146.041C130.986 146.041 127.351 149.676 127.351 154.161C127.351 158.646 130.986 162.282 135.471 162.282Z" fill="white"/>
<path d="M135.471 206.557C139.956 206.557 143.592 202.922 143.592 198.437C143.592 193.952 139.956 190.316 135.471 190.316C130.986 190.316 127.351 193.952 127.351 198.437C127.351 202.922 130.986 206.557 135.471 206.557Z" fill="white"/>
<path d="M119.423 183.033C123.908 183.033 127.544 179.398 127.544 174.913C127.544 170.428 123.908 166.792 119.423 166.792C114.938 166.792 111.303 170.428 111.303 174.913C111.303 179.398 114.938 183.033 119.423 183.033Z" fill="white"/>
<path d="M151.518 183.033C156.003 183.033 159.638 179.398 159.638 174.913C159.638 170.428 156.003 166.792 151.518 166.792C147.033 166.792 143.397 170.428 143.397 174.913C143.397 179.398 147.033 183.033 151.518 183.033Z" fill="white"/>
<path d="M123.676 226.729C125.598 226.729 127.156 225.171 127.156 223.249C127.156 221.327 125.598 219.769 123.676 219.769C121.753 219.769 120.195 221.327 120.195 223.249C120.195 225.171 121.753 226.729 123.676 226.729Z" fill="white"/>
<path d="M147.329 226.729C149.251 226.729 150.809 225.171 150.809 223.249C150.809 221.327 149.251 219.769 147.329 219.769C145.407 219.769 143.849 221.327 143.849 223.249C143.849 225.171 145.407 226.729 147.329 226.729Z" fill="white"/>
</svg>
