<svg width="410" height="45" viewBox="0 0 410 45" fill="none" xmlns="http://www.w3.org/2000/svg">
<path d="M0.656135 44.3438C0.218712 44.3438 0 44.1251 0 43.7424V0.656135C0 0.492101 0.0546779 0.328068 0.164034 0.218712C0.328068 0.0546779 0.437424 0 0.656135 0H5.85054C6.12393 0 6.34264 0.164034 6.50667 0.546779L22.3633 37.2904L38.2199 0.546779C38.3839 0.218712 38.6026 0 38.9307 0H44.1251C44.5625 0 44.7266 0.218712 44.7266 0.656135V43.7424C44.7266 44.1798 44.5078 44.3438 44.1251 44.3438H39.6962C39.2588 44.3438 39.0947 44.1251 39.0947 43.7424V13.0133L25.3706 43.8517C25.2612 44.1798 25.0425 44.3438 24.7144 44.3438H20.0121C19.6841 44.3438 19.4107 44.1798 19.356 43.8517L5.68651 13.0133V43.7424C5.68651 44.1798 5.46779 44.3438 5.08505 44.3438H0.656135Z" fill="#313144"/>
<path d="M80.3218 12.6851C80.7593 12.6851 80.9233 12.9038 80.9233 13.2865V43.7421C80.9233 44.1796 80.7046 44.3436 80.3218 44.3436H75.8929C75.4555 44.3436 75.2915 44.1249 75.2915 43.7421L75.6742 38.3837C74.9634 40.4615 73.7058 42.1018 71.9014 43.25C70.0971 44.3983 67.8006 44.9997 65.0667 44.9997C60.7471 44.9997 57.6305 43.6875 55.7168 41.0082C53.8031 38.329 52.8188 34.1735 52.8188 28.5417V13.2865C52.8188 12.8491 53.0376 12.6851 53.4203 12.6851H57.9586C58.396 12.6851 58.56 12.9038 58.56 13.2865L58.5054 28.487C58.5054 30.8928 58.6694 32.9159 58.9975 34.5016C59.3802 36.0872 59.927 37.3448 60.6925 38.2197C61.458 39.0945 62.3328 39.696 63.3717 40.024C64.3559 40.3521 65.6135 40.5161 67.0898 40.5161C69.7143 40.5161 71.6827 39.5866 73.159 37.7276C74.5807 35.8685 75.2915 32.8065 75.3462 28.487V13.2865C75.3462 12.8491 75.5649 12.6851 75.9476 12.6851H80.3218Z" fill="#313144"/>
<path d="M90.6009 40.6805C87.9763 37.8373 86.7188 33.8458 86.7188 28.8154C86.7188 23.7304 88.031 19.6295 90.6009 16.6223C93.2254 13.5603 96.8342 12.084 101.482 12.084C106.075 12.084 109.683 13.615 112.253 16.6223C114.878 19.6295 116.135 23.7304 116.135 28.8154C116.135 33.8458 114.878 37.7826 112.308 40.6805C109.738 43.5238 106.129 45.0001 101.427 45.0001C96.8342 44.9454 93.2254 43.5238 90.6009 40.6805ZM94.7017 19.7936C93.1707 21.9807 92.4599 24.988 92.4599 28.8154C92.4599 36.6344 95.4672 40.5165 101.536 40.5165C107.496 40.5165 110.504 36.6344 110.504 28.8154C110.504 24.988 109.738 21.9807 108.262 19.7936C106.786 17.6065 104.544 16.5129 101.536 16.5129C98.4745 16.4582 96.2327 17.6065 94.7017 19.7936Z" fill="#313144"/>
<path d="M121.986 43.7425V13.2869C121.986 12.8495 122.205 12.6854 122.587 12.6854H127.016C127.454 12.6854 127.618 12.9041 127.618 13.2869L127.235 18.6453C127.946 16.5676 129.203 14.9272 131.008 13.779C132.812 12.6308 135.109 12.0293 137.842 12.0293C140.139 12.0293 142.053 12.412 143.693 13.1775C145.279 13.943 146.536 15.0913 147.466 16.5676C148.395 18.0985 149.051 19.7936 149.434 21.7073C149.817 23.621 150.036 25.8628 150.09 28.4327V43.7425C150.09 44.1799 149.872 44.344 149.489 44.344H144.951C144.513 44.344 144.349 44.1252 144.349 43.7425L144.404 28.542C144.404 24.1131 143.857 20.9965 142.599 19.1921C141.396 17.3877 139.373 16.5129 136.475 16.5129C133.578 16.5129 131.39 17.4424 129.914 19.3015C128.383 21.1605 127.672 24.2225 127.618 28.542V43.7425C127.618 44.1799 127.399 44.344 127.016 44.344H122.587C122.205 44.344 121.986 44.1252 121.986 43.7425Z" fill="#313144"/>
<path d="M178.305 44.3438C177.868 44.3438 177.649 44.1251 177.649 43.7424V0.656145C177.649 0.492111 177.704 0.328077 177.813 0.218721C177.922 0.109365 178.086 0.0546875 178.25 0.0546875H183.445C183.773 0.0546875 184.046 0.218721 184.21 0.492111L205.808 34.0644L205.699 0.710823C205.699 0.546789 205.753 0.382755 205.863 0.273399C205.972 0.164043 206.136 0.109365 206.3 0.109365H210.838C211.002 0.109365 211.167 0.164043 211.276 0.273399C211.385 0.382755 211.44 0.546789 211.44 0.710823V43.7424C211.44 44.1798 211.221 44.3438 210.784 44.3438H205.589C205.261 44.3438 204.988 44.1798 204.824 43.9064L183.226 10.2795V43.7424C183.226 44.1798 183.007 44.3438 182.625 44.3438H178.305Z" fill="#313144"/>
<path d="M246.653 32.2601C246.871 32.2601 247.035 32.3148 247.145 32.4242C247.254 32.5335 247.309 32.6976 247.2 32.9163C246.543 36.6891 245.012 39.6417 242.552 41.7741C240.091 43.9065 236.865 44.9454 232.929 44.9454C228.281 44.9454 224.618 43.5238 222.048 40.6805C219.423 37.8373 218.166 33.8458 218.166 28.8154C218.166 23.7304 219.478 19.6295 222.048 16.6223C224.672 13.5603 228.281 12.084 232.929 12.084C237.412 12.084 240.912 13.615 243.427 16.6223C245.942 19.6295 247.2 23.621 247.2 28.5967C247.2 29.0888 247.035 29.3075 246.653 29.3075H223.852C223.907 33.135 224.672 35.9782 226.094 37.8373C227.515 39.6963 229.812 40.5712 232.929 40.5712C237.795 40.5712 240.638 38.0013 241.568 32.8616C241.622 32.4789 241.841 32.3148 242.224 32.3148H246.653V32.2601ZM232.929 16.4582C227.898 16.4582 225 19.2468 224.125 24.8239H240.912C240.912 23.7304 240.802 22.7462 240.529 21.8167C240.255 20.8871 239.873 20.0123 239.326 19.1921C238.779 18.3719 237.904 17.6611 236.811 17.2237C235.717 16.7316 234.46 16.4582 232.929 16.4582Z" fill="#313144"/>
<path d="M268.851 17.1141L260.103 16.786V37.3996C260.103 38.0011 260.267 38.4385 260.595 38.7666C260.923 39.0946 261.415 39.2587 262.016 39.2587H268.851C269.289 39.2587 269.453 39.4774 269.453 39.9148V43.7423C269.453 44.1797 269.234 44.3437 268.851 44.3437H262.618C260.103 44.3437 258.134 43.5782 256.658 42.1019C255.182 40.6256 254.416 38.6025 254.416 36.0874V16.786L249.987 17.1141C249.55 17.1141 249.386 16.8954 249.386 16.5127V13.3413C249.386 12.9039 249.604 12.7399 249.987 12.7399L254.416 13.0679V5.7411C254.416 5.30367 254.635 5.08496 255.018 5.08496H259.446C259.884 5.08496 260.048 5.30367 260.048 5.7411V13.0133L268.796 12.6852C269.234 12.6852 269.398 12.9039 269.398 13.2867V16.458C269.453 16.8954 269.289 17.1141 268.851 17.1141Z" fill="#313144"/>
<path d="M282.739 44.3441C282.521 44.3441 282.357 44.2347 282.247 43.9613L272.241 13.1776C272.132 12.8496 272.241 12.6855 272.569 12.6855H277.654C277.873 12.6855 278.037 12.7949 278.092 13.0683L286.184 39.9152L294.167 13.0683C294.276 12.7949 294.44 12.6855 294.604 12.6855H299.799C300.018 12.6855 300.182 12.7949 300.236 13.0683L308.274 39.9152L316.257 13.0136C316.366 12.7402 316.53 12.6309 316.694 12.6309H321.834C322.162 12.6309 322.272 12.7949 322.162 13.123L312.156 43.9066C312.047 44.18 311.883 44.2894 311.609 44.2894H304.829C304.611 44.2894 304.446 44.18 304.337 43.9066L297.174 21.8714L290.012 43.9066C289.902 44.18 289.738 44.2894 289.465 44.2894H282.739V44.3441Z" fill="#313144"/>
<path d="M327.521 40.6805C324.897 37.8373 323.639 33.8458 323.639 28.8154C323.639 23.7304 324.951 19.6295 327.521 16.6223C330.146 13.5603 333.755 12.084 338.402 12.084C342.995 12.084 346.604 13.615 349.174 16.6223C351.798 19.6295 353.056 23.7304 353.056 28.8154C353.056 33.8458 351.798 37.7826 349.228 40.6805C346.659 43.5238 343.05 45.0001 338.348 45.0001C333.755 44.9454 330.146 43.5238 327.521 40.6805ZM331.622 19.7936C330.091 21.9807 329.38 24.988 329.38 28.8154C329.38 36.6344 332.388 40.5165 338.457 40.5165C344.417 40.5165 347.424 36.6344 347.424 28.8154C347.424 24.988 346.659 21.9807 345.182 19.7936C343.706 17.6065 341.464 16.5129 338.457 16.5129C335.395 16.4582 333.153 17.6065 331.622 19.7936Z" fill="#313144"/>
<path d="M358.906 43.7426V13.287C358.906 12.8496 359.125 12.6855 359.508 12.6855H363.937C364.374 12.6855 364.538 12.9042 364.538 13.287L364.155 18.5361C364.757 16.513 365.796 14.982 367.272 14.0525C368.748 13.123 370.826 12.6309 373.56 12.6309H376.895C377.333 12.6309 377.497 12.8496 377.497 13.2323V16.4036C377.497 16.8411 377.278 17.0051 376.895 17.0051H373.56C370.553 17.0051 368.311 17.9893 366.835 19.9577C365.358 21.9261 364.593 24.7694 364.538 28.4328V43.7426C364.538 44.18 364.319 44.3441 363.937 44.3441H359.508C359.07 44.3441 358.906 44.1254 358.906 43.7426Z" fill="#313144"/>
<path d="M409.046 43.5783C409.21 43.7424 409.21 43.9611 409.155 44.1251C409.046 44.2891 408.881 44.3985 408.663 44.3985H403.086C402.648 44.3985 402.375 44.2891 402.265 44.0157L391.986 30.0729L387.393 34.7752V43.7424C387.393 44.1798 387.174 44.3438 386.792 44.3438H382.363C381.925 44.3438 381.761 44.1251 381.761 43.7424V0.656135C381.761 0.218712 381.98 0 382.363 0H386.792C387.229 0 387.393 0.218712 387.393 0.656135V27.339L401.227 13.0133C401.445 12.7946 401.664 12.6853 401.992 12.6853H407.569C407.843 12.6853 408.007 12.74 408.061 12.904C408.116 13.068 408.116 13.2321 407.897 13.4508L395.977 25.8627L409.046 43.5783Z" fill="#313144"/>
</svg>
