<svg width="33" height="30" viewBox="0 0 33 30" fill="none" xmlns="http://www.w3.org/2000/svg">
<path d="M4.78424 11.0921C3.92345 11.0982 3.26214 10.4706 3.26367 9.64976C3.26521 8.81813 3.91732 8.21512 4.82566 8.20592C5.70332 8.19671 6.34776 8.79051 6.36003 9.62061C6.37231 10.466 5.70946 11.0859 4.78424 11.0921Z" fill="black"/>
<path d="M6.19859 8.00629C5.39918 8.01242 4.71179 7.33883 4.71485 6.55477C4.71946 5.70627 5.4176 5.07257 6.34435 5.07717C7.12535 5.08178 7.79433 5.73542 7.81275 6.51181C7.83269 7.34651 7.12842 7.99861 6.19859 8.00629Z" fill="black"/>
<path d="M26.6947 6.18806C25.8139 6.1942 25.191 5.605 25.1895 4.76109C25.1879 3.89878 25.8293 3.30344 26.7637 3.29884C27.5969 3.29577 28.2444 3.90798 28.2613 4.71813C28.2766 5.55743 27.6122 6.18039 26.6947 6.18806Z" fill="black"/>
<path d="M23.7363 7.85278C23.7394 7.02115 24.4268 6.39819 25.3382 6.39819C26.1468 6.39819 26.8189 7.06564 26.8112 7.85738C26.802 8.68747 26.1085 9.3135 25.2017 9.31196C24.3838 9.30889 23.7333 8.66139 23.7363 7.85278Z" fill="black"/>
<path d="M4.2633 5.11412C3.44701 5.11719 2.81792 4.52952 2.80872 3.7562C2.79797 2.95373 3.49918 2.32463 4.39219 2.33384C5.16244 2.34305 5.76698 2.95986 5.76545 3.73472C5.76238 4.56635 5.16858 5.11105 4.2633 5.11412Z" fill="black"/>
<path d="M28.646 8.93935C27.845 8.94395 27.1945 8.321 27.2052 7.55842C27.2159 6.77589 27.8742 6.17442 28.735 6.16368C29.4991 6.15447 30.1389 6.77589 30.1451 7.53387C30.1512 8.33481 29.5129 8.93321 28.646 8.93935Z" fill="black"/>
<path d="M27.1802 12.0142C26.3639 12.0126 25.7962 11.4495 25.8008 10.647C25.8054 9.85378 26.4268 9.2876 27.2922 9.2876C28.0732 9.2876 28.6962 9.90288 28.687 10.667C28.6762 11.448 28.0425 12.0157 27.1802 12.0142Z" fill="black"/>
<path d="M14.5941 24.978C13.8239 24.9826 13.2316 24.4179 13.2285 23.6799C13.2255 22.9158 13.8592 22.3297 14.6862 22.3343C15.4365 22.3373 16.0334 22.9281 16.0303 23.663C16.0257 24.4302 15.4334 24.9734 14.5941 24.978Z" fill="black"/>
<path d="M22.5059 10.9401C22.5136 10.2051 23.0951 9.68342 23.9037 9.68802C24.5958 9.69262 25.1665 10.2741 25.1573 10.9661C25.1481 11.6904 24.5436 12.2289 23.7488 12.2182C23.0476 12.2105 22.4983 11.6474 22.5059 10.9401Z" fill="black"/>
<path d="M8.13278 10.6009C7.45305 10.5871 6.87459 9.99944 6.89301 9.33966C6.91295 8.60623 7.5221 8.06921 8.31383 8.08762C8.99202 8.10296 9.56281 8.68449 9.55514 9.3504C9.54747 10.07 8.92451 10.6163 8.13278 10.6009Z" fill="black"/>
<path d="M17.9767 24.5961C17.2662 24.5915 16.7246 24.0621 16.7246 23.3747C16.7246 22.6597 17.3077 22.1165 18.0825 22.1104C18.7837 22.1058 19.3545 22.6735 19.3468 23.3701C19.3392 24.1051 18.7853 24.6007 17.9767 24.5961Z" fill="black"/>
<path d="M16.5873 27.6679C15.8308 27.6771 15.2984 27.1815 15.2969 26.4665C15.2953 25.7837 15.8539 25.2574 16.5965 25.242C17.3207 25.2267 17.8623 25.7284 17.8746 26.422C17.8854 27.1677 17.379 27.6587 16.5873 27.6679Z" fill="black"/>
<path d="M3.34555 13.9336C2.62439 13.9366 2.10577 13.4502 2.09964 12.7659C2.09503 12.057 2.66735 11.5261 3.433 11.5323C4.09585 11.5369 4.6651 12.1107 4.65436 12.7628C4.64362 13.4257 4.07897 13.9305 3.34555 13.9336Z" fill="black"/>
<path d="M2.82016 8.02629C2.11588 8.02936 1.57732 7.52148 1.57425 6.85249C1.56964 6.17123 2.12969 5.65415 2.88306 5.64034C3.55972 5.62807 4.12897 6.17123 4.12744 6.82794C4.1259 7.53068 3.59041 8.02322 2.82016 8.02629Z" fill="black"/>
<path d="M22.4135 12.8948C23.0671 12.8917 23.6087 13.4042 23.6133 14.0333C23.6195 14.6946 23.0441 15.224 22.3275 15.2209C21.6892 15.2178 21.1415 14.6793 21.1445 14.0578C21.1476 13.4165 21.7123 12.8994 22.4135 12.8948Z" fill="black"/>
<path d="M3.81639 19.7964C3.18729 19.7933 2.66561 19.2747 2.66407 18.6487C2.66101 18.0119 3.24867 17.4887 3.95141 17.5009C4.58357 17.5117 5.10219 18.0318 5.10219 18.6533C5.10065 19.3069 4.54828 19.7979 3.81639 19.7964Z" fill="black"/>
<path d="M28.2225 23.5985C27.552 23.5955 27.0333 23.0876 27.0471 22.4477C27.0625 21.8018 27.5995 21.3246 28.3084 21.3277C28.9912 21.3307 29.4714 21.8125 29.4622 22.4846C29.453 23.1612 28.962 23.6016 28.2225 23.5985Z" fill="black"/>
<path d="M12.6328 21.9874C11.9531 21.9859 11.4529 21.4995 11.459 20.8459C11.4652 20.1922 11.9853 19.7196 12.7019 19.7166C13.3663 19.7135 13.8864 20.2229 13.8787 20.8643C13.8711 21.5195 13.3478 21.989 12.6328 21.9874Z" fill="black"/>
<path d="M7.97552 12.4329C7.98013 13.108 7.45537 13.5898 6.71888 13.5852C6.09439 13.5821 5.55582 13.0467 5.56656 12.439C5.57577 11.8069 6.13735 11.299 6.82014 11.3005C7.45998 11.3021 7.97246 11.8023 7.97552 12.4329Z" fill="black"/>
<path d="M19.446 21.3784C18.7786 21.3784 18.2937 20.9134 18.2891 20.269C18.283 19.6062 18.8307 19.1044 19.5504 19.1152C20.1749 19.1244 20.7104 19.6599 20.6996 20.2659C20.6858 20.9165 20.1656 21.3784 19.446 21.3784Z" fill="black"/>
<path d="M19.7429 17.0991C19.7644 16.4501 20.2922 16.0112 21.0287 16.0312C21.6701 16.0496 22.1764 16.5789 22.1442 17.1973C22.1104 17.8525 21.5366 18.3297 20.8231 18.2959C20.1894 18.2667 19.7214 17.7481 19.7429 17.0991Z" fill="black"/>
<path d="M29.1586 14.5518C28.4973 14.5503 28.0293 14.1007 28.0293 13.4624C28.0293 12.8195 28.5418 12.3485 29.2384 12.3531C29.8751 12.3577 30.3754 12.8441 30.3738 13.4563C30.3723 14.1038 29.8751 14.5518 29.1586 14.5518Z" fill="black"/>
<path d="M28.9112 16.5636C28.9065 17.1942 28.3618 17.6775 27.6791 17.6591C27.0699 17.6423 26.5758 17.1374 26.5881 16.5467C26.6004 15.9376 27.1221 15.4849 27.8049 15.4895C28.437 15.4957 28.9158 15.9606 28.9112 16.5636Z" fill="black"/>
<path d="M4.42977 23.479C5.06347 23.4775 5.52378 23.9286 5.52531 24.5531C5.52685 25.1822 5.02664 25.6455 4.34845 25.644C3.76539 25.6425 3.26519 25.1561 3.25598 24.5807C3.24677 23.9639 3.76232 23.4805 4.42977 23.479Z" fill="black"/>
<path d="M11.8152 18.0304C11.8229 18.6595 11.3258 19.1275 10.6491 19.1259C10.0814 19.1259 9.5858 18.6533 9.56893 18.0964C9.54898 17.4842 10.0584 16.9978 10.7335 16.9839C11.335 16.9701 11.8091 17.4289 11.8152 18.0304Z" fill="black"/>
<path d="M28.1089 2.70956C27.5212 2.69882 27.0241 2.19094 27.0456 1.62629C27.0701 1.00641 27.5535 0.595195 28.2409 0.612073C28.8377 0.625882 29.2965 1.08312 29.2873 1.65391C29.2766 2.25385 28.7533 2.72183 28.1089 2.70956Z" fill="black"/>
<path d="M2.41776 22.7531C1.82703 22.7546 1.36672 22.3281 1.35751 21.7726C1.34984 21.2111 1.85004 20.7385 2.46226 20.7308C3.03764 20.7231 3.52557 21.2019 3.51637 21.7665C3.5087 22.3281 3.03611 22.7531 2.41776 22.7531Z" fill="black"/>
<path d="M8.75647 14.2666C9.3472 14.2635 9.80751 14.6947 9.80598 15.2486C9.80444 15.8133 9.33492 16.2367 8.71197 16.2352C8.12124 16.2337 7.70542 15.8378 7.69929 15.2701C7.69315 14.6671 8.11203 14.2697 8.75647 14.2666Z" fill="black"/>
<path d="M25.7823 14.7513C25.2391 14.7728 24.7512 14.3232 24.7405 13.7908C24.7282 13.2262 25.1931 12.7827 25.8099 12.7705C26.3454 12.7597 26.8042 13.1801 26.8349 13.7095C26.8656 14.2573 26.3915 14.7268 25.7823 14.7513Z" fill="black"/>
<path d="M5.36985 14.575C5.95598 14.5796 6.37026 14.9893 6.36565 15.557C6.36105 16.1155 5.90995 16.5328 5.30694 16.5344C4.74689 16.5374 4.28045 16.0971 4.27738 15.5616C4.27277 14.9954 4.74536 14.5704 5.36985 14.575Z" fill="black"/>
<path d="M10.2508 11.1595C10.7771 11.1672 11.2312 11.6183 11.2358 12.1369C11.2389 12.6893 10.7387 13.1511 10.148 13.1404C9.58793 13.1312 9.15063 12.6878 9.1583 12.14C9.16597 11.5631 9.62629 11.1519 10.2508 11.1595Z" fill="black"/>
<path d="M29.6664 20.3042C29.0895 20.2996 28.7029 19.9084 28.7151 19.3376C28.7259 18.7837 29.1586 18.4016 29.7646 18.4108C30.2909 18.4185 30.7313 18.8435 30.739 19.3483C30.7466 19.8915 30.2756 20.3104 29.6664 20.3042Z" fill="black"/>
<path d="M30.0726 5.36884C29.5433 5.35964 29.1535 4.96377 29.1643 4.44208C29.175 3.90659 29.6062 3.52146 30.1831 3.5322C30.694 3.54294 31.1114 3.96796 31.1007 4.46356C31.0868 4.99599 30.6526 5.37805 30.0726 5.36884Z" fill="black"/>
<path d="M26.8017 26.4342C26.3045 26.4373 25.9087 26.0675 25.8949 25.5903C25.8811 25.0917 26.2938 24.705 26.8416 24.7019C27.3356 24.6989 27.7376 25.0702 27.753 25.5443C27.7683 26.0368 27.3448 26.4327 26.8017 26.4342Z" fill="black"/>
<path d="M1.88866 16.6893C1.41147 16.6847 1.02174 16.3026 1.02941 15.8439C1.03708 15.3529 1.44829 14.9846 1.97765 14.9984C2.43336 15.0107 2.81541 15.3851 2.82155 15.8285C2.82922 16.3134 2.41648 16.6939 1.88866 16.6893Z" fill="black"/>
<path d="M31.1268 25.2511C31.136 25.7068 30.7278 26.1042 30.2384 26.1165C29.7658 26.1288 29.3576 25.7621 29.3423 25.311C29.3254 24.8307 29.7351 24.4287 30.246 24.4241C30.7094 24.421 31.1176 24.8015 31.1268 25.2511Z" fill="black"/>
<path d="M2.10277 27.6108C2.12732 27.1536 2.52933 26.8252 3.028 26.8513C3.48371 26.8759 3.83354 27.2364 3.81973 27.6676C3.80593 28.134 3.37937 28.5054 2.88684 28.4762C2.4296 28.4501 2.07822 28.0604 2.10277 27.6108Z" fill="black"/>
<path d="M11.3047 14.9709C11.3016 14.506 11.6745 14.1408 12.1609 14.1332C12.6151 14.1255 13.0094 14.4953 13.0171 14.9341C13.0247 15.3837 12.6335 15.7581 12.1486 15.7657C11.673 15.7719 11.3078 15.4282 11.3047 14.9709Z" fill="black"/>
<path d="M16.0517 21.3661C15.5822 21.3584 15.2185 20.9963 15.2247 20.5468C15.2324 20.0957 15.642 19.732 16.1223 19.7504C16.5657 19.7673 16.937 20.134 16.934 20.5529C16.9309 21.004 16.5304 21.3738 16.0517 21.3661Z" fill="black"/>
<path d="M1.39501 10.7052C0.954649 10.7067 0.592538 10.3707 0.587935 9.95491C0.583331 9.52375 0.94084 9.19079 1.41649 9.18465C1.85839 9.17852 2.20976 9.50841 2.2159 9.93343C2.22204 10.3677 1.86453 10.7037 1.39501 10.7052Z" fill="black"/>
<path d="M27.0981 19.6705C27.092 20.1078 26.7222 20.4453 26.265 20.43C25.8507 20.4162 25.5054 20.074 25.5039 19.6766C25.5024 19.2439 25.863 18.9002 26.3233 18.8987C26.7575 18.8972 27.1043 19.2424 27.0981 19.6705Z" fill="black"/>
<path d="M2.3426 0.228516C2.78296 0.228516 3.08217 0.507771 3.08524 0.922051C3.08984 1.34707 2.77222 1.65395 2.32879 1.65241C1.91451 1.65241 1.58002 1.34093 1.57235 0.951204C1.56621 0.547665 1.90684 0.228516 2.3426 0.228516Z" fill="black" fill-opacity="0.4"/>
<path d="M5.82974 22.1411C5.4216 22.138 5.11012 21.8419 5.10551 21.4537C5.10091 21.0701 5.44154 20.7555 5.8681 20.7525C6.2609 20.7494 6.58618 21.0624 6.58925 21.4475C6.59079 21.8434 6.2609 22.1441 5.82974 22.1411Z" fill="black"/>
<path d="M30.6677 9.66802C31.0835 9.67262 31.3781 9.96262 31.3719 10.3616C31.3658 10.762 31.0359 11.0704 30.6155 11.0643C30.2304 11.0597 29.8943 10.7267 29.9005 10.357C29.9081 9.96109 30.2396 9.66342 30.6677 9.66802Z" fill="black" fill-opacity="0.4"/>
<path d="M13.2078 26.0811C13.6144 26.0842 13.9213 26.3864 13.9121 26.7716C13.9028 27.1567 13.596 27.436 13.1786 27.436C12.7536 27.436 12.4605 27.1644 12.459 26.767C12.4559 26.3604 12.7659 26.0765 13.2078 26.0811Z" fill="black"/>
<path d="M7.73761 2.76035C8.15189 2.76649 8.44495 3.05802 8.43421 3.45542C8.42347 3.86049 8.10893 4.12901 7.66089 4.1152C7.2727 4.10446 6.97656 3.81139 6.97656 3.44161C6.97656 3.04728 7.30338 2.75421 7.73761 2.76035Z" fill="black" fill-opacity="0.4"/>
<path d="M23.6582 16.8612C23.6582 16.4899 23.9666 16.2014 24.3609 16.2014C24.7307 16.2014 25.0192 16.4883 25.0161 16.8551C25.0146 17.2371 24.7154 17.521 24.3195 17.5148C23.9513 17.5118 23.6582 17.2218 23.6582 16.8612Z" fill="black"/>
<path d="M5.72105 1.27353C5.33132 1.26892 5.0628 1.00194 5.07047 0.626023C5.07814 0.265446 5.36967 0 5.75327 0C6.13686 0 6.42839 0.271583 6.42992 0.630626C6.43299 1.00041 6.12612 1.27813 5.72105 1.27353Z" fill="black" fill-opacity="0.4"/>
<path d="M14.0875 18.3818C13.7023 18.3757 13.4384 18.1041 13.4538 17.7266C13.4676 17.3691 13.7652 17.1068 14.1458 17.116C14.5002 17.1252 14.7856 17.3998 14.7917 17.7404C14.7963 18.1087 14.491 18.388 14.0875 18.3818Z" fill="black"/>
<path d="M1.00341 24.2383C1.37473 24.2368 1.65706 24.4884 1.66626 24.829C1.677 25.1666 1.36553 25.4796 1.00802 25.4919C0.633631 25.5041 0.340566 25.2295 0.335963 24.8628C0.332895 24.4945 0.604478 24.2398 1.00341 24.2383Z" fill="black" fill-opacity="0.4"/>
<path d="M28.7694 28.9689C28.4027 28.9674 28.1219 28.6989 28.1311 28.3598C28.1388 28.0253 28.4272 27.769 28.7985 27.769C29.1576 27.769 29.446 28.0452 29.4368 28.3828C29.4261 28.7219 29.1422 28.972 28.7694 28.9689Z" fill="black" fill-opacity="0.4"/>
<path d="M25.3776 1.95181C25.3745 2.27557 25.0999 2.52874 24.7408 2.53334C24.3987 2.53794 24.1209 2.26329 24.1332 1.9334C24.1455 1.61118 24.4293 1.36875 24.7868 1.37949C25.1244 1.38717 25.3791 1.63573 25.3776 1.95181Z" fill="black" fill-opacity="0.4"/>
<path d="M23.9202 5.04189C23.9233 5.35951 23.6317 5.6357 23.2926 5.63263C22.9673 5.63109 22.7004 5.37332 22.6973 5.0557C22.6942 4.72735 22.9765 4.45883 23.3187 4.46344C23.6409 4.46957 23.9171 4.73502 23.9202 5.04189Z" fill="black" fill-opacity="0.4"/>
<path d="M31.7619 16.2506C31.7665 16.5943 31.518 16.8398 31.1605 16.8429C30.8152 16.8475 30.5697 16.625 30.559 16.2967C30.5467 15.9453 30.8229 15.6676 31.1773 15.6722C31.498 15.6783 31.7573 15.9346 31.7619 16.2506Z" fill="black" fill-opacity="0.4"/>
<path d="M11.2258 24.513C10.8882 24.5191 10.6259 24.2767 10.6289 23.9591C10.632 23.6537 10.9067 23.4006 11.2335 23.4021C11.5542 23.4036 11.7981 23.6338 11.8058 23.9407C11.8135 24.2614 11.5664 24.5069 11.2258 24.513Z" fill="black" fill-opacity="0.4"/>
<path d="M22.4521 8.13524C22.4614 8.42677 22.2066 8.68762 21.8952 8.70756C21.5561 8.72904 21.2891 8.49429 21.2814 8.169C21.2738 7.84371 21.5223 7.59975 21.866 7.59668C22.1775 7.59668 22.4429 7.83911 22.4521 8.13524Z" fill="black" fill-opacity="0.4"/>
<path d="M1.45512 4.04006C1.45358 4.35614 1.22036 4.57249 0.884332 4.57249C0.549839 4.57249 0.319683 4.35 0.324287 4.03086C0.32889 3.72552 0.578992 3.48615 0.896607 3.48462C1.20962 3.48462 1.45819 3.73012 1.45512 4.04006Z" fill="black" fill-opacity="0.4"/>
<path d="M21.4351 23.594C21.1205 23.5924 20.898 23.3776 20.8965 23.0708C20.895 22.7547 21.1343 22.5307 21.4657 22.5337C21.7788 22.5368 22.0104 22.7608 22.0104 23.0569C22.0104 23.3669 21.7649 23.5955 21.4351 23.594Z" fill="black" fill-opacity="0.4"/>
<path d="M22.8891 20.4868C22.5853 20.4899 22.349 20.2551 22.3536 19.9575C22.3582 19.6598 22.5929 19.4358 22.9029 19.4358C23.1913 19.4358 23.4522 19.689 23.4491 19.9682C23.4461 20.2459 23.1913 20.4838 22.8891 20.4868Z" fill="black" fill-opacity="0.4"/>
<path d="M19.5154 14.334C19.5246 14.6286 19.2959 14.8511 18.9768 14.8541C18.6622 14.8572 18.4674 14.7099 18.4413 14.3862C18.4167 14.0854 18.6408 13.8476 18.9476 13.8323C19.2376 13.8169 19.5061 14.0532 19.5154 14.334Z" fill="black" fill-opacity="0.4"/>
<path d="M20.9361 11.2562C20.9315 11.5324 20.6968 11.7579 20.4129 11.7594C20.1275 11.761 19.8974 11.5354 19.9004 11.2546C19.902 10.9754 20.1321 10.756 20.4206 10.7544C20.706 10.7514 20.9407 10.98 20.9361 11.2562Z" fill="black" fill-opacity="0.4"/>
<path d="M19.98 26.6565C19.69 26.6473 19.4676 26.4156 19.4967 26.1333C19.5274 25.8295 19.7131 25.6852 20.0107 25.6822C20.3053 25.6791 20.5324 25.9046 20.5247 26.1808C20.5171 26.4509 20.27 26.6657 19.98 26.6565Z" fill="black" fill-opacity="0.4"/>
<path d="M18.0264 17.4751C18.0188 17.7604 17.7917 17.9676 17.4925 17.9446C17.1994 17.9216 17.0214 17.7543 17.0046 17.4582C16.9892 17.1943 17.247 16.9641 17.5293 16.9641C17.8178 16.9641 18.0341 17.1866 18.0264 17.4751Z" fill="black" fill-opacity="0.4"/>
<path d="M6.78219 18.3234C6.79754 18.038 7.02309 17.8524 7.3361 17.8723C7.6399 17.8923 7.80562 18.0626 7.81329 18.3618C7.82096 18.6395 7.577 18.8451 7.27626 18.8374C6.97706 18.8313 6.76531 18.6103 6.78219 18.3234Z" fill="black" fill-opacity="0.4"/>
<path d="M9.67667 5.77222C9.94365 5.77069 10.1845 5.99931 10.1615 6.25248C10.1339 6.55322 9.94058 6.70819 9.64905 6.70512C9.36519 6.70205 9.20562 6.5256 9.1826 6.24941C9.16419 6.00085 9.41276 5.77376 9.67667 5.77222Z" fill="black" fill-opacity="0.4"/>
<path d="M0.471484 19.3991C0.195298 19.3899 0.0111733 19.2426 0.000432664 18.9618C-0.0103079 18.6734 0.179954 18.5245 0.456141 18.4984C0.727724 18.4724 0.976292 18.6918 0.960948 18.9526C0.941001 19.2395 0.755343 19.373 0.471484 19.3991Z" fill="black" fill-opacity="0.4"/>
<path d="M15.1268 30.0001C14.8721 29.9632 14.6895 29.8344 14.7018 29.5582C14.714 29.2881 14.8843 29.1454 15.1575 29.1516C15.4321 29.1577 15.5963 29.305 15.5886 29.5781C15.5794 29.8543 15.3876 29.9724 15.1268 30.0001Z" fill="black" fill-opacity="0.4"/>
<path d="M9.70629 21.1651C9.6618 21.4336 9.49915 21.5839 9.23524 21.5747C8.98821 21.5671 8.8317 21.4136 8.81329 21.162C8.79641 20.9272 9.05265 20.7032 9.30122 20.7308C9.55286 20.76 9.67868 20.9196 9.70629 21.1651Z" fill="black" fill-opacity="0.4"/>
<path d="M31.669 21.7573C31.9345 21.7727 32.0987 21.9092 32.1079 22.1578C32.1171 22.4125 31.9468 22.5644 31.7013 22.5751C31.4373 22.5874 31.2563 22.4478 31.2578 22.1639C31.2609 21.9 31.4404 21.7911 31.669 21.7573Z" fill="black" fill-opacity="0.4"/>
</svg>

