<svg width="40" height="32" viewBox="0 0 40 32" fill="none" xmlns="http://www.w3.org/2000/svg">
<path d="M0.589774 20.7277C0.915497 20.7277 1.17955 20.4636 1.17955 20.1379C1.17955 19.8121 0.915497 19.5481 0.589774 19.5481C0.264051 19.5481 0 19.8121 0 20.1379C0 20.4636 0.264051 20.7277 0.589774 20.7277Z" fill="black"/>
<path d="M8.78899 20.0143C9.11472 20.0143 9.37877 19.7502 9.37877 19.4245C9.37877 19.0988 9.11472 18.8347 8.78899 18.8347C8.46327 18.8347 8.19922 19.0988 8.19922 19.4245C8.19922 19.7502 8.46327 20.0143 8.78899 20.0143Z" fill="black"/>
<path d="M11.1581 23.3912C11.4839 23.3912 11.7479 23.1272 11.7479 22.8014C11.7479 22.4757 11.4839 22.2117 11.1581 22.2117C10.8324 22.2117 10.5684 22.4757 10.5684 22.8014C10.5684 23.1272 10.8324 23.3912 11.1581 23.3912Z" fill="black"/>
<path d="M18.1503 20.9178C18.476 20.9178 18.7401 20.6538 18.7401 20.328C18.7401 20.0023 18.476 19.7383 18.1503 19.7383C17.8246 19.7383 17.5605 20.0023 17.5605 20.328C17.5605 20.6538 17.8246 20.9178 18.1503 20.9178Z" fill="black"/>
<path d="M1.06536 2.73961C1.39108 2.73961 1.65513 2.47555 1.65513 2.14983C1.65513 1.82411 1.39108 1.56006 1.06536 1.56006C0.739637 1.56006 0.475586 1.82411 0.475586 2.14983C0.475586 2.47555 0.739637 2.73961 1.06536 2.73961Z" fill="black"/>
<path d="M1.68371 10.1975C2.18805 10.1975 2.5969 9.78863 2.5969 9.28429C2.5969 8.77995 2.18805 8.37109 1.68371 8.37109C1.17936 8.37109 0.770508 8.77995 0.770508 9.28429C0.770508 9.78863 1.17936 10.1975 1.68371 10.1975Z" fill="black"/>
<path d="M16.5227 18.7586C16.943 18.7586 17.2837 18.4179 17.2837 17.9976C17.2837 17.5773 16.943 17.2366 16.5227 17.2366C16.1024 17.2366 15.7617 17.5773 15.7617 17.9976C15.7617 18.4179 16.1024 18.7586 16.5227 18.7586Z" fill="black"/>
<path d="M1.17897 28.0332C1.59926 28.0332 1.93997 27.6925 1.93997 27.2722C1.93997 26.8519 1.59926 26.5112 1.17897 26.5112C0.758679 26.5112 0.417969 26.8519 0.417969 27.2722C0.417969 27.6925 0.758679 28.0332 1.17897 28.0332Z" fill="black"/>
<path d="M7.04901 23.9904C7.51133 23.9904 7.88611 23.6156 7.88611 23.1533C7.88611 22.6909 7.51133 22.3162 7.04901 22.3162C6.5867 22.3162 6.21191 22.6909 6.21191 23.1533C6.21191 23.6156 6.5867 23.9904 7.04901 23.9904Z" fill="black"/>
<path d="M13.5174 26.8442C13.8852 26.8442 14.1833 26.5461 14.1833 26.1783C14.1833 25.8106 13.8852 25.5125 13.5174 25.5125C13.1497 25.5125 12.8516 25.8106 12.8516 26.1783C12.8516 26.5461 13.1497 26.8442 13.5174 26.8442Z" fill="black"/>
<path d="M3.56717 31.6671C4.1188 31.6671 4.56598 31.2199 4.56598 30.6683C4.56598 30.1166 4.1188 29.6694 3.56717 29.6694C3.01554 29.6694 2.56836 30.1166 2.56836 30.6683C2.56836 31.2199 3.01554 31.6671 3.56717 31.6671Z" fill="black"/>
<path d="M7.54323 6.94413C8.38906 6.94413 9.07474 6.25845 9.07474 5.41262C9.07474 4.56678 8.38906 3.8811 7.54323 3.8811C6.6974 3.8811 6.01172 4.56678 6.01172 5.41262C6.01172 6.25845 6.6974 6.94413 7.54323 6.94413Z" fill="black"/>
<path d="M5.16541 3.3484C6.09004 3.3484 6.83961 2.59883 6.83961 1.6742C6.83961 0.749564 6.09004 0 5.16541 0C4.24078 0 3.49121 0.749564 3.49121 1.6742C3.49121 2.59883 4.24078 3.3484 5.16541 3.3484Z" fill="black"/>
<path d="M5.78307 10.7111C6.57636 10.7111 7.21945 10.0681 7.21945 9.27476C7.21945 8.48147 6.57636 7.83838 5.78307 7.83838C4.98977 7.83838 4.34668 8.48147 4.34668 9.27476C4.34668 10.0681 4.98977 10.7111 5.78307 10.7111Z" fill="black"/>
<path d="M9.9119 10.0736C10.7472 10.0736 11.4244 9.39639 11.4244 8.56107C11.4244 7.72575 10.7472 7.04858 9.9119 7.04858C9.07658 7.04858 8.39941 7.72575 8.39941 8.56107C8.39941 9.39639 9.07658 10.0736 9.9119 10.0736Z" fill="black"/>
<path d="M4.06211 14.0881C4.86066 14.0881 5.50801 13.4407 5.50801 12.6422C5.50801 11.8436 4.86066 11.1963 4.06211 11.1963C3.26356 11.1963 2.61621 11.8436 2.61621 12.6422C2.61621 13.4407 3.26356 14.0881 4.06211 14.0881Z" fill="black"/>
<path d="M8.16154 13.679C8.92331 13.679 9.54085 13.0615 9.54085 12.2997C9.54085 11.5379 8.92331 10.9204 8.16154 10.9204C7.39977 10.9204 6.78223 11.5379 6.78223 12.2997C6.78223 13.0615 7.39977 13.679 8.16154 13.679Z" fill="black"/>
<path d="M12.2904 13.1369C12.9523 13.1369 13.4889 12.6003 13.4889 11.9383C13.4889 11.2764 12.9523 10.7397 12.2904 10.7397C11.6284 10.7397 11.0918 11.2764 11.0918 11.9383C11.0918 12.6003 11.6284 13.1369 12.2904 13.1369Z" fill="black"/>
<path d="M10.5492 16.8847C11.2111 16.8847 11.7477 16.3481 11.7477 15.6861C11.7477 15.0242 11.2111 14.4875 10.5492 14.4875C9.88721 14.4875 9.35059 15.0242 9.35059 15.6861C9.35059 16.3481 9.88721 16.8847 10.5492 16.8847Z" fill="black"/>
<path d="M6.41147 17.246C7.07342 17.246 7.61004 16.7094 7.61004 16.0475C7.61004 15.3855 7.07342 14.8489 6.41147 14.8489C5.74951 14.8489 5.21289 15.3855 5.21289 16.0475C5.21289 16.7094 5.74951 17.246 6.41147 17.246Z" fill="black"/>
<path d="M4.68034 21.1368C5.43686 21.1368 6.05014 20.5235 6.05014 19.767C6.05014 19.0105 5.43686 18.3972 4.68034 18.3972C3.92383 18.3972 3.31055 19.0105 3.31055 19.767C3.31055 20.5235 3.92383 21.1368 4.68034 21.1368Z" fill="black"/>
<path d="M2.92951 24.7228C3.60197 24.7228 4.14711 24.1777 4.14711 23.5052C4.14711 22.8327 3.60197 22.2876 2.92951 22.2876C2.25705 22.2876 1.71191 22.8327 1.71191 23.5052C1.71191 24.1777 2.25705 24.7228 2.92951 24.7228Z" fill="black"/>
<path d="M15.2675 23.7813C16.0188 23.7813 16.6278 23.1723 16.6278 22.4211C16.6278 21.6698 16.0188 21.0608 15.2675 21.0608C14.5162 21.0608 13.9072 21.6698 13.9072 22.4211C13.9072 23.1723 14.5162 23.7813 15.2675 23.7813Z" fill="black"/>
<path d="M12.8893 20.4327C13.6459 20.4327 14.2591 19.8194 14.2591 19.0629C14.2591 18.3064 13.6459 17.6931 12.8893 17.6931C12.1328 17.6931 11.5195 18.3064 11.5195 19.0629C11.5195 19.8194 12.1328 20.4327 12.8893 20.4327Z" fill="black"/>
<path d="M5.28874 28.2806C6.04526 28.2806 6.65854 27.6673 6.65854 26.9108C6.65854 26.1543 6.04526 25.541 5.28874 25.541C4.53223 25.541 3.91895 26.1543 3.91895 26.9108C3.91895 27.6673 4.53223 28.2806 5.28874 28.2806Z" fill="black"/>
<path d="M2.28346 17.4175C2.8456 17.4175 3.3013 16.9618 3.3013 16.3997C3.3013 15.8375 2.8456 15.3818 2.28346 15.3818C1.72133 15.3818 1.26562 15.8375 1.26562 16.3997C1.26562 16.9618 1.72133 17.4175 2.28346 17.4175Z" fill="black"/>
<path d="M14.6585 16.3328C15.2206 16.3328 15.6763 15.8771 15.6763 15.315C15.6763 14.7528 15.2206 14.2971 14.6585 14.2971C14.0963 14.2971 13.6406 14.7528 13.6406 15.315C13.6406 15.8771 14.0963 16.3328 14.6585 16.3328Z" fill="black"/>
<path d="M3.43436 7.03937C4.26968 7.03937 4.94685 6.36221 4.94685 5.52689C4.94685 4.69157 4.26968 4.0144 3.43436 4.0144C2.59904 4.0144 1.92188 4.69157 1.92188 5.52689C1.92188 6.36221 2.59904 7.03937 3.43436 7.03937Z" fill="black"/>
<path d="M39.4101 20.7277C39.7358 20.7277 39.9999 20.4636 39.9999 20.1379C39.9999 19.8121 39.7358 19.5481 39.4101 19.5481C39.0844 19.5481 38.8203 19.8121 38.8203 20.1379C38.8203 20.4636 39.0844 20.7277 39.4101 20.7277Z" fill="black"/>
<path d="M31.2099 20.0143C31.5356 20.0143 31.7997 19.7502 31.7997 19.4245C31.7997 19.0988 31.5356 18.8347 31.2099 18.8347C30.8842 18.8347 30.6201 19.0988 30.6201 19.4245C30.6201 19.7502 30.8842 20.0143 31.2099 20.0143Z" fill="black"/>
<path d="M28.8417 23.3912C29.1675 23.3912 29.4315 23.1272 29.4315 22.8014C29.4315 22.4757 29.1675 22.2117 28.8417 22.2117C28.516 22.2117 28.252 22.4757 28.252 22.8014C28.252 23.1272 28.516 23.3912 28.8417 23.3912Z" fill="black"/>
<path d="M21.8505 20.9178C22.1762 20.9178 22.4403 20.6538 22.4403 20.328C22.4403 20.0023 22.1762 19.7383 21.8505 19.7383C21.5248 19.7383 21.2607 20.0023 21.2607 20.328C21.2607 20.6538 21.5248 20.9178 21.8505 20.9178Z" fill="black"/>
<path d="M38.9345 2.73961C39.2602 2.73961 39.5243 2.47555 39.5243 2.14983C39.5243 1.82411 39.2602 1.56006 38.9345 1.56006C38.6088 1.56006 38.3447 1.82411 38.3447 2.14983C38.3447 2.47555 38.6088 2.73961 38.9345 2.73961Z" fill="black"/>
<path d="M38.3165 10.1975C38.8209 10.1975 39.2297 9.78863 39.2297 9.28429C39.2297 8.77995 38.8209 8.37109 38.3165 8.37109C37.8122 8.37109 37.4033 8.77995 37.4033 9.28429C37.4033 9.78863 37.8122 10.1975 38.3165 10.1975Z" fill="black"/>
<path d="M23.4768 18.7586C23.8971 18.7586 24.2378 18.4179 24.2378 17.9976C24.2378 17.5773 23.8971 17.2366 23.4768 17.2366C23.0565 17.2366 22.7158 17.5773 22.7158 17.9976C22.7158 18.4179 23.0565 18.7586 23.4768 18.7586Z" fill="black"/>
<path d="M38.8206 28.0332C39.2409 28.0332 39.5816 27.6925 39.5816 27.2722C39.5816 26.8519 39.2409 26.5112 38.8206 26.5112C38.4003 26.5112 38.0596 26.8519 38.0596 27.2722C38.0596 27.6925 38.4003 28.0332 38.8206 28.0332Z" fill="black"/>
<path d="M32.9514 23.9904C33.4137 23.9904 33.7885 23.6156 33.7885 23.1533C33.7885 22.6909 33.4137 22.3162 32.9514 22.3162C32.489 22.3162 32.1143 22.6909 32.1143 23.1533C32.1143 23.6156 32.489 23.9904 32.9514 23.9904Z" fill="black"/>
<path d="M26.4823 26.8442C26.85 26.8442 27.1482 26.5461 27.1482 26.1783C27.1482 25.8106 26.85 25.5125 26.4823 25.5125C26.1145 25.5125 25.8164 25.8106 25.8164 26.1783C25.8164 26.5461 26.1145 26.8442 26.4823 26.8442Z" fill="black"/>
<path d="M36.4324 31.6671C36.984 31.6671 37.4312 31.2199 37.4312 30.6683C37.4312 30.1166 36.984 29.6694 36.4324 29.6694C35.8808 29.6694 35.4336 30.1166 35.4336 30.6683C35.4336 31.2199 35.8808 31.6671 36.4324 31.6671Z" fill="black"/>
<path d="M32.4573 6.94413C33.3031 6.94413 33.9888 6.25845 33.9888 5.41262C33.9888 4.56678 33.3031 3.8811 32.4573 3.8811C31.6115 3.8811 30.9258 4.56678 30.9258 5.41262C30.9258 6.25845 31.6115 6.94413 32.4573 6.94413Z" fill="black"/>
<path d="M34.8353 3.3484C35.76 3.3484 36.5095 2.59883 36.5095 1.6742C36.5095 0.749564 35.76 0 34.8353 0C33.9107 0 33.1611 0.749564 33.1611 1.6742C33.1611 2.59883 33.9107 3.3484 34.8353 3.3484Z" fill="black"/>
<path d="M34.2167 10.7111C35.0099 10.7111 35.653 10.0681 35.653 9.27476C35.653 8.48147 35.0099 7.83838 34.2167 7.83838C33.4234 7.83838 32.7803 8.48147 32.7803 9.27476C32.7803 10.0681 33.4234 10.7111 34.2167 10.7111Z" fill="black"/>
<path d="M30.0877 10.0736C30.923 10.0736 31.6002 9.39639 31.6002 8.56107C31.6002 7.72575 30.923 7.04858 30.0877 7.04858C29.2524 7.04858 28.5752 7.72575 28.5752 8.56107C28.5752 9.39639 29.2524 10.0736 30.0877 10.0736Z" fill="black"/>
<path d="M35.9381 14.0881C36.7366 14.0881 37.384 13.4407 37.384 12.6422C37.384 11.8436 36.7366 11.1963 35.9381 11.1963C35.1395 11.1963 34.4922 11.8436 34.4922 12.6422C34.4922 13.4407 35.1395 14.0881 35.9381 14.0881Z" fill="black"/>
<path d="M31.8383 13.679C32.6001 13.679 33.2176 13.0615 33.2176 12.2997C33.2176 11.5379 32.6001 10.9204 31.8383 10.9204C31.0765 10.9204 30.459 11.5379 30.459 12.2997C30.459 13.0615 31.0765 13.679 31.8383 13.679Z" fill="black"/>
<path d="M27.7093 13.1369C28.3713 13.1369 28.9079 12.6003 28.9079 11.9383C28.9079 11.2764 28.3713 10.7397 27.7093 10.7397C27.0474 10.7397 26.5107 11.2764 26.5107 11.9383C26.5107 12.6003 27.0474 13.1369 27.7093 13.1369Z" fill="black"/>
<path d="M29.4505 16.8847C30.1125 16.8847 30.6491 16.3481 30.6491 15.6861C30.6491 15.0242 30.1125 14.4875 29.4505 14.4875C28.7886 14.4875 28.252 15.0242 28.252 15.6861C28.252 16.3481 28.7886 16.8847 29.4505 16.8847Z" fill="black"/>
<path d="M33.5882 17.246C34.2502 17.246 34.7868 16.7094 34.7868 16.0475C34.7868 15.3855 34.2502 14.8489 33.5882 14.8489C32.9263 14.8489 32.3896 15.3855 32.3896 16.0475C32.3896 16.7094 32.9263 17.246 33.5882 17.246Z" fill="black"/>
<path d="M35.32 21.1368C36.0765 21.1368 36.6898 20.5235 36.6898 19.767C36.6898 19.0105 36.0765 18.3972 35.32 18.3972C34.5635 18.3972 33.9502 19.0105 33.9502 19.767C33.9502 20.5235 34.5635 21.1368 35.32 21.1368Z" fill="black"/>
<path d="M37.0701 24.7228C37.7426 24.7228 38.2877 24.1777 38.2877 23.5052C38.2877 22.8327 37.7426 22.2876 37.0701 22.2876C36.3977 22.2876 35.8525 22.8327 35.8525 23.5052C35.8525 24.1777 36.3977 24.7228 37.0701 24.7228Z" fill="black"/>
<path d="M24.7324 23.7813C25.4836 23.7813 26.0926 23.1723 26.0926 22.4211C26.0926 21.6698 25.4836 21.0608 24.7324 21.0608C23.9811 21.0608 23.3721 21.6698 23.3721 22.4211C23.3721 23.1723 23.9811 23.7813 24.7324 23.7813Z" fill="black"/>
<path d="M27.111 20.4327C27.8675 20.4327 28.4808 19.8194 28.4808 19.0629C28.4808 18.3064 27.8675 17.6931 27.111 17.6931C26.3545 17.6931 25.7412 18.3064 25.7412 19.0629C25.7412 19.8194 26.3545 20.4327 27.111 20.4327Z" fill="black"/>
<path d="M34.7106 28.2806C35.4671 28.2806 36.0804 27.6673 36.0804 26.9108C36.0804 26.1543 35.4671 25.541 34.7106 25.541C33.9541 25.541 33.3408 26.1543 33.3408 26.9108C33.3408 27.6673 33.9541 28.2806 34.7106 28.2806Z" fill="black"/>
<path d="M37.7171 17.4175C38.2792 17.4175 38.7349 16.9618 38.7349 16.3997C38.7349 15.8375 38.2792 15.3818 37.7171 15.3818C37.1549 15.3818 36.6992 15.8375 36.6992 16.3997C36.6992 16.9618 37.1549 17.4175 37.7171 17.4175Z" fill="black"/>
<path d="M25.3411 16.3328C25.9032 16.3328 26.3589 15.8771 26.3589 15.315C26.3589 14.7528 25.9032 14.2971 25.3411 14.2971C24.7789 14.2971 24.3232 14.7528 24.3232 15.315C24.3232 15.8771 24.7789 16.3328 25.3411 16.3328Z" fill="black"/>
<path d="M36.5662 7.03937C37.4015 7.03937 38.0787 6.36221 38.0787 5.52689C38.0787 4.69157 37.4015 4.0144 36.5662 4.0144C35.7309 4.0144 35.0537 4.69157 35.0537 5.52689C35.0537 6.36221 35.7309 7.03937 36.5662 7.03937Z" fill="black"/>
<path d="M17.6361 27.0153C18.298 27.0153 18.8346 26.4787 18.8346 25.8167C18.8346 25.1548 18.298 24.6182 17.6361 24.6182C16.9741 24.6182 16.4375 25.1548 16.4375 25.8167C16.4375 26.4787 16.9741 27.0153 17.6361 27.0153Z" fill="black"/>
<path d="M22.3636 27.0153C23.0256 27.0153 23.5622 26.4787 23.5622 25.8167C23.5622 25.1548 23.0256 24.6182 22.3636 24.6182C21.7017 24.6182 21.165 25.1548 21.165 25.8167C21.165 26.4787 21.7017 27.0153 22.3636 27.0153Z" fill="black"/>
<path d="M20.0044 23.9524C20.5613 23.9524 21.0127 23.501 21.0127 22.9441C21.0127 22.3872 20.5613 21.9358 20.0044 21.9358C19.4475 21.9358 18.9961 22.3872 18.9961 22.9441C18.9961 23.501 19.4475 23.9524 20.0044 23.9524Z" fill="black"/>
<path d="M15.8954 30.2212C16.2631 30.2212 16.5612 29.923 16.5612 29.5553C16.5612 29.1875 16.2631 28.8894 15.8954 28.8894C15.5276 28.8894 15.2295 29.1875 15.2295 29.5553C15.2295 29.923 15.5276 30.2212 15.8954 30.2212Z" fill="black"/>
<path d="M24.1043 30.2212C24.4721 30.2212 24.7702 29.923 24.7702 29.5553C24.7702 29.1875 24.4721 28.8894 24.1043 28.8894C23.7366 28.8894 23.4385 29.1875 23.4385 29.5553C23.4385 29.923 23.7366 30.2212 24.1043 30.2212Z" fill="black"/>
<path d="M20.0044 30.2972C20.5613 30.2972 21.0127 29.8457 21.0127 29.2888C21.0127 28.732 20.5613 28.2805 20.0044 28.2805C19.4475 28.2805 18.9961 28.732 18.9961 29.2888C18.9961 29.8457 19.4475 30.2972 20.0044 30.2972Z" fill="black"/>
</svg>
