<svg width="673" height="589" viewBox="0 0 673 589" fill="none" xmlns="http://www.w3.org/2000/svg">
<path d="M402.057 294.117C402.057 354.662 353.18 403.736 292.896 403.736C232.613 403.736 183.736 354.662 183.736 294.117C183.736 233.572 232.613 184.498 292.896 184.498C353.18 184.498 402.057 233.572 402.057 294.117Z" stroke="#FCAB60" stroke-opacity="0.25" stroke-width="2"/>
<path d="M424.088 294.117C424.088 366.881 365.347 425.86 292.895 425.86C220.444 425.86 161.703 366.881 161.703 294.117C161.703 221.353 220.444 162.374 292.895 162.374C365.347 162.374 424.088 221.353 424.088 294.117Z" stroke="#FCAB60" stroke-opacity="0.33" stroke-width="2"/>
<path d="M444.823 294.117C444.823 378.38 376.799 446.682 292.895 446.682C208.991 446.682 140.967 378.38 140.967 294.117C140.967 209.853 208.991 141.551 292.895 141.551C376.799 141.551 444.823 209.853 444.823 294.117Z" stroke="#FCAB60" stroke-opacity="0.4" stroke-width="2"/>
<path d="M469.178 294.029C469.178 391.949 390.129 471.321 292.626 471.321C195.122 471.321 116.073 391.949 116.073 294.029C116.073 196.11 195.122 116.737 292.626 116.737C390.129 116.737 469.178 196.11 469.178 294.029Z" stroke="#FCAB60" stroke-opacity="0.45" stroke-width="2"/>
<path d="M491.48 294.117C491.48 404.255 402.567 493.533 292.896 493.533C183.225 493.533 94.3115 404.255 94.3115 294.117C94.3115 183.979 183.225 94.7012 292.896 94.7012C402.567 94.7012 491.48 183.979 491.48 294.117Z" stroke="#FCAB60" stroke-opacity="0.55" stroke-width="2"/>
<path d="M514.807 294.117C514.807 417.193 415.45 516.958 292.895 516.958C170.34 516.958 70.9824 417.193 70.9824 294.117C70.9824 171.041 170.34 71.2759 292.895 71.2759C415.45 71.2759 514.807 171.041 514.807 294.117Z" stroke="#FCAB60" stroke-opacity="0.65" stroke-width="2"/>
<path d="M535.544 294.117C535.544 428.692 426.903 537.78 292.895 537.78C158.888 537.78 50.2471 428.692 50.2471 294.117C50.2471 159.541 158.888 50.4531 292.895 50.4531C426.903 50.4531 535.544 159.541 535.544 294.117Z" stroke="#FCAB60" stroke-opacity="0.75" stroke-width="2"/>
<path d="M560.168 294.117C560.168 442.348 440.502 562.507 292.895 562.507C145.289 562.507 25.623 442.348 25.623 294.117C25.623 145.885 145.289 25.7266 292.895 25.7266C440.502 25.7266 560.168 145.885 560.168 294.117Z" stroke="#FCAB60" stroke-opacity="0.85" stroke-width="2"/>
<path d="M584.793 294.117C584.793 456.005 454.102 587.234 292.896 587.234C131.69 587.234 1 456.005 1 294.117C1 132.229 131.69 1 292.896 1C454.102 1 584.793 132.229 584.793 294.117Z" stroke="#FCAB60" stroke-width="2"/>
<g filter="url(#filter0_dii)">
<circle cx="543.701" cy="141.61" r="124.341" fill="#F5F5F5"/>
<circle cx="543.701" cy="141.61" r="124.341" fill="url(#paint0_linear)"/>
</g>
<path d="M108.072 173.176C109.538 173.176 110.726 171.988 110.726 170.522C110.726 169.056 109.538 167.868 108.072 167.868C106.606 167.868 105.418 169.056 105.418 170.522C105.418 171.988 106.606 173.176 108.072 173.176Z" fill="#B4B3FD"/>
<path d="M25.8221 296.745C27.2879 296.745 28.4762 295.556 28.4762 294.091C28.4762 292.625 27.2879 291.437 25.8221 291.437C24.3562 291.437 23.168 292.625 23.168 294.091C23.168 295.556 24.3562 296.745 25.8221 296.745Z" fill="#B4B3FD"/>
<path d="M157.887 182.058C159.352 182.058 160.541 180.869 160.541 179.404C160.541 177.938 159.352 176.75 157.887 176.75C156.421 176.75 155.232 177.938 155.232 179.404C155.232 180.869 156.421 182.058 157.887 182.058Z" fill="#B4B3FD"/>
<path d="M145.826 261.813C148.096 261.813 149.936 259.973 149.936 257.703C149.936 255.434 148.096 253.594 145.826 253.594C143.557 253.594 141.717 255.434 141.717 257.703C141.717 259.973 143.557 261.813 145.826 261.813Z" fill="#B4B3FD"/>
<path d="M94.8547 308.152C97.1243 308.152 98.9643 306.312 98.9643 304.042C98.9643 301.773 97.1243 299.933 94.8547 299.933C92.585 299.933 90.7451 301.773 90.7451 304.042C90.7451 306.312 92.585 308.152 94.8547 308.152Z" fill="#B4B3FD"/>
<path d="M237.389 417.137C239.044 417.137 240.386 415.795 240.386 414.14C240.386 412.485 239.044 411.144 237.389 411.144C235.734 411.144 234.393 412.485 234.393 414.14C234.393 415.795 235.734 417.137 237.389 417.137Z" fill="#B4B3FD"/>
<path d="M86.4038 467.723C88.0588 467.723 89.4004 466.382 89.4004 464.727C89.4004 463.072 88.0588 461.73 86.4038 461.73C84.7488 461.73 83.4072 463.072 83.4072 464.727C83.4072 466.382 84.7488 467.723 86.4038 467.723Z" fill="#B4B3FD"/>
<path d="M424.332 316.439C425.798 316.439 426.986 315.25 426.986 313.784C426.986 312.319 425.798 311.13 424.332 311.13C422.866 311.13 421.678 312.319 421.678 313.784C421.678 315.25 422.866 316.439 424.332 316.439Z" fill="#B4B3FD"/>
<path d="M438.232 290.181C439.698 290.181 440.886 288.992 440.886 287.527C440.886 286.061 439.698 284.873 438.232 284.873C436.766 284.873 435.578 286.061 435.578 287.527C435.578 288.992 436.766 290.181 438.232 290.181Z" fill="#B4B3FD"/>
<path d="M440.55 395.6C442.015 395.6 443.204 394.412 443.204 392.946C443.204 391.48 442.015 390.292 440.55 390.292C439.084 390.292 437.896 391.48 437.896 392.946C437.896 394.412 439.084 395.6 440.55 395.6Z" fill="#B4B3FD"/>
<path d="M371.429 403.709C372.894 403.709 374.083 402.521 374.083 401.055C374.083 399.589 372.894 398.401 371.429 398.401C369.963 398.401 368.774 399.589 368.774 401.055C368.774 402.521 369.963 403.709 371.429 403.709Z" fill="#B4B3FD"/>
<path d="M34.7029 365.094C36.1688 365.094 37.357 363.906 37.357 362.44C37.357 360.974 36.1688 359.786 34.7029 359.786C33.2371 359.786 32.0488 360.974 32.0488 362.44C32.0488 363.906 33.2371 365.094 34.7029 365.094Z" fill="#B4B3FD"/>
<path d="M406.181 192.87C407.647 192.87 408.836 191.681 408.836 190.216C408.836 188.75 407.647 187.562 406.181 187.562C404.716 187.562 403.527 188.75 403.527 190.216C403.527 191.681 404.716 192.87 406.181 192.87Z" fill="#B4B3FD"/>
<path d="M249.018 150.007C250.484 150.007 251.672 148.819 251.672 147.353C251.672 145.887 250.484 144.699 249.018 144.699C247.553 144.699 246.364 145.887 246.364 147.353C246.364 148.819 247.553 150.007 249.018 150.007Z" fill="#B4B3FD"/>
<path d="M435.441 240.188C437.71 240.188 439.55 238.348 439.55 236.079C439.55 233.809 437.71 231.969 435.441 231.969C433.171 231.969 431.331 233.809 431.331 236.079C431.331 238.348 433.171 240.188 435.441 240.188Z" fill="#B4B3FD"/>
<path d="M373.27 139.403C375.539 139.403 377.379 137.563 377.379 135.293C377.379 133.024 375.539 131.184 373.27 131.184C371 131.184 369.16 133.024 369.16 135.293C369.16 137.563 371 139.403 373.27 139.403Z" fill="#B4B3FD"/>
<path d="M471.477 300.29C474.881 300.29 477.641 297.53 477.641 294.126C477.641 290.721 474.881 287.961 471.477 287.961C468.072 287.961 465.312 290.721 465.312 294.126C465.312 297.53 468.072 300.29 471.477 300.29Z" fill="#B4B3FD"/>
<path d="M516.271 296.429C519.675 296.429 522.435 293.669 522.435 290.264C522.435 286.86 519.675 284.1 516.271 284.1C512.866 284.1 510.106 286.86 510.106 290.264C510.106 293.669 512.866 296.429 516.271 296.429Z" fill="#B4B3FD"/>
<path d="M189.2 444.711C192.604 444.711 195.364 441.951 195.364 438.546C195.364 435.142 192.604 432.382 189.2 432.382C185.795 432.382 183.035 435.142 183.035 438.546C183.035 441.951 185.795 444.711 189.2 444.711Z" fill="#B4B3FD"/>
<path d="M558.747 339.678C562.152 339.678 564.912 336.918 564.912 333.513C564.912 330.109 562.152 327.349 558.747 327.349C555.343 327.349 552.583 330.109 552.583 333.513C552.583 336.918 555.343 339.678 558.747 339.678Z" fill="#B4B3FD"/>
<path d="M436.81 350.665C439.837 350.665 442.29 348.212 442.29 345.185C442.29 342.159 439.837 339.706 436.81 339.706C433.784 339.706 431.331 342.159 431.331 345.185C431.331 348.212 433.784 350.665 436.81 350.665Z" fill="#B4B3FD"/>
<path d="M476.971 403.954C479.997 403.954 482.45 401.501 482.45 398.475C482.45 395.448 479.997 392.995 476.971 392.995C473.944 392.995 471.491 395.448 471.491 398.475C471.491 401.501 473.944 403.954 476.971 403.954Z" fill="#B4B3FD"/>
<path d="M146.424 337.922C149.45 337.922 151.903 335.469 151.903 332.442C151.903 329.416 149.45 326.963 146.424 326.963C143.398 326.963 140.944 329.416 140.944 332.442C140.944 335.469 143.398 337.922 146.424 337.922Z" fill="#B4B3FD"/>
<path d="M97.3038 385.648C98.5805 385.648 99.6155 384.613 99.6155 383.336C99.6155 382.059 98.5805 381.024 97.3038 381.024C96.0271 381.024 94.9922 382.059 94.9922 383.336C94.9922 384.613 96.0271 385.648 97.3038 385.648Z" fill="#EFEFEF"/>
<path d="M226.4 304.881C227.528 304.881 228.442 303.967 228.442 302.839C228.442 301.712 227.528 300.798 226.4 300.798C225.272 300.798 224.358 301.712 224.358 302.839C224.358 303.967 225.272 304.881 226.4 304.881Z" fill="#B4B3FD"/>
<path d="M254.785 302.41C255.912 302.41 256.826 301.496 256.826 300.368C256.826 299.241 255.912 298.327 254.785 298.327C253.657 298.327 252.743 299.241 252.743 300.368C252.743 301.496 253.657 302.41 254.785 302.41Z" fill="#B4B3FD"/>
<path d="M262.985 314.101C264.113 314.101 265.027 313.187 265.027 312.059C265.027 310.932 264.113 310.018 262.985 310.018C261.857 310.018 260.943 310.932 260.943 312.059C260.943 313.187 261.857 314.101 262.985 314.101Z" fill="#B4B3FD"/>
<path d="M287.187 305.539C288.315 305.539 289.229 304.625 289.229 303.497C289.229 302.37 288.315 301.456 287.187 301.456C286.06 301.456 285.146 302.37 285.146 303.497C285.146 304.625 286.06 305.539 287.187 305.539Z" fill="#5F5CFE"/>
<path d="M227.818 242.26C228.946 242.26 229.86 241.346 229.86 240.219C229.86 239.091 228.946 238.177 227.818 238.177C226.69 238.177 225.776 239.091 225.776 240.219C225.776 241.346 226.69 242.26 227.818 242.26Z" fill="#B4B3FD"/>
<path d="M230.186 268.427C231.932 268.427 233.347 267.012 233.347 265.266C233.347 263.52 231.932 262.105 230.186 262.105C228.44 262.105 227.024 263.52 227.024 265.266C227.024 267.012 228.44 268.427 230.186 268.427Z" fill="#B4B3FD"/>
<path d="M281.556 298.065C283.011 298.065 284.191 296.885 284.191 295.43C284.191 293.975 283.011 292.796 281.556 292.796C280.101 292.796 278.922 293.975 278.922 295.43C278.922 296.885 280.101 298.065 281.556 298.065Z" fill="#5F5CFE"/>
<path d="M228.441 330.17C229.896 330.17 231.075 328.991 231.075 327.536C231.075 326.081 229.896 324.901 228.441 324.901C226.986 324.901 225.807 326.081 225.807 327.536C225.807 328.991 226.986 330.17 228.441 330.17Z" fill="#B4B3FD"/>
<path d="M248.725 316.176C250.325 316.176 251.623 314.879 251.623 313.278C251.623 311.678 250.325 310.38 248.725 310.38C247.125 310.38 245.827 311.678 245.827 313.278C245.827 314.879 247.125 316.176 248.725 316.176Z" fill="#5F5CFE"/>
<path d="M279.384 338.336C280.985 338.336 282.282 337.039 282.282 335.438C282.282 333.838 280.985 332.541 279.384 332.541C277.784 332.541 276.486 333.838 276.486 335.438C276.486 337.039 277.784 338.336 279.384 338.336Z" fill="#B4B3FD"/>
<path d="M271.15 326.054C272.423 326.054 273.455 325.022 273.455 323.749C273.455 322.476 272.423 321.444 271.15 321.444C269.877 321.444 268.845 322.476 268.845 323.749C268.845 325.022 269.877 326.054 271.15 326.054Z" fill="#B4B3FD"/>
<path d="M236.675 342.749C238.585 342.749 240.133 341.201 240.133 339.292C240.133 337.382 238.585 335.834 236.675 335.834C234.766 335.834 233.218 337.382 233.218 339.292C233.218 341.201 234.766 342.749 236.675 342.749Z" fill="#5F5CFE"/>
<path d="M250.472 257.166C253.4 257.166 255.773 254.793 255.773 251.865C255.773 248.937 253.4 246.563 250.472 246.563C247.544 246.563 245.17 248.937 245.17 251.865C245.17 254.793 247.544 257.166 250.472 257.166Z" fill="#5F5CFE"/>
<path d="M242.205 244.719C245.406 244.719 248 242.124 248 238.923C248 235.722 245.406 233.127 242.205 233.127C239.004 233.127 236.409 235.722 236.409 238.923C236.409 242.124 239.004 244.719 242.205 244.719Z" fill="#5F5CFE"/>
<path d="M244.347 270.205C247.093 270.205 249.32 267.979 249.32 265.233C249.32 262.487 247.093 260.261 244.347 260.261C241.601 260.261 239.375 262.487 239.375 265.233C239.375 267.979 241.601 270.205 244.347 270.205Z" fill="#5F5CFE"/>
<path d="M258.671 267.999C261.563 267.999 263.907 265.655 263.907 262.763C263.907 259.871 261.563 257.527 258.671 257.527C255.78 257.527 253.436 259.871 253.436 262.763C253.436 265.655 255.78 267.999 258.671 267.999Z" fill="#5F5CFE"/>
<path d="M238.418 281.895C241.183 281.895 243.424 279.654 243.424 276.89C243.424 274.126 241.183 271.885 238.418 271.885C235.654 271.885 233.413 274.126 233.413 276.89C233.413 279.654 235.654 281.895 238.418 281.895Z" fill="#5F5CFE"/>
<path d="M252.611 280.48C255.248 280.48 257.385 278.342 257.385 275.705C257.385 273.068 255.248 270.931 252.611 270.931C249.974 270.931 247.836 273.068 247.836 275.705C247.836 278.342 249.974 280.48 252.611 280.48Z" fill="#5F5CFE"/>
<path d="M266.903 278.603C269.194 278.603 271.052 276.746 271.052 274.454C271.052 272.163 269.194 270.305 266.903 270.305C264.612 270.305 262.754 272.163 262.754 274.454C262.754 276.746 264.612 278.603 266.903 278.603Z" fill="#5F5CFE"/>
<path d="M260.845 291.577C263.137 291.577 264.994 289.72 264.994 287.428C264.994 285.137 263.137 283.279 260.845 283.279C258.554 283.279 256.696 285.137 256.696 287.428C256.696 289.72 258.554 291.577 260.845 291.577Z" fill="#5F5CFE"/>
<path d="M246.553 292.828C248.845 292.828 250.702 290.971 250.702 288.679C250.702 286.388 248.845 284.53 246.553 284.53C244.262 284.53 242.404 286.388 242.404 288.679C242.404 290.971 244.262 292.828 246.553 292.828Z" fill="#5F5CFE"/>
<path d="M240.527 306.296C243.146 306.296 245.269 304.173 245.269 301.554C245.269 298.935 243.146 296.812 240.527 296.812C237.908 296.812 235.785 298.935 235.785 301.554C235.785 304.173 237.908 306.296 240.527 306.296Z" fill="#5F5CFE"/>
<path d="M234.5 318.711C236.828 318.711 238.715 316.824 238.715 314.496C238.715 312.168 236.828 310.281 234.5 310.281C232.172 310.281 230.285 312.168 230.285 314.496C230.285 316.824 232.172 318.711 234.5 318.711Z" fill="#5F5CFE"/>
<path d="M277.209 315.45C279.81 315.45 281.918 313.342 281.918 310.742C281.918 308.141 279.81 306.033 277.209 306.033C274.608 306.033 272.5 308.141 272.5 310.742C272.5 313.342 274.608 315.45 277.209 315.45Z" fill="#5F5CFE"/>
<path d="M268.945 303.859C271.564 303.859 273.687 301.736 273.687 299.117C273.687 296.498 271.564 294.375 268.945 294.375C266.326 294.375 264.203 296.498 264.203 299.117C264.203 301.736 266.326 303.859 268.945 303.859Z" fill="#5F5CFE"/>
<path d="M242.667 331.027C245.285 331.027 247.408 328.904 247.408 326.285C247.408 323.666 245.285 321.543 242.667 321.543C240.048 321.543 237.925 323.666 237.925 326.285C237.925 328.904 240.048 331.027 242.667 331.027Z" fill="#5F5CFE"/>
<path d="M232.229 293.421C234.175 293.421 235.753 291.843 235.753 289.897C235.753 287.952 234.175 286.374 232.229 286.374C230.284 286.374 228.706 287.952 228.706 289.897C228.706 291.843 230.284 293.421 232.229 293.421Z" fill="#5F5CFE"/>
<path d="M275.103 289.667C277.048 289.667 278.626 288.089 278.626 286.144C278.626 284.198 277.048 282.62 275.103 282.62C273.157 282.62 271.579 284.198 271.579 286.144C271.579 288.089 273.157 289.667 275.103 289.667Z" fill="#5F5CFE"/>
<path d="M236.246 257.494C239.137 257.494 241.481 255.15 241.481 252.259C241.481 249.367 239.137 247.023 236.246 247.023C233.354 247.023 231.01 249.367 231.01 252.259C231.01 255.15 233.354 257.494 236.246 257.494Z" fill="#5F5CFE"/>
<path d="M360.783 304.881C361.91 304.881 362.824 303.967 362.824 302.839C362.824 301.712 361.91 300.798 360.783 300.798C359.655 300.798 358.741 301.712 358.741 302.839C358.741 303.967 359.655 304.881 360.783 304.881Z" fill="#B4B3FD"/>
<path d="M332.368 302.41C333.495 302.41 334.409 301.496 334.409 300.368C334.409 299.241 333.495 298.327 332.368 298.327C331.24 298.327 330.326 299.241 330.326 300.368C330.326 301.496 331.24 302.41 332.368 302.41Z" fill="#B4B3FD"/>
<path d="M324.201 314.101C325.328 314.101 326.242 313.187 326.242 312.059C326.242 310.932 325.328 310.018 324.201 310.018C323.073 310.018 322.159 310.932 322.159 312.059C322.159 313.187 323.073 314.101 324.201 314.101Z" fill="#B4B3FD"/>
<path d="M299.997 305.539C301.124 305.539 302.038 304.625 302.038 303.497C302.038 302.37 301.124 301.456 299.997 301.456C298.869 301.456 297.955 302.37 297.955 303.497C297.955 304.625 298.869 305.539 299.997 305.539Z" fill="#5F5CFE"/>
<path d="M360.001 243.152C361.128 243.152 362.042 242.238 362.042 241.11C362.042 239.982 361.128 239.068 360.001 239.068C358.873 239.068 357.959 239.982 357.959 241.11C357.959 242.238 358.873 243.152 360.001 243.152Z" fill="#B4B3FD"/>
<path d="M356.996 268.427C358.742 268.427 360.157 267.012 360.157 265.266C360.157 263.52 358.742 262.105 356.996 262.105C355.25 262.105 353.835 263.52 353.835 265.266C353.835 267.012 355.25 268.427 356.996 268.427Z" fill="#B4B3FD"/>
<path d="M305.628 298.065C307.082 298.065 308.262 296.885 308.262 295.43C308.262 293.975 307.082 292.796 305.628 292.796C304.173 292.796 302.993 293.975 302.993 295.43C302.993 296.885 304.173 298.065 305.628 298.065Z" fill="#5F5CFE"/>
<path d="M358.708 330.17C360.162 330.17 361.342 328.991 361.342 327.536C361.342 326.081 360.162 324.901 358.708 324.901C357.253 324.901 356.073 326.081 356.073 327.536C356.073 328.991 357.253 330.17 358.708 330.17Z" fill="#B4B3FD"/>
<path d="M338.426 316.176C340.026 316.176 341.324 314.879 341.324 313.278C341.324 311.678 340.026 310.38 338.426 310.38C336.826 310.38 335.528 311.678 335.528 313.278C335.528 314.879 336.826 316.176 338.426 316.176Z" fill="#5F5CFE"/>
<path d="M307.802 338.336C309.402 338.336 310.7 337.039 310.7 335.438C310.7 333.838 309.402 332.541 307.802 332.541C306.202 332.541 304.904 333.838 304.904 335.438C304.904 337.039 306.202 338.336 307.802 338.336Z" fill="#B4B3FD"/>
<path d="M316.001 326.054C317.274 326.054 318.306 325.022 318.306 323.749C318.306 322.476 317.274 321.444 316.001 321.444C314.728 321.444 313.696 322.476 313.696 323.749C313.696 325.022 314.728 326.054 316.001 326.054Z" fill="#B4B3FD"/>
<path d="M350.475 342.749C352.385 342.749 353.933 341.201 353.933 339.292C353.933 337.382 352.385 335.834 350.475 335.834C348.566 335.834 347.018 337.382 347.018 339.292C347.018 341.201 348.566 342.749 350.475 342.749Z" fill="#5F5CFE"/>
<path d="M336.681 257.166C339.609 257.166 341.982 254.793 341.982 251.865C341.982 248.937 339.609 246.563 336.681 246.563C333.753 246.563 331.379 248.937 331.379 251.865C331.379 254.793 333.753 257.166 336.681 257.166Z" fill="#5F5CFE"/>
<path d="M344.946 244.719C348.147 244.719 350.741 242.124 350.741 238.923C350.741 235.722 348.147 233.127 344.946 233.127C341.745 233.127 339.15 235.722 339.15 238.923C339.15 242.124 341.745 244.719 344.946 244.719Z" fill="#5F5CFE"/>
<path d="M342.805 270.205C345.551 270.205 347.778 267.979 347.778 265.233C347.778 262.487 345.551 260.261 342.805 260.261C340.059 260.261 337.833 262.487 337.833 265.233C337.833 267.979 340.059 270.205 342.805 270.205Z" fill="#5F5CFE"/>
<path d="M328.514 267.999C331.406 267.999 333.75 265.655 333.75 262.763C333.75 259.871 331.406 257.527 328.514 257.527C325.622 257.527 323.278 259.871 323.278 262.763C323.278 265.655 325.622 267.999 328.514 267.999Z" fill="#5F5CFE"/>
<path d="M348.733 281.895C351.497 281.895 353.738 279.654 353.738 276.89C353.738 274.126 351.497 271.885 348.733 271.885C345.968 271.885 343.728 274.126 343.728 276.89C343.728 279.654 345.968 281.895 348.733 281.895Z" fill="#5F5CFE"/>
<path d="M334.573 280.48C337.21 280.48 339.347 278.342 339.347 275.705C339.347 273.068 337.21 270.931 334.573 270.931C331.936 270.931 329.798 273.068 329.798 275.705C329.798 278.342 331.936 280.48 334.573 280.48Z" fill="#5F5CFE"/>
<path d="M320.282 278.603C322.573 278.603 324.431 276.746 324.431 274.454C324.431 272.163 322.573 270.305 320.282 270.305C317.99 270.305 316.133 272.163 316.133 274.454C316.133 276.746 317.99 278.603 320.282 278.603Z" fill="#5F5CFE"/>
<path d="M326.308 291.577C328.6 291.577 330.457 289.72 330.457 287.428C330.457 285.137 328.6 283.279 326.308 283.279C324.017 283.279 322.159 285.137 322.159 287.428C322.159 289.72 324.017 291.577 326.308 291.577Z" fill="#5F5CFE"/>
<path d="M340.631 292.828C342.922 292.828 344.78 290.971 344.78 288.679C344.78 286.388 342.922 284.53 340.631 284.53C338.339 284.53 336.481 286.388 336.481 288.679C336.481 290.971 338.339 292.828 340.631 292.828Z" fill="#5F5CFE"/>
<path d="M346.626 306.296C349.244 306.296 351.367 304.173 351.367 301.554C351.367 298.935 349.244 296.812 346.626 296.812C344.007 296.812 341.884 298.935 341.884 301.554C341.884 304.173 344.007 306.296 346.626 306.296Z" fill="#5F5CFE"/>
<path d="M352.65 318.711C354.977 318.711 356.864 316.824 356.864 314.496C356.864 312.168 354.977 310.281 352.65 310.281C350.322 310.281 348.435 312.168 348.435 314.496C348.435 316.824 350.322 318.711 352.65 318.711Z" fill="#5F5CFE"/>
<path d="M309.94 315.45C312.541 315.45 314.649 313.342 314.649 310.742C314.649 308.141 312.541 306.033 309.94 306.033C307.34 306.033 305.231 308.141 305.231 310.742C305.231 313.342 307.34 315.45 309.94 315.45Z" fill="#5F5CFE"/>
<path d="M318.207 303.859C320.825 303.859 322.948 301.736 322.948 299.117C322.948 296.498 320.825 294.375 318.207 294.375C315.588 294.375 313.465 296.498 313.465 299.117C313.465 301.736 315.588 303.859 318.207 303.859Z" fill="#5F5CFE"/>
<path d="M344.516 331.027C347.135 331.027 349.258 328.904 349.258 326.285C349.258 323.666 347.135 321.543 344.516 321.543C341.897 321.543 339.774 323.666 339.774 326.285C339.774 328.904 341.897 331.027 344.516 331.027Z" fill="#5F5CFE"/>
<path d="M354.924 293.421C356.87 293.421 358.447 291.843 358.447 289.897C358.447 287.952 356.87 286.374 354.924 286.374C352.978 286.374 351.4 287.952 351.4 289.897C351.4 291.843 352.978 293.421 354.924 293.421Z" fill="#5F5CFE"/>
<path d="M312.083 289.667C314.029 289.667 315.606 288.089 315.606 286.144C315.606 284.198 314.029 282.62 312.083 282.62C310.137 282.62 308.56 284.198 308.56 286.144C308.56 288.089 310.137 289.667 312.083 289.667Z" fill="#5F5CFE"/>
<path d="M350.938 257.494C353.83 257.494 356.174 255.15 356.174 252.259C356.174 249.367 353.83 247.023 350.938 247.023C348.046 247.023 345.702 249.367 345.702 252.259C345.702 255.15 348.046 257.494 350.938 257.494Z" fill="#5F5CFE"/>
<path d="M293.576 316.044C295.867 316.044 297.725 314.187 297.725 311.895C297.725 309.604 295.867 307.746 293.576 307.746C291.284 307.746 289.427 309.604 289.427 311.895C289.427 314.187 291.284 316.044 293.576 316.044Z" fill="#5F5CFE"/>
<path d="M293.576 338.665C295.867 338.665 297.725 336.808 297.725 334.516C297.725 332.225 295.867 330.367 293.576 330.367C291.284 330.367 289.427 332.225 289.427 334.516C289.427 336.808 291.284 338.665 293.576 338.665Z" fill="#5F5CFE"/>
<path d="M285.375 326.647C287.666 326.647 289.524 324.789 289.524 322.498C289.524 320.206 287.666 318.349 285.375 318.349C283.083 318.349 281.226 320.206 281.226 322.498C281.226 324.789 283.083 326.647 285.375 326.647Z" fill="#5F5CFE"/>
<path d="M301.775 326.647C304.067 326.647 305.924 324.789 305.924 322.498C305.924 320.206 304.067 318.349 301.775 318.349C299.484 318.349 297.626 320.206 297.626 322.498C297.626 324.789 299.484 326.647 301.775 326.647Z" fill="#5F5CFE"/>
<path d="M287.55 348.973C288.532 348.973 289.328 348.177 289.328 347.195C289.328 346.213 288.532 345.417 287.55 345.417C286.568 345.417 285.771 346.213 285.771 347.195C285.771 348.177 286.568 348.973 287.55 348.973Z" fill="#EFEFEF"/>
<path d="M299.635 348.973C300.617 348.973 301.413 348.177 301.413 347.195C301.413 346.213 300.617 345.417 299.635 345.417C298.653 345.417 297.856 346.213 297.856 347.195C297.856 348.177 298.653 348.973 299.635 348.973Z" fill="#EFEFEF"/>
<path d="M393.097 443.184C394.373 443.184 395.408 442.149 395.408 440.872C395.408 439.595 394.373 438.561 393.097 438.561C391.82 438.561 390.785 439.595 390.785 440.872C390.785 442.149 391.82 443.184 393.097 443.184Z" fill="#EFEFEF"/>
<path d="M469.095 149.756C469.134 149.827 469.14 149.886 469.114 149.932C469.088 149.977 469.036 150 468.958 150H467.562C467.47 150 467.389 149.954 467.317 149.863L464.202 144.404H460.794V149.805C460.794 149.935 460.729 150 460.599 150H459.183C459.059 150 458.997 149.941 458.997 149.824V136.201C458.997 136.064 459.059 135.996 459.183 135.996H465.042C466.155 135.996 467.09 136.374 467.845 137.129C468.6 137.878 468.978 138.88 468.978 140.137C468.978 141.302 468.704 142.24 468.157 142.949C467.61 143.659 466.884 144.108 465.979 144.297L469.095 149.756ZM460.794 137.598V142.803H464.036C465.104 142.803 465.895 142.604 466.409 142.207C466.924 141.81 467.181 141.12 467.181 140.137C467.181 139.655 467.099 139.245 466.937 138.906C466.78 138.568 466.552 138.307 466.253 138.125C465.96 137.936 465.631 137.803 465.267 137.725C464.909 137.64 464.498 137.598 464.036 137.598H460.794ZM480.276 137.803H473.333V142.197H479.681C479.811 142.197 479.876 142.266 479.876 142.402V143.604C479.876 143.734 479.811 143.799 479.681 143.799H473.333V148.203H480.276C480.413 148.203 480.481 148.268 480.481 148.398V149.805C480.481 149.935 480.413 150 480.276 150H471.741C471.604 150 471.536 149.935 471.536 149.805V136.201C471.536 136.143 471.556 136.094 471.595 136.055C471.634 136.016 471.683 135.996 471.741 135.996H480.276C480.335 135.996 480.384 136.016 480.423 136.055C480.462 136.094 480.481 136.143 480.481 136.201V137.598C480.481 137.656 480.462 137.705 480.423 137.744C480.384 137.783 480.335 137.803 480.276 137.803ZM493.812 149.775C493.838 149.84 493.834 149.896 493.802 149.941C493.769 149.98 493.717 150 493.646 150H492.171C492.047 150 491.966 149.948 491.927 149.844L490.687 146.377H484.69L483.47 149.844C483.437 149.948 483.356 150 483.226 150H481.751C481.679 150 481.627 149.98 481.595 149.941C481.569 149.896 481.569 149.84 481.595 149.775L486.79 136.162C486.829 136.051 486.91 135.996 487.034 135.996H488.372C488.489 135.996 488.567 136.051 488.606 136.162L493.812 149.775ZM485.267 144.775H490.13L487.688 137.939L485.267 144.775ZM504.065 148.203C504.202 148.203 504.271 148.268 504.271 148.398V149.805C504.271 149.935 504.202 150 504.065 150H495.53C495.394 150 495.325 149.935 495.325 149.805V136.201C495.325 136.143 495.345 136.094 495.384 136.055C495.423 136.016 495.472 135.996 495.53 135.996H496.927C497.057 135.996 497.122 136.064 497.122 136.201V148.203H504.065ZM529.495 135.996C529.56 135.996 529.609 136.019 529.642 136.064C529.674 136.11 529.681 136.169 529.661 136.24L525.403 149.844C525.371 149.948 525.296 150 525.179 150H523.558C523.447 150 523.375 149.948 523.343 149.844L520.022 139.238L516.702 149.844C516.67 149.948 516.595 150 516.478 150H514.856C514.746 150 514.674 149.948 514.642 149.844L510.384 136.24C510.364 136.169 510.368 136.11 510.394 136.064C510.426 136.019 510.475 135.996 510.54 135.996H512.083C512.187 135.996 512.259 136.051 512.298 136.162L515.677 147.881L519.036 136.162C519.062 136.11 519.082 136.077 519.095 136.064C519.114 136.019 519.163 135.996 519.241 135.996H520.804C520.869 135.996 520.914 136.019 520.94 136.064C520.953 136.077 520.973 136.11 520.999 136.162L524.378 147.881L527.737 136.162C527.776 136.051 527.851 135.996 527.962 135.996H529.495ZM536.458 150.195C537.487 150.195 538.405 150.016 539.212 149.658C540.019 149.3 540.677 148.799 541.185 148.154C541.692 147.51 542.076 146.755 542.337 145.889C542.604 145.016 542.737 144.053 542.737 142.998C542.737 141.943 542.604 140.98 542.337 140.107C542.07 139.229 541.679 138.47 541.165 137.832C540.651 137.188 539.993 136.689 539.192 136.338C538.392 135.98 537.48 135.801 536.458 135.801C535.423 135.801 534.502 135.98 533.694 136.338C532.894 136.689 532.236 137.188 531.722 137.832C531.207 138.477 530.817 139.235 530.55 140.107C530.289 140.98 530.159 141.943 530.159 142.998C530.159 144.424 530.39 145.671 530.853 146.738C531.315 147.806 532.024 148.649 532.981 149.268C533.938 149.886 535.097 150.195 536.458 150.195ZM536.458 137.402C537.923 137.402 539.03 137.907 539.778 138.916C540.527 139.925 540.901 141.286 540.901 142.998C540.901 143.831 540.81 144.587 540.628 145.264C540.446 145.941 540.175 146.53 539.817 147.031C539.466 147.533 539.004 147.92 538.431 148.193C537.858 148.467 537.2 148.604 536.458 148.604C535.709 148.604 535.049 148.467 534.476 148.193C533.903 147.92 533.437 147.533 533.079 147.031C532.721 146.53 532.451 145.941 532.269 145.264C532.093 144.587 532.005 143.831 532.005 142.998C532.005 142.165 532.093 141.413 532.269 140.742C532.451 140.065 532.721 139.476 533.079 138.975C533.437 138.473 533.903 138.086 534.476 137.812C535.049 137.539 535.709 137.402 536.458 137.402ZM555.013 149.756C555.052 149.827 555.058 149.886 555.032 149.932C555.006 149.977 554.954 150 554.876 150H553.479C553.388 150 553.307 149.954 553.235 149.863L550.12 144.404H546.712V149.805C546.712 149.935 546.647 150 546.517 150H545.101C544.977 150 544.915 149.941 544.915 149.824V136.201C544.915 136.064 544.977 135.996 545.101 135.996H550.96C552.073 135.996 553.007 136.374 553.763 137.129C554.518 137.878 554.896 138.88 554.896 140.137C554.896 141.302 554.622 142.24 554.075 142.949C553.528 143.659 552.802 144.108 551.897 144.297L555.013 149.756ZM546.712 137.598V142.803H549.954C551.022 142.803 551.813 142.604 552.327 142.207C552.841 141.81 553.099 141.12 553.099 140.137C553.099 139.655 553.017 139.245 552.854 138.906C552.698 138.568 552.47 138.307 552.171 138.125C551.878 137.936 551.549 137.803 551.185 137.725C550.826 137.64 550.416 137.598 549.954 137.598H546.712ZM566.194 148.203C566.331 148.203 566.399 148.268 566.399 148.398V149.805C566.399 149.935 566.331 150 566.194 150H557.659C557.522 150 557.454 149.935 557.454 149.805V136.201C557.454 136.143 557.474 136.094 557.513 136.055C557.552 136.016 557.601 135.996 557.659 135.996H559.056C559.186 135.996 559.251 136.064 559.251 136.201V148.203H566.194ZM572.22 135.996C573.398 135.996 574.44 136.178 575.345 136.543C576.256 136.901 576.989 137.402 577.542 138.047C578.095 138.691 578.509 139.427 578.782 140.254C579.062 141.081 579.202 141.989 579.202 142.979C579.202 143.76 579.118 144.495 578.948 145.186C578.779 145.876 578.509 146.517 578.138 147.109C577.773 147.702 577.321 148.213 576.78 148.643C576.246 149.066 575.589 149.398 574.808 149.639C574.033 149.88 573.17 150 572.22 150H568.401C568.265 150 568.196 149.935 568.196 149.805V136.201C568.196 136.143 568.216 136.094 568.255 136.055C568.294 136.016 568.343 135.996 568.401 135.996H572.22ZM572.22 148.223C572.975 148.223 573.649 148.132 574.241 147.949C574.84 147.767 575.335 147.52 575.726 147.207C576.116 146.888 576.438 146.504 576.692 146.055C576.953 145.605 577.138 145.13 577.249 144.629C577.36 144.121 577.415 143.571 577.415 142.979C577.415 142.23 577.324 141.553 577.142 140.947C576.959 140.342 576.67 139.798 576.272 139.316C575.882 138.828 575.341 138.451 574.651 138.184C573.968 137.917 573.157 137.783 572.22 137.783H569.974V148.223H572.22ZM590.677 135.996C591.855 135.996 592.897 136.178 593.802 136.543C594.713 136.901 595.446 137.402 595.999 138.047C596.552 138.691 596.966 139.427 597.239 140.254C597.519 141.081 597.659 141.989 597.659 142.979C597.659 143.76 597.575 144.495 597.405 145.186C597.236 145.876 596.966 146.517 596.595 147.109C596.23 147.702 595.778 148.213 595.237 148.643C594.703 149.066 594.046 149.398 593.265 149.639C592.49 149.88 591.627 150 590.677 150H586.858C586.722 150 586.653 149.935 586.653 149.805V136.201C586.653 136.143 586.673 136.094 586.712 136.055C586.751 136.016 586.8 135.996 586.858 135.996H590.677ZM590.677 148.223C591.432 148.223 592.106 148.132 592.698 147.949C593.297 147.767 593.792 147.52 594.183 147.207C594.573 146.888 594.896 146.504 595.149 146.055C595.41 145.605 595.595 145.13 595.706 144.629C595.817 144.121 595.872 143.571 595.872 142.979C595.872 142.23 595.781 141.553 595.599 140.947C595.416 140.342 595.127 139.798 594.729 139.316C594.339 138.828 593.799 138.451 593.108 138.184C592.425 137.917 591.614 137.783 590.677 137.783H588.431V148.223H590.677ZM610.257 149.775C610.283 149.84 610.28 149.896 610.247 149.941C610.215 149.98 610.162 150 610.091 150H608.616C608.493 150 608.411 149.948 608.372 149.844L607.132 146.377H601.136L599.915 149.844C599.882 149.948 599.801 150 599.671 150H598.196C598.125 150 598.073 149.98 598.04 149.941C598.014 149.896 598.014 149.84 598.04 149.775L603.235 136.162C603.274 136.051 603.356 135.996 603.479 135.996H604.817C604.935 135.996 605.013 136.051 605.052 136.162L610.257 149.775ZM601.712 144.775H606.575L604.134 137.939L601.712 144.775ZM620.159 135.996C620.218 135.996 620.267 136.016 620.306 136.055C620.345 136.094 620.364 136.143 620.364 136.201V137.402C620.364 137.533 620.296 137.598 620.159 137.598H615.462V149.805C615.462 149.935 615.394 150 615.257 150H613.86C613.724 150 613.655 149.935 613.655 149.805V137.598H608.958C608.828 137.598 608.763 137.533 608.763 137.402V136.201C608.763 136.064 608.828 135.996 608.958 135.996H620.159ZM631.097 149.775C631.123 149.84 631.119 149.896 631.087 149.941C631.054 149.98 631.002 150 630.931 150H629.456C629.332 150 629.251 149.948 629.212 149.844L627.972 146.377H621.976L620.755 149.844C620.722 149.948 620.641 150 620.511 150H619.036C618.965 150 618.912 149.98 618.88 149.941C618.854 149.896 618.854 149.84 618.88 149.775L624.075 136.162C624.114 136.051 624.196 135.996 624.319 135.996H625.657C625.774 135.996 625.853 136.051 625.892 136.162L631.097 149.775ZM622.552 144.775H627.415L624.974 137.939L622.552 144.775Z" fill="#5F5CFE"/>
<g filter="url(#filter1_dii)">
<circle cx="64.8731" cy="222.702" r="43.2491" fill="#F5F5F5"/>
<circle cx="64.8731" cy="222.702" r="43.2491" fill="url(#paint1_linear)"/>
</g>
<path d="M58.8746 218.852H53.667V222.148H58.4278C58.5254 222.148 58.5743 222.199 58.5743 222.302V223.203C58.5743 223.3 58.5254 223.349 58.4278 223.349H53.667V226.652H58.8746C58.9771 226.652 59.0284 226.701 59.0284 226.799V227.854C59.0284 227.951 58.9771 228 58.8746 228H52.4732C52.3707 228 52.3194 227.951 52.3194 227.854V217.651C52.3194 217.607 52.334 217.57 52.3633 217.541C52.3926 217.512 52.4293 217.497 52.4732 217.497H58.8746C58.9185 217.497 58.9551 217.512 58.9844 217.541C59.0137 217.57 59.0284 217.607 59.0284 217.651V218.698C59.0284 218.742 59.0137 218.779 58.9844 218.808C58.9551 218.837 58.9185 218.852 58.8746 218.852ZM68.4693 217.497C68.5132 217.497 68.5499 217.512 68.5792 217.541C68.6085 217.57 68.6231 217.607 68.6231 217.651V218.552C68.6231 218.649 68.5718 218.698 68.4693 218.698H64.9463V227.854C64.9463 227.951 64.8951 228 64.7925 228H63.7452C63.6426 228 63.5914 227.951 63.5914 227.854V218.698H60.0684C59.9708 218.698 59.9219 218.649 59.9219 218.552V217.651C59.9219 217.548 59.9708 217.497 60.0684 217.497H68.4693ZM77.2803 217.497C77.378 217.497 77.4268 217.548 77.4268 217.651V227.854C77.4268 227.951 77.378 228 77.2803 228H76.233C76.1304 228 76.0792 227.951 76.0792 227.854V223.137H71.1719V227.854C71.1719 227.951 71.1231 228 71.0254 228H69.9781C69.8755 228 69.8243 227.951 69.8243 227.854V217.651C69.8243 217.607 69.8389 217.57 69.8682 217.541C69.8975 217.512 69.9341 217.497 69.9781 217.497H71.0254C71.1231 217.497 71.1719 217.548 71.1719 217.651V221.943H76.0792V217.651C76.0792 217.607 76.0938 217.57 76.1231 217.541C76.1524 217.512 76.189 217.497 76.233 217.497H77.2803Z" fill="#5F5CFE"/>
<g filter="url(#filter2_dii)">
<circle cx="105.419" cy="387.975" r="33.9814" fill="#F5F5F5"/>
<circle cx="105.419" cy="387.975" r="33.9814" fill="url(#paint2_linear)"/>
</g>
<path d="M97.4258 389.058C98.1367 389.058 98.7087 389.274 99.1416 389.707C99.5745 390.135 99.791 390.648 99.791 391.245C99.791 392.006 99.5199 392.656 98.9775 393.193C98.4352 393.731 97.7835 394 97.0225 394H92.5586C92.4629 394 92.415 393.954 92.415 393.863V384.341C92.415 384.3 92.4287 384.266 92.4561 384.238C92.4834 384.211 92.5176 384.197 92.5586 384.197H96.6602C97.4167 384.197 98.0638 384.468 98.6016 385.011C99.1439 385.549 99.415 386.198 99.415 386.959C99.415 387.114 99.3945 387.278 99.3535 387.451C99.3125 387.624 99.2419 387.807 99.1416 387.998C99.0413 388.185 98.916 388.354 98.7656 388.504C98.6198 388.65 98.4307 388.773 98.1982 388.873C97.9658 388.969 97.7083 389.017 97.4258 389.017V389.058ZM96.6602 385.318H93.6729V388.538H96.6602C97.0977 388.538 97.4554 388.383 97.7334 388.073C98.016 387.763 98.1572 387.392 98.1572 386.959C98.1572 386.449 98.0296 386.048 97.7744 385.756C97.5192 385.464 97.1478 385.318 96.6602 385.318ZM97.0225 392.879C97.5192 392.879 97.8952 392.738 98.1504 392.455C98.4056 392.173 98.5332 391.769 98.5332 391.245C98.5332 390.812 98.3896 390.441 98.1025 390.131C97.82 389.816 97.46 389.659 97.0225 389.659H93.6729V392.879H97.0225ZM104.843 394.137C105.531 394.137 106.162 394.007 106.736 393.747C107.311 393.483 107.769 393.12 108.11 392.66C108.457 392.195 108.641 391.68 108.664 391.115C108.678 390.787 108.646 390.493 108.568 390.233C108.495 389.974 108.375 389.75 108.206 389.563C108.037 389.372 107.848 389.208 107.639 389.071C107.434 388.935 107.178 388.816 106.873 388.716C106.572 388.616 106.276 388.534 105.984 388.47C105.697 388.406 105.358 388.344 104.966 388.285C104.679 388.235 104.449 388.192 104.275 388.155C104.102 388.119 103.911 388.073 103.701 388.019C103.496 387.959 103.334 387.898 103.216 387.834C103.097 387.77 102.983 387.693 102.874 387.602C102.765 387.506 102.687 387.396 102.642 387.273C102.596 387.146 102.573 387.002 102.573 386.843C102.573 386.355 102.778 385.956 103.188 385.646C103.599 385.337 104.15 385.182 104.843 385.182C105.526 385.182 106.066 385.339 106.463 385.653C106.859 385.968 107.074 386.412 107.105 386.986C107.105 387.077 107.153 387.123 107.249 387.123H108.227C108.322 387.123 108.37 387.077 108.37 386.986C108.347 386.403 108.172 385.886 107.844 385.435C107.516 384.983 107.09 384.642 106.565 384.409C106.041 384.177 105.467 384.061 104.843 384.061C103.858 384.061 103.034 384.325 102.368 384.854C101.703 385.382 101.352 386.045 101.315 386.843C101.302 387.098 101.322 387.333 101.377 387.547C101.436 387.757 101.514 387.939 101.609 388.094C101.71 388.244 101.846 388.383 102.02 388.511C102.197 388.634 102.373 388.739 102.546 388.825C102.719 388.907 102.938 388.985 103.202 389.058C103.471 389.131 103.715 389.19 103.934 389.235C104.157 389.276 104.43 389.324 104.754 389.379C105.738 389.543 106.424 389.741 106.812 389.974C107.203 390.206 107.399 390.587 107.399 391.115C107.399 391.671 107.178 392.129 106.736 392.489C106.299 392.845 105.668 393.022 104.843 393.022C104.123 393.022 103.521 392.826 103.038 392.435C102.56 392.038 102.302 391.553 102.266 390.979C102.266 390.883 102.213 390.835 102.108 390.835H101.145C101.049 390.835 101.001 390.878 101.001 390.965C101.024 391.598 101.215 392.161 101.575 392.653C101.935 393.141 102.4 393.51 102.97 393.761C103.539 394.011 104.164 394.137 104.843 394.137ZM116.86 390.473C116.874 390.386 116.924 390.343 117.011 390.343H118.022C118.118 390.343 118.159 390.395 118.146 390.5C118.027 391.033 117.858 391.516 117.64 391.949C117.421 392.378 117.147 392.758 116.819 393.091C116.491 393.424 116.088 393.681 115.609 393.863C115.135 394.046 114.604 394.137 114.017 394.137C113.324 394.137 112.704 394.009 112.157 393.754C111.61 393.499 111.161 393.143 110.811 392.688C110.46 392.232 110.191 391.701 110.004 391.095C109.822 390.484 109.73 389.819 109.73 389.099C109.73 388.374 109.822 387.709 110.004 387.103C110.186 386.492 110.451 385.961 110.797 385.51C111.148 385.054 111.597 384.699 112.144 384.443C112.695 384.188 113.319 384.061 114.017 384.061C114.6 384.061 115.126 384.149 115.596 384.327C116.07 384.5 116.471 384.751 116.799 385.079C117.127 385.403 117.4 385.776 117.619 386.2C117.842 386.619 118.018 387.096 118.146 387.629C118.159 387.734 118.118 387.786 118.022 387.786H117.011C116.924 387.786 116.874 387.743 116.86 387.656C116.76 387.273 116.635 386.938 116.484 386.651C116.334 386.36 116.147 386.1 115.924 385.872C115.705 385.644 115.434 385.471 115.11 385.353C114.791 385.229 114.427 385.168 114.017 385.168C113.342 385.168 112.772 385.341 112.308 385.688C111.847 386.034 111.512 386.496 111.303 387.075C111.093 387.654 110.988 388.328 110.988 389.099C110.988 389.664 111.05 390.183 111.173 390.657C111.296 391.127 111.478 391.541 111.72 391.901C111.961 392.257 112.278 392.535 112.67 392.735C113.062 392.936 113.511 393.036 114.017 393.036C114.427 393.036 114.791 392.975 115.11 392.852C115.434 392.724 115.705 392.542 115.924 392.305C116.147 392.068 116.334 391.801 116.484 391.505C116.635 391.209 116.76 390.865 116.86 390.473Z" fill="#5F5CFE"/>
<g filter="url(#filter3_dii)">
<circle cx="497.749" cy="357.855" r="24.7137" fill="#F5F5F5"/>
<circle cx="497.749" cy="357.855" r="24.7137" fill="url(#paint3_linear)"/>
</g>
<path d="M481.182 363C481.1 363 481.059 362.961 481.059 362.883V354.721C481.059 354.686 481.07 354.656 481.094 354.633C481.117 354.609 481.146 354.598 481.182 354.598H482.166C482.221 354.598 482.264 354.631 482.295 354.697L485.295 361.658L488.295 354.697C488.326 354.631 488.371 354.598 488.43 354.598H489.414C489.492 354.598 489.531 354.639 489.531 354.721V362.883C489.531 362.961 489.492 363 489.414 363H488.57C488.492 363 488.453 362.961 488.453 362.883V357.059L485.869 362.906C485.85 362.969 485.807 363 485.74 363H484.85C484.783 363 484.74 362.969 484.721 362.906L482.137 357.059V362.883C482.137 362.961 482.098 363 482.02 363H481.182ZM497.775 362.865C497.791 362.904 497.789 362.938 497.77 362.965C497.75 362.988 497.719 363 497.676 363H496.791C496.717 363 496.668 362.969 496.645 362.906L495.9 360.826H492.303L491.57 362.906C491.551 362.969 491.502 363 491.424 363H490.539C490.496 363 490.465 362.988 490.445 362.965C490.43 362.938 490.43 362.904 490.445 362.865L493.562 354.697C493.586 354.631 493.635 354.598 493.709 354.598H494.512C494.582 354.598 494.629 354.631 494.652 354.697L497.775 362.865ZM492.648 359.865H495.566L494.102 355.764L492.648 359.865ZM503.717 354.598C503.752 354.598 503.781 354.609 503.805 354.633C503.828 354.656 503.84 354.686 503.84 354.721V355.441C503.84 355.52 503.799 355.559 503.717 355.559H500.898V362.883C500.898 362.961 500.857 363 500.775 363H499.938C499.855 363 499.814 362.961 499.814 362.883V355.559H496.996C496.918 355.559 496.879 355.52 496.879 355.441V354.721C496.879 354.639 496.918 354.598 496.996 354.598H503.717ZM504.801 354.721C504.801 354.686 504.812 354.656 504.836 354.633C504.859 354.609 504.889 354.598 504.924 354.598H505.773C505.852 354.598 505.891 354.639 505.891 354.721V362.883C505.891 362.961 505.852 363 505.773 363H504.924C504.842 363 504.801 362.961 504.801 362.883V354.721ZM513.32 359.977C513.332 359.902 513.375 359.865 513.449 359.865H514.316C514.398 359.865 514.434 359.91 514.422 360C514.32 360.457 514.176 360.871 513.988 361.242C513.801 361.609 513.566 361.936 513.285 362.221C513.004 362.506 512.658 362.727 512.248 362.883C511.842 363.039 511.387 363.117 510.883 363.117C510.289 363.117 509.758 363.008 509.289 362.789C508.82 362.57 508.436 362.266 508.135 361.875C507.834 361.484 507.604 361.029 507.443 360.51C507.287 359.986 507.209 359.416 507.209 358.799C507.209 358.178 507.287 357.607 507.443 357.088C507.6 356.564 507.826 356.109 508.123 355.723C508.424 355.332 508.809 355.027 509.277 354.809C509.75 354.59 510.285 354.48 510.883 354.48C511.383 354.48 511.834 354.557 512.236 354.709C512.643 354.857 512.986 355.072 513.268 355.354C513.549 355.631 513.783 355.951 513.971 356.314C514.162 356.674 514.312 357.082 514.422 357.539C514.434 357.629 514.398 357.674 514.316 357.674H513.449C513.375 357.674 513.332 357.637 513.32 357.562C513.234 357.234 513.127 356.947 512.998 356.701C512.869 356.451 512.709 356.229 512.518 356.033C512.33 355.838 512.098 355.689 511.82 355.588C511.547 355.482 511.234 355.43 510.883 355.43C510.305 355.43 509.816 355.578 509.418 355.875C509.023 356.172 508.736 356.568 508.557 357.064C508.377 357.561 508.287 358.139 508.287 358.799C508.287 359.283 508.34 359.729 508.445 360.135C508.551 360.537 508.707 360.893 508.914 361.201C509.121 361.506 509.393 361.744 509.729 361.916C510.064 362.088 510.449 362.174 510.883 362.174C511.234 362.174 511.547 362.121 511.82 362.016C512.098 361.906 512.33 361.75 512.518 361.547C512.709 361.344 512.869 361.115 512.998 360.861C513.127 360.607 513.234 360.312 513.32 359.977Z" fill="#5F5CFE"/>
<g filter="url(#filter4_dii)">
<circle cx="309.693" cy="450.145" r="24.7137" fill="#F5F5F5"/>
<circle cx="309.693" cy="450.145" r="24.7137" fill="url(#paint4_linear)"/>
</g>
<path d="M300.992 446.598C301.699 446.598 302.324 446.707 302.867 446.926C303.414 447.141 303.854 447.441 304.186 447.828C304.518 448.215 304.766 448.656 304.93 449.152C305.098 449.648 305.182 450.193 305.182 450.787C305.182 451.256 305.131 451.697 305.029 452.111C304.928 452.525 304.766 452.91 304.543 453.266C304.324 453.621 304.053 453.928 303.729 454.186C303.408 454.439 303.014 454.639 302.545 454.783C302.08 454.928 301.562 455 300.992 455H298.701C298.619 455 298.578 454.961 298.578 454.883V446.721C298.578 446.686 298.59 446.656 298.613 446.633C298.637 446.609 298.666 446.598 298.701 446.598H300.992ZM300.992 453.934C301.445 453.934 301.85 453.879 302.205 453.77C302.564 453.66 302.861 453.512 303.096 453.324C303.33 453.133 303.523 452.902 303.676 452.633C303.832 452.363 303.943 452.078 304.01 451.777C304.076 451.473 304.109 451.143 304.109 450.787C304.109 450.338 304.055 449.932 303.945 449.568C303.836 449.205 303.662 448.879 303.424 448.59C303.189 448.297 302.865 448.07 302.451 447.91C302.041 447.75 301.555 447.67 300.992 447.67H299.645V453.934H300.992ZM309.945 455.117C310.562 455.117 311.113 455.01 311.598 454.795C312.082 454.58 312.477 454.279 312.781 453.893C313.086 453.506 313.316 453.053 313.473 452.533C313.633 452.01 313.713 451.432 313.713 450.799C313.713 450.166 313.633 449.588 313.473 449.064C313.312 448.537 313.078 448.082 312.77 447.699C312.461 447.312 312.066 447.014 311.586 446.803C311.105 446.588 310.559 446.48 309.945 446.48C309.324 446.48 308.771 446.588 308.287 446.803C307.807 447.014 307.412 447.312 307.104 447.699C306.795 448.086 306.561 448.541 306.4 449.064C306.244 449.588 306.166 450.166 306.166 450.799C306.166 451.654 306.305 452.402 306.582 453.043C306.859 453.684 307.285 454.189 307.859 454.561C308.434 454.932 309.129 455.117 309.945 455.117ZM309.945 447.441C310.824 447.441 311.488 447.744 311.938 448.35C312.387 448.955 312.611 449.771 312.611 450.799C312.611 451.299 312.557 451.752 312.447 452.158C312.338 452.564 312.176 452.918 311.961 453.219C311.75 453.52 311.473 453.752 311.129 453.916C310.785 454.08 310.391 454.162 309.945 454.162C309.496 454.162 309.1 454.08 308.756 453.916C308.412 453.752 308.133 453.52 307.918 453.219C307.703 452.918 307.541 452.564 307.432 452.158C307.326 451.752 307.273 451.299 307.273 450.799C307.273 450.299 307.326 449.848 307.432 449.445C307.541 449.039 307.703 448.686 307.918 448.385C308.133 448.084 308.412 447.852 308.756 447.688C309.1 447.523 309.496 447.441 309.945 447.441ZM320.896 446.598C320.932 446.598 320.961 446.609 320.984 446.633C321.008 446.656 321.02 446.686 321.02 446.721V447.441C321.02 447.52 320.979 447.559 320.896 447.559H318.078V454.883C318.078 454.961 318.037 455 317.955 455H317.117C317.035 455 316.994 454.961 316.994 454.883V447.559H314.176C314.098 447.559 314.059 447.52 314.059 447.441V446.721C314.059 446.639 314.098 446.598 314.176 446.598H320.896Z" fill="#5F5CFE"/>
<g filter="url(#filter5_dii)">
<circle cx="457.59" cy="443.194" r="24.7137" fill="#F5F5F5"/>
<circle cx="457.59" cy="443.194" r="24.7137" fill="url(#paint5_linear)"/>
</g>
<path d="M451.746 439.598C451.781 439.598 451.811 439.609 451.834 439.633C451.857 439.656 451.869 439.686 451.869 439.721V440.559C451.869 440.594 451.857 440.623 451.834 440.646C451.811 440.67 451.781 440.682 451.746 440.682H447.58V443.318H451.389C451.467 443.318 451.506 443.359 451.506 443.441V444.162C451.506 444.24 451.467 444.279 451.389 444.279H447.58V447.883C447.58 447.961 447.541 448 447.463 448H446.625C446.543 448 446.502 447.961 446.502 447.883V439.721C446.502 439.686 446.514 439.656 446.537 439.633C446.561 439.609 446.59 439.598 446.625 439.598H451.746ZM458.941 439.598C458.977 439.598 459.006 439.609 459.029 439.633C459.053 439.656 459.064 439.686 459.064 439.721V440.441C459.064 440.52 459.023 440.559 458.941 440.559H456.123V447.883C456.123 447.961 456.082 448 456 448H455.162C455.08 448 455.039 447.961 455.039 447.883V440.559H452.221C452.143 440.559 452.104 440.52 452.104 440.441V439.721C452.104 439.639 452.143 439.598 452.221 439.598H458.941ZM460.148 448C460.066 448 460.025 447.961 460.025 447.883V439.721C460.025 439.686 460.037 439.656 460.061 439.633C460.084 439.609 460.113 439.598 460.148 439.598H461.133C461.188 439.598 461.23 439.631 461.262 439.697L464.262 446.658L467.262 439.697C467.293 439.631 467.338 439.598 467.396 439.598H468.381C468.459 439.598 468.498 439.639 468.498 439.721V447.883C468.498 447.961 468.459 448 468.381 448H467.537C467.459 448 467.42 447.961 467.42 447.883V442.059L464.836 447.906C464.816 447.969 464.773 448 464.707 448H463.816C463.75 448 463.707 447.969 463.688 447.906L461.104 442.059V447.883C461.104 447.961 461.064 448 460.986 448H460.148Z" fill="#5F5CFE"/>
<g filter="url(#filter6_dii)">
<circle cx="180.719" cy="141.609" r="24.7137" fill="#F5F5F5"/>
<circle cx="180.719" cy="141.609" r="24.7137" fill="url(#paint6_linear)"/>
</g>
<path d="M174.033 146.524C174.049 146.563 174.047 146.596 174.027 146.624C174.008 146.647 173.977 146.659 173.934 146.659H173.049C172.975 146.659 172.926 146.627 172.902 146.565L172.158 144.485H168.561L167.828 146.565C167.809 146.627 167.76 146.659 167.682 146.659H166.797C166.754 146.659 166.723 146.647 166.703 146.624C166.687 146.596 166.687 146.563 166.703 146.524L169.82 138.356C169.844 138.29 169.893 138.256 169.967 138.256H170.769C170.84 138.256 170.887 138.29 170.91 138.356L174.033 146.524ZM168.906 143.524H171.824L170.359 139.422L168.906 143.524ZM176.506 146.659C176.436 146.659 176.391 146.627 176.371 146.565L173.219 138.403C173.203 138.364 173.203 138.331 173.219 138.303C173.238 138.272 173.269 138.256 173.312 138.256H174.238C174.301 138.256 174.344 138.29 174.367 138.356L176.998 145.387L179.611 138.356C179.635 138.29 179.68 138.256 179.746 138.256H180.666C180.709 138.256 180.74 138.272 180.76 138.303C180.779 138.331 180.781 138.364 180.766 138.403L177.607 146.565C177.588 146.627 177.545 146.659 177.478 146.659H176.506ZM187.404 146.524C187.42 146.563 187.418 146.596 187.398 146.624C187.379 146.647 187.348 146.659 187.305 146.659H186.42C186.346 146.659 186.297 146.627 186.273 146.565L185.529 144.485H181.932L181.199 146.565C181.18 146.627 181.131 146.659 181.053 146.659H180.168C180.125 146.659 180.094 146.647 180.074 146.624C180.059 146.596 180.059 146.563 180.074 146.524L183.191 138.356C183.215 138.29 183.264 138.256 183.338 138.256H184.141C184.211 138.256 184.258 138.29 184.281 138.356L187.404 146.524ZM182.277 143.524H185.195L183.73 139.422L182.277 143.524ZM194.723 146.512C194.746 146.547 194.748 146.581 194.728 146.612C194.713 146.643 194.682 146.659 194.635 146.659H193.627C193.561 146.659 193.514 146.635 193.486 146.588L191.172 143.26L188.916 146.588C188.889 146.635 188.84 146.659 188.769 146.659H187.762C187.715 146.659 187.684 146.643 187.668 146.612C187.652 146.581 187.656 146.547 187.68 146.512L190.533 142.34L187.785 138.403C187.762 138.368 187.758 138.334 187.773 138.303C187.789 138.272 187.82 138.256 187.867 138.256H188.875C188.941 138.256 188.99 138.282 189.021 138.333L191.242 141.52L193.428 138.333C193.459 138.282 193.506 138.256 193.568 138.256H194.576C194.623 138.256 194.654 138.272 194.67 138.303C194.689 138.334 194.687 138.368 194.664 138.403L191.898 142.458L194.723 146.512Z" fill="#5F5CFE"/>
<g filter="url(#filter7_dii)">
<circle cx="304.673" cy="134.659" r="28.9614" fill="#F5F5F5"/>
<circle cx="304.673" cy="134.659" r="28.9614" fill="url(#paint7_linear)"/>
</g>
<path d="M288.221 136.229C288.231 136.16 288.271 136.126 288.339 136.126H289.134C289.209 136.126 289.241 136.168 289.23 136.25C289.137 136.669 289.005 137.049 288.833 137.389C288.661 137.725 288.446 138.024 288.188 138.286C287.931 138.547 287.614 138.749 287.238 138.893C286.865 139.036 286.448 139.107 285.986 139.107C285.442 139.107 284.955 139.007 284.525 138.807C284.096 138.606 283.743 138.327 283.467 137.969C283.192 137.611 282.98 137.194 282.833 136.717C282.69 136.237 282.619 135.715 282.619 135.149C282.619 134.58 282.69 134.057 282.833 133.581C282.977 133.101 283.184 132.684 283.457 132.329C283.732 131.971 284.085 131.692 284.515 131.491C284.948 131.291 285.438 131.19 285.986 131.19C286.445 131.19 286.858 131.26 287.227 131.4C287.599 131.536 287.915 131.733 288.172 131.991C288.43 132.245 288.645 132.539 288.817 132.872C288.992 133.201 289.13 133.575 289.23 133.994C289.241 134.076 289.209 134.118 289.134 134.118H288.339C288.271 134.118 288.231 134.084 288.221 134.016C288.142 133.715 288.043 133.452 287.925 133.226C287.807 132.997 287.66 132.793 287.485 132.614C287.313 132.435 287.1 132.299 286.846 132.206C286.595 132.109 286.309 132.061 285.986 132.061C285.456 132.061 285.009 132.197 284.644 132.469C284.282 132.741 284.019 133.104 283.854 133.559C283.689 134.014 283.607 134.544 283.607 135.149C283.607 135.593 283.655 136.001 283.752 136.374C283.849 136.742 283.992 137.068 284.182 137.351C284.371 137.63 284.62 137.849 284.928 138.006C285.236 138.164 285.589 138.243 285.986 138.243C286.309 138.243 286.595 138.194 286.846 138.098C287.1 137.997 287.313 137.854 287.485 137.668C287.66 137.482 287.807 137.272 287.925 137.04C288.043 136.807 288.142 136.536 288.221 136.229ZM293.452 139.107C294.018 139.107 294.523 139.009 294.967 138.812C295.411 138.615 295.772 138.339 296.052 137.985C296.331 137.63 296.542 137.215 296.686 136.739C296.832 136.259 296.906 135.729 296.906 135.149C296.906 134.569 296.832 134.039 296.686 133.559C296.539 133.076 296.324 132.659 296.041 132.308C295.758 131.953 295.396 131.679 294.956 131.486C294.516 131.289 294.014 131.19 293.452 131.19C292.883 131.19 292.376 131.289 291.932 131.486C291.492 131.679 291.13 131.953 290.847 132.308C290.564 132.662 290.349 133.079 290.203 133.559C290.059 134.039 289.988 134.569 289.988 135.149C289.988 135.933 290.115 136.619 290.369 137.206C290.623 137.793 291.014 138.257 291.54 138.597C292.066 138.937 292.704 139.107 293.452 139.107ZM293.452 132.071C294.258 132.071 294.867 132.349 295.278 132.904C295.69 133.459 295.896 134.207 295.896 135.149C295.896 135.607 295.846 136.023 295.746 136.395C295.645 136.767 295.497 137.091 295.3 137.367C295.106 137.643 294.852 137.856 294.537 138.006C294.222 138.157 293.86 138.232 293.452 138.232C293.04 138.232 292.677 138.157 292.362 138.006C292.047 137.856 291.791 137.643 291.594 137.367C291.397 137.091 291.248 136.767 291.148 136.395C291.051 136.023 291.003 135.607 291.003 135.149C291.003 134.691 291.051 134.277 291.148 133.908C291.248 133.536 291.397 133.212 291.594 132.936C291.791 132.66 292.047 132.447 292.362 132.297C292.677 132.146 293.04 132.071 293.452 132.071ZM300.746 139.107C301.287 139.107 301.783 139.005 302.234 138.801C302.685 138.594 303.045 138.309 303.313 137.947C303.586 137.582 303.731 137.177 303.749 136.733C303.759 136.476 303.734 136.245 303.673 136.041C303.616 135.836 303.521 135.661 303.389 135.514C303.256 135.364 303.108 135.235 302.943 135.127C302.782 135.02 302.581 134.927 302.341 134.848C302.105 134.769 301.872 134.705 301.643 134.655C301.417 134.605 301.151 134.556 300.843 134.51C300.617 134.47 300.436 134.436 300.3 134.408C300.164 134.379 300.014 134.343 299.849 134.3C299.688 134.254 299.561 134.205 299.468 134.155C299.375 134.105 299.285 134.044 299.199 133.973C299.113 133.897 299.052 133.812 299.017 133.715C298.981 133.615 298.963 133.502 298.963 133.376C298.963 132.993 299.124 132.68 299.446 132.437C299.769 132.193 300.202 132.071 300.746 132.071C301.283 132.071 301.708 132.195 302.019 132.442C302.331 132.689 302.499 133.038 302.524 133.489C302.524 133.561 302.562 133.597 302.637 133.597H303.405C303.48 133.597 303.518 133.561 303.518 133.489C303.5 133.031 303.362 132.625 303.104 132.27C302.846 131.916 302.511 131.647 302.1 131.464C301.688 131.282 301.237 131.19 300.746 131.19C299.973 131.19 299.325 131.398 298.802 131.813C298.279 132.229 298.003 132.75 297.975 133.376C297.964 133.577 297.98 133.761 298.023 133.93C298.069 134.094 298.13 134.238 298.206 134.359C298.284 134.478 298.392 134.587 298.528 134.687C298.667 134.784 298.805 134.866 298.941 134.934C299.077 134.999 299.249 135.059 299.457 135.117C299.668 135.174 299.86 135.221 300.032 135.256C300.207 135.289 300.422 135.326 300.676 135.369C301.45 135.498 301.989 135.654 302.293 135.836C302.601 136.019 302.755 136.318 302.755 136.733C302.755 137.17 302.581 137.53 302.234 137.813C301.89 138.092 301.394 138.232 300.746 138.232C300.18 138.232 299.708 138.078 299.328 137.77C298.952 137.458 298.75 137.077 298.721 136.626C298.721 136.551 298.68 136.513 298.598 136.513H297.84C297.765 136.513 297.728 136.547 297.728 136.615C297.745 137.113 297.896 137.555 298.179 137.942C298.462 138.325 298.827 138.615 299.274 138.812C299.722 139.009 300.213 139.107 300.746 139.107ZM304.919 139C304.844 139 304.807 138.964 304.807 138.893V131.411C304.807 131.378 304.817 131.352 304.839 131.33C304.86 131.309 304.887 131.298 304.919 131.298H305.822C305.872 131.298 305.911 131.328 305.94 131.389L308.69 137.77L311.44 131.389C311.469 131.328 311.51 131.298 311.563 131.298H312.466C312.537 131.298 312.573 131.335 312.573 131.411V138.893C312.573 138.964 312.537 139 312.466 139H311.692C311.621 139 311.585 138.964 311.585 138.893V133.554L309.216 138.914C309.198 138.971 309.159 139 309.098 139H308.282C308.221 139 308.181 138.971 308.164 138.914L305.795 133.554V138.893C305.795 138.964 305.759 139 305.688 139H304.919ZM317.235 139.107C317.801 139.107 318.306 139.009 318.75 138.812C319.194 138.615 319.556 138.339 319.835 137.985C320.114 137.63 320.326 137.215 320.469 136.739C320.616 136.259 320.689 135.729 320.689 135.149C320.689 134.569 320.616 134.039 320.469 133.559C320.322 133.076 320.107 132.659 319.824 132.308C319.541 131.953 319.18 131.679 318.739 131.486C318.299 131.289 317.798 131.19 317.235 131.19C316.666 131.19 316.159 131.289 315.715 131.486C315.275 131.679 314.913 131.953 314.63 132.308C314.347 132.662 314.133 133.079 313.986 133.559C313.843 134.039 313.771 134.569 313.771 135.149C313.771 135.933 313.898 136.619 314.152 137.206C314.407 137.793 314.797 138.257 315.323 138.597C315.85 138.937 316.487 139.107 317.235 139.107ZM317.235 132.071C318.041 132.071 318.65 132.349 319.062 132.904C319.473 133.459 319.679 134.207 319.679 135.149C319.679 135.607 319.629 136.023 319.529 136.395C319.429 136.767 319.28 137.091 319.083 137.367C318.89 137.643 318.635 137.856 318.32 138.006C318.005 138.157 317.644 138.232 317.235 138.232C316.824 138.232 316.46 138.157 316.145 138.006C315.83 137.856 315.574 137.643 315.377 137.367C315.18 137.091 315.031 136.767 314.931 136.395C314.834 136.023 314.786 135.607 314.786 135.149C314.786 134.691 314.834 134.277 314.931 133.908C315.031 133.536 315.18 133.212 315.377 132.936C315.574 132.66 315.83 132.447 316.145 132.297C316.46 132.146 316.824 132.071 317.235 132.071ZM324.529 139.107C325.07 139.107 325.566 139.005 326.017 138.801C326.468 138.594 326.828 138.309 327.097 137.947C327.369 137.582 327.514 137.177 327.532 136.733C327.542 136.476 327.517 136.245 327.457 136.041C327.399 135.836 327.304 135.661 327.172 135.514C327.039 135.364 326.891 135.235 326.726 135.127C326.565 135.02 326.364 134.927 326.125 134.848C325.888 134.769 325.655 134.705 325.426 134.655C325.201 134.605 324.934 134.556 324.626 134.51C324.4 134.47 324.22 134.436 324.083 134.408C323.947 134.379 323.797 134.343 323.632 134.3C323.471 134.254 323.344 134.205 323.251 134.155C323.158 134.105 323.068 134.044 322.982 133.973C322.896 133.897 322.836 133.812 322.8 133.715C322.764 133.615 322.746 133.502 322.746 133.376C322.746 132.993 322.907 132.68 323.229 132.437C323.552 132.193 323.985 132.071 324.529 132.071C325.066 132.071 325.491 132.195 325.802 132.442C326.114 132.689 326.282 133.038 326.307 133.489C326.307 133.561 326.345 133.597 326.42 133.597H327.188C327.263 133.597 327.301 133.561 327.301 133.489C327.283 133.031 327.145 132.625 326.887 132.27C326.629 131.916 326.295 131.647 325.883 131.464C325.471 131.282 325.02 131.19 324.529 131.19C323.756 131.19 323.108 131.398 322.585 131.813C322.062 132.229 321.786 132.75 321.758 133.376C321.747 133.577 321.763 133.761 321.806 133.93C321.853 134.094 321.914 134.238 321.989 134.359C322.068 134.478 322.175 134.587 322.311 134.687C322.451 134.784 322.589 134.866 322.725 134.934C322.861 134.999 323.033 135.059 323.24 135.117C323.451 135.174 323.643 135.221 323.815 135.256C323.99 135.289 324.205 135.326 324.459 135.369C325.233 135.498 325.772 135.654 326.076 135.836C326.384 136.019 326.538 136.318 326.538 136.733C326.538 137.17 326.364 137.53 326.017 137.813C325.673 138.092 325.177 138.232 324.529 138.232C323.964 138.232 323.491 138.078 323.111 137.77C322.735 137.458 322.533 137.077 322.504 136.626C322.504 136.551 322.463 136.513 322.381 136.513H321.624C321.548 136.513 321.511 136.547 321.511 136.615C321.529 137.113 321.679 137.555 321.962 137.942C322.245 138.325 322.61 138.615 323.058 138.812C323.505 139.009 323.996 139.107 324.529 139.107Z" fill="#5F5CFE"/>
<defs>
<filter id="filter0_dii" x="415.36" y="13.2686" width="256.682" height="260.682" filterUnits="userSpaceOnUse" color-interpolation-filters="sRGB">
<feFlood flood-opacity="0" result="BackgroundImageFix"/>
<feColorMatrix in="SourceAlpha" type="matrix" values="0 0 0 0 0 0 0 0 0 0 0 0 0 0 0 0 0 0 127 0"/>
<feOffset dy="4"/>
<feGaussianBlur stdDeviation="2"/>
<feColorMatrix type="matrix" values="0 0 0 0 0 0 0 0 0 0 0 0 0 0 0 0 0 0 0.25 0"/>
<feBlend mode="normal" in2="BackgroundImageFix" result="effect1_dropShadow"/>
<feBlend mode="normal" in="SourceGraphic" in2="effect1_dropShadow" result="shape"/>
<feColorMatrix in="SourceAlpha" type="matrix" values="0 0 0 0 0 0 0 0 0 0 0 0 0 0 0 0 0 0 127 0" result="hardAlpha"/>
<feOffset dy="-4"/>
<feGaussianBlur stdDeviation="2"/>
<feComposite in2="hardAlpha" operator="arithmetic" k2="-1" k3="1"/>
<feColorMatrix type="matrix" values="0 0 0 0 0 0 0 0 0 0 0 0 0 0 0 0 0 0 0.1 0"/>
<feBlend mode="normal" in2="shape" result="effect2_innerShadow"/>
<feColorMatrix in="SourceAlpha" type="matrix" values="0 0 0 0 0 0 0 0 0 0 0 0 0 0 0 0 0 0 127 0" result="hardAlpha"/>
<feOffset/>
<feGaussianBlur stdDeviation="1"/>
<feComposite in2="hardAlpha" operator="arithmetic" k2="-1" k3="1"/>
<feColorMatrix type="matrix" values="0 0 0 0 1 0 0 0 0 1 0 0 0 0 1 0 0 0 1 0"/>
<feBlend mode="normal" in2="effect2_innerShadow" result="effect3_innerShadow"/>
</filter>
<filter id="filter1_dii" x="17.624" y="175.453" width="94.4981" height="98.4981" filterUnits="userSpaceOnUse" color-interpolation-filters="sRGB">
<feFlood flood-opacity="0" result="BackgroundImageFix"/>
<feColorMatrix in="SourceAlpha" type="matrix" values="0 0 0 0 0 0 0 0 0 0 0 0 0 0 0 0 0 0 127 0"/>
<feOffset dy="4"/>
<feGaussianBlur stdDeviation="2"/>
<feColorMatrix type="matrix" values="0 0 0 0 0 0 0 0 0 0 0 0 0 0 0 0 0 0 0.25 0"/>
<feBlend mode="normal" in2="BackgroundImageFix" result="effect1_dropShadow"/>
<feBlend mode="normal" in="SourceGraphic" in2="effect1_dropShadow" result="shape"/>
<feColorMatrix in="SourceAlpha" type="matrix" values="0 0 0 0 0 0 0 0 0 0 0 0 0 0 0 0 0 0 127 0" result="hardAlpha"/>
<feOffset dy="-4"/>
<feGaussianBlur stdDeviation="2"/>
<feComposite in2="hardAlpha" operator="arithmetic" k2="-1" k3="1"/>
<feColorMatrix type="matrix" values="0 0 0 0 0 0 0 0 0 0 0 0 0 0 0 0 0 0 0.1 0"/>
<feBlend mode="normal" in2="shape" result="effect2_innerShadow"/>
<feColorMatrix in="SourceAlpha" type="matrix" values="0 0 0 0 0 0 0 0 0 0 0 0 0 0 0 0 0 0 127 0" result="hardAlpha"/>
<feOffset/>
<feGaussianBlur stdDeviation="1"/>
<feComposite in2="hardAlpha" operator="arithmetic" k2="-1" k3="1"/>
<feColorMatrix type="matrix" values="0 0 0 0 1 0 0 0 0 1 0 0 0 0 1 0 0 0 1 0"/>
<feBlend mode="normal" in2="effect2_innerShadow" result="effect3_innerShadow"/>
</filter>
<filter id="filter2_dii" x="67.4375" y="349.994" width="75.9628" height="79.9628" filterUnits="userSpaceOnUse" color-interpolation-filters="sRGB">
<feFlood flood-opacity="0" result="BackgroundImageFix"/>
<feColorMatrix in="SourceAlpha" type="matrix" values="0 0 0 0 0 0 0 0 0 0 0 0 0 0 0 0 0 0 127 0"/>
<feOffset dy="4"/>
<feGaussianBlur stdDeviation="2"/>
<feColorMatrix type="matrix" values="0 0 0 0 0 0 0 0 0 0 0 0 0 0 0 0 0 0 0.25 0"/>
<feBlend mode="normal" in2="BackgroundImageFix" result="effect1_dropShadow"/>
<feBlend mode="normal" in="SourceGraphic" in2="effect1_dropShadow" result="shape"/>
<feColorMatrix in="SourceAlpha" type="matrix" values="0 0 0 0 0 0 0 0 0 0 0 0 0 0 0 0 0 0 127 0" result="hardAlpha"/>
<feOffset dy="-4"/>
<feGaussianBlur stdDeviation="2"/>
<feComposite in2="hardAlpha" operator="arithmetic" k2="-1" k3="1"/>
<feColorMatrix type="matrix" values="0 0 0 0 0 0 0 0 0 0 0 0 0 0 0 0 0 0 0.1 0"/>
<feBlend mode="normal" in2="shape" result="effect2_innerShadow"/>
<feColorMatrix in="SourceAlpha" type="matrix" values="0 0 0 0 0 0 0 0 0 0 0 0 0 0 0 0 0 0 127 0" result="hardAlpha"/>
<feOffset/>
<feGaussianBlur stdDeviation="1"/>
<feComposite in2="hardAlpha" operator="arithmetic" k2="-1" k3="1"/>
<feColorMatrix type="matrix" values="0 0 0 0 1 0 0 0 0 1 0 0 0 0 1 0 0 0 1 0"/>
<feBlend mode="normal" in2="effect2_innerShadow" result="effect3_innerShadow"/>
</filter>
<filter id="filter3_dii" x="469.035" y="329.141" width="57.4275" height="61.4275" filterUnits="userSpaceOnUse" color-interpolation-filters="sRGB">
<feFlood flood-opacity="0" result="BackgroundImageFix"/>
<feColorMatrix in="SourceAlpha" type="matrix" values="0 0 0 0 0 0 0 0 0 0 0 0 0 0 0 0 0 0 127 0"/>
<feOffset dy="4"/>
<feGaussianBlur stdDeviation="2"/>
<feColorMatrix type="matrix" values="0 0 0 0 0 0 0 0 0 0 0 0 0 0 0 0 0 0 0.25 0"/>
<feBlend mode="normal" in2="BackgroundImageFix" result="effect1_dropShadow"/>
<feBlend mode="normal" in="SourceGraphic" in2="effect1_dropShadow" result="shape"/>
<feColorMatrix in="SourceAlpha" type="matrix" values="0 0 0 0 0 0 0 0 0 0 0 0 0 0 0 0 0 0 127 0" result="hardAlpha"/>
<feOffset dy="-4"/>
<feGaussianBlur stdDeviation="2"/>
<feComposite in2="hardAlpha" operator="arithmetic" k2="-1" k3="1"/>
<feColorMatrix type="matrix" values="0 0 0 0 0 0 0 0 0 0 0 0 0 0 0 0 0 0 0.1 0"/>
<feBlend mode="normal" in2="shape" result="effect2_innerShadow"/>
<feColorMatrix in="SourceAlpha" type="matrix" values="0 0 0 0 0 0 0 0 0 0 0 0 0 0 0 0 0 0 127 0" result="hardAlpha"/>
<feOffset/>
<feGaussianBlur stdDeviation="1"/>
<feComposite in2="hardAlpha" operator="arithmetic" k2="-1" k3="1"/>
<feColorMatrix type="matrix" values="0 0 0 0 1 0 0 0 0 1 0 0 0 0 1 0 0 0 1 0"/>
<feBlend mode="normal" in2="effect2_innerShadow" result="effect3_innerShadow"/>
</filter>
<filter id="filter4_dii" x="280.979" y="421.432" width="57.4275" height="61.4275" filterUnits="userSpaceOnUse" color-interpolation-filters="sRGB">
<feFlood flood-opacity="0" result="BackgroundImageFix"/>
<feColorMatrix in="SourceAlpha" type="matrix" values="0 0 0 0 0 0 0 0 0 0 0 0 0 0 0 0 0 0 127 0"/>
<feOffset dy="4"/>
<feGaussianBlur stdDeviation="2"/>
<feColorMatrix type="matrix" values="0 0 0 0 0 0 0 0 0 0 0 0 0 0 0 0 0 0 0.25 0"/>
<feBlend mode="normal" in2="BackgroundImageFix" result="effect1_dropShadow"/>
<feBlend mode="normal" in="SourceGraphic" in2="effect1_dropShadow" result="shape"/>
<feColorMatrix in="SourceAlpha" type="matrix" values="0 0 0 0 0 0 0 0 0 0 0 0 0 0 0 0 0 0 127 0" result="hardAlpha"/>
<feOffset dy="-4"/>
<feGaussianBlur stdDeviation="2"/>
<feComposite in2="hardAlpha" operator="arithmetic" k2="-1" k3="1"/>
<feColorMatrix type="matrix" values="0 0 0 0 0 0 0 0 0 0 0 0 0 0 0 0 0 0 0.1 0"/>
<feBlend mode="normal" in2="shape" result="effect2_innerShadow"/>
<feColorMatrix in="SourceAlpha" type="matrix" values="0 0 0 0 0 0 0 0 0 0 0 0 0 0 0 0 0 0 127 0" result="hardAlpha"/>
<feOffset/>
<feGaussianBlur stdDeviation="1"/>
<feComposite in2="hardAlpha" operator="arithmetic" k2="-1" k3="1"/>
<feColorMatrix type="matrix" values="0 0 0 0 1 0 0 0 0 1 0 0 0 0 1 0 0 0 1 0"/>
<feBlend mode="normal" in2="effect2_innerShadow" result="effect3_innerShadow"/>
</filter>
<filter id="filter5_dii" x="428.876" y="414.48" width="57.4275" height="61.4275" filterUnits="userSpaceOnUse" color-interpolation-filters="sRGB">
<feFlood flood-opacity="0" result="BackgroundImageFix"/>
<feColorMatrix in="SourceAlpha" type="matrix" values="0 0 0 0 0 0 0 0 0 0 0 0 0 0 0 0 0 0 127 0"/>
<feOffset dy="4"/>
<feGaussianBlur stdDeviation="2"/>
<feColorMatrix type="matrix" values="0 0 0 0 0 0 0 0 0 0 0 0 0 0 0 0 0 0 0.25 0"/>
<feBlend mode="normal" in2="BackgroundImageFix" result="effect1_dropShadow"/>
<feBlend mode="normal" in="SourceGraphic" in2="effect1_dropShadow" result="shape"/>
<feColorMatrix in="SourceAlpha" type="matrix" values="0 0 0 0 0 0 0 0 0 0 0 0 0 0 0 0 0 0 127 0" result="hardAlpha"/>
<feOffset dy="-4"/>
<feGaussianBlur stdDeviation="2"/>
<feComposite in2="hardAlpha" operator="arithmetic" k2="-1" k3="1"/>
<feColorMatrix type="matrix" values="0 0 0 0 0 0 0 0 0 0 0 0 0 0 0 0 0 0 0.1 0"/>
<feBlend mode="normal" in2="shape" result="effect2_innerShadow"/>
<feColorMatrix in="SourceAlpha" type="matrix" values="0 0 0 0 0 0 0 0 0 0 0 0 0 0 0 0 0 0 127 0" result="hardAlpha"/>
<feOffset/>
<feGaussianBlur stdDeviation="1"/>
<feComposite in2="hardAlpha" operator="arithmetic" k2="-1" k3="1"/>
<feColorMatrix type="matrix" values="0 0 0 0 1 0 0 0 0 1 0 0 0 0 1 0 0 0 1 0"/>
<feBlend mode="normal" in2="effect2_innerShadow" result="effect3_innerShadow"/>
</filter>
<filter id="filter6_dii" x="152.005" y="112.896" width="57.4275" height="61.4275" filterUnits="userSpaceOnUse" color-interpolation-filters="sRGB">
<feFlood flood-opacity="0" result="BackgroundImageFix"/>
<feColorMatrix in="SourceAlpha" type="matrix" values="0 0 0 0 0 0 0 0 0 0 0 0 0 0 0 0 0 0 127 0"/>
<feOffset dy="4"/>
<feGaussianBlur stdDeviation="2"/>
<feColorMatrix type="matrix" values="0 0 0 0 0 0 0 0 0 0 0 0 0 0 0 0 0 0 0.25 0"/>
<feBlend mode="normal" in2="BackgroundImageFix" result="effect1_dropShadow"/>
<feBlend mode="normal" in="SourceGraphic" in2="effect1_dropShadow" result="shape"/>
<feColorMatrix in="SourceAlpha" type="matrix" values="0 0 0 0 0 0 0 0 0 0 0 0 0 0 0 0 0 0 127 0" result="hardAlpha"/>
<feOffset dy="-4"/>
<feGaussianBlur stdDeviation="2"/>
<feComposite in2="hardAlpha" operator="arithmetic" k2="-1" k3="1"/>
<feColorMatrix type="matrix" values="0 0 0 0 0 0 0 0 0 0 0 0 0 0 0 0 0 0 0.1 0"/>
<feBlend mode="normal" in2="shape" result="effect2_innerShadow"/>
<feColorMatrix in="SourceAlpha" type="matrix" values="0 0 0 0 0 0 0 0 0 0 0 0 0 0 0 0 0 0 127 0" result="hardAlpha"/>
<feOffset/>
<feGaussianBlur stdDeviation="1"/>
<feComposite in2="hardAlpha" operator="arithmetic" k2="-1" k3="1"/>
<feColorMatrix type="matrix" values="0 0 0 0 1 0 0 0 0 1 0 0 0 0 1 0 0 0 1 0"/>
<feBlend mode="normal" in2="effect2_innerShadow" result="effect3_innerShadow"/>
</filter>
<filter id="filter7_dii" x="271.712" y="101.697" width="65.9228" height="69.9228" filterUnits="userSpaceOnUse" color-interpolation-filters="sRGB">
<feFlood flood-opacity="0" result="BackgroundImageFix"/>
<feColorMatrix in="SourceAlpha" type="matrix" values="0 0 0 0 0 0 0 0 0 0 0 0 0 0 0 0 0 0 127 0"/>
<feOffset dy="4"/>
<feGaussianBlur stdDeviation="2"/>
<feColorMatrix type="matrix" values="0 0 0 0 0 0 0 0 0 0 0 0 0 0 0 0 0 0 0.25 0"/>
<feBlend mode="normal" in2="BackgroundImageFix" result="effect1_dropShadow"/>
<feBlend mode="normal" in="SourceGraphic" in2="effect1_dropShadow" result="shape"/>
<feColorMatrix in="SourceAlpha" type="matrix" values="0 0 0 0 0 0 0 0 0 0 0 0 0 0 0 0 0 0 127 0" result="hardAlpha"/>
<feOffset dy="-4"/>
<feGaussianBlur stdDeviation="2"/>
<feComposite in2="hardAlpha" operator="arithmetic" k2="-1" k3="1"/>
<feColorMatrix type="matrix" values="0 0 0 0 0 0 0 0 0 0 0 0 0 0 0 0 0 0 0.1 0"/>
<feBlend mode="normal" in2="shape" result="effect2_innerShadow"/>
<feColorMatrix in="SourceAlpha" type="matrix" values="0 0 0 0 0 0 0 0 0 0 0 0 0 0 0 0 0 0 127 0" result="hardAlpha"/>
<feOffset/>
<feGaussianBlur stdDeviation="1"/>
<feComposite in2="hardAlpha" operator="arithmetic" k2="-1" k3="1"/>
<feColorMatrix type="matrix" values="0 0 0 0 1 0 0 0 0 1 0 0 0 0 1 0 0 0 1 0"/>
<feBlend mode="normal" in2="effect2_innerShadow" result="effect3_innerShadow"/>
</filter>
<linearGradient id="paint0_linear" x1="543.701" y1="17.2686" x2="543.701" y2="265.951" gradientUnits="userSpaceOnUse">
<stop stop-color="white"/>
<stop offset="1" stop-color="white" stop-opacity="0"/>
</linearGradient>
<linearGradient id="paint1_linear" x1="64.8731" y1="179.453" x2="64.8731" y2="265.951" gradientUnits="userSpaceOnUse">
<stop stop-color="white"/>
<stop offset="1" stop-color="white" stop-opacity="0"/>
</linearGradient>
<linearGradient id="paint2_linear" x1="105.419" y1="353.994" x2="105.419" y2="421.956" gradientUnits="userSpaceOnUse">
<stop stop-color="white"/>
<stop offset="1" stop-color="white" stop-opacity="0"/>
</linearGradient>
<linearGradient id="paint3_linear" x1="497.749" y1="333.141" x2="497.749" y2="382.569" gradientUnits="userSpaceOnUse">
<stop stop-color="white"/>
<stop offset="1" stop-color="white" stop-opacity="0"/>
</linearGradient>
<linearGradient id="paint4_linear" x1="309.693" y1="425.432" x2="309.693" y2="474.859" gradientUnits="userSpaceOnUse">
<stop stop-color="white"/>
<stop offset="1" stop-color="white" stop-opacity="0"/>
</linearGradient>
<linearGradient id="paint5_linear" x1="457.59" y1="418.48" x2="457.59" y2="467.908" gradientUnits="userSpaceOnUse">
<stop stop-color="white"/>
<stop offset="1" stop-color="white" stop-opacity="0"/>
</linearGradient>
<linearGradient id="paint6_linear" x1="180.719" y1="116.896" x2="180.719" y2="166.323" gradientUnits="userSpaceOnUse">
<stop stop-color="white"/>
<stop offset="1" stop-color="white" stop-opacity="0"/>
</linearGradient>
<linearGradient id="paint7_linear" x1="304.673" y1="105.697" x2="304.673" y2="163.62" gradientUnits="userSpaceOnUse">
<stop stop-color="white"/>
<stop offset="1" stop-color="white" stop-opacity="0"/>
</linearGradient>
</defs>
</svg>
