<svg width="558" height="485" viewBox="0 0 558 485" fill="none" xmlns="http://www.w3.org/2000/svg">
<path d="M331.352 242.158C331.352 292.185 290.967 332.735 241.153 332.735C191.339 332.735 150.954 292.185 150.954 242.158C150.954 192.132 191.339 151.581 241.153 151.581C290.967 151.581 331.352 192.132 331.352 242.158Z" stroke="#FCAB60"/>
<path d="M349.492 242.159C349.492 302.246 300.985 350.952 241.153 350.952C181.321 350.952 132.813 302.246 132.813 242.159C132.813 182.073 181.321 133.367 241.153 133.367C300.985 133.367 349.492 182.073 349.492 242.159Z" stroke="#FCAB60"/>
<path d="M366.565 242.158C366.565 311.713 310.414 368.095 241.153 368.095C171.892 368.095 115.741 311.713 115.741 242.158C115.741 172.603 171.892 116.222 241.153 116.222C310.414 116.222 366.565 172.603 366.565 242.158Z" stroke="#FCAB60"/>
<path d="M386.616 242.086C386.616 322.885 321.388 388.381 240.93 388.381C160.472 388.381 95.2441 322.885 95.2441 242.086C95.2441 161.288 160.472 95.7915 240.93 95.7915C321.388 95.7915 386.616 161.288 386.616 242.086Z" stroke="#FCAB60"/>
<path d="M404.979 242.159C404.979 333.017 331.629 406.669 241.153 406.669C150.676 406.669 77.3271 333.017 77.3271 242.159C77.3271 151.3 150.676 77.6484 241.153 77.6484C331.629 77.6484 404.979 151.3 404.979 242.159Z" stroke="#FCAB60"/>
<path d="M424.184 242.159C424.184 343.669 342.236 425.956 241.152 425.956C140.068 425.956 58.1191 343.669 58.1191 242.159C58.1191 140.648 140.068 58.3613 241.152 58.3613C342.236 58.3613 424.184 140.648 424.184 242.159Z" stroke="#FCAB60"/>
<path d="M441.258 242.159C441.258 353.137 351.666 443.1 241.153 443.1C130.64 443.1 41.0474 353.137 41.0474 242.159C41.0474 131.18 130.64 41.2173 241.153 41.2173C351.666 41.2173 441.258 131.18 441.258 242.159Z" stroke="#FCAB60"/>
<path d="M461.532 242.158C461.532 364.381 362.863 463.458 241.153 463.458C119.443 463.458 20.7734 364.381 20.7734 242.158C20.7734 119.936 119.443 20.8584 241.153 20.8584C362.863 20.8584 461.532 119.936 461.532 242.158Z" stroke="#FCAB60"/>
<path d="M481.807 242.158C481.807 375.624 374.061 483.816 241.153 483.816C108.246 483.816 0.5 375.624 0.5 242.158C0.5 108.692 108.246 0.5 241.153 0.5C374.061 0.5 481.807 108.692 481.807 242.158Z" stroke="#FCAB60"/>
<g filter="url(#filter0_dii)">
<circle cx="447.625" cy="116.594" r="102.375" fill="#FCAB60"/>
</g>
<path d="M88.9806 142.584C90.1875 142.584 91.1659 141.605 91.1659 140.399C91.1659 139.192 90.1875 138.213 88.9806 138.213C87.7738 138.213 86.7954 139.192 86.7954 140.399C86.7954 141.605 87.7738 142.584 88.9806 142.584Z" fill="#B4B3FD"/>
<path d="M21.2604 244.323C22.4673 244.323 23.4457 243.344 23.4457 242.137C23.4457 240.931 22.4673 239.952 21.2604 239.952C20.0536 239.952 19.0752 240.931 19.0752 242.137C19.0752 243.344 20.0536 244.323 21.2604 244.323Z" fill="#B4B3FD"/>
<path d="M129.994 149.896C131.201 149.896 132.18 148.918 132.18 147.711C132.18 146.504 131.201 145.526 129.994 145.526C128.787 145.526 127.809 146.504 127.809 147.711C127.809 148.918 128.787 149.896 129.994 149.896Z" fill="#B4B3FD"/>
<path d="M120.065 215.562C121.933 215.562 123.448 214.047 123.448 212.179C123.448 210.31 121.933 208.795 120.065 208.795C118.196 208.795 116.681 210.31 116.681 212.179C116.681 214.047 118.196 215.562 120.065 215.562Z" fill="#B4B3FD"/>
<path d="M78.0974 253.714C79.9661 253.714 81.481 252.2 81.481 250.331C81.481 248.462 79.9661 246.947 78.0974 246.947C76.2287 246.947 74.7139 248.462 74.7139 250.331C74.7139 252.2 76.2287 253.714 78.0974 253.714Z" fill="#B4B3FD"/>
<path d="M195.452 343.447C196.815 343.447 197.919 342.342 197.919 340.979C197.919 339.617 196.815 338.512 195.452 338.512C194.089 338.512 192.985 339.617 192.985 340.979C192.985 342.342 194.089 343.447 195.452 343.447Z" fill="#B4B3FD"/>
<path d="M71.14 385.096C72.5026 385.096 73.6072 383.991 73.6072 382.629C73.6072 381.266 72.5026 380.162 71.14 380.162C69.7775 380.162 68.6729 381.266 68.6729 382.629C68.6729 383.991 69.7775 385.096 71.14 385.096Z" fill="#B4B3FD"/>
<path d="M349.369 260.537C350.576 260.537 351.554 259.559 351.554 258.352C351.554 257.145 350.576 256.167 349.369 256.167C348.162 256.167 347.184 257.145 347.184 258.352C347.184 259.559 348.162 260.537 349.369 260.537Z" fill="#B4B3FD"/>
<path d="M360.814 238.918C362.021 238.918 362.999 237.94 362.999 236.733C362.999 235.526 362.021 234.548 360.814 234.548C359.607 234.548 358.629 235.526 358.629 236.733C358.629 237.94 359.607 238.918 360.814 238.918Z" fill="#B4B3FD"/>
<path d="M362.722 325.715C363.929 325.715 364.908 324.736 364.908 323.529C364.908 322.323 363.929 321.344 362.722 321.344C361.515 321.344 360.537 322.323 360.537 323.529C360.537 324.736 361.515 325.715 362.722 325.715Z" fill="#B4B3FD"/>
<path d="M305.812 332.391C307.019 332.391 307.997 331.413 307.997 330.206C307.997 328.999 307.019 328.021 305.812 328.021C304.605 328.021 303.627 328.999 303.627 330.206C303.627 331.413 304.605 332.391 305.812 332.391Z" fill="#B4B3FD"/>
<path d="M28.5724 300.598C29.7793 300.598 30.7577 299.619 30.7577 298.412C30.7577 297.205 29.7793 296.227 28.5724 296.227C27.3656 296.227 26.3872 297.205 26.3872 298.412C26.3872 299.619 27.3656 300.598 28.5724 300.598Z" fill="#B4B3FD"/>
<path d="M334.425 158.798C335.632 158.798 336.611 157.82 336.611 156.613C336.611 155.406 335.632 154.428 334.425 154.428C333.219 154.428 332.24 155.406 332.24 156.613C332.24 157.82 333.219 158.798 334.425 158.798Z" fill="#B4B3FD"/>
<path d="M205.027 123.508C206.233 123.508 207.212 122.529 207.212 121.322C207.212 120.116 206.233 119.137 205.027 119.137C203.82 119.137 202.841 120.116 202.841 121.322C202.841 122.529 203.82 123.508 205.027 123.508Z" fill="#B4B3FD"/>
<path d="M358.515 197.758C360.384 197.758 361.899 196.243 361.899 194.374C361.899 192.506 360.384 190.991 358.515 190.991C356.647 190.991 355.132 192.506 355.132 194.374C355.132 196.243 356.647 197.758 358.515 197.758Z" fill="#B4B3FD"/>
<path d="M307.328 114.777C309.197 114.777 310.712 113.262 310.712 111.393C310.712 109.525 309.197 108.01 307.328 108.01C305.459 108.01 303.944 109.525 303.944 111.393C303.944 113.262 305.459 114.777 307.328 114.777Z" fill="#B4B3FD"/>
<path d="M388.186 247.242C390.989 247.242 393.261 244.97 393.261 242.167C393.261 239.364 390.989 237.091 388.186 237.091C385.383 237.091 383.11 239.364 383.11 242.167C383.11 244.97 385.383 247.242 388.186 247.242Z" fill="#B4B3FD"/>
<path d="M425.067 244.063C427.87 244.063 430.142 241.791 430.142 238.987C430.142 236.184 427.87 233.912 425.067 233.912C422.264 233.912 419.991 236.184 419.991 238.987C419.991 241.791 422.264 244.063 425.067 244.063Z" fill="#B4B3FD"/>
<path d="M155.776 366.149C158.579 366.149 160.851 363.877 160.851 361.074C160.851 358.271 158.579 355.999 155.776 355.999C152.973 355.999 150.7 358.271 150.7 361.074C150.7 363.877 152.973 366.149 155.776 366.149Z" fill="#B4B3FD"/>
<path d="M460.039 279.671C462.842 279.671 465.115 277.399 465.115 274.596C465.115 271.793 462.842 269.521 460.039 269.521C457.236 269.521 454.964 271.793 454.964 274.596C454.964 277.399 457.236 279.671 460.039 279.671Z" fill="#B4B3FD"/>
<path d="M359.643 288.718C362.135 288.718 364.155 286.698 364.155 284.206C364.155 281.715 362.135 279.695 359.643 279.695C357.152 279.695 355.132 281.715 355.132 284.206C355.132 286.698 357.152 288.718 359.643 288.718Z" fill="#B4B3FD"/>
<path d="M392.709 332.593C395.2 332.593 397.22 330.573 397.22 328.081C397.22 325.59 395.2 323.57 392.709 323.57C390.217 323.57 388.197 325.59 388.197 328.081C388.197 330.573 390.217 332.593 392.709 332.593Z" fill="#B4B3FD"/>
<path d="M120.557 278.226C123.048 278.226 125.068 276.206 125.068 273.714C125.068 271.222 123.048 269.203 120.557 269.203C118.065 269.203 116.045 271.222 116.045 273.714C116.045 276.206 118.065 278.226 120.557 278.226Z" fill="#B4B3FD"/>
<path d="M80.1142 317.52C81.1653 317.52 82.0175 316.668 82.0175 315.617C82.0175 314.566 81.1653 313.714 80.1142 313.714C79.0631 313.714 78.2109 314.566 78.2109 315.617C78.2109 316.668 79.0631 317.52 80.1142 317.52Z" fill="#EFEFEF"/>
<path d="M186.404 251.022C187.332 251.022 188.085 250.269 188.085 249.341C188.085 248.412 187.332 247.66 186.404 247.66C185.476 247.66 184.723 248.412 184.723 249.341C184.723 250.269 185.476 251.022 186.404 251.022Z" fill="#B4B3FD"/>
<path d="M209.774 248.987C210.702 248.987 211.455 248.234 211.455 247.306C211.455 246.378 210.702 245.625 209.774 245.625C208.845 245.625 208.093 246.378 208.093 247.306C208.093 248.234 208.845 248.987 209.774 248.987Z" fill="#B4B3FD"/>
<path d="M216.526 258.613C217.454 258.613 218.207 257.86 218.207 256.932C218.207 256.004 217.454 255.251 216.526 255.251C215.597 255.251 214.845 256.004 214.845 256.932C214.845 257.86 215.597 258.613 216.526 258.613Z" fill="#B4B3FD"/>
<path d="M236.453 251.564C237.381 251.564 238.134 250.811 238.134 249.883C238.134 248.954 237.381 248.202 236.453 248.202C235.525 248.202 234.772 248.954 234.772 249.883C234.772 250.811 235.525 251.564 236.453 251.564Z" fill="#5F5CFE"/>
<path d="M187.572 199.463C188.5 199.463 189.253 198.711 189.253 197.783C189.253 196.854 188.5 196.102 187.572 196.102C186.644 196.102 185.891 196.854 185.891 197.783C185.891 198.711 186.644 199.463 187.572 199.463Z" fill="#B4B3FD"/>
<path d="M189.521 221.007C190.959 221.007 192.124 219.842 192.124 218.405C192.124 216.967 190.959 215.802 189.521 215.802C188.084 215.802 186.918 216.967 186.918 218.405C186.918 219.842 188.084 221.007 189.521 221.007Z" fill="#B4B3FD"/>
<path d="M231.817 245.409C233.015 245.409 233.986 244.438 233.986 243.24C233.986 242.042 233.015 241.071 231.817 241.071C230.619 241.071 229.648 242.042 229.648 243.24C229.648 244.438 230.619 245.409 231.817 245.409Z" fill="#5F5CFE"/>
<path d="M188.085 271.843C189.283 271.843 190.254 270.872 190.254 269.674C190.254 268.476 189.283 267.505 188.085 267.505C186.887 267.505 185.916 268.476 185.916 269.674C185.916 270.872 186.887 271.843 188.085 271.843Z" fill="#B4B3FD"/>
<path d="M204.785 260.321C206.103 260.321 207.171 259.252 207.171 257.935C207.171 256.617 206.103 255.549 204.785 255.549C203.468 255.549 202.399 256.617 202.399 257.935C202.399 259.252 203.468 260.321 204.785 260.321Z" fill="#5F5CFE"/>
<path d="M230.028 278.566C231.346 278.566 232.414 277.498 232.414 276.18C232.414 274.863 231.346 273.794 230.028 273.794C228.711 273.794 227.643 274.863 227.643 276.18C227.643 277.498 228.711 278.566 230.028 278.566Z" fill="#B4B3FD"/>
<path d="M223.248 268.454C224.297 268.454 225.146 267.604 225.146 266.556C225.146 265.508 224.297 264.658 223.248 264.658C222.2 264.658 221.351 265.508 221.351 266.556C221.351 267.604 222.2 268.454 223.248 268.454Z" fill="#B4B3FD"/>
<path d="M194.864 282.2C196.437 282.2 197.711 280.925 197.711 279.353C197.711 277.781 196.437 276.506 194.864 276.506C193.292 276.506 192.018 277.781 192.018 279.353C192.018 280.925 193.292 282.2 194.864 282.2Z" fill="#5F5CFE"/>
<path d="M206.223 211.736C208.634 211.736 210.588 209.782 210.588 207.371C210.588 204.96 208.634 203.006 206.223 203.006C203.813 203.006 201.858 204.96 201.858 207.371C201.858 209.782 203.813 211.736 206.223 211.736Z" fill="#5F5CFE"/>
<path d="M199.417 201.487C202.053 201.487 204.189 199.351 204.189 196.716C204.189 194.08 202.053 191.944 199.417 191.944C196.782 191.944 194.646 194.08 194.646 196.716C194.646 199.351 196.782 201.487 199.417 201.487Z" fill="#5F5CFE"/>
<path d="M201.181 222.472C203.442 222.472 205.275 220.639 205.275 218.378C205.275 216.117 203.442 214.284 201.181 214.284C198.92 214.284 197.087 216.117 197.087 218.378C197.087 220.639 198.92 222.472 201.181 222.472Z" fill="#5F5CFE"/>
<path d="M212.974 220.655C215.355 220.655 217.285 218.725 217.285 216.344C217.285 213.963 215.355 212.033 212.974 212.033C210.593 212.033 208.663 213.963 208.663 216.344C208.663 218.725 210.593 220.655 212.974 220.655Z" fill="#5F5CFE"/>
<path d="M196.299 232.097C198.575 232.097 200.42 230.251 200.42 227.976C200.42 225.7 198.575 223.854 196.299 223.854C194.023 223.854 192.178 225.7 192.178 227.976C192.178 230.251 194.023 232.097 196.299 232.097Z" fill="#5F5CFE"/>
<path d="M207.984 230.932C210.156 230.932 211.916 229.172 211.916 227.001C211.916 224.829 210.156 223.069 207.984 223.069C205.813 223.069 204.053 224.829 204.053 227.001C204.053 229.172 205.813 230.932 207.984 230.932Z" fill="#5F5CFE"/>
<path d="M219.752 229.386C221.639 229.386 223.168 227.856 223.168 225.97C223.168 224.083 221.639 222.554 219.752 222.554C217.865 222.554 216.336 224.083 216.336 225.97C216.336 227.856 217.865 229.386 219.752 229.386Z" fill="#5F5CFE"/>
<path d="M214.764 240.068C216.651 240.068 218.18 238.538 218.18 236.651C218.18 234.765 216.651 233.235 214.764 233.235C212.878 233.235 211.348 234.765 211.348 236.651C211.348 238.538 212.878 240.068 214.764 240.068Z" fill="#5F5CFE"/>
<path d="M202.998 241.098C204.884 241.098 206.414 239.569 206.414 237.682C206.414 235.796 204.884 234.266 202.998 234.266C201.111 234.266 199.582 235.796 199.582 237.682C199.582 239.569 201.111 241.098 202.998 241.098Z" fill="#5F5CFE"/>
<path d="M198.035 252.187C200.191 252.187 201.939 250.439 201.939 248.283C201.939 246.126 200.191 244.378 198.035 244.378C195.879 244.378 194.131 246.126 194.131 248.283C194.131 250.439 195.879 252.187 198.035 252.187Z" fill="#5F5CFE"/>
<path d="M193.073 262.408C194.989 262.408 196.543 260.855 196.543 258.938C196.543 257.021 194.989 255.468 193.073 255.468C191.156 255.468 189.603 257.021 189.603 258.938C189.603 260.855 191.156 262.408 193.073 262.408Z" fill="#5F5CFE"/>
<path d="M228.237 259.724C230.378 259.724 232.114 257.988 232.114 255.847C232.114 253.706 230.378 251.97 228.237 251.97C226.096 251.97 224.36 253.706 224.36 255.847C224.36 257.988 226.096 259.724 228.237 259.724Z" fill="#5F5CFE"/>
<path d="M221.433 250.18C223.59 250.18 225.338 248.432 225.338 246.276C225.338 244.12 223.59 242.372 221.433 242.372C219.277 242.372 217.529 244.12 217.529 246.276C217.529 248.432 219.277 250.18 221.433 250.18Z" fill="#5F5CFE"/>
<path d="M199.797 272.548C201.953 272.548 203.701 270.801 203.701 268.644C203.701 266.488 201.953 264.74 199.797 264.74C197.641 264.74 195.893 266.488 195.893 268.644C195.893 270.801 197.641 272.548 199.797 272.548Z" fill="#5F5CFE"/>
<path d="M191.203 241.586C192.805 241.586 194.104 240.287 194.104 238.685C194.104 237.083 192.805 235.784 191.203 235.784C189.601 235.784 188.302 237.083 188.302 238.685C188.302 240.287 189.601 241.586 191.203 241.586Z" fill="#5F5CFE"/>
<path d="M226.503 238.495C228.105 238.495 229.404 237.197 229.404 235.594C229.404 233.992 228.105 232.693 226.503 232.693C224.901 232.693 223.602 233.992 223.602 235.594C223.602 237.197 224.901 238.495 226.503 238.495Z" fill="#5F5CFE"/>
<path d="M194.511 212.006C196.891 212.006 198.821 210.076 198.821 207.695C198.821 205.314 196.891 203.384 194.511 203.384C192.13 203.384 190.2 205.314 190.2 207.695C190.2 210.076 192.13 212.006 194.511 212.006Z" fill="#5F5CFE"/>
<path d="M297.046 251.022C297.975 251.022 298.727 250.269 298.727 249.341C298.727 248.412 297.975 247.66 297.046 247.66C296.118 247.66 295.365 248.412 295.365 249.341C295.365 250.269 296.118 251.022 297.046 251.022Z" fill="#B4B3FD"/>
<path d="M273.652 248.987C274.58 248.987 275.333 248.234 275.333 247.306C275.333 246.378 274.58 245.625 273.652 245.625C272.723 245.625 271.971 246.378 271.971 247.306C271.971 248.234 272.723 248.987 273.652 248.987Z" fill="#B4B3FD"/>
<path d="M266.927 258.613C267.855 258.613 268.608 257.86 268.608 256.932C268.608 256.004 267.855 255.251 266.927 255.251C265.999 255.251 265.246 256.004 265.246 256.932C265.246 257.86 265.999 258.613 266.927 258.613Z" fill="#B4B3FD"/>
<path d="M246.999 251.564C247.928 251.564 248.68 250.811 248.68 249.883C248.68 248.954 247.928 248.202 246.999 248.202C246.071 248.202 245.318 248.954 245.318 249.883C245.318 250.811 246.071 251.564 246.999 251.564Z" fill="#5F5CFE"/>
<path d="M296.403 200.197C297.331 200.197 298.084 199.445 298.084 198.516C298.084 197.588 297.331 196.835 296.403 196.835C295.474 196.835 294.722 197.588 294.722 198.516C294.722 199.445 295.474 200.197 296.403 200.197Z" fill="#B4B3FD"/>
<path d="M293.929 221.007C295.366 221.007 296.532 219.842 296.532 218.405C296.532 216.967 295.366 215.802 293.929 215.802C292.491 215.802 291.326 216.967 291.326 218.405C291.326 219.842 292.491 221.007 293.929 221.007Z" fill="#B4B3FD"/>
<path d="M251.636 245.409C252.834 245.409 253.805 244.438 253.805 243.24C253.805 242.042 252.834 241.071 251.636 241.071C250.438 241.071 249.467 242.042 249.467 243.24C249.467 244.438 250.438 245.409 251.636 245.409Z" fill="#5F5CFE"/>
<path d="M295.338 271.843C296.536 271.843 297.507 270.872 297.507 269.674C297.507 268.476 296.536 267.505 295.338 267.505C294.14 267.505 293.169 268.476 293.169 269.674C293.169 270.872 294.14 271.843 295.338 271.843Z" fill="#B4B3FD"/>
<path d="M278.64 260.321C279.957 260.321 281.026 259.252 281.026 257.935C281.026 256.617 279.957 255.549 278.64 255.549C277.322 255.549 276.254 256.617 276.254 257.935C276.254 259.252 277.322 260.321 278.64 260.321Z" fill="#5F5CFE"/>
<path d="M253.426 278.566C254.744 278.566 255.812 277.498 255.812 276.18C255.812 274.863 254.744 273.794 253.426 273.794C252.108 273.794 251.04 274.863 251.04 276.18C251.04 277.498 252.108 278.566 253.426 278.566Z" fill="#B4B3FD"/>
<path d="M260.176 268.454C261.224 268.454 262.074 267.604 262.074 266.556C262.074 265.508 261.224 264.658 260.176 264.658C259.128 264.658 258.278 265.508 258.278 266.556C258.278 267.604 259.128 268.454 260.176 268.454Z" fill="#B4B3FD"/>
<path d="M288.561 282.2C290.133 282.2 291.407 280.925 291.407 279.353C291.407 277.781 290.133 276.506 288.561 276.506C286.988 276.506 285.714 277.781 285.714 279.353C285.714 280.925 286.988 282.2 288.561 282.2Z" fill="#5F5CFE"/>
<path d="M277.203 211.736C279.614 211.736 281.568 209.782 281.568 207.371C281.568 204.96 279.614 203.006 277.203 203.006C274.792 203.006 272.838 204.96 272.838 207.371C272.838 209.782 274.792 211.736 277.203 211.736Z" fill="#5F5CFE"/>
<path d="M284.008 201.487C286.643 201.487 288.78 199.351 288.78 196.716C288.78 194.08 286.643 191.944 284.008 191.944C281.373 191.944 279.236 194.08 279.236 196.716C279.236 199.351 281.373 201.487 284.008 201.487Z" fill="#5F5CFE"/>
<path d="M282.245 222.472C284.506 222.472 286.339 220.639 286.339 218.378C286.339 216.117 284.506 214.284 282.245 214.284C279.984 214.284 278.151 216.117 278.151 218.378C278.151 220.639 279.984 222.472 282.245 222.472Z" fill="#5F5CFE"/>
<path d="M270.479 220.655C272.86 220.655 274.79 218.725 274.79 216.344C274.79 213.963 272.86 212.033 270.479 212.033C268.098 212.033 266.168 213.963 266.168 216.344C266.168 218.725 268.098 220.655 270.479 220.655Z" fill="#5F5CFE"/>
<path d="M287.125 232.097C289.401 232.097 291.246 230.251 291.246 227.976C291.246 225.7 289.401 223.854 287.125 223.854C284.849 223.854 283.004 225.7 283.004 227.976C283.004 230.251 284.849 232.097 287.125 232.097Z" fill="#5F5CFE"/>
<path d="M275.467 230.932C277.639 230.932 279.399 229.172 279.399 227.001C279.399 224.829 277.639 223.069 275.467 223.069C273.296 223.069 271.536 224.829 271.536 227.001C271.536 229.172 273.296 230.932 275.467 230.932Z" fill="#5F5CFE"/>
<path d="M263.7 229.386C265.587 229.386 267.116 227.856 267.116 225.97C267.116 224.083 265.587 222.554 263.7 222.554C261.814 222.554 260.284 224.083 260.284 225.97C260.284 227.856 261.814 229.386 263.7 229.386Z" fill="#5F5CFE"/>
<path d="M268.662 240.068C270.549 240.068 272.078 238.538 272.078 236.651C272.078 234.765 270.549 233.235 268.662 233.235C266.776 233.235 265.246 234.765 265.246 236.651C265.246 238.538 266.776 240.068 268.662 240.068Z" fill="#5F5CFE"/>
<path d="M280.455 241.098C282.342 241.098 283.871 239.569 283.871 237.682C283.871 235.796 282.342 234.266 280.455 234.266C278.569 234.266 277.039 235.796 277.039 237.682C277.039 239.569 278.569 241.098 280.455 241.098Z" fill="#5F5CFE"/>
<path d="M285.39 252.187C287.547 252.187 289.295 250.439 289.295 248.283C289.295 246.126 287.547 244.378 285.39 244.378C283.234 244.378 281.486 246.126 281.486 248.283C281.486 250.439 283.234 252.187 285.39 252.187Z" fill="#5F5CFE"/>
<path d="M290.35 262.408C292.267 262.408 293.821 260.855 293.821 258.938C293.821 257.021 292.267 255.468 290.35 255.468C288.434 255.468 286.88 257.021 286.88 258.938C286.88 260.855 288.434 262.408 290.35 262.408Z" fill="#5F5CFE"/>
<path d="M255.187 259.724C257.328 259.724 259.064 257.988 259.064 255.847C259.064 253.706 257.328 251.97 255.187 251.97C253.045 251.97 251.31 253.706 251.31 255.847C251.31 257.988 253.045 259.724 255.187 259.724Z" fill="#5F5CFE"/>
<path d="M261.992 250.18C264.148 250.18 265.896 248.432 265.896 246.276C265.896 244.12 264.148 242.372 261.992 242.372C259.836 242.372 258.088 244.12 258.088 246.276C258.088 248.432 259.836 250.18 261.992 250.18Z" fill="#5F5CFE"/>
<path d="M283.654 272.548C285.81 272.548 287.558 270.801 287.558 268.644C287.558 266.488 285.81 264.74 283.654 264.74C281.498 264.74 279.75 266.488 279.75 268.644C279.75 270.801 281.498 272.548 283.654 272.548Z" fill="#5F5CFE"/>
<path d="M292.222 241.586C293.824 241.586 295.123 240.287 295.123 238.685C295.123 237.083 293.824 235.784 292.222 235.784C290.62 235.784 289.321 237.083 289.321 238.685C289.321 240.287 290.62 241.586 292.222 241.586Z" fill="#5F5CFE"/>
<path d="M256.95 238.495C258.552 238.495 259.851 237.197 259.851 235.594C259.851 233.992 258.552 232.693 256.95 232.693C255.348 232.693 254.049 233.992 254.049 235.594C254.049 237.197 255.348 238.495 256.95 238.495Z" fill="#5F5CFE"/>
<path d="M288.941 212.006C291.321 212.006 293.252 210.076 293.252 207.695C293.252 205.314 291.321 203.384 288.941 203.384C286.56 203.384 284.63 205.314 284.63 207.695C284.63 210.076 286.56 212.006 288.941 212.006Z" fill="#5F5CFE"/>
<path d="M241.713 260.213C243.6 260.213 245.129 258.683 245.129 256.796C245.129 254.91 243.6 253.38 241.713 253.38C239.826 253.38 238.297 254.91 238.297 256.796C238.297 258.683 239.826 260.213 241.713 260.213Z" fill="#5F5CFE"/>
<path d="M241.713 278.837C243.6 278.837 245.129 277.308 245.129 275.421C245.129 273.534 243.6 272.005 241.713 272.005C239.826 272.005 238.297 273.534 238.297 275.421C238.297 277.308 239.826 278.837 241.713 278.837Z" fill="#5F5CFE"/>
<path d="M234.961 268.942C236.847 268.942 238.377 267.413 238.377 265.526C238.377 263.639 236.847 262.11 234.961 262.11C233.074 262.11 231.544 263.639 231.544 265.526C231.544 267.413 233.074 268.942 234.961 268.942Z" fill="#5F5CFE"/>
<path d="M248.464 268.942C250.351 268.942 251.88 267.413 251.88 265.526C251.88 263.639 250.351 262.11 248.464 262.11C246.577 262.11 245.048 263.639 245.048 265.526C245.048 267.413 246.577 268.942 248.464 268.942Z" fill="#5F5CFE"/>
<path d="M236.751 287.324C237.56 287.324 238.215 286.668 238.215 285.86C238.215 285.051 237.56 284.396 236.751 284.396C235.943 284.396 235.287 285.051 235.287 285.86C235.287 286.668 235.943 287.324 236.751 287.324Z" fill="#EFEFEF"/>
<path d="M246.701 287.324C247.51 287.324 248.165 286.668 248.165 285.86C248.165 285.051 247.51 284.396 246.701 284.396C245.893 284.396 245.237 285.051 245.237 285.86C245.237 286.668 245.893 287.324 246.701 287.324Z" fill="#EFEFEF"/>
<path d="M323.652 364.892C324.703 364.892 325.556 364.04 325.556 362.989C325.556 361.938 324.703 361.085 323.652 361.085C322.601 361.085 321.749 361.938 321.749 362.989C321.749 364.04 322.601 364.892 323.652 364.892Z" fill="#EFEFEF"/>
<path d="M393.966 147.725H391.212V153.203H388.742V138.984H393.742C395.382 138.984 396.648 139.352 397.54 140.088C398.432 140.824 398.878 141.888 398.878 143.281C398.878 144.232 398.647 145.029 398.185 145.674C397.729 146.312 397.091 146.803 396.271 147.148L399.464 153.076V153.203H396.818L393.966 147.725ZM391.212 145.742H393.751C394.585 145.742 395.236 145.534 395.704 145.117C396.173 144.694 396.408 144.118 396.408 143.389C396.408 142.627 396.189 142.038 395.753 141.621C395.324 141.204 394.679 140.99 393.82 140.977H391.212V145.742ZM409.533 146.855H403.693V151.23H410.519V153.203H401.222V138.984H410.451V140.977H403.693V144.902H409.533V146.855ZM420.49 149.893H414.982L413.829 153.203H411.261L416.632 138.984H418.849L424.23 153.203H421.652L420.49 149.893ZM415.675 147.9H419.796L417.736 142.002L415.675 147.9ZM428.322 151.23H434.777V153.203H425.851V138.984H428.322V151.23ZM452.804 149.688L454.992 138.984H457.443L454.161 153.203H451.798L449.093 142.822L446.329 153.203H443.956L440.675 138.984H443.126L445.333 149.668L448.048 138.984H450.118L452.804 149.688ZM470.597 146.465C470.597 147.858 470.356 149.082 469.874 150.137C469.393 151.185 468.702 151.992 467.804 152.559C466.912 153.118 465.883 153.398 464.718 153.398C463.566 153.398 462.537 153.118 461.632 152.559C460.734 151.992 460.037 151.188 459.542 150.146C459.054 149.105 458.807 147.904 458.8 146.543V145.742C458.8 144.355 459.044 143.132 459.533 142.07C460.027 141.009 460.721 140.199 461.613 139.639C462.511 139.072 463.54 138.789 464.699 138.789C465.857 138.789 466.883 139.069 467.775 139.629C468.673 140.182 469.367 140.983 469.855 142.031C470.343 143.073 470.59 144.287 470.597 145.674V146.465ZM468.126 145.723C468.126 144.147 467.827 142.939 467.228 142.1C466.635 141.26 465.792 140.84 464.699 140.84C463.631 140.84 462.794 141.26 462.189 142.1C461.59 142.933 461.284 144.115 461.271 145.645V146.465C461.271 148.027 461.574 149.235 462.179 150.088C462.791 150.941 463.637 151.367 464.718 151.367C465.812 151.367 466.652 150.951 467.238 150.117C467.83 149.284 468.126 148.066 468.126 146.465V145.723ZM478.283 147.725H475.529V153.203H473.058V138.984H478.058C479.699 138.984 480.965 139.352 481.857 140.088C482.749 140.824 483.195 141.888 483.195 143.281C483.195 144.232 482.964 145.029 482.501 145.674C482.046 146.312 481.408 146.803 480.587 147.148L483.781 153.076V153.203H481.134L478.283 147.725ZM475.529 145.742H478.068C478.901 145.742 479.552 145.534 480.021 145.117C480.49 144.694 480.724 144.118 480.724 143.389C480.724 142.627 480.506 142.038 480.07 141.621C479.64 141.204 478.995 140.99 478.136 140.977H475.529V145.742ZM488.009 151.23H494.464V153.203H485.538V138.984H488.009V151.23ZM496.359 153.203V138.984H500.558C501.814 138.984 502.928 139.264 503.898 139.824C504.874 140.384 505.63 141.178 506.163 142.207C506.697 143.236 506.964 144.414 506.964 145.742V146.455C506.964 147.803 506.694 148.988 506.154 150.01C505.62 151.032 504.855 151.82 503.859 152.373C502.869 152.926 501.733 153.203 500.451 153.203H496.359ZM498.829 140.977V151.23H500.441C501.736 151.23 502.729 150.827 503.419 150.02C504.116 149.206 504.471 148.04 504.484 146.523V145.732C504.484 144.189 504.148 143.011 503.478 142.197C502.807 141.383 501.834 140.977 500.558 140.977H498.829ZM424.435 176.203V161.984H428.634C429.891 161.984 431.004 162.264 431.974 162.824C432.951 163.384 433.706 164.178 434.24 165.207C434.773 166.236 435.04 167.414 435.04 168.742V169.455C435.04 170.803 434.77 171.988 434.23 173.01C433.696 174.032 432.931 174.82 431.935 175.373C430.945 175.926 429.809 176.203 428.527 176.203H424.435ZM426.906 163.977V174.23H428.517C429.812 174.23 430.805 173.827 431.495 173.02C432.192 172.206 432.547 171.04 432.56 169.523V168.732C432.56 167.189 432.225 166.011 431.554 165.197C430.883 164.383 429.91 163.977 428.634 163.977H426.906ZM445.245 172.893H439.738L438.585 176.203H436.017L441.388 161.984H443.605L448.986 176.203H446.408L445.245 172.893ZM440.431 170.9H444.552L442.492 165.002L440.431 170.9ZM459.708 163.977H455.275V176.203H452.824V163.977H448.429V161.984H459.708V163.977ZM468.37 172.893H462.863L461.71 176.203H459.142L464.513 161.984H466.73L472.111 176.203H469.533L468.37 172.893ZM463.556 170.9H467.677L465.617 165.002L463.556 170.9Z" fill="white"/>
<g filter="url(#filter1_dii)">
<path d="M83.8773 175.658C83.8773 195.815 67.5367 212.156 47.3795 212.156C27.2224 212.156 10.8818 195.815 10.8818 175.658C10.8818 155.501 27.2224 139.16 47.3795 139.16C67.5367 139.16 83.8773 155.501 83.8773 175.658Z" fill="#AFAEFD"/>
</g>
<g filter="url(#filter2_dii)">
<circle cx="412.681" cy="279.796" r="24.8927" fill="#AFAEFD"/>
</g>
<g filter="url(#filter3_dii)">
<circle cx="247.475" cy="376.743" r="24.8927" fill="#AFAEFD"/>
</g>
<g filter="url(#filter4_dii)">
<circle cx="139.647" cy="103.709" r="24.8927" fill="#AFAEFD"/>
</g>
<g filter="url(#filter5_dii)">
<path d="M274.431 72.5898C274.431 86.0879 263.488 97.0303 249.99 97.0303C236.492 97.0303 225.55 86.0879 225.55 72.5898C225.55 59.0918 236.492 48.1494 249.99 48.1494C263.488 48.1494 274.431 59.0918 274.431 72.5898Z" fill="#AFAEFD"/>
</g>
<path d="M42.9053 194.756H39.8242V197.275H43.4033V198.042H38.8867V190.933H43.3545V191.704H39.8242V193.989H42.9053V194.756ZM49.5801 191.704H47.2949V198.042H46.3623V191.704H44.082V190.933H49.5801V191.704ZM56.0986 198.042H55.1562V194.756H51.5723V198.042H50.6348V190.933H51.5723V193.989H55.1562V190.933H56.0986V198.042Z" fill="white"/>
<path d="M132.81 117.187H129.831L129.162 119.042H128.195L130.91 111.933H131.73L134.45 119.042H133.488L132.81 117.187ZM130.114 116.415H132.531L131.32 113.09L130.114 116.415ZM137.331 117.797L139.362 111.933H140.388L137.751 119.042H136.921L134.289 111.933H135.31L137.331 117.797ZM144.899 117.187H141.921L141.252 119.042H140.285L143 111.933H143.82L146.54 119.042H145.578L144.899 117.187ZM142.204 116.415H144.621L143.41 113.09L142.204 116.415ZM149.816 114.657L151.521 111.933H152.624L150.378 115.458L152.678 119.042H151.564L149.816 116.269L148.059 119.042H146.95L149.255 115.458L147.004 111.933H148.103L149.816 114.657Z" fill="white"/>
<path d="M241.691 88.042V80.9326H243.698C244.317 80.9326 244.864 81.0693 245.339 81.3428C245.814 81.6162 246.18 82.0052 246.438 82.5098C246.698 83.0143 246.83 83.5938 246.833 84.248V84.7021C246.833 85.3727 246.703 85.9603 246.442 86.4648C246.185 86.9694 245.816 87.3568 245.334 87.627C244.855 87.8971 244.297 88.0355 243.659 88.042H241.691ZM242.629 81.7041V87.2754H243.615C244.338 87.2754 244.899 87.0508 245.3 86.6016C245.703 86.1523 245.905 85.5127 245.905 84.6826V84.2676C245.905 83.4603 245.715 82.8337 245.334 82.3877C244.956 81.9385 244.419 81.7106 243.723 81.7041H242.629ZM253.723 84.7168C253.723 85.4134 253.605 86.0221 253.371 86.543C253.137 87.0605 252.805 87.4561 252.375 87.7295C251.945 88.0029 251.444 88.1396 250.871 88.1396C250.311 88.1396 249.815 88.0029 249.382 87.7295C248.949 87.4528 248.612 87.0605 248.371 86.5527C248.133 86.0417 248.011 85.4508 248.005 84.7803V84.2676C248.005 83.584 248.124 82.9801 248.361 82.4561C248.599 81.932 248.934 81.5316 249.367 81.2549C249.803 80.9749 250.301 80.835 250.861 80.835C251.431 80.835 251.932 80.9733 252.365 81.25C252.801 81.5234 253.137 81.9222 253.371 82.4463C253.605 82.9671 253.723 83.5742 253.723 84.2676V84.7168ZM252.79 84.2578C252.79 83.4147 252.621 82.7686 252.282 82.3193C251.944 81.8669 251.47 81.6406 250.861 81.6406C250.269 81.6406 249.802 81.8669 249.46 82.3193C249.121 82.7686 248.947 83.3936 248.938 84.1943V84.7168C248.938 85.5339 249.108 86.1768 249.45 86.6455C249.795 87.111 250.269 87.3438 250.871 87.3438C251.477 87.3438 251.945 87.124 252.277 86.6846C252.609 86.2419 252.78 85.6087 252.79 84.7852V84.2578ZM259.904 81.7041H257.619V88.042H256.687V81.7041H254.406V80.9326H259.904V81.7041Z" fill="white"/>
<path d="M240.158 386.657L241.862 383.933H242.966L240.72 387.458L243.02 391.042H241.906L240.158 388.269L238.4 391.042H237.292L239.597 387.458L237.346 383.933H238.444L240.158 386.657ZM244.108 391.042V383.933H246.115C246.734 383.933 247.281 384.069 247.756 384.343C248.231 384.616 248.597 385.005 248.854 385.51C249.115 386.014 249.247 386.594 249.25 387.248V387.702C249.25 388.373 249.12 388.96 248.859 389.465C248.602 389.969 248.233 390.357 247.751 390.627C247.272 390.897 246.714 391.035 246.076 391.042H244.108ZM245.046 384.704V390.275H246.032C246.755 390.275 247.316 390.051 247.717 389.602C248.12 389.152 248.322 388.513 248.322 387.683V387.268C248.322 386.46 248.132 385.834 247.751 385.388C247.373 384.938 246.836 384.711 246.14 384.704H245.046ZM254.489 389.187H251.511L250.842 391.042H249.875L252.59 383.933H253.41L256.13 391.042H255.168L254.489 389.187ZM251.794 388.415H254.211L253 385.09L251.794 388.415ZM258.093 391.042H257.155V383.933H258.093V391.042Z" fill="white"/>
<path d="M400.58 285.933L402.904 291.733L405.229 285.933H406.444V293.042H405.507V290.273L405.595 287.285L403.261 293.042H402.543L400.214 287.3L400.307 290.273V293.042H399.369V285.933H400.58ZM412.113 291.187H409.135L408.466 293.042H407.499L410.214 285.933H411.034L413.754 293.042H412.792L412.113 291.187ZM409.418 290.415H411.835L410.624 287.09L409.418 290.415ZM418.988 286.704H416.703V293.042H415.771V286.704H413.49V285.933H418.988V286.704ZM421.049 293.042H420.111V285.933H421.049V293.042ZM427.997 290.786C427.909 291.538 427.631 292.119 427.162 292.529C426.697 292.936 426.076 293.14 425.302 293.14C424.462 293.14 423.788 292.839 423.28 292.236C422.776 291.634 422.523 290.828 422.523 289.819V289.136C422.523 288.475 422.641 287.894 422.875 287.393C423.113 286.891 423.448 286.507 423.881 286.24C424.314 285.97 424.815 285.835 425.385 285.835C426.14 285.835 426.745 286.047 427.201 286.47C427.657 286.89 427.922 287.472 427.997 288.218H427.055C426.973 287.651 426.796 287.241 426.522 286.987C426.252 286.733 425.873 286.606 425.385 286.606C424.786 286.606 424.315 286.828 423.974 287.271C423.635 287.713 423.466 288.343 423.466 289.16V289.849C423.466 290.62 423.627 291.234 423.949 291.689C424.271 292.145 424.722 292.373 425.302 292.373C425.823 292.373 426.221 292.256 426.498 292.021C426.778 291.784 426.964 291.372 427.055 290.786H427.997Z" fill="white"/>
<path d="M145.975 98.9278C146.562 97.9315 147.509 97.9315 148.095 98.9278L151.75 105.233C152.336 106.229 151.856 107.042 150.683 107.042H143.321C142.161 107.042 141.68 106.229 142.254 105.233L145.975 98.9278ZM138.906 86.7892C139.493 85.7929 140.427 85.7929 141.014 86.7892L141.827 88.2311L143.748 91.5476C144.214 92.4914 144.214 93.6057 143.748 94.5495L137.306 105.521C136.719 106.413 135.746 106.976 134.665 107.042H129.317C128.144 107.042 127.664 106.242 128.25 105.233L138.906 86.7892Z" fill="white"/>
<path d="M250.371 54.085C245.964 54.085 242.367 57.7737 242.367 62.2924C242.367 63.2146 242.547 64.1368 242.817 64.9668C242.997 65.5201 243.626 65.889 244.256 65.7045C244.795 65.5201 245.155 64.8746 244.975 64.229C244.705 63.5835 244.615 62.8457 244.705 62.108C244.795 58.7881 247.493 56.206 250.641 56.3904C253.789 56.5749 256.397 59.2492 256.217 62.4769C256.127 65.5201 253.789 68.01 250.821 68.1944C250.821 68.1944 249.652 68.2866 249.112 68.3789C248.932 68.3789 248.662 68.4711 248.483 68.4711H248.393V68.3789L248.573 67.3645L249.562 62.5691C249.652 62.0158 249.292 61.3702 248.662 61.278C248.123 61.0936 247.493 61.5547 247.403 62.108C247.403 62.108 244.885 74.0964 244.885 74.1886C244.705 74.742 245.065 75.3875 245.695 75.4797H245.785C246.234 75.6641 246.864 75.2953 247.044 74.742C247.044 74.742 247.044 74.742 247.044 74.6497C247.044 74.4653 247.403 72.8976 247.403 72.8976C247.673 71.6987 248.573 70.7765 249.742 70.5921C250.011 70.5921 251.001 70.4999 251.001 70.4999C255.407 70.0388 258.645 65.9812 258.195 61.4625C257.746 57.4048 254.418 54.1772 250.371 54.085Z" fill="white"/>
<path d="M250.91 73.0819C250.191 72.8974 249.471 73.3585 249.292 74.1885C249.112 74.9262 249.561 75.664 250.281 75.8484C251 76.0329 251.72 75.5718 251.9 74.834V74.7418C252.08 73.9118 251.63 73.2663 250.91 73.0819Z" fill="white"/>
<path fill-rule="evenodd" clip-rule="evenodd" d="M238.115 364.171H245.64V360.409H238.115V364.171Z" fill="white"/>
<path fill-rule="evenodd" clip-rule="evenodd" d="M249.388 364.171H256.912V360.409H249.388V364.171Z" fill="white"/>
<path fill-rule="evenodd" clip-rule="evenodd" d="M256.912 371.681H253.15V375.443H249.388V379.205H256.912V371.681Z" fill="white"/>
<path fill-rule="evenodd" clip-rule="evenodd" d="M245.64 379.205V375.443H241.877V371.681H238.115V379.205H245.64Z" fill="white"/>
<g clip-path="url(#clip0)">
<path d="M419.125 269.131C418.687 268.892 418.125 268.892 417.625 269.131L414.125 271.101L411.75 272.355L408.312 274.325C407.875 274.564 407.312 274.564 406.812 274.325L404.125 272.773C403.687 272.534 403.375 272.057 403.375 271.519V268.534C403.375 268.057 403.625 267.579 404.125 267.28L406.812 265.788C407.25 265.549 407.812 265.549 408.312 265.788L411 267.34C411.437 267.579 411.75 268.057 411.75 268.594V270.564L414.125 269.251V267.221C414.125 266.743 413.875 266.266 413.375 265.967L408.375 263.161C407.937 262.922 407.375 262.922 406.875 263.161L401.75 266.027C401.25 266.266 401 266.743 401 267.221V272.833C401 273.31 401.25 273.788 401.75 274.086L406.812 276.892C407.25 277.131 407.812 277.131 408.312 276.892L411.75 274.982L414.125 273.669L417.562 271.758C418 271.519 418.562 271.519 419.062 271.758L421.75 273.251C422.187 273.489 422.5 273.967 422.5 274.504V277.489C422.5 277.967 422.25 278.445 421.75 278.743L419.125 280.236C418.687 280.474 418.125 280.474 417.625 280.236L414.937 278.743C414.5 278.504 414.187 278.027 414.187 277.489V275.579L411.812 276.892V278.863C411.812 279.34 412.062 279.818 412.562 280.116L417.625 282.922C418.062 283.161 418.625 283.161 419.125 282.922L424.187 280.116C424.625 279.877 424.937 279.4 424.937 278.863V273.191C424.937 272.713 424.687 272.236 424.187 271.937L419.125 269.131Z" fill="white"/>
</g>
<path d="M70 316.042C71.1046 316.042 72 315.147 72 314.042C72 312.937 71.1046 312.042 70 312.042C68.8954 312.042 68 312.937 68 314.042C68 315.147 68.8954 316.042 70 316.042Z" fill="#EFEFEF"/>
<g filter="url(#filter6_dii)">
<circle cx="76.7656" cy="318.809" r="34.2275" fill="#AFAEFD"/>
</g>
<path d="M67.9844 339.042V331.933H70.3086C71.0801 331.933 71.6595 332.092 72.0469 332.411C72.4375 332.73 72.6328 333.202 72.6328 333.827C72.6328 334.159 72.5384 334.454 72.3496 334.711C72.1608 334.965 71.9036 335.162 71.5781 335.302C71.9622 335.409 72.265 335.614 72.4863 335.917C72.7109 336.216 72.8232 336.575 72.8232 336.991C72.8232 337.629 72.6165 338.131 72.2031 338.495C71.7897 338.86 71.2054 339.042 70.4502 339.042H67.9844ZM68.9219 335.717V338.275H70.4697C70.9059 338.275 71.2493 338.163 71.5 337.938C71.7539 337.711 71.8809 337.398 71.8809 337.001C71.8809 336.145 71.4154 335.717 70.4844 335.717H68.9219ZM68.9219 334.965H70.3379C70.748 334.965 71.0752 334.862 71.3193 334.657C71.5667 334.452 71.6904 334.174 71.6904 333.822C71.6904 333.432 71.5765 333.148 71.3486 332.973C71.1208 332.794 70.7741 332.704 70.3086 332.704H68.9219V334.965ZM76.3096 335.873C75.5055 335.642 74.9196 335.359 74.5518 335.023C74.1872 334.685 74.0049 334.268 74.0049 333.773C74.0049 333.214 74.2279 332.751 74.6738 332.387C75.123 332.019 75.7057 331.835 76.4219 331.835C76.9102 331.835 77.3447 331.929 77.7256 332.118C78.1097 332.307 78.4059 332.567 78.6143 332.899C78.8258 333.231 78.9316 333.594 78.9316 333.988H77.9893C77.9893 333.559 77.8525 333.222 77.5791 332.978C77.3057 332.73 76.9199 332.606 76.4219 332.606C75.9596 332.606 75.5983 332.709 75.3379 332.914C75.0807 333.116 74.9521 333.397 74.9521 333.759C74.9521 334.049 75.0742 334.294 75.3184 334.496C75.5658 334.695 75.984 334.877 76.5732 335.043C77.1657 335.209 77.6279 335.393 77.96 335.595C78.2952 335.793 78.5426 336.026 78.7021 336.293C78.8649 336.56 78.9463 336.874 78.9463 337.235C78.9463 337.812 78.7217 338.274 78.2725 338.622C77.8232 338.967 77.2227 339.14 76.4707 339.14C75.9824 339.14 75.5267 339.047 75.1035 338.861C74.6803 338.673 74.3532 338.415 74.1221 338.09C73.8942 337.764 73.7803 337.395 73.7803 336.981H74.7227C74.7227 337.411 74.8805 337.751 75.1963 338.002C75.5153 338.249 75.9401 338.373 76.4707 338.373C76.9655 338.373 77.3447 338.272 77.6084 338.07C77.8721 337.868 78.0039 337.593 78.0039 337.245C78.0039 336.897 77.8818 336.628 77.6377 336.439C77.3936 336.247 76.9508 336.059 76.3096 335.873ZM85.3818 336.786C85.2939 337.538 85.0156 338.119 84.5469 338.529C84.0814 338.936 83.4613 339.14 82.6865 339.14C81.8467 339.14 81.1729 338.839 80.665 338.236C80.1605 337.634 79.9082 336.828 79.9082 335.819V335.136C79.9082 334.475 80.0254 333.894 80.2598 333.393C80.4974 332.891 80.8327 332.507 81.2656 332.24C81.6986 331.97 82.1999 331.835 82.7695 331.835C83.5247 331.835 84.1302 332.047 84.5859 332.47C85.0417 332.89 85.307 333.472 85.3818 334.218H84.4395C84.3581 333.651 84.1807 333.241 83.9072 332.987C83.637 332.733 83.2578 332.606 82.7695 332.606C82.1706 332.606 81.7002 332.828 81.3584 333.271C81.0199 333.713 80.8506 334.343 80.8506 335.16V335.849C80.8506 336.62 81.0117 337.234 81.334 337.689C81.6562 338.145 82.1071 338.373 82.6865 338.373C83.2074 338.373 83.6061 338.256 83.8828 338.021C84.1628 337.784 84.3483 337.372 84.4395 336.786H85.3818Z" fill="white"/>
<path d="M69.9788 307.963L76.1376 301.804L82.2964 307.963L85.8685 304.391L76.1376 294.66L66.4067 304.391L69.9788 307.963ZM60.3711 310.427L63.9432 306.855L67.5153 310.427L63.9432 313.999L60.3711 310.427ZM69.9788 313.013L76.1376 319.172L82.2964 313.013L85.8685 316.585L76.1376 326.316L66.4067 316.585L69.9788 313.013ZM84.8831 310.427L88.4552 306.855L92.0273 310.427L88.4552 313.999L84.8831 310.427Z" fill="white"/>
<path d="M79.8332 310.427L76.2611 306.854L73.5512 309.564L73.3048 309.811L72.689 310.427L76.2611 313.999L79.8332 310.427Z" fill="white"/>
<g filter="url(#filter7_dii)">
<circle cx="347.723" cy="406.754" r="26.2153" fill="#AFAEFD"/>
</g>
<path d="M342.085 418.902H339.102V422.042H338.164V414.933H342.568V415.704H339.102V418.136H342.085V418.902ZM348.701 415.704H346.416V422.042H345.483V415.704H343.203V414.933H348.701V415.704ZM350.967 414.933L353.291 420.733L355.615 414.933H356.831V422.042H355.894V419.273L355.981 416.285L353.647 422.042H352.93L350.601 416.3L350.693 419.273V422.042H349.756V414.933H350.967Z" fill="white"/>
<path fill-rule="evenodd" clip-rule="evenodd" d="M348.4 395.364L352.6 392.831V397.896L348.4 395.364ZM352.6 406.218L347 409.595L341.4 406.218V400.308L347 403.685L352.6 400.308V406.218ZM341.4 392.831L345.6 395.364L341.4 397.896V392.831ZM347.7 396.57L351.9 399.102L347.7 401.635V396.57ZM346.3 401.635L342.1 399.102L346.3 396.57V401.635ZM351.9 391.625L347 394.519L342.1 391.625L347 388.61L351.9 391.625ZM340 391.142V406.941L347 411.042L354 406.941V391.142L347 387.042L340 391.142Z" fill="white"/>
<path d="M57.546 168.508L46.9898 150.96L36.4336 168.508L46.9898 174.606L57.546 168.508Z" fill="white"/>
<path d="M46.9898 176.768L36.4336 170.383L46.9898 185.584L57.546 170.383L46.9898 176.768Z" fill="white"/>
<path d="M484.902 97.7392C484.925 97.6914 484.946 97.6425 484.963 97.5923C489.702 86.6244 488.855 73.1783 482.699 62.9011C485.986 58.9621 481.717 53.3212 477.048 55.5038C476.228 54.6633 475.367 53.8577 474.474 53.096C476.226 48.3209 470.379 44.4037 466.737 47.9714C456.152 42.6128 442.987 42.6806 432.461 48.1527C428.716 44.1742 422.428 48.44 424.695 53.4317C423.397 54.57 422.168 55.7997 421.034 57.1001C420.056 58.2228 421.828 59.7617 422.8 58.6468C423.854 57.4372 424.997 56.2929 426.203 55.2325C428.536 56.9197 431.919 56.0602 433.199 53.4849C437.423 54.7039 441.457 56.4534 445.216 58.6988C444.901 59.8365 445.029 61.1071 445.569 62.1573C442.476 64.8365 439.69 67.8673 437.271 71.1888C435.037 70.5122 432.575 71.6447 431.604 73.7652C426.679 73.7917 421.738 74.3229 416.888 75.3508C416.459 74.5506 415.81 73.8875 415.023 73.4433C415.934 69.8801 417.378 66.4906 419.322 63.3566C420.097 62.1075 418.141 60.809 417.331 62.1148C415.264 65.4468 413.728 69.0501 412.757 72.8379C407.141 72.9335 406.198 80.7237 411.545 82.2223C411.466 93.3094 416.247 104.089 424.538 111.432C422.809 116.116 428.424 119.979 432.129 116.676C442.943 122.441 456.61 122.442 467.425 116.677C471.194 120.414 477.23 116.24 475.107 111.354C479.38 107.547 482.7 102.89 484.902 97.7392ZM483.424 95.1102C480.179 91.8776 476.627 88.9451 472.835 86.3709C473.374 84.6796 472.906 82.7768 471.648 81.5283C474.837 76.213 477.34 70.5135 479.102 64.5596C479.689 64.5616 480.254 64.453 480.774 64.2565C486.173 73.3988 487.161 85.1862 483.424 95.1102ZM429.474 108.398C428.487 98.7085 430.218 89.0418 434.504 80.306C437.166 81.1389 440.043 79.3837 440.56 76.644C448.644 77.6431 456.43 80.0227 463.737 83.7285C463.386 85.0979 463.677 86.608 464.514 87.7472C456.278 98.2085 445.406 106.08 432.963 110.592C432.209 109.395 430.941 108.558 429.474 108.398ZM465.932 84.9196C465.932 83.5876 467.005 82.504 468.324 82.504C471.497 82.6364 471.496 87.2032 468.324 87.3352C467.005 87.3352 465.932 86.2516 465.932 84.9196ZM481.504 59.7932C481.504 61.1253 480.431 62.2089 479.113 62.2089C475.939 62.0764 475.94 57.5096 479.113 57.3776C480.431 57.3776 481.504 58.4612 481.504 59.7932ZM475.257 57.0298C473.636 59.3126 474.388 62.6124 476.831 63.9692C475.125 69.7123 472.705 75.2099 469.626 80.3378C468.983 80.1523 468.268 80.1062 467.606 80.2078C464.389 73.3189 459.707 67.1139 453.987 62.1576C454.528 61.1068 454.656 59.8384 454.341 58.6991C457.962 56.5366 461.839 54.8324 465.895 53.6209C467.242 56.2298 470.858 56.9664 473.103 55.0134C473.847 55.655 474.567 56.3291 475.257 57.0298ZM447.387 59.9752C447.387 58.6432 448.46 57.5596 449.778 57.5596C452.952 57.692 452.951 62.2587 449.778 62.3907C448.46 62.3907 447.387 61.3071 447.387 59.9752ZM470.064 48.945C471.383 48.945 472.456 50.0286 472.456 51.3606C472.324 54.5652 467.803 54.5644 467.672 51.3606C467.672 50.0286 468.745 48.945 470.064 48.945ZM428.96 53.7761C427.642 53.7761 426.569 52.6925 426.569 51.3604C426.7 48.1557 431.221 48.1568 431.353 51.3604C431.353 52.6925 430.279 53.7761 428.96 53.7761ZM433.693 51.1802C433.681 50.8539 433.636 50.5362 433.562 50.2297C443.376 45.1412 455.637 45.0525 465.527 49.993C465.4 50.4191 465.33 50.8697 465.328 51.3363C461.062 52.6014 456.984 54.3884 453.176 56.6589C451.346 54.7608 448.212 54.7601 446.381 56.6587C442.413 54.2925 438.154 52.4531 433.693 51.1802ZM447.122 63.9192C448.707 65.0041 450.849 65.0042 452.435 63.9194C457.895 68.6464 462.369 74.5636 465.45 81.1343C465.241 81.2953 465.046 81.4735 464.867 81.6664C457.163 77.749 448.943 75.2584 440.404 74.2562C440.173 73.5566 439.786 72.9285 439.284 72.4142C441.575 69.293 444.205 66.4424 447.122 63.9192ZM435.907 73.3377C437.226 73.3377 438.299 74.4213 438.299 75.7533C438.168 78.958 433.647 78.9571 433.515 75.7533C433.516 74.4213 434.589 73.3377 435.907 73.3377ZM410.322 77.6035C410.322 76.2714 411.395 75.1878 412.714 75.1878C415.887 75.3203 415.886 79.8869 412.714 80.0189C411.396 80.0191 410.322 78.9355 410.322 77.6035ZM413.889 82.2214C413.889 82.2214 417.45 81.4428 417.45 77.6345C417.45 77.6345 426.588 76.17 431.186 76.1186C431.272 77.2574 431.757 78.285 432.501 79.0605C427.932 88.2762 426.089 98.4935 427.15 108.732C426.694 108.923 426.273 109.184 425.901 109.501C418.252 102.631 413.889 91.1206 413.889 82.2214ZM428.96 115.552C427.642 115.552 426.569 114.468 426.569 113.136C426.569 111.804 427.642 110.72 428.96 110.72C430.262 110.72 431.353 111.85 431.353 113.136C431.353 114.468 430.279 115.552 428.96 115.552ZM449.778 118.667C444.088 118.667 438.461 117.3 433.432 114.706C433.636 114.12 433.726 113.452 433.686 112.829C446.558 108.178 457.805 100.049 466.326 89.2397C467.026 89.5689 467.803 89.7199 468.574 89.6794C469.095 91.6176 469.507 93.595 469.798 95.5723C470.022 97.0859 472.342 96.7477 472.118 95.2284C471.808 93.1289 471.37 91.0291 470.813 88.9725C471.094 88.7976 471.354 88.5937 471.591 88.3657C475.504 91.0286 479.151 94.0856 482.456 97.4688C480.406 102.011 477.424 106.124 473.634 109.522C473.259 109.24 472.841 109.013 472.393 108.851C472.623 106.666 472.724 104.46 472.69 102.277C472.666 100.742 470.322 100.778 470.345 102.314C470.378 104.411 470.281 106.532 470.058 108.633C467.293 109.074 465.485 111.949 466.247 114.643C461.186 117.278 455.515 118.667 449.778 118.667ZM470.802 115.756C469.483 115.756 468.41 114.672 468.41 113.34C468.542 110.136 473.063 110.137 473.194 113.34C473.194 114.672 472.121 115.756 470.802 115.756Z" fill="white"/>
<defs>
<filter id="filter0_dii" x="337.25" y="10.2188" width="220.75" height="220.75" filterUnits="userSpaceOnUse" color-interpolation-filters="sRGB">
<feFlood flood-opacity="0" result="BackgroundImageFix"/>
<feColorMatrix in="SourceAlpha" type="matrix" values="0 0 0 0 0 0 0 0 0 0 0 0 0 0 0 0 0 0 127 0"/>
<feOffset dy="4"/>
<feGaussianBlur stdDeviation="4"/>
<feColorMatrix type="matrix" values="0 0 0 0 0.988235 0 0 0 0 0.670588 0 0 0 0 0.376471 0 0 0 0.3 0"/>
<feBlend mode="normal" in2="BackgroundImageFix" result="effect1_dropShadow"/>
<feBlend mode="normal" in="SourceGraphic" in2="effect1_dropShadow" result="shape"/>
<feColorMatrix in="SourceAlpha" type="matrix" values="0 0 0 0 0 0 0 0 0 0 0 0 0 0 0 0 0 0 127 0" result="hardAlpha"/>
<feOffset dy="-4"/>
<feGaussianBlur stdDeviation="4"/>
<feComposite in2="hardAlpha" operator="arithmetic" k2="-1" k3="1"/>
<feColorMatrix type="matrix" values="0 0 0 0 0 0 0 0 0 0 0 0 0 0 0 0 0 0 0.1 0"/>
<feBlend mode="normal" in2="shape" result="effect2_innerShadow"/>
<feColorMatrix in="SourceAlpha" type="matrix" values="0 0 0 0 0 0 0 0 0 0 0 0 0 0 0 0 0 0 127 0" result="hardAlpha"/>
<feOffset/>
<feGaussianBlur stdDeviation="2"/>
<feComposite in2="hardAlpha" operator="arithmetic" k2="-1" k3="1"/>
<feColorMatrix type="matrix" values="0 0 0 0 1 0 0 0 0 1 0 0 0 0 1 0 0 0 0.5 0"/>
<feBlend mode="normal" in2="effect2_innerShadow" result="effect3_innerShadow"/>
</filter>
<filter id="filter1_dii" x="2.88184" y="135.16" width="88.9954" height="88.9954" filterUnits="userSpaceOnUse" color-interpolation-filters="sRGB">
<feFlood flood-opacity="0" result="BackgroundImageFix"/>
<feColorMatrix in="SourceAlpha" type="matrix" values="0 0 0 0 0 0 0 0 0 0 0 0 0 0 0 0 0 0 127 0"/>
<feOffset dy="4"/>
<feGaussianBlur stdDeviation="4"/>
<feColorMatrix type="matrix" values="0 0 0 0 0.151571 0 0 0 0 0.14532 0 0 0 0 0.639164 0 0 0 0.3 0"/>
<feBlend mode="normal" in2="BackgroundImageFix" result="effect1_dropShadow"/>
<feBlend mode="normal" in="SourceGraphic" in2="effect1_dropShadow" result="shape"/>
<feColorMatrix in="SourceAlpha" type="matrix" values="0 0 0 0 0 0 0 0 0 0 0 0 0 0 0 0 0 0 127 0" result="hardAlpha"/>
<feOffset dy="-4"/>
<feGaussianBlur stdDeviation="4"/>
<feComposite in2="hardAlpha" operator="arithmetic" k2="-1" k3="1"/>
<feColorMatrix type="matrix" values="0 0 0 0 0 0 0 0 0 0 0 0 0 0 0 0 0 0 0.1 0"/>
<feBlend mode="normal" in2="shape" result="effect2_innerShadow"/>
<feColorMatrix in="SourceAlpha" type="matrix" values="0 0 0 0 0 0 0 0 0 0 0 0 0 0 0 0 0 0 127 0" result="hardAlpha"/>
<feOffset/>
<feGaussianBlur stdDeviation="2"/>
<feComposite in2="hardAlpha" operator="arithmetic" k2="-1" k3="1"/>
<feColorMatrix type="matrix" values="0 0 0 0 1 0 0 0 0 1 0 0 0 0 1 0 0 0 0.5 0"/>
<feBlend mode="normal" in2="effect2_innerShadow" result="effect3_innerShadow"/>
</filter>
<filter id="filter2_dii" x="379.788" y="250.903" width="65.7854" height="65.7854" filterUnits="userSpaceOnUse" color-interpolation-filters="sRGB">
<feFlood flood-opacity="0" result="BackgroundImageFix"/>
<feColorMatrix in="SourceAlpha" type="matrix" values="0 0 0 0 0 0 0 0 0 0 0 0 0 0 0 0 0 0 127 0"/>
<feOffset dy="4"/>
<feGaussianBlur stdDeviation="4"/>
<feColorMatrix type="matrix" values="0 0 0 0 0.151571 0 0 0 0 0.14532 0 0 0 0 0.639164 0 0 0 0.3 0"/>
<feBlend mode="normal" in2="BackgroundImageFix" result="effect1_dropShadow"/>
<feBlend mode="normal" in="SourceGraphic" in2="effect1_dropShadow" result="shape"/>
<feColorMatrix in="SourceAlpha" type="matrix" values="0 0 0 0 0 0 0 0 0 0 0 0 0 0 0 0 0 0 127 0" result="hardAlpha"/>
<feOffset dy="-4"/>
<feGaussianBlur stdDeviation="4"/>
<feComposite in2="hardAlpha" operator="arithmetic" k2="-1" k3="1"/>
<feColorMatrix type="matrix" values="0 0 0 0 0 0 0 0 0 0 0 0 0 0 0 0 0 0 0.1 0"/>
<feBlend mode="normal" in2="shape" result="effect2_innerShadow"/>
<feColorMatrix in="SourceAlpha" type="matrix" values="0 0 0 0 0 0 0 0 0 0 0 0 0 0 0 0 0 0 127 0" result="hardAlpha"/>
<feOffset/>
<feGaussianBlur stdDeviation="2"/>
<feComposite in2="hardAlpha" operator="arithmetic" k2="-1" k3="1"/>
<feColorMatrix type="matrix" values="0 0 0 0 1 0 0 0 0 1 0 0 0 0 1 0 0 0 0.5 0"/>
<feBlend mode="normal" in2="effect2_innerShadow" result="effect3_innerShadow"/>
</filter>
<filter id="filter3_dii" x="214.582" y="347.851" width="65.7854" height="65.7854" filterUnits="userSpaceOnUse" color-interpolation-filters="sRGB">
<feFlood flood-opacity="0" result="BackgroundImageFix"/>
<feColorMatrix in="SourceAlpha" type="matrix" values="0 0 0 0 0 0 0 0 0 0 0 0 0 0 0 0 0 0 127 0"/>
<feOffset dy="4"/>
<feGaussianBlur stdDeviation="4"/>
<feColorMatrix type="matrix" values="0 0 0 0 0.151571 0 0 0 0 0.14532 0 0 0 0 0.639164 0 0 0 0.3 0"/>
<feBlend mode="normal" in2="BackgroundImageFix" result="effect1_dropShadow"/>
<feBlend mode="normal" in="SourceGraphic" in2="effect1_dropShadow" result="shape"/>
<feColorMatrix in="SourceAlpha" type="matrix" values="0 0 0 0 0 0 0 0 0 0 0 0 0 0 0 0 0 0 127 0" result="hardAlpha"/>
<feOffset dy="-4"/>
<feGaussianBlur stdDeviation="4"/>
<feComposite in2="hardAlpha" operator="arithmetic" k2="-1" k3="1"/>
<feColorMatrix type="matrix" values="0 0 0 0 0 0 0 0 0 0 0 0 0 0 0 0 0 0 0.1 0"/>
<feBlend mode="normal" in2="shape" result="effect2_innerShadow"/>
<feColorMatrix in="SourceAlpha" type="matrix" values="0 0 0 0 0 0 0 0 0 0 0 0 0 0 0 0 0 0 127 0" result="hardAlpha"/>
<feOffset/>
<feGaussianBlur stdDeviation="2"/>
<feComposite in2="hardAlpha" operator="arithmetic" k2="-1" k3="1"/>
<feColorMatrix type="matrix" values="0 0 0 0 1 0 0 0 0 1 0 0 0 0 1 0 0 0 0.5 0"/>
<feBlend mode="normal" in2="effect2_innerShadow" result="effect3_innerShadow"/>
</filter>
<filter id="filter4_dii" x="106.754" y="74.8164" width="65.7854" height="65.7854" filterUnits="userSpaceOnUse" color-interpolation-filters="sRGB">
<feFlood flood-opacity="0" result="BackgroundImageFix"/>
<feColorMatrix in="SourceAlpha" type="matrix" values="0 0 0 0 0 0 0 0 0 0 0 0 0 0 0 0 0 0 127 0"/>
<feOffset dy="4"/>
<feGaussianBlur stdDeviation="4"/>
<feColorMatrix type="matrix" values="0 0 0 0 0.151571 0 0 0 0 0.14532 0 0 0 0 0.639164 0 0 0 0.3 0"/>
<feBlend mode="normal" in2="BackgroundImageFix" result="effect1_dropShadow"/>
<feBlend mode="normal" in="SourceGraphic" in2="effect1_dropShadow" result="shape"/>
<feColorMatrix in="SourceAlpha" type="matrix" values="0 0 0 0 0 0 0 0 0 0 0 0 0 0 0 0 0 0 127 0" result="hardAlpha"/>
<feOffset dy="-4"/>
<feGaussianBlur stdDeviation="4"/>
<feComposite in2="hardAlpha" operator="arithmetic" k2="-1" k3="1"/>
<feColorMatrix type="matrix" values="0 0 0 0 0 0 0 0 0 0 0 0 0 0 0 0 0 0 0.1 0"/>
<feBlend mode="normal" in2="shape" result="effect2_innerShadow"/>
<feColorMatrix in="SourceAlpha" type="matrix" values="0 0 0 0 0 0 0 0 0 0 0 0 0 0 0 0 0 0 127 0" result="hardAlpha"/>
<feOffset/>
<feGaussianBlur stdDeviation="2"/>
<feComposite in2="hardAlpha" operator="arithmetic" k2="-1" k3="1"/>
<feColorMatrix type="matrix" values="0 0 0 0 1 0 0 0 0 1 0 0 0 0 1 0 0 0 0.5 0"/>
<feBlend mode="normal" in2="effect2_innerShadow" result="effect3_innerShadow"/>
</filter>
<filter id="filter5_dii" x="217.55" y="44.1494" width="64.8809" height="64.8809" filterUnits="userSpaceOnUse" color-interpolation-filters="sRGB">
<feFlood flood-opacity="0" result="BackgroundImageFix"/>
<feColorMatrix in="SourceAlpha" type="matrix" values="0 0 0 0 0 0 0 0 0 0 0 0 0 0 0 0 0 0 127 0"/>
<feOffset dy="4"/>
<feGaussianBlur stdDeviation="4"/>
<feColorMatrix type="matrix" values="0 0 0 0 0.151571 0 0 0 0 0.14532 0 0 0 0 0.639164 0 0 0 0.3 0"/>
<feBlend mode="normal" in2="BackgroundImageFix" result="effect1_dropShadow"/>
<feBlend mode="normal" in="SourceGraphic" in2="effect1_dropShadow" result="shape"/>
<feColorMatrix in="SourceAlpha" type="matrix" values="0 0 0 0 0 0 0 0 0 0 0 0 0 0 0 0 0 0 127 0" result="hardAlpha"/>
<feOffset dy="-4"/>
<feGaussianBlur stdDeviation="4"/>
<feComposite in2="hardAlpha" operator="arithmetic" k2="-1" k3="1"/>
<feColorMatrix type="matrix" values="0 0 0 0 0 0 0 0 0 0 0 0 0 0 0 0 0 0 0.1 0"/>
<feBlend mode="normal" in2="shape" result="effect2_innerShadow"/>
<feColorMatrix in="SourceAlpha" type="matrix" values="0 0 0 0 0 0 0 0 0 0 0 0 0 0 0 0 0 0 127 0" result="hardAlpha"/>
<feOffset/>
<feGaussianBlur stdDeviation="2"/>
<feComposite in2="hardAlpha" operator="arithmetic" k2="-1" k3="1"/>
<feColorMatrix type="matrix" values="0 0 0 0 1 0 0 0 0 1 0 0 0 0 1 0 0 0 0.5 0"/>
<feBlend mode="normal" in2="effect2_innerShadow" result="effect3_innerShadow"/>
</filter>
<filter id="filter6_dii" x="34.5381" y="280.581" width="84.455" height="84.455" filterUnits="userSpaceOnUse" color-interpolation-filters="sRGB">
<feFlood flood-opacity="0" result="BackgroundImageFix"/>
<feColorMatrix in="SourceAlpha" type="matrix" values="0 0 0 0 0 0 0 0 0 0 0 0 0 0 0 0 0 0 127 0"/>
<feOffset dy="4"/>
<feGaussianBlur stdDeviation="4"/>
<feColorMatrix type="matrix" values="0 0 0 0 0.151571 0 0 0 0 0.14532 0 0 0 0 0.639164 0 0 0 0.3 0"/>
<feBlend mode="normal" in2="BackgroundImageFix" result="effect1_dropShadow"/>
<feBlend mode="normal" in="SourceGraphic" in2="effect1_dropShadow" result="shape"/>
<feColorMatrix in="SourceAlpha" type="matrix" values="0 0 0 0 0 0 0 0 0 0 0 0 0 0 0 0 0 0 127 0" result="hardAlpha"/>
<feOffset dy="-4"/>
<feGaussianBlur stdDeviation="4"/>
<feComposite in2="hardAlpha" operator="arithmetic" k2="-1" k3="1"/>
<feColorMatrix type="matrix" values="0 0 0 0 0 0 0 0 0 0 0 0 0 0 0 0 0 0 0.1 0"/>
<feBlend mode="normal" in2="shape" result="effect2_innerShadow"/>
<feColorMatrix in="SourceAlpha" type="matrix" values="0 0 0 0 0 0 0 0 0 0 0 0 0 0 0 0 0 0 127 0" result="hardAlpha"/>
<feOffset/>
<feGaussianBlur stdDeviation="2"/>
<feComposite in2="hardAlpha" operator="arithmetic" k2="-1" k3="1"/>
<feColorMatrix type="matrix" values="0 0 0 0 1 0 0 0 0 1 0 0 0 0 1 0 0 0 0.5 0"/>
<feBlend mode="normal" in2="effect2_innerShadow" result="effect3_innerShadow"/>
</filter>
<filter id="filter7_dii" x="313.508" y="376.539" width="68.4305" height="68.4305" filterUnits="userSpaceOnUse" color-interpolation-filters="sRGB">
<feFlood flood-opacity="0" result="BackgroundImageFix"/>
<feColorMatrix in="SourceAlpha" type="matrix" values="0 0 0 0 0 0 0 0 0 0 0 0 0 0 0 0 0 0 127 0"/>
<feOffset dy="4"/>
<feGaussianBlur stdDeviation="4"/>
<feColorMatrix type="matrix" values="0 0 0 0 0.151571 0 0 0 0 0.14532 0 0 0 0 0.639164 0 0 0 0.3 0"/>
<feBlend mode="normal" in2="BackgroundImageFix" result="effect1_dropShadow"/>
<feBlend mode="normal" in="SourceGraphic" in2="effect1_dropShadow" result="shape"/>
<feColorMatrix in="SourceAlpha" type="matrix" values="0 0 0 0 0 0 0 0 0 0 0 0 0 0 0 0 0 0 127 0" result="hardAlpha"/>
<feOffset dy="-4"/>
<feGaussianBlur stdDeviation="4"/>
<feComposite in2="hardAlpha" operator="arithmetic" k2="-1" k3="1"/>
<feColorMatrix type="matrix" values="0 0 0 0 0 0 0 0 0 0 0 0 0 0 0 0 0 0 0.1 0"/>
<feBlend mode="normal" in2="shape" result="effect2_innerShadow"/>
<feColorMatrix in="SourceAlpha" type="matrix" values="0 0 0 0 0 0 0 0 0 0 0 0 0 0 0 0 0 0 127 0" result="hardAlpha"/>
<feOffset/>
<feGaussianBlur stdDeviation="2"/>
<feComposite in2="hardAlpha" operator="arithmetic" k2="-1" k3="1"/>
<feColorMatrix type="matrix" values="0 0 0 0 1 0 0 0 0 1 0 0 0 0 1 0 0 0 0.5 0"/>
<feBlend mode="normal" in2="effect2_innerShadow" result="effect3_innerShadow"/>
</filter>
<clipPath id="clip0">
<rect width="24" height="20" fill="white" transform="translate(401 263.042)"/>
</clipPath>
</defs>
</svg>