<svg width="558" height="508" viewBox="0 0 558 508" fill="none" xmlns="http://www.w3.org/2000/svg">
<g filter="url(#filter0_dii)">
<path d="M4 9.99999C4 4.47714 8.47715 0 14 0H544C549.523 0 554 4.47715 554 10V500H4V9.99999Z" fill="white"/>
<path d="M4 9.99999C4 4.47714 8.47715 0 14 0H544C549.523 0 554 4.47715 554 10V500H4V9.99999Z" fill="#5551FF" fill-opacity="0.05"/>
<path d="M4.5 9.99999C4.5 4.75329 8.75329 0.5 14 0.5H544C549.247 0.5 553.5 4.7533 553.5 10V499.5H4.5V9.99999Z" stroke="#D7D7D7"/>
</g>
<g filter="url(#filter1_i)">
<ellipse cx="279" cy="298.5" rx="231" ry="122.5" fill="#5551FF"/>
<ellipse cx="279" cy="298.5" rx="231" ry="122.5" fill="url(#paint0_linear)"/>
</g>
<path d="M509.875 298.5C509.875 332.258 484.07 362.85 442.283 385.01C400.502 407.167 342.773 420.875 279 420.875C215.227 420.875 157.498 407.167 115.717 385.01C73.93 362.85 48.125 332.258 48.125 298.5C48.125 264.742 73.93 234.15 115.717 211.99C157.498 189.833 215.227 176.125 279 176.125C342.773 176.125 400.502 189.833 442.283 211.99C484.07 234.15 509.875 264.742 509.875 298.5Z" stroke="#D2D2D2" stroke-width="0.25"/>
<g filter="url(#filter2_i)">
<ellipse cx="279" cy="239.5" rx="231" ry="122.5" fill="#FDB3B3"/>
<ellipse cx="279" cy="239.5" rx="231" ry="122.5" fill="url(#paint1_linear)"/>
</g>
<path d="M509.875 239.5C509.875 273.258 484.07 303.85 442.283 326.01C400.502 348.167 342.773 361.875 279 361.875C215.227 361.875 157.498 348.167 115.717 326.01C73.93 303.85 48.125 273.258 48.125 239.5C48.125 205.742 73.93 175.15 115.717 152.99C157.498 130.833 215.227 117.125 279 117.125C342.773 117.125 400.502 130.833 442.283 152.99C484.07 175.15 509.875 205.742 509.875 239.5Z" stroke="#D2D2D2" stroke-width="0.25"/>
<g filter="url(#filter3_i)">
<ellipse cx="279" cy="180.5" rx="231" ry="122.5" fill="#FFA451"/>
<ellipse cx="279" cy="180.5" rx="231" ry="122.5" fill="url(#paint2_linear)"/>
</g>
<path d="M509.875 180.5C509.875 214.258 484.07 244.85 442.283 267.01C400.502 289.167 342.773 302.875 279 302.875C215.227 302.875 157.498 289.167 115.717 267.01C73.93 244.85 48.125 214.258 48.125 180.5C48.125 146.742 73.93 116.15 115.717 93.9899C157.498 71.8331 215.227 58.125 279 58.125C342.773 58.125 400.502 71.8331 442.283 93.9899C484.07 116.15 509.875 146.742 509.875 180.5Z" stroke="#D2D2D2" stroke-width="0.25"/>
<path d="M457.926 484.6C457.926 485.5 457.913 485.625 457.451 485.687L457.163 485.725C457.076 485.787 457.101 486 457.188 486.038C457.563 486.013 457.938 486 458.388 486C458.826 486 459.188 486.013 459.701 486.038C459.788 486 459.813 485.787 459.726 485.725L459.326 485.687C458.876 485.65 458.851 485.5 458.851 484.6V481.987C458.851 481.687 458.876 481.6 459.088 481.6H460.651C461.188 481.6 461.276 481.662 461.276 482.425V484.6C461.276 485.5 461.263 485.625 460.801 485.687L460.538 485.725C460.451 485.787 460.476 486 460.563 486.038C460.913 486.013 461.288 486 461.738 486C462.176 486 462.538 486.013 462.913 486.038C463.001 486 463.026 485.787 462.938 485.725L462.676 485.687C462.226 485.625 462.201 485.5 462.201 484.6V482.512C462.201 482 462.226 481.4 462.251 480.95C462.226 480.912 462.176 480.887 462.126 480.887C461.826 481 461.038 481.075 460.488 481.075H459.088C458.876 481.075 458.851 481 458.851 480.687V480.55C458.851 478.612 459.301 477.537 460.276 477.537C460.601 477.537 461.088 477.75 461.451 478.362C461.513 478.462 461.601 478.55 461.776 478.55C461.963 478.55 462.288 478.412 462.288 478.037C462.288 477.512 461.588 477.062 460.738 477.062C459.338 477.062 458.576 478.112 458.313 478.75C458.026 479.412 457.926 480.137 457.926 480.85C457.926 480.975 457.838 481.05 457.738 481.1L457.201 481.362C457.151 481.437 457.163 481.55 457.238 481.6H457.676C457.926 481.6 457.926 481.625 457.926 481.962V484.6ZM468.457 481.35C468.182 481.35 468.094 481.325 467.694 481.15C467.407 481.025 466.969 480.9 466.494 480.9C465.382 480.9 464.457 481.712 464.457 482.788C464.457 483.587 464.969 484.075 465.394 484.3C465.394 484.362 465.332 484.462 465.269 484.537C465.057 484.762 464.819 484.975 464.607 485.112C464.469 485.212 464.419 485.262 464.419 485.325C464.419 485.762 464.844 486.188 465.332 486.313C465.444 486.388 465.344 486.5 465.232 486.613C464.944 486.9 464.594 487.225 464.382 487.45C464.294 487.55 464.244 487.713 464.244 487.913C464.244 488.538 464.782 489.363 466.319 489.363C467.944 489.363 469.432 488.363 469.432 487C469.432 485.75 468.382 485.625 467.682 485.625C467.132 485.625 466.619 485.662 466.194 485.662C465.607 485.662 465.319 485.425 465.319 485.137C465.319 484.775 465.719 484.537 465.869 484.45C466.019 484.462 466.194 484.487 466.419 484.487C468.007 484.487 468.519 483.362 468.519 482.5C468.519 482.287 468.519 482.075 468.494 481.862H469.394C469.582 481.837 469.607 481.412 469.469 481.35H468.457ZM467.282 486.4C468.182 486.4 468.707 486.725 468.707 487.488C468.707 488.2 467.969 488.825 466.857 488.825C465.719 488.825 465.182 488.263 465.182 487.588C465.182 487.113 465.482 486.725 465.782 486.538C465.957 486.425 466.457 486.4 466.857 486.4H467.282ZM466.607 484.125C466.007 484.125 465.469 483.55 465.469 482.662C465.469 481.812 465.919 481.262 466.519 481.262C467.282 481.262 467.632 481.975 467.632 482.825C467.632 483.587 467.282 484.125 466.607 484.125ZM476.248 485.225C475.923 485.225 475.86 485.2 475.86 485.112C475.86 485.037 475.973 484.837 476.998 483.662L477.76 482.788C478.735 481.662 479.098 480.812 479.098 480.037C479.098 478.837 478.285 478 477.035 478C475.91 478 474.923 478.662 474.523 479.762C474.523 479.925 474.71 479.987 474.823 479.925C475.16 479.187 475.698 478.675 476.448 478.675C477.46 478.675 478.01 479.362 478.01 480.5C478.01 481.837 477.048 483.05 476.223 483.937C475.298 484.937 474.885 485.362 474.31 485.737C474.235 485.787 474.173 485.837 474.173 485.875C474.173 485.975 474.235 486.025 474.26 486.038C474.535 486.013 474.948 486 475.648 486H477.46C478.035 486 478.56 486.013 479.073 486.038C479.26 485.787 479.485 485.137 479.648 484.512C479.598 484.438 479.46 484.4 479.373 484.438C479.298 484.575 479.21 484.737 478.973 484.95C478.748 485.15 478.373 485.225 477.798 485.225H476.248ZM485.535 487.788C485.535 488.688 485.523 488.813 485.06 488.875L484.798 488.913C484.71 488.975 484.735 489.188 484.823 489.225C485.173 489.2 485.548 489.188 485.998 489.188C486.435 489.188 486.798 489.2 487.398 489.225C487.485 489.188 487.51 488.975 487.423 488.913L486.935 488.85C486.485 488.788 486.46 488.675 486.46 487.788V486.475C486.46 486.213 486.523 486.15 486.635 486.125C486.748 486.15 487.098 486.175 487.323 486.175C489.098 486.175 490.373 484.925 490.373 483.187C490.373 481.925 489.56 480.9 488.298 480.9C487.498 480.9 486.71 481.412 486.548 481.487C486.46 481.487 486.435 481.412 486.435 481.325C486.435 481.162 486.46 480.975 486.485 480.75C486.46 480.687 486.41 480.662 486.335 480.662C486.01 480.9 485.423 481.2 485.098 481.337C485.035 481.375 485.035 481.512 485.085 481.562L485.198 481.637C485.535 481.862 485.535 481.925 485.535 482.412V487.788ZM486.46 482.587C486.46 482.175 486.498 481.987 486.61 481.85C486.748 481.7 487.135 481.5 487.673 481.5C488.798 481.5 489.36 482.512 489.36 483.512C489.36 484.812 488.76 485.762 487.735 485.762C487.473 485.762 487.085 485.675 486.835 485.487C486.585 485.287 486.46 485.137 486.46 484.737V482.587ZM492.283 489.113C492.571 489.113 492.871 489 493.083 488.525C493.696 487.163 494.721 484.987 495.133 484.15L495.833 482.712C496.258 481.825 496.483 481.462 496.896 481.387L497.108 481.35C497.196 481.275 497.183 481.087 497.083 481.037C496.733 481.062 496.446 481.075 496.133 481.075C495.808 481.075 495.433 481.062 495.033 481.037C494.933 481.075 494.921 481.287 495.008 481.35L495.396 481.412C495.621 481.45 495.696 481.537 495.696 481.625C495.696 481.762 495.533 482.225 495.258 482.875L494.833 483.862C494.608 484.375 494.408 484.762 494.371 484.787C494.321 484.762 494.083 484.1 494.008 483.9L493.608 482.75C493.533 482.537 493.246 481.725 493.246 481.575C493.246 481.487 493.346 481.45 493.521 481.412L493.833 481.35C493.921 481.287 493.908 481.075 493.808 481.037C493.408 481.062 493.058 481.075 492.721 481.075C492.308 481.075 491.933 481.062 491.533 481.037C491.433 481.075 491.421 481.287 491.496 481.35L491.808 481.412C492.246 481.5 492.333 481.8 492.546 482.387L493.521 485.062C493.683 485.525 493.733 485.675 493.733 485.925C493.733 486.1 493.646 486.363 493.608 486.463C493.496 486.763 493.246 487.288 492.883 487.85C492.796 487.988 492.671 488.075 492.471 488.075H492.233C491.958 488.075 491.733 488.238 491.733 488.575C491.733 488.888 491.921 489.113 492.283 489.113ZM501.202 481.6C501.314 481.525 501.339 481.187 501.189 481.075H499.802C499.589 481.075 499.577 481.062 499.577 480.837V480.275C499.527 480.187 499.377 480.187 499.314 480.212C499.189 480.462 498.952 480.8 498.789 480.95C498.664 481.062 498.352 481.225 497.989 481.337C497.939 481.412 497.952 481.55 498.027 481.6H498.377C498.627 481.6 498.639 481.625 498.639 481.962V484.825C498.639 485.575 498.864 486.175 499.939 486.175C500.577 486.175 501.027 485.862 501.252 485.6C501.277 485.525 501.227 485.387 501.127 485.387C501.089 485.387 500.927 485.525 500.814 485.562C500.714 485.6 500.602 485.625 500.477 485.625C499.652 485.625 499.564 484.962 499.564 484.237V481.9C499.564 481.637 499.577 481.6 499.789 481.6H501.202ZM503.097 484.6C503.097 485.5 503.085 485.637 502.622 485.687L502.31 485.725C502.222 485.787 502.247 486 502.335 486.038C502.735 486.013 503.11 486 503.56 486C503.997 486 504.36 486.013 504.735 486.038C504.822 486 504.847 485.775 504.76 485.725L504.497 485.687C504.047 485.625 504.022 485.5 504.022 484.6V482.5C504.022 482.062 504.06 482 504.285 481.812C504.51 481.625 504.835 481.475 505.26 481.475C506.06 481.475 506.447 482.012 506.447 482.812V484.6C506.447 485.5 506.435 485.612 505.972 485.687L505.722 485.725C505.635 485.787 505.66 486 505.747 486.038C506.085 486.013 506.46 486 506.91 486C507.347 486 507.71 486.013 508.16 486.038C508.247 486 508.272 485.787 508.185 485.725L507.847 485.687C507.397 485.637 507.372 485.5 507.372 484.6V482.512C507.372 481.637 506.947 480.9 505.76 480.9C505.122 480.9 504.522 481.2 504.072 481.55C504.035 481.525 504.022 481.425 504.022 481.312V478.687C504.022 478.137 504.047 477.512 504.06 477.137C504.035 477.087 503.985 477.062 503.935 477.062C503.485 477.3 502.897 477.487 502.585 477.587C502.522 477.625 502.522 477.8 502.585 477.837L502.71 477.912C503.085 478.137 503.097 478.212 503.097 478.95V484.6ZM510.28 484.6C510.28 485.5 510.268 485.625 509.805 485.687L509.543 485.725C509.455 485.787 509.48 486 509.568 486.038C509.918 486.013 510.293 486 510.743 486C511.18 486 511.543 486.013 511.918 486.038C512.005 486 512.03 485.787 511.943 485.725L511.68 485.687C511.23 485.625 511.205 485.5 511.205 484.6V482.35C511.205 481.837 511.23 481.237 511.255 480.8C511.243 480.75 511.193 480.725 511.13 480.725C510.843 480.912 510.13 481.237 509.843 481.337C509.78 481.375 509.78 481.512 509.83 481.562L509.943 481.637C510.28 481.862 510.28 481.925 510.28 482.412V484.6ZM510.693 478.2C510.318 478.2 510.018 478.462 510.018 478.875C510.018 479.212 510.268 479.5 510.655 479.5C511.005 479.5 511.318 479.3 511.318 478.85C511.318 478.5 511.068 478.2 510.693 478.2ZM514.366 483.95C513.566 484.237 513.328 484.525 513.328 485.012C513.328 485.362 513.478 485.675 513.716 485.887C513.928 486.075 514.228 486.175 514.591 486.175C514.941 486.175 515.216 486.013 515.491 485.862C515.741 485.725 515.891 485.612 515.978 485.612C516.053 485.612 516.128 485.712 516.178 485.787C516.391 486.063 516.691 486.175 516.991 486.175C517.603 486.175 518.041 485.687 518.041 485.625C518.041 485.537 518.003 485.462 517.953 485.462C517.916 485.462 517.853 485.512 517.791 485.55C517.716 485.588 517.603 485.625 517.478 485.625C516.991 485.625 516.878 485.112 516.903 484.537L516.978 482.362C517.016 481.425 516.578 480.9 515.678 480.9C514.766 480.9 513.353 481.787 513.353 482.437C513.353 482.55 513.416 482.612 513.528 482.612C513.716 482.612 514.053 482.525 514.241 482.375C514.341 482.3 514.353 482.15 514.366 481.95C514.391 481.562 514.816 481.387 515.166 481.387C515.941 481.387 516.091 482.012 516.078 482.475L516.066 483.05C516.066 483.237 516.041 483.35 515.853 483.412L514.366 483.95ZM514.291 484.862C514.291 484.375 514.653 484.187 515.391 483.937C515.616 483.862 515.828 483.812 515.903 483.812C515.978 483.812 516.028 483.837 516.028 483.975L516.003 484.712C515.991 484.975 515.991 485.15 515.841 485.3C515.716 485.425 515.328 485.612 515.078 485.612C514.441 485.612 514.291 485.075 514.291 484.862ZM524.644 480.9C523.694 480.9 522.944 481.412 522.944 482.325C522.944 483.012 523.457 483.45 524.182 483.862C524.644 484.125 525.144 484.438 525.144 485.012C525.144 485.55 524.757 485.812 524.307 485.812C523.594 485.812 523.194 485.212 522.982 484.525C522.919 484.45 522.757 484.462 522.694 484.537C522.669 484.95 522.744 485.562 522.844 485.8C523.157 486.05 523.594 486.175 524.182 486.175C525.107 486.175 525.982 485.7 525.982 484.75C525.982 483.862 525.369 483.437 524.707 483.062C524.269 482.812 523.744 482.537 523.744 482.025C523.744 481.575 524.057 481.262 524.544 481.262C525.057 481.262 525.432 481.625 525.644 482.175C525.707 482.25 525.894 482.225 525.944 482.137C525.944 481.8 525.857 481.4 525.744 481.125C525.632 481.025 525.169 480.9 524.644 480.9ZM532.285 478.687C532.285 478.137 532.31 477.512 532.322 477.137C532.297 477.087 532.247 477.062 532.197 477.062C531.747 477.3 531.16 477.487 530.847 477.587C530.785 477.625 530.785 477.8 530.847 477.837L530.972 477.912C531.347 478.137 531.36 478.212 531.36 478.95V480.837C531.36 480.937 531.347 481.012 531.285 481.012C531.147 480.962 530.872 480.9 530.447 480.9C528.747 480.9 527.422 482.025 527.422 483.775C527.422 485.087 528.347 486.175 529.735 486.175C530.335 486.175 530.76 485.975 531.31 485.6H531.36C531.385 485.65 531.385 485.8 531.385 485.987V486.2C531.385 486.263 531.447 486.3 531.522 486.3C531.872 486.163 532.647 485.975 533.172 485.9C533.285 485.837 533.272 485.525 533.185 485.5C532.997 485.562 532.785 485.625 532.647 485.625C532.297 485.625 532.285 485.162 532.285 484.175V478.687ZM531.36 484.762C531.36 484.962 531.347 485.15 531.272 485.225C531.072 485.425 530.647 485.575 530.31 485.575C529.085 485.575 528.447 484.5 528.447 483.362C528.447 482.275 529.035 481.287 530.172 481.287C530.66 481.287 531.035 481.55 531.222 481.812C531.31 481.937 531.36 482.05 531.36 482.3V484.762ZM535.07 484.6C535.07 485.5 535.057 485.625 534.595 485.687L534.32 485.725C534.22 485.787 534.245 486 534.332 486.038C534.707 486.013 535.082 486 535.532 486C535.97 486 536.332 486.013 536.745 486.038C536.832 486 536.857 485.787 536.77 485.725L536.47 485.687C536.02 485.625 535.995 485.5 535.995 484.6V483.912C535.995 483.525 536.007 483.487 536.232 483.487C536.37 483.487 536.507 483.537 536.62 483.662L537.957 485.212C538.12 485.4 538.17 485.487 538.17 485.562C538.17 485.637 538.045 485.662 537.857 485.687L537.632 485.725C537.545 485.775 537.557 485.987 537.657 486.038C538.02 486.013 538.457 486 538.957 486C539.357 486 539.782 486.013 540.145 486.038C540.245 486 540.257 485.787 540.17 485.725L539.995 485.7C539.77 485.662 539.52 485.588 539.345 485.425C539.095 485.187 538.657 484.7 538.17 484.15C537.745 483.675 537.545 483.437 537.332 483.15C537.257 483.05 537.27 482.987 537.42 482.85C537.645 482.637 538.07 482.187 538.557 481.8C538.882 481.537 539.095 481.412 539.345 481.362L539.745 481.287C539.82 481.225 539.807 481.012 539.72 480.975C539.02 481.05 538.282 481.075 537.732 481.075H537.445C537.332 481.112 537.332 481.35 537.445 481.387L537.745 481.425C537.957 481.45 538.02 481.487 538.02 481.55C538.02 481.612 537.932 481.75 537.582 482.125L537.07 482.675C536.732 483.025 536.495 483.162 536.22 483.162C536.007 483.162 535.995 483.137 535.995 482.975V478.687C535.995 478.137 536.02 477.512 536.032 477.137C536.007 477.087 535.957 477.062 535.907 477.062C535.457 477.3 534.87 477.487 534.557 477.587C534.495 477.625 534.495 477.8 534.557 477.837L534.682 477.912C535.057 478.137 535.07 478.212 535.07 478.95V484.6Z" fill="#919191"/>
<defs>
<filter id="filter0_dii" x="0" y="0" width="558" height="508" filterUnits="userSpaceOnUse" color-interpolation-filters="sRGB">
<feFlood flood-opacity="0" result="BackgroundImageFix"/>
<feColorMatrix in="SourceAlpha" type="matrix" values="0 0 0 0 0 0 0 0 0 0 0 0 0 0 0 0 0 0 127 0"/>
<feOffset dy="4"/>
<feGaussianBlur stdDeviation="2"/>
<feColorMatrix type="matrix" values="0 0 0 0 0 0 0 0 0 0 0 0 0 0 0 0 0 0 0.25 0"/>
<feBlend mode="normal" in2="BackgroundImageFix" result="effect1_dropShadow"/>
<feBlend mode="normal" in="SourceGraphic" in2="effect1_dropShadow" result="shape"/>
<feColorMatrix in="SourceAlpha" type="matrix" values="0 0 0 0 0 0 0 0 0 0 0 0 0 0 0 0 0 0 127 0" result="hardAlpha"/>
<feMorphology radius="0.5" operator="dilate" in="SourceAlpha" result="effect2_innerShadow"/>
<feOffset dy="1"/>
<feGaussianBlur stdDeviation="0.5"/>
<feComposite in2="hardAlpha" operator="arithmetic" k2="-1" k3="1"/>
<feColorMatrix type="matrix" values="0 0 0 0 0 0 0 0 0 0 0 0 0 0 0 0 0 0 0.25 0"/>
<feBlend mode="normal" in2="shape" result="effect2_innerShadow"/>
<feColorMatrix in="SourceAlpha" type="matrix" values="0 0 0 0 0 0 0 0 0 0 0 0 0 0 0 0 0 0 127 0" result="hardAlpha"/>
<feOffset dy="1"/>
<feGaussianBlur stdDeviation="1"/>
<feComposite in2="hardAlpha" operator="arithmetic" k2="-1" k3="1"/>
<feColorMatrix type="matrix" values="0 0 0 0 1 0 0 0 0 1 0 0 0 0 1 0 0 0 1 0"/>
<feBlend mode="normal" in2="effect2_innerShadow" result="effect3_innerShadow"/>
</filter>
<filter id="filter1_i" x="48" y="175" width="462" height="246" filterUnits="userSpaceOnUse" color-interpolation-filters="sRGB">
<feFlood flood-opacity="0" result="BackgroundImageFix"/>
<feBlend mode="normal" in="SourceGraphic" in2="BackgroundImageFix" result="shape"/>
<feColorMatrix in="SourceAlpha" type="matrix" values="0 0 0 0 0 0 0 0 0 0 0 0 0 0 0 0 0 0 127 0" result="hardAlpha"/>
<feOffset dy="-1"/>
<feGaussianBlur stdDeviation="1"/>
<feComposite in2="hardAlpha" operator="arithmetic" k2="-1" k3="1"/>
<feColorMatrix type="matrix" values="0 0 0 0 0 0 0 0 0 0 0 0 0 0 0 0 0 0 0.2 0"/>
<feBlend mode="normal" in2="shape" result="effect1_innerShadow"/>
</filter>
<filter id="filter2_i" x="48" y="116" width="462" height="246" filterUnits="userSpaceOnUse" color-interpolation-filters="sRGB">
<feFlood flood-opacity="0" result="BackgroundImageFix"/>
<feBlend mode="normal" in="SourceGraphic" in2="BackgroundImageFix" result="shape"/>
<feColorMatrix in="SourceAlpha" type="matrix" values="0 0 0 0 0 0 0 0 0 0 0 0 0 0 0 0 0 0 127 0" result="hardAlpha"/>
<feOffset dy="-1"/>
<feGaussianBlur stdDeviation="1"/>
<feComposite in2="hardAlpha" operator="arithmetic" k2="-1" k3="1"/>
<feColorMatrix type="matrix" values="0 0 0 0 0 0 0 0 0 0 0 0 0 0 0 0 0 0 0.2 0"/>
<feBlend mode="normal" in2="shape" result="effect1_innerShadow"/>
</filter>
<filter id="filter3_i" x="48" y="57" width="462" height="246" filterUnits="userSpaceOnUse" color-interpolation-filters="sRGB">
<feFlood flood-opacity="0" result="BackgroundImageFix"/>
<feBlend mode="normal" in="SourceGraphic" in2="BackgroundImageFix" result="shape"/>
<feColorMatrix in="SourceAlpha" type="matrix" values="0 0 0 0 0 0 0 0 0 0 0 0 0 0 0 0 0 0 127 0" result="hardAlpha"/>
<feOffset dy="-1"/>
<feGaussianBlur stdDeviation="1"/>
<feComposite in2="hardAlpha" operator="arithmetic" k2="-1" k3="1"/>
<feColorMatrix type="matrix" values="0 0 0 0 0 0 0 0 0 0 0 0 0 0 0 0 0 0 0.2 0"/>
<feBlend mode="normal" in2="shape" result="effect1_innerShadow"/>
</filter>
<linearGradient id="paint0_linear" x1="279" y1="176" x2="279" y2="421" gradientUnits="userSpaceOnUse">
<stop stop-color="white"/>
<stop offset="1" stop-color="white" stop-opacity="0"/>
</linearGradient>
<linearGradient id="paint1_linear" x1="279" y1="117" x2="279" y2="362" gradientUnits="userSpaceOnUse">
<stop stop-color="white"/>
<stop offset="1" stop-color="white" stop-opacity="0"/>
</linearGradient>
<linearGradient id="paint2_linear" x1="279" y1="58" x2="279" y2="303" gradientUnits="userSpaceOnUse">
<stop stop-color="white"/>
<stop offset="1" stop-color="white" stop-opacity="0"/>
</linearGradient>
</defs>
</svg>
