<svg width="755" height="345" viewBox="0 0 755 345" fill="none" xmlns="http://www.w3.org/2000/svg">
<path d="M368 1C389.57 1 410.945 5.0981 431 13.0784L368 173V1Z" fill="#FDB3B3"/>
<path d="M429.931 12C476.55 30.9981 512.506 70.4088 528 119.491L368 173L429.931 12Z" fill="#F0CBCB"/>
<path d="M527.777 120C533.225 137.117 536 155.002 536 173H368L527.777 120Z" fill="#FFA451"/>
<path d="M317 10C333.471 4.42257 351.181 1 368.5 1V173L317 10Z" fill="#8BE3F5"/>
<path d="M213.666 236C187.193 166.663 206.785 87.535 262.193 40L368 172.633L213.666 236Z" fill="#AEACFF"/>
<path d="M536.5 173.002C536.5 267.994 461.508 345 369 345C276.492 345 201.5 267.994 201.5 173.002C324 173.002 276.492 173 369 173C461.508 173 369 173 536.5 173.002Z" fill="#5551FF"/>
<path d="M87 79H195.5L292.043 37.5156" stroke="#5551FF" stroke-miterlimit="10"/>
<path d="M294.043 37.5156C294.043 36.4111 293.148 35.5156 292.043 35.5156C290.938 35.5156 290.043 36.4111 290.043 37.5156C290.043 38.6202 290.938 39.5156 292.043 39.5156C293.148 39.5156 294.043 38.6202 294.043 37.5156Z" fill="#5551FF"/>
<path d="M87 137.057H195.5H214.83" stroke="#5551FF" stroke-miterlimit="10"/>
<path d="M216.83 137.057C216.83 135.952 215.935 135.057 214.83 135.057C213.726 135.057 212.83 135.952 212.83 137.057C212.83 138.161 213.726 139.057 214.83 139.057C215.935 139.057 216.83 138.161 216.83 137.057Z" fill="#5551FF"/>
<path d="M398.169 20.707L649.9 22.8786" stroke="#5551FF" stroke-miterlimit="10"/>
<path d="M400.169 20.707C400.169 19.6025 399.273 18.707 398.169 18.707C397.064 18.707 396.169 19.6025 396.169 20.707C396.169 21.8116 397.064 22.707 398.169 22.707C399.273 22.707 400.169 21.8116 400.169 20.707Z" fill="#5551FF"/>
<path d="M649.9 75H541.4H484.066" stroke="#5551FF" stroke-miterlimit="10"/>
<path d="M486.066 75C486.066 73.8954 485.171 73 484.066 73C482.962 73 482.066 73.8954 482.066 75C482.066 76.1046 482.962 77 484.066 77C485.171 77 486.066 76.1046 486.066 75Z" fill="#5551FF"/>
<path d="M527 152C527 150.895 526.105 150 525 150C523.895 150 523 150.895 523 152C523 153.105 523.895 154 525 154C526.105 154 527 153.105 527 152Z" fill="#5551FF"/>
<path d="M400.169 278C400.169 276.895 399.273 276 398.169 276C397.064 276 396.169 276.895 396.169 278C396.169 279.105 397.064 280 398.169 280C399.273 280 400.169 279.105 400.169 278Z" fill="#5551FF"/>
<g filter="url(#filter0_d)">
<rect x="572" width="175" height="45" rx="6" fill="white"/>
<rect x="572.5" y="0.5" width="174" height="44" rx="5.5" stroke="#5551FF"/>
</g>
<path d="M664.29 20.1318C664.953 20.1318 665.562 20.0066 666.116 19.7561C666.669 19.5012 667.111 19.1519 667.441 18.708C667.775 18.2598 667.953 17.7632 667.975 17.2183C667.988 16.9019 667.957 16.6184 667.882 16.3679C667.812 16.1174 667.696 15.9021 667.533 15.7219C667.37 15.5374 667.188 15.3792 666.986 15.2473C666.788 15.1155 666.542 15.0012 666.248 14.9045C665.958 14.8079 665.672 14.7288 665.391 14.6672C665.114 14.6057 664.786 14.5464 664.408 14.4893C664.132 14.4409 663.91 14.3992 663.743 14.364C663.576 14.3289 663.391 14.2849 663.189 14.2322C662.991 14.175 662.835 14.1157 662.721 14.0542C662.607 13.9927 662.497 13.918 662.391 13.8301C662.286 13.7378 662.211 13.6323 662.167 13.5137C662.123 13.3906 662.101 13.2522 662.101 13.0984C662.101 12.6282 662.299 12.2437 662.695 11.9448C663.09 11.646 663.622 11.4966 664.29 11.4966C664.949 11.4966 665.47 11.6482 665.852 11.9514C666.234 12.2546 666.441 12.6831 666.472 13.2368C666.472 13.3247 666.518 13.3687 666.61 13.3687H667.553C667.645 13.3687 667.691 13.3247 667.691 13.2368C667.669 12.6743 667.5 12.1755 667.184 11.7405C666.867 11.3054 666.456 10.9758 665.951 10.7517C665.446 10.5276 664.892 10.4155 664.29 10.4155C663.341 10.4155 662.545 10.6704 661.904 11.1802C661.262 11.6899 660.924 12.3293 660.888 13.0984C660.875 13.3445 660.895 13.5708 660.948 13.7773C661.005 13.9795 661.08 14.1553 661.172 14.3047C661.269 14.4497 661.4 14.5837 661.567 14.7068C661.739 14.8254 661.908 14.9265 662.075 15.01C662.242 15.0891 662.453 15.1638 662.708 15.2341C662.967 15.3044 663.202 15.3616 663.413 15.4055C663.628 15.4451 663.892 15.4912 664.204 15.5439C665.153 15.7021 665.815 15.8933 666.188 16.1174C666.566 16.3416 666.755 16.7085 666.755 17.2183C666.755 17.7544 666.542 18.196 666.116 18.5432C665.694 18.886 665.085 19.0574 664.29 19.0574C663.595 19.0574 663.015 18.8684 662.55 18.4905C662.088 18.1082 661.84 17.6401 661.805 17.0864C661.805 16.9941 661.754 16.948 661.653 16.948H660.724C660.631 16.948 660.585 16.9897 660.585 17.0732C660.607 17.6841 660.792 18.2268 661.139 18.7014C661.486 19.1716 661.934 19.5276 662.484 19.7693C663.033 20.011 663.635 20.1318 664.29 20.1318ZM674.876 17.4226C674.92 17.4226 674.953 17.4358 674.975 17.4622C675.001 17.4885 675.008 17.5237 674.995 17.5676C674.859 18.3762 674.529 19.0068 674.006 19.4595C673.483 19.9077 672.798 20.1318 671.949 20.1318C670.956 20.1318 670.183 19.8286 669.629 19.2222C669.075 18.6113 668.799 17.7676 668.799 16.6909C668.799 15.6055 669.075 14.7397 669.629 14.0938C670.183 13.4434 670.956 13.1182 671.949 13.1182C672.907 13.1182 673.655 13.4412 674.191 14.0872C674.727 14.7288 674.995 15.5791 674.995 16.6382C674.995 16.7393 674.955 16.7898 674.876 16.7898H670.018C670.031 17.6072 670.189 18.2114 670.493 18.6025C670.796 18.9937 671.281 19.1892 671.949 19.1892C672.982 19.1892 673.597 18.6399 673.795 17.5413C673.808 17.4622 673.854 17.4226 673.934 17.4226H674.876ZM671.949 14.0608C670.882 14.0608 670.255 14.6541 670.071 15.8406H673.65C673.65 15.6121 673.624 15.4011 673.571 15.2078C673.518 15.01 673.43 14.821 673.307 14.6409C673.189 14.4607 673.013 14.3201 672.78 14.219C672.547 14.1135 672.27 14.0608 671.949 14.0608ZM681.877 17.4226C681.921 17.4226 681.954 17.4358 681.976 17.4622C682.002 17.4885 682.009 17.5237 681.995 17.5676C681.859 18.3762 681.53 19.0068 681.007 19.4595C680.484 19.9077 679.798 20.1318 678.95 20.1318C677.957 20.1318 677.183 19.8286 676.63 19.2222C676.076 18.6113 675.799 17.7676 675.799 16.6909C675.799 15.6055 676.076 14.7397 676.63 14.0938C677.183 13.4434 677.957 13.1182 678.95 13.1182C679.908 13.1182 680.655 13.4412 681.191 14.0872C681.727 14.7288 681.995 15.5791 681.995 16.6382C681.995 16.7393 681.956 16.7898 681.877 16.7898H677.019C677.032 17.6072 677.19 18.2114 677.493 18.6025C677.796 18.9937 678.282 19.1892 678.95 19.1892C679.983 19.1892 680.598 18.6399 680.796 17.5413C680.809 17.4622 680.855 17.4226 680.934 17.4226H681.877ZM678.95 14.0608C677.882 14.0608 677.256 14.6541 677.071 15.8406H680.651C680.651 15.6121 680.624 15.4011 680.572 15.2078C680.519 15.01 680.431 14.821 680.308 14.6409C680.189 14.4607 680.013 14.3201 679.781 14.219C679.548 14.1135 679.271 14.0608 678.95 14.0608ZM688.943 10.5474C688.983 10.5474 689.016 10.5605 689.042 10.5869C689.068 10.6133 689.082 10.6462 689.082 10.6858V19.8682C689.082 19.9561 689.035 20 688.943 20H688C687.908 20 687.862 19.9561 687.862 19.8682L687.908 18.8794C687.759 19.2969 687.51 19.6111 687.163 19.822C686.821 20.0286 686.326 20.1318 685.68 20.1318C684.81 20.1318 684.111 19.8242 683.584 19.209C683.061 18.5938 682.8 17.7544 682.8 16.6909C682.8 15.6187 683.061 14.7551 683.584 14.1003C684.107 13.4456 684.806 13.1182 685.68 13.1182C686.357 13.1182 686.871 13.2456 687.223 13.5005C687.579 13.7554 687.825 14.1311 687.961 14.6277L687.862 10.6858C687.862 10.6462 687.875 10.6133 687.902 10.5869C687.928 10.5605 687.961 10.5474 688 10.5474H688.943ZM685.95 19.1892C687.225 19.1892 687.862 18.3564 687.862 16.6909C687.862 15.8735 687.704 15.2319 687.387 14.7661C687.071 14.2959 686.592 14.0608 685.95 14.0608C685.304 14.0608 684.821 14.2959 684.5 14.7661C684.179 15.2319 684.019 15.8735 684.019 16.6909C684.019 18.3564 684.663 19.1892 685.95 19.1892ZM701.217 19.8352C701.243 19.8835 701.248 19.9231 701.23 19.9539C701.213 19.9846 701.177 20 701.125 20H700.182C700.121 20 700.066 19.9692 700.017 19.9077L697.915 16.2229H695.614V19.8682C695.614 19.9561 695.57 20 695.482 20H694.526C694.443 20 694.401 19.9604 694.401 19.8813V10.6858C694.401 10.5935 694.443 10.5474 694.526 10.5474H698.481C699.233 10.5474 699.864 10.8022 700.373 11.312C700.883 11.8174 701.138 12.4941 701.138 13.3423C701.138 14.1289 700.953 14.7617 700.584 15.2407C700.215 15.7197 699.725 16.0229 699.114 16.1504L701.217 19.8352ZM695.614 11.6284V15.1418H697.802C698.523 15.1418 699.057 15.0078 699.404 14.7397C699.751 14.4717 699.925 14.0059 699.925 13.3423C699.925 13.0171 699.87 12.7402 699.76 12.5117C699.655 12.2832 699.501 12.1074 699.299 11.9844C699.101 11.8569 698.879 11.7668 698.633 11.7141C698.391 11.657 698.115 11.6284 697.802 11.6284H695.614ZM705.067 20.1318C706.064 20.1318 706.835 19.8264 707.38 19.2156C707.925 18.6047 708.198 17.7632 708.198 16.6909C708.198 15.6011 707.921 14.7332 707.367 14.0872C706.813 13.4412 706.047 13.1182 705.067 13.1182C704.073 13.1182 703.3 13.4434 702.746 14.0938C702.193 14.7397 701.916 15.6055 701.916 16.6909C701.916 17.7676 702.193 18.6113 702.746 19.2222C703.3 19.8286 704.073 20.1318 705.067 20.1318ZM705.067 14.0608C705.708 14.0608 706.187 14.2959 706.504 14.7661C706.82 15.2319 706.978 15.8735 706.978 16.6909C706.978 18.3564 706.341 19.1892 705.067 19.1892C703.779 19.1892 703.135 18.3564 703.135 16.6909C703.135 15.8735 703.296 15.2319 703.616 14.7661C703.937 14.2959 704.421 14.0608 705.067 14.0608ZM715.291 13.25C715.378 13.25 715.422 13.2939 715.422 13.3818V19.8682C715.422 19.9561 715.378 20 715.291 20H714.341C714.253 20 714.209 19.9561 714.209 19.8682L714.289 18.7278C714.139 19.1716 713.869 19.5166 713.478 19.7627C713.091 20.0088 712.605 20.1318 712.021 20.1318C711.103 20.1318 710.439 19.8484 710.03 19.2815C709.622 18.7102 709.417 17.8247 709.417 16.625V13.3818C709.417 13.2939 709.461 13.25 709.549 13.25H710.511C710.599 13.25 710.643 13.2939 710.643 13.3818L710.63 16.625C710.626 17.1392 710.661 17.5676 710.736 17.9104C710.815 18.2532 710.936 18.5168 711.098 18.7014C711.265 18.8816 711.454 19.009 711.665 19.0837C711.88 19.1541 712.144 19.1892 712.456 19.1892C713.01 19.1892 713.438 18.9915 713.741 18.5959C714.049 18.196 714.205 17.5391 714.209 16.625V13.3818C714.209 13.2939 714.253 13.25 714.341 13.25H715.291ZM717.051 19.8682V13.3818C717.051 13.2939 717.094 13.25 717.182 13.25H718.132C718.219 13.25 718.263 13.2939 718.263 13.3818L718.184 14.5222C718.334 14.0784 718.602 13.7334 718.989 13.4873C719.38 13.2412 719.867 13.1182 720.452 13.1182C720.94 13.1182 721.353 13.2017 721.691 13.3687C722.034 13.5312 722.302 13.7729 722.495 14.0938C722.689 14.4146 722.827 14.7793 722.911 15.188C722.999 15.5967 723.047 16.0757 723.056 16.625V19.8682C723.056 19.9561 723.012 20 722.924 20H721.961C721.874 20 721.83 19.9561 721.83 19.8682L721.843 16.625C721.847 15.6802 721.72 15.0166 721.46 14.6343C721.206 14.252 720.771 14.0608 720.155 14.0608C719.54 14.0608 719.072 14.2585 718.751 14.6541C718.43 15.0452 718.268 15.7021 718.263 16.625V19.8682C718.263 19.9561 718.219 20 718.132 20H717.182C717.094 20 717.051 19.9561 717.051 19.8682ZM730.419 10.5474C730.458 10.5474 730.491 10.5605 730.518 10.5869C730.544 10.6133 730.557 10.6462 730.557 10.6858V19.8682C730.557 19.9561 730.511 20 730.419 20H729.476C729.384 20 729.338 19.9561 729.338 19.8682L729.384 18.8794C729.234 19.2969 728.986 19.6111 728.639 19.822C728.296 20.0286 727.802 20.1318 727.156 20.1318C726.286 20.1318 725.587 19.8242 725.06 19.209C724.537 18.5938 724.275 17.7544 724.275 16.6909C724.275 15.6187 724.537 14.7551 725.06 14.1003C725.583 13.4456 726.281 13.1182 727.156 13.1182C727.833 13.1182 728.347 13.2456 728.698 13.5005C729.054 13.7554 729.3 14.1311 729.437 14.6277L729.338 10.6858C729.338 10.6462 729.351 10.6133 729.377 10.5869C729.404 10.5605 729.437 10.5474 729.476 10.5474H730.419ZM727.426 19.1892C728.7 19.1892 729.338 18.3564 729.338 16.6909C729.338 15.8735 729.179 15.2319 728.863 14.7661C728.547 14.2959 728.068 14.0608 727.426 14.0608C726.78 14.0608 726.297 14.2959 725.976 14.7661C725.655 15.2319 725.495 15.8735 725.495 16.6909C725.495 18.3564 726.138 19.1892 727.426 19.1892ZM712.37 31.3989C712.37 31.8296 712.406 32.2603 712.476 32.6909C712.524 33.0776 712.603 33.4402 712.713 33.7786C712.823 34.1125 712.968 34.4268 713.148 34.7212C713.328 35.0112 713.537 35.2595 713.774 35.4661C714.016 35.6726 714.3 35.8352 714.625 35.9539C714.954 36.0725 715.312 36.1318 715.699 36.1318C716.314 36.1318 716.855 35.9736 717.321 35.6572C717.787 35.3364 718.136 34.9211 718.369 34.4114C718.606 33.9016 718.725 33.3413 718.725 32.7305C718.725 31.8032 718.45 31.043 717.901 30.4497C717.352 29.8564 716.646 29.5598 715.785 29.5598C715.271 29.5598 714.803 29.6938 714.381 29.9619C713.959 30.23 713.658 30.5903 713.478 31.043C713.478 30.5332 713.513 30.1157 713.583 29.7905C713.838 28.1689 714.55 27.3582 715.719 27.3582C715.956 27.3582 716.163 27.3911 716.339 27.457C716.519 27.5229 716.67 27.6262 716.793 27.7668C716.917 27.9031 717.015 28.0415 717.09 28.1821C717.165 28.3184 717.246 28.4941 717.334 28.7095C717.36 28.7798 717.411 28.8149 717.486 28.8149H718.415C718.525 28.8149 718.567 28.7666 718.54 28.6699C718.347 27.9976 717.998 27.4548 717.492 27.0417C716.987 26.6243 716.396 26.4155 715.719 26.4155C715.214 26.4155 714.765 26.5078 714.374 26.6924C713.983 26.877 713.662 27.123 713.412 27.4307C713.166 27.7383 712.961 28.1118 712.799 28.5513C712.641 28.9863 712.529 29.4368 712.463 29.9026C712.401 30.364 712.37 30.8628 712.37 31.3989ZM713.728 32.7568C713.728 32.0933 713.9 31.5527 714.242 31.1353C714.585 30.7134 715.071 30.5024 715.699 30.5024C716.292 30.5024 716.743 30.7156 717.051 31.1418C717.358 31.5681 717.512 32.1064 717.512 32.7568C717.512 33.0205 717.492 33.2666 717.453 33.4951C717.417 33.7236 717.356 33.9434 717.268 34.1543C717.18 34.3652 717.066 34.5454 716.925 34.6948C716.789 34.8442 716.613 34.9651 716.398 35.0574C716.187 35.1453 715.945 35.1892 715.673 35.1892C715.4 35.1892 715.154 35.1475 714.935 35.064C714.715 34.9761 714.53 34.8596 714.381 34.7146C714.231 34.5652 714.106 34.3872 714.005 34.1807C713.908 33.9741 713.838 33.7522 713.794 33.5149C713.75 33.2776 713.728 33.0249 713.728 32.7568ZM727.386 31.0232C727.044 31.5066 726.545 31.7483 725.89 31.7483C725.235 31.7483 724.734 31.5066 724.387 31.0232C724.04 30.5398 723.866 29.8938 723.866 29.0852C723.866 28.2722 724.038 27.624 724.381 27.1406C724.723 26.6572 725.227 26.4155 725.89 26.4155C726.541 26.4155 727.037 26.6572 727.38 27.1406C727.727 27.6196 727.901 28.2678 727.901 29.0852C727.901 29.8938 727.729 30.5398 727.386 31.0232ZM731.262 26.6462C731.302 26.5803 731.35 26.5474 731.407 26.5474H732.383C732.431 26.5474 732.467 26.5627 732.489 26.5935C732.51 26.6243 732.51 26.6638 732.489 26.7122L726.859 35.9077C726.824 35.9692 726.776 36 726.714 36H725.739C725.69 36 725.655 35.9846 725.633 35.9539C725.611 35.9231 725.611 35.8835 725.633 35.8352L731.262 26.6462ZM725.89 30.9375C726.25 30.9375 726.519 30.7617 726.694 30.4102C726.87 30.0542 726.958 29.6125 726.958 29.0852C726.958 28.5535 726.87 28.1118 726.694 27.7603C726.519 27.4043 726.25 27.2263 725.89 27.2263C725.64 27.2263 725.431 27.3164 725.264 27.4966C725.097 27.6768 724.978 27.9009 724.908 28.1689C724.842 28.437 724.809 28.7424 724.809 29.0852C724.809 29.6125 724.897 30.0542 725.073 30.4102C725.253 30.7617 725.525 30.9375 725.89 30.9375ZM732.245 36.1318C731.585 36.1318 731.082 35.8923 730.735 35.4133C730.392 34.9299 730.221 34.2839 730.221 33.4753C730.221 32.6624 730.392 32.0142 730.735 31.5308C731.078 31.0474 731.581 30.8057 732.245 30.8057C732.895 30.8057 733.394 31.0474 733.741 31.5308C734.088 32.0142 734.262 32.6624 734.262 33.4753C734.262 34.2795 734.088 34.9233 733.741 35.4067C733.398 35.8901 732.899 36.1318 732.245 36.1318ZM732.245 35.3276C732.609 35.3276 732.877 35.1519 733.049 34.8003C733.225 34.4487 733.312 34.0071 733.312 33.4753C733.312 32.9392 733.225 32.4954 733.049 32.1438C732.877 31.7878 732.609 31.6099 732.245 31.6099C731.99 31.6099 731.779 31.7021 731.612 31.8867C731.449 32.0669 731.335 32.291 731.269 32.5591C731.203 32.8271 731.17 33.1326 731.17 33.4753C731.17 33.8181 731.203 34.1213 731.269 34.385C731.335 34.6487 731.449 34.8728 731.612 35.0574C731.779 35.2375 731.99 35.3276 732.245 35.3276Z" fill="#5551FF"/>
<g filter="url(#filter1_d)">
<rect x="572" y="55" width="175" height="45" rx="6" fill="white"/>
<rect x="572.5" y="55.5" width="174" height="44" rx="5.5" stroke="#5551FF"/>
</g>
<path d="M659.761 65.5474C660.513 65.5474 661.143 65.8022 661.653 66.312C662.163 66.8174 662.418 67.4941 662.418 68.3423C662.418 68.8125 662.347 69.2344 662.207 69.6079C662.071 69.9771 661.879 70.2781 661.633 70.511C661.392 70.7439 661.11 70.9219 660.79 71.0449C660.473 71.1636 660.13 71.2229 659.761 71.2229H656.894V74.8682C656.894 74.9561 656.85 75 656.762 75H655.806C655.723 75 655.681 74.9604 655.681 74.8813V65.6858C655.681 65.5935 655.723 65.5474 655.806 65.5474H659.761ZM659.082 70.1418C659.803 70.1418 660.337 70.0078 660.684 69.7397C661.031 69.4717 661.205 69.0059 661.205 68.3423C661.205 67.1821 660.497 66.6021 659.082 66.6021H656.894V70.1418H659.082ZM663.538 74.8682V68.3818C663.538 68.2939 663.582 68.25 663.67 68.25H664.619C664.707 68.25 664.751 68.2939 664.751 68.3818L664.672 69.5024C664.804 69.0674 665.024 68.751 665.331 68.5532C665.643 68.3511 666.089 68.25 666.669 68.25H667.375C667.463 68.25 667.507 68.2939 667.507 68.3818V69.0608C667.507 69.1487 667.463 69.1926 667.375 69.1926H666.669C666.028 69.1926 665.549 69.4036 665.232 69.8254C664.92 70.2429 664.76 70.8428 664.751 71.625V74.8682C664.751 74.9561 664.707 75 664.619 75H663.67C663.582 75 663.538 74.9561 663.538 74.8682ZM668.251 65.6858C668.251 65.6462 668.265 65.6133 668.291 65.5869C668.317 65.5605 668.35 65.5474 668.39 65.5474H669.603C669.642 65.5474 669.675 65.5605 669.702 65.5869C669.728 65.6133 669.741 65.6462 669.741 65.6858V66.8987C669.741 66.9382 669.728 66.9712 669.702 66.9976C669.675 67.0239 669.642 67.0371 669.603 67.0371H668.39C668.35 67.0371 668.317 67.0239 668.291 66.9976C668.265 66.9712 668.251 66.9382 668.251 66.8987V65.6858ZM669.471 75H668.522C668.434 75 668.39 74.9561 668.39 74.8682V68.3818C668.39 68.2939 668.434 68.25 668.522 68.25H669.471C669.559 68.25 669.603 68.2939 669.603 68.3818V74.8682C669.603 74.9561 669.559 75 669.471 75ZM673.143 75C673.09 75 673.052 74.9736 673.031 74.9209L670.493 68.3555C670.466 68.2852 670.49 68.25 670.565 68.25H671.653C671.71 68.25 671.743 68.2764 671.752 68.3291L673.868 74.0574L675.977 68.3291C675.999 68.2764 676.03 68.25 676.069 68.25H677.164C677.234 68.25 677.256 68.2852 677.229 68.3555L674.692 74.9209C674.67 74.9736 674.635 75 674.586 75H673.143ZM683.656 68.25C683.744 68.25 683.788 68.2939 683.788 68.3818V74.8682C683.788 74.9561 683.744 75 683.656 75H682.707C682.619 75 682.575 74.9561 682.575 74.8682L682.615 73.8794C682.466 74.2969 682.217 74.6111 681.87 74.822C681.527 75.0286 681.033 75.1318 680.387 75.1318C679.517 75.1318 678.82 74.8242 678.297 74.209C677.774 73.5938 677.513 72.7544 677.513 71.6909C677.513 70.6187 677.772 69.7551 678.291 69.1003C678.814 68.4456 679.512 68.1182 680.387 68.1182C681.033 68.1182 681.53 68.2324 681.877 68.4609C682.228 68.6851 682.474 69.0234 682.615 69.4761L682.575 68.3818C682.575 68.2939 682.619 68.25 682.707 68.25H683.656ZM680.657 74.1892C681.303 74.1892 681.784 73.9739 682.101 73.5432C682.417 73.1125 682.575 72.4951 682.575 71.6909C682.575 70.8735 682.415 70.2319 682.094 69.7661C681.778 69.2959 681.299 69.0608 680.657 69.0608C680.011 69.0608 679.528 69.2959 679.207 69.7661C678.886 70.2319 678.726 70.8735 678.726 71.6909C678.726 73.3564 679.37 74.1892 680.657 74.1892ZM689.029 69.1926L687.163 69.1267V73.5168C687.163 73.6443 687.198 73.7432 687.269 73.8135C687.344 73.8838 687.445 73.9189 687.572 73.9189H689.029C689.117 73.9189 689.161 73.9651 689.161 74.0574V74.8682C689.161 74.9561 689.117 75 689.029 75H687.704C687.172 75 686.746 74.8418 686.425 74.5254C686.109 74.209 685.95 73.7827 685.95 73.2466V69.1267L685.001 69.1926C684.913 69.1926 684.869 69.1487 684.869 69.0608V68.3818C684.869 68.2939 684.913 68.25 685.001 68.25L685.95 68.3159V66.7668C685.95 66.6746 685.994 66.6284 686.082 66.6284H687.031C687.119 66.6284 687.163 66.6746 687.163 66.7668V68.3159L689.029 68.25C689.117 68.25 689.161 68.2939 689.161 68.3818V69.0608C689.161 69.1487 689.117 69.1926 689.029 69.1926ZM695.772 72.4226C695.816 72.4226 695.849 72.4358 695.871 72.4622C695.897 72.4885 695.904 72.5237 695.891 72.5676C695.755 73.3762 695.425 74.0068 694.902 74.4595C694.379 74.9077 693.694 75.1318 692.845 75.1318C691.852 75.1318 691.079 74.8286 690.525 74.2222C689.971 73.6113 689.695 72.7676 689.695 71.6909C689.695 70.6055 689.971 69.7397 690.525 69.0938C691.079 68.4434 691.852 68.1182 692.845 68.1182C693.803 68.1182 694.551 68.4412 695.087 69.0872C695.623 69.7288 695.891 70.5791 695.891 71.6382C695.891 71.7393 695.851 71.7898 695.772 71.7898H690.914C690.927 72.6072 691.085 73.2114 691.389 73.6025C691.692 73.9937 692.177 74.1892 692.845 74.1892C693.878 74.1892 694.493 73.6399 694.691 72.5413C694.704 72.4622 694.75 72.4226 694.83 72.4226H695.772ZM692.845 69.0608C691.778 69.0608 691.151 69.6541 690.967 70.8406H694.546C694.546 70.6121 694.52 70.4011 694.467 70.2078C694.414 70.01 694.326 69.821 694.203 69.6409C694.085 69.4607 693.909 69.3201 693.676 69.219C693.443 69.1135 693.166 69.0608 692.845 69.0608ZM707.69 75.1318C708.354 75.1318 708.962 75.0066 709.516 74.7561C710.07 74.5012 710.511 74.1519 710.841 73.708C711.175 73.2598 711.353 72.7632 711.375 72.2183C711.388 71.9019 711.357 71.6184 711.283 71.3679C711.212 71.1174 711.096 70.9021 710.933 70.7219C710.771 70.5374 710.588 70.3792 710.386 70.2473C710.188 70.1155 709.942 70.0012 709.648 69.9045C709.358 69.8079 709.072 69.7288 708.791 69.6672C708.514 69.6057 708.187 69.5464 707.809 69.4893C707.532 69.4409 707.31 69.3992 707.143 69.364C706.976 69.3289 706.792 69.2849 706.589 69.2322C706.392 69.175 706.236 69.1157 706.121 69.0542C706.007 68.9927 705.897 68.918 705.792 68.8301C705.686 68.7378 705.612 68.6323 705.568 68.5137C705.524 68.3906 705.502 68.2522 705.502 68.0984C705.502 67.6282 705.699 67.2437 706.095 66.9448C706.49 66.646 707.022 66.4966 707.69 66.4966C708.349 66.4966 708.87 66.6482 709.252 66.9514C709.635 67.2546 709.841 67.6831 709.872 68.2368C709.872 68.3247 709.918 68.3687 710.01 68.3687H710.953C711.045 68.3687 711.092 68.3247 711.092 68.2368C711.07 67.6743 710.9 67.1755 710.584 66.7405C710.268 66.3054 709.857 65.9758 709.351 65.7517C708.846 65.5276 708.292 65.4155 707.69 65.4155C706.741 65.4155 705.946 65.6704 705.304 66.1802C704.662 66.6899 704.324 67.3293 704.289 68.0984C704.276 68.3445 704.295 68.5708 704.348 68.7773C704.405 68.9795 704.48 69.1553 704.572 69.3047C704.669 69.4497 704.801 69.5837 704.968 69.7068C705.139 69.8254 705.308 69.9265 705.475 70.01C705.642 70.0891 705.853 70.1638 706.108 70.2341C706.367 70.3044 706.603 70.3616 706.813 70.4055C707.029 70.4451 707.292 70.4912 707.604 70.5439C708.554 70.7021 709.215 70.8933 709.589 71.1174C709.967 71.3416 710.156 71.7085 710.156 72.2183C710.156 72.7544 709.942 73.196 709.516 73.5432C709.094 73.886 708.486 74.0574 707.69 74.0574C706.996 74.0574 706.416 73.8684 705.95 73.4905C705.489 73.1082 705.24 72.6401 705.205 72.0864C705.205 71.9941 705.155 71.948 705.053 71.948H704.124C704.032 71.948 703.986 71.9897 703.986 72.0732C704.008 72.6841 704.192 73.2268 704.539 73.7014C704.886 74.1716 705.335 74.5276 705.884 74.7693C706.433 75.011 707.035 75.1318 707.69 75.1318ZM718.145 68.25C718.233 68.25 718.277 68.2939 718.277 68.3818V74.8682C718.277 74.9561 718.233 75 718.145 75H717.196C717.108 75 717.064 74.9561 717.064 74.8682L717.103 73.8794C716.954 74.2969 716.706 74.6111 716.358 74.822C716.016 75.0286 715.521 75.1318 714.875 75.1318C714.005 75.1318 713.309 74.8242 712.786 74.209C712.263 73.5938 712.001 72.7544 712.001 71.6909C712.001 70.6187 712.26 69.7551 712.779 69.1003C713.302 68.4456 714.001 68.1182 714.875 68.1182C715.521 68.1182 716.018 68.2324 716.365 68.4609C716.717 68.6851 716.963 69.0234 717.103 69.4761L717.064 68.3818C717.064 68.2939 717.108 68.25 717.196 68.25H718.145ZM715.146 74.1892C715.792 74.1892 716.273 73.9739 716.589 73.5432C716.906 73.1125 717.064 72.4951 717.064 71.6909C717.064 70.8735 716.903 70.2319 716.583 69.7661C716.266 69.2959 715.787 69.0608 715.146 69.0608C714.5 69.0608 714.016 69.2959 713.695 69.7661C713.375 70.2319 713.214 70.8735 713.214 71.6909C713.214 73.3564 713.858 74.1892 715.146 74.1892ZM720.979 75H720.03C719.942 75 719.898 74.9561 719.898 74.8682V65.6858C719.898 65.5935 719.942 65.5474 720.03 65.5474H720.979C721.067 65.5474 721.111 65.5935 721.111 65.6858V74.8682C721.111 74.9561 721.067 75 720.979 75ZM728.402 72.4226C728.446 72.4226 728.479 72.4358 728.5 72.4622C728.527 72.4885 728.533 72.5237 728.52 72.5676C728.384 73.3762 728.054 74.0068 727.531 74.4595C727.009 74.9077 726.323 75.1318 725.475 75.1318C724.482 75.1318 723.708 74.8286 723.155 74.2222C722.601 73.6113 722.324 72.7676 722.324 71.6909C722.324 70.6055 722.601 69.7397 723.155 69.0938C723.708 68.4434 724.482 68.1182 725.475 68.1182C726.433 68.1182 727.18 68.4412 727.716 69.0872C728.252 69.7288 728.52 70.5791 728.52 71.6382C728.52 71.7393 728.481 71.7898 728.402 71.7898H723.543C723.557 72.6072 723.715 73.2114 724.018 73.6025C724.321 73.9937 724.807 74.1892 725.475 74.1892C726.508 74.1892 727.123 73.6399 727.321 72.5413C727.334 72.4622 727.38 72.4226 727.459 72.4226H728.402ZM725.475 69.0608C724.407 69.0608 723.781 69.6541 723.596 70.8406H727.176C727.176 70.6121 727.149 70.4011 727.096 70.2078C727.044 70.01 726.956 69.821 726.833 69.6409C726.714 69.4607 726.538 69.3201 726.305 69.219C726.073 69.1135 725.796 69.0608 725.475 69.0608ZM732.001 75.1318C732.48 75.1318 732.928 75.0417 733.345 74.8616C733.763 74.677 734.104 74.4243 734.367 74.1035C734.631 73.7783 734.774 73.4202 734.796 73.0291C734.809 72.761 734.769 72.5193 734.677 72.304C734.589 72.0886 734.464 71.9106 734.301 71.77C734.143 71.625 733.939 71.4976 733.688 71.3877C733.442 71.2778 733.192 71.1921 732.937 71.1306C732.686 71.0691 732.401 71.0142 732.08 70.9658C731.834 70.9307 731.649 70.9021 731.526 70.8801C731.407 70.8538 731.276 70.8186 731.131 70.7747C730.99 70.7307 730.889 70.6802 730.827 70.623C730.766 70.5615 730.713 70.4846 730.669 70.3923C730.63 70.2957 730.61 70.1792 730.61 70.043C730.61 69.7705 730.737 69.5376 730.992 69.3442C731.247 69.1465 731.583 69.0476 732.001 69.0476C732.405 69.0476 732.726 69.1509 732.963 69.3574C733.205 69.5596 733.343 69.8474 733.378 70.2209C733.378 70.2825 733.414 70.3132 733.484 70.3132H734.499C734.561 70.3132 734.591 70.2825 734.591 70.2209C734.561 69.5793 734.29 69.0652 733.781 68.6785C733.275 68.2917 732.682 68.0984 732.001 68.0984C731.306 68.0984 730.707 68.2852 730.201 68.6587C729.696 69.0278 729.428 69.4893 729.397 70.043C729.379 70.3506 729.434 70.623 729.562 70.8604C729.689 71.0933 729.88 71.2844 730.135 71.4338C730.39 71.5833 730.66 71.7041 730.946 71.7964C731.236 71.8887 731.57 71.9656 731.948 72.0271C732.612 72.1414 733.049 72.26 733.26 72.3831C733.475 72.5061 733.583 72.7214 733.583 73.0291C733.583 73.3455 733.455 73.6179 733.2 73.8464C732.95 74.075 732.55 74.1892 732.001 74.1892C731.509 74.1892 731.128 74.064 730.86 73.8135C730.592 73.5586 730.441 73.2378 730.406 72.8511C730.406 72.7896 730.37 72.7588 730.3 72.7588H729.285C729.223 72.7588 729.193 72.7852 729.193 72.8379C729.215 73.3037 729.362 73.7146 729.634 74.0706C729.907 74.4221 730.25 74.688 730.663 74.8682C731.08 75.0439 731.526 75.1318 732.001 75.1318ZM707.117 84.1182V83.1689C707.117 83.0811 707.163 83.0371 707.255 83.0371H709.51C709.597 83.0371 709.641 82.991 709.641 82.8987V81.6858C709.641 81.6462 709.655 81.6133 709.681 81.5869C709.707 81.5605 709.74 81.5474 709.78 81.5474H710.722C710.81 81.5474 710.854 81.5935 710.854 81.6858V90.8682C710.854 90.9561 710.81 91 710.722 91H709.78C709.688 91 709.641 90.9561 709.641 90.8682V84.3818C709.641 84.2939 709.597 84.25 709.51 84.25H707.255C707.163 84.25 707.117 84.2061 707.117 84.1182ZM712.126 88.9763C712.039 88.9763 711.995 88.9302 711.995 88.8379V87.9875C711.995 87.9436 712.012 87.8865 712.047 87.8162L716.161 81.6331C716.205 81.5759 716.26 81.5474 716.325 81.5474H717.294C717.334 81.5474 717.367 81.5605 717.393 81.5869C717.42 81.6133 717.433 81.6462 717.433 81.6858V87.8953H718.89C718.982 87.8953 719.028 87.9392 719.028 88.0271V88.8379C719.028 88.8774 719.015 88.9104 718.989 88.9368C718.962 88.9631 718.929 88.9763 718.89 88.9763H717.433V90.8682C717.433 90.9561 717.387 91 717.294 91H716.352C716.264 91 716.22 90.9561 716.22 90.8682V88.9763H712.126ZM713.273 87.8953H716.22V83.4524L713.273 87.8953ZM727.386 86.0232C727.044 86.5066 726.545 86.7483 725.89 86.7483C725.235 86.7483 724.734 86.5066 724.387 86.0232C724.04 85.5398 723.866 84.8938 723.866 84.0852C723.866 83.2722 724.038 82.624 724.381 82.1406C724.723 81.6572 725.227 81.4155 725.89 81.4155C726.541 81.4155 727.037 81.6572 727.38 82.1406C727.727 82.6196 727.901 83.2678 727.901 84.0852C727.901 84.8938 727.729 85.5398 727.386 86.0232ZM731.262 81.6462C731.302 81.5803 731.35 81.5474 731.407 81.5474H732.383C732.431 81.5474 732.467 81.5627 732.489 81.5935C732.51 81.6243 732.51 81.6638 732.489 81.7122L726.859 90.9077C726.824 90.9692 726.776 91 726.714 91H725.739C725.69 91 725.655 90.9846 725.633 90.9539C725.611 90.9231 725.611 90.8835 725.633 90.8352L731.262 81.6462ZM725.89 85.9375C726.25 85.9375 726.519 85.7617 726.694 85.4102C726.87 85.0542 726.958 84.6125 726.958 84.0852C726.958 83.5535 726.87 83.1118 726.694 82.7603C726.519 82.4043 726.25 82.2263 725.89 82.2263C725.64 82.2263 725.431 82.3164 725.264 82.4966C725.097 82.6768 724.978 82.9009 724.908 83.1689C724.842 83.437 724.809 83.7424 724.809 84.0852C724.809 84.6125 724.897 85.0542 725.073 85.4102C725.253 85.7617 725.525 85.9375 725.89 85.9375ZM732.245 91.1318C731.585 91.1318 731.082 90.8923 730.735 90.4133C730.392 89.9299 730.221 89.2839 730.221 88.4753C730.221 87.6624 730.392 87.0142 730.735 86.5308C731.078 86.0474 731.581 85.8057 732.245 85.8057C732.895 85.8057 733.394 86.0474 733.741 86.5308C734.088 87.0142 734.262 87.6624 734.262 88.4753C734.262 89.2795 734.088 89.9233 733.741 90.4067C733.398 90.8901 732.899 91.1318 732.245 91.1318ZM732.245 90.3276C732.609 90.3276 732.877 90.1519 733.049 89.8003C733.225 89.4487 733.312 89.0071 733.312 88.4753C733.312 87.9392 733.225 87.4954 733.049 87.1438C732.877 86.7878 732.609 86.6099 732.245 86.6099C731.99 86.6099 731.779 86.7021 731.612 86.8867C731.449 87.0669 731.335 87.291 731.269 87.5591C731.203 87.8271 731.17 88.1326 731.17 88.4753C731.17 88.8181 731.203 89.1213 731.269 89.385C731.335 89.6487 731.449 89.8728 731.612 90.0574C731.779 90.2375 731.99 90.3276 732.245 90.3276Z" fill="#5551FF"/>
<g filter="url(#filter2_d)">
<rect x="292" y="237" width="175" height="45" rx="6" fill="white"/>
<rect x="292.5" y="237.5" width="174" height="44" rx="5.5" stroke="#5551FF"/>
</g>
<path d="M335.853 247.686C335.853 247.646 335.866 247.613 335.893 247.587C335.919 247.561 335.952 247.547 335.992 247.547H336.948C337.035 247.547 337.079 247.594 337.079 247.686V256.868C337.079 256.956 337.035 257 336.948 257H335.992C335.899 257 335.853 256.956 335.853 256.868V247.686ZM338.767 256.868V250.382C338.767 250.294 338.811 250.25 338.899 250.25H339.848C339.936 250.25 339.98 250.294 339.98 250.382L339.901 251.522C340.05 251.078 340.318 250.733 340.705 250.487C341.096 250.241 341.584 250.118 342.168 250.118C342.656 250.118 343.069 250.202 343.407 250.369C343.75 250.531 344.018 250.773 344.212 251.094C344.405 251.415 344.543 251.779 344.627 252.188C344.715 252.597 344.763 253.076 344.772 253.625V256.868C344.772 256.956 344.728 257 344.64 257H343.678C343.59 257 343.546 256.956 343.546 256.868L343.559 253.625C343.563 252.68 343.436 252.017 343.177 251.634C342.922 251.252 342.487 251.061 341.872 251.061C341.256 251.061 340.788 251.259 340.468 251.654C340.147 252.045 339.984 252.702 339.98 253.625V256.868C339.98 256.956 339.936 257 339.848 257H338.899C338.811 257 338.767 256.956 338.767 256.868ZM350.988 254.541C351.001 254.462 351.047 254.423 351.126 254.423H352.069C352.113 254.423 352.146 254.436 352.168 254.462C352.194 254.489 352.201 254.524 352.188 254.568C352.052 255.376 351.722 256.007 351.199 256.459C350.676 256.908 349.99 257.132 349.142 257.132C348.149 257.132 347.376 256.829 346.822 256.222C346.268 255.611 345.991 254.768 345.991 253.691C345.991 252.605 346.268 251.74 346.822 251.094C347.376 250.443 348.149 250.118 349.142 250.118C349.955 250.118 350.623 250.347 351.146 250.804C351.674 251.261 352.016 251.891 352.175 252.696C352.188 252.792 352.148 252.841 352.056 252.841H351.113C351.025 252.841 350.975 252.801 350.962 252.722C350.729 251.615 350.122 251.061 349.142 251.061C348.496 251.061 348.013 251.296 347.692 251.766C347.371 252.232 347.211 252.874 347.211 253.691C347.211 255.356 347.855 256.189 349.142 256.189C350.175 256.189 350.79 255.64 350.988 254.541ZM359.004 254.423C359.048 254.423 359.081 254.436 359.103 254.462C359.129 254.489 359.135 254.524 359.122 254.568C358.986 255.376 358.656 256.007 358.134 256.459C357.611 256.908 356.925 257.132 356.077 257.132C355.084 257.132 354.31 256.829 353.757 256.222C353.203 255.611 352.926 254.768 352.926 253.691C352.926 252.605 353.203 251.74 353.757 251.094C354.31 250.443 355.084 250.118 356.077 250.118C357.035 250.118 357.782 250.441 358.318 251.087C358.854 251.729 359.122 252.579 359.122 253.638C359.122 253.739 359.083 253.79 359.004 253.79H354.146C354.159 254.607 354.317 255.211 354.62 255.603C354.923 255.994 355.409 256.189 356.077 256.189C357.11 256.189 357.725 255.64 357.923 254.541C357.936 254.462 357.982 254.423 358.061 254.423H359.004ZM356.077 251.061C355.009 251.061 354.383 251.654 354.198 252.841H357.778C357.778 252.612 357.751 252.401 357.698 252.208C357.646 252.01 357.558 251.821 357.435 251.641C357.316 251.461 357.14 251.32 356.907 251.219C356.675 251.114 356.398 251.061 356.077 251.061ZM360.335 256.868V250.382C360.335 250.294 360.379 250.25 360.467 250.25H361.416C361.504 250.25 361.548 250.294 361.548 250.382L361.469 251.522C361.618 251.078 361.886 250.733 362.273 250.487C362.664 250.241 363.152 250.118 363.737 250.118C364.224 250.118 364.637 250.202 364.976 250.369C365.319 250.531 365.587 250.773 365.78 251.094C365.973 251.415 366.112 251.779 366.195 252.188C366.283 252.597 366.332 253.076 366.34 253.625V256.868C366.34 256.956 366.296 257 366.208 257H365.246C365.158 257 365.114 256.956 365.114 256.868L365.127 253.625C365.132 252.68 365.004 252.017 364.745 251.634C364.49 251.252 364.055 251.061 363.44 251.061C362.825 251.061 362.357 251.259 362.036 251.654C361.715 252.045 361.552 252.702 361.548 253.625V256.868C361.548 256.956 361.504 257 361.416 257H360.467C360.379 257 360.335 256.956 360.335 256.868ZM371.587 251.193L369.722 251.127V255.517C369.722 255.644 369.757 255.743 369.827 255.813C369.902 255.884 370.003 255.919 370.131 255.919H371.587C371.675 255.919 371.719 255.965 371.719 256.057V256.868C371.719 256.956 371.675 257 371.587 257H370.262C369.731 257 369.304 256.842 368.984 256.525C368.667 256.209 368.509 255.783 368.509 255.247V251.127L367.56 251.193C367.472 251.193 367.428 251.149 367.428 251.061V250.382C367.428 250.294 367.472 250.25 367.56 250.25L368.509 250.316V248.767C368.509 248.675 368.553 248.628 368.641 248.628H369.59C369.678 248.628 369.722 248.675 369.722 248.767V250.316L371.587 250.25C371.675 250.25 371.719 250.294 371.719 250.382V251.061C371.719 251.149 371.675 251.193 371.587 251.193ZM372.523 247.686C372.523 247.646 372.537 247.613 372.563 247.587C372.589 247.561 372.622 247.547 372.662 247.547H373.875C373.914 247.547 373.947 247.561 373.974 247.587C374 247.613 374.013 247.646 374.013 247.686V248.899C374.013 248.938 374 248.971 373.974 248.998C373.947 249.024 373.914 249.037 373.875 249.037H372.662C372.622 249.037 372.589 249.024 372.563 248.998C372.537 248.971 372.523 248.938 372.523 248.899V247.686ZM373.743 257H372.794C372.706 257 372.662 256.956 372.662 256.868V250.382C372.662 250.294 372.706 250.25 372.794 250.25H373.743C373.831 250.25 373.875 250.294 373.875 250.382V256.868C373.875 256.956 373.831 257 373.743 257ZM377.415 257C377.362 257 377.324 256.974 377.302 256.921L374.765 250.355C374.738 250.285 374.762 250.25 374.837 250.25H375.925C375.982 250.25 376.015 250.276 376.024 250.329L378.14 256.057L380.249 250.329C380.271 250.276 380.302 250.25 380.341 250.25H381.436C381.506 250.25 381.528 250.285 381.501 250.355L378.964 256.921C378.942 256.974 378.906 257 378.858 257H377.415ZM387.783 254.423C387.827 254.423 387.86 254.436 387.882 254.462C387.909 254.489 387.915 254.524 387.902 254.568C387.766 255.376 387.436 256.007 386.913 256.459C386.39 256.908 385.705 257.132 384.857 257.132C383.864 257.132 383.09 256.829 382.536 256.222C381.983 255.611 381.706 254.768 381.706 253.691C381.706 252.605 381.983 251.74 382.536 251.094C383.09 250.443 383.864 250.118 384.857 250.118C385.815 250.118 386.562 250.441 387.098 251.087C387.634 251.729 387.902 252.579 387.902 253.638C387.902 253.739 387.863 253.79 387.783 253.79H382.925C382.938 254.607 383.097 255.211 383.4 255.603C383.703 255.994 384.189 256.189 384.857 256.189C385.889 256.189 386.505 255.64 386.702 254.541C386.716 254.462 386.762 254.423 386.841 254.423H387.783ZM384.857 251.061C383.789 251.061 383.163 251.654 382.978 252.841H386.557C386.557 252.612 386.531 252.401 386.478 252.208C386.426 252.01 386.338 251.821 386.215 251.641C386.096 251.461 385.92 251.32 385.687 251.219C385.454 251.114 385.177 251.061 384.857 251.061ZM391.383 257.132C391.862 257.132 392.31 257.042 392.727 256.862C393.145 256.677 393.485 256.424 393.749 256.104C394.013 255.778 394.156 255.42 394.177 255.029C394.191 254.761 394.151 254.519 394.059 254.304C393.971 254.089 393.846 253.911 393.683 253.77C393.525 253.625 393.321 253.498 393.07 253.388C392.824 253.278 392.573 253.192 392.319 253.131C392.068 253.069 391.782 253.014 391.462 252.966C391.216 252.931 391.031 252.902 390.908 252.88C390.789 252.854 390.657 252.819 390.512 252.775C390.372 252.731 390.271 252.68 390.209 252.623C390.148 252.562 390.095 252.485 390.051 252.392C390.011 252.296 389.992 252.179 389.992 252.043C389.992 251.771 390.119 251.538 390.374 251.344C390.629 251.146 390.965 251.048 391.383 251.048C391.787 251.048 392.108 251.151 392.345 251.357C392.587 251.56 392.725 251.847 392.76 252.221C392.76 252.282 392.795 252.313 392.866 252.313H393.881C393.942 252.313 393.973 252.282 393.973 252.221C393.942 251.579 393.672 251.065 393.162 250.678C392.657 250.292 392.064 250.098 391.383 250.098C390.688 250.098 390.088 250.285 389.583 250.659C389.078 251.028 388.81 251.489 388.779 252.043C388.761 252.351 388.816 252.623 388.944 252.86C389.071 253.093 389.262 253.284 389.517 253.434C389.772 253.583 390.042 253.704 390.328 253.796C390.618 253.889 390.952 253.966 391.33 254.027C391.993 254.141 392.431 254.26 392.642 254.383C392.857 254.506 392.965 254.721 392.965 255.029C392.965 255.345 392.837 255.618 392.582 255.846C392.332 256.075 391.932 256.189 391.383 256.189C390.89 256.189 390.51 256.064 390.242 255.813C389.974 255.559 389.823 255.238 389.787 254.851C389.787 254.79 389.752 254.759 389.682 254.759H388.667C388.605 254.759 388.574 254.785 388.574 254.838C388.596 255.304 388.744 255.715 389.016 256.071C389.289 256.422 389.631 256.688 390.044 256.868C390.462 257.044 390.908 257.132 391.383 257.132ZM400.993 248.628C400.866 248.628 400.765 248.666 400.69 248.74C400.62 248.811 400.585 248.91 400.585 249.037V250.316L402.582 250.25C402.674 250.25 402.72 250.294 402.72 250.382V251.061C402.72 251.149 402.674 251.193 402.582 251.193L400.585 251.127V256.868C400.585 256.956 400.541 257 400.453 257H399.504C399.416 257 399.372 256.956 399.372 256.868V251.127L398.423 251.193C398.335 251.193 398.291 251.149 398.291 251.061V250.382C398.291 250.294 398.335 250.25 398.423 250.25L399.372 250.316V249.307C399.372 248.771 399.53 248.345 399.846 248.029C400.167 247.708 400.594 247.547 401.125 247.547H402.582C402.622 247.547 402.655 247.561 402.681 247.587C402.707 247.613 402.72 247.646 402.72 247.686V248.497C402.72 248.584 402.674 248.628 402.582 248.628H400.993ZM406.333 257.132C407.33 257.132 408.102 256.826 408.646 256.216C409.191 255.605 409.464 254.763 409.464 253.691C409.464 252.601 409.187 251.733 408.633 251.087C408.08 250.441 407.313 250.118 406.333 250.118C405.34 250.118 404.566 250.443 404.012 251.094C403.459 251.74 403.182 252.605 403.182 253.691C403.182 254.768 403.459 255.611 404.012 256.222C404.566 256.829 405.34 257.132 406.333 257.132ZM406.333 251.061C406.974 251.061 407.453 251.296 407.77 251.766C408.086 252.232 408.244 252.874 408.244 253.691C408.244 255.356 407.607 256.189 406.333 256.189C405.045 256.189 404.401 255.356 404.401 253.691C404.401 252.874 404.562 252.232 404.883 251.766C405.203 251.296 405.687 251.061 406.333 251.061ZM410.683 256.868V250.382C410.683 250.294 410.727 250.25 410.815 250.25H411.764C411.852 250.25 411.896 250.294 411.896 250.382L411.817 251.502C411.949 251.067 412.169 250.751 412.476 250.553C412.788 250.351 413.234 250.25 413.814 250.25H414.52C414.608 250.25 414.652 250.294 414.652 250.382V251.061C414.652 251.149 414.608 251.193 414.52 251.193H413.814C413.173 251.193 412.694 251.404 412.377 251.825C412.065 252.243 411.905 252.843 411.896 253.625V256.868C411.896 256.956 411.852 257 411.764 257H410.815C410.727 257 410.683 256.956 410.683 256.868ZM419.378 257C419.286 257 419.24 256.956 419.24 256.868V247.686C419.24 247.646 419.253 247.613 419.279 247.587C419.305 247.561 419.338 247.547 419.378 247.547H420.485C420.556 247.547 420.608 247.58 420.644 247.646L425.245 254.798L425.218 247.686C425.218 247.646 425.231 247.613 425.258 247.587C425.284 247.561 425.317 247.547 425.357 247.547H426.326C426.365 247.547 426.398 247.561 426.425 247.587C426.451 247.613 426.464 247.646 426.464 247.686V256.868C426.464 256.956 426.418 257 426.326 257H425.218C425.144 257 425.091 256.969 425.06 256.908L420.452 249.736V256.868C420.452 256.956 420.408 257 420.321 257H419.378ZM430.894 257.132C431.891 257.132 432.663 256.826 433.208 256.216C433.752 255.605 434.025 254.763 434.025 253.691C434.025 252.601 433.748 251.733 433.194 251.087C432.641 250.441 431.874 250.118 430.894 250.118C429.901 250.118 429.127 250.443 428.573 251.094C428.02 251.74 427.743 252.605 427.743 253.691C427.743 254.768 428.02 255.611 428.573 256.222C429.127 256.829 429.901 257.132 430.894 257.132ZM430.894 251.061C431.535 251.061 432.014 251.296 432.331 251.766C432.647 252.232 432.805 252.874 432.805 253.691C432.805 255.356 432.168 256.189 430.894 256.189C429.606 256.189 428.962 255.356 428.962 253.691C428.962 252.874 429.123 252.232 429.444 251.766C429.764 251.296 430.248 251.061 430.894 251.061ZM440.979 247.547C441.019 247.547 441.052 247.561 441.078 247.587C441.104 247.613 441.118 247.646 441.118 247.686V256.868C441.118 256.956 441.072 257 440.979 257H440.037C439.944 257 439.898 256.956 439.898 256.868L439.944 255.879C439.795 256.297 439.547 256.611 439.199 256.822C438.857 257.029 438.362 257.132 437.716 257.132C436.846 257.132 436.147 256.824 435.62 256.209C435.097 255.594 434.836 254.754 434.836 253.691C434.836 252.619 435.097 251.755 435.62 251.1C436.143 250.446 436.842 250.118 437.716 250.118C438.393 250.118 438.907 250.246 439.259 250.5C439.615 250.755 439.861 251.131 439.997 251.628L439.898 247.686C439.898 247.646 439.911 247.613 439.938 247.587C439.964 247.561 439.997 247.547 440.037 247.547H440.979ZM437.987 256.189C439.261 256.189 439.898 255.356 439.898 253.691C439.898 252.874 439.74 252.232 439.424 251.766C439.107 251.296 438.628 251.061 437.987 251.061C437.341 251.061 436.857 251.296 436.536 251.766C436.216 252.232 436.055 252.874 436.055 253.691C436.055 255.356 436.699 256.189 437.987 256.189ZM448.402 254.423C448.446 254.423 448.479 254.436 448.5 254.462C448.527 254.489 448.533 254.524 448.52 254.568C448.384 255.376 448.054 256.007 447.531 256.459C447.009 256.908 446.323 257.132 445.475 257.132C444.482 257.132 443.708 256.829 443.155 256.222C442.601 255.611 442.324 254.768 442.324 253.691C442.324 252.605 442.601 251.74 443.155 251.094C443.708 250.443 444.482 250.118 445.475 250.118C446.433 250.118 447.18 250.441 447.716 251.087C448.252 251.729 448.52 252.579 448.52 253.638C448.52 253.739 448.481 253.79 448.402 253.79H443.543C443.557 254.607 443.715 255.211 444.018 255.603C444.321 255.994 444.807 256.189 445.475 256.189C446.508 256.189 447.123 255.64 447.321 254.541C447.334 254.462 447.38 254.423 447.459 254.423H448.402ZM445.475 251.061C444.407 251.061 443.781 251.654 443.596 252.841H447.176C447.176 252.612 447.149 252.401 447.096 252.208C447.044 252.01 446.956 251.821 446.833 251.641C446.714 251.461 446.538 251.32 446.305 251.219C446.073 251.114 445.796 251.061 445.475 251.061ZM452.001 257.132C452.48 257.132 452.928 257.042 453.345 256.862C453.763 256.677 454.104 256.424 454.367 256.104C454.631 255.778 454.774 255.42 454.796 255.029C454.809 254.761 454.769 254.519 454.677 254.304C454.589 254.089 454.464 253.911 454.301 253.77C454.143 253.625 453.939 253.498 453.688 253.388C453.442 253.278 453.192 253.192 452.937 253.131C452.686 253.069 452.401 253.014 452.08 252.966C451.834 252.931 451.649 252.902 451.526 252.88C451.407 252.854 451.276 252.819 451.131 252.775C450.99 252.731 450.889 252.68 450.827 252.623C450.766 252.562 450.713 252.485 450.669 252.392C450.63 252.296 450.61 252.179 450.61 252.043C450.61 251.771 450.737 251.538 450.992 251.344C451.247 251.146 451.583 251.048 452.001 251.048C452.405 251.048 452.726 251.151 452.963 251.357C453.205 251.56 453.343 251.847 453.378 252.221C453.378 252.282 453.414 252.313 453.484 252.313H454.499C454.561 252.313 454.591 252.282 454.591 252.221C454.561 251.579 454.29 251.065 453.781 250.678C453.275 250.292 452.682 250.098 452.001 250.098C451.306 250.098 450.707 250.285 450.201 250.659C449.696 251.028 449.428 251.489 449.397 252.043C449.379 252.351 449.434 252.623 449.562 252.86C449.689 253.093 449.88 253.284 450.135 253.434C450.39 253.583 450.66 253.704 450.946 253.796C451.236 253.889 451.57 253.966 451.948 254.027C452.612 254.141 453.049 254.26 453.26 254.383C453.475 254.506 453.583 254.721 453.583 255.029C453.583 255.345 453.455 255.618 453.2 255.846C452.95 256.075 452.55 256.189 452.001 256.189C451.509 256.189 451.128 256.064 450.86 255.813C450.592 255.559 450.441 255.238 450.406 254.851C450.406 254.79 450.37 254.759 450.3 254.759H449.285C449.223 254.759 449.193 254.785 449.193 254.838C449.215 255.304 449.362 255.715 449.634 256.071C449.907 256.422 450.25 256.688 450.663 256.868C451.08 257.044 451.526 257.132 452.001 257.132ZM430.472 266.25C431.364 266.25 432.094 266.575 432.66 267.226C433.227 267.876 433.511 268.676 433.511 269.625C433.511 270.245 433.372 270.823 433.095 271.359C432.823 271.89 432.43 272.319 431.916 272.644C431.406 272.969 430.834 273.132 430.202 273.132C429.433 273.132 428.767 272.899 428.204 272.433C427.646 271.967 427.26 271.37 427.044 270.64C427.022 270.57 427.053 270.519 427.136 270.489L428.066 270.245C428.145 270.218 428.2 270.251 428.231 270.344C428.385 270.831 428.633 271.24 428.976 271.57C429.318 271.895 429.727 272.057 430.202 272.057C430.83 272.057 431.335 271.824 431.718 271.359C432.1 270.893 432.291 270.315 432.291 269.625C432.291 268.966 432.087 268.417 431.678 267.977C431.274 267.538 430.782 267.318 430.202 267.318C429.775 267.318 429.4 267.469 429.074 267.773C428.749 268.072 428.512 268.456 428.363 268.926H427.407C427.367 268.926 427.334 268.911 427.308 268.88C427.281 268.849 427.271 268.814 427.275 268.775L427.974 263.673C427.987 263.589 428.033 263.547 428.112 263.547H432.792C432.832 263.547 432.865 263.561 432.891 263.587C432.917 263.613 432.931 263.646 432.931 263.686V264.497C432.931 264.584 432.885 264.628 432.792 264.628H428.949L428.633 266.909C429.099 266.47 429.712 266.25 430.472 266.25ZM438.705 273.132C439.509 273.132 440.19 272.921 440.749 272.499C441.311 272.073 441.724 271.501 441.988 270.785C442.256 270.064 442.39 269.227 442.39 268.274C442.39 267.316 442.254 266.476 441.981 265.756C441.713 265.035 441.298 264.466 440.735 264.048C440.177 263.626 439.5 263.416 438.705 263.416C437.896 263.416 437.211 263.626 436.648 264.048C436.086 264.47 435.671 265.042 435.403 265.762C435.139 266.479 435.007 267.316 435.007 268.274C435.007 269.236 435.141 270.078 435.409 270.798C435.682 271.519 436.099 272.088 436.662 272.506C437.224 272.923 437.905 273.132 438.705 273.132ZM438.705 264.497C439.14 264.497 439.518 264.589 439.839 264.773C440.16 264.954 440.417 265.215 440.61 265.558C440.803 265.901 440.946 266.298 441.039 266.751C441.131 267.199 441.177 267.707 441.177 268.274C441.177 268.841 441.131 269.35 441.039 269.803C440.946 270.256 440.803 270.653 440.61 270.996C440.417 271.334 440.16 271.596 439.839 271.781C439.518 271.965 439.14 272.057 438.705 272.057C438.266 272.057 437.883 271.965 437.558 271.781C437.237 271.596 436.98 271.334 436.787 270.996C436.594 270.653 436.451 270.256 436.358 269.803C436.266 269.35 436.22 268.841 436.22 268.274C436.22 267.707 436.266 267.199 436.358 266.751C436.451 266.298 436.594 265.901 436.787 265.558C436.98 265.215 437.237 264.954 437.558 264.773C437.883 264.589 438.266 264.497 438.705 264.497ZM447.386 268.023C447.044 268.507 446.545 268.748 445.89 268.748C445.235 268.748 444.734 268.507 444.387 268.023C444.04 267.54 443.866 266.894 443.866 266.085C443.866 265.272 444.038 264.624 444.381 264.141C444.723 263.657 445.227 263.416 445.89 263.416C446.541 263.416 447.037 263.657 447.38 264.141C447.727 264.62 447.901 265.268 447.901 266.085C447.901 266.894 447.729 267.54 447.386 268.023ZM451.262 263.646C451.302 263.58 451.35 263.547 451.407 263.547H452.383C452.431 263.547 452.467 263.563 452.489 263.594C452.51 263.624 452.51 263.664 452.489 263.712L446.859 272.908C446.824 272.969 446.776 273 446.714 273H445.739C445.69 273 445.655 272.985 445.633 272.954C445.611 272.923 445.611 272.884 445.633 272.835L451.262 263.646ZM445.89 267.938C446.25 267.938 446.519 267.762 446.694 267.41C446.87 267.054 446.958 266.613 446.958 266.085C446.958 265.553 446.87 265.112 446.694 264.76C446.519 264.404 446.25 264.226 445.89 264.226C445.64 264.226 445.431 264.316 445.264 264.497C445.097 264.677 444.978 264.901 444.908 265.169C444.842 265.437 444.809 265.742 444.809 266.085C444.809 266.613 444.897 267.054 445.073 267.41C445.253 267.762 445.525 267.938 445.89 267.938ZM452.245 273.132C451.585 273.132 451.082 272.892 450.735 272.413C450.392 271.93 450.221 271.284 450.221 270.475C450.221 269.662 450.392 269.014 450.735 268.531C451.078 268.047 451.581 267.806 452.245 267.806C452.895 267.806 453.394 268.047 453.741 268.531C454.088 269.014 454.262 269.662 454.262 270.475C454.262 271.28 454.088 271.923 453.741 272.407C453.398 272.89 452.899 273.132 452.245 273.132ZM452.245 272.328C452.609 272.328 452.877 272.152 453.049 271.8C453.225 271.449 453.312 271.007 453.312 270.475C453.312 269.939 453.225 269.495 453.049 269.144C452.877 268.788 452.609 268.61 452.245 268.61C451.99 268.61 451.779 268.702 451.612 268.887C451.449 269.067 451.335 269.291 451.269 269.559C451.203 269.827 451.17 270.133 451.17 270.475C451.17 270.818 451.203 271.121 451.269 271.385C451.335 271.649 451.449 271.873 451.612 272.057C451.779 272.238 451.99 272.328 452.245 272.328Z" fill="#5551FF"/>
<g filter="url(#filter3_d)">
<rect y="55" width="175" height="45" rx="6" fill="white"/>
<rect x="0.5" y="55.5" width="174" height="44" rx="5.5" stroke="#5551FF"/>
</g>
<path d="M15.957 65.5474C16.7085 65.5474 17.3391 65.8022 17.8489 66.312C18.3586 66.8174 18.6135 67.4941 18.6135 68.3423C18.6135 68.8125 18.5432 69.2344 18.4026 69.6079C18.2664 69.9771 18.0752 70.2781 17.8291 70.511C17.5874 70.7439 17.3062 70.9219 16.9854 71.0449C16.6689 71.1636 16.3262 71.2229 15.957 71.2229H13.0896V74.8682C13.0896 74.9561 13.0457 75 12.9578 75H12.002C11.9185 75 11.8767 74.9604 11.8767 74.8813V65.6858C11.8767 65.5935 11.9185 65.5474 12.002 65.5474H15.957ZM15.2781 70.1418C15.9988 70.1418 16.5327 70.0078 16.8799 69.7397C17.2271 69.4717 17.4006 69.0059 17.4006 68.3423C17.4006 67.1821 16.6931 66.6021 15.2781 66.6021H13.0896V70.1418H15.2781ZM19.7341 74.8682V68.3818C19.7341 68.2939 19.7781 68.25 19.866 68.25H20.8152C20.9031 68.25 20.947 68.2939 20.947 68.3818L20.8679 69.5024C20.9998 69.0674 21.2195 68.751 21.5271 68.5532C21.8391 68.3511 22.2852 68.25 22.8652 68.25H23.5706C23.6584 68.25 23.7024 68.2939 23.7024 68.3818V69.0608C23.7024 69.1487 23.6584 69.1926 23.5706 69.1926H22.8652C22.2236 69.1926 21.7446 69.4036 21.4282 69.8254C21.1162 70.2429 20.9558 70.8428 20.947 71.625V74.8682C20.947 74.9561 20.9031 75 20.8152 75H19.866C19.7781 75 19.7341 74.9561 19.7341 74.8682ZM27.3279 75.1318C28.3254 75.1318 29.0967 74.8264 29.6416 74.2156C30.1865 73.6047 30.459 72.7632 30.459 71.6909C30.459 70.6011 30.1821 69.7332 29.6284 69.0872C29.0747 68.4412 28.3079 68.1182 27.3279 68.1182C26.3347 68.1182 25.5613 68.4434 25.0076 69.0938C24.4539 69.7397 24.177 70.6055 24.177 71.6909C24.177 72.7676 24.4539 73.6113 25.0076 74.2222C25.5613 74.8286 26.3347 75.1318 27.3279 75.1318ZM27.3279 69.0608C27.9695 69.0608 28.4485 69.2959 28.7649 69.7661C29.0813 70.2319 29.2395 70.8735 29.2395 71.6909C29.2395 73.3564 28.6023 74.1892 27.3279 74.1892C26.0403 74.1892 25.3965 73.3564 25.3965 71.6909C25.3965 70.8735 25.5569 70.2319 25.8777 69.7661C26.1985 69.2959 26.6819 69.0608 27.3279 69.0608ZM31.8103 67.0503C31.7224 67.0503 31.6785 67.0042 31.6785 66.9119V65.6858C31.6785 65.5935 31.7224 65.5474 31.8103 65.5474H33.043C33.1309 65.5474 33.1748 65.5935 33.1748 65.6858V66.9119C33.1748 67.0042 33.1309 67.0503 33.043 67.0503H31.8103ZM31.9619 77.7026C31.9224 77.7026 31.8894 77.6895 31.863 77.6631C31.8367 77.6367 31.8235 77.6038 31.8235 77.5642V68.3818C31.8235 68.2939 31.8696 68.25 31.9619 68.25H32.9045C32.9968 68.25 33.043 68.2939 33.043 68.3818V77.5642C33.043 77.6038 33.0298 77.6367 33.0034 77.6631C32.9771 77.6895 32.9441 77.7026 32.9045 77.7026H31.9619ZM40.3269 72.4226C40.3708 72.4226 40.4038 72.4358 40.4258 72.4622C40.4521 72.4885 40.4587 72.5237 40.4456 72.5676C40.3093 73.3762 39.9797 74.0068 39.4568 74.4595C38.9338 74.9077 38.2483 75.1318 37.4001 75.1318C36.407 75.1318 35.6335 74.8286 35.0798 74.2222C34.5261 73.6113 34.2493 72.7676 34.2493 71.6909C34.2493 70.6055 34.5261 69.7397 35.0798 69.0938C35.6335 68.4434 36.407 68.1182 37.4001 68.1182C38.3582 68.1182 39.1052 68.4412 39.6414 69.0872C40.1775 69.7288 40.4456 70.5791 40.4456 71.6382C40.4456 71.7393 40.406 71.7898 40.3269 71.7898H35.4688C35.4819 72.6072 35.6401 73.2114 35.9434 73.6025C36.2466 73.9937 36.7322 74.1892 37.4001 74.1892C38.4329 74.1892 39.0481 73.6399 39.2458 72.5413C39.259 72.4622 39.3052 72.4226 39.3843 72.4226H40.3269ZM37.4001 69.0608C36.3323 69.0608 35.7061 69.6541 35.5215 70.8406H39.1008C39.1008 70.6121 39.0745 70.4011 39.0217 70.2078C38.969 70.01 38.8811 69.821 38.7581 69.6409C38.6394 69.4607 38.4636 69.3201 38.2307 69.219C37.9978 69.1135 37.7209 69.0608 37.4001 69.0608ZM46.2463 72.5413C46.2595 72.4622 46.3057 72.4226 46.3848 72.4226H47.3274C47.3713 72.4226 47.4043 72.4358 47.4263 72.4622C47.4526 72.4885 47.4592 72.5237 47.446 72.5676C47.3098 73.3762 46.9802 74.0068 46.4573 74.4595C45.9343 74.9077 45.2488 75.1318 44.4006 75.1318C43.4075 75.1318 42.634 74.8286 42.0803 74.2222C41.5266 73.6113 41.2498 72.7676 41.2498 71.6909C41.2498 70.6055 41.5266 69.7397 42.0803 69.0938C42.634 68.4434 43.4075 68.1182 44.4006 68.1182C45.2136 68.1182 45.8816 68.3467 46.4045 68.8037C46.9319 69.2607 47.2747 69.8914 47.4329 70.6956C47.446 70.7922 47.4065 70.8406 47.3142 70.8406H46.3716C46.2837 70.8406 46.2332 70.801 46.22 70.7219C45.9871 69.6145 45.3806 69.0608 44.4006 69.0608C43.7546 69.0608 43.2712 69.2959 42.9504 69.7661C42.6296 70.2319 42.4692 70.8735 42.4692 71.6909C42.4692 73.3564 43.113 74.1892 44.4006 74.1892C45.4333 74.1892 46.0486 73.6399 46.2463 72.5413ZM52.2119 69.1926L50.3464 69.1267V73.5168C50.3464 73.6443 50.3816 73.7432 50.4519 73.8135C50.5266 73.8838 50.6277 73.9189 50.7551 73.9189H52.2119C52.2998 73.9189 52.3438 73.9651 52.3438 74.0574V74.8682C52.3438 74.9561 52.2998 75 52.2119 75H50.887C50.3552 75 49.929 74.8418 49.6082 74.5254C49.2917 74.209 49.1335 73.7827 49.1335 73.2466V69.1267L48.1843 69.1926C48.0964 69.1926 48.0525 69.1487 48.0525 69.0608V68.3818C48.0525 68.2939 48.0964 68.25 48.1843 68.25L49.1335 68.3159V66.7668C49.1335 66.6746 49.1775 66.6284 49.2654 66.6284H50.2146C50.3025 66.6284 50.3464 66.6746 50.3464 66.7668V68.3159L52.2119 68.25C52.2998 68.25 52.3438 68.2939 52.3438 68.3818V69.0608C52.3438 69.1487 52.2998 69.1926 52.2119 69.1926ZM59.7068 65.5474C60.5022 65.5474 61.2053 65.6704 61.8162 65.9165C62.4314 66.1582 62.9258 66.4966 63.2993 66.9316C63.6729 67.3667 63.9519 67.8633 64.1365 68.4214C64.3254 68.9795 64.4199 69.5925 64.4199 70.2605C64.4199 70.7878 64.3628 71.2844 64.2485 71.7502C64.1343 72.2161 63.9519 72.6489 63.7014 73.0488C63.4553 73.4487 63.1499 73.7937 62.7852 74.0837C62.4248 74.3694 61.981 74.5935 61.4536 74.7561C60.9307 74.9187 60.3484 75 59.7068 75H57.1294C57.0371 75 56.991 74.9561 56.991 74.8682V65.6858C56.991 65.6462 57.0042 65.6133 57.0305 65.5869C57.0569 65.5605 57.0898 65.5474 57.1294 65.5474H59.7068ZM59.7068 73.8003C60.2166 73.8003 60.6714 73.7388 61.0713 73.6157C61.4756 73.4927 61.8096 73.3257 62.0732 73.1147C62.3369 72.8994 62.5544 72.6401 62.7258 72.3369C62.9016 72.0337 63.0269 71.7129 63.1016 71.3745C63.1763 71.0317 63.2136 70.6604 63.2136 70.2605C63.2136 69.7551 63.1521 69.2981 63.0291 68.8894C62.906 68.4807 62.7104 68.1138 62.4424 67.7886C62.1787 67.459 61.814 67.2041 61.3481 67.0239C60.8867 66.8438 60.3396 66.7537 59.7068 66.7537H58.1907V73.8003H59.7068ZM71.4138 72.4226C71.4578 72.4226 71.4907 72.4358 71.5127 72.4622C71.5391 72.4885 71.5457 72.5237 71.5325 72.5676C71.3962 73.3762 71.0667 74.0068 70.5437 74.4595C70.0208 74.9077 69.3352 75.1318 68.4871 75.1318C67.4939 75.1318 66.7205 74.8286 66.1667 74.2222C65.613 73.6113 65.3362 72.7676 65.3362 71.6909C65.3362 70.6055 65.613 69.7397 66.1667 69.0938C66.7205 68.4434 67.4939 68.1182 68.4871 68.1182C69.4451 68.1182 70.1921 68.4412 70.7283 69.0872C71.2644 69.7288 71.5325 70.5791 71.5325 71.6382C71.5325 71.7393 71.4929 71.7898 71.4138 71.7898H66.5557C66.5688 72.6072 66.7271 73.2114 67.0303 73.6025C67.3335 73.9937 67.8191 74.1892 68.4871 74.1892C69.5198 74.1892 70.135 73.6399 70.3328 72.5413C70.3459 72.4622 70.3921 72.4226 70.4712 72.4226H71.4138ZM68.4871 69.0608C67.4192 69.0608 66.793 69.6541 66.6084 70.8406H70.1877C70.1877 70.6121 70.1614 70.4011 70.1086 70.2078C70.0559 70.01 69.968 69.821 69.845 69.6409C69.7263 69.4607 69.5505 69.3201 69.3176 69.219C69.0847 69.1135 68.8079 69.0608 68.4871 69.0608ZM74.3867 75C74.334 75 74.2966 74.9736 74.2747 74.9209L71.7368 68.3555C71.7104 68.2852 71.7346 68.25 71.8093 68.25H72.897C72.9541 68.25 72.9871 68.2764 72.9958 68.3291L75.1118 74.0574L77.2212 68.3291C77.2432 68.2764 77.2739 68.25 77.3135 68.25H78.4077C78.478 68.25 78.5 68.2852 78.4736 68.3555L75.9358 74.9209C75.9138 74.9736 75.8787 75 75.8303 75H74.3867ZM84.7556 72.4226C84.7996 72.4226 84.8325 72.4358 84.8545 72.4622C84.8809 72.4885 84.8875 72.5237 84.8743 72.5676C84.738 73.3762 84.4084 74.0068 83.8855 74.4595C83.3625 74.9077 82.677 75.1318 81.8289 75.1318C80.8357 75.1318 80.0623 74.8286 79.5085 74.2222C78.9548 73.6113 78.678 72.7676 78.678 71.6909C78.678 70.6055 78.9548 69.7397 79.5085 69.0938C80.0623 68.4434 80.8357 68.1182 81.8289 68.1182C82.7869 68.1182 83.5339 68.4412 84.0701 69.0872C84.6062 69.7288 84.8743 70.5791 84.8743 71.6382C84.8743 71.7393 84.8347 71.7898 84.7556 71.7898H79.8975C79.9106 72.6072 80.0688 73.2114 80.3721 73.6025C80.6753 73.9937 81.1609 74.1892 81.8289 74.1892C82.8616 74.1892 83.4768 73.6399 83.6746 72.5413C83.6877 72.4622 83.7339 72.4226 83.813 72.4226H84.7556ZM81.8289 69.0608C80.761 69.0608 80.1348 69.6541 79.9502 70.8406H83.5295C83.5295 70.6121 83.5032 70.4011 83.4504 70.2078C83.3977 70.01 83.3098 69.821 83.1868 69.6409C83.0681 69.4607 82.8923 69.3201 82.6594 69.219C82.4265 69.1135 82.1497 69.0608 81.8289 69.0608ZM87.1682 75H86.219C86.1311 75 86.0872 74.9561 86.0872 74.8682V65.6858C86.0872 65.5935 86.1311 65.5474 86.219 65.5474H87.1682C87.2561 65.5474 87.3 65.5935 87.3 65.6858V74.8682C87.3 74.9561 87.2561 75 87.1682 75ZM91.6638 75.1318C92.6614 75.1318 93.4326 74.8264 93.9775 74.2156C94.5225 73.6047 94.7949 72.7632 94.7949 71.6909C94.7949 70.6011 94.5181 69.7332 93.9644 69.0872C93.4106 68.4412 92.6438 68.1182 91.6638 68.1182C90.6707 68.1182 89.8972 68.4434 89.3435 69.0938C88.7898 69.7397 88.5129 70.6055 88.5129 71.6909C88.5129 72.7676 88.7898 73.6113 89.3435 74.2222C89.8972 74.8286 90.6707 75.1318 91.6638 75.1318ZM91.6638 69.0608C92.3054 69.0608 92.7844 69.2959 93.1008 69.7661C93.4172 70.2319 93.5754 70.8735 93.5754 71.6909C93.5754 73.3564 92.9382 74.1892 91.6638 74.1892C90.3762 74.1892 89.7324 73.3564 89.7324 71.6909C89.7324 70.8735 89.8928 70.2319 90.2136 69.7661C90.5344 69.2959 91.0178 69.0608 91.6638 69.0608ZM99.0137 68.1182C99.8838 68.1182 100.58 68.4258 101.103 69.041C101.626 69.6562 101.888 70.4956 101.888 71.5591C101.888 72.6313 101.626 73.4949 101.103 74.1497C100.585 74.8044 99.8882 75.1318 99.0137 75.1318C98.3369 75.1318 97.8206 75.0044 97.4646 74.7495C97.1086 74.4946 96.8625 74.1189 96.7263 73.6223L96.8252 77.5642C96.8252 77.6038 96.812 77.6367 96.7856 77.6631C96.7593 77.6895 96.7263 77.7026 96.6868 77.7026H95.7441C95.7046 77.7026 95.6716 77.6895 95.6453 77.6631C95.6189 77.6367 95.6057 77.6038 95.6057 77.5642V68.3818C95.6057 68.2939 95.6519 68.25 95.7441 68.25H96.6868C96.7791 68.25 96.8252 68.2939 96.8252 68.3818L96.7856 69.3706C96.9351 68.9531 97.1812 68.6411 97.5239 68.4346C97.8711 68.2236 98.3677 68.1182 99.0137 68.1182ZM98.7434 74.1892C99.3894 74.1892 99.8706 73.9563 100.187 73.4905C100.508 73.0203 100.668 72.3765 100.668 71.5591C100.668 69.8936 100.027 69.0608 98.7434 69.0608C98.0974 69.0608 97.6162 69.2761 97.2998 69.7068C96.9834 70.1375 96.8252 70.7549 96.8252 71.5591C96.8252 72.3765 96.9834 73.0203 97.2998 73.4905C97.6206 73.9563 98.1018 74.1892 98.7434 74.1892ZM103.239 75C103.151 75 103.107 74.9561 103.107 74.8682V68.3818C103.107 68.2939 103.151 68.25 103.239 68.25H104.188C104.276 68.25 104.32 68.2939 104.32 68.3818L104.241 69.5222C104.39 69.0784 104.658 68.7334 105.045 68.4873C105.436 68.2412 105.924 68.1182 106.509 68.1182C107.664 68.1182 108.429 68.6082 108.802 69.5881C109 69.1047 109.319 68.74 109.758 68.4939C110.198 68.2434 110.712 68.1182 111.301 68.1182C111.789 68.1182 112.202 68.2017 112.54 68.3687C112.883 68.5312 113.151 68.7729 113.344 69.0938C113.538 69.4146 113.676 69.7793 113.76 70.188C113.847 70.5967 113.896 71.0757 113.905 71.625V74.8682C113.905 74.9561 113.861 75 113.773 75H112.81C112.722 75 112.678 74.9561 112.678 74.8682L112.692 71.625C112.678 69.9155 112.081 69.0608 110.899 69.0608C109.721 69.0608 109.125 69.9155 109.112 71.625V74.8682C109.112 74.9561 109.068 75 108.98 75H108.018C107.93 75 107.886 74.9561 107.886 74.8682L107.899 71.625C107.886 69.9155 107.289 69.0608 106.106 69.0608C104.929 69.0608 104.333 69.9155 104.32 71.625V74.8682C104.32 74.9561 104.276 75 104.188 75H103.239ZM121.195 72.4226C121.239 72.4226 121.272 72.4358 121.294 72.4622C121.32 72.4885 121.327 72.5237 121.314 72.5676C121.177 73.3762 120.848 74.0068 120.325 74.4595C119.802 74.9077 119.116 75.1318 118.268 75.1318C117.275 75.1318 116.502 74.8286 115.948 74.2222C115.394 73.6113 115.117 72.7676 115.117 71.6909C115.117 70.6055 115.394 69.7397 115.948 69.0938C116.502 68.4434 117.275 68.1182 118.268 68.1182C119.226 68.1182 119.973 68.4412 120.51 69.0872C121.046 69.7288 121.314 70.5791 121.314 71.6382C121.314 71.7393 121.274 71.7898 121.195 71.7898H116.337C116.35 72.6072 116.508 73.2114 116.812 73.6025C117.115 73.9937 117.6 74.1892 118.268 74.1892C119.301 74.1892 119.916 73.6399 120.114 72.5413C120.127 72.4622 120.173 72.4226 120.252 72.4226H121.195ZM118.268 69.0608C117.2 69.0608 116.574 69.6541 116.39 70.8406H119.969C119.969 70.6121 119.943 70.4011 119.89 70.2078C119.837 70.01 119.749 69.821 119.626 69.6409C119.508 69.4607 119.332 69.3201 119.099 69.219C118.866 69.1135 118.589 69.0608 118.268 69.0608ZM122.527 74.8682V68.3818C122.527 68.2939 122.571 68.25 122.658 68.25H123.608C123.696 68.25 123.74 68.2939 123.74 68.3818L123.66 69.5222C123.81 69.0784 124.078 68.7334 124.465 68.4873C124.856 68.2412 125.344 68.1182 125.928 68.1182C126.416 68.1182 126.829 68.2017 127.167 68.3687C127.51 68.5312 127.778 68.7729 127.971 69.0938C128.165 69.4146 128.303 69.7793 128.387 70.188C128.475 70.5967 128.523 71.0757 128.532 71.625V74.8682C128.532 74.9561 128.488 75 128.4 75H127.438C127.35 75 127.306 74.9561 127.306 74.8682L127.319 71.625C127.323 70.6802 127.196 70.0166 126.937 69.6343C126.682 69.252 126.247 69.0608 125.631 69.0608C125.016 69.0608 124.548 69.2585 124.227 69.6541C123.906 70.0452 123.744 70.7021 123.74 71.625V74.8682C123.74 74.9561 123.696 75 123.608 75H122.658C122.571 75 122.527 74.9561 122.527 74.8682ZM133.779 69.1926L131.913 69.1267V73.5168C131.913 73.6443 131.948 73.7432 132.019 73.8135C132.094 73.8838 132.195 73.9189 132.322 73.9189H133.779C133.867 73.9189 133.911 73.9651 133.911 74.0574V74.8682C133.911 74.9561 133.867 75 133.779 75H132.454C131.922 75 131.496 74.8418 131.175 74.5254C130.859 74.209 130.7 73.7827 130.7 73.2466V69.1267L129.751 69.1926C129.663 69.1926 129.619 69.1487 129.619 69.0608V68.3818C129.619 68.2939 129.663 68.25 129.751 68.25L130.7 68.3159V66.7668C130.7 66.6746 130.744 66.6284 130.832 66.6284H131.781C131.869 66.6284 131.913 66.6746 131.913 66.7668V68.3159L133.779 68.25C133.867 68.25 133.911 68.2939 133.911 68.3818V69.0608C133.911 69.1487 133.867 69.1926 133.779 69.1926ZM11.6064 84.1182V83.1689C11.6064 83.0811 11.6526 83.0371 11.7449 83.0371H13.9993C14.0872 83.0371 14.1311 82.991 14.1311 82.8987V81.6858C14.1311 81.6462 14.1443 81.6133 14.1707 81.5869C14.197 81.5605 14.23 81.5474 14.2695 81.5474H15.2122C15.3 81.5474 15.344 81.5935 15.344 81.6858V90.8682C15.344 90.9561 15.3 91 15.2122 91H14.2695C14.1772 91 14.1311 90.9561 14.1311 90.8682V84.3818C14.1311 84.2939 14.0872 84.25 13.9993 84.25H11.7449C11.6526 84.25 11.6064 84.2061 11.6064 84.1182ZM20.4526 91.1318C21.2568 91.1318 21.938 90.9209 22.4961 90.499C23.0586 90.0728 23.4717 89.5015 23.7354 88.7852C24.0034 88.0645 24.1375 87.2273 24.1375 86.2737C24.1375 85.3157 24.0012 84.4763 23.7288 83.7556C23.4607 83.0349 23.0454 82.4658 22.4829 82.0483C21.9248 81.6265 21.248 81.4155 20.4526 81.4155C19.644 81.4155 18.9585 81.6265 18.396 82.0483C17.8335 82.4702 17.4182 83.0415 17.1501 83.7622C16.8865 84.4785 16.7546 85.3157 16.7546 86.2737C16.7546 87.2361 16.8887 88.0776 17.1567 88.7983C17.4292 89.519 17.8467 90.0881 18.4092 90.5056C18.9717 90.9231 19.6528 91.1318 20.4526 91.1318ZM20.4526 82.4966C20.8877 82.4966 21.2656 82.5889 21.5864 82.7734C21.9072 82.9536 22.1643 83.2151 22.3577 83.5579C22.551 83.9006 22.6938 84.2983 22.7861 84.751C22.8784 85.1992 22.9246 85.7068 22.9246 86.2737C22.9246 86.8406 22.8784 87.3503 22.7861 87.803C22.6938 88.2556 22.551 88.6533 22.3577 88.9961C22.1643 89.3345 21.9072 89.5959 21.5864 89.7805C21.2656 89.9651 20.8877 90.0574 20.4526 90.0574C20.0132 90.0574 19.6309 89.9651 19.3057 89.7805C18.9849 89.5959 18.7278 89.3345 18.5344 88.9961C18.3411 88.6533 18.1982 88.2556 18.106 87.803C18.0137 87.3503 17.9675 86.8406 17.9675 86.2737C17.9675 85.7068 18.0137 85.1992 18.106 84.751C18.1982 84.2983 18.3411 83.9006 18.5344 83.5579C18.7278 83.2151 18.9849 82.9536 19.3057 82.7734C19.6309 82.5889 20.0132 82.4966 20.4526 82.4966ZM29.134 86.0232C28.7913 86.5066 28.2925 86.7483 27.6377 86.7483C26.9829 86.7483 26.4819 86.5066 26.1348 86.0232C25.7876 85.5398 25.614 84.8938 25.614 84.0852C25.614 83.2722 25.7854 82.624 26.1282 82.1406C26.4709 81.6572 26.9741 81.4155 27.6377 81.4155C28.2881 81.4155 28.7847 81.6572 29.1274 82.1406C29.4746 82.6196 29.6482 83.2678 29.6482 84.0852C29.6482 84.8938 29.4768 85.5398 29.134 86.0232ZM33.01 81.6462C33.0496 81.5803 33.0979 81.5474 33.155 81.5474H34.1306C34.179 81.5474 34.2141 81.5627 34.2361 81.5935C34.2581 81.6243 34.2581 81.6638 34.2361 81.7122L28.6067 90.9077C28.5715 90.9692 28.5232 91 28.4617 91H27.4861C27.4377 91 27.4026 90.9846 27.3806 90.9539C27.3586 90.9231 27.3586 90.8835 27.3806 90.8352L33.01 81.6462ZM27.6377 85.9375C27.998 85.9375 28.2661 85.7617 28.4419 85.4102C28.6177 85.0542 28.7056 84.6125 28.7056 84.0852C28.7056 83.5535 28.6177 83.1118 28.4419 82.7603C28.2661 82.4043 27.998 82.2263 27.6377 82.2263C27.3872 82.2263 27.1785 82.3164 27.0115 82.4966C26.8445 82.6768 26.7258 82.9009 26.6555 83.1689C26.5896 83.437 26.5566 83.7424 26.5566 84.0852C26.5566 84.6125 26.6445 85.0542 26.8203 85.4102C27.0005 85.7617 27.2729 85.9375 27.6377 85.9375ZM33.9922 91.1318C33.333 91.1318 32.8298 90.8923 32.4827 90.4133C32.1399 89.9299 31.9685 89.2839 31.9685 88.4753C31.9685 87.6624 32.1399 87.0142 32.4827 86.5308C32.8254 86.0474 33.3286 85.8057 33.9922 85.8057C34.6426 85.8057 35.1414 86.0474 35.4885 86.5308C35.8357 87.0142 36.0093 87.6624 36.0093 88.4753C36.0093 89.2795 35.8357 89.9233 35.4885 90.4067C35.1458 90.8901 34.647 91.1318 33.9922 91.1318ZM33.9922 90.3276C34.3569 90.3276 34.625 90.1519 34.7964 89.8003C34.9722 89.4487 35.0601 89.0071 35.0601 88.4753C35.0601 87.9392 34.9722 87.4954 34.7964 87.1438C34.625 86.7878 34.3569 86.6099 33.9922 86.6099C33.7373 86.6099 33.5264 86.7021 33.3594 86.8867C33.1968 87.0669 33.0825 87.291 33.0166 87.5591C32.9507 87.8271 32.9177 88.1326 32.9177 88.4753C32.9177 88.8181 32.9507 89.1213 33.0166 89.385C33.0825 89.6487 33.1968 89.8728 33.3594 90.0574C33.5264 90.2375 33.7373 90.3276 33.9922 90.3276Z" fill="#5551FF"/>
<g filter="url(#filter4_d)">
<rect y="110" width="175" height="45" rx="6" fill="white"/>
<rect x="0.5" y="110.5" width="174" height="44" rx="5.5" stroke="#5551FF"/>
</g>
<path d="M18.897 120.547C18.9365 120.547 18.9695 120.561 18.9958 120.587C19.0222 120.613 19.0354 120.646 19.0354 120.686V121.497C19.0354 121.584 18.9893 121.628 18.897 121.628H15.7263V129.868C15.7263 129.956 15.6802 130 15.5879 130H14.6453C14.553 130 14.5068 129.956 14.5068 129.868V121.628H11.3362C11.2483 121.628 11.2043 121.584 11.2043 121.497V120.686C11.2043 120.594 11.2483 120.547 11.3362 120.547H18.897ZM23.6892 127.423C23.7332 127.423 23.7661 127.436 23.7881 127.462C23.8145 127.489 23.821 127.524 23.8079 127.568C23.6716 128.376 23.342 129.007 22.8191 129.459C22.2961 129.908 21.6106 130.132 20.7625 130.132C19.7693 130.132 18.9958 129.829 18.4421 129.222C17.8884 128.611 17.6116 127.768 17.6116 126.691C17.6116 125.605 17.8884 124.74 18.4421 124.094C18.9958 123.443 19.7693 123.118 20.7625 123.118C21.7205 123.118 22.4675 123.441 23.0037 124.087C23.5398 124.729 23.8079 125.579 23.8079 126.638C23.8079 126.739 23.7683 126.79 23.6892 126.79H18.8311C18.8442 127.607 19.0024 128.211 19.3057 128.603C19.6089 128.994 20.0945 129.189 20.7625 129.189C21.7952 129.189 22.4104 128.64 22.6082 127.541C22.6213 127.462 22.6675 127.423 22.7466 127.423H23.6892ZM20.7625 124.061C19.6946 124.061 19.0684 124.654 18.8838 125.841H22.4631C22.4631 125.612 22.4368 125.401 22.384 125.208C22.3313 125.01 22.2434 124.821 22.1204 124.641C22.0017 124.461 21.8259 124.32 21.593 124.219C21.3601 124.114 21.0833 124.061 20.7625 124.061ZM30.5579 123.25C30.6458 123.25 30.6897 123.294 30.6897 123.382V129.868C30.6897 129.956 30.6458 130 30.5579 130H29.6086C29.5208 130 29.4768 129.956 29.4768 129.868L29.5164 128.879C29.3669 129.297 29.1187 129.611 28.7715 129.822C28.4287 130.029 27.9343 130.132 27.2883 130.132C26.4182 130.132 25.7217 129.824 25.1987 129.209C24.6758 128.594 24.4143 127.754 24.4143 126.691C24.4143 125.619 24.6736 124.755 25.1921 124.1C25.7151 123.446 26.4138 123.118 27.2883 123.118C27.9343 123.118 28.4309 123.232 28.7781 123.461C29.1296 123.685 29.3757 124.023 29.5164 124.476L29.4768 123.382C29.4768 123.294 29.5208 123.25 29.6086 123.25H30.5579ZM27.5586 129.189C28.2046 129.189 28.6858 128.974 29.0022 128.543C29.3186 128.113 29.4768 127.495 29.4768 126.691C29.4768 125.874 29.3164 125.232 28.9956 124.766C28.6792 124.296 28.2002 124.061 27.5586 124.061C26.9126 124.061 26.4292 124.296 26.1084 124.766C25.7876 125.232 25.6272 125.874 25.6272 126.691C25.6272 128.356 26.271 129.189 27.5586 129.189ZM32.4431 130C32.3552 130 32.3113 129.956 32.3113 129.868V123.382C32.3113 123.294 32.3552 123.25 32.4431 123.25H33.3923C33.4802 123.25 33.5242 123.294 33.5242 123.382L33.4451 124.522C33.5945 124.078 33.8625 123.733 34.2493 123.487C34.6404 123.241 35.1282 123.118 35.7126 123.118C36.8684 123.118 37.6331 123.608 38.0066 124.588C38.2043 124.105 38.5229 123.74 38.9624 123.494C39.4019 123.243 39.916 123.118 40.5049 123.118C40.9927 123.118 41.4058 123.202 41.7441 123.369C42.0869 123.531 42.355 123.773 42.5483 124.094C42.7417 124.415 42.8801 124.779 42.9636 125.188C43.0515 125.597 43.0999 126.076 43.1086 126.625V129.868C43.1086 129.956 43.0647 130 42.9768 130H42.0144C41.9265 130 41.8826 129.956 41.8826 129.868L41.8958 126.625C41.8826 124.916 41.2849 124.061 40.1028 124.061C38.925 124.061 38.3296 124.916 38.3164 126.625V129.868C38.3164 129.956 38.2725 130 38.1846 130H37.2222C37.1343 130 37.0903 129.956 37.0903 129.868L37.1035 126.625C37.0903 124.916 36.4927 124.061 35.3105 124.061C34.1328 124.061 33.5374 124.916 33.5242 126.625V129.868C33.5242 129.956 33.4802 130 33.3923 130H32.4431ZM11.6064 139.118V138.169C11.6064 138.081 11.6526 138.037 11.7449 138.037H13.9993C14.0872 138.037 14.1311 137.991 14.1311 137.899V136.686C14.1311 136.646 14.1443 136.613 14.1707 136.587C14.197 136.561 14.23 136.547 14.2695 136.547H15.2122C15.3 136.547 15.344 136.594 15.344 136.686V145.868C15.344 145.956 15.3 146 15.2122 146H14.2695C14.1772 146 14.1311 145.956 14.1311 145.868V139.382C14.1311 139.294 14.0872 139.25 13.9993 139.25H11.7449C11.6526 139.25 11.6064 139.206 11.6064 139.118ZM16.9919 146C16.9041 146 16.8601 145.956 16.8601 145.868L16.8733 144.879C16.8733 144.572 16.9634 144.28 17.1436 144.003C17.3237 143.721 17.5566 143.471 17.8423 143.251C18.1279 143.027 18.4421 142.807 18.7849 142.592C19.1321 142.377 19.4792 142.155 19.8264 141.926C20.1736 141.698 20.49 141.46 20.7756 141.214C21.0613 140.968 21.2942 140.683 21.4744 140.357C21.6545 140.028 21.7446 139.676 21.7446 139.303C21.7446 138.714 21.5798 138.244 21.2502 137.892C20.925 137.536 20.4834 137.358 19.9253 137.358C19.3672 137.358 18.9211 137.538 18.5872 137.899C18.2532 138.259 18.0774 138.773 18.0598 139.441C18.0598 139.529 18.0159 139.573 17.928 139.573H16.9919C16.9041 139.573 16.8601 139.533 16.8601 139.454C16.8865 138.562 17.1699 137.833 17.7104 137.266C18.251 136.699 18.9893 136.416 19.9253 136.416C20.5493 136.416 21.0964 136.554 21.5667 136.831C22.0369 137.103 22.3862 137.455 22.6147 137.885C22.8477 138.316 22.9641 138.789 22.9641 139.303C22.9641 139.755 22.874 140.184 22.6938 140.588C22.5137 140.992 22.2808 141.344 21.9951 141.643C21.7095 141.937 21.3931 142.214 21.0459 142.473C20.6987 142.733 20.3516 142.968 20.0044 143.179C19.6572 143.39 19.3408 143.59 19.0552 143.779C18.7695 143.963 18.5366 144.152 18.3564 144.345C18.1763 144.539 18.0862 144.73 18.0862 144.919H22.8257C22.8652 144.919 22.8982 144.932 22.9246 144.958C22.9509 144.985 22.9641 145.018 22.9641 145.057V145.868C22.9641 145.956 22.918 146 22.8257 146H16.9919ZM31.6917 141.023C31.3489 141.507 30.8501 141.748 30.1953 141.748C29.5405 141.748 29.0396 141.507 28.6924 141.023C28.3452 140.54 28.1716 139.894 28.1716 139.085C28.1716 138.272 28.343 137.624 28.6858 137.141C29.0286 136.657 29.5317 136.416 30.1953 136.416C30.8457 136.416 31.3423 136.657 31.6851 137.141C32.0322 137.62 32.2058 138.268 32.2058 139.085C32.2058 139.894 32.0344 140.54 31.6917 141.023ZM35.5676 136.646C35.6072 136.58 35.6555 136.547 35.7126 136.547H36.6882C36.7366 136.547 36.7717 136.563 36.7937 136.594C36.8157 136.624 36.8157 136.664 36.7937 136.712L31.1643 145.908C31.1292 145.969 31.0808 146 31.0193 146H30.0437C29.9954 146 29.9602 145.985 29.9382 145.954C29.9163 145.923 29.9163 145.884 29.9382 145.835L35.5676 136.646ZM30.1953 140.938C30.5557 140.938 30.8237 140.762 30.9995 140.41C31.1753 140.054 31.2632 139.613 31.2632 139.085C31.2632 138.553 31.1753 138.112 30.9995 137.76C30.8237 137.404 30.5557 137.226 30.1953 137.226C29.9448 137.226 29.7361 137.316 29.5691 137.497C29.4021 137.677 29.2834 137.901 29.2131 138.169C29.1472 138.437 29.1143 138.742 29.1143 139.085C29.1143 139.613 29.2021 140.054 29.3779 140.41C29.5581 140.762 29.8306 140.938 30.1953 140.938ZM36.5498 146.132C35.8906 146.132 35.3875 145.892 35.0403 145.413C34.6975 144.93 34.5261 144.284 34.5261 143.475C34.5261 142.662 34.6975 142.014 35.0403 141.531C35.3831 141.047 35.8862 140.806 36.5498 140.806C37.2002 140.806 37.699 141.047 38.0461 141.531C38.3933 142.014 38.5669 142.662 38.5669 143.475C38.5669 144.28 38.3933 144.923 38.0461 145.407C37.7034 145.89 37.2046 146.132 36.5498 146.132ZM36.5498 145.328C36.9146 145.328 37.1826 145.152 37.354 144.8C37.5298 144.449 37.6177 144.007 37.6177 143.475C37.6177 142.939 37.5298 142.495 37.354 142.144C37.1826 141.788 36.9146 141.61 36.5498 141.61C36.2949 141.61 36.084 141.702 35.917 141.887C35.7544 142.067 35.6401 142.291 35.5742 142.559C35.5083 142.827 35.4753 143.133 35.4753 143.475C35.4753 143.818 35.5083 144.121 35.5742 144.385C35.6401 144.649 35.7544 144.873 35.917 145.057C36.084 145.238 36.2949 145.328 36.5498 145.328Z" fill="#5551FF"/>
<path d="M262 39.943C278.149 26.1738 296.679 15.6752 316.612 9L368 172L262 39.943Z" fill="#8BE3F5"/>
<path d="M462 260C462 258.895 461.105 258 460 258C458.895 258 458 258.895 458 260C458 261.105 458.895 262 460 262C461.105 262 462 261.105 462 260Z" fill="white"/>
<path d="M649.8 152H541.3H525" stroke="#5551FF" stroke-miterlimit="10"/>
<g filter="url(#filter5_d)">
<rect x="572" y="128" width="175" height="45" rx="6" fill="white"/>
<rect x="572.5" y="128.5" width="174" height="44" rx="5.5" stroke="#5551FF"/>
</g>
<path d="M651.185 138.686C651.185 138.646 651.198 138.613 651.225 138.587C651.251 138.561 651.284 138.547 651.324 138.547H652.28C652.367 138.547 652.411 138.594 652.411 138.686V147.868C652.411 147.956 652.367 148 652.28 148H651.324C651.231 148 651.185 147.956 651.185 147.868V138.686ZM654.099 147.868V141.382C654.099 141.294 654.143 141.25 654.231 141.25H655.18C655.268 141.25 655.312 141.294 655.312 141.382L655.233 142.522C655.382 142.078 655.65 141.733 656.037 141.487C656.428 141.241 656.916 141.118 657.5 141.118C657.988 141.118 658.401 141.202 658.74 141.369C659.082 141.531 659.35 141.773 659.544 142.094C659.737 142.415 659.875 142.779 659.959 143.188C660.047 143.597 660.095 144.076 660.104 144.625V147.868C660.104 147.956 660.06 148 659.972 148H659.01C658.922 148 658.878 147.956 658.878 147.868L658.891 144.625C658.896 143.68 658.768 143.017 658.509 142.634C658.254 142.252 657.819 142.061 657.204 142.061C656.588 142.061 656.12 142.259 655.8 142.654C655.479 143.045 655.316 143.702 655.312 144.625V147.868C655.312 147.956 655.268 148 655.18 148H654.231C654.143 148 654.099 147.956 654.099 147.868ZM661.594 138.686C661.594 138.646 661.607 138.613 661.633 138.587C661.66 138.561 661.693 138.547 661.732 138.547H662.945C662.985 138.547 663.018 138.561 663.044 138.587C663.07 138.613 663.083 138.646 663.083 138.686V139.899C663.083 139.938 663.07 139.971 663.044 139.998C663.018 140.024 662.985 140.037 662.945 140.037H661.732C661.693 140.037 661.66 140.024 661.633 139.998C661.607 139.971 661.594 139.938 661.594 139.899V138.686ZM662.813 148H661.864C661.776 148 661.732 147.956 661.732 147.868V141.382C661.732 141.294 661.776 141.25 661.864 141.25H662.813C662.901 141.25 662.945 141.294 662.945 141.382V147.868C662.945 147.956 662.901 148 662.813 148ZM668.186 142.193L666.32 142.127V146.517C666.32 146.644 666.355 146.743 666.426 146.813C666.5 146.884 666.601 146.919 666.729 146.919H668.186C668.273 146.919 668.317 146.965 668.317 147.057V147.868C668.317 147.956 668.273 148 668.186 148H666.861C666.329 148 665.903 147.842 665.582 147.525C665.265 147.209 665.107 146.783 665.107 146.247V142.127L664.158 142.193C664.07 142.193 664.026 142.149 664.026 142.061V141.382C664.026 141.294 664.07 141.25 664.158 141.25L665.107 141.316V139.767C665.107 139.675 665.151 139.628 665.239 139.628H666.188C666.276 139.628 666.32 139.675 666.32 139.767V141.316L668.186 141.25C668.273 141.25 668.317 141.294 668.317 141.382V142.061C668.317 142.149 668.273 142.193 668.186 142.193ZM669.122 138.686C669.122 138.646 669.135 138.613 669.161 138.587C669.188 138.561 669.22 138.547 669.26 138.547H670.473C670.512 138.547 670.545 138.561 670.572 138.587C670.598 138.613 670.611 138.646 670.611 138.686V139.899C670.611 139.938 670.598 139.971 670.572 139.998C670.545 140.024 670.512 140.037 670.473 140.037H669.26C669.22 140.037 669.188 140.024 669.161 139.998C669.135 139.971 669.122 139.938 669.122 139.899V138.686ZM670.341 148H669.392C669.304 148 669.26 147.956 669.26 147.868V141.382C669.26 141.294 669.304 141.25 669.392 141.25H670.341C670.429 141.25 670.473 141.294 670.473 141.382V147.868C670.473 147.956 670.429 148 670.341 148ZM677.632 141.25C677.719 141.25 677.763 141.294 677.763 141.382V147.868C677.763 147.956 677.719 148 677.632 148H676.682C676.594 148 676.551 147.956 676.551 147.868L676.59 146.879C676.441 147.297 676.192 147.611 675.845 147.822C675.502 148.029 675.008 148.132 674.362 148.132C673.492 148.132 672.795 147.824 672.272 147.209C671.75 146.594 671.488 145.754 671.488 144.691C671.488 143.619 671.747 142.755 672.266 142.1C672.789 141.446 673.488 141.118 674.362 141.118C675.008 141.118 675.505 141.232 675.852 141.461C676.203 141.685 676.449 142.023 676.59 142.476L676.551 141.382C676.551 141.294 676.594 141.25 676.682 141.25H677.632ZM674.632 147.189C675.278 147.189 675.76 146.974 676.076 146.543C676.392 146.113 676.551 145.495 676.551 144.691C676.551 143.874 676.39 143.232 676.069 142.766C675.753 142.296 675.274 142.061 674.632 142.061C673.986 142.061 673.503 142.296 673.182 142.766C672.861 143.232 672.701 143.874 672.701 144.691C672.701 146.356 673.345 147.189 674.632 147.189ZM680.466 148H679.517C679.429 148 679.385 147.956 679.385 147.868V138.686C679.385 138.594 679.429 138.547 679.517 138.547H680.466C680.554 138.547 680.598 138.594 680.598 138.686V147.868C680.598 147.956 680.554 148 680.466 148ZM691.824 146.787C691.916 146.787 691.962 146.831 691.962 146.919V147.868C691.962 147.956 691.916 148 691.824 148H686.062C685.97 148 685.924 147.956 685.924 147.868V138.686C685.924 138.646 685.937 138.613 685.964 138.587C685.99 138.561 686.023 138.547 686.062 138.547H687.005C687.093 138.547 687.137 138.594 687.137 138.686V146.787H691.824ZM692.971 138.686C692.971 138.646 692.984 138.613 693.01 138.587C693.037 138.561 693.07 138.547 693.109 138.547H694.322C694.362 138.547 694.395 138.561 694.421 138.587C694.447 138.613 694.46 138.646 694.46 138.686V139.899C694.46 139.938 694.447 139.971 694.421 139.998C694.395 140.024 694.362 140.037 694.322 140.037H693.109C693.07 140.037 693.037 140.024 693.01 139.998C692.984 139.971 692.971 139.938 692.971 139.899V138.686ZM694.19 148H693.241C693.153 148 693.109 147.956 693.109 147.868V141.382C693.109 141.294 693.153 141.25 693.241 141.25H694.19C694.278 141.25 694.322 141.294 694.322 141.382V147.868C694.322 147.956 694.278 148 694.19 148ZM701.678 141.25C701.771 141.25 701.817 141.294 701.817 141.382V150.564C701.817 150.604 701.804 150.637 701.777 150.663C701.751 150.689 701.718 150.703 701.678 150.703H700.736C700.696 150.703 700.663 150.689 700.637 150.663C700.611 150.637 700.597 150.604 700.597 150.564L700.696 146.622C700.56 147.119 700.314 147.495 699.958 147.75C699.606 148.004 699.092 148.132 698.416 148.132C697.541 148.132 696.842 147.804 696.319 147.15C695.796 146.495 695.535 145.631 695.535 144.559C695.535 143.496 695.796 142.656 696.319 142.041C696.847 141.426 697.545 141.118 698.416 141.118C699.062 141.118 699.556 141.224 699.899 141.435C700.246 141.641 700.494 141.953 700.644 142.371L700.597 141.382C700.597 141.294 700.644 141.25 700.736 141.25H701.678ZM698.686 147.189C699.327 147.189 699.806 146.956 700.123 146.49C700.439 146.02 700.597 145.376 700.597 144.559C700.597 142.894 699.96 142.061 698.686 142.061C697.398 142.061 696.754 142.894 696.754 144.559C696.754 145.376 696.915 146.02 697.236 146.49C697.556 146.956 698.04 147.189 698.686 147.189ZM709.305 141.25C709.393 141.25 709.437 141.294 709.437 141.382V147.868C709.437 147.956 709.393 148 709.305 148H708.356C708.268 148 708.224 147.956 708.224 147.868L708.303 146.728C708.154 147.172 707.884 147.517 707.492 147.763C707.106 148.009 706.62 148.132 706.036 148.132C705.117 148.132 704.454 147.848 704.045 147.281C703.636 146.71 703.432 145.825 703.432 144.625V141.382C703.432 141.294 703.476 141.25 703.564 141.25H704.526C704.614 141.25 704.658 141.294 704.658 141.382L704.645 144.625C704.64 145.139 704.676 145.568 704.75 145.91C704.829 146.253 704.95 146.517 705.113 146.701C705.28 146.882 705.469 147.009 705.68 147.084C705.895 147.154 706.159 147.189 706.471 147.189C707.024 147.189 707.453 146.991 707.756 146.596C708.064 146.196 708.22 145.539 708.224 144.625V141.382C708.224 141.294 708.268 141.25 708.356 141.25H709.305ZM710.927 138.686C710.927 138.646 710.94 138.613 710.966 138.587C710.993 138.561 711.026 138.547 711.065 138.547H712.278C712.318 138.547 712.351 138.561 712.377 138.587C712.403 138.613 712.417 138.646 712.417 138.686V139.899C712.417 139.938 712.403 139.971 712.377 139.998C712.351 140.024 712.318 140.037 712.278 140.037H711.065C711.026 140.037 710.993 140.024 710.966 139.998C710.94 139.971 710.927 139.938 710.927 139.899V138.686ZM712.146 148H711.197C711.109 148 711.065 147.956 711.065 147.868V141.382C711.065 141.294 711.109 141.25 711.197 141.25H712.146C712.234 141.25 712.278 141.294 712.278 141.382V147.868C712.278 147.956 712.234 148 712.146 148ZM719.635 138.547C719.674 138.547 719.707 138.561 719.733 138.587C719.76 138.613 719.773 138.646 719.773 138.686V147.868C719.773 147.956 719.727 148 719.635 148H718.692C718.6 148 718.553 147.956 718.553 147.868L718.6 146.879C718.45 147.297 718.202 147.611 717.855 147.822C717.512 148.029 717.018 148.132 716.372 148.132C715.501 148.132 714.803 147.824 714.275 147.209C713.752 146.594 713.491 145.754 713.491 144.691C713.491 143.619 713.752 142.755 714.275 142.1C714.798 141.446 715.497 141.118 716.372 141.118C717.048 141.118 717.562 141.246 717.914 141.5C718.27 141.755 718.516 142.131 718.652 142.628L718.553 138.686C718.553 138.646 718.567 138.613 718.593 138.587C718.619 138.561 718.652 138.547 718.692 138.547H719.635ZM716.642 147.189C717.916 147.189 718.553 146.356 718.553 144.691C718.553 143.874 718.395 143.232 718.079 142.766C717.762 142.296 717.283 142.061 716.642 142.061C715.996 142.061 715.512 142.296 715.192 142.766C714.871 143.232 714.71 143.874 714.71 144.691C714.71 146.356 715.354 147.189 716.642 147.189ZM721.25 138.686C721.25 138.646 721.263 138.613 721.289 138.587C721.315 138.561 721.348 138.547 721.388 138.547H722.601C722.64 138.547 722.673 138.561 722.7 138.587C722.726 138.613 722.739 138.646 722.739 138.686V139.899C722.739 139.938 722.726 139.971 722.7 139.998C722.673 140.024 722.64 140.037 722.601 140.037H721.388C721.348 140.037 721.315 140.024 721.289 139.998C721.263 139.971 721.25 139.938 721.25 139.899V138.686ZM722.469 148H721.52C721.432 148 721.388 147.956 721.388 147.868V141.382C721.388 141.294 721.432 141.25 721.52 141.25H722.469C722.557 141.25 722.601 141.294 722.601 141.382V147.868C722.601 147.956 722.557 148 722.469 148ZM727.841 142.193L725.976 142.127V146.517C725.976 146.644 726.011 146.743 726.081 146.813C726.156 146.884 726.257 146.919 726.385 146.919H727.841C727.929 146.919 727.973 146.965 727.973 147.057V147.868C727.973 147.956 727.929 148 727.841 148H726.516C725.985 148 725.558 147.842 725.238 147.525C724.921 147.209 724.763 146.783 724.763 146.247V142.127L723.814 142.193C723.726 142.193 723.682 142.149 723.682 142.061V141.382C723.682 141.294 723.726 141.25 723.814 141.25L724.763 141.316V139.767C724.763 139.675 724.807 139.628 724.895 139.628H725.844C725.932 139.628 725.976 139.675 725.976 139.767V141.316L727.841 141.25C727.929 141.25 727.973 141.294 727.973 141.382V142.061C727.973 142.149 727.929 142.193 727.841 142.193ZM730.089 150.703C730.041 150.703 730.006 150.685 729.984 150.65C729.966 150.619 729.966 150.582 729.984 150.538L731.045 148H730.86C730.781 148 730.731 147.965 730.709 147.895L728.184 141.355C728.158 141.285 728.182 141.25 728.257 141.25H729.344C729.401 141.25 729.434 141.276 729.443 141.329L731.559 146.787L733.668 141.329C733.677 141.276 733.708 141.25 733.761 141.25H734.855C734.925 141.25 734.947 141.285 734.921 141.355L731.361 150.591C731.335 150.665 731.284 150.703 731.21 150.703H730.089ZM715.679 157.25C716.572 157.25 717.301 157.575 717.868 158.226C718.435 158.876 718.718 159.676 718.718 160.625C718.718 161.245 718.58 161.823 718.303 162.359C718.031 162.89 717.637 163.319 717.123 163.644C716.613 163.969 716.042 164.132 715.409 164.132C714.64 164.132 713.974 163.899 713.412 163.433C712.854 162.967 712.467 162.37 712.252 161.64C712.23 161.57 712.26 161.519 712.344 161.489L713.273 161.245C713.353 161.218 713.407 161.251 713.438 161.344C713.592 161.831 713.84 162.24 714.183 162.57C714.526 162.895 714.935 163.057 715.409 163.057C716.038 163.057 716.543 162.824 716.925 162.359C717.308 161.893 717.499 161.315 717.499 160.625C717.499 159.966 717.294 159.417 716.886 158.977C716.481 158.538 715.989 158.318 715.409 158.318C714.983 158.318 714.607 158.469 714.282 158.773C713.957 159.072 713.719 159.456 713.57 159.926H712.614C712.575 159.926 712.542 159.911 712.515 159.88C712.489 159.849 712.478 159.814 712.482 159.775L713.181 154.673C713.194 154.589 713.24 154.547 713.32 154.547H718C718.039 154.547 718.072 154.561 718.099 154.587C718.125 154.613 718.138 154.646 718.138 154.686V155.497C718.138 155.584 718.092 155.628 718 155.628H714.157L713.84 157.909C714.306 157.47 714.919 157.25 715.679 157.25ZM727.386 159.023C727.044 159.507 726.545 159.748 725.89 159.748C725.235 159.748 724.734 159.507 724.387 159.023C724.04 158.54 723.866 157.894 723.866 157.085C723.866 156.272 724.038 155.624 724.381 155.141C724.723 154.657 725.227 154.416 725.89 154.416C726.541 154.416 727.037 154.657 727.38 155.141C727.727 155.62 727.901 156.268 727.901 157.085C727.901 157.894 727.729 158.54 727.386 159.023ZM731.262 154.646C731.302 154.58 731.35 154.547 731.407 154.547H732.383C732.431 154.547 732.467 154.563 732.489 154.594C732.51 154.624 732.51 154.664 732.489 154.712L726.859 163.908C726.824 163.969 726.776 164 726.714 164H725.739C725.69 164 725.655 163.985 725.633 163.954C725.611 163.923 725.611 163.884 725.633 163.835L731.262 154.646ZM725.89 158.938C726.25 158.938 726.519 158.762 726.694 158.41C726.87 158.054 726.958 157.613 726.958 157.085C726.958 156.553 726.87 156.112 726.694 155.76C726.519 155.404 726.25 155.226 725.89 155.226C725.64 155.226 725.431 155.316 725.264 155.497C725.097 155.677 724.978 155.901 724.908 156.169C724.842 156.437 724.809 156.742 724.809 157.085C724.809 157.613 724.897 158.054 725.073 158.41C725.253 158.762 725.525 158.938 725.89 158.938ZM732.245 164.132C731.585 164.132 731.082 163.892 730.735 163.413C730.392 162.93 730.221 162.284 730.221 161.475C730.221 160.662 730.392 160.014 730.735 159.531C731.078 159.047 731.581 158.806 732.245 158.806C732.895 158.806 733.394 159.047 733.741 159.531C734.088 160.014 734.262 160.662 734.262 161.475C734.262 162.28 734.088 162.923 733.741 163.407C733.398 163.89 732.899 164.132 732.245 164.132ZM732.245 163.328C732.609 163.328 732.877 163.152 733.049 162.8C733.225 162.449 733.312 162.007 733.312 161.475C733.312 160.939 733.225 160.495 733.049 160.144C732.877 159.788 732.609 159.61 732.245 159.61C731.99 159.61 731.779 159.702 731.612 159.887C731.449 160.067 731.335 160.291 731.269 160.559C731.203 160.827 731.17 161.133 731.17 161.475C731.17 161.818 731.203 162.121 731.269 162.385C731.335 162.649 731.449 162.873 731.612 163.057C731.779 163.238 731.99 163.328 732.245 163.328Z" fill="#5551FF"/>
<defs>
<filter id="filter0_d" x="572" y="0" width="183" height="53" filterUnits="userSpaceOnUse" color-interpolation-filters="sRGB">
<feFlood flood-opacity="0" result="BackgroundImageFix"/>
<feColorMatrix in="SourceAlpha" type="matrix" values="0 0 0 0 0 0 0 0 0 0 0 0 0 0 0 0 0 0 127 0"/>
<feOffset dx="4" dy="4"/>
<feGaussianBlur stdDeviation="2"/>
<feColorMatrix type="matrix" values="0 0 0 0 0 0 0 0 0 0 0 0 0 0 0 0 0 0 0.25 0"/>
<feBlend mode="normal" in2="BackgroundImageFix" result="effect1_dropShadow"/>
<feBlend mode="normal" in="SourceGraphic" in2="effect1_dropShadow" result="shape"/>
</filter>
<filter id="filter1_d" x="572" y="55" width="183" height="53" filterUnits="userSpaceOnUse" color-interpolation-filters="sRGB">
<feFlood flood-opacity="0" result="BackgroundImageFix"/>
<feColorMatrix in="SourceAlpha" type="matrix" values="0 0 0 0 0 0 0 0 0 0 0 0 0 0 0 0 0 0 127 0"/>
<feOffset dx="4" dy="4"/>
<feGaussianBlur stdDeviation="2"/>
<feColorMatrix type="matrix" values="0 0 0 0 0 0 0 0 0 0 0 0 0 0 0 0 0 0 0.25 0"/>
<feBlend mode="normal" in2="BackgroundImageFix" result="effect1_dropShadow"/>
<feBlend mode="normal" in="SourceGraphic" in2="effect1_dropShadow" result="shape"/>
</filter>
<filter id="filter2_d" x="292" y="237" width="183" height="53" filterUnits="userSpaceOnUse" color-interpolation-filters="sRGB">
<feFlood flood-opacity="0" result="BackgroundImageFix"/>
<feColorMatrix in="SourceAlpha" type="matrix" values="0 0 0 0 0 0 0 0 0 0 0 0 0 0 0 0 0 0 127 0"/>
<feOffset dx="4" dy="4"/>
<feGaussianBlur stdDeviation="2"/>
<feColorMatrix type="matrix" values="0 0 0 0 0 0 0 0 0 0 0 0 0 0 0 0 0 0 0.25 0"/>
<feBlend mode="normal" in2="BackgroundImageFix" result="effect1_dropShadow"/>
<feBlend mode="normal" in="SourceGraphic" in2="effect1_dropShadow" result="shape"/>
</filter>
<filter id="filter3_d" x="0" y="55" width="183" height="53" filterUnits="userSpaceOnUse" color-interpolation-filters="sRGB">
<feFlood flood-opacity="0" result="BackgroundImageFix"/>
<feColorMatrix in="SourceAlpha" type="matrix" values="0 0 0 0 0 0 0 0 0 0 0 0 0 0 0 0 0 0 127 0"/>
<feOffset dx="4" dy="4"/>
<feGaussianBlur stdDeviation="2"/>
<feColorMatrix type="matrix" values="0 0 0 0 0 0 0 0 0 0 0 0 0 0 0 0 0 0 0.25 0"/>
<feBlend mode="normal" in2="BackgroundImageFix" result="effect1_dropShadow"/>
<feBlend mode="normal" in="SourceGraphic" in2="effect1_dropShadow" result="shape"/>
</filter>
<filter id="filter4_d" x="0" y="110" width="183" height="53" filterUnits="userSpaceOnUse" color-interpolation-filters="sRGB">
<feFlood flood-opacity="0" result="BackgroundImageFix"/>
<feColorMatrix in="SourceAlpha" type="matrix" values="0 0 0 0 0 0 0 0 0 0 0 0 0 0 0 0 0 0 127 0"/>
<feOffset dx="4" dy="4"/>
<feGaussianBlur stdDeviation="2"/>
<feColorMatrix type="matrix" values="0 0 0 0 0 0 0 0 0 0 0 0 0 0 0 0 0 0 0.25 0"/>
<feBlend mode="normal" in2="BackgroundImageFix" result="effect1_dropShadow"/>
<feBlend mode="normal" in="SourceGraphic" in2="effect1_dropShadow" result="shape"/>
</filter>
<filter id="filter5_d" x="572" y="128" width="183" height="53" filterUnits="userSpaceOnUse" color-interpolation-filters="sRGB">
<feFlood flood-opacity="0" result="BackgroundImageFix"/>
<feColorMatrix in="SourceAlpha" type="matrix" values="0 0 0 0 0 0 0 0 0 0 0 0 0 0 0 0 0 0 127 0"/>
<feOffset dx="4" dy="4"/>
<feGaussianBlur stdDeviation="2"/>
<feColorMatrix type="matrix" values="0 0 0 0 0 0 0 0 0 0 0 0 0 0 0 0 0 0 0.25 0"/>
<feBlend mode="normal" in2="BackgroundImageFix" result="effect1_dropShadow"/>
<feBlend mode="normal" in="SourceGraphic" in2="effect1_dropShadow" result="shape"/>
</filter>
</defs>
</svg>
