<svg width="558" height="508" viewBox="0 0 558 508" fill="none" xmlns="http://www.w3.org/2000/svg">
<g filter="url(#filter0_dii)">
<path d="M4 9.99999C4 4.47714 8.47715 0 14 0H544C549.523 0 554 4.47715 554 10V500H4V9.99999Z" fill="white"/>
<path d="M4 9.99999C4 4.47714 8.47715 0 14 0H544C549.523 0 554 4.47715 554 10V500H4V9.99999Z" fill="#5551FF" fill-opacity="0.05"/>
<path d="M4.5 9.99999C4.5 4.75329 8.75329 0.5 14 0.5H544C549.247 0.5 553.5 4.7533 553.5 10V499.5H4.5V9.99999Z" stroke="#D7D7D7"/>
</g>
<path d="M428.29 487.725V488H431.465V487.725C430.678 487.625 430.228 487.537 430.228 486.925V482.162H432.065V481.725H430.228V480.662C430.228 479.537 430.678 479.187 431.303 479.187C431.815 479.187 432.103 479.55 432.253 480.2L433.403 479.725C433.153 479.112 432.365 478.737 431.428 478.737C430.215 478.737 429.165 479.487 429.165 481.062V481.725H428.128V482.162H429.165V486.962C429.165 487.512 428.79 487.637 428.29 487.725ZM434.962 486.962V481.55H434.737L433.012 482.05V482.312L433.15 482.325C433.75 482.35 433.912 482.625 433.912 483.112V486.962C433.912 487.512 433.525 487.637 433.012 487.725V488H435.85V487.725C435.35 487.637 434.962 487.512 434.962 486.962ZM433.675 479.837C433.675 480.275 434 480.6 434.45 480.6C434.875 480.6 435.2 480.275 435.2 479.837C435.2 479.412 434.875 479.087 434.45 479.087C434 479.087 433.675 479.412 433.675 479.837ZM439.019 488.138C439.956 488.138 440.631 487.525 440.969 487.037V488.213C440.969 489.463 440.494 490.15 439.456 490.15C438.544 490.15 438.056 489.588 437.819 489.013L436.681 489.65C436.994 490.1 437.731 490.65 439.181 490.65C441.156 490.65 442.031 489.6 442.031 487.912V481.55H441.619L441.206 482.337C440.856 481.9 440.394 481.55 439.531 481.55C437.894 481.55 436.444 482.85 436.444 485.075C436.444 486.775 437.444 488.138 439.019 488.138ZM437.569 484.6C437.569 483.062 438.306 482 439.294 482C440.531 482 440.969 483.175 440.969 483.95V486.737C440.706 487.062 440.069 487.4 439.406 487.4C438.106 487.4 437.569 485.937 437.569 484.6ZM451.249 479.925V479.65H445.599L445.561 481.712H445.849C445.961 480.938 446.299 480.725 446.949 480.725H450.286C448.824 482.512 446.774 484.762 446.774 488H447.974C447.974 484.462 449.961 481.887 451.249 479.925ZM452.362 481.975C452.362 481.658 452.437 481.437 452.587 481.312C452.737 481.187 452.917 481.125 453.125 481.125C453.342 481.125 453.525 481.187 453.675 481.312C453.833 481.437 453.912 481.658 453.912 481.975C453.912 482.275 453.833 482.492 453.675 482.625C453.525 482.758 453.342 482.825 453.125 482.825C452.917 482.825 452.737 482.758 452.587 482.625C452.437 482.492 452.362 482.275 452.362 481.975ZM452.362 487.325C452.362 487.017 452.437 486.8 452.587 486.675C452.737 486.55 452.917 486.487 453.125 486.487C453.342 486.487 453.525 486.55 453.675 486.675C453.833 486.8 453.912 487.017 453.912 487.325C453.912 487.625 453.833 487.842 453.675 487.975C453.525 488.108 453.342 488.175 453.125 488.175C452.917 488.175 452.737 488.108 452.587 487.975C452.437 487.842 452.362 487.625 452.362 487.325ZM467.128 479.65H459.953L459.828 481.587H460.103C460.441 480.512 460.666 480.112 461.628 480.112H462.966V486.775C462.966 487.475 462.653 487.662 461.853 487.725V488H465.228V487.725C464.441 487.662 464.116 487.475 464.116 486.775V480.112H465.466C466.428 480.112 466.653 480.512 466.978 481.587H467.266L467.128 479.65ZM470.008 488.175C471.633 488.175 472.995 486.812 472.995 484.75C472.995 482.9 471.845 481.55 470.083 481.55C468.47 481.55 467.12 482.925 467.12 485C467.12 486.837 468.27 488.175 470.008 488.175ZM468.245 484.537C468.245 483.075 468.908 482.037 469.933 482.037C471.358 482.037 471.883 483.887 471.883 485.162C471.883 486.625 471.22 487.675 470.195 487.675C468.77 487.675 468.245 485.825 468.245 484.537ZM475.515 486.962V485.2L476.128 484.675L478.428 488H480.24V487.725C479.728 487.7 479.49 487.562 479.19 487.15L476.928 483.975L478.178 482.9C478.928 482.225 479.265 482.05 479.815 482V481.725H477.428V482C478.14 482 478.265 482.262 477.69 482.737L475.515 484.625V479.15H475.278L473.515 479.65V479.9L473.653 479.912C474.328 479.95 474.44 480.287 474.44 480.712V486.962C474.44 487.487 474.053 487.637 473.515 487.725V488H476.428V487.725C475.903 487.625 475.515 487.5 475.515 486.962ZM483.266 481.55C481.541 481.55 480.291 482.85 480.291 485.025C480.291 486.725 481.366 488.175 483.079 488.175C484.366 488.175 485.291 487.337 485.616 486.312L485.391 486.212C484.991 486.775 484.391 487.287 483.516 487.287C482.241 487.287 481.391 486.225 481.341 484.537H485.654C485.654 482.937 484.866 481.55 483.266 481.55ZM481.354 484.087C481.454 482.862 481.991 482.012 483.054 482.012C484.066 482.012 484.441 482.9 484.516 484.087H481.354ZM488.234 486.962V483.35C488.809 482.612 489.359 482.325 489.921 482.325C490.659 482.325 491.146 482.75 491.146 483.712V486.962C491.146 487.512 490.771 487.637 490.296 487.725V488H493.096V487.725C492.596 487.637 492.209 487.512 492.209 486.962V483.637C492.209 482.237 491.359 481.55 490.346 481.55C489.584 481.55 488.921 481.975 488.234 482.962V481.55H488.009L486.284 482.05V482.312L486.421 482.325C487.021 482.35 487.184 482.625 487.184 483.112V486.962C487.184 487.512 486.796 487.637 486.284 487.725V488H489.121V487.725C488.621 487.637 488.234 487.512 488.234 486.962ZM504.71 479.925V479.65H501.96V479.925C502.735 479.975 503.073 480.162 503.073 480.887V484.912C503.073 486.375 502.173 487.337 500.773 487.337C499.31 487.337 498.373 486.4 498.373 484.912V480.887C498.373 480.162 498.71 479.975 499.485 479.925V479.65H496.123V479.925C496.898 479.975 497.235 480.162 497.235 480.887V485.1C497.235 487.1 498.473 488.175 500.548 488.175C502.498 488.175 503.598 487 503.598 485.025V480.887C503.598 480.162 503.923 479.975 504.71 479.925ZM507.13 488.175C508.567 488.175 509.455 487.287 509.442 486.212C509.417 485.287 508.83 484.8 508.042 484.5L506.792 484.025C506.23 483.8 505.78 483.537 505.78 482.962C505.78 482.375 506.242 481.975 506.992 481.975C507.692 481.975 508.217 482.462 508.48 483.187L509.405 482.55C509.142 482.15 508.455 481.55 507.067 481.55C505.742 481.55 504.88 482.25 504.892 483.35C504.905 484.262 505.605 484.7 506.43 485.012L507.642 485.475C508.167 485.687 508.542 486.062 508.555 486.612C508.567 487.237 508.017 487.737 507.242 487.737C506.505 487.737 505.88 487.175 505.592 486.287L504.63 486.95C505.13 487.725 506.105 488.175 507.13 488.175ZM513.149 481.55C511.424 481.55 510.174 482.85 510.174 485.025C510.174 486.725 511.249 488.175 512.962 488.175C514.249 488.175 515.174 487.337 515.499 486.312L515.274 486.212C514.874 486.775 514.274 487.287 513.399 487.287C512.124 487.287 511.274 486.225 511.224 484.537H515.537C515.537 482.937 514.749 481.55 513.149 481.55ZM511.237 484.087C511.337 482.862 511.874 482.012 512.937 482.012C513.949 482.012 514.324 482.9 514.399 484.087H511.237ZM519.226 488.175C520.301 488.175 521.288 487.45 521.713 486.163L521.488 486.062C521.088 486.825 520.338 487.312 519.651 487.312C518.176 487.312 517.413 486.125 517.413 484.487C517.413 483.1 518.051 482.012 519.151 482.012C519.888 482.012 520.313 482.637 520.488 483.487L521.488 483C521.326 482.25 520.513 481.55 519.313 481.55C517.513 481.55 516.363 483.112 516.363 484.95C516.363 486.762 517.401 488.175 519.226 488.175ZM524.921 481.55C523.546 481.55 522.383 482.425 522.383 483.437C522.383 483.7 522.458 483.912 522.633 484.162L523.621 483.8C523.496 483.55 523.433 483.35 523.433 483.112C523.433 482.487 523.883 481.987 524.608 481.987C525.546 481.987 526.121 482.737 526.121 483.962V484.162L525.258 484.362C523.321 484.812 522.396 485.35 522.396 486.55C522.396 487.475 523.096 488.175 524.108 488.175C524.933 488.175 525.696 487.725 526.121 486.762V488.175H526.346L528.121 487.65V487.375H527.983C527.296 487.375 527.171 487.075 527.171 486.562V484C527.171 482.475 526.346 481.55 524.921 481.55ZM523.508 486.375C523.508 485.537 523.971 485.1 525.371 484.762L526.121 484.587V486.4C525.746 487.087 525.171 487.487 524.558 487.487C523.921 487.487 523.508 487.037 523.508 486.375ZM531.214 488.175C532.652 488.175 533.539 487.287 533.527 486.212C533.502 485.287 532.914 484.8 532.127 484.5L530.877 484.025C530.314 483.8 529.864 483.537 529.864 482.962C529.864 482.375 530.327 481.975 531.077 481.975C531.777 481.975 532.302 482.462 532.564 483.187L533.489 482.55C533.227 482.15 532.539 481.55 531.152 481.55C529.827 481.55 528.964 482.25 528.977 483.35C528.989 484.262 529.689 484.7 530.514 485.012L531.727 485.475C532.252 485.687 532.627 486.062 532.639 486.612C532.652 487.237 532.102 487.737 531.327 487.737C530.589 487.737 529.964 487.175 529.677 486.287L528.714 486.95C529.214 487.725 530.189 488.175 531.214 488.175ZM537.234 481.55C535.509 481.55 534.259 482.85 534.259 485.025C534.259 486.725 535.334 488.175 537.046 488.175C538.334 488.175 539.259 487.337 539.584 486.312L539.359 486.212C538.959 486.775 538.359 487.287 537.484 487.287C536.209 487.287 535.359 486.225 535.309 484.537H539.621C539.621 482.937 538.834 481.55 537.234 481.55ZM535.321 484.087C535.421 482.862 535.959 482.012 537.021 482.012C538.034 482.012 538.409 482.9 538.484 484.087H535.321Z" fill="#919191"/>
<path d="M221.5 185.5L340 266.5" stroke="#FFA451"/>
<g filter="url(#filter1_d)">
<circle cx="220" cy="184" r="19.5" fill="#F5F5F5"/>
<circle cx="220" cy="184" r="19.5" fill="url(#paint0_linear)"/>
<circle cx="220" cy="184" r="19.5" stroke="#5551FF"/>
<path d="M212.139 181.279C211.575 181.283 211.141 180.871 211.142 180.332C211.143 179.787 211.571 179.391 212.167 179.385C212.743 179.379 213.166 179.768 213.174 180.313C213.182 180.868 212.747 181.275 212.139 181.279Z" fill="#5551FF"/>
<path d="M213.067 179.254C212.543 179.258 212.092 178.816 212.094 178.302C212.097 177.745 212.555 177.329 213.163 177.332C213.676 177.335 214.115 177.764 214.127 178.274C214.14 178.821 213.678 179.249 213.067 179.254Z" fill="#5551FF"/>
<path d="M226.518 178.061C225.94 178.065 225.531 177.678 225.53 177.125C225.529 176.559 225.95 176.168 226.563 176.165C227.11 176.163 227.535 176.565 227.546 177.096C227.556 177.647 227.12 178.056 226.518 178.061Z" fill="#5551FF"/>
<path d="M224.577 179.153C224.579 178.607 225.03 178.198 225.628 178.198C226.159 178.198 226.6 178.636 226.595 179.156C226.589 179.701 226.134 180.111 225.539 180.11C225.002 180.108 224.575 179.683 224.577 179.153Z" fill="#5551FF"/>
<path d="M211.797 177.356C211.262 177.358 210.849 176.972 210.843 176.465C210.836 175.938 211.296 175.525 211.882 175.531C212.387 175.537 212.784 175.942 212.783 176.451C212.781 176.996 212.391 177.354 211.797 177.356Z" fill="#5551FF"/>
<path d="M227.799 179.867C227.273 179.87 226.847 179.461 226.854 178.96C226.861 178.447 227.293 178.052 227.858 178.045C228.359 178.039 228.779 178.447 228.783 178.944C228.787 179.47 228.368 179.862 227.799 179.867Z" fill="#5551FF"/>
<path d="M226.837 181.884C226.301 181.883 225.929 181.513 225.932 180.987C225.935 180.466 226.342 180.095 226.91 180.095C227.423 180.095 227.832 180.499 227.826 181C227.819 181.512 227.403 181.885 226.837 181.884Z" fill="#5551FF"/>
<path d="M218.578 190.392C218.072 190.395 217.684 190.025 217.682 189.54C217.68 189.039 218.095 188.654 218.638 188.657C219.131 188.659 219.522 189.047 219.52 189.529C219.517 190.033 219.129 190.389 218.578 190.392Z" fill="#5551FF"/>
<path d="M223.769 181.179C223.774 180.697 224.155 180.354 224.686 180.357C225.14 180.36 225.515 180.742 225.509 181.196C225.503 181.671 225.106 182.025 224.584 182.018C224.124 182.013 223.764 181.643 223.769 181.179Z" fill="#5551FF"/>
<path d="M214.337 180.957C213.891 180.948 213.512 180.563 213.524 180.13C213.537 179.648 213.937 179.296 214.456 179.308C214.901 179.318 215.276 179.7 215.271 180.137C215.266 180.609 214.857 180.967 214.337 180.957Z" fill="#5551FF"/>
<path d="M220.797 190.141C220.331 190.138 219.976 189.791 219.976 189.339C219.976 188.87 220.358 188.514 220.867 188.51C221.327 188.507 221.701 188.879 221.696 189.336C221.691 189.819 221.328 190.144 220.797 190.141Z" fill="#5551FF"/>
<path d="M219.886 192.157C219.389 192.163 219.04 191.837 219.039 191.368C219.038 190.92 219.405 190.575 219.892 190.565C220.367 190.555 220.723 190.884 220.731 191.339C220.738 191.828 220.405 192.151 219.886 192.157Z" fill="#5551FF"/>
<path d="M211.196 183.144C210.722 183.146 210.382 182.827 210.378 182.378C210.375 181.913 210.751 181.564 211.253 181.568C211.688 181.571 212.062 181.948 212.054 182.376C212.047 182.811 211.677 183.142 211.196 183.144Z" fill="#5551FF"/>
<path d="M210.851 179.268C210.389 179.27 210.035 178.937 210.033 178.498C210.03 178.051 210.398 177.711 210.892 177.702C211.336 177.694 211.71 178.051 211.709 178.482C211.708 178.943 211.356 179.266 210.851 179.268Z" fill="#5551FF"/>
<path d="M223.709 182.462C224.138 182.46 224.493 182.796 224.496 183.209C224.5 183.643 224.123 183.99 223.652 183.988C223.233 183.986 222.874 183.633 222.876 183.225C222.878 182.804 223.249 182.465 223.709 182.462Z" fill="#5551FF"/>
<path d="M211.504 186.991C211.091 186.989 210.749 186.649 210.748 186.238C210.746 185.82 211.132 185.476 211.593 185.485C212.008 185.492 212.348 185.833 212.348 186.241C212.347 186.67 211.985 186.992 211.504 186.991Z" fill="#5551FF"/>
<path d="M227.521 189.487C227.081 189.485 226.741 189.152 226.75 188.732C226.76 188.308 227.113 187.995 227.578 187.997C228.026 187.999 228.341 188.315 228.335 188.756C228.329 189.2 228.007 189.489 227.521 189.487Z" fill="#5551FF"/>
<path d="M217.29 188.429C216.844 188.428 216.516 188.109 216.52 187.68C216.524 187.251 216.865 186.94 217.335 186.938C217.771 186.936 218.113 187.271 218.107 187.692C218.102 188.122 217.759 188.43 217.29 188.429Z" fill="#5551FF"/>
<path d="M214.234 182.159C214.237 182.602 213.893 182.918 213.41 182.915C213 182.913 212.646 182.562 212.653 182.163C212.659 181.748 213.028 181.415 213.476 181.416C213.896 181.417 214.232 181.745 214.234 182.159Z" fill="#5551FF"/>
<path d="M221.761 188.029C221.323 188.029 221.005 187.724 221.002 187.301C220.998 186.866 221.357 186.537 221.83 186.544C222.239 186.55 222.591 186.902 222.584 187.299C222.575 187.726 222.233 188.029 221.761 188.029Z" fill="#5551FF"/>
<path d="M221.957 185.221C221.971 184.795 222.317 184.507 222.8 184.52C223.221 184.532 223.554 184.879 223.532 185.285C223.51 185.715 223.134 186.028 222.665 186.006C222.25 185.987 221.942 185.647 221.957 185.221Z" fill="#5551FF"/>
<path d="M228.135 183.55C227.701 183.549 227.394 183.254 227.394 182.835C227.394 182.414 227.73 182.104 228.187 182.107C228.605 182.11 228.933 182.43 228.932 182.831C228.931 183.256 228.605 183.55 228.135 183.55Z" fill="#5551FF"/>
<path d="M227.973 184.87C227.97 185.284 227.612 185.601 227.164 185.589C226.765 185.578 226.44 185.246 226.448 184.859C226.456 184.459 226.799 184.162 227.247 184.165C227.662 184.169 227.976 184.474 227.973 184.87Z" fill="#5551FF"/>
<path d="M211.906 189.407C212.322 189.406 212.624 189.702 212.625 190.112C212.626 190.525 212.298 190.829 211.853 190.828C211.47 190.827 211.142 190.508 211.136 190.13C211.13 189.725 211.468 189.408 211.906 189.407Z" fill="#5551FF"/>
<path d="M216.754 185.832C216.759 186.245 216.433 186.552 215.989 186.551C215.616 186.551 215.291 186.241 215.28 185.876C215.267 185.474 215.601 185.155 216.044 185.146C216.439 185.137 216.75 185.438 216.754 185.832Z" fill="#5551FF"/>
<path d="M227.446 175.778C227.061 175.771 226.734 175.438 226.748 175.067C226.765 174.66 227.082 174.391 227.533 174.402C227.925 174.411 228.226 174.711 228.22 175.085C228.213 175.479 227.869 175.786 227.446 175.778Z" fill="#5551FF"/>
<path d="M210.586 188.932C210.199 188.933 209.897 188.653 209.891 188.288C209.886 187.92 210.214 187.61 210.616 187.605C210.993 187.6 211.313 187.914 211.307 188.284C211.302 188.653 210.992 188.932 210.586 188.932Z" fill="#5551FF"/>
<path d="M214.747 183.362C215.134 183.36 215.436 183.643 215.435 184.007C215.434 184.377 215.126 184.655 214.717 184.654C214.33 184.653 214.057 184.393 214.053 184.021C214.049 183.625 214.324 183.364 214.747 183.362Z" fill="#5551FF"/>
<path d="M225.919 183.68C225.563 183.694 225.243 183.399 225.236 183.05C225.227 182.679 225.533 182.388 225.937 182.38C226.289 182.373 226.59 182.649 226.61 182.996C226.63 183.356 226.319 183.664 225.919 183.68Z" fill="#5551FF"/>
<path d="M212.525 183.565C212.909 183.568 213.181 183.837 213.178 184.21C213.175 184.576 212.879 184.85 212.483 184.851C212.116 184.853 211.81 184.564 211.808 184.213C211.805 183.841 212.115 183.562 212.525 183.565Z" fill="#5551FF"/>
<path d="M215.727 181.323C216.072 181.328 216.37 181.624 216.373 181.965C216.375 182.327 216.047 182.63 215.659 182.623C215.292 182.617 215.005 182.326 215.01 181.967C215.015 181.588 215.317 181.318 215.727 181.323Z" fill="#5551FF"/>
<path d="M228.468 187.325C228.09 187.322 227.836 187.065 227.844 186.69C227.851 186.327 228.135 186.076 228.533 186.082C228.878 186.087 229.167 186.366 229.172 186.697C229.177 187.054 228.868 187.329 228.468 187.325Z" fill="#5551FF"/>
<path d="M228.735 177.524C228.388 177.518 228.132 177.258 228.139 176.916C228.146 176.564 228.429 176.311 228.807 176.319C229.143 176.326 229.417 176.604 229.41 176.93C229.4 177.279 229.116 177.53 228.735 177.524Z" fill="#5551FF"/>
<path d="M226.588 191.348C226.262 191.35 226.002 191.107 225.993 190.794C225.984 190.467 226.255 190.213 226.615 190.211C226.939 190.209 227.203 190.453 227.213 190.764C227.223 191.087 226.945 191.347 226.588 191.348Z" fill="#5551FF"/>
<path d="M210.239 184.952C209.926 184.949 209.67 184.698 209.675 184.397C209.68 184.075 209.95 183.833 210.297 183.842C210.596 183.85 210.847 184.096 210.851 184.387C210.856 184.705 210.585 184.955 210.239 184.952Z" fill="#5551FF"/>
<path d="M229.425 190.571C229.431 190.87 229.163 191.131 228.842 191.139C228.532 191.147 228.264 190.906 228.254 190.61C228.243 190.295 228.512 190.031 228.847 190.028C229.151 190.026 229.419 190.276 229.425 190.571Z" fill="#5551FF"/>
<path d="M210.381 192.119C210.397 191.819 210.661 191.604 210.988 191.621C211.287 191.637 211.516 191.874 211.507 192.157C211.498 192.463 211.218 192.707 210.895 192.687C210.595 192.67 210.365 192.415 210.381 192.119Z" fill="#5551FF"/>
<path d="M216.419 183.824C216.417 183.519 216.662 183.28 216.981 183.274C217.279 183.269 217.538 183.512 217.543 183.8C217.548 184.095 217.291 184.341 216.973 184.346C216.661 184.35 216.421 184.124 216.419 183.824Z" fill="#5551FF"/>
<path d="M219.534 188.022C219.226 188.017 218.987 187.779 218.991 187.484C218.996 187.188 219.265 186.949 219.58 186.961C219.871 186.972 220.115 187.213 220.113 187.488C220.111 187.784 219.848 188.027 219.534 188.022Z" fill="#5551FF"/>
<path d="M209.915 181.025C209.626 181.026 209.389 180.806 209.386 180.533C209.383 180.25 209.617 180.031 209.93 180.027C210.22 180.023 210.45 180.24 210.454 180.519C210.458 180.804 210.224 181.024 209.915 181.025Z" fill="#5551FF"/>
<path d="M226.783 186.909C226.779 187.196 226.537 187.417 226.237 187.407C225.965 187.398 225.738 187.174 225.737 186.913C225.736 186.629 225.973 186.403 226.275 186.402C226.56 186.401 226.788 186.628 226.783 186.909Z" fill="#5551FF"/>
<path d="M210.538 174.15C210.827 174.15 211.023 174.334 211.025 174.606C211.028 174.884 210.82 175.086 210.529 175.085C210.257 175.085 210.037 174.88 210.032 174.625C210.028 174.36 210.252 174.15 210.538 174.15Z" fill="#5551FF"/>
<path d="M212.826 188.529C212.558 188.527 212.354 188.333 212.351 188.078C212.348 187.827 212.571 187.62 212.851 187.618C213.109 187.616 213.322 187.822 213.324 188.074C213.325 188.334 213.109 188.531 212.826 188.529Z" fill="#5551FF"/>
<path d="M229.126 180.344C229.398 180.347 229.592 180.537 229.588 180.799C229.584 181.062 229.367 181.264 229.091 181.26C228.839 181.257 228.618 181.039 228.622 180.796C228.627 180.536 228.845 180.341 229.126 180.344Z" fill="#5551FF"/>
<path d="M217.667 191.115C217.934 191.117 218.135 191.316 218.129 191.568C218.123 191.821 217.922 192.004 217.648 192.004C217.369 192.004 217.177 191.826 217.176 191.565C217.174 191.299 217.377 191.112 217.667 191.115Z" fill="#5551FF"/>
<path d="M214.078 175.812C214.349 175.816 214.542 176.007 214.535 176.268C214.528 176.534 214.321 176.71 214.027 176.701C213.772 176.694 213.578 176.501 213.578 176.259C213.578 176 213.793 175.808 214.078 175.812Z" fill="#5551FF"/>
<path d="M224.526 185.066C224.526 184.822 224.729 184.633 224.988 184.633C225.23 184.633 225.42 184.821 225.417 185.062C225.416 185.312 225.22 185.499 224.96 185.495C224.719 185.493 224.526 185.302 224.526 185.066Z" fill="#5551FF"/>
<path d="M212.754 174.836C212.498 174.833 212.322 174.658 212.327 174.411C212.332 174.174 212.524 174 212.775 174C213.027 174 213.218 174.178 213.219 174.414C213.221 174.657 213.02 174.839 212.754 174.836Z" fill="#5551FF"/>
<path d="M218.245 186.063C217.993 186.059 217.819 185.881 217.83 185.633C217.839 185.399 218.034 185.227 218.284 185.233C218.516 185.239 218.704 185.419 218.708 185.642C218.711 185.884 218.51 186.067 218.245 186.063Z" fill="#5551FF"/>
<path d="M209.657 189.906C209.9 189.905 210.086 190.07 210.092 190.294C210.099 190.515 209.894 190.721 209.66 190.729C209.414 190.737 209.222 190.557 209.219 190.316C209.217 190.074 209.395 189.907 209.657 189.906Z" fill="#5551FF"/>
<path d="M227.88 193.011C227.639 193.01 227.455 192.834 227.461 192.611C227.466 192.392 227.655 192.224 227.899 192.224C228.135 192.224 228.324 192.405 228.318 192.626C228.311 192.849 228.125 193.013 227.88 193.011Z" fill="#5551FF"/>
<path d="M225.654 175.281C225.652 175.494 225.472 175.66 225.236 175.663C225.011 175.666 224.829 175.485 224.837 175.269C224.845 175.058 225.032 174.898 225.266 174.905C225.488 174.911 225.655 175.074 225.654 175.281Z" fill="#5551FF"/>
<path d="M224.697 177.308C224.699 177.517 224.508 177.698 224.285 177.696C224.072 177.695 223.897 177.526 223.895 177.317C223.893 177.102 224.078 176.926 224.302 176.929C224.514 176.933 224.695 177.107 224.697 177.308Z" fill="#5551FF"/>
<path d="M229.843 184.664C229.846 184.889 229.683 185.05 229.449 185.052C229.222 185.056 229.061 184.91 229.054 184.694C229.046 184.463 229.227 184.281 229.46 184.284C229.67 184.288 229.84 184.456 229.843 184.664Z" fill="#5551FF"/>
<path d="M216.367 190.086C216.146 190.09 215.974 189.931 215.976 189.723C215.978 189.523 216.158 189.356 216.372 189.357C216.583 189.358 216.743 189.509 216.748 189.711C216.753 189.921 216.591 190.082 216.367 190.086Z" fill="#5551FF"/>
<path d="M223.734 179.339C223.74 179.53 223.573 179.701 223.369 179.714C223.146 179.728 222.971 179.574 222.966 179.361C222.961 179.147 223.124 178.987 223.35 178.985C223.554 178.985 223.728 179.144 223.734 179.339Z" fill="#5551FF"/>
<path d="M209.955 176.652C209.954 176.859 209.801 177.001 209.58 177.001C209.361 177.001 209.21 176.855 209.213 176.646C209.216 176.445 209.38 176.288 209.589 176.287C209.794 176.287 209.957 176.448 209.955 176.652Z" fill="#5551FF"/>
<path d="M223.066 189.484C222.86 189.483 222.714 189.342 222.713 189.141C222.712 188.933 222.869 188.786 223.086 188.788C223.292 188.79 223.444 188.937 223.444 189.131C223.444 189.335 223.283 189.485 223.066 189.484Z" fill="#5551FF"/>
<path d="M224.021 187.445C223.822 187.447 223.667 187.293 223.67 187.097C223.673 186.902 223.827 186.755 224.03 186.755C224.22 186.755 224.391 186.921 224.389 187.104C224.387 187.287 224.22 187.443 224.021 187.445Z" fill="#5551FF"/>
<path d="M221.807 183.407C221.813 183.6 221.663 183.746 221.453 183.748C221.247 183.75 221.119 183.654 221.102 183.441C221.086 183.244 221.233 183.088 221.434 183.078C221.624 183.068 221.801 183.223 221.807 183.407Z" fill="#5551FF"/>
<path d="M222.738 181.387C222.735 181.568 222.581 181.716 222.395 181.717C222.208 181.718 222.057 181.57 222.059 181.386C222.06 181.203 222.211 181.059 222.4 181.058C222.587 181.056 222.741 181.206 222.738 181.387Z" fill="#5551FF"/>
<path d="M222.111 191.493C221.921 191.487 221.775 191.335 221.794 191.15C221.814 190.95 221.936 190.856 222.131 190.854C222.324 190.852 222.473 191 222.468 191.181C222.463 191.358 222.301 191.499 222.111 191.493Z" fill="#5551FF"/>
<path d="M220.829 185.468C220.824 185.655 220.675 185.791 220.479 185.776C220.287 185.761 220.17 185.651 220.159 185.457C220.149 185.284 220.318 185.133 220.503 185.133C220.692 185.133 220.834 185.279 220.829 185.468Z" fill="#5551FF"/>
<path d="M213.451 186.025C213.461 185.837 213.609 185.715 213.814 185.728C214.014 185.742 214.122 185.853 214.127 186.05C214.132 186.232 213.972 186.367 213.775 186.362C213.579 186.358 213.44 186.213 213.451 186.025Z" fill="#5551FF"/>
<path d="M215.349 177.788C215.524 177.787 215.683 177.937 215.667 178.103C215.649 178.301 215.522 178.402 215.331 178.4C215.145 178.398 215.04 178.282 215.025 178.101C215.013 177.938 215.176 177.789 215.349 177.788Z" fill="#5551FF"/>
<path d="M209.309 186.73C209.128 186.724 209.007 186.627 209 186.443C208.993 186.254 209.118 186.156 209.299 186.139C209.478 186.122 209.641 186.266 209.631 186.437C209.618 186.625 209.496 186.713 209.309 186.73Z" fill="#5551FF"/>
<path d="M218.927 193.687C218.76 193.663 218.64 193.578 218.648 193.397C218.656 193.22 218.768 193.126 218.947 193.13C219.127 193.134 219.235 193.231 219.23 193.41C219.224 193.591 219.098 193.669 218.927 193.687Z" fill="#5551FF"/>
<path d="M215.37 187.89C215.341 188.066 215.234 188.165 215.061 188.159C214.899 188.154 214.796 188.053 214.784 187.888C214.773 187.734 214.941 187.587 215.104 187.605C215.269 187.624 215.352 187.729 215.37 187.89Z" fill="#5551FF"/>
<path d="M229.783 188.278C229.957 188.288 230.064 188.378 230.071 188.541C230.077 188.708 229.965 188.808 229.804 188.815C229.631 188.823 229.512 188.731 229.513 188.545C229.515 188.372 229.633 188.3 229.783 188.278Z" fill="#5551FF"/>
</g>
<path d="M255.5 348L338 265" stroke="#FFA451"/>
<g filter="url(#filter2_d)">
<path d="M220 173L213.505 165.5L226.495 165.5L220 173Z" fill="white"/>
<rect x="179" y="132" width="83" height="33" rx="5" fill="white" stroke="white" stroke-width="2"/>
<path d="M215.249 150.246C215.249 148.315 213.805 147.937 212.063 147.627V144.481C213.049 144.711 213.643 145.453 213.67 146.574L214.952 146.331C214.75 144.441 213.575 143.617 212.063 143.428V142.632H211.051V143.401C209.606 143.482 208.054 144.238 208.054 146.047C208.054 147.829 209.606 148.369 211.024 148.707H211.051V152.095C209.903 151.92 209.107 151.137 209.066 149.854L207.77 149.989C207.824 151.947 209.269 152.959 211.051 153.135V153.918H212.063V153.149C213.656 153.041 215.249 152.338 215.249 150.246ZM209.309 145.993C209.309 145.021 210.146 144.508 211.051 144.414V147.424C210.119 147.195 209.309 146.83 209.309 145.993ZM212.063 148.923C213.089 149.125 213.98 149.355 213.98 150.34C213.98 151.501 213.13 152.001 212.063 152.109V148.923ZM223.726 150.246C223.726 148.315 222.282 147.937 220.54 147.627V144.481C221.526 144.711 222.12 145.453 222.147 146.574L223.429 146.331C223.227 144.441 222.052 143.617 220.54 143.428V142.632H219.528V143.401C218.083 143.482 216.531 144.238 216.531 146.047C216.531 147.829 218.083 148.369 219.501 148.707H219.528V152.095C218.38 151.92 217.584 151.137 217.543 149.854L216.247 149.989C216.301 151.947 217.746 152.959 219.528 153.135V153.918H220.54V153.149C222.133 153.041 223.726 152.338 223.726 150.246ZM217.786 145.993C217.786 145.021 218.623 144.508 219.528 144.414V147.424C218.596 147.195 217.786 146.83 217.786 145.993ZM220.54 148.923C221.566 149.125 222.457 149.355 222.457 150.34C222.457 151.501 221.607 152.001 220.54 152.109V148.923ZM232.204 150.246C232.204 148.315 230.759 147.937 229.018 147.627V144.481C230.003 144.711 230.597 145.453 230.624 146.574L231.907 146.331C231.704 144.441 230.53 143.617 229.018 143.428V142.632H228.005V143.401C226.561 143.482 225.008 144.238 225.008 146.047C225.008 147.829 226.561 148.369 227.978 148.707H228.005V152.095C226.858 151.92 226.061 151.137 226.021 149.854L224.725 149.989C224.779 151.947 226.223 152.959 228.005 153.135V153.918H229.018V153.149C230.611 153.041 232.204 152.338 232.204 150.246ZM226.264 145.993C226.264 145.021 227.101 144.508 228.005 144.414V147.424C227.074 147.195 226.264 146.83 226.264 145.993ZM229.018 148.923C230.044 149.125 230.935 149.355 230.935 150.34C230.935 151.501 230.084 152.001 229.018 152.109V148.923Z" fill="#FFA451"/>
</g>
<g filter="url(#filter3_d)">
<circle cx="338" cy="264" r="19.5" fill="#F5F5F5"/>
<circle cx="338" cy="264" r="19.5" fill="url(#paint1_linear)"/>
<circle cx="338" cy="264" r="19.5" stroke="#5551FF"/>
<circle cx="256" cy="349" r="19.5" fill="#F5F5F5"/>
<circle cx="256" cy="349" r="19.5" fill="url(#paint2_linear)"/>
<circle cx="256" cy="349" r="19.5" stroke="#5551FF"/>
<path d="M330.139 261.279C329.575 261.283 329.141 260.871 329.142 260.332C329.143 259.787 329.571 259.391 330.167 259.385C330.743 259.379 331.166 259.768 331.174 260.313C331.182 260.868 330.747 261.275 330.139 261.279Z" fill="#5551FF"/>
<path d="M331.067 259.254C330.543 259.258 330.092 258.816 330.094 258.302C330.097 257.745 330.555 257.329 331.163 257.332C331.676 257.335 332.115 257.764 332.127 258.274C332.14 258.821 331.678 259.249 331.067 259.254Z" fill="#5551FF"/>
<path d="M344.518 258.061C343.94 258.065 343.531 257.678 343.53 257.125C343.529 256.559 343.95 256.168 344.563 256.165C345.11 256.163 345.535 256.565 345.546 257.096C345.556 257.647 345.12 258.056 344.518 258.061Z" fill="#5551FF"/>
<path d="M342.577 259.153C342.579 258.607 343.03 258.198 343.628 258.198C344.159 258.198 344.6 258.636 344.595 259.156C344.589 259.701 344.134 260.111 343.539 260.11C343.002 260.108 342.575 259.683 342.577 259.153Z" fill="#5551FF"/>
<path d="M329.797 257.356C329.262 257.358 328.849 256.972 328.843 256.465C328.836 255.938 329.296 255.525 329.882 255.531C330.387 255.537 330.784 255.942 330.783 256.451C330.781 256.996 330.391 257.354 329.797 257.356Z" fill="#5551FF"/>
<path d="M345.799 259.867C345.273 259.87 344.847 259.461 344.854 258.96C344.861 258.447 345.293 258.052 345.858 258.045C346.359 258.039 346.779 258.447 346.783 258.944C346.787 259.47 346.368 259.862 345.799 259.867Z" fill="#5551FF"/>
<path d="M344.837 261.884C344.301 261.883 343.929 261.513 343.932 260.987C343.935 260.466 344.342 260.095 344.91 260.095C345.423 260.095 345.832 260.499 345.826 261C345.819 261.512 345.403 261.885 344.837 261.884Z" fill="#5551FF"/>
<path d="M336.578 270.392C336.072 270.395 335.684 270.025 335.682 269.54C335.68 269.039 336.095 268.654 336.638 268.657C337.131 268.659 337.522 269.047 337.52 269.529C337.517 270.033 337.129 270.389 336.578 270.392Z" fill="#5551FF"/>
<path d="M341.769 261.179C341.774 260.697 342.155 260.354 342.686 260.357C343.14 260.36 343.515 260.742 343.509 261.196C343.503 261.671 343.106 262.025 342.584 262.018C342.124 262.013 341.764 261.643 341.769 261.179Z" fill="#5551FF"/>
<path d="M332.337 260.957C331.891 260.948 331.512 260.563 331.524 260.13C331.537 259.648 331.937 259.296 332.456 259.308C332.901 259.318 333.276 259.7 333.271 260.137C333.266 260.609 332.857 260.967 332.337 260.957Z" fill="#5551FF"/>
<path d="M338.797 270.141C338.331 270.138 337.976 269.791 337.976 269.339C337.976 268.87 338.358 268.514 338.867 268.51C339.327 268.507 339.701 268.879 339.696 269.336C339.691 269.819 339.328 270.144 338.797 270.141Z" fill="#5551FF"/>
<path d="M337.886 272.157C337.389 272.163 337.04 271.837 337.039 271.368C337.038 270.92 337.405 270.575 337.892 270.565C338.367 270.555 338.723 270.884 338.731 271.339C338.738 271.828 338.405 272.151 337.886 272.157Z" fill="#5551FF"/>
<path d="M329.196 263.144C328.722 263.146 328.382 262.827 328.378 262.378C328.375 261.913 328.751 261.564 329.253 261.568C329.688 261.571 330.062 261.948 330.054 262.376C330.047 262.811 329.677 263.142 329.196 263.144Z" fill="#5551FF"/>
<path d="M328.851 259.268C328.389 259.27 328.035 258.937 328.033 258.498C328.03 258.051 328.398 257.711 328.892 257.702C329.336 257.694 329.71 258.051 329.709 258.482C329.708 258.943 329.356 259.266 328.851 259.268Z" fill="#5551FF"/>
<path d="M341.709 262.462C342.138 262.46 342.493 262.796 342.496 263.209C342.5 263.643 342.123 263.99 341.652 263.988C341.233 263.986 340.874 263.633 340.876 263.225C340.878 262.804 341.249 262.465 341.709 262.462Z" fill="#5551FF"/>
<path d="M329.504 266.991C329.091 266.989 328.749 266.649 328.748 266.238C328.746 265.82 329.132 265.476 329.593 265.485C330.008 265.492 330.348 265.833 330.348 266.241C330.347 266.67 329.985 266.992 329.504 266.991Z" fill="#5551FF"/>
<path d="M345.521 269.487C345.081 269.485 344.741 269.152 344.75 268.732C344.76 268.308 345.113 267.995 345.578 267.997C346.026 267.999 346.341 268.315 346.335 268.756C346.329 269.2 346.007 269.489 345.521 269.487Z" fill="#5551FF"/>
<path d="M335.29 268.429C334.844 268.428 334.516 268.109 334.52 267.68C334.524 267.251 334.865 266.94 335.335 266.938C335.771 266.936 336.113 267.271 336.107 267.692C336.102 268.122 335.759 268.43 335.29 268.429Z" fill="#5551FF"/>
<path d="M332.234 262.159C332.237 262.602 331.893 262.918 331.41 262.915C331 262.913 330.646 262.562 330.653 262.163C330.659 261.748 331.028 261.415 331.476 261.416C331.896 261.417 332.232 261.745 332.234 262.159Z" fill="#5551FF"/>
<path d="M339.761 268.029C339.323 268.029 339.005 267.724 339.002 267.301C338.998 266.866 339.357 266.537 339.83 266.544C340.239 266.55 340.591 266.902 340.584 267.299C340.575 267.726 340.233 268.029 339.761 268.029Z" fill="#5551FF"/>
<path d="M339.957 265.221C339.971 264.795 340.317 264.507 340.8 264.52C341.221 264.532 341.554 264.879 341.532 265.285C341.51 265.715 341.134 266.028 340.665 266.006C340.25 265.987 339.942 265.647 339.957 265.221Z" fill="#5551FF"/>
<path d="M346.135 263.55C345.701 263.549 345.394 263.254 345.394 262.835C345.394 262.414 345.73 262.104 346.187 262.107C346.605 262.11 346.933 262.43 346.932 262.831C346.931 263.256 346.605 263.55 346.135 263.55Z" fill="#5551FF"/>
<path d="M345.973 264.87C345.97 265.284 345.612 265.601 345.164 265.589C344.765 265.578 344.44 265.246 344.448 264.859C344.456 264.459 344.799 264.162 345.247 264.165C345.662 264.169 345.976 264.474 345.973 264.87Z" fill="#5551FF"/>
<path d="M329.906 269.407C330.322 269.406 330.624 269.702 330.625 270.112C330.626 270.525 330.298 270.829 329.853 270.828C329.47 270.827 329.142 270.508 329.136 270.13C329.13 269.725 329.468 269.408 329.906 269.407Z" fill="#5551FF"/>
<path d="M334.754 265.832C334.759 266.245 334.433 266.552 333.989 266.551C333.616 266.551 333.291 266.241 333.28 265.876C333.267 265.474 333.601 265.155 334.044 265.146C334.439 265.137 334.75 265.438 334.754 265.832Z" fill="#5551FF"/>
<path d="M345.446 255.778C345.061 255.771 344.734 255.438 344.748 255.067C344.765 254.66 345.082 254.391 345.533 254.402C345.925 254.411 346.226 254.711 346.22 255.085C346.213 255.479 345.869 255.786 345.446 255.778Z" fill="#5551FF"/>
<path d="M328.586 268.932C328.199 268.933 327.897 268.653 327.891 268.288C327.886 267.92 328.214 267.61 328.616 267.605C328.993 267.6 329.313 267.914 329.307 268.284C329.302 268.653 328.992 268.932 328.586 268.932Z" fill="#5551FF"/>
<path d="M332.747 263.362C333.134 263.36 333.436 263.643 333.435 264.007C333.434 264.377 333.126 264.655 332.717 264.654C332.33 264.653 332.057 264.393 332.053 264.021C332.049 263.625 332.324 263.364 332.747 263.362Z" fill="#5551FF"/>
<path d="M343.919 263.68C343.563 263.694 343.243 263.399 343.236 263.05C343.227 262.679 343.533 262.388 343.937 262.38C344.289 262.373 344.59 262.649 344.61 262.996C344.63 263.356 344.319 263.664 343.919 263.68Z" fill="#5551FF"/>
<path d="M330.525 263.565C330.909 263.568 331.181 263.837 331.178 264.21C331.175 264.576 330.879 264.85 330.483 264.851C330.116 264.853 329.81 264.564 329.808 264.213C329.805 263.841 330.115 263.562 330.525 263.565Z" fill="#5551FF"/>
<path d="M333.727 261.323C334.072 261.328 334.37 261.624 334.373 261.965C334.375 262.327 334.047 262.63 333.659 262.623C333.292 262.617 333.005 262.326 333.01 261.967C333.015 261.588 333.317 261.318 333.727 261.323Z" fill="#5551FF"/>
<path d="M346.468 267.325C346.09 267.322 345.836 267.065 345.844 266.69C345.851 266.327 346.135 266.076 346.533 266.082C346.878 266.087 347.167 266.366 347.172 266.697C347.177 267.054 346.868 267.329 346.468 267.325Z" fill="#5551FF"/>
<path d="M346.735 257.524C346.388 257.518 346.132 257.258 346.139 256.916C346.146 256.564 346.429 256.311 346.807 256.319C347.143 256.326 347.417 256.604 347.41 256.93C347.4 257.279 347.116 257.53 346.735 257.524Z" fill="#5551FF"/>
<path d="M344.588 271.348C344.262 271.35 344.002 271.107 343.993 270.794C343.984 270.467 344.255 270.213 344.615 270.211C344.939 270.209 345.203 270.453 345.213 270.764C345.223 271.087 344.945 271.347 344.588 271.348Z" fill="#5551FF"/>
<path d="M328.239 264.952C327.926 264.949 327.67 264.698 327.675 264.397C327.68 264.075 327.95 263.833 328.297 263.842C328.596 263.85 328.847 264.096 328.851 264.387C328.856 264.705 328.585 264.955 328.239 264.952Z" fill="#5551FF"/>
<path d="M347.425 270.571C347.431 270.87 347.163 271.131 346.842 271.139C346.532 271.147 346.264 270.906 346.254 270.61C346.243 270.295 346.512 270.031 346.847 270.028C347.151 270.026 347.419 270.276 347.425 270.571Z" fill="#5551FF"/>
<path d="M328.381 272.119C328.397 271.819 328.661 271.604 328.988 271.621C329.287 271.637 329.516 271.874 329.507 272.157C329.498 272.463 329.218 272.707 328.895 272.687C328.595 272.67 328.365 272.415 328.381 272.119Z" fill="#5551FF"/>
<path d="M334.419 263.824C334.417 263.519 334.662 263.28 334.981 263.274C335.279 263.269 335.538 263.512 335.543 263.8C335.548 264.095 335.291 264.341 334.973 264.346C334.661 264.35 334.421 264.124 334.419 263.824Z" fill="#5551FF"/>
<path d="M337.534 268.022C337.226 268.017 336.987 267.779 336.991 267.484C336.996 267.188 337.265 266.949 337.58 266.961C337.871 266.972 338.115 267.213 338.113 267.488C338.111 267.784 337.848 268.027 337.534 268.022Z" fill="#5551FF"/>
<path d="M327.915 261.025C327.626 261.026 327.389 260.806 327.386 260.533C327.383 260.25 327.617 260.031 327.93 260.027C328.22 260.023 328.45 260.24 328.454 260.519C328.458 260.804 328.224 261.024 327.915 261.025Z" fill="#5551FF"/>
<path d="M344.783 266.909C344.779 267.196 344.537 267.417 344.237 267.407C343.965 267.398 343.738 267.174 343.737 266.913C343.736 266.629 343.973 266.403 344.275 266.402C344.56 266.401 344.788 266.628 344.783 266.909Z" fill="#5551FF"/>
<path d="M328.538 254.15C328.827 254.15 329.023 254.334 329.025 254.606C329.028 254.884 328.82 255.086 328.529 255.085C328.257 255.085 328.037 254.88 328.032 254.625C328.028 254.36 328.252 254.15 328.538 254.15Z" fill="#5551FF"/>
<path d="M330.826 268.529C330.558 268.527 330.354 268.333 330.351 268.078C330.348 267.827 330.571 267.62 330.851 267.618C331.109 267.616 331.322 267.822 331.324 268.074C331.325 268.334 331.109 268.531 330.826 268.529Z" fill="#5551FF"/>
<path d="M347.126 260.344C347.398 260.347 347.592 260.537 347.588 260.799C347.584 261.062 347.367 261.264 347.091 261.26C346.839 261.257 346.618 261.039 346.622 260.796C346.627 260.536 346.845 260.341 347.126 260.344Z" fill="#5551FF"/>
<path d="M335.667 271.115C335.934 271.117 336.135 271.316 336.129 271.568C336.123 271.821 335.922 272.004 335.648 272.004C335.369 272.004 335.177 271.826 335.176 271.565C335.174 271.299 335.377 271.112 335.667 271.115Z" fill="#5551FF"/>
<path d="M332.078 255.812C332.349 255.816 332.542 256.007 332.535 256.268C332.528 256.534 332.321 256.71 332.027 256.701C331.772 256.694 331.578 256.501 331.578 256.259C331.578 256 331.793 255.808 332.078 255.812Z" fill="#5551FF"/>
<path d="M342.526 265.066C342.526 264.822 342.729 264.633 342.988 264.633C343.23 264.633 343.42 264.821 343.417 265.062C343.416 265.312 343.22 265.499 342.96 265.495C342.719 265.493 342.526 265.302 342.526 265.066Z" fill="#5551FF"/>
<path d="M330.754 254.836C330.498 254.833 330.322 254.658 330.327 254.411C330.332 254.174 330.524 254 330.775 254C331.027 254 331.218 254.178 331.219 254.414C331.221 254.657 331.02 254.839 330.754 254.836Z" fill="#5551FF"/>
<path d="M336.245 266.063C335.993 266.059 335.819 265.881 335.83 265.633C335.839 265.399 336.034 265.227 336.284 265.233C336.516 265.239 336.704 265.419 336.708 265.642C336.711 265.884 336.51 266.067 336.245 266.063Z" fill="#5551FF"/>
<path d="M327.657 269.906C327.9 269.905 328.086 270.07 328.092 270.294C328.099 270.515 327.894 270.721 327.66 270.729C327.414 270.737 327.222 270.557 327.219 270.316C327.217 270.074 327.395 269.907 327.657 269.906Z" fill="#5551FF"/>
<path d="M345.88 273.011C345.639 273.01 345.455 272.834 345.461 272.611C345.466 272.392 345.655 272.224 345.899 272.224C346.135 272.224 346.324 272.405 346.318 272.626C346.311 272.849 346.125 273.013 345.88 273.011Z" fill="#5551FF"/>
<path d="M343.654 255.281C343.652 255.494 343.472 255.66 343.236 255.663C343.011 255.666 342.829 255.485 342.837 255.269C342.845 255.058 343.032 254.898 343.266 254.905C343.488 254.911 343.655 255.074 343.654 255.281Z" fill="#5551FF"/>
<path d="M342.697 257.308C342.699 257.517 342.508 257.698 342.285 257.696C342.072 257.695 341.897 257.526 341.895 257.317C341.893 257.102 342.078 256.926 342.302 256.929C342.514 256.933 342.695 257.107 342.697 257.308Z" fill="#5551FF"/>
<path d="M347.843 264.664C347.846 264.889 347.683 265.05 347.449 265.052C347.222 265.056 347.061 264.91 347.054 264.694C347.046 264.463 347.227 264.281 347.46 264.284C347.67 264.288 347.84 264.456 347.843 264.664Z" fill="#5551FF"/>
<path d="M334.367 270.086C334.146 270.09 333.974 269.931 333.976 269.723C333.978 269.523 334.158 269.356 334.372 269.357C334.583 269.358 334.743 269.509 334.748 269.711C334.753 269.921 334.591 270.082 334.367 270.086Z" fill="#5551FF"/>
<path d="M341.734 259.339C341.74 259.53 341.573 259.701 341.369 259.714C341.146 259.728 340.971 259.574 340.966 259.361C340.961 259.147 341.124 258.987 341.35 258.985C341.554 258.985 341.728 259.144 341.734 259.339Z" fill="#5551FF"/>
<path d="M327.955 256.652C327.954 256.859 327.801 257.001 327.58 257.001C327.361 257.001 327.21 256.855 327.213 256.646C327.216 256.445 327.38 256.288 327.589 256.287C327.794 256.287 327.957 256.448 327.955 256.652Z" fill="#5551FF"/>
<path d="M341.066 269.484C340.86 269.483 340.714 269.342 340.713 269.141C340.712 268.933 340.869 268.786 341.086 268.788C341.292 268.79 341.444 268.937 341.444 269.131C341.444 269.335 341.283 269.485 341.066 269.484Z" fill="#5551FF"/>
<path d="M342.021 267.445C341.822 267.447 341.667 267.293 341.67 267.097C341.673 266.902 341.827 266.755 342.03 266.755C342.22 266.755 342.391 266.921 342.389 267.104C342.387 267.287 342.22 267.443 342.021 267.445Z" fill="#5551FF"/>
<path d="M339.807 263.407C339.813 263.6 339.663 263.746 339.453 263.748C339.247 263.75 339.119 263.654 339.102 263.441C339.086 263.244 339.233 263.088 339.434 263.078C339.624 263.068 339.801 263.223 339.807 263.407Z" fill="#5551FF"/>
<path d="M340.738 261.387C340.735 261.568 340.581 261.716 340.395 261.717C340.208 261.718 340.057 261.57 340.059 261.386C340.06 261.203 340.211 261.059 340.4 261.058C340.587 261.056 340.741 261.206 340.738 261.387Z" fill="#5551FF"/>
<path d="M340.111 271.493C339.921 271.487 339.775 271.335 339.794 271.15C339.814 270.95 339.936 270.856 340.131 270.854C340.324 270.852 340.473 271 340.468 271.181C340.463 271.358 340.301 271.499 340.111 271.493Z" fill="#5551FF"/>
<path d="M338.829 265.468C338.824 265.655 338.675 265.791 338.479 265.776C338.287 265.761 338.17 265.651 338.159 265.457C338.149 265.284 338.318 265.133 338.503 265.133C338.692 265.133 338.834 265.279 338.829 265.468Z" fill="#5551FF"/>
<path d="M331.451 266.025C331.461 265.837 331.609 265.715 331.814 265.728C332.014 265.742 332.122 265.853 332.127 266.05C332.132 266.232 331.972 266.367 331.775 266.362C331.579 266.358 331.44 266.213 331.451 266.025Z" fill="#5551FF"/>
<path d="M333.349 257.788C333.524 257.787 333.683 257.937 333.667 258.103C333.649 258.301 333.522 258.402 333.331 258.4C333.145 258.398 333.04 258.282 333.025 258.101C333.013 257.938 333.176 257.789 333.349 257.788Z" fill="#5551FF"/>
<path d="M327.309 266.73C327.128 266.724 327.007 266.627 327 266.443C326.993 266.254 327.118 266.156 327.299 266.139C327.478 266.122 327.641 266.266 327.631 266.437C327.618 266.625 327.496 266.713 327.309 266.73Z" fill="#5551FF"/>
<path d="M336.927 273.687C336.76 273.663 336.64 273.578 336.648 273.397C336.656 273.22 336.768 273.126 336.947 273.13C337.127 273.134 337.235 273.231 337.23 273.41C337.224 273.591 337.098 273.669 336.927 273.687Z" fill="#5551FF"/>
<path d="M333.37 267.89C333.341 268.066 333.234 268.165 333.061 268.159C332.899 268.154 332.796 268.053 332.784 267.888C332.773 267.734 332.941 267.587 333.104 267.605C333.269 267.624 333.352 267.729 333.37 267.89Z" fill="#5551FF"/>
<path d="M347.783 268.278C347.957 268.288 348.064 268.378 348.071 268.541C348.077 268.708 347.965 268.808 347.804 268.815C347.631 268.823 347.512 268.731 347.513 268.545C347.515 268.372 347.633 268.3 347.783 268.278Z" fill="#5551FF"/>
<path d="M248.139 346.279C247.575 346.283 247.141 345.871 247.142 345.332C247.143 344.787 247.571 344.391 248.167 344.385C248.743 344.379 249.166 344.768 249.174 345.313C249.182 345.868 248.747 346.275 248.139 346.279Z" fill="#5551FF"/>
<path d="M249.067 344.254C248.543 344.258 248.092 343.816 248.094 343.302C248.097 342.745 248.555 342.329 249.163 342.332C249.676 342.335 250.115 342.764 250.127 343.274C250.14 343.821 249.678 344.249 249.067 344.254Z" fill="#5551FF"/>
<path d="M262.518 343.061C261.94 343.065 261.531 342.678 261.53 342.125C261.529 341.559 261.95 341.168 262.563 341.165C263.11 341.163 263.535 341.565 263.546 342.096C263.556 342.647 263.12 343.056 262.518 343.061Z" fill="#5551FF"/>
<path d="M260.577 344.153C260.579 343.607 261.03 343.198 261.628 343.198C262.159 343.198 262.6 343.636 262.595 344.156C262.589 344.701 262.134 345.111 261.539 345.11C261.002 345.108 260.575 344.683 260.577 344.153Z" fill="#5551FF"/>
<path d="M247.797 342.356C247.262 342.358 246.849 341.972 246.843 341.465C246.836 340.938 247.296 340.525 247.882 340.531C248.387 340.537 248.784 340.942 248.783 341.451C248.781 341.996 248.391 342.354 247.797 342.356Z" fill="#5551FF"/>
<path d="M263.799 344.867C263.273 344.87 262.847 344.461 262.854 343.96C262.861 343.447 263.293 343.052 263.858 343.045C264.359 343.039 264.779 343.447 264.783 343.944C264.787 344.47 264.368 344.862 263.799 344.867Z" fill="#5551FF"/>
<path d="M262.837 346.884C262.301 346.883 261.929 346.513 261.932 345.987C261.935 345.466 262.342 345.095 262.91 345.095C263.423 345.095 263.832 345.499 263.826 346C263.819 346.512 263.403 346.885 262.837 346.884Z" fill="#5551FF"/>
<path d="M254.578 355.392C254.072 355.395 253.684 355.025 253.682 354.54C253.68 354.039 254.095 353.654 254.638 353.657C255.131 353.659 255.522 354.047 255.52 354.529C255.517 355.033 255.129 355.389 254.578 355.392Z" fill="#5551FF"/>
<path d="M259.769 346.179C259.774 345.697 260.155 345.354 260.686 345.357C261.14 345.36 261.515 345.742 261.509 346.196C261.503 346.671 261.106 347.025 260.584 347.018C260.124 347.013 259.764 346.643 259.769 346.179Z" fill="#5551FF"/>
<path d="M250.337 345.957C249.891 345.948 249.512 345.563 249.524 345.13C249.537 344.648 249.937 344.296 250.456 344.308C250.901 344.318 251.276 344.7 251.271 345.137C251.266 345.609 250.857 345.967 250.337 345.957Z" fill="#5551FF"/>
<path d="M256.797 355.141C256.331 355.138 255.976 354.791 255.976 354.339C255.976 353.87 256.358 353.514 256.867 353.51C257.327 353.507 257.701 353.879 257.696 354.336C257.691 354.819 257.328 355.144 256.797 355.141Z" fill="#5551FF"/>
<path d="M255.886 357.157C255.389 357.163 255.04 356.837 255.039 356.368C255.038 355.92 255.405 355.575 255.892 355.565C256.367 355.555 256.723 355.884 256.731 356.339C256.738 356.828 256.405 357.151 255.886 357.157Z" fill="#5551FF"/>
<path d="M247.196 348.144C246.722 348.146 246.382 347.827 246.378 347.378C246.375 346.913 246.751 346.564 247.253 346.568C247.688 346.571 248.062 346.948 248.054 347.376C248.047 347.811 247.677 348.142 247.196 348.144Z" fill="#5551FF"/>
<path d="M246.851 344.268C246.389 344.27 246.035 343.937 246.033 343.498C246.03 343.051 246.398 342.711 246.892 342.702C247.336 342.694 247.71 343.051 247.709 343.482C247.708 343.943 247.356 344.266 246.851 344.268Z" fill="#5551FF"/>
<path d="M259.709 347.462C260.138 347.46 260.493 347.796 260.496 348.209C260.5 348.643 260.123 348.99 259.652 348.988C259.233 348.986 258.874 348.633 258.876 348.225C258.878 347.804 259.249 347.465 259.709 347.462Z" fill="#5551FF"/>
<path d="M247.504 351.991C247.091 351.989 246.749 351.649 246.748 351.238C246.746 350.82 247.132 350.476 247.593 350.485C248.008 350.492 248.348 350.833 248.348 351.241C248.347 351.67 247.985 351.992 247.504 351.991Z" fill="#5551FF"/>
<path d="M263.521 354.487C263.081 354.485 262.741 354.152 262.75 353.732C262.76 353.308 263.113 352.995 263.578 352.997C264.026 352.999 264.341 353.315 264.335 353.756C264.329 354.2 264.007 354.489 263.521 354.487Z" fill="#5551FF"/>
<path d="M253.29 353.429C252.844 353.428 252.516 353.109 252.52 352.68C252.524 352.251 252.865 351.94 253.335 351.938C253.771 351.936 254.113 352.271 254.107 352.692C254.102 353.122 253.759 353.43 253.29 353.429Z" fill="#5551FF"/>
<path d="M250.234 347.159C250.237 347.602 249.893 347.918 249.41 347.915C249 347.913 248.646 347.562 248.653 347.163C248.659 346.748 249.028 346.415 249.476 346.416C249.896 346.417 250.232 346.745 250.234 347.159Z" fill="#5551FF"/>
<path d="M257.761 353.029C257.323 353.029 257.005 352.724 257.002 352.301C256.998 351.866 257.357 351.537 257.83 351.544C258.239 351.55 258.591 351.902 258.584 352.299C258.575 352.726 258.233 353.029 257.761 353.029Z" fill="#5551FF"/>
<path d="M257.957 350.221C257.971 349.795 258.317 349.507 258.8 349.52C259.221 349.532 259.554 349.879 259.532 350.285C259.51 350.715 259.134 351.028 258.665 351.006C258.25 350.987 257.942 350.647 257.957 350.221Z" fill="#5551FF"/>
<path d="M264.135 348.55C263.701 348.549 263.394 348.254 263.394 347.835C263.394 347.414 263.73 347.104 264.187 347.107C264.605 347.11 264.933 347.43 264.932 347.831C264.931 348.256 264.605 348.55 264.135 348.55Z" fill="#5551FF"/>
<path d="M263.973 349.87C263.97 350.284 263.612 350.601 263.164 350.589C262.765 350.578 262.44 350.246 262.448 349.859C262.456 349.459 262.799 349.162 263.247 349.165C263.662 349.169 263.976 349.474 263.973 349.87Z" fill="#5551FF"/>
<path d="M247.906 354.407C248.322 354.406 248.624 354.702 248.625 355.112C248.626 355.525 248.298 355.829 247.853 355.828C247.47 355.827 247.142 355.508 247.136 355.13C247.13 354.725 247.468 354.408 247.906 354.407Z" fill="#5551FF"/>
<path d="M252.754 350.832C252.759 351.245 252.433 351.552 251.989 351.551C251.616 351.551 251.291 351.241 251.28 350.876C251.267 350.474 251.601 350.155 252.044 350.146C252.439 350.137 252.75 350.438 252.754 350.832Z" fill="#5551FF"/>
<path d="M263.446 340.778C263.061 340.771 262.734 340.438 262.748 340.067C262.765 339.66 263.082 339.391 263.533 339.402C263.925 339.411 264.226 339.711 264.22 340.085C264.213 340.479 263.869 340.786 263.446 340.778Z" fill="#5551FF"/>
<path d="M246.586 353.932C246.199 353.933 245.897 353.653 245.891 353.288C245.886 352.92 246.214 352.61 246.616 352.605C246.993 352.6 247.313 352.914 247.307 353.284C247.302 353.653 246.992 353.932 246.586 353.932Z" fill="#5551FF"/>
<path d="M250.747 348.362C251.134 348.36 251.436 348.643 251.435 349.007C251.434 349.377 251.126 349.655 250.717 349.654C250.33 349.653 250.057 349.393 250.053 349.021C250.049 348.625 250.324 348.364 250.747 348.362Z" fill="#5551FF"/>
<path d="M261.919 348.68C261.563 348.694 261.243 348.399 261.236 348.05C261.227 347.679 261.533 347.388 261.937 347.38C262.289 347.373 262.59 347.649 262.61 347.996C262.63 348.356 262.319 348.664 261.919 348.68Z" fill="#5551FF"/>
<path d="M248.525 348.565C248.909 348.568 249.181 348.837 249.178 349.21C249.175 349.576 248.879 349.85 248.483 349.851C248.116 349.853 247.81 349.564 247.808 349.213C247.805 348.841 248.115 348.562 248.525 348.565Z" fill="#5551FF"/>
<path d="M251.727 346.323C252.072 346.328 252.37 346.624 252.373 346.965C252.375 347.327 252.047 347.63 251.659 347.623C251.292 347.617 251.005 347.326 251.01 346.967C251.015 346.588 251.317 346.318 251.727 346.323Z" fill="#5551FF"/>
<path d="M264.468 352.325C264.09 352.322 263.836 352.065 263.844 351.69C263.851 351.327 264.135 351.076 264.533 351.082C264.878 351.087 265.167 351.366 265.172 351.697C265.177 352.054 264.868 352.329 264.468 352.325Z" fill="#5551FF"/>
<path d="M264.735 342.524C264.388 342.518 264.132 342.258 264.139 341.916C264.146 341.564 264.429 341.311 264.807 341.319C265.143 341.326 265.417 341.604 265.41 341.93C265.4 342.279 265.116 342.53 264.735 342.524Z" fill="#5551FF"/>
<path d="M262.588 356.348C262.262 356.35 262.002 356.107 261.993 355.794C261.984 355.467 262.255 355.213 262.615 355.211C262.939 355.209 263.203 355.453 263.213 355.764C263.223 356.087 262.945 356.347 262.588 356.348Z" fill="#5551FF"/>
<path d="M246.239 349.952C245.926 349.949 245.67 349.698 245.675 349.397C245.68 349.075 245.95 348.833 246.297 348.842C246.596 348.85 246.847 349.096 246.851 349.387C246.856 349.705 246.585 349.955 246.239 349.952Z" fill="#5551FF"/>
<path d="M265.425 355.571C265.431 355.87 265.163 356.131 264.842 356.139C264.532 356.147 264.264 355.906 264.254 355.61C264.243 355.295 264.512 355.031 264.847 355.028C265.151 355.026 265.419 355.276 265.425 355.571Z" fill="#5551FF"/>
<path d="M246.381 357.119C246.397 356.819 246.661 356.604 246.988 356.621C247.287 356.637 247.516 356.874 247.507 357.157C247.498 357.463 247.218 357.707 246.895 357.687C246.595 357.67 246.365 357.415 246.381 357.119Z" fill="#5551FF"/>
<path d="M252.419 348.824C252.417 348.519 252.662 348.28 252.981 348.274C253.279 348.269 253.538 348.512 253.543 348.8C253.548 349.095 253.291 349.341 252.973 349.346C252.661 349.35 252.421 349.124 252.419 348.824Z" fill="#5551FF"/>
<path d="M255.534 353.022C255.226 353.017 254.987 352.779 254.991 352.484C254.996 352.188 255.265 351.949 255.58 351.961C255.871 351.972 256.115 352.213 256.113 352.488C256.111 352.784 255.848 353.027 255.534 353.022Z" fill="#5551FF"/>
<path d="M245.915 346.025C245.626 346.026 245.389 345.806 245.386 345.533C245.383 345.25 245.617 345.031 245.93 345.027C246.22 345.023 246.45 345.24 246.454 345.519C246.458 345.804 246.224 346.024 245.915 346.025Z" fill="#5551FF"/>
<path d="M262.783 351.909C262.779 352.196 262.537 352.417 262.237 352.407C261.965 352.398 261.738 352.174 261.737 351.913C261.736 351.629 261.973 351.403 262.275 351.402C262.56 351.401 262.788 351.628 262.783 351.909Z" fill="#5551FF"/>
<path d="M246.538 339.15C246.827 339.15 247.023 339.334 247.025 339.606C247.028 339.884 246.82 340.086 246.529 340.085C246.257 340.085 246.037 339.88 246.032 339.625C246.028 339.36 246.252 339.15 246.538 339.15Z" fill="#5551FF"/>
<path d="M248.826 353.529C248.558 353.527 248.354 353.333 248.351 353.078C248.348 352.827 248.571 352.62 248.851 352.618C249.109 352.616 249.322 352.822 249.324 353.074C249.325 353.334 249.109 353.531 248.826 353.529Z" fill="#5551FF"/>
<path d="M265.126 345.344C265.398 345.347 265.592 345.537 265.588 345.799C265.584 346.062 265.367 346.264 265.091 346.26C264.839 346.257 264.618 346.039 264.622 345.796C264.627 345.536 264.845 345.341 265.126 345.344Z" fill="#5551FF"/>
<path d="M253.667 356.115C253.934 356.117 254.135 356.316 254.129 356.568C254.123 356.821 253.922 357.004 253.648 357.004C253.369 357.004 253.177 356.826 253.176 356.565C253.174 356.299 253.377 356.112 253.667 356.115Z" fill="#5551FF"/>
<path d="M250.078 340.812C250.349 340.816 250.542 341.007 250.535 341.268C250.528 341.534 250.321 341.71 250.027 341.701C249.772 341.694 249.578 341.501 249.578 341.259C249.578 341 249.793 340.808 250.078 340.812Z" fill="#5551FF"/>
<path d="M260.526 350.066C260.526 349.822 260.729 349.633 260.988 349.633C261.23 349.633 261.42 349.821 261.417 350.062C261.416 350.312 261.22 350.499 260.96 350.495C260.719 350.493 260.526 350.302 260.526 350.066Z" fill="#5551FF"/>
<path d="M248.754 339.836C248.498 339.833 248.322 339.658 248.327 339.411C248.332 339.174 248.524 339 248.775 339C249.027 339 249.218 339.178 249.219 339.414C249.221 339.657 249.02 339.839 248.754 339.836Z" fill="#5551FF"/>
<path d="M254.245 351.063C253.993 351.059 253.819 350.881 253.83 350.633C253.839 350.399 254.034 350.227 254.284 350.233C254.516 350.239 254.704 350.419 254.708 350.642C254.711 350.884 254.51 351.067 254.245 351.063Z" fill="#5551FF"/>
<path d="M245.657 354.906C245.9 354.905 246.086 355.07 246.092 355.294C246.099 355.515 245.894 355.721 245.66 355.729C245.414 355.737 245.222 355.557 245.219 355.316C245.217 355.074 245.395 354.907 245.657 354.906Z" fill="#5551FF"/>
<path d="M263.88 358.011C263.639 358.01 263.455 357.834 263.461 357.611C263.466 357.392 263.655 357.224 263.899 357.224C264.135 357.224 264.324 357.405 264.318 357.626C264.311 357.849 264.125 358.013 263.88 358.011Z" fill="#5551FF"/>
<path d="M261.654 340.281C261.652 340.494 261.472 340.66 261.236 340.663C261.011 340.666 260.829 340.485 260.837 340.269C260.845 340.058 261.032 339.898 261.266 339.905C261.488 339.911 261.655 340.074 261.654 340.281Z" fill="#5551FF"/>
<path d="M260.697 342.308C260.699 342.517 260.508 342.698 260.285 342.696C260.072 342.695 259.897 342.526 259.895 342.317C259.893 342.102 260.078 341.926 260.302 341.929C260.514 341.933 260.695 342.107 260.697 342.308Z" fill="#5551FF"/>
<path d="M265.843 349.664C265.846 349.889 265.683 350.05 265.449 350.052C265.222 350.056 265.061 349.91 265.054 349.694C265.046 349.463 265.227 349.281 265.46 349.284C265.67 349.288 265.84 349.456 265.843 349.664Z" fill="#5551FF"/>
<path d="M252.367 355.086C252.146 355.09 251.974 354.931 251.976 354.723C251.978 354.523 252.158 354.356 252.372 354.357C252.583 354.358 252.743 354.509 252.748 354.711C252.753 354.921 252.591 355.082 252.367 355.086Z" fill="#5551FF"/>
<path d="M259.734 344.339C259.74 344.53 259.573 344.701 259.369 344.714C259.146 344.728 258.971 344.574 258.966 344.361C258.961 344.147 259.124 343.987 259.35 343.985C259.554 343.985 259.728 344.144 259.734 344.339Z" fill="#5551FF"/>
<path d="M245.955 341.652C245.954 341.859 245.801 342.001 245.58 342.001C245.361 342.001 245.21 341.855 245.213 341.646C245.216 341.445 245.38 341.288 245.589 341.287C245.794 341.287 245.957 341.448 245.955 341.652Z" fill="#5551FF"/>
<path d="M259.066 354.484C258.86 354.483 258.714 354.342 258.713 354.141C258.712 353.933 258.869 353.786 259.086 353.788C259.292 353.79 259.444 353.937 259.444 354.131C259.444 354.335 259.283 354.485 259.066 354.484Z" fill="#5551FF"/>
<path d="M260.021 352.445C259.822 352.447 259.667 352.293 259.67 352.097C259.673 351.902 259.827 351.755 260.03 351.755C260.22 351.755 260.391 351.921 260.389 352.104C260.387 352.287 260.22 352.443 260.021 352.445Z" fill="#5551FF"/>
<path d="M257.807 348.407C257.813 348.6 257.663 348.746 257.453 348.748C257.247 348.75 257.119 348.654 257.102 348.441C257.086 348.244 257.233 348.088 257.434 348.078C257.624 348.068 257.801 348.223 257.807 348.407Z" fill="#5551FF"/>
<path d="M258.738 346.387C258.735 346.568 258.581 346.716 258.395 346.717C258.208 346.718 258.057 346.57 258.059 346.386C258.06 346.203 258.211 346.059 258.4 346.058C258.587 346.056 258.741 346.206 258.738 346.387Z" fill="#5551FF"/>
<path d="M258.111 356.493C257.921 356.487 257.775 356.335 257.794 356.15C257.814 355.95 257.936 355.856 258.131 355.854C258.324 355.852 258.473 356 258.468 356.181C258.463 356.358 258.301 356.499 258.111 356.493Z" fill="#5551FF"/>
<path d="M256.829 350.468C256.824 350.655 256.675 350.791 256.479 350.776C256.287 350.761 256.17 350.651 256.159 350.457C256.149 350.284 256.318 350.133 256.503 350.133C256.692 350.133 256.834 350.279 256.829 350.468Z" fill="#5551FF"/>
<path d="M249.451 351.025C249.461 350.837 249.609 350.715 249.814 350.728C250.014 350.742 250.122 350.853 250.127 351.05C250.132 351.232 249.972 351.367 249.775 351.362C249.579 351.358 249.44 351.213 249.451 351.025Z" fill="#5551FF"/>
<path d="M251.349 342.788C251.524 342.787 251.683 342.937 251.667 343.103C251.649 343.301 251.522 343.402 251.331 343.4C251.145 343.398 251.04 343.282 251.025 343.101C251.013 342.938 251.176 342.789 251.349 342.788Z" fill="#5551FF"/>
<path d="M245.309 351.73C245.128 351.724 245.007 351.627 245 351.443C244.993 351.254 245.118 351.156 245.299 351.139C245.478 351.122 245.641 351.266 245.631 351.437C245.618 351.625 245.496 351.713 245.309 351.73Z" fill="#5551FF"/>
<path d="M254.927 358.687C254.76 358.663 254.64 358.578 254.648 358.397C254.656 358.22 254.768 358.126 254.947 358.13C255.127 358.134 255.235 358.231 255.23 358.41C255.224 358.591 255.098 358.669 254.927 358.687Z" fill="#5551FF"/>
<path d="M251.37 352.89C251.341 353.066 251.234 353.165 251.061 353.159C250.899 353.154 250.796 353.053 250.784 352.888C250.773 352.734 250.941 352.587 251.104 352.605C251.269 352.624 251.352 352.729 251.37 352.89Z" fill="#5551FF"/>
<path d="M265.783 353.278C265.957 353.288 266.064 353.378 266.071 353.541C266.077 353.708 265.965 353.808 265.804 353.815C265.631 353.823 265.512 353.731 265.513 353.545C265.515 353.372 265.633 353.3 265.783 353.278Z" fill="#5551FF"/>
</g>
<g filter="url(#filter4_d)">
<path d="M338 253L331.505 245.5L344.495 245.5L338 253Z" fill="white"/>
<rect x="297" y="212" width="83" height="33" rx="5" fill="white" stroke="white" stroke-width="2"/>
<path d="M333.249 230.246C333.249 228.315 331.805 227.937 330.063 227.627V224.481C331.049 224.711 331.643 225.453 331.67 226.574L332.952 226.331C332.75 224.441 331.575 223.617 330.063 223.428V222.632H329.051V223.401C327.606 223.482 326.054 224.238 326.054 226.047C326.054 227.829 327.606 228.369 329.024 228.707H329.051V232.095C327.903 231.92 327.107 231.137 327.066 229.854L325.77 229.989C325.824 231.947 327.269 232.959 329.051 233.135V233.918H330.063V233.149C331.656 233.041 333.249 232.338 333.249 230.246ZM327.309 225.993C327.309 225.021 328.146 224.508 329.051 224.414V227.424C328.119 227.195 327.309 226.83 327.309 225.993ZM330.063 228.923C331.089 229.125 331.98 229.355 331.98 230.34C331.98 231.501 331.13 232.001 330.063 232.109V228.923ZM341.726 230.246C341.726 228.315 340.282 227.937 338.54 227.627V224.481C339.526 224.711 340.12 225.453 340.147 226.574L341.429 226.331C341.227 224.441 340.052 223.617 338.54 223.428V222.632H337.528V223.401C336.083 223.482 334.531 224.238 334.531 226.047C334.531 227.829 336.083 228.369 337.501 228.707H337.528V232.095C336.38 231.92 335.584 231.137 335.543 229.854L334.247 229.989C334.301 231.947 335.746 232.959 337.528 233.135V233.918H338.54V233.149C340.133 233.041 341.726 232.338 341.726 230.246ZM335.786 225.993C335.786 225.021 336.623 224.508 337.528 224.414V227.424C336.596 227.195 335.786 226.83 335.786 225.993ZM338.54 228.923C339.566 229.125 340.457 229.355 340.457 230.34C340.457 231.501 339.607 232.001 338.54 232.109V228.923ZM350.204 230.246C350.204 228.315 348.759 227.937 347.018 227.627V224.481C348.003 224.711 348.597 225.453 348.624 226.574L349.907 226.331C349.704 224.441 348.53 223.617 347.018 223.428V222.632H346.005V223.401C344.561 223.482 343.008 224.238 343.008 226.047C343.008 227.829 344.561 228.369 345.978 228.707H346.005V232.095C344.858 231.92 344.061 231.137 344.021 229.854L342.725 229.989C342.779 231.947 344.223 232.959 346.005 233.135V233.918H347.018V233.149C348.611 233.041 350.204 232.338 350.204 230.246ZM344.264 225.993C344.264 225.021 345.101 224.508 346.005 224.414V227.424C345.074 227.195 344.264 226.83 344.264 225.993ZM347.018 228.923C348.044 229.125 348.935 229.355 348.935 230.34C348.935 231.501 348.084 232.001 347.018 232.109V228.923Z" fill="#FFA451"/>
</g>
<g filter="url(#filter5_d)">
<path d="M256 338L249.505 330.5L262.495 330.5L256 338Z" fill="white"/>
<rect x="215" y="297" width="83" height="33" rx="5" fill="white" stroke="white" stroke-width="2"/>
<path d="M251.249 315.246C251.249 313.315 249.805 312.937 248.063 312.627V309.481C249.049 309.711 249.643 310.453 249.67 311.574L250.952 311.331C250.75 309.441 249.575 308.617 248.063 308.428V307.632H247.051V308.401C245.606 308.482 244.054 309.238 244.054 311.047C244.054 312.829 245.606 313.369 247.024 313.707H247.051V317.095C245.903 316.92 245.107 316.137 245.066 314.854L243.77 314.989C243.824 316.947 245.269 317.959 247.051 318.135V318.918H248.063V318.149C249.656 318.041 251.249 317.338 251.249 315.246ZM245.309 310.993C245.309 310.021 246.146 309.508 247.051 309.414V312.424C246.119 312.195 245.309 311.83 245.309 310.993ZM248.063 313.923C249.089 314.125 249.98 314.355 249.98 315.34C249.98 316.501 249.13 317.001 248.063 317.109V313.923ZM259.726 315.246C259.726 313.315 258.282 312.937 256.54 312.627V309.481C257.526 309.711 258.12 310.453 258.147 311.574L259.429 311.331C259.227 309.441 258.052 308.617 256.54 308.428V307.632H255.528V308.401C254.083 308.482 252.531 309.238 252.531 311.047C252.531 312.829 254.083 313.369 255.501 313.707H255.528V317.095C254.38 316.92 253.584 316.137 253.543 314.854L252.247 314.989C252.301 316.947 253.746 317.959 255.528 318.135V318.918H256.54V318.149C258.133 318.041 259.726 317.338 259.726 315.246ZM253.786 310.993C253.786 310.021 254.623 309.508 255.528 309.414V312.424C254.596 312.195 253.786 311.83 253.786 310.993ZM256.54 313.923C257.566 314.125 258.457 314.355 258.457 315.34C258.457 316.501 257.607 317.001 256.54 317.109V313.923ZM268.204 315.246C268.204 313.315 266.759 312.937 265.018 312.627V309.481C266.003 309.711 266.597 310.453 266.624 311.574L267.907 311.331C267.704 309.441 266.53 308.617 265.018 308.428V307.632H264.005V308.401C262.561 308.482 261.008 309.238 261.008 311.047C261.008 312.829 262.561 313.369 263.978 313.707H264.005V317.095C262.858 316.92 262.061 316.137 262.021 314.854L260.725 314.989C260.779 316.947 262.223 317.959 264.005 318.135V318.918H265.018V318.149C266.611 318.041 268.204 317.338 268.204 315.246ZM262.264 310.993C262.264 310.021 263.101 309.508 264.005 309.414V312.424C263.074 312.195 262.264 311.83 262.264 310.993ZM265.018 313.923C266.044 314.125 266.935 314.355 266.935 315.34C266.935 316.501 266.084 317.001 265.018 317.109V313.923Z" fill="#FFA451"/>
</g>
<defs>
<filter id="filter0_dii" x="0" y="0" width="558" height="508" filterUnits="userSpaceOnUse" color-interpolation-filters="sRGB">
<feFlood flood-opacity="0" result="BackgroundImageFix"/>
<feColorMatrix in="SourceAlpha" type="matrix" values="0 0 0 0 0 0 0 0 0 0 0 0 0 0 0 0 0 0 127 0"/>
<feOffset dy="4"/>
<feGaussianBlur stdDeviation="2"/>
<feColorMatrix type="matrix" values="0 0 0 0 0 0 0 0 0 0 0 0 0 0 0 0 0 0 0.25 0"/>
<feBlend mode="normal" in2="BackgroundImageFix" result="effect1_dropShadow"/>
<feBlend mode="normal" in="SourceGraphic" in2="effect1_dropShadow" result="shape"/>
<feColorMatrix in="SourceAlpha" type="matrix" values="0 0 0 0 0 0 0 0 0 0 0 0 0 0 0 0 0 0 127 0" result="hardAlpha"/>
<feMorphology radius="0.5" operator="dilate" in="SourceAlpha" result="effect2_innerShadow"/>
<feOffset dy="1"/>
<feGaussianBlur stdDeviation="0.5"/>
<feComposite in2="hardAlpha" operator="arithmetic" k2="-1" k3="1"/>
<feColorMatrix type="matrix" values="0 0 0 0 0 0 0 0 0 0 0 0 0 0 0 0 0 0 0.25 0"/>
<feBlend mode="normal" in2="shape" result="effect2_innerShadow"/>
<feColorMatrix in="SourceAlpha" type="matrix" values="0 0 0 0 0 0 0 0 0 0 0 0 0 0 0 0 0 0 127 0" result="hardAlpha"/>
<feOffset dy="1"/>
<feGaussianBlur stdDeviation="1"/>
<feComposite in2="hardAlpha" operator="arithmetic" k2="-1" k3="1"/>
<feColorMatrix type="matrix" values="0 0 0 0 1 0 0 0 0 1 0 0 0 0 1 0 0 0 1 0"/>
<feBlend mode="normal" in2="effect2_innerShadow" result="effect3_innerShadow"/>
</filter>
<filter id="filter1_d" x="199" y="164" width="42" height="42" filterUnits="userSpaceOnUse" color-interpolation-filters="sRGB">
<feFlood flood-opacity="0" result="BackgroundImageFix"/>
<feColorMatrix in="SourceAlpha" type="matrix" values="0 0 0 0 0 0 0 0 0 0 0 0 0 0 0 0 0 0 127 0"/>
<feOffset dy="1"/>
<feGaussianBlur stdDeviation="0.5"/>
<feColorMatrix type="matrix" values="0 0 0 0 0 0 0 0 0 0 0 0 0 0 0 0 0 0 0.25 0"/>
<feBlend mode="normal" in2="BackgroundImageFix" result="effect1_dropShadow"/>
<feBlend mode="normal" in="SourceGraphic" in2="effect1_dropShadow" result="shape"/>
</filter>
<filter id="filter2_d" x="178" y="131" width="93" height="50" filterUnits="userSpaceOnUse" color-interpolation-filters="sRGB">
<feFlood flood-opacity="0" result="BackgroundImageFix"/>
<feColorMatrix in="SourceAlpha" type="matrix" values="0 0 0 0 0 0 0 0 0 0 0 0 0 0 0 0 0 0 127 0"/>
<feOffset dx="4" dy="4"/>
<feGaussianBlur stdDeviation="2"/>
<feColorMatrix type="matrix" values="0 0 0 0 0 0 0 0 0 0 0 0 0 0 0 0 0 0 0.25 0"/>
<feBlend mode="normal" in2="BackgroundImageFix" result="effect1_dropShadow"/>
<feBlend mode="normal" in="SourceGraphic" in2="effect1_dropShadow" result="shape"/>
</filter>
<filter id="filter3_d" x="235" y="244" width="124" height="127" filterUnits="userSpaceOnUse" color-interpolation-filters="sRGB">
<feFlood flood-opacity="0" result="BackgroundImageFix"/>
<feColorMatrix in="SourceAlpha" type="matrix" values="0 0 0 0 0 0 0 0 0 0 0 0 0 0 0 0 0 0 127 0"/>
<feOffset dy="1"/>
<feGaussianBlur stdDeviation="0.5"/>
<feColorMatrix type="matrix" values="0 0 0 0 0 0 0 0 0 0 0 0 0 0 0 0 0 0 0.25 0"/>
<feBlend mode="normal" in2="BackgroundImageFix" result="effect1_dropShadow"/>
<feBlend mode="normal" in="SourceGraphic" in2="effect1_dropShadow" result="shape"/>
</filter>
<filter id="filter4_d" x="296" y="211" width="93" height="50" filterUnits="userSpaceOnUse" color-interpolation-filters="sRGB">
<feFlood flood-opacity="0" result="BackgroundImageFix"/>
<feColorMatrix in="SourceAlpha" type="matrix" values="0 0 0 0 0 0 0 0 0 0 0 0 0 0 0 0 0 0 127 0"/>
<feOffset dx="4" dy="4"/>
<feGaussianBlur stdDeviation="2"/>
<feColorMatrix type="matrix" values="0 0 0 0 0 0 0 0 0 0 0 0 0 0 0 0 0 0 0.25 0"/>
<feBlend mode="normal" in2="BackgroundImageFix" result="effect1_dropShadow"/>
<feBlend mode="normal" in="SourceGraphic" in2="effect1_dropShadow" result="shape"/>
</filter>
<filter id="filter5_d" x="214" y="296" width="93" height="50" filterUnits="userSpaceOnUse" color-interpolation-filters="sRGB">
<feFlood flood-opacity="0" result="BackgroundImageFix"/>
<feColorMatrix in="SourceAlpha" type="matrix" values="0 0 0 0 0 0 0 0 0 0 0 0 0 0 0 0 0 0 127 0"/>
<feOffset dx="4" dy="4"/>
<feGaussianBlur stdDeviation="2"/>
<feColorMatrix type="matrix" values="0 0 0 0 0 0 0 0 0 0 0 0 0 0 0 0 0 0 0.25 0"/>
<feBlend mode="normal" in2="BackgroundImageFix" result="effect1_dropShadow"/>
<feBlend mode="normal" in="SourceGraphic" in2="effect1_dropShadow" result="shape"/>
</filter>
<linearGradient id="paint0_linear" x1="220" y1="164" x2="220" y2="204" gradientUnits="userSpaceOnUse">
<stop stop-color="white"/>
<stop offset="1" stop-color="white" stop-opacity="0"/>
</linearGradient>
<linearGradient id="paint1_linear" x1="338" y1="244" x2="338" y2="284" gradientUnits="userSpaceOnUse">
<stop stop-color="white"/>
<stop offset="1" stop-color="white" stop-opacity="0"/>
</linearGradient>
<linearGradient id="paint2_linear" x1="256" y1="329" x2="256" y2="369" gradientUnits="userSpaceOnUse">
<stop stop-color="white"/>
<stop offset="1" stop-color="white" stop-opacity="0"/>
</linearGradient>
</defs>
</svg>
