<svg width="559" height="454" viewBox="0 0 559 454" fill="none" xmlns="http://www.w3.org/2000/svg">
<g filter="url(#filter0_d)">
<path d="M203.31 29.7148C224.643 29.7148 245.844 33.0727 266.134 39.6653L203.31 233.02V29.7148Z" fill="#FFA551" fill-opacity="0.9"/>
<path d="M266.134 39.6655C274.236 42.298 282.165 45.4371 289.873 49.0642L203.31 233.02L266.134 39.6655Z" fill="#FDB3B3" fill-opacity="0.5"/>
<path d="M289.873 49.064C313.058 59.9741 333.972 75.1689 351.512 93.8479L203.31 233.02L289.873 49.064Z" fill="#FDB3B3" fill-opacity="0.75"/>
<path d="M206.833 231.083L351.466 95.2634C374.209 119.723 390.542 149.433 399.008 181.741L206.833 231.083Z" fill="#FDB3B3" stroke="#F09F9F" stroke-width="2"/>
<path d="M400.227 182.46C403.406 194.842 405.411 207.496 406.213 220.254L203.31 233.02L400.227 182.46Z" fill="#AEACFF"/>
<path d="M152.749 36.102C169.268 31.8608 186.254 29.7148 203.309 29.7148V233.02L152.749 36.102Z" fill="#1BCAEC" fill-opacity="0.5"/>
<path d="M140.484 39.6653C144.534 38.3494 148.625 37.1611 152.749 36.1021L203.309 233.02L140.484 39.6653Z" fill="#1BCAEC"/>
<path d="M83.8105 68.5429C101.07 56.0031 120.196 46.2581 140.485 39.6655L203.31 233.02L83.8105 68.5429Z" fill="#3440A8"/>
<path d="M31.6533 124.083C45.3833 102.448 63.0795 83.6039 83.8097 68.5425L203.309 233.02L31.6533 124.083Z" fill="#B4B3FD"/>
<path d="M46.6607 362.611C-9.48172 294.747 -15.5402 198.449 31.6538 124.083L203.31 233.02L46.6607 362.611Z" fill="#B4B3FD" fill-opacity="0.5"/>
<path d="M408.597 229.214C414.127 317.117 362.426 398.584 280.535 431.008C198.643 463.431 105.186 439.435 49.0439 371.571L205.693 241.979L408.597 229.214Z" fill="#5551FF"/>
<path d="M463 85.5L463.258 85.9286C463.408 85.8382 463.5 85.6755 463.5 85.5H463ZM351.242 152.071C351.006 152.214 350.929 152.521 351.071 152.758C351.214 152.994 351.521 153.071 351.758 152.929L351.242 152.071ZM462.742 85.0714L351.242 152.071L351.758 152.929L463.258 85.9286L462.742 85.0714ZM463.5 85.5V48H462.5V85.5H463.5Z" fill="#5551FF"/>
<rect x="376.5" y="0.5" width="174" height="59" rx="5.5" fill="white" stroke="#5551FF"/>
<path d="M458.418 22.155C459.126 22.2957 459.649 22.5747 459.987 22.9922C460.325 23.4053 460.495 23.9128 460.495 24.5149C460.495 25.2708 460.198 25.897 459.605 26.3936C459.016 26.8857 458.256 27.1318 457.324 27.1318C456.379 27.1318 455.608 26.8857 455.01 26.3936C454.417 25.897 454.12 25.2708 454.12 24.5149C454.12 23.9128 454.292 23.4053 454.635 22.9922C454.977 22.5747 455.505 22.2957 456.217 22.155C455.048 21.8958 454.463 21.1487 454.463 19.9138C454.463 19.2063 454.727 18.613 455.254 18.134C455.786 17.655 456.476 17.4155 457.324 17.4155C458.168 17.4155 458.853 17.655 459.381 18.134C459.908 18.613 460.172 19.2063 460.172 19.9138C460.172 21.1487 459.587 21.8958 458.418 22.155ZM455.597 20.0588C455.597 20.261 455.625 20.45 455.683 20.6257C455.744 20.7971 455.839 20.9575 455.966 21.1069C456.094 21.2563 456.271 21.375 456.5 21.4629C456.733 21.5464 457.008 21.5881 457.324 21.5881C457.917 21.5881 458.348 21.4409 458.616 21.1465C458.888 20.8521 459.025 20.4895 459.025 20.0588C459.025 19.593 458.88 19.2173 458.59 18.9316C458.304 18.6416 457.882 18.4966 457.324 18.4966C456.753 18.4966 456.322 18.6394 456.032 18.925C455.742 19.2107 455.597 19.5886 455.597 20.0588ZM457.324 26.0574C457.676 26.0574 457.979 26.0112 458.234 25.9189C458.493 25.8267 458.695 25.6992 458.84 25.5366C458.985 25.374 459.091 25.1982 459.156 25.0093C459.222 24.8159 459.255 24.6072 459.255 24.3831C459.255 23.8557 459.093 23.4382 458.768 23.1306C458.447 22.823 457.966 22.6692 457.324 22.6692C456.669 22.6692 456.179 22.823 455.854 23.1306C455.529 23.4382 455.366 23.8557 455.366 24.3831C455.366 24.6072 455.399 24.8159 455.465 25.0093C455.535 25.1982 455.643 25.374 455.788 25.5366C455.933 25.6992 456.135 25.8267 456.395 25.9189C456.658 26.0112 456.968 26.0574 457.324 26.0574ZM465.168 22.0232C464.825 22.5066 464.327 22.7483 463.672 22.7483C463.017 22.7483 462.516 22.5066 462.169 22.0232C461.822 21.5398 461.648 20.8938 461.648 20.0852C461.648 19.2722 461.82 18.624 462.162 18.1406C462.505 17.6572 463.008 17.4155 463.672 17.4155C464.322 17.4155 464.819 17.6572 465.162 18.1406C465.509 18.6196 465.682 19.2678 465.682 20.0852C465.682 20.8938 465.511 21.5398 465.168 22.0232ZM469.044 17.6462C469.084 17.5803 469.132 17.5474 469.189 17.5474H470.165C470.213 17.5474 470.248 17.5627 470.27 17.5935C470.292 17.6243 470.292 17.6638 470.27 17.7122L464.641 26.9077C464.606 26.9692 464.557 27 464.496 27H463.52C463.472 27 463.437 26.9846 463.415 26.9539C463.393 26.9231 463.393 26.8835 463.415 26.8352L469.044 17.6462ZM463.672 21.9375C464.032 21.9375 464.3 21.7617 464.476 21.4102C464.652 21.0542 464.74 20.6125 464.74 20.0852C464.74 19.5535 464.652 19.1118 464.476 18.7603C464.3 18.4043 464.032 18.2263 463.672 18.2263C463.421 18.2263 463.213 18.3164 463.046 18.4966C462.879 18.6768 462.76 18.9009 462.69 19.1689C462.624 19.437 462.591 19.7424 462.591 20.0852C462.591 20.6125 462.679 21.0542 462.854 21.4102C463.035 21.7617 463.307 21.9375 463.672 21.9375ZM470.026 27.1318C469.367 27.1318 468.864 26.8923 468.517 26.4133C468.174 25.9299 468.003 25.2839 468.003 24.4753C468.003 23.6624 468.174 23.0142 468.517 22.5308C468.86 22.0474 469.363 21.8057 470.026 21.8057C470.677 21.8057 471.176 22.0474 471.523 22.5308C471.87 23.0142 472.043 23.6624 472.043 24.4753C472.043 25.2795 471.87 25.9233 471.523 26.4067C471.18 26.8901 470.681 27.1318 470.026 27.1318ZM470.026 26.3276C470.391 26.3276 470.659 26.1519 470.831 25.8003C471.006 25.4487 471.094 25.0071 471.094 24.4753C471.094 23.9392 471.006 23.4954 470.831 23.1438C470.659 22.7878 470.391 22.6099 470.026 22.6099C469.771 22.6099 469.561 22.7021 469.394 22.8867C469.231 23.0669 469.117 23.291 469.051 23.5591C468.985 23.8271 468.952 24.1326 468.952 24.4753C468.952 24.8181 468.985 25.1213 469.051 25.385C469.117 25.6487 469.231 25.8728 469.394 26.0574C469.561 26.2375 469.771 26.3276 470.026 26.3276ZM421.273 33.5474C422.025 33.5474 422.656 33.8022 423.165 34.312C423.675 34.8174 423.93 35.4941 423.93 36.3423C423.93 36.8125 423.86 37.2344 423.719 37.6079C423.583 37.9771 423.392 38.2781 423.146 38.511C422.904 38.7439 422.623 38.9219 422.302 39.0449C421.985 39.1636 421.643 39.2229 421.273 39.2229H418.406V42.8682C418.406 42.9561 418.362 43 418.274 43H417.318C417.235 43 417.193 42.9604 417.193 42.8813V33.6858C417.193 33.5935 417.235 33.5474 417.318 33.5474H421.273ZM420.594 38.1418C421.315 38.1418 421.849 38.0078 422.196 37.7397C422.543 37.4717 422.717 37.0059 422.717 36.3423C422.717 35.1821 422.01 34.6021 420.594 34.6021H418.406V38.1418H420.594ZM425.051 42.8682V36.3818C425.051 36.2939 425.094 36.25 425.182 36.25H426.132C426.219 36.25 426.263 36.2939 426.263 36.3818L426.184 37.5024C426.316 37.0674 426.536 36.751 426.844 36.5532C427.156 36.3511 427.602 36.25 428.182 36.25H428.887C428.975 36.25 429.019 36.2939 429.019 36.3818V37.0608C429.019 37.1487 428.975 37.1926 428.887 37.1926H428.182C427.54 37.1926 427.061 37.4036 426.745 37.8254C426.433 38.2429 426.272 38.8428 426.263 39.625V42.8682C426.263 42.9561 426.219 43 426.132 43H425.182C425.094 43 425.051 42.9561 425.051 42.8682ZM429.764 33.6858C429.764 33.6462 429.777 33.6133 429.803 33.5869C429.83 33.5605 429.863 33.5474 429.902 33.5474H431.115C431.155 33.5474 431.188 33.5605 431.214 33.5869C431.24 33.6133 431.253 33.6462 431.253 33.6858V34.8987C431.253 34.9382 431.24 34.9712 431.214 34.9976C431.188 35.0239 431.155 35.0371 431.115 35.0371H429.902C429.863 35.0371 429.83 35.0239 429.803 34.9976C429.777 34.9712 429.764 34.9382 429.764 34.8987V33.6858ZM430.983 43H430.034C429.946 43 429.902 42.9561 429.902 42.8682V36.3818C429.902 36.2939 429.946 36.25 430.034 36.25H430.983C431.071 36.25 431.115 36.2939 431.115 36.3818V42.8682C431.115 42.9561 431.071 43 430.983 43ZM434.655 43C434.602 43 434.565 42.9736 434.543 42.9209L432.005 36.3555C431.979 36.2852 432.003 36.25 432.077 36.25H433.165C433.222 36.25 433.255 36.2764 433.264 36.3291L435.38 42.0574L437.489 36.3291C437.511 36.2764 437.542 36.25 437.582 36.25H438.676C438.746 36.25 438.768 36.2852 438.742 36.3555L436.204 42.9209C436.182 42.9736 436.147 43 436.098 43H434.655ZM445.169 36.25C445.257 36.25 445.301 36.2939 445.301 36.3818V42.8682C445.301 42.9561 445.257 43 445.169 43H444.219C444.132 43 444.088 42.9561 444.088 42.8682L444.127 41.8794C443.978 42.2969 443.729 42.6111 443.382 42.822C443.04 43.0286 442.545 43.1318 441.899 43.1318C441.029 43.1318 440.333 42.8242 439.81 42.209C439.287 41.5938 439.025 40.7544 439.025 39.6909C439.025 38.6187 439.284 37.7551 439.803 37.1003C440.326 36.4456 441.025 36.1182 441.899 36.1182C442.545 36.1182 443.042 36.2324 443.389 36.4609C443.74 36.6851 443.987 37.0234 444.127 37.4761L444.088 36.3818C444.088 36.2939 444.132 36.25 444.219 36.25H445.169ZM442.169 42.1892C442.815 42.1892 443.297 41.9739 443.613 41.5432C443.929 41.1125 444.088 40.4951 444.088 39.6909C444.088 38.8735 443.927 38.2319 443.606 37.7661C443.29 37.2959 442.811 37.0608 442.169 37.0608C441.523 37.0608 441.04 37.2959 440.719 37.7661C440.398 38.2319 440.238 38.8735 440.238 39.6909C440.238 41.3564 440.882 42.1892 442.169 42.1892ZM450.541 37.1926L448.676 37.1267V41.5168C448.676 41.6443 448.711 41.7432 448.781 41.8135C448.856 41.8838 448.957 41.9189 449.084 41.9189H450.541C450.629 41.9189 450.673 41.9651 450.673 42.0574V42.8682C450.673 42.9561 450.629 43 450.541 43H449.216C448.684 43 448.258 42.8418 447.937 42.5254C447.621 42.209 447.463 41.7827 447.463 41.2466V37.1267L446.513 37.1926C446.426 37.1926 446.382 37.1487 446.382 37.0608V36.3818C446.382 36.2939 446.426 36.25 446.513 36.25L447.463 36.3159V34.7668C447.463 34.6746 447.507 34.6284 447.594 34.6284H448.544C448.632 34.6284 448.676 34.6746 448.676 34.7668V36.3159L450.541 36.25C450.629 36.25 450.673 36.2939 450.673 36.3818V37.0608C450.673 37.1487 450.629 37.1926 450.541 37.1926ZM457.284 40.4226C457.328 40.4226 457.361 40.4358 457.383 40.4622C457.41 40.4885 457.416 40.5237 457.403 40.5676C457.267 41.3762 456.937 42.0068 456.414 42.4595C455.891 42.9077 455.206 43.1318 454.358 43.1318C453.365 43.1318 452.591 42.8286 452.037 42.2222C451.484 41.6113 451.207 40.7676 451.207 39.6909C451.207 38.6055 451.484 37.7397 452.037 37.0938C452.591 36.4434 453.365 36.1182 454.358 36.1182C455.316 36.1182 456.063 36.4412 456.599 37.0872C457.135 37.7288 457.403 38.5791 457.403 39.6382C457.403 39.7393 457.364 39.7898 457.284 39.7898H452.426C452.439 40.6072 452.598 41.2114 452.901 41.6025C453.204 41.9937 453.69 42.1892 454.358 42.1892C455.39 42.1892 456.006 41.6399 456.203 40.5413C456.217 40.4622 456.263 40.4226 456.342 40.4226H457.284ZM454.358 37.0608C453.29 37.0608 452.664 37.6541 452.479 38.8406H456.058C456.058 38.6121 456.032 38.4011 455.979 38.2078C455.927 38.01 455.839 37.821 455.716 37.6409C455.597 37.4607 455.421 37.3201 455.188 37.219C454.955 37.1135 454.678 37.0608 454.358 37.0608ZM469.136 42.8352C469.163 42.8835 469.167 42.9231 469.15 42.9539C469.132 42.9846 469.097 43 469.044 43H468.102C468.04 43 467.985 42.9692 467.937 42.9077L465.834 39.2229H463.533V42.8682C463.533 42.9561 463.49 43 463.402 43H462.446C462.362 43 462.321 42.9604 462.321 42.8813V33.6858C462.321 33.5935 462.362 33.5474 462.446 33.5474H466.401C467.152 33.5474 467.783 33.8022 468.293 34.312C468.802 34.8174 469.057 35.4941 469.057 36.3423C469.057 37.1289 468.873 37.7617 468.504 38.2407C468.135 38.7197 467.645 39.0229 467.034 39.1504L469.136 42.8352ZM463.533 34.6284V38.1418H465.722C466.443 38.1418 466.977 38.0078 467.324 37.7397C467.671 37.4717 467.844 37.0059 467.844 36.3423C467.844 36.0171 467.79 35.7402 467.68 35.5117C467.574 35.2832 467.42 35.1074 467.218 34.9844C467.021 34.8569 466.799 34.7668 466.552 34.7141C466.311 34.657 466.034 34.6284 465.722 34.6284H463.533ZM472.986 43.1318C473.984 43.1318 474.755 42.8264 475.3 42.2156C475.845 41.6047 476.117 40.7632 476.117 39.6909C476.117 38.6011 475.84 37.7332 475.287 37.0872C474.733 36.4412 473.966 36.1182 472.986 36.1182C471.993 36.1182 471.219 36.4434 470.666 37.0938C470.112 37.7397 469.835 38.6055 469.835 39.6909C469.835 40.7676 470.112 41.6113 470.666 42.2222C471.219 42.8286 471.993 43.1318 472.986 43.1318ZM472.986 37.0608C473.628 37.0608 474.107 37.2959 474.423 37.7661C474.74 38.2319 474.898 38.8735 474.898 39.6909C474.898 41.3564 474.26 42.1892 472.986 42.1892C471.698 42.1892 471.055 41.3564 471.055 39.6909C471.055 38.8735 471.215 38.2319 471.536 37.7661C471.857 37.2959 472.34 37.0608 472.986 37.0608ZM483.21 36.25C483.298 36.25 483.342 36.2939 483.342 36.3818V42.8682C483.342 42.9561 483.298 43 483.21 43H482.261C482.173 43 482.129 42.9561 482.129 42.8682L482.208 41.7278C482.059 42.1716 481.788 42.5166 481.397 42.7627C481.01 43.0088 480.525 43.1318 479.94 43.1318C479.022 43.1318 478.358 42.8484 477.95 42.2815C477.541 41.7102 477.337 40.8247 477.337 39.625V36.3818C477.337 36.2939 477.381 36.25 477.469 36.25H478.431C478.519 36.25 478.563 36.2939 478.563 36.3818L478.55 39.625C478.545 40.1392 478.58 40.5676 478.655 40.9104C478.734 41.2532 478.855 41.5168 479.018 41.7014C479.185 41.8816 479.374 42.009 479.584 42.0837C479.8 42.1541 480.063 42.1892 480.375 42.1892C480.929 42.1892 481.358 41.9915 481.661 41.5959C481.969 41.196 482.125 40.5391 482.129 39.625V36.3818C482.129 36.2939 482.173 36.25 482.261 36.25H483.21ZM484.97 42.8682V36.3818C484.97 36.2939 485.014 36.25 485.102 36.25H486.051C486.139 36.25 486.183 36.2939 486.183 36.3818L486.104 37.5222C486.253 37.0784 486.521 36.7334 486.908 36.4873C487.299 36.2412 487.787 36.1182 488.371 36.1182C488.859 36.1182 489.272 36.2017 489.611 36.3687C489.953 36.5312 490.221 36.7729 490.415 37.0938C490.608 37.4146 490.747 37.7793 490.83 38.188C490.918 38.5967 490.966 39.0757 490.975 39.625V42.8682C490.975 42.9561 490.931 43 490.843 43H489.881C489.793 43 489.749 42.9561 489.749 42.8682L489.762 39.625C489.767 38.6802 489.639 38.0166 489.38 37.6343C489.125 37.252 488.69 37.0608 488.075 37.0608C487.459 37.0608 486.991 37.2585 486.671 37.6541C486.35 38.0452 486.187 38.7021 486.183 39.625V42.8682C486.183 42.9561 486.139 43 486.051 43H485.102C485.014 43 484.97 42.9561 484.97 42.8682ZM498.338 33.5474C498.378 33.5474 498.411 33.5605 498.437 33.5869C498.463 33.6133 498.477 33.6462 498.477 33.6858V42.8682C498.477 42.9561 498.43 43 498.338 43H497.396C497.303 43 497.257 42.9561 497.257 42.8682L497.303 41.8794C497.154 42.2969 496.906 42.6111 496.558 42.822C496.216 43.0286 495.721 43.1318 495.075 43.1318C494.205 43.1318 493.506 42.8242 492.979 42.209C492.456 41.5938 492.195 40.7544 492.195 39.6909C492.195 38.6187 492.456 37.7551 492.979 37.1003C493.502 36.4456 494.201 36.1182 495.075 36.1182C495.752 36.1182 496.266 36.2456 496.618 36.5005C496.974 36.7554 497.22 37.1311 497.356 37.6277L497.257 33.6858C497.257 33.6462 497.27 33.6133 497.297 33.5869C497.323 33.5605 497.356 33.5474 497.396 33.5474H498.338ZM495.345 42.1892C496.62 42.1892 497.257 41.3564 497.257 39.6909C497.257 38.8735 497.099 38.2319 496.782 37.7661C496.466 37.2959 495.987 37.0608 495.345 37.0608C494.699 37.0608 494.216 37.2959 493.895 37.7661C493.574 38.2319 493.414 38.8735 493.414 39.6909C493.414 41.3564 494.058 42.1892 495.345 42.1892ZM507.646 38.155C508.358 38.2957 508.883 38.5747 509.221 38.9922C509.564 39.4053 509.735 39.9128 509.735 40.5149C509.735 41.2708 509.439 41.897 508.845 42.3936C508.257 42.8857 507.496 43.1318 506.565 43.1318C505.62 43.1318 504.851 42.8857 504.258 42.3936C503.664 41.897 503.368 41.2708 503.368 40.5149V40.4885C503.368 40.4006 503.412 40.3567 503.5 40.3567H504.475C504.563 40.3567 504.607 40.4006 504.607 40.4885C504.62 40.6995 504.664 40.895 504.739 41.0752C504.818 41.251 504.93 41.4158 505.075 41.5696C505.224 41.7234 505.424 41.8442 505.675 41.9321C505.93 42.0156 506.226 42.0574 506.565 42.0574C506.916 42.0574 507.219 42.0112 507.474 41.9189C507.734 41.8267 507.936 41.6992 508.081 41.5366C508.226 41.374 508.331 41.1982 508.397 41.0093C508.463 40.8159 508.496 40.6072 508.496 40.3831C508.496 39.8557 508.333 39.4382 508.008 39.1306C507.688 38.823 507.206 38.6692 506.565 38.6692H505.958C505.919 38.6692 505.886 38.656 505.859 38.6296C505.833 38.6033 505.82 38.5703 505.82 38.5308V37.72C505.82 37.6321 505.866 37.5881 505.958 37.5881H506.565C507.158 37.5881 507.589 37.4409 507.857 37.1465C508.129 36.8521 508.265 36.4895 508.265 36.0588C508.265 35.593 508.12 35.2173 507.83 34.9316C507.545 34.6416 507.123 34.4966 506.565 34.4966C506.02 34.4966 505.602 34.624 505.312 34.8789C505.022 35.1338 504.864 35.4744 504.838 35.9006C504.838 35.9885 504.792 36.0325 504.699 36.0325H503.836C503.748 36.0325 503.704 35.9929 503.704 35.9138C503.704 35.2063 503.968 34.613 504.495 34.134C505.027 33.655 505.717 33.4155 506.565 33.4155C507.408 33.4155 508.094 33.655 508.621 34.134C509.149 34.613 509.412 35.2063 509.412 35.9138C509.412 37.1487 508.823 37.8958 507.646 38.155Z" fill="#5551FF"/>
</g>
<defs>
<filter id="filter0_d" x="0.00390625" y="0" width="558.996" height="453.296" filterUnits="userSpaceOnUse" color-interpolation-filters="sRGB">
<feFlood flood-opacity="0" result="BackgroundImageFix"/>
<feColorMatrix in="SourceAlpha" type="matrix" values="0 0 0 0 0 0 0 0 0 0 0 0 0 0 0 0 0 0 127 0"/>
<feOffset dx="4" dy="4"/>
<feGaussianBlur stdDeviation="2"/>
<feColorMatrix type="matrix" values="0 0 0 0 0 0 0 0 0 0 0 0 0 0 0 0 0 0 0.25 0"/>
<feBlend mode="normal" in2="BackgroundImageFix" result="effect1_dropShadow"/>
<feBlend mode="normal" in="SourceGraphic" in2="effect1_dropShadow" result="shape"/>
</filter>
</defs>
</svg>
