<svg width="300" height="301" viewBox="0 0 300 301" fill="none" xmlns="http://www.w3.org/2000/svg">
<path d="M150.004 0C168.909 0 187.644 3.57383 205.221 10.5332L150.004 149.996V0Z" fill="#FDB3B3"/>
<path d="M205.221 10.5322C246.786 26.9889 278.844 61.1275 292.658 103.644L150.004 149.995L205.221 10.5322Z" fill="#F0CBCB"/>
<path d="M292.658 103.644C297.522 118.613 300 134.255 300 149.995H150.004L292.658 103.644Z" fill="#FFA451"/>
<path d="M103.653 7.34132C118.623 2.47742 134.265 0 150.005 0V149.996L103.653 7.34132Z" fill="#8BE3F5"/>
<path d="M54.3936 34.4206C68.9601 22.3701 85.6735 13.1818 103.653 7.33984L150.005 149.994L54.3936 34.4206Z" fill="#1BCAEC"/>
<path d="M10.5415 205.212C-13.38 144.793 4.32359 75.8421 54.3932 34.4209L150.004 149.995L10.5415 205.212Z" fill="#AEACFF"/>
<path d="M300 149.995C300 221.998 248.837 283.842 178.11 297.334C107.383 310.826 37.0469 272.158 10.541 205.212L150.004 149.995H300Z" fill="#5551FF"/>
</svg>
