<svg width="714" height="465" viewBox="0 0 714 465" fill="none" xmlns="http://www.w3.org/2000/svg">
<path d="M87 461H711" stroke="#333333" stroke-miterlimit="10"/>
<path d="M87 309H711" stroke="#CCCCCC" stroke-miterlimit="10"/>
<path d="M87 156H711" stroke="#CCCCCC" stroke-miterlimit="10"/>
<path d="M87 4H711" stroke="#CCCCCC" stroke-miterlimit="10"/>
<path d="M86 448H104.939H123.879H142.818H161.758H180.697H199.636H218.576H237.515H256.455H275.394H294.333H313.273H332.212H351.152H370.091H389.03H407.97H426.909H445.848H464.788H483.727H502.667H521.606H540.545H559.485H578.424H597.364H616.303H635.242H654.182H673.121H692.061H711" stroke="#AEACFF" stroke-width="2" stroke-miterlimit="10"/>
<path d="M86 452H104.939H123.879H142.818L161.758 442.842L180.697 433.684L199.636 424.526L218.576 415.368L237.515 409.874L256.455 404.379L275.394 398.884L294.333 393.389L313.273 387.895L332.212 382.4L351.152 376.905L370.091 371.411L389.03 365.916L407.97 360.421L426.909 354.926L445.848 349.432L464.788 343.937L483.727 338.442L502.667 332.947L521.606 327.453L540.545 321.958L559.485 316.463L578.424 310.968L597.364 305.474L616.303 299.979L635.242 294.484L654.182 288.989L673.121 283.495L692.061 278H711" stroke="#D8D7FE" stroke-width="2" stroke-miterlimit="10"/>
<path d="M86 462H104.939H123.879H142.818H161.758H180.697H199.636H218.576H237.515H256.455H275.394H294.333H313.273H332.212H351.152L370.091 448.2H389.03H407.97L426.909 434.4H445.848H464.788L483.727 420.6H502.667H521.606L540.545 406.8H559.485H578.424L597.364 393H616.303H635.242L654.182 379.2H673.121H692.061L711 370" stroke="#FDB3B3" stroke-width="2" stroke-miterlimit="10"/>
<path d="M86 462H104.939H123.879H142.818H161.758H180.697H199.636H218.576H237.515H256.455H275.394H294.333H313.273H332.212H351.152L370.091 456.4H389.03H407.97L426.909 450.8H445.848H464.788L483.727 445.2H502.667H521.606L540.545 439.6H559.485H578.424L597.364 434H616.303H635.242H654.182H673.121H692.061H711" stroke="#B4B3FD" stroke-width="2" stroke-miterlimit="10"/>
<path d="M86 461H104.939H123.879H142.818H161.758H180.697L199.636 460.333H218.576H237.515L256.455 459.667H275.394H294.333L313.273 459H332.212H351.152L370.091 458.333H389.03H407.97L426.909 456.111H445.848H464.788L483.727 453.889H502.667H521.606L540.545 451.667H559.485H578.424L597.364 447.222H616.303H635.242L654.182 442.778H673.121H692.061L711 439" stroke="#3440A8" stroke-width="2" stroke-miterlimit="10"/>
<path d="M86 461H104.939H123.879H142.818H161.758L180.697 460.778L199.636 460.556L218.576 460.333L237.515 460.111L256.455 459.889L275.394 459.667L294.333 459.444L313.273 459.222L332.212 459L351.152 458.778L370.091 458.556L389.03 458.333L407.97 458.111L426.909 457.889L445.848 457.667L464.788 457.444L483.727 457.222L502.667 457H521.606H540.545H559.485H578.424H597.364H616.303H635.242H654.182H673.121H692.061H711" stroke="#1BCAEC" stroke-width="2" stroke-miterlimit="10"/>
<path d="M86 460H104.939H123.879H142.818H161.758L180.697 459.081L199.636 458.162L218.576 457.243L237.515 456.324L256.455 455.405L275.394 454.487L294.333 453.568L313.273 452.649L332.212 451.73L351.152 450.811L370.091 449.892L389.03 448.973L407.97 448.054L426.909 447.135L445.848 446.216L464.788 445.297L483.727 444.378L502.667 443.459L521.606 443H540.545H559.485H578.424H597.364H616.303H635.242H654.182H673.121H692.061H711" stroke="#8BE3F5" stroke-width="2" stroke-miterlimit="10"/>
<path d="M86 421H104.939H123.879H142.818L161.758 411.84L180.697 379.552L199.636 368.56L218.576 358.255L237.515 351.614L256.455 318.181L275.394 311.54L294.333 304.9L313.273 283.832L332.212 277.191L351.152 270.55L370.091 230.247L389.03 223.606L407.97 216.965L426.909 184.219L445.848 177.578L464.788 170.937L483.727 142.771L502.667 136.13L521.606 130.176L540.545 103.155L559.485 97.659L578.424 92.1631L597.364 62.8517L616.303 57.3558L635.242 51.86L654.182 28.0445L673.121 22.5486L692.061 17.0527L711 4" stroke="#5551FF" stroke-width="2" stroke-miterlimit="10"/>
<path d="M55 461.482C55 460.692 55.081 460.059 55.243 459.584C55.405 459.1 55.6439 458.729 55.9598 458.472C56.2838 458.214 56.6888 458.085 57.1748 458.085C57.5312 458.085 57.843 458.157 58.1103 458.302C58.3857 458.447 58.6125 458.657 58.7907 458.931C58.9688 459.197 59.1065 459.523 59.2037 459.91C59.3009 460.297 59.3495 460.821 59.3495 461.482C59.3495 462.264 59.2685 462.892 59.1065 463.368C58.9526 463.843 58.7137 464.214 58.3897 464.48C58.0738 464.738 57.6688 464.867 57.1748 464.867C56.5349 464.867 56.0287 464.637 55.6561 464.178C55.2187 463.63 55 462.731 55 461.482ZM55.8383 461.482C55.8383 462.57 55.9679 463.295 56.2271 463.658C56.4863 464.021 56.8022 464.202 57.1748 464.202C57.5555 464.202 57.8713 464.021 58.1224 463.658C58.3816 463.295 58.5112 462.57 58.5112 461.482C58.5112 460.386 58.3816 459.66 58.1224 459.306C57.8713 458.943 57.5514 458.762 57.1626 458.762C56.79 458.762 56.4903 458.919 56.2636 459.233C55.9801 459.636 55.8383 460.386 55.8383 461.482ZM60.9047 464.758V463.827H61.8402V464.758H60.9047ZM62.7757 461.482C62.7757 460.692 62.8567 460.059 63.0187 459.584C63.1807 459.1 63.4196 458.729 63.7355 458.472C64.0595 458.214 64.4645 458.085 64.9505 458.085C65.3069 458.085 65.6187 458.157 65.886 458.302C66.1614 458.447 66.3882 458.657 66.5664 458.931C66.7445 459.197 66.8822 459.523 66.9794 459.91C67.0766 460.297 67.1252 460.821 67.1252 461.482C67.1252 462.264 67.0442 462.892 66.8822 463.368C66.7283 463.843 66.4894 464.214 66.1654 464.48C65.8495 464.738 65.4446 464.867 64.9505 464.867C64.3106 464.867 63.8044 464.637 63.4318 464.178C62.9944 463.63 62.7757 462.731 62.7757 461.482ZM63.614 461.482C63.614 462.57 63.7436 463.295 64.0028 463.658C64.262 464.021 64.5779 464.202 64.9505 464.202C65.3312 464.202 65.647 464.021 65.8981 463.658C66.1573 463.295 66.2869 462.57 66.2869 461.482C66.2869 460.386 66.1573 459.66 65.8981 459.306C65.647 458.943 65.3271 458.762 64.9383 458.762C64.5657 458.762 64.266 458.919 64.0393 459.233C63.7558 459.636 63.614 460.386 63.614 461.482ZM68.2187 461.482C68.2187 460.692 68.2997 460.059 68.4617 459.584C68.6237 459.1 68.8626 458.729 69.1785 458.472C69.5025 458.214 69.9075 458.085 70.3935 458.085C70.7498 458.085 71.0617 458.157 71.329 458.302C71.6044 458.447 71.8312 458.657 72.0093 458.931C72.1875 459.197 72.3252 459.523 72.4224 459.91C72.5196 460.297 72.5682 460.821 72.5682 461.482C72.5682 462.264 72.4872 462.892 72.3252 463.368C72.1713 463.843 71.9324 464.214 71.6084 464.48C71.2925 464.738 70.8875 464.867 70.3935 464.867C69.7536 464.867 69.2474 464.637 68.8748 464.178C68.4374 463.63 68.2187 462.731 68.2187 461.482ZM69.057 461.482C69.057 462.57 69.1866 463.295 69.4458 463.658C69.705 464.021 70.0209 464.202 70.3935 464.202C70.7741 464.202 71.09 464.021 71.3411 463.658C71.6003 463.295 71.7299 462.57 71.7299 461.482C71.7299 460.386 71.6003 459.66 71.3411 459.306C71.09 458.943 70.7701 458.762 70.3813 458.762C70.0087 458.762 69.709 458.919 69.4822 459.233C69.1988 459.636 69.057 460.386 69.057 461.482ZM73.8196 459.705C73.8196 459.229 73.9371 458.826 74.172 458.496C74.415 458.165 74.7632 458 75.2168 458C75.638 458 75.9863 458.149 76.2617 458.447C76.5371 458.746 76.6748 459.181 76.6748 459.753C76.6748 460.317 76.533 460.752 76.2495 461.059C75.9741 461.357 75.634 461.506 75.229 461.506C74.824 461.506 74.4878 461.357 74.2206 461.059C73.9533 460.76 73.8196 460.309 73.8196 459.705ZM75.2411 458.556C75.0386 458.556 74.8685 458.645 74.7308 458.822C74.6012 458.999 74.5364 459.322 74.5364 459.789C74.5364 460.216 74.6012 460.519 74.7308 460.696C74.8685 460.865 75.0386 460.95 75.2411 460.95C75.4517 460.95 75.6218 460.861 75.7514 460.684C75.8891 460.507 75.9579 460.188 75.9579 459.729C75.9579 459.294 75.8891 458.991 75.7514 458.822C75.6137 458.645 75.4436 458.556 75.2411 458.556ZM75.2411 465L78.8981 458H79.5664L75.9215 465H75.2411ZM78.1327 463.199C78.1327 462.723 78.2502 462.32 78.485 461.99C78.728 461.659 79.0804 461.494 79.5421 461.494C79.9632 461.494 80.3115 461.643 80.5869 461.941C80.8623 462.231 81 462.667 81 463.247C81 463.811 80.8583 464.246 80.5748 464.553C80.2994 464.851 79.9551 465 79.5421 465C79.1452 465 78.809 464.851 78.5336 464.553C78.2664 464.254 78.1327 463.803 78.1327 463.199ZM79.5664 462.05C79.3558 462.05 79.1816 462.139 79.0439 462.316C78.9143 462.493 78.8495 462.816 78.8495 463.283C78.8495 463.702 78.9184 464.001 79.0561 464.178C79.1938 464.355 79.3639 464.444 79.5664 464.444C79.7688 464.444 79.9389 464.355 80.0766 464.178C80.2143 464.001 80.2832 463.678 80.2832 463.211C80.2832 462.784 80.2143 462.485 80.0766 462.316C79.9389 462.139 79.7688 462.05 79.5664 462.05Z" fill="black"/>
<path d="M5 310.017L5.87427 309.945C5.93994 310.364 6.08771 310.678 6.31756 310.888C6.55563 311.097 6.84295 311.202 7.17952 311.202C7.57356 311.202 7.91013 311.053 8.18924 310.755C8.46835 310.457 8.60791 310.066 8.60791 309.582C8.60791 309.115 8.47246 308.748 8.20156 308.482C7.93886 308.208 7.58998 308.071 7.15489 308.071C6.8922 308.071 6.65003 308.131 6.42839 308.252C6.21495 308.373 6.04666 308.526 5.92353 308.712L5.14776 308.615L5.80039 305.206H9.17434V305.979H6.46533L6.10823 307.769C6.51048 307.486 6.93325 307.345 7.37654 307.345C7.9676 307.345 8.46425 307.547 8.86649 307.95C9.27695 308.353 9.48218 308.873 9.48218 309.509C9.48218 310.106 9.30568 310.626 8.95269 311.069C8.51761 311.601 7.92655 311.867 7.17952 311.867C6.56384 311.867 6.05898 311.698 5.66494 311.359C5.27911 311.021 5.05746 310.573 5 310.017ZM10.5165 308.482C10.5165 307.692 10.5986 307.059 10.7628 306.584C10.927 306.1 11.1692 305.729 11.4893 305.472C11.8177 305.214 12.2281 305.085 12.7207 305.085C13.0819 305.085 13.3979 305.157 13.6688 305.302C13.9479 305.447 14.1778 305.657 14.3584 305.931C14.539 306.197 14.6785 306.523 14.7771 306.91C14.8756 307.297 14.9248 307.821 14.9248 308.482C14.9248 309.264 14.8427 309.892 14.6785 310.368C14.5226 310.843 14.2804 311.214 13.952 311.48C13.6319 311.738 13.2214 311.867 12.7207 311.867C12.0722 311.867 11.5591 311.637 11.1815 311.178C10.7382 310.63 10.5165 309.731 10.5165 308.482ZM11.3662 308.482C11.3662 309.57 11.4975 310.295 11.7602 310.658C12.0229 311.021 12.3431 311.202 12.7207 311.202C13.1065 311.202 13.4267 311.021 13.6811 310.658C13.9438 310.295 14.0752 309.57 14.0752 308.482C14.0752 307.386 13.9438 306.66 13.6811 306.306C13.4267 305.943 13.1024 305.762 12.7084 305.762C12.3307 305.762 12.027 305.919 11.7971 306.233C11.5098 306.636 11.3662 307.386 11.3662 308.482ZM16.0331 308.482C16.0331 307.692 16.1151 307.059 16.2793 306.584C16.4435 306.1 16.6857 305.729 17.0058 305.472C17.3342 305.214 17.7447 305.085 18.2372 305.085C18.5984 305.085 18.9145 305.157 19.1854 305.302C19.4645 305.447 19.6943 305.657 19.8749 305.931C20.0555 306.197 20.1951 306.523 20.2936 306.91C20.3921 307.297 20.4413 307.821 20.4413 308.482C20.4413 309.264 20.3593 309.892 20.1951 310.368C20.0391 310.843 19.7969 311.214 19.4686 311.48C19.1484 311.738 18.738 311.867 18.2372 311.867C17.5887 311.867 17.0756 311.637 16.698 311.178C16.2547 310.63 16.0331 309.731 16.0331 308.482ZM16.8827 308.482C16.8827 309.57 17.014 310.295 17.2767 310.658C17.5394 311.021 17.8596 311.202 18.2372 311.202C18.623 311.202 18.9432 311.021 19.1977 310.658C19.4604 310.295 19.5917 309.57 19.5917 308.482C19.5917 307.386 19.4604 306.66 19.1977 306.306C18.9432 305.943 18.6189 305.762 18.2249 305.762C17.8473 305.762 17.5435 305.919 17.3137 306.233C17.0264 306.636 16.8827 307.386 16.8827 308.482ZM21.5496 308.482C21.5496 307.692 21.6317 307.059 21.7959 306.584C21.96 306.1 22.2022 305.729 22.5224 305.472C22.8507 305.214 23.2612 305.085 23.7537 305.085C24.1149 305.085 24.431 305.157 24.7019 305.302C24.981 305.447 25.2108 305.657 25.3914 305.931C25.572 306.197 25.7116 306.523 25.8101 306.91C25.9086 307.297 25.9579 307.821 25.9579 308.482C25.9579 309.264 25.8758 309.892 25.7116 310.368C25.5556 310.843 25.3135 311.214 24.9851 311.48C24.6649 311.738 24.2545 311.867 23.7537 311.867C23.1052 311.867 22.5921 311.637 22.2145 311.178C21.7712 310.63 21.5496 309.731 21.5496 308.482ZM22.3992 308.482C22.3992 309.57 22.5306 310.295 22.7933 310.658C23.056 311.021 23.3761 311.202 23.7537 311.202C24.1396 311.202 24.4597 311.021 24.7142 310.658C24.9769 310.295 25.1082 309.57 25.1082 308.482C25.1082 307.386 24.9769 306.66 24.7142 306.306C24.4597 305.943 24.1354 305.762 23.7414 305.762C23.3638 305.762 23.0601 305.919 22.8302 306.233C22.5429 306.636 22.3992 307.386 22.3992 308.482ZM27.0661 308.482C27.0661 307.692 27.1482 307.059 27.3124 306.584C27.4766 306.1 27.7187 305.729 28.0389 305.472C28.3672 305.214 28.7777 305.085 29.2702 305.085C29.6315 305.085 29.9475 305.157 30.2184 305.302C30.4975 305.447 30.7274 305.657 30.908 305.931C31.0886 306.197 31.2281 306.523 31.3266 306.91C31.4251 307.297 31.4744 307.821 31.4744 308.482C31.4744 309.264 31.3923 309.892 31.2281 310.368C31.0721 310.843 30.83 311.214 30.5016 311.48C30.1815 311.738 29.771 311.867 29.2702 311.867C28.6217 311.867 28.1087 311.637 27.731 311.178C27.2877 310.63 27.0661 309.731 27.0661 308.482ZM27.9157 308.482C27.9157 309.57 28.0471 310.295 28.3098 310.658C28.5725 311.021 28.8926 311.202 29.2702 311.202C29.6561 311.202 29.9762 311.021 30.2307 310.658C30.4934 310.295 30.6248 309.57 30.6248 308.482C30.6248 307.386 30.4934 306.66 30.2307 306.306C29.9762 305.943 29.652 305.762 29.2579 305.762C28.8803 305.762 28.5766 305.919 28.3467 306.233C28.0594 306.636 27.9157 307.386 27.9157 308.482ZM32.5826 308.482C32.5826 307.692 32.6647 307.059 32.8289 306.584C32.9931 306.1 33.2353 305.729 33.5554 305.472C33.8838 305.214 34.2942 305.085 34.7868 305.085C35.148 305.085 35.464 305.157 35.7349 305.302C36.014 305.447 36.2439 305.657 36.4245 305.931C36.6051 306.197 36.7446 306.523 36.8432 306.91C36.9417 307.297 36.9909 307.821 36.9909 308.482C36.9909 309.264 36.9088 309.892 36.7446 310.368C36.5887 310.843 36.3465 311.214 36.0181 311.48C35.698 311.738 35.2875 311.867 34.7868 311.867C34.1383 311.867 33.6252 311.637 33.2476 311.178C32.8043 310.63 32.5826 309.731 32.5826 308.482ZM33.4323 308.482C33.4323 309.57 33.5636 310.295 33.8263 310.658C34.089 311.021 34.4092 311.202 34.7868 311.202C35.1726 311.202 35.4928 311.021 35.7472 310.658C36.0099 310.295 36.1413 309.57 36.1413 308.482C36.1413 307.386 36.0099 306.66 35.7472 306.306C35.4928 305.943 35.1685 305.762 34.7745 305.762C34.3968 305.762 34.0931 305.919 33.8632 306.233C33.5759 306.636 33.4323 307.386 33.4323 308.482ZM38.0992 308.482C38.0992 307.692 38.1812 307.059 38.3454 306.584C38.5096 306.1 38.7518 305.729 39.0719 305.472C39.4003 305.214 39.8108 305.085 40.3033 305.085C40.6645 305.085 40.9805 305.157 41.2515 305.302C41.5306 305.447 41.7604 305.657 41.941 305.931C42.1216 306.197 42.2612 306.523 42.3597 306.91C42.4582 307.297 42.5075 307.821 42.5075 308.482C42.5075 309.264 42.4254 309.892 42.2612 310.368C42.1052 310.843 41.863 311.214 41.5347 311.48C41.2145 311.738 40.8041 311.867 40.3033 311.867C39.6548 311.867 39.1417 311.637 38.7641 311.178C38.3208 310.63 38.0992 309.731 38.0992 308.482ZM38.9488 308.482C38.9488 309.57 39.0801 310.295 39.3428 310.658C39.6055 311.021 39.9257 311.202 40.3033 311.202C40.6891 311.202 41.0093 311.021 41.2638 310.658C41.5265 310.295 41.6578 309.57 41.6578 308.482C41.6578 307.386 41.5265 306.66 41.2638 306.306C41.0093 305.943 40.685 305.762 40.291 305.762C39.9134 305.762 39.6096 305.919 39.3798 306.233C39.0925 306.636 38.9488 307.386 38.9488 308.482ZM43.6157 308.482C43.6157 307.692 43.6978 307.059 43.862 306.584C44.0261 306.1 44.2683 305.729 44.5885 305.472C44.9168 305.214 45.3273 305.085 45.8198 305.085C46.181 305.085 46.4971 305.157 46.768 305.302C47.0471 305.447 47.2769 305.657 47.4575 305.931C47.6381 306.197 47.7777 306.523 47.8762 306.91C47.9747 307.297 48.024 307.821 48.024 308.482C48.024 309.264 47.9419 309.892 47.7777 310.368C47.6217 310.843 47.3796 311.214 47.0512 311.48C46.731 311.738 46.3206 311.867 45.8198 311.867C45.1713 311.867 44.6582 311.637 44.2806 311.178C43.8373 310.63 43.6157 309.731 43.6157 308.482ZM44.4653 308.482C44.4653 309.57 44.5967 310.295 44.8594 310.658C45.1221 311.021 45.4422 311.202 45.8198 311.202C46.2057 311.202 46.5258 311.021 46.7803 310.658C47.043 310.295 47.1743 309.57 47.1743 308.482C47.1743 307.386 47.043 306.66 46.7803 306.306C46.5258 305.943 46.2015 305.762 45.8075 305.762C45.4299 305.762 45.1262 305.919 44.8963 306.233C44.609 306.636 44.4653 307.386 44.4653 308.482ZM49.1322 308.482C49.1322 307.692 49.2143 307.059 49.3785 306.584C49.5427 306.1 49.7848 305.729 50.105 305.472C50.4333 305.214 50.8438 305.085 51.3364 305.085C51.6976 305.085 52.0136 305.157 52.2845 305.302C52.5636 305.447 52.7935 305.657 52.9741 305.931C53.1547 306.197 53.2942 306.523 53.3927 306.91C53.4912 307.297 53.5405 307.821 53.5405 308.482C53.5405 309.264 53.4584 309.892 53.2942 310.368C53.1383 310.843 52.8961 311.214 52.5677 311.48C52.2476 311.738 51.8371 311.867 51.3364 311.867C50.6878 311.867 50.1748 311.637 49.7971 311.178C49.3539 310.63 49.1322 309.731 49.1322 308.482ZM49.9818 308.482C49.9818 309.57 50.1132 310.295 50.3759 310.658C50.6386 311.021 50.9587 311.202 51.3364 311.202C51.7222 311.202 52.0423 311.021 52.2968 310.658C52.5595 310.295 52.6909 309.57 52.6909 308.482C52.6909 307.386 52.5595 306.66 52.2968 306.306C52.0423 305.943 51.7181 305.762 51.324 305.762C50.9464 305.762 50.6427 305.919 50.4128 306.233C50.1255 306.636 49.9818 307.386 49.9818 308.482ZM54.6487 308.482C54.6487 307.692 54.7308 307.059 54.895 306.584C55.0592 306.1 55.3014 305.729 55.6215 305.472C55.9499 305.214 56.3603 305.085 56.8529 305.085C57.2141 305.085 57.5301 305.157 57.801 305.302C58.0801 305.447 58.31 305.657 58.4906 305.931C58.6712 306.197 58.8108 306.523 58.9093 306.91C59.0078 307.297 59.057 307.821 59.057 308.482C59.057 309.264 58.9749 309.892 58.8108 310.368C58.6548 310.843 58.4126 311.214 58.0842 311.48C57.7641 311.738 57.3536 311.867 56.8529 311.867C56.2044 311.867 55.6913 311.637 55.3137 311.178C54.8704 310.63 54.6487 309.731 54.6487 308.482ZM55.4984 308.482C55.4984 309.57 55.6297 310.295 55.8924 310.658C56.1551 311.021 56.4753 311.202 56.8529 311.202C57.2387 311.202 57.5589 311.021 57.8133 310.658C58.076 310.295 58.2074 309.57 58.2074 308.482C58.2074 307.386 58.076 306.66 57.8133 306.306C57.5589 305.943 57.2346 305.762 56.8406 305.762C56.4629 305.762 56.1592 305.919 55.9294 306.233C55.642 306.636 55.4984 307.386 55.4984 308.482ZM60.6332 311.758V310.827H61.5813V311.758H60.6332ZM62.5295 308.482C62.5295 307.692 62.6116 307.059 62.7758 306.584C62.9399 306.1 63.1821 305.729 63.5023 305.472C63.8306 305.214 64.2411 305.085 64.7336 305.085C65.0948 305.085 65.4109 305.157 65.6818 305.302C65.9609 305.447 66.1908 305.657 66.3714 305.931C66.552 306.197 66.6915 306.523 66.79 306.91C66.8885 307.297 66.9378 307.821 66.9378 308.482C66.9378 309.264 66.8557 309.892 66.6915 310.368C66.5355 310.843 66.2934 311.214 65.965 311.48C65.6448 311.738 65.2344 311.867 64.7336 311.867C64.0851 311.867 63.572 311.637 63.1944 311.178C62.7511 310.63 62.5295 309.731 62.5295 308.482ZM63.3791 308.482C63.3791 309.57 63.5105 310.295 63.7732 310.658C64.0359 311.021 64.356 311.202 64.7336 311.202C65.1195 311.202 65.4396 311.021 65.6941 310.658C65.9568 310.295 66.0881 309.57 66.0881 308.482C66.0881 307.386 65.9568 306.66 65.6941 306.306C65.4396 305.943 65.1154 305.762 64.7213 305.762C64.3437 305.762 64.04 305.919 63.8101 306.233C63.5228 306.636 63.3791 307.386 63.3791 308.482ZM68.046 308.482C68.046 307.692 68.1281 307.059 68.2923 306.584C68.4565 306.1 68.6986 305.729 69.0188 305.472C69.3472 305.214 69.7576 305.085 70.2502 305.085C70.6114 305.085 70.9274 305.157 71.1983 305.302C71.4774 305.447 71.7073 305.657 71.8879 305.931C72.0685 306.197 72.208 306.523 72.3065 306.91C72.4051 307.297 72.4543 307.821 72.4543 308.482C72.4543 309.264 72.3722 309.892 72.208 310.368C72.0521 310.843 71.8099 311.214 71.4815 311.48C71.1614 311.738 70.7509 311.867 70.2502 311.867C69.6016 311.867 69.0886 311.637 68.7109 311.178C68.2677 310.63 68.046 309.731 68.046 308.482ZM68.8957 308.482C68.8957 309.57 69.027 310.295 69.2897 310.658C69.5524 311.021 69.8725 311.202 70.2502 311.202C70.636 311.202 70.9561 311.021 71.2106 310.658C71.4733 310.295 71.6047 309.57 71.6047 308.482C71.6047 307.386 71.4733 306.66 71.2106 306.306C70.9561 305.943 70.6319 305.762 70.2378 305.762C69.8602 305.762 69.5565 305.919 69.3266 306.233C69.0393 306.636 68.8957 307.386 68.8957 308.482ZM73.7226 306.705C73.7226 306.229 73.8416 305.826 74.0797 305.496C74.326 305.165 74.679 305 75.1387 305C75.5656 305 75.9186 305.149 76.1977 305.447C76.4768 305.746 76.6163 306.181 76.6163 306.753C76.6163 307.317 76.4727 307.752 76.1853 308.059C75.9062 308.357 75.5615 308.506 75.151 308.506C74.7405 308.506 74.3999 308.357 74.129 308.059C73.8581 307.761 73.7226 307.309 73.7226 306.705ZM75.1633 305.556C74.9581 305.556 74.7857 305.645 74.6461 305.822C74.5148 305.999 74.4491 306.322 74.4491 306.789C74.4491 307.216 74.5148 307.519 74.6461 307.696C74.7857 307.865 74.9581 307.95 75.1633 307.95C75.3768 307.95 75.5491 307.861 75.6805 307.684C75.82 307.507 75.8898 307.188 75.8898 306.729C75.8898 306.294 75.82 305.991 75.6805 305.822C75.5409 305.645 75.3685 305.556 75.1633 305.556ZM75.1633 312L78.8697 305H79.547L75.8529 312H75.1633ZM78.094 310.199C78.094 309.723 78.213 309.32 78.4511 308.99C78.6973 308.659 79.0544 308.494 79.5224 308.494C79.9492 308.494 80.3022 308.643 80.5813 308.941C80.8604 309.231 81 309.667 81 310.247C81 310.811 80.8563 311.246 80.569 311.553C80.2899 311.851 79.941 312 79.5224 312C79.1201 312 78.7794 311.851 78.5003 311.553C78.2294 311.254 78.094 310.803 78.094 310.199ZM79.547 309.05C79.3335 309.05 79.1571 309.139 79.0175 309.316C78.8861 309.493 78.8205 309.816 78.8205 310.283C78.8205 310.702 78.8903 311.001 79.0298 311.178C79.1694 311.355 79.3418 311.444 79.547 311.444C79.7522 311.444 79.9246 311.355 80.0642 311.178C80.2037 311.001 80.2735 310.678 80.2735 310.211C80.2735 309.784 80.2037 309.485 80.0642 309.316C79.9246 309.139 79.7522 309.05 79.547 309.05Z" fill="black"/>
<path d="M2.49117 159.758H1.66489V154.56C1.45935 154.745 1.19214 154.934 0.863276 155.128C0.542631 155.313 0.254873 155.45 0 155.539V154.753C0.460414 154.535 0.863276 154.277 1.20859 153.979C1.56212 153.673 1.81288 153.375 1.96087 153.085H2.49117V159.758ZM4.88368 156.482C4.88368 155.692 4.9659 155.059 5.13033 154.584C5.29476 154.1 5.5373 153.729 5.85795 153.472C6.18681 153.214 6.5979 153.085 7.0912 153.085C7.45295 153.085 7.76949 153.157 8.0408 153.302C8.32034 153.447 8.55055 153.657 8.73143 153.931C8.9123 154.197 9.05207 154.523 9.15073 154.91C9.24939 155.297 9.29872 155.821 9.29872 156.482C9.29872 157.264 9.2165 157.892 9.05207 158.368C8.89586 158.843 8.65332 159.214 8.32445 159.48C8.00381 159.738 7.59272 159.867 7.0912 159.867C6.44169 159.867 5.92783 159.637 5.54963 159.178C5.10566 158.63 4.88368 157.731 4.88368 156.482ZM5.73462 156.482C5.73462 157.57 5.86617 158.295 6.12926 158.658C6.39236 159.021 6.713 159.202 7.0912 159.202C7.47762 159.202 7.79826 159.021 8.05314 158.658C8.31623 158.295 8.44778 157.57 8.44778 156.482C8.44778 155.386 8.31623 154.66 8.05314 154.306C7.79826 153.943 7.47351 153.762 7.07887 153.762C6.70067 153.762 6.39647 153.919 6.16626 154.233C5.8785 154.636 5.73462 155.386 5.73462 156.482ZM10.4086 156.482C10.4086 155.692 10.4909 155.059 10.6553 154.584C10.8197 154.1 11.0623 153.729 11.3829 153.472C11.7118 153.214 12.1229 153.085 12.6162 153.085C12.9779 153.085 13.2945 153.157 13.5658 153.302C13.8453 153.447 14.0755 153.657 14.2564 153.931C14.4373 154.197 14.577 154.523 14.6757 154.91C14.7744 155.297 14.8237 155.821 14.8237 156.482C14.8237 157.264 14.7415 157.892 14.577 158.368C14.4208 158.843 14.1783 159.214 13.8494 159.48C13.5288 159.738 13.1177 159.867 12.6162 159.867C11.9667 159.867 11.4528 159.637 11.0746 159.178C10.6306 158.63 10.4086 157.731 10.4086 156.482ZM11.2596 156.482C11.2596 157.57 11.3911 158.295 11.6542 158.658C11.9173 159.021 12.238 159.202 12.6162 159.202C13.0026 159.202 13.3232 159.021 13.5781 158.658C13.8412 158.295 13.9727 157.57 13.9727 156.482C13.9727 155.386 13.8412 154.66 13.5781 154.306C13.3232 153.943 12.9985 153.762 12.6038 153.762C12.2256 153.762 11.9214 153.919 11.6912 154.233C11.4035 154.636 11.2596 155.386 11.2596 156.482ZM15.9336 156.482C15.9336 155.692 16.0158 155.059 16.1803 154.584C16.3447 154.1 16.5872 153.729 16.9079 153.472C17.2368 153.214 17.6478 153.085 18.1411 153.085C18.5029 153.085 18.8194 153.157 19.0907 153.302C19.3703 153.447 19.6005 153.657 19.7814 153.931C19.9622 154.197 20.102 154.523 20.2007 154.91C20.2993 155.297 20.3487 155.821 20.3487 156.482C20.3487 157.264 20.2664 157.892 20.102 158.368C19.9458 158.843 19.7033 159.214 19.3744 159.48C19.0537 159.738 18.6427 159.867 18.1411 159.867C17.4916 159.867 16.9778 159.637 16.5996 159.178C16.1556 158.63 15.9336 157.731 15.9336 156.482ZM16.7846 156.482C16.7846 157.57 16.9161 158.295 17.1792 158.658C17.4423 159.021 17.7629 159.202 18.1411 159.202C18.5276 159.202 18.8482 159.021 19.1031 158.658C19.3662 158.295 19.4977 157.57 19.4977 156.482C19.4977 155.386 19.3662 154.66 19.1031 154.306C18.8482 153.943 18.5234 153.762 18.1288 153.762C17.7506 153.762 17.4464 153.919 17.2162 154.233C16.9284 154.636 16.7846 155.386 16.7846 156.482ZM21.4586 156.482C21.4586 155.692 21.5408 155.059 21.7052 154.584C21.8697 154.1 22.1122 153.729 22.4329 153.472C22.7617 153.214 23.1728 153.085 23.6661 153.085C24.0279 153.085 24.3444 153.157 24.6157 153.302C24.8952 153.447 25.1255 153.657 25.3063 153.931C25.4872 154.197 25.627 154.523 25.7256 154.91C25.8243 155.297 25.8736 155.821 25.8736 156.482C25.8736 157.264 25.7914 157.892 25.627 158.368C25.4708 158.843 25.2282 159.214 24.8994 159.48C24.5787 159.738 24.1676 159.867 23.6661 159.867C23.0166 159.867 22.5027 159.637 22.1245 159.178C21.6806 158.63 21.4586 157.731 21.4586 156.482ZM22.3095 156.482C22.3095 157.57 22.4411 158.295 22.7042 158.658C22.9673 159.021 23.2879 159.202 23.6661 159.202C24.0525 159.202 24.3732 159.021 24.628 158.658C24.8911 158.295 25.0227 157.57 25.0227 156.482C25.0227 155.386 24.8911 154.66 24.628 154.306C24.3732 153.943 24.0484 153.762 23.6538 153.762C23.2756 153.762 22.9714 153.919 22.7412 154.233C22.4534 154.636 22.3095 155.386 22.3095 156.482ZM26.9836 156.482C26.9836 155.692 27.0658 155.059 27.2302 154.584C27.3946 154.1 27.6372 153.729 27.9578 153.472C28.2867 153.214 28.6978 153.085 29.1911 153.085C29.5528 153.085 29.8694 153.157 30.1407 153.302C30.4202 153.447 30.6504 153.657 30.8313 153.931C31.0122 154.197 31.1519 154.523 31.2506 154.91C31.3493 155.297 31.3986 155.821 31.3986 156.482C31.3986 157.264 31.3164 157.892 31.1519 158.368C30.9957 158.843 30.7532 159.214 30.4243 159.48C30.1037 159.738 29.6926 159.867 29.1911 159.867C28.5416 159.867 28.0277 159.637 27.6495 159.178C27.2055 158.63 26.9836 157.731 26.9836 156.482ZM27.8345 156.482C27.8345 157.57 27.966 158.295 28.2291 158.658C28.4922 159.021 28.8129 159.202 29.1911 159.202C29.5775 159.202 29.8981 159.021 30.153 158.658C30.4161 158.295 30.5477 157.57 30.5477 156.482C30.5477 155.386 30.4161 154.66 30.153 154.306C29.8981 153.943 29.5734 153.762 29.1787 153.762C28.8005 153.762 28.4963 153.919 28.2661 154.233C27.9784 154.636 27.8345 155.386 27.8345 156.482ZM32.5085 156.482C32.5085 155.692 32.5907 155.059 32.7552 154.584C32.9196 154.1 33.1622 153.729 33.4828 153.472C33.8117 153.214 34.2227 153.085 34.716 153.085C35.0778 153.085 35.3943 153.157 35.6656 153.302C35.9452 153.447 36.1754 153.657 36.3563 153.931C36.5371 154.197 36.6769 154.523 36.7756 154.91C36.8742 155.297 36.9236 155.821 36.9236 156.482C36.9236 157.264 36.8414 157.892 36.6769 158.368C36.5207 158.843 36.2782 159.214 35.9493 159.48C35.6287 159.738 35.2176 159.867 34.716 159.867C34.0665 159.867 33.5527 159.637 33.1745 159.178C32.7305 158.63 32.5085 157.731 32.5085 156.482ZM33.3595 156.482C33.3595 157.57 33.491 158.295 33.7541 158.658C34.0172 159.021 34.3378 159.202 34.716 159.202C35.1025 159.202 35.4231 159.021 35.678 158.658C35.9411 158.295 36.0726 157.57 36.0726 156.482C36.0726 155.386 35.9411 154.66 35.678 154.306C35.4231 153.943 35.0984 153.762 34.7037 153.762C34.3255 153.762 34.0213 153.919 33.7911 154.233C33.5033 154.636 33.3595 155.386 33.3595 156.482ZM38.0335 156.482C38.0335 155.692 38.1157 155.059 38.2801 154.584C38.4446 154.1 38.6871 153.729 39.0078 153.472C39.3366 153.214 39.7477 153.085 40.241 153.085C40.6028 153.085 40.9193 153.157 41.1906 153.302C41.4702 153.447 41.7004 153.657 41.8812 153.931C42.0621 154.197 42.2019 154.523 42.3005 154.91C42.3992 155.297 42.4485 155.821 42.4485 156.482C42.4485 157.264 42.3663 157.892 42.2019 158.368C42.0457 158.843 41.8031 159.214 41.4743 159.48C41.1536 159.738 40.7425 159.867 40.241 159.867C39.5915 159.867 39.0776 159.637 38.6994 159.178C38.2555 158.63 38.0335 157.731 38.0335 156.482ZM38.8844 156.482C38.8844 157.57 39.016 158.295 39.2791 158.658C39.5422 159.021 39.8628 159.202 40.241 159.202C40.6274 159.202 40.9481 159.021 41.2029 158.658C41.466 158.295 41.5976 157.57 41.5976 156.482C41.5976 155.386 41.466 154.66 41.2029 154.306C40.9481 153.943 40.6233 153.762 40.2287 153.762C39.8505 153.762 39.5463 153.919 39.3161 154.233C39.0283 154.636 38.8844 155.386 38.8844 156.482ZM43.5585 156.482C43.5585 155.692 43.6407 155.059 43.8051 154.584C43.9695 154.1 44.2121 153.729 44.5327 153.472C44.8616 153.214 45.2727 153.085 45.766 153.085C46.1277 153.085 46.4443 153.157 46.7156 153.302C46.9951 153.447 47.2253 153.657 47.4062 153.931C47.5871 154.197 47.7269 154.523 47.8255 154.91C47.9242 155.297 47.9735 155.821 47.9735 156.482C47.9735 157.264 47.8913 157.892 47.7269 158.368C47.5706 158.843 47.3281 159.214 46.9992 159.48C46.6786 159.738 46.2675 159.867 45.766 159.867C45.1165 159.867 44.6026 159.637 44.2244 159.178C43.7804 158.63 43.5585 157.731 43.5585 156.482ZM44.4094 156.482C44.4094 157.57 44.541 158.295 44.804 158.658C45.0671 159.021 45.3878 159.202 45.766 159.202C46.1524 159.202 46.473 159.021 46.7279 158.658C46.991 158.295 47.1226 157.57 47.1226 156.482C47.1226 155.386 46.991 154.66 46.7279 154.306C46.473 153.943 46.1483 153.762 45.7537 153.762C45.3755 153.762 45.0713 153.919 44.841 154.233C44.5533 154.636 44.4094 155.386 44.4094 156.482ZM49.0834 156.482C49.0834 155.692 49.1656 155.059 49.3301 154.584C49.4945 154.1 49.7371 153.729 50.0577 153.472C50.3866 153.214 50.7977 153.085 51.291 153.085C51.6527 153.085 51.9692 153.157 52.2406 153.302C52.5201 153.447 52.7503 153.657 52.9312 153.931C53.1121 154.197 53.2518 154.523 53.3505 154.91C53.4491 155.297 53.4985 155.821 53.4985 156.482C53.4985 157.264 53.4163 157.892 53.2518 158.368C53.0956 158.843 52.8531 159.214 52.5242 159.48C52.2036 159.738 51.7925 159.867 51.291 159.867C50.6414 159.867 50.1276 159.637 49.7494 159.178C49.3054 158.63 49.0834 157.731 49.0834 156.482ZM49.9344 156.482C49.9344 157.57 50.0659 158.295 50.329 158.658C50.5921 159.021 50.9128 159.202 51.291 159.202C51.6774 159.202 51.998 159.021 52.2529 158.658C52.516 158.295 52.6475 157.57 52.6475 156.482C52.6475 155.386 52.516 154.66 52.2529 154.306C51.998 153.943 51.6733 153.762 51.2786 153.762C50.9004 153.762 50.5962 153.919 50.366 154.233C50.0783 154.636 49.9344 155.386 49.9344 156.482ZM54.6084 156.482C54.6084 155.692 54.6906 155.059 54.8551 154.584C55.0195 154.1 55.262 153.729 55.5827 153.472C55.9115 153.214 56.3226 153.085 56.8159 153.085C57.1777 153.085 57.4942 153.157 57.7655 153.302C58.0451 153.447 58.2753 153.657 58.4562 153.931C58.637 154.197 58.7768 154.523 58.8755 154.91C58.9741 155.297 59.0234 155.821 59.0234 156.482C59.0234 157.264 58.9412 157.892 58.7768 158.368C58.6206 158.843 58.378 159.214 58.0492 159.48C57.7285 159.738 57.3175 159.867 56.8159 159.867C56.1664 159.867 55.6526 159.637 55.2744 159.178C54.8304 158.63 54.6084 157.731 54.6084 156.482ZM55.4593 156.482C55.4593 157.57 55.5909 158.295 55.854 158.658C56.1171 159.021 56.4377 159.202 56.8159 159.202C57.2023 159.202 57.523 159.021 57.7779 158.658C58.041 158.295 58.1725 157.57 58.1725 156.482C58.1725 155.386 58.041 154.66 57.7779 154.306C57.523 153.943 57.1982 153.762 56.8036 153.762C56.4254 153.762 56.1212 153.919 55.891 154.233C55.6032 154.636 55.4593 155.386 55.4593 156.482ZM60.602 159.758V158.827H61.5516V159.758H60.602ZM62.5012 156.482C62.5012 155.692 62.5834 155.059 62.7479 154.584C62.9123 154.1 63.1548 153.729 63.4755 153.472C63.8044 153.214 64.2154 153.085 64.7087 153.085C65.0705 153.085 65.387 153.157 65.6583 153.302C65.9379 153.447 66.1681 153.657 66.349 153.931C66.5298 154.197 66.6696 154.523 66.7683 154.91C66.8669 155.297 66.9163 155.821 66.9163 156.482C66.9163 157.264 66.834 157.892 66.6696 158.368C66.5134 158.843 66.2709 159.214 65.942 159.48C65.6213 159.738 65.2103 159.867 64.7087 159.867C64.0592 159.867 63.5454 159.637 63.1672 159.178C62.7232 158.63 62.5012 157.731 62.5012 156.482ZM63.3522 156.482C63.3522 157.57 63.4837 158.295 63.7468 158.658C64.0099 159.021 64.3305 159.202 64.7087 159.202C65.0952 159.202 65.4158 159.021 65.6707 158.658C65.9338 158.295 66.0653 157.57 66.0653 156.482C66.0653 155.386 65.9338 154.66 65.6707 154.306C65.4158 153.943 65.091 153.762 64.6964 153.762C64.3182 153.762 64.014 153.919 63.7838 154.233C63.496 154.636 63.3522 155.386 63.3522 156.482ZM68.0262 156.482C68.0262 155.692 68.1084 155.059 68.2728 154.584C68.4373 154.1 68.6798 153.729 69.0005 153.472C69.3293 153.214 69.7404 153.085 70.2337 153.085C70.5955 153.085 70.912 153.157 71.1833 153.302C71.4629 153.447 71.6931 153.657 71.8739 153.931C72.0548 154.197 72.1946 154.523 72.2932 154.91C72.3919 155.297 72.4412 155.821 72.4412 156.482C72.4412 157.264 72.359 157.892 72.1946 158.368C72.0384 158.843 71.7958 159.214 71.467 159.48C71.1463 159.738 70.7352 159.867 70.2337 159.867C69.5842 159.867 69.0703 159.637 68.6921 159.178C68.2482 158.63 68.0262 157.731 68.0262 156.482ZM68.8771 156.482C68.8771 157.57 69.0087 158.295 69.2718 158.658C69.5349 159.021 69.8555 159.202 70.2337 159.202C70.6201 159.202 70.9408 159.021 71.1956 158.658C71.4587 158.295 71.5903 157.57 71.5903 156.482C71.5903 155.386 71.4587 154.66 71.1956 154.306C70.9408 153.943 70.616 153.762 70.2214 153.762C69.8432 153.762 69.539 153.919 69.3088 154.233C69.021 154.636 68.8771 155.386 68.8771 156.482ZM73.7115 154.705C73.7115 154.229 73.8307 153.826 74.0691 153.496C74.3158 153.165 74.6693 153 75.1297 153C75.5573 153 75.9108 153.149 76.1903 153.447C76.4699 153.746 76.6096 154.181 76.6096 154.753C76.6096 155.317 76.4657 155.752 76.178 156.059C75.8984 156.357 75.5531 156.506 75.1421 156.506C74.731 156.506 74.3898 156.357 74.1185 156.059C73.8471 155.761 73.7115 155.309 73.7115 154.705ZM75.1544 153.556C74.9488 153.556 74.7762 153.645 74.6364 153.822C74.5049 153.999 74.4391 154.322 74.4391 154.789C74.4391 155.216 74.5049 155.519 74.6364 155.696C74.7762 155.865 74.9488 155.95 75.1544 155.95C75.3681 155.95 75.5408 155.861 75.6723 155.684C75.8121 155.507 75.882 155.188 75.882 154.729C75.882 154.294 75.8121 153.991 75.6723 153.822C75.5326 153.645 75.3599 153.556 75.1544 153.556ZM75.1544 160L78.8665 153H79.5448L75.845 160H75.1544ZM78.0895 158.199C78.0895 157.723 78.2087 157.32 78.4472 156.99C78.6938 156.659 79.0515 156.494 79.5201 156.494C79.9476 156.494 80.3012 156.643 80.5807 156.941C80.8602 157.231 81 157.667 81 158.247C81 158.811 80.8561 159.246 80.5684 159.553C80.2888 159.851 79.9394 160 79.5201 160C79.1172 160 78.776 159.851 78.4965 159.553C78.2252 159.254 78.0895 158.803 78.0895 158.199ZM79.5448 157.05C79.331 157.05 79.1542 157.139 79.0145 157.316C78.8829 157.493 78.8171 157.816 78.8171 158.283C78.8171 158.702 78.887 159.001 79.0268 159.178C79.1666 159.355 79.3392 159.444 79.5448 159.444C79.7503 159.444 79.923 159.355 80.0627 159.178C80.2025 159.001 80.2724 158.678 80.2724 158.211C80.2724 157.784 80.2025 157.485 80.0627 157.316C79.923 157.139 79.7503 157.05 79.5448 157.05Z" fill="black"/>
<path d="M2.49117 6.7582H1.66489V1.55959C1.45935 1.74496 1.19214 1.93437 0.863276 2.12781C0.542631 2.31318 0.254873 2.4502 0 2.53886V1.75302C0.460414 1.53541 0.863276 1.27749 1.20859 0.979275C1.56212 0.672999 1.81288 0.374784 1.96087 0.0846287H2.49117V6.7582ZM4.88368 5.01727L5.75929 4.94473C5.82506 5.36385 5.97305 5.67818 6.20326 5.88774C6.44169 6.09729 6.72945 6.20207 7.06653 6.20207C7.46118 6.20207 7.79826 6.05296 8.0778 5.75475C8.35734 5.45653 8.49711 5.06563 8.49711 4.58204C8.49711 4.11457 8.36145 3.74784 8.09013 3.48187C7.82704 3.20783 7.47762 3.07081 7.04187 3.07081C6.77878 3.07081 6.53624 3.13126 6.31425 3.25216C6.10049 3.37306 5.93194 3.5262 5.80862 3.71157L5.03167 3.61485L5.68529 0.205527H9.0644V0.979275H6.35125L5.99361 2.76857C6.39647 2.48647 6.81988 2.34542 7.26385 2.34542C7.85582 2.34542 8.35323 2.54692 8.75609 2.94991C9.16717 3.35291 9.37272 3.87277 9.37272 4.5095C9.37272 5.10593 9.19595 5.62579 8.84242 6.06908C8.40667 6.60104 7.81471 6.86701 7.06653 6.86701C6.44991 6.86701 5.94428 6.69775 5.54963 6.35924C5.16322 6.02073 4.94123 5.5734 4.88368 5.01727ZM10.4086 3.48187C10.4086 2.692 10.4909 2.0593 10.6553 1.58377C10.8197 1.10017 11.0623 0.729419 11.3829 0.471503C11.7118 0.213587 12.1229 0.0846287 12.6162 0.0846287C12.9779 0.0846287 13.2945 0.157168 13.5658 0.302245C13.8453 0.447323 14.0755 0.65688 14.2564 0.930915C14.4373 1.19689 14.577 1.52332 14.6757 1.91019C14.7744 2.29706 14.8237 2.82096 14.8237 3.48187C14.8237 4.26367 14.7415 4.89234 14.577 5.36788C14.4208 5.84341 14.1783 6.21416 13.8494 6.48014C13.5288 6.73805 13.1177 6.86701 12.6162 6.86701C11.9667 6.86701 11.4528 6.63731 11.0746 6.17789C10.6306 5.62982 10.4086 4.73115 10.4086 3.48187ZM11.2596 3.48187C11.2596 4.56995 11.3911 5.29534 11.6542 5.65803C11.9173 6.02073 12.238 6.20207 12.6162 6.20207C13.0026 6.20207 13.3232 6.02073 13.5781 5.65803C13.8412 5.29534 13.9727 4.56995 13.9727 3.48187C13.9727 2.38572 13.8412 1.66033 13.5781 1.3057C13.3232 0.943005 12.9985 0.761658 12.6038 0.761658C12.2256 0.761658 11.9214 0.918825 11.6912 1.23316C11.4035 1.63615 11.2596 2.38572 11.2596 3.48187ZM15.9336 3.48187C15.9336 2.692 16.0158 2.0593 16.1803 1.58377C16.3447 1.10017 16.5872 0.729419 16.9079 0.471503C17.2368 0.213587 17.6478 0.0846287 18.1411 0.0846287C18.5029 0.0846287 18.8194 0.157168 19.0907 0.302245C19.3703 0.447323 19.6005 0.65688 19.7814 0.930915C19.9622 1.19689 20.102 1.52332 20.2007 1.91019C20.2993 2.29706 20.3487 2.82096 20.3487 3.48187C20.3487 4.26367 20.2664 4.89234 20.102 5.36788C19.9458 5.84341 19.7033 6.21416 19.3744 6.48014C19.0537 6.73805 18.6427 6.86701 18.1411 6.86701C17.4916 6.86701 16.9778 6.63731 16.5996 6.17789C16.1556 5.62982 15.9336 4.73115 15.9336 3.48187ZM16.7846 3.48187C16.7846 4.56995 16.9161 5.29534 17.1792 5.65803C17.4423 6.02073 17.7629 6.20207 18.1411 6.20207C18.5276 6.20207 18.8482 6.02073 19.1031 5.65803C19.3662 5.29534 19.4977 4.56995 19.4977 3.48187C19.4977 2.38572 19.3662 1.66033 19.1031 1.3057C18.8482 0.943005 18.5234 0.761658 18.1288 0.761658C17.7506 0.761658 17.4464 0.918825 17.2162 1.23316C16.9284 1.63615 16.7846 2.38572 16.7846 3.48187ZM21.4586 3.48187C21.4586 2.692 21.5408 2.0593 21.7052 1.58377C21.8697 1.10017 22.1122 0.729419 22.4329 0.471503C22.7617 0.213587 23.1728 0.0846287 23.6661 0.0846287C24.0279 0.0846287 24.3444 0.157168 24.6157 0.302245C24.8952 0.447323 25.1255 0.65688 25.3063 0.930915C25.4872 1.19689 25.627 1.52332 25.7256 1.91019C25.8243 2.29706 25.8736 2.82096 25.8736 3.48187C25.8736 4.26367 25.7914 4.89234 25.627 5.36788C25.4708 5.84341 25.2282 6.21416 24.8994 6.48014C24.5787 6.73805 24.1676 6.86701 23.6661 6.86701C23.0166 6.86701 22.5027 6.63731 22.1245 6.17789C21.6806 5.62982 21.4586 4.73115 21.4586 3.48187ZM22.3095 3.48187C22.3095 4.56995 22.4411 5.29534 22.7042 5.65803C22.9673 6.02073 23.2879 6.20207 23.6661 6.20207C24.0525 6.20207 24.3732 6.02073 24.628 5.65803C24.8911 5.29534 25.0227 4.56995 25.0227 3.48187C25.0227 2.38572 24.8911 1.66033 24.628 1.3057C24.3732 0.943005 24.0484 0.761658 23.6538 0.761658C23.2756 0.761658 22.9714 0.918825 22.7412 1.23316C22.4534 1.63615 22.3095 2.38572 22.3095 3.48187ZM26.9836 3.48187C26.9836 2.692 27.0658 2.0593 27.2302 1.58377C27.3946 1.10017 27.6372 0.729419 27.9578 0.471503C28.2867 0.213587 28.6978 0.0846287 29.1911 0.0846287C29.5528 0.0846287 29.8694 0.157168 30.1407 0.302245C30.4202 0.447323 30.6504 0.65688 30.8313 0.930915C31.0122 1.19689 31.1519 1.52332 31.2506 1.91019C31.3493 2.29706 31.3986 2.82096 31.3986 3.48187C31.3986 4.26367 31.3164 4.89234 31.1519 5.36788C30.9957 5.84341 30.7532 6.21416 30.4243 6.48014C30.1037 6.73805 29.6926 6.86701 29.1911 6.86701C28.5416 6.86701 28.0277 6.63731 27.6495 6.17789C27.2055 5.62982 26.9836 4.73115 26.9836 3.48187ZM27.8345 3.48187C27.8345 4.56995 27.966 5.29534 28.2291 5.65803C28.4922 6.02073 28.8129 6.20207 29.1911 6.20207C29.5775 6.20207 29.8981 6.02073 30.153 5.65803C30.4161 5.29534 30.5477 4.56995 30.5477 3.48187C30.5477 2.38572 30.4161 1.66033 30.153 1.3057C29.8981 0.943005 29.5734 0.761658 29.1787 0.761658C28.8005 0.761658 28.4963 0.918825 28.2661 1.23316C27.9784 1.63615 27.8345 2.38572 27.8345 3.48187ZM32.5085 3.48187C32.5085 2.692 32.5907 2.0593 32.7552 1.58377C32.9196 1.10017 33.1622 0.729419 33.4828 0.471503C33.8117 0.213587 34.2227 0.0846287 34.716 0.0846287C35.0778 0.0846287 35.3943 0.157168 35.6656 0.302245C35.9452 0.447323 36.1754 0.65688 36.3563 0.930915C36.5371 1.19689 36.6769 1.52332 36.7756 1.91019C36.8742 2.29706 36.9236 2.82096 36.9236 3.48187C36.9236 4.26367 36.8414 4.89234 36.6769 5.36788C36.5207 5.84341 36.2782 6.21416 35.9493 6.48014C35.6287 6.73805 35.2176 6.86701 34.716 6.86701C34.0665 6.86701 33.5527 6.63731 33.1745 6.17789C32.7305 5.62982 32.5085 4.73115 32.5085 3.48187ZM33.3595 3.48187C33.3595 4.56995 33.491 5.29534 33.7541 5.65803C34.0172 6.02073 34.3378 6.20207 34.716 6.20207C35.1025 6.20207 35.4231 6.02073 35.678 5.65803C35.9411 5.29534 36.0726 4.56995 36.0726 3.48187C36.0726 2.38572 35.9411 1.66033 35.678 1.3057C35.4231 0.943005 35.0984 0.761658 34.7037 0.761658C34.3255 0.761658 34.0213 0.918825 33.7911 1.23316C33.5033 1.63615 33.3595 2.38572 33.3595 3.48187ZM38.0335 3.48187C38.0335 2.692 38.1157 2.0593 38.2801 1.58377C38.4446 1.10017 38.6871 0.729419 39.0078 0.471503C39.3366 0.213587 39.7477 0.0846287 40.241 0.0846287C40.6028 0.0846287 40.9193 0.157168 41.1906 0.302245C41.4702 0.447323 41.7004 0.65688 41.8812 0.930915C42.0621 1.19689 42.2019 1.52332 42.3005 1.91019C42.3992 2.29706 42.4485 2.82096 42.4485 3.48187C42.4485 4.26367 42.3663 4.89234 42.2019 5.36788C42.0457 5.84341 41.8031 6.21416 41.4743 6.48014C41.1536 6.73805 40.7425 6.86701 40.241 6.86701C39.5915 6.86701 39.0776 6.63731 38.6994 6.17789C38.2555 5.62982 38.0335 4.73115 38.0335 3.48187ZM38.8844 3.48187C38.8844 4.56995 39.016 5.29534 39.2791 5.65803C39.5422 6.02073 39.8628 6.20207 40.241 6.20207C40.6274 6.20207 40.9481 6.02073 41.2029 5.65803C41.466 5.29534 41.5976 4.56995 41.5976 3.48187C41.5976 2.38572 41.466 1.66033 41.2029 1.3057C40.9481 0.943005 40.6233 0.761658 40.2287 0.761658C39.8505 0.761658 39.5463 0.918825 39.3161 1.23316C39.0283 1.63615 38.8844 2.38572 38.8844 3.48187ZM43.5585 3.48187C43.5585 2.692 43.6407 2.0593 43.8051 1.58377C43.9695 1.10017 44.2121 0.729419 44.5327 0.471503C44.8616 0.213587 45.2727 0.0846287 45.766 0.0846287C46.1277 0.0846287 46.4443 0.157168 46.7156 0.302245C46.9951 0.447323 47.2253 0.65688 47.4062 0.930915C47.5871 1.19689 47.7269 1.52332 47.8255 1.91019C47.9242 2.29706 47.9735 2.82096 47.9735 3.48187C47.9735 4.26367 47.8913 4.89234 47.7269 5.36788C47.5706 5.84341 47.3281 6.21416 46.9992 6.48014C46.6786 6.73805 46.2675 6.86701 45.766 6.86701C45.1165 6.86701 44.6026 6.63731 44.2244 6.17789C43.7804 5.62982 43.5585 4.73115 43.5585 3.48187ZM44.4094 3.48187C44.4094 4.56995 44.541 5.29534 44.804 5.65803C45.0671 6.02073 45.3878 6.20207 45.766 6.20207C46.1524 6.20207 46.473 6.02073 46.7279 5.65803C46.991 5.29534 47.1226 4.56995 47.1226 3.48187C47.1226 2.38572 46.991 1.66033 46.7279 1.3057C46.473 0.943005 46.1483 0.761658 45.7537 0.761658C45.3755 0.761658 45.0713 0.918825 44.841 1.23316C44.5533 1.63615 44.4094 2.38572 44.4094 3.48187ZM49.0834 3.48187C49.0834 2.692 49.1656 2.0593 49.3301 1.58377C49.4945 1.10017 49.7371 0.729419 50.0577 0.471503C50.3866 0.213587 50.7977 0.0846287 51.291 0.0846287C51.6527 0.0846287 51.9692 0.157168 52.2406 0.302245C52.5201 0.447323 52.7503 0.65688 52.9312 0.930915C53.1121 1.19689 53.2518 1.52332 53.3505 1.91019C53.4491 2.29706 53.4985 2.82096 53.4985 3.48187C53.4985 4.26367 53.4163 4.89234 53.2518 5.36788C53.0956 5.84341 52.8531 6.21416 52.5242 6.48014C52.2036 6.73805 51.7925 6.86701 51.291 6.86701C50.6414 6.86701 50.1276 6.63731 49.7494 6.17789C49.3054 5.62982 49.0834 4.73115 49.0834 3.48187ZM49.9344 3.48187C49.9344 4.56995 50.0659 5.29534 50.329 5.65803C50.5921 6.02073 50.9128 6.20207 51.291 6.20207C51.6774 6.20207 51.998 6.02073 52.2529 5.65803C52.516 5.29534 52.6475 4.56995 52.6475 3.48187C52.6475 2.38572 52.516 1.66033 52.2529 1.3057C51.998 0.943005 51.6733 0.761658 51.2786 0.761658C50.9004 0.761658 50.5962 0.918825 50.366 1.23316C50.0783 1.63615 49.9344 2.38572 49.9344 3.48187ZM54.6084 3.48187C54.6084 2.692 54.6906 2.0593 54.8551 1.58377C55.0195 1.10017 55.262 0.729419 55.5827 0.471503C55.9115 0.213587 56.3226 0.0846287 56.8159 0.0846287C57.1777 0.0846287 57.4942 0.157168 57.7655 0.302245C58.0451 0.447323 58.2753 0.65688 58.4562 0.930915C58.637 1.19689 58.7768 1.52332 58.8755 1.91019C58.9741 2.29706 59.0234 2.82096 59.0234 3.48187C59.0234 4.26367 58.9412 4.89234 58.7768 5.36788C58.6206 5.84341 58.378 6.21416 58.0492 6.48014C57.7285 6.73805 57.3175 6.86701 56.8159 6.86701C56.1664 6.86701 55.6526 6.63731 55.2744 6.17789C54.8304 5.62982 54.6084 4.73115 54.6084 3.48187ZM55.4593 3.48187C55.4593 4.56995 55.5909 5.29534 55.854 5.65803C56.1171 6.02073 56.4377 6.20207 56.8159 6.20207C57.2023 6.20207 57.523 6.02073 57.7779 5.65803C58.041 5.29534 58.1725 4.56995 58.1725 3.48187C58.1725 2.38572 58.041 1.66033 57.7779 1.3057C57.523 0.943005 57.1982 0.761658 56.8036 0.761658C56.4254 0.761658 56.1212 0.918825 55.891 1.23316C55.6032 1.63615 55.4593 2.38572 55.4593 3.48187ZM60.602 6.7582V5.82729H61.5516V6.7582H60.602ZM62.5012 3.48187C62.5012 2.692 62.5834 2.0593 62.7479 1.58377C62.9123 1.10017 63.1548 0.729419 63.4755 0.471503C63.8044 0.213587 64.2154 0.0846287 64.7087 0.0846287C65.0705 0.0846287 65.387 0.157168 65.6583 0.302245C65.9379 0.447323 66.1681 0.65688 66.349 0.930915C66.5298 1.19689 66.6696 1.52332 66.7683 1.91019C66.8669 2.29706 66.9163 2.82096 66.9163 3.48187C66.9163 4.26367 66.834 4.89234 66.6696 5.36788C66.5134 5.84341 66.2709 6.21416 65.942 6.48014C65.6213 6.73805 65.2103 6.86701 64.7087 6.86701C64.0592 6.86701 63.5454 6.63731 63.1672 6.17789C62.7232 5.62982 62.5012 4.73115 62.5012 3.48187ZM63.3522 3.48187C63.3522 4.56995 63.4837 5.29534 63.7468 5.65803C64.0099 6.02073 64.3305 6.20207 64.7087 6.20207C65.0952 6.20207 65.4158 6.02073 65.6707 5.65803C65.9338 5.29534 66.0653 4.56995 66.0653 3.48187C66.0653 2.38572 65.9338 1.66033 65.6707 1.3057C65.4158 0.943005 65.091 0.761658 64.6964 0.761658C64.3182 0.761658 64.014 0.918825 63.7838 1.23316C63.496 1.63615 63.3522 2.38572 63.3522 3.48187ZM68.0262 3.48187C68.0262 2.692 68.1084 2.0593 68.2728 1.58377C68.4373 1.10017 68.6798 0.729419 69.0005 0.471503C69.3293 0.213587 69.7404 0.0846287 70.2337 0.0846287C70.5955 0.0846287 70.912 0.157168 71.1833 0.302245C71.4629 0.447323 71.6931 0.65688 71.8739 0.930915C72.0548 1.19689 72.1946 1.52332 72.2932 1.91019C72.3919 2.29706 72.4412 2.82096 72.4412 3.48187C72.4412 4.26367 72.359 4.89234 72.1946 5.36788C72.0384 5.84341 71.7958 6.21416 71.467 6.48014C71.1463 6.73805 70.7352 6.86701 70.2337 6.86701C69.5842 6.86701 69.0703 6.63731 68.6921 6.17789C68.2482 5.62982 68.0262 4.73115 68.0262 3.48187ZM68.8771 3.48187C68.8771 4.56995 69.0087 5.29534 69.2718 5.65803C69.5349 6.02073 69.8555 6.20207 70.2337 6.20207C70.6201 6.20207 70.9408 6.02073 71.1956 5.65803C71.4587 5.29534 71.5903 4.56995 71.5903 3.48187C71.5903 2.38572 71.4587 1.66033 71.1956 1.3057C70.9408 0.943005 70.616 0.761658 70.2214 0.761658C69.8432 0.761658 69.539 0.918825 69.3088 1.23316C69.021 1.63615 68.8771 2.38572 68.8771 3.48187ZM73.7115 1.70466C73.7115 1.22913 73.8307 0.826138 74.0691 0.495682C74.3158 0.165228 74.6693 0 75.1297 0C75.5573 0 75.9108 0.149108 76.1903 0.447323C76.4699 0.745539 76.6096 1.18077 76.6096 1.75302C76.6096 2.31721 76.4657 2.75245 76.178 3.05872C75.8984 3.35694 75.5531 3.50605 75.1421 3.50605C74.731 3.50605 74.3898 3.35694 74.1185 3.05872C73.8471 2.76051 73.7115 2.30915 73.7115 1.70466ZM75.1544 0.556131C74.9488 0.556131 74.7762 0.64479 74.6364 0.822107C74.5049 0.999424 74.4391 1.32182 74.4391 1.78929C74.4391 2.21646 74.5049 2.51871 74.6364 2.69603C74.7762 2.86529 74.9488 2.94991 75.1544 2.94991C75.3681 2.94991 75.5408 2.86126 75.6723 2.68394C75.8121 2.50662 75.882 2.18826 75.882 1.72884C75.882 1.29361 75.8121 0.991364 75.6723 0.822107C75.5326 0.64479 75.3599 0.556131 75.1544 0.556131ZM75.1544 7L78.8665 0H79.5448L75.845 7H75.1544ZM78.0895 5.19862C78.0895 4.72309 78.2087 4.32009 78.4472 3.98964C78.6938 3.65918 79.0515 3.49396 79.5201 3.49396C79.9476 3.49396 80.3012 3.64306 80.5807 3.94128C80.8602 4.23143 81 4.66667 81 5.24698C81 5.81117 80.8561 6.2464 80.5684 6.55268C80.2888 6.85089 79.9394 7 79.5201 7C79.1172 7 78.776 6.85089 78.4965 6.55268C78.2252 6.25446 78.0895 5.80311 78.0895 5.19862ZM79.5448 4.05009C79.331 4.05009 79.1542 4.13874 79.0145 4.31606C78.8829 4.49338 78.8171 4.81577 78.8171 5.28325C78.8171 5.70236 78.887 6.00058 79.0268 6.17789C79.1666 6.35521 79.3392 6.44387 79.5448 6.44387C79.7503 6.44387 79.923 6.35521 80.0627 6.17789C80.2025 6.00058 80.2724 5.67818 80.2724 5.21071C80.2724 4.78354 80.2025 4.48532 80.0627 4.31606C79.923 4.13874 79.7503 4.05009 79.5448 4.05009Z" fill="black"/>
</svg>
