<svg width="558" height="508" viewBox="0 0 558 508" fill="none" xmlns="http://www.w3.org/2000/svg">
<g filter="url(#filter0_dii)">
<path d="M4 9.99999C4 4.47714 8.47715 0 14 0H544C549.523 0 554 4.47715 554 10V500H4V9.99999Z" fill="white"/>
<path d="M4 9.99999C4 4.47714 8.47715 0 14 0H544C549.523 0 554 4.47715 554 10V500H4V9.99999Z" fill="#5551FF" fill-opacity="0.05"/>
<path d="M4.5 9.99999C4.5 4.75329 8.75329 0.5 14 0.5H544C549.247 0.5 553.5 4.7533 553.5 10V499.5H4.5V9.99999Z" stroke="#D7D7D7"/>
</g>
<path d="M447.068 481.849V485.523C447.068 486.044 447.125 486.373 447.239 486.512C447.389 486.691 447.591 486.78 447.843 486.78H448.35V487H445.011V486.78H445.261C445.424 486.78 445.573 486.74 445.707 486.658C445.841 486.577 445.933 486.467 445.981 486.329C446.034 486.19 446.061 485.922 446.061 485.523V481.849H444.974V481.409H446.061V481.043C446.061 480.486 446.15 480.014 446.329 479.627C446.508 479.24 446.781 478.929 447.147 478.693C447.517 478.453 447.933 478.333 448.392 478.333C448.82 478.333 449.212 478.471 449.57 478.748C449.806 478.931 449.924 479.137 449.924 479.365C449.924 479.487 449.871 479.603 449.766 479.712C449.66 479.818 449.546 479.871 449.424 479.871C449.33 479.871 449.231 479.839 449.125 479.773C449.023 479.704 448.897 479.56 448.746 479.34C448.596 479.116 448.457 478.966 448.331 478.888C448.205 478.811 448.065 478.772 447.91 478.772C447.723 478.772 447.564 478.823 447.434 478.925C447.304 479.023 447.21 479.177 447.153 479.389C447.096 479.596 447.068 480.136 447.068 481.006V481.409H448.508V481.849H447.068ZM450.468 478.321C450.638 478.321 450.783 478.382 450.901 478.504C451.023 478.622 451.084 478.766 451.084 478.937C451.084 479.108 451.023 479.255 450.901 479.377C450.783 479.499 450.638 479.56 450.468 479.56C450.297 479.56 450.15 479.499 450.028 479.377C449.906 479.255 449.845 479.108 449.845 478.937C449.845 478.766 449.904 478.622 450.022 478.504C450.144 478.382 450.293 478.321 450.468 478.321ZM450.974 481.244V485.737C450.974 486.087 450.999 486.32 451.047 486.438C451.1 486.552 451.176 486.638 451.273 486.695C451.375 486.752 451.558 486.78 451.823 486.78V487H449.106V486.78C449.379 486.78 449.562 486.754 449.656 486.701C449.749 486.648 449.823 486.561 449.875 486.438C449.932 486.316 449.961 486.082 449.961 485.737V483.582C449.961 482.976 449.943 482.583 449.906 482.404C449.878 482.274 449.833 482.184 449.772 482.135C449.711 482.083 449.627 482.056 449.521 482.056C449.408 482.056 449.269 482.087 449.106 482.148L449.021 481.928L450.706 481.244H450.974ZM454.02 484.961C453.678 484.795 453.416 484.563 453.232 484.266C453.049 483.965 452.958 483.633 452.958 483.271C452.958 482.717 453.165 482.241 453.58 481.843C453.999 481.444 454.535 481.244 455.186 481.244C455.719 481.244 456.18 481.375 456.571 481.635H457.755C457.93 481.635 458.032 481.641 458.06 481.653C458.089 481.661 458.109 481.678 458.121 481.702C458.146 481.739 458.158 481.804 458.158 481.897C458.158 482.003 458.148 482.076 458.127 482.117C458.115 482.138 458.093 482.154 458.06 482.166C458.032 482.178 457.93 482.184 457.755 482.184H457.029C457.257 482.477 457.371 482.852 457.371 483.307C457.371 483.828 457.171 484.274 456.772 484.644C456.374 485.014 455.839 485.199 455.167 485.199C454.891 485.199 454.608 485.159 454.319 485.077C454.14 485.232 454.018 485.368 453.953 485.486C453.892 485.6 453.861 485.698 453.861 485.779C453.861 485.848 453.894 485.916 453.959 485.981C454.028 486.046 454.16 486.093 454.355 486.121C454.469 486.137 454.754 486.152 455.21 486.164C456.048 486.184 456.591 486.213 456.84 486.249C457.218 486.302 457.519 486.443 457.743 486.67C457.971 486.898 458.085 487.179 458.085 487.513C458.085 487.972 457.869 488.404 457.438 488.807C456.803 489.401 455.975 489.698 454.954 489.698C454.168 489.698 453.505 489.521 452.964 489.167C452.659 488.963 452.506 488.752 452.506 488.532C452.506 488.434 452.528 488.337 452.573 488.239C452.642 488.088 452.785 487.879 453 487.61C453.029 487.574 453.236 487.354 453.623 486.951C453.411 486.825 453.261 486.713 453.171 486.615C453.086 486.514 453.043 486.4 453.043 486.274C453.043 486.131 453.1 485.964 453.214 485.773C453.332 485.582 453.601 485.311 454.02 484.961ZM455.082 481.537C454.781 481.537 454.528 481.657 454.325 481.897C454.122 482.138 454.02 482.506 454.02 483.002C454.02 483.645 454.158 484.144 454.435 484.498C454.646 484.766 454.915 484.9 455.24 484.9C455.55 484.9 455.804 484.784 456.003 484.552C456.203 484.321 456.302 483.956 456.302 483.46C456.302 482.813 456.162 482.306 455.881 481.94C455.674 481.672 455.407 481.537 455.082 481.537ZM453.959 487C453.767 487.208 453.623 487.401 453.525 487.58C453.428 487.759 453.379 487.924 453.379 488.074C453.379 488.27 453.497 488.44 453.733 488.587C454.14 488.839 454.728 488.965 455.497 488.965C456.229 488.965 456.768 488.835 457.114 488.575C457.464 488.318 457.639 488.044 457.639 487.751C457.639 487.539 457.535 487.389 457.328 487.299C457.116 487.21 456.697 487.157 456.071 487.14C455.155 487.116 454.451 487.069 453.959 487ZM462.144 480.298C462.38 479.741 462.677 479.312 463.035 479.01C463.397 478.705 463.846 478.553 464.384 478.553C465.047 478.553 465.555 478.768 465.909 479.2C466.178 479.521 466.312 479.865 466.312 480.231C466.312 480.833 465.934 481.456 465.177 482.099C465.686 482.298 466.07 482.583 466.331 482.953C466.591 483.324 466.721 483.759 466.721 484.26C466.721 484.976 466.493 485.596 466.038 486.121C465.444 486.805 464.583 487.146 463.456 487.146C462.898 487.146 462.518 487.077 462.314 486.939C462.115 486.801 462.015 486.652 462.015 486.493C462.015 486.375 462.062 486.272 462.156 486.182C462.253 486.093 462.369 486.048 462.504 486.048C462.605 486.048 462.709 486.064 462.815 486.097C462.884 486.117 463.041 486.192 463.285 486.323C463.529 486.449 463.698 486.524 463.792 486.548C463.942 486.593 464.103 486.615 464.274 486.615C464.689 486.615 465.049 486.455 465.354 486.133C465.663 485.812 465.818 485.431 465.818 484.992C465.818 484.67 465.747 484.357 465.604 484.052C465.498 483.824 465.382 483.651 465.256 483.533C465.081 483.37 464.841 483.224 464.536 483.094C464.231 482.959 463.92 482.892 463.602 482.892H463.407V482.709C463.728 482.669 464.05 482.553 464.371 482.361C464.697 482.17 464.933 481.94 465.079 481.672C465.226 481.403 465.299 481.108 465.299 480.787C465.299 480.368 465.167 480.03 464.902 479.773C464.642 479.513 464.316 479.383 463.926 479.383C463.295 479.383 462.768 479.721 462.345 480.396L462.144 480.298ZM472.898 479.572V481.409H474.204V481.836H472.898V485.462C472.898 485.824 472.949 486.068 473.051 486.194C473.156 486.32 473.291 486.384 473.453 486.384C473.588 486.384 473.718 486.343 473.844 486.261C473.97 486.176 474.068 486.052 474.137 485.889H474.375C474.233 486.288 474.031 486.589 473.771 486.792C473.51 486.992 473.242 487.092 472.965 487.092C472.778 487.092 472.595 487.041 472.416 486.939C472.237 486.833 472.104 486.685 472.019 486.493C471.934 486.298 471.891 485.999 471.891 485.596V481.836H471.006V481.635C471.23 481.545 471.458 481.395 471.689 481.183C471.925 480.968 472.135 480.713 472.318 480.42C472.412 480.266 472.542 479.983 472.709 479.572H472.898ZM477.488 481.244C478.334 481.244 479.014 481.566 479.526 482.209C479.962 482.758 480.179 483.389 480.179 484.101C480.179 484.601 480.059 485.108 479.819 485.621C479.579 486.133 479.248 486.52 478.824 486.78C478.405 487.041 477.937 487.171 477.421 487.171C476.578 487.171 475.909 486.835 475.413 486.164C474.993 485.598 474.784 484.963 474.784 484.26C474.784 483.747 474.91 483.238 475.162 482.734C475.419 482.225 475.754 481.851 476.169 481.611C476.584 481.366 477.024 481.244 477.488 481.244ZM477.299 481.641C477.083 481.641 476.865 481.706 476.646 481.836C476.43 481.963 476.255 482.186 476.121 482.508C475.986 482.829 475.919 483.242 475.919 483.747C475.919 484.561 476.08 485.263 476.401 485.853C476.727 486.443 477.154 486.738 477.683 486.738C478.078 486.738 478.403 486.575 478.66 486.249C478.916 485.924 479.044 485.364 479.044 484.571C479.044 483.578 478.831 482.797 478.403 482.227C478.114 481.836 477.746 481.641 477.299 481.641ZM482.657 478.321V483.887L484.08 482.587C484.381 482.31 484.556 482.135 484.604 482.062C484.637 482.013 484.653 481.965 484.653 481.916C484.653 481.834 484.619 481.765 484.55 481.708C484.484 481.647 484.375 481.613 484.22 481.604V481.409H486.649V481.604C486.316 481.613 486.037 481.663 485.813 481.757C485.593 481.851 485.351 482.017 485.087 482.258L483.652 483.582L485.087 485.395C485.485 485.895 485.754 486.213 485.892 486.347C486.088 486.538 486.259 486.662 486.405 486.719C486.507 486.76 486.684 486.78 486.936 486.78V487H484.22V486.78C484.375 486.776 484.478 486.754 484.531 486.713C484.588 486.668 484.617 486.607 484.617 486.53C484.617 486.436 484.535 486.286 484.373 486.078L482.657 483.887V485.743C482.657 486.105 482.682 486.343 482.731 486.457C482.784 486.571 482.857 486.652 482.95 486.701C483.044 486.75 483.247 486.776 483.561 486.78V487H480.717V486.78C481.001 486.78 481.215 486.746 481.357 486.677C481.443 486.632 481.508 486.563 481.553 486.469C481.614 486.335 481.644 486.103 481.644 485.773V480.683C481.644 480.036 481.63 479.641 481.602 479.499C481.573 479.352 481.526 479.253 481.461 479.2C481.396 479.143 481.311 479.114 481.205 479.114C481.119 479.114 480.991 479.149 480.82 479.218L480.717 479.004L482.377 478.321H482.657ZM488.193 483.515C488.189 484.345 488.391 484.996 488.798 485.468C489.205 485.94 489.683 486.176 490.232 486.176C490.598 486.176 490.916 486.076 491.184 485.877C491.457 485.674 491.685 485.328 491.868 484.839L492.057 484.961C491.971 485.519 491.723 486.028 491.312 486.487C490.901 486.943 490.387 487.171 489.768 487.171C489.097 487.171 488.521 486.91 488.041 486.39C487.565 485.865 487.327 485.161 487.327 484.278C487.327 483.322 487.571 482.577 488.059 482.044C488.551 481.507 489.168 481.238 489.908 481.238C490.535 481.238 491.05 481.446 491.453 481.861C491.855 482.272 492.057 482.823 492.057 483.515H488.193ZM488.193 483.161H490.781C490.761 482.803 490.718 482.551 490.653 482.404C490.551 482.176 490.399 481.997 490.195 481.867C489.996 481.737 489.786 481.672 489.567 481.672C489.229 481.672 488.926 481.804 488.657 482.068C488.393 482.329 488.238 482.693 488.193 483.161ZM494.437 482.428C495.092 481.639 495.717 481.244 496.311 481.244C496.616 481.244 496.879 481.322 497.098 481.476C497.318 481.627 497.493 481.877 497.623 482.227C497.713 482.471 497.758 482.846 497.758 483.35V485.737C497.758 486.091 497.786 486.331 497.843 486.457C497.888 486.559 497.959 486.638 498.057 486.695C498.158 486.752 498.344 486.78 498.612 486.78V487H495.847V486.78H495.963C496.224 486.78 496.405 486.742 496.506 486.664C496.612 486.583 496.685 486.465 496.726 486.31C496.742 486.249 496.75 486.058 496.75 485.737V483.448C496.75 482.939 496.683 482.571 496.549 482.343C496.419 482.111 496.197 481.995 495.884 481.995C495.4 481.995 494.917 482.26 494.437 482.789V485.737C494.437 486.115 494.46 486.349 494.504 486.438C494.561 486.556 494.639 486.644 494.736 486.701C494.838 486.754 495.042 486.78 495.347 486.78V487H492.582V486.78H492.704C492.989 486.78 493.18 486.709 493.278 486.567C493.379 486.42 493.43 486.143 493.43 485.737V483.661C493.43 482.99 493.414 482.581 493.381 482.435C493.353 482.288 493.306 482.188 493.241 482.135C493.18 482.083 493.097 482.056 492.991 482.056C492.877 482.056 492.74 482.087 492.582 482.148L492.49 481.928L494.175 481.244H494.437V482.428ZM507.084 481.409V484.797C507.084 485.444 507.098 485.84 507.126 485.987C507.159 486.129 507.208 486.229 507.273 486.286C507.342 486.343 507.421 486.371 507.511 486.371C507.637 486.371 507.78 486.337 507.938 486.268L508.024 486.481L506.351 487.171H506.077V485.987C505.597 486.508 505.23 486.835 504.978 486.969C504.726 487.104 504.459 487.171 504.178 487.171C503.865 487.171 503.593 487.081 503.361 486.902C503.133 486.719 502.974 486.485 502.885 486.2C502.795 485.916 502.75 485.513 502.75 484.992V482.496C502.75 482.231 502.722 482.048 502.665 481.946C502.608 481.845 502.522 481.767 502.408 481.714C502.299 481.657 502.097 481.631 501.804 481.635V481.409H503.763V485.151C503.763 485.671 503.853 486.013 504.032 486.176C504.215 486.339 504.435 486.42 504.691 486.42C504.866 486.42 505.063 486.365 505.283 486.255C505.507 486.146 505.771 485.936 506.077 485.627V482.459C506.077 482.142 506.018 481.928 505.9 481.818C505.786 481.704 505.546 481.643 505.179 481.635V481.409H507.084ZM512.046 481.244V483.149H511.844C511.69 482.551 511.49 482.144 511.246 481.928C511.006 481.712 510.699 481.604 510.325 481.604C510.04 481.604 509.81 481.68 509.635 481.83C509.46 481.981 509.373 482.148 509.373 482.331C509.373 482.559 509.438 482.754 509.568 482.917C509.694 483.084 509.95 483.261 510.337 483.448L511.228 483.881C512.054 484.284 512.467 484.815 512.467 485.474C512.467 485.983 512.274 486.394 511.887 486.707C511.505 487.016 511.075 487.171 510.599 487.171C510.258 487.171 509.867 487.11 509.427 486.988C509.293 486.947 509.183 486.927 509.098 486.927C509.004 486.927 508.931 486.98 508.878 487.085H508.677V485.09H508.878C508.992 485.659 509.21 486.089 509.531 486.377C509.853 486.666 510.213 486.811 510.612 486.811C510.892 486.811 511.12 486.729 511.295 486.567C511.474 486.4 511.564 486.2 511.564 485.969C511.564 485.688 511.464 485.452 511.265 485.26C511.069 485.069 510.677 484.827 510.087 484.534C509.497 484.241 509.11 483.977 508.927 483.741C508.744 483.509 508.652 483.216 508.652 482.862C508.652 482.402 508.809 482.017 509.122 481.708C509.44 481.399 509.849 481.244 510.349 481.244C510.569 481.244 510.835 481.291 511.149 481.385C511.356 481.446 511.495 481.476 511.564 481.476C511.629 481.476 511.68 481.462 511.716 481.434C511.753 481.405 511.796 481.342 511.844 481.244H512.046ZM514.243 483.515C514.239 484.345 514.441 484.996 514.847 485.468C515.254 485.94 515.732 486.176 516.282 486.176C516.648 486.176 516.965 486.076 517.234 485.877C517.507 485.674 517.734 485.328 517.917 484.839L518.107 484.961C518.021 485.519 517.773 486.028 517.362 486.487C516.951 486.943 516.436 487.171 515.818 487.171C515.146 487.171 514.571 486.91 514.091 486.39C513.615 485.865 513.376 485.161 513.376 484.278C513.376 483.322 513.621 482.577 514.109 482.044C514.601 481.507 515.218 481.238 515.958 481.238C516.585 481.238 517.1 481.446 517.502 481.861C517.905 482.272 518.107 482.823 518.107 483.515H514.243ZM514.243 483.161H516.831C516.811 482.803 516.768 482.551 516.703 482.404C516.601 482.176 516.449 481.997 516.245 481.867C516.046 481.737 515.836 481.672 515.616 481.672C515.279 481.672 514.976 481.804 514.707 482.068C514.443 482.329 514.288 482.693 514.243 483.161ZM523.606 484.876C523.455 485.612 523.16 486.18 522.721 486.579C522.281 486.974 521.795 487.171 521.262 487.171C520.627 487.171 520.074 486.904 519.602 486.371C519.13 485.838 518.894 485.118 518.894 484.211C518.894 483.332 519.154 482.618 519.675 482.068C520.2 481.519 520.829 481.244 521.561 481.244C522.111 481.244 522.562 481.391 522.916 481.684C523.27 481.973 523.447 482.274 523.447 482.587C523.447 482.742 523.396 482.868 523.295 482.966C523.197 483.059 523.059 483.106 522.88 483.106C522.64 483.106 522.458 483.029 522.336 482.874C522.267 482.789 522.22 482.626 522.196 482.386C522.176 482.146 522.094 481.963 521.952 481.836C521.809 481.714 521.612 481.653 521.36 481.653C520.953 481.653 520.625 481.804 520.377 482.105C520.048 482.504 519.883 483.031 519.883 483.686C519.883 484.353 520.046 484.943 520.371 485.456C520.701 485.964 521.144 486.219 521.702 486.219C522.1 486.219 522.458 486.082 522.776 485.81C523 485.623 523.217 485.283 523.429 484.791L523.606 484.876ZM527.579 486.194C527.006 486.638 526.646 486.894 526.499 486.963C526.279 487.065 526.045 487.116 525.797 487.116C525.411 487.116 525.091 486.984 524.839 486.719C524.591 486.455 524.467 486.107 524.467 485.676C524.467 485.403 524.528 485.167 524.65 484.968C524.816 484.691 525.105 484.43 525.516 484.186C525.931 483.942 526.619 483.645 527.579 483.295V483.075C527.579 482.518 527.49 482.135 527.311 481.928C527.136 481.72 526.879 481.617 526.542 481.617C526.285 481.617 526.082 481.686 525.931 481.824C525.777 481.963 525.699 482.121 525.699 482.3L525.712 482.654C525.712 482.841 525.663 482.986 525.565 483.088C525.472 483.189 525.347 483.24 525.193 483.24C525.042 483.24 524.918 483.187 524.821 483.082C524.727 482.976 524.68 482.831 524.68 482.648C524.68 482.298 524.859 481.977 525.217 481.684C525.575 481.391 526.078 481.244 526.725 481.244C527.221 481.244 527.628 481.328 527.946 481.495C528.186 481.621 528.363 481.818 528.477 482.087C528.55 482.262 528.586 482.62 528.586 483.161V485.059C528.586 485.592 528.597 485.92 528.617 486.042C528.637 486.16 528.67 486.239 528.715 486.28C528.763 486.32 528.818 486.341 528.879 486.341C528.944 486.341 529.001 486.327 529.05 486.298C529.136 486.245 529.301 486.097 529.545 485.853V486.194C529.089 486.805 528.654 487.11 528.239 487.11C528.039 487.11 527.88 487.041 527.762 486.902C527.644 486.764 527.583 486.528 527.579 486.194ZM527.579 485.798V483.667C526.965 483.912 526.568 484.085 526.389 484.186C526.068 484.365 525.838 484.552 525.699 484.748C525.561 484.943 525.492 485.157 525.492 485.389C525.492 485.682 525.579 485.926 525.754 486.121C525.929 486.312 526.131 486.408 526.359 486.408C526.668 486.408 527.075 486.205 527.579 485.798ZM533.579 481.244V483.149H533.378C533.223 482.551 533.024 482.144 532.78 481.928C532.539 481.712 532.232 481.604 531.858 481.604C531.573 481.604 531.343 481.68 531.168 481.83C530.993 481.981 530.906 482.148 530.906 482.331C530.906 482.559 530.971 482.754 531.101 482.917C531.227 483.084 531.484 483.261 531.87 483.448L532.761 483.881C533.587 484.284 534 484.815 534 485.474C534 485.983 533.807 486.394 533.42 486.707C533.038 487.016 532.609 487.171 532.133 487.171C531.791 487.171 531.4 487.11 530.961 486.988C530.826 486.947 530.717 486.927 530.631 486.927C530.538 486.927 530.464 486.98 530.411 487.085H530.21V485.09H530.411C530.525 485.659 530.743 486.089 531.064 486.377C531.386 486.666 531.746 486.811 532.145 486.811C532.426 486.811 532.653 486.729 532.828 486.567C533.007 486.4 533.097 486.2 533.097 485.969C533.097 485.688 532.997 485.452 532.798 485.26C532.603 485.069 532.21 484.827 531.62 484.534C531.03 484.241 530.643 483.977 530.46 483.741C530.277 483.509 530.186 483.216 530.186 482.862C530.186 482.402 530.342 482.017 530.656 481.708C530.973 481.399 531.382 481.244 531.882 481.244C532.102 481.244 532.369 481.291 532.682 481.385C532.889 481.446 533.028 481.476 533.097 481.476C533.162 481.476 533.213 481.462 533.25 481.434C533.286 481.405 533.329 481.342 533.378 481.244H533.579ZM535.776 483.515C535.772 484.345 535.974 484.996 536.381 485.468C536.788 485.94 537.266 486.176 537.815 486.176C538.181 486.176 538.499 486.076 538.767 485.877C539.04 485.674 539.268 485.328 539.451 484.839L539.64 484.961C539.554 485.519 539.306 486.028 538.895 486.487C538.484 486.943 537.97 487.171 537.351 487.171C536.68 487.171 536.104 486.91 535.624 486.39C535.148 485.865 534.91 485.161 534.91 484.278C534.91 483.322 535.154 482.577 535.642 482.044C536.134 481.507 536.751 481.238 537.491 481.238C538.118 481.238 538.633 481.446 539.036 481.861C539.438 482.272 539.64 482.823 539.64 483.515H535.776ZM535.776 483.161H538.364C538.344 482.803 538.301 482.551 538.236 482.404C538.134 482.176 537.982 481.997 537.778 481.867C537.579 481.737 537.369 481.672 537.15 481.672C536.812 481.672 536.509 481.804 536.24 482.068C535.976 482.329 535.821 482.693 535.776 483.161Z" fill="#919191"/>
<path d="M221.5 185.5L340 266.5" stroke="#5551FF"/>
<g filter="url(#filter1_d)">
<g filter="url(#filter2_i)">
<circle cx="220" cy="184" r="20" fill="#F5F5F5"/>
<circle cx="220" cy="184" r="20" fill="url(#paint0_linear)"/>
</g>
<circle cx="220" cy="184" r="19.875" stroke="#D2D2D2" stroke-width="0.25"/>
<path d="M212.139 181.279C211.575 181.283 211.141 180.871 211.142 180.332C211.143 179.787 211.571 179.391 212.167 179.385C212.743 179.379 213.166 179.768 213.174 180.313C213.182 180.868 212.747 181.275 212.139 181.279Z" fill="black" fill-opacity="0.3"/>
<path d="M213.067 179.254C212.543 179.258 212.092 178.816 212.094 178.302C212.097 177.745 212.555 177.329 213.163 177.332C213.676 177.335 214.115 177.764 214.127 178.274C214.14 178.821 213.678 179.249 213.067 179.254Z" fill="black" fill-opacity="0.3"/>
<path d="M226.518 178.061C225.94 178.065 225.531 177.678 225.53 177.125C225.529 176.559 225.95 176.168 226.563 176.165C227.11 176.163 227.535 176.565 227.546 177.096C227.556 177.647 227.12 178.056 226.518 178.061Z" fill="black" fill-opacity="0.3"/>
<path d="M224.577 179.153C224.579 178.608 225.03 178.199 225.628 178.199C226.159 178.199 226.6 178.637 226.595 179.156C226.589 179.701 226.134 180.112 225.539 180.111C225.002 180.109 224.575 179.684 224.577 179.153Z" fill="black" fill-opacity="0.3"/>
<path d="M211.797 177.356C211.262 177.358 210.849 176.972 210.843 176.465C210.836 175.938 211.296 175.525 211.882 175.531C212.387 175.537 212.784 175.942 212.783 176.451C212.781 176.996 212.391 177.354 211.797 177.356Z" fill="black" fill-opacity="0.3"/>
<path d="M227.799 179.867C227.273 179.87 226.847 179.461 226.854 178.96C226.861 178.447 227.293 178.052 227.858 178.045C228.359 178.039 228.779 178.447 228.783 178.944C228.787 179.47 228.368 179.862 227.799 179.867Z" fill="black" fill-opacity="0.3"/>
<path d="M226.837 181.884C226.301 181.883 225.929 181.513 225.932 180.987C225.935 180.466 226.342 180.095 226.91 180.095C227.423 180.095 227.832 180.499 227.826 181C227.819 181.512 227.403 181.885 226.837 181.884Z" fill="black" fill-opacity="0.3"/>
<path d="M218.578 190.392C218.072 190.395 217.684 190.025 217.682 189.54C217.68 189.039 218.095 188.654 218.638 188.657C219.131 188.659 219.522 189.047 219.52 189.529C219.517 190.033 219.129 190.389 218.578 190.392Z" fill="black" fill-opacity="0.3"/>
<path d="M223.769 181.179C223.774 180.697 224.155 180.354 224.686 180.357C225.14 180.36 225.515 180.742 225.509 181.196C225.503 181.671 225.106 182.025 224.584 182.018C224.124 182.013 223.764 181.643 223.769 181.179Z" fill="black" fill-opacity="0.3"/>
<path d="M214.337 180.957C213.891 180.948 213.512 180.562 213.524 180.129C213.537 179.648 213.937 179.295 214.456 179.307C214.901 179.317 215.276 179.699 215.271 180.136C215.266 180.608 214.857 180.967 214.337 180.957Z" fill="black" fill-opacity="0.3"/>
<path d="M220.797 190.141C220.331 190.138 219.976 189.791 219.976 189.339C219.976 188.87 220.358 188.514 220.867 188.51C221.327 188.507 221.701 188.879 221.696 189.336C221.691 189.819 221.328 190.144 220.797 190.141Z" fill="black" fill-opacity="0.3"/>
<path d="M219.886 192.157C219.389 192.163 219.04 191.837 219.039 191.368C219.038 190.92 219.405 190.575 219.892 190.565C220.367 190.555 220.723 190.884 220.731 191.339C220.738 191.828 220.405 192.151 219.886 192.157Z" fill="black" fill-opacity="0.3"/>
<path d="M211.196 183.144C210.722 183.146 210.382 182.827 210.378 182.377C210.375 181.912 210.751 181.564 211.253 181.568C211.688 181.571 212.062 181.948 212.054 182.375C212.047 182.81 211.677 183.142 211.196 183.144Z" fill="black" fill-opacity="0.3"/>
<path d="M210.851 179.268C210.389 179.27 210.035 178.936 210.033 178.497C210.03 178.05 210.398 177.711 210.892 177.702C211.336 177.694 211.71 178.05 211.709 178.481C211.708 178.942 211.356 179.266 210.851 179.268Z" fill="black" fill-opacity="0.3"/>
<path d="M223.709 182.462C224.138 182.46 224.493 182.796 224.496 183.209C224.5 183.643 224.123 183.99 223.652 183.988C223.233 183.986 222.874 183.633 222.876 183.225C222.878 182.804 223.249 182.465 223.709 182.462Z" fill="black" fill-opacity="0.3"/>
<path d="M211.504 186.991C211.091 186.989 210.749 186.649 210.748 186.238C210.746 185.82 211.132 185.477 211.593 185.485C212.008 185.492 212.348 185.833 212.348 186.241C212.347 186.67 211.985 186.992 211.504 186.991Z" fill="black" fill-opacity="0.3"/>
<path d="M227.521 189.487C227.081 189.485 226.741 189.152 226.75 188.732C226.76 188.308 227.113 187.995 227.578 187.997C228.026 187.999 228.341 188.315 228.335 188.756C228.329 189.2 228.007 189.489 227.521 189.487Z" fill="black" fill-opacity="0.3"/>
<path d="M217.29 188.429C216.844 188.428 216.516 188.109 216.52 187.68C216.524 187.251 216.865 186.94 217.335 186.938C217.771 186.936 218.113 187.271 218.107 187.692C218.102 188.122 217.759 188.43 217.29 188.429Z" fill="black" fill-opacity="0.3"/>
<path d="M214.234 182.159C214.237 182.602 213.893 182.918 213.41 182.915C213 182.913 212.646 182.561 212.653 182.163C212.659 181.748 213.028 181.415 213.476 181.416C213.896 181.417 214.232 181.745 214.234 182.159Z" fill="black" fill-opacity="0.3"/>
<path d="M221.761 188.029C221.323 188.029 221.005 187.724 221.002 187.301C220.998 186.866 221.357 186.537 221.83 186.544C222.239 186.55 222.591 186.902 222.584 187.299C222.575 187.726 222.233 188.029 221.761 188.029Z" fill="black" fill-opacity="0.3"/>
<path d="M221.957 185.221C221.971 184.795 222.317 184.507 222.8 184.52C223.221 184.532 223.554 184.879 223.532 185.285C223.51 185.715 223.134 186.028 222.665 186.006C222.25 185.987 221.942 185.647 221.957 185.221Z" fill="black" fill-opacity="0.3"/>
<path d="M228.135 183.55C227.701 183.549 227.394 183.254 227.394 182.835C227.394 182.413 227.73 182.104 228.187 182.107C228.605 182.11 228.933 182.429 228.932 182.831C228.931 183.256 228.605 183.55 228.135 183.55Z" fill="black" fill-opacity="0.3"/>
<path d="M227.973 184.869C227.97 185.283 227.612 185.6 227.164 185.588C226.765 185.577 226.44 185.246 226.448 184.858C226.456 184.459 226.799 184.162 227.247 184.165C227.662 184.169 227.976 184.474 227.973 184.869Z" fill="black" fill-opacity="0.3"/>
<path d="M211.906 189.408C212.322 189.407 212.624 189.703 212.625 190.113C212.626 190.525 212.298 190.829 211.853 190.828C211.47 190.827 211.142 190.508 211.136 190.131C211.13 189.726 211.468 189.409 211.906 189.408Z" fill="black" fill-opacity="0.3"/>
<path d="M216.754 185.832C216.759 186.245 216.433 186.552 215.989 186.551C215.616 186.551 215.291 186.241 215.28 185.875C215.267 185.473 215.601 185.154 216.044 185.145C216.439 185.136 216.75 185.437 216.754 185.832Z" fill="black" fill-opacity="0.3"/>
<path d="M227.446 175.778C227.061 175.771 226.734 175.438 226.748 175.067C226.765 174.66 227.082 174.391 227.533 174.402C227.925 174.411 228.226 174.711 228.22 175.085C228.213 175.479 227.869 175.786 227.446 175.778Z" fill="black" fill-opacity="0.3"/>
<path d="M210.586 188.932C210.199 188.933 209.897 188.653 209.891 188.288C209.886 187.92 210.214 187.61 210.616 187.605C210.993 187.6 211.313 187.914 211.307 188.284C211.302 188.653 210.992 188.932 210.586 188.932Z" fill="black" fill-opacity="0.3"/>
<path d="M214.747 183.363C215.134 183.361 215.436 183.644 215.435 184.007C215.434 184.378 215.126 184.656 214.717 184.655C214.33 184.654 214.057 184.394 214.053 184.021C214.049 183.626 214.324 183.365 214.747 183.363Z" fill="black" fill-opacity="0.3"/>
<path d="M225.919 183.68C225.563 183.695 225.243 183.4 225.236 183.05C225.227 182.68 225.533 182.389 225.937 182.381C226.289 182.373 226.59 182.649 226.61 182.997C226.63 183.356 226.319 183.664 225.919 183.68Z" fill="black" fill-opacity="0.3"/>
<path d="M212.525 183.565C212.909 183.568 213.181 183.837 213.178 184.209C213.175 184.576 212.879 184.85 212.483 184.851C212.116 184.853 211.81 184.564 211.808 184.212C211.805 183.841 212.115 183.562 212.525 183.565Z" fill="black" fill-opacity="0.3"/>
<path d="M215.727 181.324C216.072 181.329 216.37 181.625 216.373 181.965C216.375 182.328 216.047 182.631 215.659 182.624C215.292 182.618 215.005 182.327 215.01 181.967C215.015 181.589 215.317 181.319 215.727 181.324Z" fill="black" fill-opacity="0.3"/>
<path d="M228.468 187.325C228.09 187.322 227.836 187.065 227.844 186.69C227.851 186.327 228.135 186.076 228.533 186.082C228.878 186.087 229.167 186.366 229.172 186.697C229.177 187.054 228.868 187.329 228.468 187.325Z" fill="black" fill-opacity="0.3"/>
<path d="M228.735 177.523C228.388 177.517 228.132 177.257 228.139 176.915C228.146 176.564 228.429 176.311 228.807 176.318C229.143 176.325 229.417 176.604 229.41 176.929C229.4 177.279 229.116 177.529 228.735 177.523Z" fill="black" fill-opacity="0.3"/>
<path d="M226.588 191.347C226.262 191.349 226.002 191.107 225.993 190.793C225.984 190.466 226.255 190.212 226.615 190.21C226.939 190.208 227.203 190.452 227.213 190.763C227.223 191.086 226.945 191.346 226.588 191.347Z" fill="black" fill-opacity="0.3"/>
<path d="M210.239 184.952C209.926 184.949 209.67 184.698 209.675 184.397C209.68 184.075 209.95 183.833 210.297 183.843C210.596 183.851 210.847 184.096 210.851 184.387C210.856 184.705 210.585 184.955 210.239 184.952Z" fill="black" fill-opacity="0.3"/>
<path d="M229.425 190.571C229.431 190.87 229.163 191.13 228.842 191.138C228.532 191.147 228.264 190.906 228.254 190.61C228.243 190.295 228.512 190.031 228.847 190.028C229.151 190.026 229.419 190.276 229.425 190.571Z" fill="black" fill-opacity="0.3"/>
<path d="M210.381 192.119C210.397 191.819 210.661 191.604 210.988 191.621C211.287 191.637 211.516 191.874 211.507 192.157C211.498 192.463 211.218 192.707 210.895 192.687C210.595 192.67 210.365 192.415 210.381 192.119Z" fill="black" fill-opacity="0.3"/>
<path d="M216.419 183.824C216.417 183.519 216.662 183.28 216.981 183.274C217.279 183.269 217.538 183.512 217.543 183.8C217.548 184.095 217.291 184.341 216.973 184.346C216.661 184.35 216.421 184.124 216.419 183.824Z" fill="black" fill-opacity="0.3"/>
<path d="M219.534 188.021C219.226 188.016 218.987 187.779 218.991 187.483C218.996 187.187 219.265 186.949 219.58 186.961C219.871 186.972 220.115 187.213 220.113 187.488C220.111 187.784 219.848 188.026 219.534 188.021Z" fill="black" fill-opacity="0.3"/>
<path d="M209.915 181.025C209.626 181.026 209.389 180.806 209.386 180.533C209.383 180.25 209.617 180.031 209.93 180.027C210.22 180.023 210.45 180.24 210.454 180.519C210.458 180.804 210.224 181.024 209.915 181.025Z" fill="black" fill-opacity="0.3"/>
<path d="M226.783 186.908C226.779 187.195 226.537 187.417 226.237 187.407C225.965 187.398 225.738 187.173 225.737 186.912C225.736 186.628 225.973 186.403 226.275 186.402C226.56 186.401 226.788 186.627 226.783 186.908Z" fill="black" fill-opacity="0.3"/>
<path d="M210.538 174.15C210.827 174.15 211.023 174.334 211.025 174.606C211.028 174.884 210.82 175.086 210.529 175.085C210.257 175.085 210.037 174.88 210.032 174.625C210.028 174.36 210.252 174.15 210.538 174.15Z" fill="black" fill-opacity="0.3"/>
<path d="M212.826 188.53C212.558 188.528 212.354 188.334 212.351 188.079C212.348 187.827 212.571 187.621 212.851 187.619C213.109 187.617 213.322 187.822 213.324 188.075C213.325 188.335 213.109 188.532 212.826 188.53Z" fill="black" fill-opacity="0.3"/>
<path d="M229.126 180.344C229.398 180.347 229.592 180.538 229.588 180.799C229.584 181.062 229.367 181.265 229.091 181.261C228.839 181.258 228.618 181.039 228.622 180.796C228.627 180.537 228.845 180.341 229.126 180.344Z" fill="black" fill-opacity="0.3"/>
<path d="M217.667 191.115C217.934 191.117 218.135 191.316 218.129 191.568C218.123 191.821 217.922 192.004 217.648 192.004C217.369 192.004 217.177 191.826 217.176 191.565C217.174 191.299 217.377 191.112 217.667 191.115Z" fill="black" fill-opacity="0.3"/>
<path d="M214.078 175.811C214.349 175.815 214.542 176.006 214.535 176.267C214.528 176.533 214.321 176.709 214.027 176.7C213.772 176.693 213.578 176.501 213.578 176.258C213.578 175.999 213.793 175.807 214.078 175.811Z" fill="black" fill-opacity="0.3"/>
<path d="M224.526 185.065C224.526 184.822 224.729 184.632 224.988 184.632C225.23 184.632 225.42 184.821 225.417 185.061C225.416 185.312 225.22 185.498 224.96 185.494C224.719 185.492 224.526 185.302 224.526 185.065Z" fill="black" fill-opacity="0.3"/>
<path d="M212.754 174.836C212.498 174.833 212.322 174.658 212.327 174.411C212.332 174.174 212.524 174 212.775 174C213.027 174 213.218 174.178 213.219 174.414C213.221 174.657 213.02 174.839 212.754 174.836Z" fill="black" fill-opacity="0.3"/>
<path d="M218.245 186.063C217.993 186.059 217.819 185.881 217.83 185.633C217.839 185.398 218.034 185.226 218.284 185.232C218.516 185.238 218.704 185.418 218.708 185.642C218.711 185.884 218.51 186.067 218.245 186.063Z" fill="black" fill-opacity="0.3"/>
<path d="M209.657 189.907C209.9 189.906 210.086 190.071 210.092 190.294C210.099 190.516 209.894 190.721 209.66 190.729C209.414 190.737 209.222 190.557 209.219 190.317C209.217 190.075 209.395 189.908 209.657 189.907Z" fill="black" fill-opacity="0.3"/>
<path d="M227.88 193.011C227.639 193.01 227.455 192.834 227.461 192.611C227.466 192.392 227.655 192.224 227.899 192.224C228.135 192.224 228.324 192.405 228.318 192.626C228.311 192.849 228.125 193.013 227.88 193.011Z" fill="black" fill-opacity="0.3"/>
<path d="M225.654 175.281C225.652 175.493 225.472 175.659 225.236 175.662C225.011 175.665 224.829 175.485 224.837 175.269C224.845 175.057 225.032 174.898 225.266 174.905C225.488 174.91 225.655 175.073 225.654 175.281Z" fill="black" fill-opacity="0.3"/>
<path d="M224.697 177.309C224.699 177.517 224.508 177.699 224.285 177.697C224.072 177.696 223.897 177.526 223.895 177.318C223.893 177.102 224.078 176.926 224.302 176.929C224.514 176.933 224.695 177.107 224.697 177.309Z" fill="black" fill-opacity="0.3"/>
<path d="M229.843 184.664C229.846 184.89 229.683 185.051 229.449 185.053C229.222 185.056 229.061 184.91 229.054 184.695C229.046 184.464 229.227 184.282 229.46 184.285C229.67 184.289 229.84 184.457 229.843 184.664Z" fill="black" fill-opacity="0.3"/>
<path d="M216.367 190.087C216.146 190.091 215.974 189.932 215.976 189.723C215.978 189.523 216.158 189.357 216.372 189.358C216.583 189.359 216.743 189.51 216.748 189.711C216.753 189.922 216.591 190.083 216.367 190.087Z" fill="black" fill-opacity="0.3"/>
<path d="M223.734 179.339C223.74 179.53 223.573 179.701 223.369 179.714C223.146 179.728 222.971 179.574 222.966 179.361C222.961 179.147 223.124 178.987 223.35 178.985C223.554 178.985 223.728 179.144 223.734 179.339Z" fill="black" fill-opacity="0.3"/>
<path d="M209.955 176.652C209.954 176.859 209.801 177.001 209.58 177.001C209.361 177.001 209.21 176.855 209.213 176.646C209.216 176.445 209.38 176.288 209.589 176.287C209.794 176.287 209.957 176.448 209.955 176.652Z" fill="black" fill-opacity="0.3"/>
<path d="M223.066 189.483C222.86 189.482 222.714 189.341 222.713 189.14C222.712 188.933 222.869 188.786 223.086 188.788C223.292 188.79 223.444 188.937 223.444 189.131C223.444 189.334 223.283 189.484 223.066 189.483Z" fill="black" fill-opacity="0.3"/>
<path d="M224.021 187.445C223.822 187.447 223.667 187.293 223.67 187.097C223.673 186.902 223.827 186.755 224.03 186.755C224.22 186.755 224.391 186.921 224.389 187.104C224.387 187.287 224.22 187.443 224.021 187.445Z" fill="black" fill-opacity="0.3"/>
<path d="M221.807 183.406C221.813 183.6 221.663 183.746 221.453 183.748C221.247 183.75 221.119 183.653 221.102 183.441C221.086 183.243 221.233 183.087 221.434 183.077C221.624 183.067 221.801 183.222 221.807 183.406Z" fill="black" fill-opacity="0.3"/>
<path d="M222.738 181.386C222.735 181.568 222.581 181.716 222.395 181.717C222.208 181.718 222.057 181.57 222.059 181.385C222.06 181.202 222.211 181.058 222.4 181.057C222.587 181.055 222.741 181.205 222.738 181.386Z" fill="black" fill-opacity="0.3"/>
<path d="M222.111 191.493C221.921 191.487 221.775 191.335 221.794 191.15C221.814 190.95 221.936 190.856 222.131 190.854C222.324 190.852 222.473 191 222.468 191.181C222.463 191.358 222.301 191.499 222.111 191.493Z" fill="black" fill-opacity="0.3"/>
<path d="M220.829 185.468C220.824 185.655 220.675 185.791 220.479 185.776C220.287 185.761 220.17 185.651 220.159 185.457C220.149 185.283 220.318 185.132 220.503 185.132C220.692 185.132 220.834 185.278 220.829 185.468Z" fill="black" fill-opacity="0.3"/>
<path d="M213.451 186.025C213.461 185.837 213.609 185.715 213.814 185.728C214.014 185.742 214.122 185.853 214.127 186.05C214.132 186.232 213.972 186.367 213.775 186.362C213.579 186.358 213.44 186.213 213.451 186.025Z" fill="black" fill-opacity="0.3"/>
<path d="M215.349 177.788C215.524 177.787 215.683 177.937 215.667 178.103C215.649 178.3 215.522 178.402 215.331 178.4C215.145 178.398 215.04 178.282 215.025 178.101C215.013 177.938 215.176 177.789 215.349 177.788Z" fill="black" fill-opacity="0.3"/>
<path d="M209.309 186.731C209.128 186.725 209.007 186.628 209 186.444C208.993 186.254 209.118 186.157 209.299 186.14C209.478 186.122 209.641 186.266 209.631 186.438C209.618 186.626 209.496 186.714 209.309 186.731Z" fill="black" fill-opacity="0.3"/>
<path d="M218.927 193.687C218.76 193.663 218.64 193.578 218.648 193.397C218.656 193.22 218.768 193.126 218.947 193.13C219.127 193.134 219.235 193.231 219.23 193.41C219.224 193.591 219.098 193.669 218.927 193.687Z" fill="black" fill-opacity="0.3"/>
<path d="M215.37 187.89C215.341 188.066 215.234 188.164 215.061 188.158C214.899 188.153 214.796 188.053 214.784 187.887C214.773 187.733 214.941 187.586 215.104 187.605C215.269 187.624 215.352 187.728 215.37 187.89Z" fill="black" fill-opacity="0.3"/>
<path d="M229.783 188.278C229.957 188.288 230.064 188.378 230.071 188.541C230.077 188.708 229.965 188.807 229.804 188.815C229.631 188.823 229.512 188.731 229.513 188.545C229.515 188.371 229.633 188.3 229.783 188.278Z" fill="black" fill-opacity="0.3"/>
</g>
<path d="M256.5 351.5L347 255" stroke="#5551FF"/>
<g filter="url(#filter3_d)">
<path d="M220 173L213.505 165.5L226.495 165.5L220 173Z" fill="white"/>
<rect x="179" y="132" width="83" height="33" rx="5" fill="white" stroke="white" stroke-width="2"/>
<path d="M216.249 150.246C216.249 148.315 214.805 147.937 213.063 147.627V144.481C214.049 144.711 214.643 145.453 214.67 146.574L215.952 146.331C215.75 144.441 214.575 143.617 213.063 143.428V142.632H212.051V143.401C210.606 143.482 209.054 144.238 209.054 146.047C209.054 147.829 210.606 148.369 212.024 148.707H212.051V152.095C210.903 151.92 210.107 151.137 210.066 149.854L208.77 149.989C208.824 151.947 210.269 152.959 212.051 153.135V153.918H213.063V153.149C214.656 153.041 216.249 152.338 216.249 150.246ZM210.309 145.993C210.309 145.021 211.146 144.508 212.051 144.414V147.424C211.119 147.195 210.309 146.83 210.309 145.993ZM213.063 148.923C214.089 149.125 214.98 149.355 214.98 150.34C214.98 151.501 214.13 152.001 213.063 152.109V148.923ZM224.726 150.246C224.726 148.315 223.282 147.937 221.54 147.627V144.481C222.526 144.711 223.12 145.453 223.147 146.574L224.429 146.331C224.227 144.441 223.052 143.617 221.54 143.428V142.632H220.528V143.401C219.083 143.482 217.531 144.238 217.531 146.047C217.531 147.829 219.083 148.369 220.501 148.707H220.528V152.095C219.38 151.92 218.584 151.137 218.543 149.854L217.247 149.989C217.301 151.947 218.746 152.959 220.528 153.135V153.918H221.54V153.149C223.133 153.041 224.726 152.338 224.726 150.246ZM218.786 145.993C218.786 145.021 219.623 144.508 220.528 144.414V147.424C219.596 147.195 218.786 146.83 218.786 145.993ZM221.54 148.923C222.566 149.125 223.457 149.355 223.457 150.34C223.457 151.501 222.607 152.001 221.54 152.109V148.923ZM233.204 150.246C233.204 148.315 231.759 147.937 230.018 147.627V144.481C231.003 144.711 231.597 145.453 231.624 146.574L232.907 146.331C232.704 144.441 231.53 143.617 230.018 143.428V142.632H229.005V143.401C227.561 143.482 226.008 144.238 226.008 146.047C226.008 147.829 227.561 148.369 228.978 148.707H229.005V152.095C227.858 151.92 227.061 151.137 227.021 149.854L225.725 149.989C225.779 151.947 227.223 152.959 229.005 153.135V153.918H230.018V153.149C231.611 153.041 233.204 152.338 233.204 150.246ZM227.264 145.993C227.264 145.021 228.101 144.508 229.005 144.414V147.424C228.074 147.195 227.264 146.83 227.264 145.993ZM230.018 148.923C231.044 149.125 231.935 149.355 231.935 150.34C231.935 151.501 231.084 152.001 230.018 152.109V148.923Z" fill="url(#paint1_linear)"/>
</g>
<g filter="url(#filter4_d)">
<g filter="url(#filter5_i)">
<circle cx="338" cy="264" r="20" fill="#F5F5F5"/>
<circle cx="338" cy="264" r="20" fill="url(#paint2_linear)"/>
</g>
<circle cx="338" cy="264" r="19.875" stroke="#D2D2D2" stroke-width="0.25"/>
<g filter="url(#filter6_i)">
<circle cx="256" cy="349" r="20" fill="#F5F5F5"/>
<circle cx="256" cy="349" r="20" fill="url(#paint3_linear)"/>
</g>
<circle cx="256" cy="349" r="19.875" stroke="#D2D2D2" stroke-width="0.25"/>
<path d="M330.139 261.279C329.575 261.283 329.141 260.871 329.142 260.332C329.143 259.787 329.571 259.391 330.167 259.385C330.743 259.379 331.166 259.768 331.174 260.313C331.182 260.868 330.747 261.275 330.139 261.279Z" fill="black" fill-opacity="0.3"/>
<path d="M331.067 259.254C330.543 259.258 330.092 258.816 330.094 258.302C330.097 257.745 330.555 257.329 331.163 257.332C331.676 257.335 332.115 257.764 332.127 258.274C332.14 258.821 331.678 259.249 331.067 259.254Z" fill="black" fill-opacity="0.3"/>
<path d="M344.518 258.061C343.94 258.065 343.531 257.678 343.53 257.125C343.529 256.559 343.95 256.168 344.563 256.165C345.11 256.163 345.535 256.565 345.546 257.096C345.556 257.647 345.12 258.056 344.518 258.061Z" fill="black" fill-opacity="0.3"/>
<path d="M342.577 259.153C342.579 258.608 343.03 258.199 343.628 258.199C344.159 258.199 344.6 258.637 344.595 259.156C344.589 259.701 344.134 260.112 343.539 260.111C343.002 260.109 342.575 259.684 342.577 259.153Z" fill="black" fill-opacity="0.3"/>
<path d="M329.797 257.356C329.262 257.358 328.849 256.972 328.843 256.465C328.836 255.938 329.296 255.525 329.882 255.531C330.387 255.537 330.784 255.942 330.783 256.451C330.781 256.996 330.391 257.354 329.797 257.356Z" fill="black" fill-opacity="0.3"/>
<path d="M345.799 259.867C345.273 259.87 344.847 259.461 344.854 258.96C344.861 258.447 345.293 258.052 345.858 258.045C346.359 258.039 346.779 258.447 346.783 258.944C346.787 259.47 346.368 259.862 345.799 259.867Z" fill="black" fill-opacity="0.3"/>
<path d="M344.837 261.884C344.301 261.883 343.929 261.513 343.932 260.987C343.935 260.466 344.342 260.095 344.91 260.095C345.423 260.095 345.832 260.499 345.826 261C345.819 261.512 345.403 261.885 344.837 261.884Z" fill="black" fill-opacity="0.3"/>
<path d="M336.578 270.392C336.072 270.395 335.684 270.025 335.682 269.54C335.68 269.039 336.095 268.654 336.638 268.657C337.131 268.659 337.522 269.047 337.52 269.529C337.517 270.033 337.129 270.389 336.578 270.392Z" fill="black" fill-opacity="0.3"/>
<path d="M341.769 261.179C341.774 260.697 342.155 260.354 342.686 260.357C343.14 260.36 343.515 260.742 343.509 261.196C343.503 261.671 343.106 262.025 342.584 262.018C342.124 262.013 341.764 261.643 341.769 261.179Z" fill="black" fill-opacity="0.3"/>
<path d="M332.337 260.957C331.891 260.948 331.512 260.562 331.524 260.129C331.537 259.648 331.937 259.295 332.456 259.307C332.901 259.317 333.276 259.699 333.271 260.136C333.266 260.608 332.857 260.967 332.337 260.957Z" fill="black" fill-opacity="0.3"/>
<path d="M338.797 270.141C338.331 270.138 337.976 269.791 337.976 269.339C337.976 268.87 338.358 268.514 338.867 268.51C339.327 268.507 339.701 268.879 339.696 269.336C339.691 269.819 339.328 270.144 338.797 270.141Z" fill="black" fill-opacity="0.3"/>
<path d="M337.886 272.157C337.389 272.163 337.04 271.837 337.039 271.368C337.038 270.92 337.405 270.575 337.892 270.565C338.367 270.555 338.723 270.884 338.731 271.339C338.738 271.828 338.405 272.151 337.886 272.157Z" fill="black" fill-opacity="0.3"/>
<path d="M329.196 263.144C328.722 263.146 328.382 262.827 328.378 262.377C328.375 261.912 328.751 261.564 329.253 261.568C329.688 261.571 330.062 261.948 330.054 262.375C330.047 262.81 329.677 263.142 329.196 263.144Z" fill="black" fill-opacity="0.3"/>
<path d="M328.851 259.268C328.389 259.27 328.035 258.936 328.033 258.497C328.03 258.05 328.398 257.711 328.892 257.702C329.336 257.694 329.71 258.05 329.709 258.481C329.708 258.942 329.356 259.266 328.851 259.268Z" fill="black" fill-opacity="0.3"/>
<path d="M341.709 262.462C342.138 262.46 342.493 262.796 342.496 263.209C342.5 263.643 342.123 263.99 341.652 263.988C341.233 263.986 340.874 263.633 340.876 263.225C340.878 262.804 341.249 262.465 341.709 262.462Z" fill="black" fill-opacity="0.3"/>
<path d="M329.504 266.991C329.091 266.989 328.749 266.649 328.748 266.238C328.746 265.82 329.132 265.477 329.593 265.485C330.008 265.492 330.348 265.833 330.348 266.241C330.347 266.67 329.985 266.992 329.504 266.991Z" fill="black" fill-opacity="0.3"/>
<path d="M345.521 269.487C345.081 269.485 344.741 269.152 344.75 268.732C344.76 268.308 345.113 267.995 345.578 267.997C346.026 267.999 346.341 268.315 346.335 268.756C346.329 269.2 346.007 269.489 345.521 269.487Z" fill="black" fill-opacity="0.3"/>
<path d="M335.29 268.429C334.844 268.428 334.516 268.109 334.52 267.68C334.524 267.251 334.865 266.94 335.335 266.938C335.771 266.936 336.113 267.271 336.107 267.692C336.102 268.122 335.759 268.43 335.29 268.429Z" fill="black" fill-opacity="0.3"/>
<path d="M332.234 262.159C332.237 262.602 331.893 262.918 331.41 262.915C331 262.913 330.646 262.561 330.653 262.163C330.659 261.748 331.028 261.415 331.476 261.416C331.896 261.417 332.232 261.745 332.234 262.159Z" fill="black" fill-opacity="0.3"/>
<path d="M339.761 268.029C339.323 268.029 339.005 267.724 339.002 267.301C338.998 266.866 339.357 266.537 339.83 266.544C340.239 266.55 340.591 266.902 340.584 267.299C340.575 267.726 340.233 268.029 339.761 268.029Z" fill="black" fill-opacity="0.3"/>
<path d="M339.957 265.221C339.971 264.795 340.317 264.507 340.8 264.52C341.221 264.532 341.554 264.879 341.532 265.285C341.51 265.715 341.134 266.028 340.665 266.006C340.25 265.987 339.942 265.647 339.957 265.221Z" fill="black" fill-opacity="0.3"/>
<path d="M346.135 263.55C345.701 263.549 345.394 263.254 345.394 262.835C345.394 262.413 345.73 262.104 346.187 262.107C346.605 262.11 346.933 262.429 346.932 262.831C346.931 263.256 346.605 263.55 346.135 263.55Z" fill="black" fill-opacity="0.3"/>
<path d="M345.973 264.869C345.97 265.283 345.612 265.6 345.164 265.588C344.765 265.577 344.44 265.246 344.448 264.858C344.456 264.459 344.799 264.162 345.247 264.165C345.662 264.169 345.976 264.474 345.973 264.869Z" fill="black" fill-opacity="0.3"/>
<path d="M329.906 269.408C330.322 269.407 330.624 269.703 330.625 270.113C330.626 270.525 330.298 270.829 329.853 270.828C329.47 270.827 329.142 270.508 329.136 270.131C329.13 269.726 329.468 269.409 329.906 269.408Z" fill="black" fill-opacity="0.3"/>
<path d="M334.754 265.832C334.759 266.245 334.433 266.552 333.989 266.551C333.616 266.551 333.291 266.241 333.28 265.875C333.267 265.473 333.601 265.154 334.044 265.145C334.439 265.136 334.75 265.437 334.754 265.832Z" fill="black" fill-opacity="0.3"/>
<path d="M345.446 255.778C345.061 255.771 344.734 255.438 344.748 255.067C344.765 254.66 345.082 254.391 345.533 254.402C345.925 254.411 346.226 254.711 346.22 255.085C346.213 255.479 345.869 255.786 345.446 255.778Z" fill="black" fill-opacity="0.3"/>
<path d="M328.586 268.932C328.199 268.933 327.897 268.653 327.891 268.288C327.886 267.92 328.214 267.61 328.616 267.605C328.993 267.6 329.313 267.914 329.307 268.284C329.302 268.653 328.992 268.932 328.586 268.932Z" fill="black" fill-opacity="0.3"/>
<path d="M332.747 263.363C333.134 263.361 333.436 263.644 333.435 264.007C333.434 264.378 333.126 264.656 332.717 264.655C332.33 264.654 332.057 264.394 332.053 264.021C332.049 263.626 332.324 263.365 332.747 263.363Z" fill="black" fill-opacity="0.3"/>
<path d="M343.919 263.68C343.563 263.695 343.243 263.4 343.236 263.05C343.227 262.68 343.533 262.389 343.937 262.381C344.289 262.373 344.59 262.649 344.61 262.997C344.63 263.356 344.319 263.664 343.919 263.68Z" fill="black" fill-opacity="0.3"/>
<path d="M330.525 263.565C330.909 263.568 331.181 263.837 331.178 264.209C331.175 264.576 330.879 264.85 330.483 264.851C330.116 264.853 329.81 264.564 329.808 264.212C329.805 263.841 330.115 263.562 330.525 263.565Z" fill="black" fill-opacity="0.3"/>
<path d="M333.727 261.324C334.072 261.329 334.37 261.625 334.373 261.965C334.375 262.328 334.047 262.631 333.659 262.624C333.292 262.618 333.005 262.327 333.01 261.967C333.015 261.589 333.317 261.319 333.727 261.324Z" fill="black" fill-opacity="0.3"/>
<path d="M346.468 267.325C346.09 267.322 345.836 267.065 345.844 266.69C345.851 266.327 346.135 266.076 346.533 266.082C346.878 266.087 347.167 266.366 347.172 266.697C347.177 267.054 346.868 267.329 346.468 267.325Z" fill="black" fill-opacity="0.3"/>
<path d="M346.735 257.523C346.388 257.517 346.132 257.257 346.139 256.915C346.146 256.564 346.429 256.311 346.807 256.318C347.143 256.325 347.417 256.604 347.41 256.929C347.4 257.279 347.116 257.529 346.735 257.523Z" fill="black" fill-opacity="0.3"/>
<path d="M344.588 271.347C344.262 271.349 344.002 271.107 343.993 270.793C343.984 270.466 344.255 270.212 344.615 270.21C344.939 270.208 345.203 270.452 345.213 270.763C345.223 271.086 344.945 271.346 344.588 271.347Z" fill="black" fill-opacity="0.3"/>
<path d="M328.239 264.952C327.926 264.949 327.67 264.698 327.675 264.397C327.68 264.075 327.95 263.833 328.297 263.843C328.596 263.851 328.847 264.096 328.851 264.387C328.856 264.705 328.585 264.955 328.239 264.952Z" fill="black" fill-opacity="0.3"/>
<path d="M347.425 270.571C347.431 270.87 347.163 271.13 346.842 271.138C346.532 271.147 346.264 270.906 346.254 270.61C346.243 270.295 346.512 270.031 346.847 270.028C347.151 270.026 347.419 270.276 347.425 270.571Z" fill="black" fill-opacity="0.3"/>
<path d="M328.381 272.119C328.397 271.819 328.661 271.604 328.988 271.621C329.287 271.637 329.516 271.874 329.507 272.157C329.498 272.463 329.218 272.707 328.895 272.687C328.595 272.67 328.365 272.415 328.381 272.119Z" fill="black" fill-opacity="0.3"/>
<path d="M334.419 263.824C334.417 263.519 334.662 263.28 334.981 263.274C335.279 263.269 335.538 263.512 335.543 263.8C335.548 264.095 335.291 264.341 334.973 264.346C334.661 264.35 334.421 264.124 334.419 263.824Z" fill="black" fill-opacity="0.3"/>
<path d="M337.534 268.021C337.226 268.016 336.987 267.779 336.991 267.483C336.996 267.187 337.265 266.949 337.58 266.961C337.871 266.972 338.115 267.213 338.113 267.488C338.111 267.784 337.848 268.026 337.534 268.021Z" fill="black" fill-opacity="0.3"/>
<path d="M327.915 261.025C327.626 261.026 327.389 260.806 327.386 260.533C327.383 260.25 327.617 260.031 327.93 260.027C328.22 260.023 328.45 260.24 328.454 260.519C328.458 260.804 328.224 261.024 327.915 261.025Z" fill="black" fill-opacity="0.3"/>
<path d="M344.783 266.908C344.779 267.195 344.537 267.417 344.237 267.407C343.965 267.398 343.738 267.173 343.737 266.912C343.736 266.628 343.973 266.403 344.275 266.402C344.56 266.401 344.788 266.627 344.783 266.908Z" fill="black" fill-opacity="0.3"/>
<path d="M328.538 254.15C328.827 254.15 329.023 254.334 329.025 254.606C329.028 254.884 328.82 255.086 328.529 255.085C328.257 255.085 328.037 254.88 328.032 254.625C328.028 254.36 328.252 254.15 328.538 254.15Z" fill="black" fill-opacity="0.3"/>
<path d="M330.826 268.53C330.558 268.528 330.354 268.334 330.351 268.079C330.348 267.827 330.571 267.621 330.851 267.619C331.109 267.617 331.322 267.822 331.324 268.075C331.325 268.335 331.109 268.532 330.826 268.53Z" fill="black" fill-opacity="0.3"/>
<path d="M347.126 260.344C347.398 260.347 347.592 260.538 347.588 260.799C347.584 261.062 347.367 261.265 347.091 261.261C346.839 261.258 346.618 261.039 346.622 260.796C346.627 260.537 346.845 260.341 347.126 260.344Z" fill="black" fill-opacity="0.3"/>
<path d="M335.667 271.115C335.934 271.117 336.135 271.316 336.129 271.568C336.123 271.821 335.922 272.004 335.648 272.004C335.369 272.004 335.177 271.826 335.176 271.565C335.174 271.299 335.377 271.112 335.667 271.115Z" fill="black" fill-opacity="0.3"/>
<path d="M332.078 255.811C332.349 255.815 332.542 256.006 332.535 256.267C332.528 256.533 332.321 256.709 332.027 256.7C331.772 256.693 331.578 256.501 331.578 256.258C331.578 255.999 331.793 255.807 332.078 255.811Z" fill="black" fill-opacity="0.3"/>
<path d="M342.526 265.065C342.526 264.822 342.729 264.632 342.988 264.632C343.23 264.632 343.42 264.821 343.417 265.061C343.416 265.312 343.22 265.498 342.96 265.494C342.719 265.492 342.526 265.302 342.526 265.065Z" fill="black" fill-opacity="0.3"/>
<path d="M330.754 254.836C330.498 254.833 330.322 254.658 330.327 254.411C330.332 254.174 330.524 254 330.775 254C331.027 254 331.218 254.178 331.219 254.414C331.221 254.657 331.02 254.839 330.754 254.836Z" fill="black" fill-opacity="0.3"/>
<path d="M336.245 266.063C335.993 266.059 335.819 265.881 335.83 265.633C335.839 265.398 336.034 265.226 336.284 265.232C336.516 265.238 336.704 265.418 336.708 265.642C336.711 265.884 336.51 266.067 336.245 266.063Z" fill="black" fill-opacity="0.3"/>
<path d="M327.657 269.907C327.9 269.906 328.086 270.071 328.092 270.294C328.099 270.516 327.894 270.721 327.66 270.729C327.414 270.737 327.222 270.557 327.219 270.317C327.217 270.075 327.395 269.908 327.657 269.907Z" fill="black" fill-opacity="0.3"/>
<path d="M345.88 273.011C345.639 273.01 345.455 272.834 345.461 272.611C345.466 272.392 345.655 272.224 345.899 272.224C346.135 272.224 346.324 272.405 346.318 272.626C346.311 272.849 346.125 273.013 345.88 273.011Z" fill="black" fill-opacity="0.3"/>
<path d="M343.654 255.281C343.652 255.493 343.472 255.659 343.236 255.662C343.011 255.665 342.829 255.485 342.837 255.269C342.845 255.057 343.032 254.898 343.266 254.905C343.488 254.91 343.655 255.073 343.654 255.281Z" fill="black" fill-opacity="0.3"/>
<path d="M342.697 257.309C342.699 257.517 342.508 257.699 342.285 257.697C342.072 257.696 341.897 257.526 341.895 257.318C341.893 257.102 342.078 256.926 342.302 256.929C342.514 256.933 342.695 257.107 342.697 257.309Z" fill="black" fill-opacity="0.3"/>
<path d="M347.843 264.664C347.846 264.89 347.683 265.051 347.449 265.053C347.222 265.056 347.061 264.91 347.054 264.695C347.046 264.464 347.227 264.282 347.46 264.285C347.67 264.289 347.84 264.457 347.843 264.664Z" fill="black" fill-opacity="0.3"/>
<path d="M334.367 270.087C334.146 270.091 333.974 269.932 333.976 269.723C333.978 269.523 334.158 269.357 334.372 269.358C334.583 269.359 334.743 269.51 334.748 269.711C334.753 269.922 334.591 270.083 334.367 270.087Z" fill="black" fill-opacity="0.3"/>
<path d="M341.734 259.339C341.74 259.53 341.573 259.701 341.369 259.714C341.146 259.728 340.971 259.574 340.966 259.361C340.961 259.147 341.124 258.987 341.35 258.985C341.554 258.985 341.728 259.144 341.734 259.339Z" fill="black" fill-opacity="0.3"/>
<path d="M327.955 256.652C327.954 256.859 327.801 257.001 327.58 257.001C327.361 257.001 327.21 256.855 327.213 256.646C327.216 256.445 327.38 256.288 327.589 256.287C327.794 256.287 327.957 256.448 327.955 256.652Z" fill="black" fill-opacity="0.3"/>
<path d="M341.066 269.483C340.86 269.482 340.714 269.341 340.713 269.14C340.712 268.933 340.869 268.786 341.086 268.788C341.292 268.79 341.444 268.937 341.444 269.131C341.444 269.334 341.283 269.484 341.066 269.483Z" fill="black" fill-opacity="0.3"/>
<path d="M342.021 267.445C341.822 267.447 341.667 267.293 341.67 267.097C341.673 266.902 341.827 266.755 342.03 266.755C342.22 266.755 342.391 266.921 342.389 267.104C342.387 267.287 342.22 267.443 342.021 267.445Z" fill="black" fill-opacity="0.3"/>
<path d="M339.807 263.406C339.813 263.6 339.663 263.746 339.453 263.748C339.247 263.75 339.119 263.653 339.102 263.441C339.086 263.243 339.233 263.087 339.434 263.077C339.624 263.067 339.801 263.222 339.807 263.406Z" fill="black" fill-opacity="0.3"/>
<path d="M340.738 261.386C340.735 261.568 340.581 261.716 340.395 261.717C340.208 261.718 340.057 261.57 340.059 261.385C340.06 261.202 340.211 261.058 340.4 261.057C340.587 261.055 340.741 261.205 340.738 261.386Z" fill="black" fill-opacity="0.3"/>
<path d="M340.111 271.493C339.921 271.487 339.775 271.335 339.794 271.15C339.814 270.95 339.936 270.856 340.131 270.854C340.324 270.852 340.473 271 340.468 271.181C340.463 271.358 340.301 271.499 340.111 271.493Z" fill="black" fill-opacity="0.3"/>
<path d="M338.829 265.468C338.824 265.655 338.675 265.791 338.479 265.776C338.287 265.761 338.17 265.651 338.159 265.457C338.149 265.283 338.318 265.132 338.503 265.132C338.692 265.132 338.834 265.278 338.829 265.468Z" fill="black" fill-opacity="0.3"/>
<path d="M331.451 266.025C331.461 265.837 331.609 265.715 331.814 265.728C332.014 265.742 332.122 265.853 332.127 266.05C332.132 266.232 331.972 266.367 331.775 266.362C331.579 266.358 331.44 266.213 331.451 266.025Z" fill="black" fill-opacity="0.3"/>
<path d="M333.349 257.788C333.524 257.787 333.683 257.937 333.667 258.103C333.649 258.3 333.522 258.402 333.331 258.4C333.145 258.398 333.04 258.282 333.025 258.101C333.013 257.938 333.176 257.789 333.349 257.788Z" fill="black" fill-opacity="0.3"/>
<path d="M327.309 266.731C327.128 266.725 327.007 266.628 327 266.444C326.993 266.254 327.118 266.157 327.299 266.14C327.478 266.122 327.641 266.266 327.631 266.438C327.618 266.626 327.496 266.714 327.309 266.731Z" fill="black" fill-opacity="0.3"/>
<path d="M336.927 273.687C336.76 273.663 336.64 273.578 336.648 273.397C336.656 273.22 336.768 273.126 336.947 273.13C337.127 273.134 337.235 273.231 337.23 273.41C337.224 273.591 337.098 273.669 336.927 273.687Z" fill="black" fill-opacity="0.3"/>
<path d="M333.37 267.89C333.341 268.066 333.234 268.164 333.061 268.158C332.899 268.153 332.796 268.053 332.784 267.887C332.773 267.733 332.941 267.586 333.104 267.605C333.269 267.624 333.352 267.728 333.37 267.89Z" fill="black" fill-opacity="0.3"/>
<path d="M347.783 268.278C347.957 268.288 348.064 268.378 348.071 268.541C348.077 268.708 347.965 268.807 347.804 268.815C347.631 268.823 347.512 268.731 347.513 268.545C347.515 268.371 347.633 268.3 347.783 268.278Z" fill="black" fill-opacity="0.3"/>
<path d="M248.139 346.279C247.575 346.283 247.141 345.871 247.142 345.332C247.143 344.787 247.571 344.391 248.167 344.385C248.743 344.379 249.166 344.768 249.174 345.313C249.182 345.868 248.747 346.275 248.139 346.279Z" fill="black" fill-opacity="0.3"/>
<path d="M249.067 344.254C248.543 344.258 248.092 343.816 248.094 343.302C248.097 342.745 248.555 342.329 249.163 342.332C249.676 342.335 250.115 342.764 250.127 343.274C250.14 343.821 249.678 344.249 249.067 344.254Z" fill="black" fill-opacity="0.3"/>
<path d="M262.518 343.061C261.94 343.065 261.531 342.678 261.53 342.125C261.529 341.559 261.95 341.168 262.563 341.165C263.11 341.163 263.535 341.565 263.546 342.096C263.556 342.647 263.12 343.056 262.518 343.061Z" fill="black" fill-opacity="0.3"/>
<path d="M260.577 344.153C260.579 343.608 261.03 343.199 261.628 343.199C262.159 343.199 262.6 343.637 262.595 344.156C262.589 344.701 262.134 345.112 261.539 345.111C261.002 345.109 260.575 344.684 260.577 344.153Z" fill="black" fill-opacity="0.3"/>
<path d="M247.797 342.356C247.262 342.358 246.849 341.972 246.843 341.465C246.836 340.938 247.296 340.525 247.882 340.531C248.387 340.537 248.784 340.942 248.783 341.451C248.781 341.996 248.391 342.354 247.797 342.356Z" fill="black" fill-opacity="0.3"/>
<path d="M263.799 344.867C263.273 344.87 262.847 344.461 262.854 343.96C262.861 343.447 263.293 343.052 263.858 343.045C264.359 343.039 264.779 343.447 264.783 343.944C264.787 344.47 264.368 344.862 263.799 344.867Z" fill="black" fill-opacity="0.3"/>
<path d="M262.837 346.884C262.301 346.883 261.929 346.513 261.932 345.987C261.935 345.466 262.342 345.095 262.91 345.095C263.423 345.095 263.832 345.499 263.826 346C263.819 346.512 263.403 346.885 262.837 346.884Z" fill="black" fill-opacity="0.3"/>
<path d="M254.578 355.392C254.072 355.395 253.684 355.025 253.682 354.54C253.68 354.039 254.095 353.654 254.638 353.657C255.131 353.659 255.522 354.047 255.52 354.529C255.517 355.033 255.129 355.389 254.578 355.392Z" fill="black" fill-opacity="0.3"/>
<path d="M259.769 346.179C259.774 345.697 260.155 345.354 260.686 345.357C261.14 345.36 261.515 345.742 261.509 346.196C261.503 346.671 261.106 347.025 260.584 347.018C260.124 347.013 259.764 346.643 259.769 346.179Z" fill="black" fill-opacity="0.3"/>
<path d="M250.337 345.957C249.891 345.948 249.512 345.562 249.524 345.129C249.537 344.648 249.937 344.295 250.456 344.307C250.901 344.317 251.276 344.699 251.271 345.136C251.266 345.608 250.857 345.967 250.337 345.957Z" fill="black" fill-opacity="0.3"/>
<path d="M256.797 355.141C256.331 355.138 255.976 354.791 255.976 354.339C255.976 353.87 256.358 353.514 256.867 353.51C257.327 353.507 257.701 353.879 257.696 354.336C257.691 354.819 257.328 355.144 256.797 355.141Z" fill="black" fill-opacity="0.3"/>
<path d="M255.886 357.157C255.389 357.163 255.04 356.837 255.039 356.368C255.038 355.92 255.405 355.575 255.892 355.565C256.367 355.555 256.723 355.884 256.731 356.339C256.738 356.828 256.405 357.151 255.886 357.157Z" fill="black" fill-opacity="0.3"/>
<path d="M247.196 348.144C246.722 348.146 246.382 347.827 246.378 347.377C246.375 346.912 246.751 346.564 247.253 346.568C247.688 346.571 248.062 346.948 248.054 347.375C248.047 347.81 247.677 348.142 247.196 348.144Z" fill="black" fill-opacity="0.3"/>
<path d="M246.851 344.268C246.389 344.27 246.035 343.936 246.033 343.497C246.03 343.05 246.398 342.711 246.892 342.702C247.336 342.694 247.71 343.05 247.709 343.481C247.708 343.942 247.356 344.266 246.851 344.268Z" fill="black" fill-opacity="0.3"/>
<path d="M259.709 347.462C260.138 347.46 260.493 347.796 260.496 348.209C260.5 348.643 260.123 348.99 259.652 348.988C259.233 348.986 258.874 348.633 258.876 348.225C258.878 347.804 259.249 347.465 259.709 347.462Z" fill="black" fill-opacity="0.3"/>
<path d="M247.504 351.991C247.091 351.989 246.749 351.649 246.748 351.238C246.746 350.82 247.132 350.477 247.593 350.485C248.008 350.492 248.348 350.833 248.348 351.241C248.347 351.67 247.985 351.992 247.504 351.991Z" fill="black" fill-opacity="0.3"/>
<path d="M263.521 354.487C263.081 354.485 262.741 354.152 262.75 353.732C262.76 353.308 263.113 352.995 263.578 352.997C264.026 352.999 264.341 353.315 264.335 353.756C264.329 354.2 264.007 354.489 263.521 354.487Z" fill="black" fill-opacity="0.3"/>
<path d="M253.29 353.429C252.844 353.428 252.516 353.109 252.52 352.68C252.524 352.251 252.865 351.94 253.335 351.938C253.771 351.936 254.113 352.271 254.107 352.692C254.102 353.122 253.759 353.43 253.29 353.429Z" fill="black" fill-opacity="0.3"/>
<path d="M250.234 347.159C250.237 347.602 249.893 347.918 249.41 347.915C249 347.913 248.646 347.561 248.653 347.163C248.659 346.748 249.028 346.415 249.476 346.416C249.896 346.417 250.232 346.745 250.234 347.159Z" fill="black" fill-opacity="0.3"/>
<path d="M257.761 353.029C257.323 353.029 257.005 352.724 257.002 352.301C256.998 351.866 257.357 351.537 257.83 351.544C258.239 351.55 258.591 351.902 258.584 352.299C258.575 352.726 258.233 353.029 257.761 353.029Z" fill="black" fill-opacity="0.3"/>
<path d="M257.957 350.221C257.971 349.795 258.317 349.507 258.8 349.52C259.221 349.532 259.554 349.879 259.532 350.285C259.51 350.715 259.134 351.028 258.665 351.006C258.25 350.987 257.942 350.647 257.957 350.221Z" fill="black" fill-opacity="0.3"/>
<path d="M264.135 348.55C263.701 348.549 263.394 348.254 263.394 347.835C263.394 347.413 263.73 347.104 264.187 347.107C264.605 347.11 264.933 347.429 264.932 347.831C264.931 348.256 264.605 348.55 264.135 348.55Z" fill="black" fill-opacity="0.3"/>
<path d="M263.973 349.869C263.97 350.283 263.612 350.6 263.164 350.588C262.765 350.577 262.44 350.246 262.448 349.858C262.456 349.459 262.799 349.162 263.247 349.165C263.662 349.169 263.976 349.474 263.973 349.869Z" fill="black" fill-opacity="0.3"/>
<path d="M247.906 354.408C248.322 354.407 248.624 354.703 248.625 355.113C248.626 355.525 248.298 355.829 247.853 355.828C247.47 355.827 247.142 355.508 247.136 355.131C247.13 354.726 247.468 354.409 247.906 354.408Z" fill="black" fill-opacity="0.3"/>
<path d="M252.754 350.832C252.759 351.245 252.433 351.552 251.989 351.551C251.616 351.551 251.291 351.241 251.28 350.875C251.267 350.473 251.601 350.154 252.044 350.145C252.439 350.136 252.75 350.437 252.754 350.832Z" fill="black" fill-opacity="0.3"/>
<path d="M263.446 340.778C263.061 340.771 262.734 340.438 262.748 340.067C262.765 339.66 263.082 339.391 263.533 339.402C263.925 339.411 264.226 339.711 264.22 340.085C264.213 340.479 263.869 340.786 263.446 340.778Z" fill="black" fill-opacity="0.3"/>
<path d="M246.586 353.932C246.199 353.933 245.897 353.653 245.891 353.288C245.886 352.92 246.214 352.61 246.616 352.605C246.993 352.6 247.313 352.914 247.307 353.284C247.302 353.653 246.992 353.932 246.586 353.932Z" fill="black" fill-opacity="0.3"/>
<path d="M250.747 348.363C251.134 348.361 251.436 348.644 251.435 349.007C251.434 349.378 251.126 349.656 250.717 349.655C250.33 349.654 250.057 349.394 250.053 349.021C250.049 348.626 250.324 348.365 250.747 348.363Z" fill="black" fill-opacity="0.3"/>
<path d="M261.919 348.68C261.563 348.695 261.243 348.4 261.236 348.05C261.227 347.68 261.533 347.389 261.937 347.381C262.289 347.373 262.59 347.649 262.61 347.997C262.63 348.356 262.319 348.664 261.919 348.68Z" fill="black" fill-opacity="0.3"/>
<path d="M248.525 348.565C248.909 348.568 249.181 348.837 249.178 349.209C249.175 349.576 248.879 349.85 248.483 349.851C248.116 349.853 247.81 349.564 247.808 349.212C247.805 348.841 248.115 348.562 248.525 348.565Z" fill="black" fill-opacity="0.3"/>
<path d="M251.727 346.324C252.072 346.329 252.37 346.625 252.373 346.965C252.375 347.328 252.047 347.631 251.659 347.624C251.292 347.618 251.005 347.327 251.01 346.967C251.015 346.589 251.317 346.319 251.727 346.324Z" fill="black" fill-opacity="0.3"/>
<path d="M264.468 352.325C264.09 352.322 263.836 352.065 263.844 351.69C263.851 351.327 264.135 351.076 264.533 351.082C264.878 351.087 265.167 351.366 265.172 351.697C265.177 352.054 264.868 352.329 264.468 352.325Z" fill="black" fill-opacity="0.3"/>
<path d="M264.735 342.523C264.388 342.517 264.132 342.257 264.139 341.915C264.146 341.564 264.429 341.311 264.807 341.318C265.143 341.325 265.417 341.604 265.41 341.929C265.4 342.279 265.116 342.529 264.735 342.523Z" fill="black" fill-opacity="0.3"/>
<path d="M262.588 356.347C262.262 356.349 262.002 356.107 261.993 355.793C261.984 355.466 262.255 355.212 262.615 355.21C262.939 355.208 263.203 355.452 263.213 355.763C263.223 356.086 262.945 356.346 262.588 356.347Z" fill="black" fill-opacity="0.3"/>
<path d="M246.239 349.952C245.926 349.949 245.67 349.698 245.675 349.397C245.68 349.075 245.95 348.833 246.297 348.843C246.596 348.851 246.847 349.096 246.851 349.387C246.856 349.705 246.585 349.955 246.239 349.952Z" fill="black" fill-opacity="0.3"/>
<path d="M265.425 355.571C265.431 355.87 265.163 356.13 264.842 356.138C264.532 356.147 264.264 355.906 264.254 355.61C264.243 355.295 264.512 355.031 264.847 355.028C265.151 355.026 265.419 355.276 265.425 355.571Z" fill="black" fill-opacity="0.3"/>
<path d="M246.381 357.119C246.397 356.819 246.661 356.604 246.988 356.621C247.287 356.637 247.516 356.874 247.507 357.157C247.498 357.463 247.218 357.707 246.895 357.687C246.595 357.67 246.365 357.415 246.381 357.119Z" fill="black" fill-opacity="0.3"/>
<path d="M252.419 348.824C252.417 348.519 252.662 348.28 252.981 348.274C253.279 348.269 253.538 348.512 253.543 348.8C253.548 349.095 253.291 349.341 252.973 349.346C252.661 349.35 252.421 349.124 252.419 348.824Z" fill="black" fill-opacity="0.3"/>
<path d="M255.534 353.021C255.226 353.016 254.987 352.779 254.991 352.483C254.996 352.187 255.265 351.949 255.58 351.961C255.871 351.972 256.115 352.213 256.113 352.488C256.111 352.784 255.848 353.026 255.534 353.021Z" fill="black" fill-opacity="0.3"/>
<path d="M245.915 346.025C245.626 346.026 245.389 345.806 245.386 345.533C245.383 345.25 245.617 345.031 245.93 345.027C246.22 345.023 246.45 345.24 246.454 345.519C246.458 345.804 246.224 346.024 245.915 346.025Z" fill="black" fill-opacity="0.3"/>
<path d="M262.783 351.908C262.779 352.195 262.537 352.417 262.237 352.407C261.965 352.398 261.738 352.173 261.737 351.912C261.736 351.628 261.973 351.403 262.275 351.402C262.56 351.401 262.788 351.627 262.783 351.908Z" fill="black" fill-opacity="0.3"/>
<path d="M246.538 339.15C246.827 339.15 247.023 339.334 247.025 339.606C247.028 339.884 246.82 340.086 246.529 340.085C246.257 340.085 246.037 339.88 246.032 339.625C246.028 339.36 246.252 339.15 246.538 339.15Z" fill="black" fill-opacity="0.3"/>
<path d="M248.826 353.53C248.558 353.528 248.354 353.334 248.351 353.079C248.348 352.827 248.571 352.621 248.851 352.619C249.109 352.617 249.322 352.822 249.324 353.075C249.325 353.335 249.109 353.532 248.826 353.53Z" fill="black" fill-opacity="0.3"/>
<path d="M265.126 345.344C265.398 345.347 265.592 345.538 265.588 345.799C265.584 346.062 265.367 346.265 265.091 346.261C264.839 346.258 264.618 346.039 264.622 345.796C264.627 345.537 264.845 345.341 265.126 345.344Z" fill="black" fill-opacity="0.3"/>
<path d="M253.667 356.115C253.934 356.117 254.135 356.316 254.129 356.568C254.123 356.821 253.922 357.004 253.648 357.004C253.369 357.004 253.177 356.826 253.176 356.565C253.174 356.299 253.377 356.112 253.667 356.115Z" fill="black" fill-opacity="0.3"/>
<path d="M250.078 340.811C250.349 340.815 250.542 341.006 250.535 341.267C250.528 341.533 250.321 341.709 250.027 341.7C249.772 341.693 249.578 341.501 249.578 341.258C249.578 340.999 249.793 340.807 250.078 340.811Z" fill="black" fill-opacity="0.3"/>
<path d="M260.526 350.065C260.526 349.822 260.729 349.632 260.988 349.632C261.23 349.632 261.42 349.821 261.417 350.061C261.416 350.312 261.22 350.498 260.96 350.494C260.719 350.492 260.526 350.302 260.526 350.065Z" fill="black" fill-opacity="0.3"/>
<path d="M248.754 339.836C248.498 339.833 248.322 339.658 248.327 339.411C248.332 339.174 248.524 339 248.775 339C249.027 339 249.218 339.178 249.219 339.414C249.221 339.657 249.02 339.839 248.754 339.836Z" fill="black" fill-opacity="0.3"/>
<path d="M254.245 351.063C253.993 351.059 253.819 350.881 253.83 350.633C253.839 350.398 254.034 350.226 254.284 350.232C254.516 350.238 254.704 350.418 254.708 350.642C254.711 350.884 254.51 351.067 254.245 351.063Z" fill="black" fill-opacity="0.3"/>
<path d="M245.657 354.907C245.9 354.906 246.086 355.071 246.092 355.294C246.099 355.516 245.894 355.721 245.66 355.729C245.414 355.737 245.222 355.557 245.219 355.317C245.217 355.075 245.395 354.908 245.657 354.907Z" fill="black" fill-opacity="0.3"/>
<path d="M263.88 358.011C263.639 358.01 263.455 357.834 263.461 357.611C263.466 357.392 263.655 357.224 263.899 357.224C264.135 357.224 264.324 357.405 264.318 357.626C264.311 357.849 264.125 358.013 263.88 358.011Z" fill="black" fill-opacity="0.3"/>
<path d="M261.654 340.281C261.652 340.493 261.472 340.659 261.236 340.662C261.011 340.665 260.829 340.485 260.837 340.269C260.845 340.057 261.032 339.898 261.266 339.905C261.488 339.91 261.655 340.073 261.654 340.281Z" fill="black" fill-opacity="0.3"/>
<path d="M260.697 342.309C260.699 342.517 260.508 342.699 260.285 342.697C260.072 342.696 259.897 342.526 259.895 342.318C259.893 342.102 260.078 341.926 260.302 341.929C260.514 341.933 260.695 342.107 260.697 342.309Z" fill="black" fill-opacity="0.3"/>
<path d="M265.843 349.664C265.846 349.89 265.683 350.051 265.449 350.053C265.222 350.056 265.061 349.91 265.054 349.695C265.046 349.464 265.227 349.282 265.46 349.285C265.67 349.289 265.84 349.457 265.843 349.664Z" fill="black" fill-opacity="0.3"/>
<path d="M252.367 355.087C252.146 355.091 251.974 354.932 251.976 354.723C251.978 354.523 252.158 354.357 252.372 354.358C252.583 354.359 252.743 354.51 252.748 354.711C252.753 354.922 252.591 355.083 252.367 355.087Z" fill="black" fill-opacity="0.3"/>
<path d="M259.734 344.339C259.74 344.53 259.573 344.701 259.369 344.714C259.146 344.728 258.971 344.574 258.966 344.361C258.961 344.147 259.124 343.987 259.35 343.985C259.554 343.985 259.728 344.144 259.734 344.339Z" fill="black" fill-opacity="0.3"/>
<path d="M245.955 341.652C245.954 341.859 245.801 342.001 245.58 342.001C245.361 342.001 245.21 341.855 245.213 341.646C245.216 341.445 245.38 341.288 245.589 341.287C245.794 341.287 245.957 341.448 245.955 341.652Z" fill="black" fill-opacity="0.3"/>
<path d="M259.066 354.483C258.86 354.482 258.714 354.341 258.713 354.14C258.712 353.933 258.869 353.786 259.086 353.788C259.292 353.79 259.444 353.937 259.444 354.131C259.444 354.334 259.283 354.484 259.066 354.483Z" fill="black" fill-opacity="0.3"/>
<path d="M260.021 352.445C259.822 352.447 259.667 352.293 259.67 352.097C259.673 351.902 259.827 351.755 260.03 351.755C260.22 351.755 260.391 351.921 260.389 352.104C260.387 352.287 260.22 352.443 260.021 352.445Z" fill="black" fill-opacity="0.3"/>
<path d="M257.807 348.406C257.813 348.6 257.663 348.746 257.453 348.748C257.247 348.75 257.119 348.653 257.102 348.441C257.086 348.243 257.233 348.087 257.434 348.077C257.624 348.067 257.801 348.222 257.807 348.406Z" fill="black" fill-opacity="0.3"/>
<path d="M258.738 346.386C258.735 346.568 258.581 346.716 258.395 346.717C258.208 346.718 258.057 346.57 258.059 346.385C258.06 346.202 258.211 346.058 258.4 346.057C258.587 346.055 258.741 346.205 258.738 346.386Z" fill="black" fill-opacity="0.3"/>
<path d="M258.111 356.493C257.921 356.487 257.775 356.335 257.794 356.15C257.814 355.95 257.936 355.856 258.131 355.854C258.324 355.852 258.473 356 258.468 356.181C258.463 356.358 258.301 356.499 258.111 356.493Z" fill="black" fill-opacity="0.3"/>
<path d="M256.829 350.468C256.824 350.655 256.675 350.791 256.479 350.776C256.287 350.761 256.17 350.651 256.159 350.457C256.149 350.283 256.318 350.132 256.503 350.132C256.692 350.132 256.834 350.278 256.829 350.468Z" fill="black" fill-opacity="0.3"/>
<path d="M249.451 351.025C249.461 350.837 249.609 350.715 249.814 350.728C250.014 350.742 250.122 350.853 250.127 351.05C250.132 351.232 249.972 351.367 249.775 351.362C249.579 351.358 249.44 351.213 249.451 351.025Z" fill="black" fill-opacity="0.3"/>
<path d="M251.349 342.788C251.524 342.787 251.683 342.937 251.667 343.103C251.649 343.3 251.522 343.402 251.331 343.4C251.145 343.398 251.04 343.282 251.025 343.101C251.013 342.938 251.176 342.789 251.349 342.788Z" fill="black" fill-opacity="0.3"/>
<path d="M245.309 351.731C245.128 351.725 245.007 351.628 245 351.444C244.993 351.254 245.118 351.157 245.299 351.14C245.478 351.122 245.641 351.266 245.631 351.438C245.618 351.626 245.496 351.714 245.309 351.731Z" fill="black" fill-opacity="0.3"/>
<path d="M254.927 358.687C254.76 358.663 254.64 358.578 254.648 358.397C254.656 358.22 254.768 358.126 254.947 358.13C255.127 358.134 255.235 358.231 255.23 358.41C255.224 358.591 255.098 358.669 254.927 358.687Z" fill="black" fill-opacity="0.3"/>
<path d="M251.37 352.89C251.341 353.066 251.234 353.164 251.061 353.158C250.899 353.153 250.796 353.053 250.784 352.887C250.773 352.733 250.941 352.586 251.104 352.605C251.269 352.624 251.352 352.728 251.37 352.89Z" fill="black" fill-opacity="0.3"/>
<path d="M265.783 353.278C265.957 353.288 266.064 353.378 266.071 353.541C266.077 353.708 265.965 353.807 265.804 353.815C265.631 353.823 265.512 353.731 265.513 353.545C265.515 353.371 265.633 353.3 265.783 353.278Z" fill="black" fill-opacity="0.3"/>
</g>
<g filter="url(#filter7_d)">
<path d="M338 253L331.505 245.5L344.495 245.5L338 253Z" fill="white"/>
<rect x="297" y="212" width="83" height="33" rx="5" fill="white" stroke="white" stroke-width="2"/>
<path d="M334.249 230.246C334.249 228.315 332.805 227.937 331.063 227.627V224.481C332.049 224.711 332.643 225.453 332.67 226.574L333.952 226.331C333.75 224.441 332.575 223.617 331.063 223.428V222.632H330.051V223.401C328.606 223.482 327.054 224.238 327.054 226.047C327.054 227.829 328.606 228.369 330.024 228.707H330.051V232.095C328.903 231.92 328.107 231.137 328.066 229.854L326.77 229.989C326.824 231.947 328.269 232.959 330.051 233.135V233.918H331.063V233.149C332.656 233.041 334.249 232.338 334.249 230.246ZM328.309 225.993C328.309 225.021 329.146 224.508 330.051 224.414V227.424C329.119 227.195 328.309 226.83 328.309 225.993ZM331.063 228.923C332.089 229.125 332.98 229.355 332.98 230.34C332.98 231.501 332.13 232.001 331.063 232.109V228.923ZM342.726 230.246C342.726 228.315 341.282 227.937 339.54 227.627V224.481C340.526 224.711 341.12 225.453 341.147 226.574L342.429 226.331C342.227 224.441 341.052 223.617 339.54 223.428V222.632H338.528V223.401C337.083 223.482 335.531 224.238 335.531 226.047C335.531 227.829 337.083 228.369 338.501 228.707H338.528V232.095C337.38 231.92 336.584 231.137 336.543 229.854L335.247 229.989C335.301 231.947 336.746 232.959 338.528 233.135V233.918H339.54V233.149C341.133 233.041 342.726 232.338 342.726 230.246ZM336.786 225.993C336.786 225.021 337.623 224.508 338.528 224.414V227.424C337.596 227.195 336.786 226.83 336.786 225.993ZM339.54 228.923C340.566 229.125 341.457 229.355 341.457 230.34C341.457 231.501 340.607 232.001 339.54 232.109V228.923ZM351.204 230.246C351.204 228.315 349.759 227.937 348.018 227.627V224.481C349.003 224.711 349.597 225.453 349.624 226.574L350.907 226.331C350.704 224.441 349.53 223.617 348.018 223.428V222.632H347.005V223.401C345.561 223.482 344.008 224.238 344.008 226.047C344.008 227.829 345.561 228.369 346.978 228.707H347.005V232.095C345.858 231.92 345.061 231.137 345.021 229.854L343.725 229.989C343.779 231.947 345.223 232.959 347.005 233.135V233.918H348.018V233.149C349.611 233.041 351.204 232.338 351.204 230.246ZM345.264 225.993C345.264 225.021 346.101 224.508 347.005 224.414V227.424C346.074 227.195 345.264 226.83 345.264 225.993ZM348.018 228.923C349.044 229.125 349.935 229.355 349.935 230.34C349.935 231.501 349.084 232.001 348.018 232.109V228.923Z" fill="url(#paint4_linear)"/>
</g>
<g filter="url(#filter8_d)">
<path d="M256 338L249.505 330.5L262.495 330.5L256 338Z" fill="white"/>
<rect x="215" y="297" width="83" height="33" rx="5" fill="white" stroke="white" stroke-width="2"/>
<path d="M252.249 315.246C252.249 313.315 250.805 312.937 249.063 312.627V309.481C250.049 309.711 250.643 310.453 250.67 311.574L251.952 311.331C251.75 309.441 250.575 308.617 249.063 308.428V307.632H248.051V308.401C246.606 308.482 245.054 309.238 245.054 311.047C245.054 312.829 246.606 313.369 248.024 313.707H248.051V317.095C246.903 316.92 246.107 316.137 246.066 314.854L244.77 314.989C244.824 316.947 246.269 317.959 248.051 318.135V318.918H249.063V318.149C250.656 318.041 252.249 317.338 252.249 315.246ZM246.309 310.993C246.309 310.021 247.146 309.508 248.051 309.414V312.424C247.119 312.195 246.309 311.83 246.309 310.993ZM249.063 313.923C250.089 314.125 250.98 314.355 250.98 315.34C250.98 316.501 250.13 317.001 249.063 317.109V313.923ZM260.726 315.246C260.726 313.315 259.282 312.937 257.54 312.627V309.481C258.526 309.711 259.12 310.453 259.147 311.574L260.429 311.331C260.227 309.441 259.052 308.617 257.54 308.428V307.632H256.528V308.401C255.083 308.482 253.531 309.238 253.531 311.047C253.531 312.829 255.083 313.369 256.501 313.707H256.528V317.095C255.38 316.92 254.584 316.137 254.543 314.854L253.247 314.989C253.301 316.947 254.746 317.959 256.528 318.135V318.918H257.54V318.149C259.133 318.041 260.726 317.338 260.726 315.246ZM254.786 310.993C254.786 310.021 255.623 309.508 256.528 309.414V312.424C255.596 312.195 254.786 311.83 254.786 310.993ZM257.54 313.923C258.566 314.125 259.457 314.355 259.457 315.34C259.457 316.501 258.607 317.001 257.54 317.109V313.923ZM269.204 315.246C269.204 313.315 267.759 312.937 266.018 312.627V309.481C267.003 309.711 267.597 310.453 267.624 311.574L268.907 311.331C268.704 309.441 267.53 308.617 266.018 308.428V307.632H265.005V308.401C263.561 308.482 262.008 309.238 262.008 311.047C262.008 312.829 263.561 313.369 264.978 313.707H265.005V317.095C263.858 316.92 263.061 316.137 263.021 314.854L261.725 314.989C261.779 316.947 263.223 317.959 265.005 318.135V318.918H266.018V318.149C267.611 318.041 269.204 317.338 269.204 315.246ZM263.264 310.993C263.264 310.021 264.101 309.508 265.005 309.414V312.424C264.074 312.195 263.264 311.83 263.264 310.993ZM266.018 313.923C267.044 314.125 267.935 314.355 267.935 315.34C267.935 316.501 267.084 317.001 266.018 317.109V313.923Z" fill="url(#paint5_linear)"/>
</g>
<defs>
<filter id="filter0_dii" x="0" y="0" width="558" height="508" filterUnits="userSpaceOnUse" color-interpolation-filters="sRGB">
<feFlood flood-opacity="0" result="BackgroundImageFix"/>
<feColorMatrix in="SourceAlpha" type="matrix" values="0 0 0 0 0 0 0 0 0 0 0 0 0 0 0 0 0 0 127 0"/>
<feOffset dy="4"/>
<feGaussianBlur stdDeviation="2"/>
<feColorMatrix type="matrix" values="0 0 0 0 0 0 0 0 0 0 0 0 0 0 0 0 0 0 0.25 0"/>
<feBlend mode="normal" in2="BackgroundImageFix" result="effect1_dropShadow"/>
<feBlend mode="normal" in="SourceGraphic" in2="effect1_dropShadow" result="shape"/>
<feColorMatrix in="SourceAlpha" type="matrix" values="0 0 0 0 0 0 0 0 0 0 0 0 0 0 0 0 0 0 127 0" result="hardAlpha"/>
<feMorphology radius="0.5" operator="dilate" in="SourceAlpha" result="effect2_innerShadow"/>
<feOffset dy="1"/>
<feGaussianBlur stdDeviation="0.5"/>
<feComposite in2="hardAlpha" operator="arithmetic" k2="-1" k3="1"/>
<feColorMatrix type="matrix" values="0 0 0 0 0 0 0 0 0 0 0 0 0 0 0 0 0 0 0.25 0"/>
<feBlend mode="normal" in2="shape" result="effect2_innerShadow"/>
<feColorMatrix in="SourceAlpha" type="matrix" values="0 0 0 0 0 0 0 0 0 0 0 0 0 0 0 0 0 0 127 0" result="hardAlpha"/>
<feOffset dy="1"/>
<feGaussianBlur stdDeviation="1"/>
<feComposite in2="hardAlpha" operator="arithmetic" k2="-1" k3="1"/>
<feColorMatrix type="matrix" values="0 0 0 0 1 0 0 0 0 1 0 0 0 0 1 0 0 0 1 0"/>
<feBlend mode="normal" in2="effect2_innerShadow" result="effect3_innerShadow"/>
</filter>
<filter id="filter1_d" x="199" y="164" width="42" height="42" filterUnits="userSpaceOnUse" color-interpolation-filters="sRGB">
<feFlood flood-opacity="0" result="BackgroundImageFix"/>
<feColorMatrix in="SourceAlpha" type="matrix" values="0 0 0 0 0 0 0 0 0 0 0 0 0 0 0 0 0 0 127 0"/>
<feOffset dy="1"/>
<feGaussianBlur stdDeviation="0.5"/>
<feColorMatrix type="matrix" values="0 0 0 0 0 0 0 0 0 0 0 0 0 0 0 0 0 0 0.25 0"/>
<feBlend mode="normal" in2="BackgroundImageFix" result="effect1_dropShadow"/>
<feBlend mode="normal" in="SourceGraphic" in2="effect1_dropShadow" result="shape"/>
</filter>
<filter id="filter2_i" x="200" y="163" width="40" height="41" filterUnits="userSpaceOnUse" color-interpolation-filters="sRGB">
<feFlood flood-opacity="0" result="BackgroundImageFix"/>
<feBlend mode="normal" in="SourceGraphic" in2="BackgroundImageFix" result="shape"/>
<feColorMatrix in="SourceAlpha" type="matrix" values="0 0 0 0 0 0 0 0 0 0 0 0 0 0 0 0 0 0 127 0" result="hardAlpha"/>
<feOffset dy="-1"/>
<feGaussianBlur stdDeviation="1"/>
<feComposite in2="hardAlpha" operator="arithmetic" k2="-1" k3="1"/>
<feColorMatrix type="matrix" values="0 0 0 0 0 0 0 0 0 0 0 0 0 0 0 0 0 0 0.2 0"/>
<feBlend mode="normal" in2="shape" result="effect1_innerShadow"/>
</filter>
<filter id="filter3_d" x="178" y="131" width="93" height="50" filterUnits="userSpaceOnUse" color-interpolation-filters="sRGB">
<feFlood flood-opacity="0" result="BackgroundImageFix"/>
<feColorMatrix in="SourceAlpha" type="matrix" values="0 0 0 0 0 0 0 0 0 0 0 0 0 0 0 0 0 0 127 0"/>
<feOffset dx="4" dy="4"/>
<feGaussianBlur stdDeviation="2"/>
<feColorMatrix type="matrix" values="0 0 0 0 0 0 0 0 0 0 0 0 0 0 0 0 0 0 0.25 0"/>
<feBlend mode="normal" in2="BackgroundImageFix" result="effect1_dropShadow"/>
<feBlend mode="normal" in="SourceGraphic" in2="effect1_dropShadow" result="shape"/>
</filter>
<filter id="filter4_d" x="235" y="244" width="124" height="127" filterUnits="userSpaceOnUse" color-interpolation-filters="sRGB">
<feFlood flood-opacity="0" result="BackgroundImageFix"/>
<feColorMatrix in="SourceAlpha" type="matrix" values="0 0 0 0 0 0 0 0 0 0 0 0 0 0 0 0 0 0 127 0"/>
<feOffset dy="1"/>
<feGaussianBlur stdDeviation="0.5"/>
<feColorMatrix type="matrix" values="0 0 0 0 0 0 0 0 0 0 0 0 0 0 0 0 0 0 0.25 0"/>
<feBlend mode="normal" in2="BackgroundImageFix" result="effect1_dropShadow"/>
<feBlend mode="normal" in="SourceGraphic" in2="effect1_dropShadow" result="shape"/>
</filter>
<filter id="filter5_i" x="318" y="243" width="40" height="41" filterUnits="userSpaceOnUse" color-interpolation-filters="sRGB">
<feFlood flood-opacity="0" result="BackgroundImageFix"/>
<feBlend mode="normal" in="SourceGraphic" in2="BackgroundImageFix" result="shape"/>
<feColorMatrix in="SourceAlpha" type="matrix" values="0 0 0 0 0 0 0 0 0 0 0 0 0 0 0 0 0 0 127 0" result="hardAlpha"/>
<feOffset dy="-1"/>
<feGaussianBlur stdDeviation="1"/>
<feComposite in2="hardAlpha" operator="arithmetic" k2="-1" k3="1"/>
<feColorMatrix type="matrix" values="0 0 0 0 0 0 0 0 0 0 0 0 0 0 0 0 0 0 0.2 0"/>
<feBlend mode="normal" in2="shape" result="effect1_innerShadow"/>
</filter>
<filter id="filter6_i" x="236" y="328" width="40" height="41" filterUnits="userSpaceOnUse" color-interpolation-filters="sRGB">
<feFlood flood-opacity="0" result="BackgroundImageFix"/>
<feBlend mode="normal" in="SourceGraphic" in2="BackgroundImageFix" result="shape"/>
<feColorMatrix in="SourceAlpha" type="matrix" values="0 0 0 0 0 0 0 0 0 0 0 0 0 0 0 0 0 0 127 0" result="hardAlpha"/>
<feOffset dy="-1"/>
<feGaussianBlur stdDeviation="1"/>
<feComposite in2="hardAlpha" operator="arithmetic" k2="-1" k3="1"/>
<feColorMatrix type="matrix" values="0 0 0 0 0 0 0 0 0 0 0 0 0 0 0 0 0 0 0.2 0"/>
<feBlend mode="normal" in2="shape" result="effect1_innerShadow"/>
</filter>
<filter id="filter7_d" x="296" y="211" width="93" height="50" filterUnits="userSpaceOnUse" color-interpolation-filters="sRGB">
<feFlood flood-opacity="0" result="BackgroundImageFix"/>
<feColorMatrix in="SourceAlpha" type="matrix" values="0 0 0 0 0 0 0 0 0 0 0 0 0 0 0 0 0 0 127 0"/>
<feOffset dx="4" dy="4"/>
<feGaussianBlur stdDeviation="2"/>
<feColorMatrix type="matrix" values="0 0 0 0 0 0 0 0 0 0 0 0 0 0 0 0 0 0 0.25 0"/>
<feBlend mode="normal" in2="BackgroundImageFix" result="effect1_dropShadow"/>
<feBlend mode="normal" in="SourceGraphic" in2="effect1_dropShadow" result="shape"/>
</filter>
<filter id="filter8_d" x="214" y="296" width="93" height="50" filterUnits="userSpaceOnUse" color-interpolation-filters="sRGB">
<feFlood flood-opacity="0" result="BackgroundImageFix"/>
<feColorMatrix in="SourceAlpha" type="matrix" values="0 0 0 0 0 0 0 0 0 0 0 0 0 0 0 0 0 0 127 0"/>
<feOffset dx="4" dy="4"/>
<feGaussianBlur stdDeviation="2"/>
<feColorMatrix type="matrix" values="0 0 0 0 0 0 0 0 0 0 0 0 0 0 0 0 0 0 0.25 0"/>
<feBlend mode="normal" in2="BackgroundImageFix" result="effect1_dropShadow"/>
<feBlend mode="normal" in="SourceGraphic" in2="effect1_dropShadow" result="shape"/>
</filter>
<linearGradient id="paint0_linear" x1="220" y1="164" x2="220" y2="204" gradientUnits="userSpaceOnUse">
<stop stop-color="white"/>
<stop offset="1" stop-color="white" stop-opacity="0"/>
</linearGradient>
<linearGradient id="paint1_linear" x1="195" y1="148.5" x2="247" y2="148.5" gradientUnits="userSpaceOnUse">
<stop offset="0.572917" stop-color="#6D6AFD"/>
</linearGradient>
<linearGradient id="paint2_linear" x1="338" y1="244" x2="338" y2="284" gradientUnits="userSpaceOnUse">
<stop stop-color="white"/>
<stop offset="1" stop-color="white" stop-opacity="0"/>
</linearGradient>
<linearGradient id="paint3_linear" x1="256" y1="329" x2="256" y2="369" gradientUnits="userSpaceOnUse">
<stop stop-color="white"/>
<stop offset="1" stop-color="white" stop-opacity="0"/>
</linearGradient>
<linearGradient id="paint4_linear" x1="313" y1="228.5" x2="365" y2="228.5" gradientUnits="userSpaceOnUse">
<stop offset="0.572917" stop-color="#6D6AFD"/>
</linearGradient>
<linearGradient id="paint5_linear" x1="231" y1="313.5" x2="283" y2="313.5" gradientUnits="userSpaceOnUse">
<stop offset="0.572917" stop-color="#6D6AFD"/>
</linearGradient>
</defs>
</svg>
