<svg width="471" height="369" viewBox="0 0 471 369" fill="none" xmlns="http://www.w3.org/2000/svg">
<path d="M214.454 1.99609H210.464V13H208.258V1.99609H204.303V0.203125H214.454V1.99609ZM222.464 8.06934H219.985V13H217.762V0.203125H222.262C223.738 0.203125 224.878 0.53418 225.681 1.19629C226.484 1.8584 226.885 2.81641 226.885 4.07031C226.885 4.92578 226.677 5.64355 226.261 6.22363C225.851 6.79785 225.276 7.24023 224.538 7.55078L227.412 12.8857V13H225.03L222.464 8.06934ZM219.985 6.28516H222.271C223.021 6.28516 223.607 6.09766 224.028 5.72266C224.45 5.3418 224.661 4.82324 224.661 4.16699C224.661 3.48145 224.465 2.95117 224.072 2.57617C223.686 2.20117 223.106 2.00781 222.332 1.99609H219.985V6.28516ZM239.975 0.203125V8.75488C239.975 10.1143 239.538 11.1924 238.665 11.9893C237.798 12.7803 236.641 13.1758 235.193 13.1758C233.729 13.1758 232.565 12.7861 231.704 12.0068C230.843 11.2217 230.412 10.1348 230.412 8.74609V0.203125H232.627V8.76367C232.627 9.61914 232.844 10.2725 233.277 10.7236C233.711 11.1748 234.35 11.4004 235.193 11.4004C236.904 11.4004 237.76 10.498 237.76 8.69336V0.203125H239.975ZM250.665 9.7041C250.665 9.1416 250.466 8.70801 250.067 8.40332C249.675 8.09863 248.963 7.79102 247.932 7.48047C246.9 7.16992 246.08 6.82422 245.471 6.44336C244.305 5.71094 243.722 4.75586 243.722 3.57812C243.722 2.54688 244.141 1.69727 244.978 1.0293C245.822 0.361328 246.915 0.0273438 248.257 0.0273438C249.147 0.0273438 249.941 0.191406 250.639 0.519531C251.336 0.847656 251.884 1.31641 252.282 1.92578C252.681 2.5293 252.88 3.2002 252.88 3.93848H250.665C250.665 3.27051 250.454 2.74902 250.032 2.37402C249.616 1.99316 249.018 1.80273 248.239 1.80273C247.513 1.80273 246.947 1.95801 246.543 2.26855C246.144 2.5791 245.945 3.0127 245.945 3.56934C245.945 4.03809 246.162 4.43066 246.596 4.74707C247.029 5.05762 247.744 5.3623 248.74 5.66113C249.736 5.9541 250.536 6.29102 251.14 6.67188C251.743 7.04688 252.185 7.48047 252.467 7.97266C252.748 8.45898 252.889 9.03027 252.889 9.68652C252.889 10.7529 252.478 11.6025 251.658 12.2354C250.844 12.8623 249.736 13.1758 248.336 13.1758C247.41 13.1758 246.558 13.0059 245.778 12.666C245.005 12.3203 244.401 11.8457 243.968 11.2422C243.54 10.6387 243.326 9.93555 243.326 9.13281H245.55C245.55 9.85938 245.79 10.4219 246.27 10.8203C246.751 11.2188 247.439 11.418 248.336 11.418C249.109 11.418 249.689 11.2627 250.076 10.9521C250.469 10.6357 250.665 10.2197 250.665 9.7041ZM265.706 1.99609H261.716V13H259.51V1.99609H255.554V0.203125H265.706V1.99609Z" fill="#313144"/>
<path d="M17.9893 364.704C17.9893 364.142 17.79 363.708 17.3916 363.403C16.999 363.099 16.2871 362.791 15.2559 362.48C14.2246 362.17 13.4043 361.824 12.7949 361.443C11.6289 360.711 11.0459 359.756 11.0459 358.578C11.0459 357.547 11.4648 356.697 12.3027 356.029C13.1465 355.361 14.2393 355.027 15.5811 355.027C16.4717 355.027 17.2656 355.191 17.9629 355.52C18.6602 355.848 19.208 356.316 19.6064 356.926C20.0049 357.529 20.2041 358.2 20.2041 358.938H17.9893C17.9893 358.271 17.7783 357.749 17.3564 357.374C16.9404 356.993 16.3428 356.803 15.5635 356.803C14.8369 356.803 14.2715 356.958 13.8672 357.269C13.4688 357.579 13.2695 358.013 13.2695 358.569C13.2695 359.038 13.4863 359.431 13.9199 359.747C14.3535 360.058 15.0684 360.362 16.0645 360.661C17.0605 360.954 17.8604 361.291 18.4639 361.672C19.0674 362.047 19.5098 362.48 19.791 362.973C20.0723 363.459 20.2129 364.03 20.2129 364.687C20.2129 365.753 19.8027 366.603 18.9824 367.235C18.168 367.862 17.0605 368.176 15.6602 368.176C14.7344 368.176 13.8818 368.006 13.1025 367.666C12.3291 367.32 11.7256 366.846 11.292 366.242C10.8643 365.639 10.6504 364.936 10.6504 364.133H12.874C12.874 364.859 13.1143 365.422 13.5947 365.82C14.0752 366.219 14.7637 366.418 15.6602 366.418C16.4336 366.418 17.0137 366.263 17.4004 365.952C17.793 365.636 17.9893 365.22 17.9893 364.704ZM26.0077 363.245V368H23.7841V355.203H28.6796C30.1093 355.203 31.243 355.575 32.0809 356.319C32.9247 357.063 33.3466 358.048 33.3466 359.272C33.3466 360.526 32.9335 361.502 32.1073 362.199C31.287 362.896 30.1356 363.245 28.6532 363.245H26.0077ZM26.0077 361.461H28.6796C29.4706 361.461 30.0741 361.276 30.4901 360.907C30.9061 360.532 31.1141 359.993 31.1141 359.29C31.1141 358.599 30.9032 358.048 30.4813 357.638C30.0595 357.222 29.4794 357.008 28.7411 356.996H26.0077V361.461ZM44.3972 362.287H39.1414V366.225H45.2849V368H36.9177V355.203H45.2234V356.996H39.1414V360.529H44.3972V362.287ZM56.195 362.287H50.9391V366.225H57.0827V368H48.7155V355.203H57.0211V356.996H50.9391V360.529H56.195V362.287ZM60.5132 368V355.203H64.2925C65.4234 355.203 66.4253 355.455 67.2984 355.959C68.1773 356.463 68.857 357.178 69.3374 358.104C69.8179 359.029 70.0581 360.09 70.0581 361.285V361.927C70.0581 363.14 69.815 364.206 69.3286 365.126C68.8482 366.046 68.1597 366.755 67.2632 367.253C66.3726 367.751 65.3501 368 64.1958 368H60.5132ZM62.7368 356.996V366.225H64.187C65.353 366.225 66.2466 365.861 66.8677 365.135C67.4946 364.402 67.814 363.354 67.8257 361.988V361.276C67.8257 359.888 67.5239 358.827 66.9204 358.095C66.3169 357.362 65.4409 356.996 64.2925 356.996H62.7368Z" fill="#313144"/>
<g filter="url(#filter0_d)">
<path d="M227.446 30.9443C231.442 25.5139 239.558 25.5139 243.554 30.9443L458.905 323.573C463.764 330.176 459.049 339.5 450.851 339.5H20.1492C11.9505 339.5 7.2356 330.176 12.0951 323.573L227.446 30.9443Z" fill="white"/>
<path d="M243.151 31.2407L458.502 323.869C463.119 330.142 458.639 339 450.851 339H20.1492C12.3605 339 7.88128 330.142 12.4978 323.869L227.849 31.2407C231.645 26.0817 239.355 26.0817 243.151 31.2407Z" stroke="#8F00FF"/>
</g>
<path d="M313.844 363.834C313.715 365.199 313.211 366.266 312.332 367.033C311.454 367.795 310.285 368.176 308.826 368.176C307.806 368.176 306.907 367.936 306.127 367.455C305.354 366.969 304.756 366.28 304.334 365.39C303.913 364.499 303.693 363.465 303.675 362.287V361.092C303.675 359.885 303.889 358.821 304.317 357.901C304.745 356.981 305.357 356.272 306.154 355.774C306.956 355.276 307.882 355.027 308.931 355.027C310.343 355.027 311.48 355.411 312.341 356.179C313.203 356.946 313.704 358.03 313.844 359.431H311.629C311.524 358.511 311.254 357.849 310.821 357.444C310.393 357.034 309.763 356.829 308.931 356.829C307.964 356.829 307.22 357.184 306.699 357.893C306.183 358.596 305.919 359.63 305.908 360.995V362.129C305.908 363.512 306.154 364.566 306.646 365.293C307.144 366.02 307.871 366.383 308.826 366.383C309.699 366.383 310.355 366.187 310.794 365.794C311.234 365.401 311.512 364.748 311.629 363.834H313.844ZM327.672 361.936C327.672 363.189 327.455 364.291 327.022 365.24C326.588 366.184 325.967 366.91 325.159 367.42C324.356 367.924 323.43 368.176 322.381 368.176C321.344 368.176 320.418 367.924 319.604 367.42C318.795 366.91 318.168 366.187 317.723 365.249C317.284 364.312 317.061 363.23 317.055 362.006V361.285C317.055 360.037 317.275 358.936 317.714 357.98C318.159 357.025 318.784 356.296 319.586 355.792C320.395 355.282 321.321 355.027 322.364 355.027C323.407 355.027 324.329 355.279 325.132 355.783C325.941 356.281 326.565 357.002 327.004 357.945C327.444 358.883 327.666 359.976 327.672 361.224V361.936ZM325.449 361.268C325.449 359.85 325.179 358.763 324.64 358.007C324.107 357.251 323.348 356.873 322.364 356.873C321.403 356.873 320.65 357.251 320.105 358.007C319.566 358.757 319.29 359.82 319.279 361.197V361.936C319.279 363.342 319.551 364.429 320.096 365.196C320.647 365.964 321.409 366.348 322.381 366.348C323.366 366.348 324.121 365.973 324.649 365.223C325.182 364.473 325.449 363.377 325.449 361.936V361.268ZM334.39 355.203L338.081 365.012L341.764 355.203H344.638V368H342.423V363.781L342.643 358.139L338.863 368H337.273L333.502 358.147L333.722 363.781V368H331.507V355.203H334.39ZM351.118 363.245V368H348.895V355.203H353.79C355.22 355.203 356.354 355.575 357.191 356.319C358.035 357.063 358.457 358.048 358.457 359.272C358.457 360.526 358.044 361.502 357.218 362.199C356.398 362.896 355.246 363.245 353.764 363.245H351.118ZM351.118 361.461H353.79C354.581 361.461 355.185 361.276 355.601 360.907C356.017 360.532 356.225 359.993 356.225 359.29C356.225 358.599 356.014 358.048 355.592 357.638C355.17 357.222 354.59 357.008 353.852 356.996H351.118V361.461ZM372.241 361.936C372.241 363.189 372.024 364.291 371.591 365.24C371.157 366.184 370.536 366.91 369.727 367.42C368.925 367.924 367.999 368.176 366.95 368.176C365.913 368.176 364.987 367.924 364.173 367.42C363.364 366.91 362.737 366.187 362.292 365.249C361.852 364.312 361.63 363.23 361.624 362.006V361.285C361.624 360.037 361.844 358.936 362.283 357.98C362.728 357.025 363.352 356.296 364.155 355.792C364.964 355.282 365.89 355.027 366.933 355.027C367.976 355.027 368.898 355.279 369.701 355.783C370.51 356.281 371.134 357.002 371.573 357.945C372.013 358.883 372.235 359.976 372.241 361.224V361.936ZM370.018 361.268C370.018 359.85 369.748 358.763 369.209 358.007C368.676 357.251 367.917 356.873 366.933 356.873C365.972 356.873 365.219 357.251 364.674 358.007C364.135 358.757 363.859 359.82 363.848 361.197V361.936C363.848 363.342 364.12 364.429 364.665 365.196C365.216 365.964 365.977 366.348 366.95 366.348C367.935 366.348 368.69 365.973 369.218 365.223C369.751 364.473 370.018 363.377 370.018 361.936V361.268ZM382.764 364.704C382.764 364.142 382.565 363.708 382.167 363.403C381.774 363.099 381.062 362.791 380.031 362.48C379 362.17 378.18 361.824 377.57 361.443C376.404 360.711 375.821 359.756 375.821 358.578C375.821 357.547 376.24 356.697 377.078 356.029C377.922 355.361 379.014 355.027 380.356 355.027C381.247 355.027 382.041 355.191 382.738 355.52C383.435 355.848 383.983 356.316 384.382 356.926C384.78 357.529 384.979 358.2 384.979 358.938H382.764C382.764 358.271 382.554 357.749 382.132 357.374C381.716 356.993 381.118 356.803 380.339 356.803C379.612 356.803 379.047 356.958 378.642 357.269C378.244 357.579 378.045 358.013 378.045 358.569C378.045 359.038 378.262 359.431 378.695 359.747C379.129 360.058 379.844 360.362 380.84 360.661C381.836 360.954 382.636 361.291 383.239 361.672C383.843 362.047 384.285 362.48 384.566 362.973C384.847 363.459 384.988 364.03 384.988 364.687C384.988 365.753 384.578 366.603 383.758 367.235C382.943 367.862 381.836 368.176 380.435 368.176C379.51 368.176 378.657 368.006 377.878 367.666C377.104 367.32 376.501 366.846 376.067 366.242C375.639 365.639 375.426 364.936 375.426 364.133H377.649C377.649 364.859 377.889 365.422 378.37 365.82C378.85 366.219 379.539 366.418 380.435 366.418C381.209 366.418 381.789 366.263 382.176 365.952C382.568 365.636 382.764 365.22 382.764 364.704ZM395.722 365.021H390.765L389.728 368H387.417L392.251 355.203H394.246L399.089 368H396.768L395.722 365.021ZM391.389 363.228H395.098L393.244 357.919L391.389 363.228ZM402.168 368V355.203H406.553C408.001 355.203 409.102 355.493 409.858 356.073C410.614 356.653 410.992 357.518 410.992 358.666C410.992 359.252 410.834 359.779 410.517 360.248C410.201 360.717 409.738 361.08 409.129 361.338C409.82 361.525 410.353 361.88 410.728 362.401C411.109 362.917 411.299 363.538 411.299 364.265C411.299 365.466 410.913 366.389 410.139 367.033C409.372 367.678 408.27 368 406.835 368H402.168ZM404.391 362.226V366.225H406.861C407.558 366.225 408.103 366.052 408.496 365.706C408.888 365.36 409.085 364.88 409.085 364.265C409.085 362.935 408.405 362.255 407.046 362.226H404.391ZM404.391 360.591H406.571C407.262 360.591 407.801 360.436 408.188 360.125C408.581 359.809 408.777 359.363 408.777 358.789C408.777 358.156 408.595 357.699 408.232 357.418C407.875 357.137 407.315 356.996 406.553 356.996H404.391V360.591ZM417.49 368H415.275V355.203H417.49V368ZM424.067 366.225H429.876V368H421.843V355.203H424.067V366.225ZM435.548 368H433.333V355.203H435.548V368ZM448.884 356.996H444.894V368H442.688V356.996H438.733V355.203H448.884V356.996ZM456.507 361.268L459.451 355.203H461.912L457.623 363.289V368H455.391V363.289L451.093 355.203H453.562L456.507 361.268Z" fill="#313144"/>
<path d="M165.777 244.711C166.826 244.711 167.677 243.766 167.677 242.6C167.677 241.434 166.826 240.488 165.777 240.488C164.728 240.488 163.877 241.434 163.877 242.6C163.877 243.766 164.728 244.711 165.777 244.711Z" fill="#B4B3FD"/>
<path d="M194.701 242.178C195.867 242.178 196.812 241.232 196.812 240.066C196.812 238.9 195.867 237.955 194.701 237.955C193.535 237.955 192.589 238.9 192.589 240.066C192.589 241.232 193.535 242.178 194.701 242.178Z" fill="#B4B3FD"/>
<path d="M203.146 254.423C204.312 254.423 205.257 253.477 205.257 252.311C205.257 251.145 204.312 250.2 203.146 250.2C201.98 250.2 201.035 251.145 201.035 252.311C201.035 253.477 201.98 254.423 203.146 254.423Z" fill="#B4B3FD"/>
<path d="M228.058 245.555C229.224 245.555 230.17 244.609 230.17 243.443C230.17 242.277 229.224 241.332 228.058 241.332C226.892 241.332 225.947 242.277 225.947 243.443C225.947 244.609 226.892 245.555 228.058 245.555Z" fill="#5F5CFE"/>
<path d="M167.255 180.952C168.421 180.952 169.366 180.007 169.366 178.841C169.366 177.675 168.421 176.729 167.255 176.729C166.089 176.729 165.144 177.675 165.144 178.841C165.144 180.007 166.089 180.952 167.255 180.952Z" fill="#B4B3FD"/>
<path d="M169.577 207.553C171.327 207.553 172.744 206.135 172.744 204.386C172.744 202.637 171.327 201.219 169.577 201.219C167.828 201.219 166.411 202.637 166.411 204.386C166.411 206.135 167.828 207.553 169.577 207.553Z" fill="#B4B3FD"/>
<path d="M222.358 237.956C223.874 237.956 225.103 236.727 225.103 235.211C225.103 233.695 223.874 232.466 222.358 232.466C220.843 232.466 219.614 233.695 219.614 235.211C219.614 236.727 220.843 237.956 222.358 237.956Z" fill="#5F5CFE"/>
<path d="M167.888 270.468C169.404 270.468 170.633 269.334 170.633 267.935C170.633 266.536 169.404 265.401 167.888 265.401C166.372 265.401 165.144 266.536 165.144 267.935C165.144 269.334 166.372 270.468 167.888 270.468Z" fill="#B4B3FD"/>
<path d="M188.789 256.535C190.422 256.535 191.745 255.211 191.745 253.579C191.745 251.946 190.422 250.623 188.789 250.623C187.157 250.623 185.833 251.946 185.833 253.579C185.833 255.211 187.157 256.535 188.789 256.535Z" fill="#5F5CFE"/>
<path d="M220.036 278.912C221.668 278.912 222.992 277.589 222.992 275.957C222.992 274.324 221.668 273.001 220.036 273.001C218.403 273.001 217.08 274.324 217.08 275.957C217.08 277.589 218.403 278.912 220.036 278.912Z" fill="#B4B3FD"/>
<path d="M211.591 266.668C212.99 266.668 214.124 265.534 214.124 264.135C214.124 262.735 212.99 261.601 211.591 261.601C210.191 261.601 209.057 262.735 209.057 264.135C209.057 265.534 210.191 266.668 211.591 266.668Z" fill="#B4B3FD"/>
<path d="M176.333 283.558C178.315 283.558 179.922 281.951 179.922 279.968C179.922 277.986 178.315 276.379 176.333 276.379C174.351 276.379 172.744 277.986 172.744 279.968C172.744 281.951 174.351 283.558 176.333 283.558Z" fill="#5F5CFE"/>
<path d="M190.478 196.152C193.51 196.152 195.968 193.695 195.968 190.663C195.968 187.631 193.51 185.174 190.478 185.174C187.447 185.174 184.989 187.631 184.989 190.663C184.989 193.695 187.447 196.152 190.478 196.152Z" fill="#5F5CFE"/>
<path d="M182.034 183.063C185.298 183.063 187.945 180.417 187.945 177.152C187.945 173.887 185.298 171.24 182.034 171.24C178.769 171.24 176.122 173.887 176.122 177.152C176.122 180.417 178.769 183.063 182.034 183.063Z" fill="#5F5CFE"/>
<path d="M184.145 209.242C186.943 209.242 189.212 206.974 189.212 204.175C189.212 201.377 186.943 199.108 184.145 199.108C181.347 199.108 179.078 201.377 179.078 204.175C179.078 206.974 181.347 209.242 184.145 209.242Z" fill="#5F5CFE"/>
<path d="M198.712 207.131C201.627 207.131 203.99 204.768 203.99 201.853C203.99 198.938 201.627 196.575 198.712 196.575C195.797 196.575 193.434 198.938 193.434 201.853C193.434 204.768 195.797 207.131 198.712 207.131Z" fill="#5F5CFE"/>
<path d="M178.233 221.488C181.032 221.488 183.3 219.125 183.3 216.21C183.3 213.295 181.032 210.932 178.233 210.932C175.435 210.932 173.167 213.295 173.167 216.21C173.167 219.125 175.435 221.488 178.233 221.488Z" fill="#5F5CFE"/>
<path d="M192.59 219.798C195.388 219.798 197.657 217.624 197.657 214.942C197.657 212.26 195.388 210.086 192.59 210.086C189.792 210.086 187.523 212.26 187.523 214.942C187.523 217.624 189.792 219.798 192.59 219.798Z" fill="#5F5CFE"/>
<path d="M207.368 218.11C209.7 218.11 211.591 216.125 211.591 213.677C211.591 211.228 209.7 209.243 207.368 209.243C205.036 209.243 203.146 211.228 203.146 213.677C203.146 216.125 205.036 218.11 207.368 218.11Z" fill="#5F5CFE"/>
<path d="M201.034 231.198C203.366 231.198 205.257 229.308 205.257 226.976C205.257 224.644 203.366 222.753 201.034 222.753C198.702 222.753 196.812 224.644 196.812 226.976C196.812 229.308 198.702 231.198 201.034 231.198Z" fill="#5F5CFE"/>
<path d="M186.256 232.465C188.588 232.465 190.479 230.575 190.479 228.243C190.479 225.911 188.588 224.021 186.256 224.021C183.924 224.021 182.034 225.911 182.034 228.243C182.034 230.575 183.924 232.465 186.256 232.465Z" fill="#5F5CFE"/>
<path d="M180.133 246.4C182.815 246.4 184.989 244.226 184.989 241.544C184.989 238.863 182.815 236.688 180.133 236.688C177.451 236.688 175.277 238.863 175.277 241.544C175.277 244.226 177.451 246.4 180.133 246.4Z" fill="#5F5CFE"/>
<path d="M174.011 259.067C176.343 259.067 178.234 257.082 178.234 254.634C178.234 252.185 176.343 250.2 174.011 250.2C171.679 250.2 169.789 252.185 169.789 254.634C169.789 257.082 171.679 259.067 174.011 259.067Z" fill="#5F5CFE"/>
<path d="M217.713 255.689C220.395 255.689 222.569 253.515 222.569 250.833C222.569 248.152 220.395 245.978 217.713 245.978C215.031 245.978 212.857 248.152 212.857 250.833C212.857 253.515 215.031 255.689 217.713 255.689Z" fill="#5F5CFE"/>
<path d="M209.268 243.866C211.95 243.866 214.124 241.692 214.124 239.011C214.124 236.329 211.95 234.155 209.268 234.155C206.587 234.155 204.413 236.329 204.413 239.011C204.413 241.692 206.587 243.866 209.268 243.866Z" fill="#5F5CFE"/>
<path d="M182.245 271.736C184.927 271.736 187.101 269.562 187.101 266.88C187.101 264.198 184.927 262.024 182.245 262.024C179.563 262.024 177.389 264.198 177.389 266.88C177.389 269.562 179.563 271.736 182.245 271.736Z" fill="#5F5CFE"/>
<path d="M171.689 232.889C173.671 232.889 175.278 231.282 175.278 229.3C175.278 227.317 173.671 225.71 171.689 225.71C169.707 225.71 168.1 227.317 168.1 229.3C168.1 231.282 169.707 232.889 171.689 232.889Z" fill="#5F5CFE"/>
<path d="M215.602 229.088C217.584 229.088 219.191 227.481 219.191 225.499C219.191 223.517 217.584 221.91 215.602 221.91C213.62 221.91 212.013 223.517 212.013 225.499C212.013 227.481 213.62 229.088 215.602 229.088Z" fill="#5F5CFE"/>
<path d="M175.911 196.152C178.826 196.152 181.189 193.789 181.189 190.874C181.189 187.959 178.826 185.596 175.911 185.596C172.996 185.596 170.633 187.959 170.633 190.874C170.633 193.789 172.996 196.152 175.911 196.152Z" fill="#5F5CFE"/>
<path d="M303.219 244.711C304.385 244.711 305.33 243.766 305.33 242.6C305.33 241.434 304.385 240.488 303.219 240.488C302.053 240.488 301.107 241.434 301.107 242.6C301.107 243.766 302.053 244.711 303.219 244.711Z" fill="#B4B3FD"/>
<path d="M274.083 242.178C275.249 242.178 276.195 241.232 276.195 240.066C276.195 238.9 275.249 237.955 274.083 237.955C272.917 237.955 271.972 238.9 271.972 240.066C271.972 241.232 272.917 242.178 274.083 242.178Z" fill="#B4B3FD"/>
<path d="M265.639 254.423C266.805 254.423 267.75 253.477 267.75 252.311C267.75 251.145 266.805 250.2 265.639 250.2C264.473 250.2 263.527 251.145 263.527 252.311C263.527 253.477 264.473 254.423 265.639 254.423Z" fill="#B4B3FD"/>
<path d="M241.148 245.555C242.314 245.555 243.26 244.609 243.26 243.443C243.26 242.277 242.314 241.332 241.148 241.332C239.982 241.332 239.037 242.277 239.037 243.443C239.037 244.609 239.982 245.555 241.148 245.555Z" fill="#5F5CFE"/>
<path d="M302.374 181.797C303.54 181.797 304.485 180.851 304.485 179.685C304.485 178.519 303.54 177.574 302.374 177.574C301.208 177.574 300.263 178.519 300.263 179.685C300.263 180.851 301.208 181.797 302.374 181.797Z" fill="#B4B3FD"/>
<path d="M299.418 207.553C301.284 207.553 302.796 206.135 302.796 204.386C302.796 202.637 301.284 201.219 299.418 201.219C297.553 201.219 296.041 202.637 296.041 204.386C296.041 206.135 297.553 207.553 299.418 207.553Z" fill="#B4B3FD"/>
<path d="M246.848 237.956C248.364 237.956 249.593 236.727 249.593 235.211C249.593 233.695 248.364 232.466 246.848 232.466C245.332 232.466 244.104 233.695 244.104 235.211C244.104 236.727 245.332 237.956 246.848 237.956Z" fill="#5F5CFE"/>
<path d="M301.107 270.468C302.506 270.468 303.641 269.334 303.641 267.935C303.641 266.536 302.506 265.401 301.107 265.401C299.708 265.401 298.574 266.536 298.574 267.935C298.574 269.334 299.708 270.468 301.107 270.468Z" fill="#B4B3FD"/>
<path d="M280.417 256.535C282.05 256.535 283.373 255.211 283.373 253.579C283.373 251.946 282.05 250.623 280.417 250.623C278.785 250.623 277.461 251.946 277.461 253.579C277.461 255.211 278.785 256.535 280.417 256.535Z" fill="#5F5CFE"/>
<path d="M249.171 278.912C250.803 278.912 252.127 277.589 252.127 275.957C252.127 274.324 250.803 273.001 249.171 273.001C247.539 273.001 246.215 274.324 246.215 275.957C246.215 277.589 247.539 278.912 249.171 278.912Z" fill="#B4B3FD"/>
<path d="M257.404 266.668C258.687 266.668 259.727 265.534 259.727 264.135C259.727 262.735 258.687 261.601 257.404 261.601C256.122 261.601 255.082 262.735 255.082 264.135C255.082 265.534 256.122 266.668 257.404 266.668Z" fill="#B4B3FD"/>
<path d="M292.662 283.558C294.528 283.558 296.04 281.951 296.04 279.968C296.04 277.986 294.528 276.379 292.662 276.379C290.797 276.379 289.284 277.986 289.284 279.968C289.284 281.951 290.797 283.558 292.662 283.558Z" fill="#5F5CFE"/>
<path d="M278.728 196.152C281.76 196.152 284.218 193.695 284.218 190.663C284.218 187.631 281.76 185.174 278.728 185.174C275.697 185.174 273.239 187.631 273.239 190.663C273.239 193.695 275.697 196.152 278.728 196.152Z" fill="#5F5CFE"/>
<path d="M287.173 183.063C290.438 183.063 293.085 180.417 293.085 177.152C293.085 173.887 290.438 171.24 287.173 171.24C283.908 171.24 281.262 173.887 281.262 177.152C281.262 180.417 283.908 183.063 287.173 183.063Z" fill="#5F5CFE"/>
<path d="M284.851 209.242C287.766 209.242 290.129 206.974 290.129 204.175C290.129 201.377 287.766 199.108 284.851 199.108C281.936 199.108 279.573 201.377 279.573 204.175C279.573 206.974 281.936 209.242 284.851 209.242Z" fill="#5F5CFE"/>
<path d="M270.283 207.131C273.315 207.131 275.772 204.768 275.772 201.853C275.772 198.938 273.315 196.575 270.283 196.575C267.252 196.575 264.794 198.938 264.794 201.853C264.794 204.768 267.252 207.131 270.283 207.131Z" fill="#5F5CFE"/>
<path d="M290.973 221.488C293.772 221.488 296.04 219.125 296.04 216.21C296.04 213.295 293.772 210.932 290.973 210.932C288.175 210.932 285.906 213.295 285.906 216.21C285.906 219.125 288.175 221.488 290.973 221.488Z" fill="#5F5CFE"/>
<path d="M276.406 219.798C279.087 219.798 281.261 217.624 281.261 214.942C281.261 212.26 279.087 210.086 276.406 210.086C273.724 210.086 271.55 212.26 271.55 214.942C271.55 217.624 273.724 219.798 276.406 219.798Z" fill="#5F5CFE"/>
<path d="M261.838 218.11C264.17 218.11 266.061 216.125 266.061 213.677C266.061 211.228 264.17 209.243 261.838 209.243C259.506 209.243 257.616 211.228 257.616 213.677C257.616 216.125 259.506 218.11 261.838 218.11Z" fill="#5F5CFE"/>
<path d="M267.961 231.198C270.41 231.198 272.395 229.308 272.395 226.976C272.395 224.644 270.41 222.753 267.961 222.753C265.512 222.753 263.527 224.644 263.527 226.976C263.527 229.308 265.512 231.198 267.961 231.198Z" fill="#5F5CFE"/>
<path d="M282.528 232.465C284.86 232.465 286.751 230.575 286.751 228.243C286.751 225.911 284.86 224.021 282.528 224.021C280.196 224.021 278.306 225.911 278.306 228.243C278.306 230.575 280.196 232.465 282.528 232.465Z" fill="#5F5CFE"/>
<path d="M288.651 246.4C291.333 246.4 293.507 244.226 293.507 241.544C293.507 238.863 291.333 236.688 288.651 236.688C285.969 236.688 283.795 238.863 283.795 241.544C283.795 244.226 285.969 246.4 288.651 246.4Z" fill="#5F5CFE"/>
<path d="M294.985 259.067C297.433 259.067 299.418 257.082 299.418 254.634C299.418 252.185 297.433 250.2 294.985 250.2C292.536 250.2 290.551 252.185 290.551 254.634C290.551 257.082 292.536 259.067 294.985 259.067Z" fill="#5F5CFE"/>
<path d="M251.071 255.689C253.753 255.689 255.927 253.515 255.927 250.833C255.927 248.152 253.753 245.978 251.071 245.978C248.389 245.978 246.215 248.152 246.215 250.833C246.215 253.515 248.389 255.689 251.071 255.689Z" fill="#5F5CFE"/>
<path d="M259.516 243.866C262.198 243.866 264.372 241.692 264.372 239.011C264.372 236.329 262.198 234.155 259.516 234.155C256.834 234.155 254.66 236.329 254.66 239.011C254.66 241.692 256.834 243.866 259.516 243.866Z" fill="#5F5CFE"/>
<path d="M286.54 271.736C289.222 271.736 291.396 269.562 291.396 266.88C291.396 264.198 289.222 262.024 286.54 262.024C283.858 262.024 281.684 264.198 281.684 266.88C281.684 269.562 283.858 271.736 286.54 271.736Z" fill="#5F5CFE"/>
<path d="M297.096 232.889C299.078 232.889 300.685 231.282 300.685 229.3C300.685 227.317 299.078 225.71 297.096 225.71C295.114 225.71 293.507 227.317 293.507 229.3C293.507 231.282 295.114 232.889 297.096 232.889Z" fill="#5F5CFE"/>
<path d="M253.604 229.088C255.586 229.088 257.193 227.481 257.193 225.499C257.193 223.517 255.586 221.91 253.604 221.91C251.622 221.91 250.015 223.517 250.015 225.499C250.015 227.481 251.622 229.088 253.604 229.088Z" fill="#5F5CFE"/>
<path d="M293.296 196.152C296.211 196.152 298.574 193.789 298.574 190.874C298.574 187.959 296.211 185.596 293.296 185.596C290.381 185.596 288.018 187.959 288.018 190.874C288.018 193.789 290.381 196.152 293.296 196.152Z" fill="#5F5CFE"/>
<path d="M234.392 256.112C236.724 256.112 238.615 254.222 238.615 251.89C238.615 249.558 236.724 247.667 234.392 247.667C232.06 247.667 230.17 249.558 230.17 251.89C230.17 254.222 232.06 256.112 234.392 256.112Z" fill="#5F5CFE"/>
<path d="M234.392 279.336C236.724 279.336 238.615 277.445 238.615 275.113C238.615 272.781 236.724 270.891 234.392 270.891C232.06 270.891 230.17 272.781 230.17 275.113C230.17 277.445 232.06 279.336 234.392 279.336Z" fill="#5F5CFE"/>
<path d="M225.948 267.089C228.28 267.089 230.17 265.199 230.17 262.867C230.17 260.535 228.28 258.645 225.948 258.645C223.616 258.645 221.725 260.535 221.725 262.867C221.725 265.199 223.616 267.089 225.948 267.089Z" fill="#5F5CFE"/>
<path d="M242.837 267.089C245.169 267.089 247.06 265.199 247.06 262.867C247.06 260.535 245.169 258.645 242.837 258.645C240.505 258.645 238.615 260.535 238.615 262.867C238.615 265.199 240.505 267.089 242.837 267.089Z" fill="#5F5CFE"/>
<path d="M228.27 289.892C229.319 289.892 230.17 289.041 230.17 287.991C230.17 286.942 229.319 286.091 228.27 286.091C227.22 286.091 226.37 286.942 226.37 287.991C226.37 289.041 227.22 289.892 228.27 289.892Z" fill="#EFEFEF"/>
<path d="M240.726 289.892C241.659 289.892 242.415 289.041 242.415 287.991C242.415 286.942 241.659 286.091 240.726 286.091C239.793 286.091 239.037 286.942 239.037 287.991C239.037 289.041 239.793 289.892 240.726 289.892Z" fill="#EFEFEF"/>
<defs>
<filter id="filter0_d" x="0.131348" y="21.8716" width="470.737" height="332.629" filterUnits="userSpaceOnUse" color-interpolation-filters="sRGB">
<feFlood flood-opacity="0" result="BackgroundImageFix"/>
<feColorMatrix in="SourceAlpha" type="matrix" values="0 0 0 0 0 0 0 0 0 0 0 0 0 0 0 0 0 0 127 0"/>
<feOffset dy="5"/>
<feGaussianBlur stdDeviation="5"/>
<feColorMatrix type="matrix" values="0 0 0 0 0.560784 0 0 0 0 0 0 0 0 0 1 0 0 0 0.1 0"/>
<feBlend mode="normal" in2="BackgroundImageFix" result="effect1_dropShadow"/>
<feBlend mode="normal" in="SourceGraphic" in2="effect1_dropShadow" result="shape"/>
</filter>
</defs>
</svg>
