<svg width="412" height="383" viewBox="0 0 412 383" fill="none" xmlns="http://www.w3.org/2000/svg">
<path d="M72 76.5L343 224.5" stroke="#FFA451"/>
<path d="M222 341.672L340 222.672" stroke="#FFA451"/>
<g filter="url(#filter0_di)">
<circle cx="340.5" cy="221" r="33.5" fill="#F5F5F5"/>
<circle cx="340.5" cy="221" r="33.5" fill="url(#paint0_linear)"/>
<circle cx="340.5" cy="221" r="33" stroke="#5551FF"/>
</g>
<g filter="url(#filter1_di)">
<circle cx="215.5" cy="334" r="33.5" fill="#F5F5F5"/>
<circle cx="215.5" cy="334" r="33.5" fill="url(#paint1_linear)"/>
<circle cx="215.5" cy="334" r="33" stroke="#5551FF"/>
</g>
<g filter="url(#filter2_di)">
<circle cx="70.5" cy="77" r="33.5" fill="#F5F5F5"/>
<circle cx="70.5" cy="77" r="33.5" fill="url(#paint2_linear)"/>
<circle cx="70.5" cy="77" r="33" stroke="#5551FF"/>
</g>
<path d="M327.022 216.544C326.065 216.551 325.33 215.853 325.332 214.941C325.334 214.017 326.059 213.346 327.068 213.336C328.044 213.326 328.76 213.986 328.773 214.908C328.787 215.848 328.05 216.537 327.022 216.544Z" fill="#5551FF"/>
<path d="M328.593 213.115C327.704 213.121 326.94 212.373 326.944 211.501C326.949 210.558 327.725 209.854 328.755 209.859C329.623 209.864 330.367 210.591 330.387 211.454C330.409 212.381 329.626 213.106 328.593 213.115Z" fill="#5551FF"/>
<path d="M351.373 211.094C350.394 211.101 349.702 210.446 349.7 209.508C349.698 208.549 350.411 207.888 351.45 207.883C352.376 207.879 353.096 208.56 353.114 209.46C353.131 210.393 352.393 211.085 351.373 211.094Z" fill="#5551FF"/>
<path d="M348.087 212.944C348.09 212.02 348.854 211.327 349.867 211.327C350.766 211.327 351.513 212.069 351.505 212.949C351.494 213.872 350.723 214.567 349.716 214.566C348.807 214.562 348.084 213.843 348.087 212.944Z" fill="#5551FF"/>
<path d="M326.442 209.899C325.534 209.903 324.835 209.249 324.825 208.39C324.813 207.498 325.592 206.799 326.585 206.809C327.441 206.819 328.113 207.505 328.111 208.366C328.108 209.29 327.448 209.896 326.442 209.899Z" fill="#5551FF"/>
<path d="M353.542 214.152C352.652 214.157 351.929 213.464 351.941 212.617C351.953 211.747 352.685 211.079 353.641 211.067C354.491 211.056 355.202 211.747 355.209 212.59C355.215 213.48 354.506 214.145 353.542 214.152Z" fill="#5551FF"/>
<path d="M351.913 217.569C351.006 217.567 350.375 216.941 350.38 216.049C350.385 215.167 351.076 214.538 352.038 214.538C352.906 214.538 353.598 215.222 353.588 216.071C353.576 216.939 352.871 217.57 351.913 217.569Z" fill="#5551FF"/>
<path d="M337.925 231.979C337.068 231.984 336.41 231.356 336.407 230.536C336.403 229.687 337.108 229.035 338.027 229.04C338.861 229.044 339.524 229.7 339.521 230.517C339.516 231.37 338.857 231.974 337.925 231.979Z" fill="#5551FF"/>
<path d="M346.717 216.375C346.726 215.558 347.372 214.978 348.271 214.983C349.04 214.988 349.675 215.635 349.664 216.404C349.654 217.209 348.982 217.807 348.099 217.795C347.319 217.787 346.709 217.161 346.717 216.375Z" fill="#5551FF"/>
<path d="M330.744 215.998C329.989 215.983 329.346 215.33 329.366 214.597C329.388 213.781 330.065 213.185 330.945 213.205C331.699 213.222 332.334 213.868 332.325 214.609C332.317 215.408 331.624 216.015 330.744 215.998Z" fill="#5551FF"/>
<path d="M341.685 231.553C340.895 231.548 340.293 230.96 340.293 230.196C340.293 229.401 340.941 228.797 341.802 228.791C342.582 228.785 343.216 229.416 343.207 230.191C343.199 231.008 342.583 231.558 341.685 231.553Z" fill="#5551FF"/>
<path d="M340.142 234.967C339.301 234.977 338.709 234.426 338.708 233.632C338.706 232.873 339.327 232.288 340.152 232.271C340.957 232.254 341.559 232.811 341.573 233.582C341.585 234.411 341.022 234.957 340.142 234.967Z" fill="#5551FF"/>
<path d="M325.422 219.702C324.621 219.706 324.044 219.165 324.038 218.405C324.033 217.617 324.669 217.027 325.52 217.033C326.256 217.038 326.889 217.676 326.877 218.401C326.865 219.138 326.238 219.699 325.422 219.702Z" fill="#5551FF"/>
<path d="M324.838 213.137C324.056 213.14 323.457 212.576 323.454 211.832C323.449 211.075 324.071 210.501 324.908 210.485C325.66 210.472 326.293 211.075 326.291 211.805C326.29 212.586 325.695 213.134 324.838 213.137Z" fill="#5551FF"/>
<path d="M346.615 218.548C347.342 218.544 347.944 219.114 347.949 219.813C347.956 220.548 347.316 221.137 346.52 221.133C345.811 221.13 345.202 220.531 345.205 219.84C345.209 219.128 345.836 218.553 346.615 218.548Z" fill="#5551FF"/>
<path d="M325.945 226.219C325.246 226.215 324.666 225.639 324.665 224.943C324.661 224.235 325.314 223.654 326.095 223.667C326.798 223.679 327.374 224.257 327.374 224.948C327.373 225.675 326.759 226.22 325.945 226.219Z" fill="#5551FF"/>
<path d="M353.073 230.445C352.328 230.442 351.752 229.877 351.767 229.166C351.784 228.448 352.381 227.918 353.169 227.921C353.928 227.925 354.461 228.46 354.451 229.207C354.441 229.959 353.895 230.449 353.073 230.445Z" fill="#5551FF"/>
<path d="M335.745 228.653C334.989 228.652 334.433 228.111 334.44 227.384C334.447 226.658 335.025 226.133 335.821 226.129C336.56 226.126 337.138 226.692 337.129 227.405C337.121 228.133 336.539 228.655 335.745 228.653Z" fill="#5551FF"/>
<path d="M330.569 218.034C330.574 218.784 329.991 219.32 329.173 219.315C328.478 219.311 327.88 218.716 327.892 218.041C327.902 217.338 328.526 216.774 329.285 216.776C329.996 216.777 330.566 217.333 330.569 218.034Z" fill="#5551FF"/>
<path d="M343.318 227.977C342.576 227.977 342.037 227.46 342.032 226.744C342.025 226.007 342.634 225.449 343.434 225.461C344.128 225.472 344.723 226.067 344.711 226.74C344.696 227.463 344.117 227.977 343.318 227.977Z" fill="#5551FF"/>
<path d="M343.648 223.22C343.672 222.498 344.259 222.011 345.077 222.033C345.79 222.053 346.353 222.642 346.317 223.329C346.28 224.057 345.642 224.587 344.849 224.55C344.145 224.518 343.624 223.941 343.648 223.22Z" fill="#5551FF"/>
<path d="M354.111 220.39C353.376 220.388 352.856 219.889 352.856 219.179C352.856 218.465 353.426 217.941 354.2 217.946C354.908 217.951 355.463 218.492 355.462 219.172C355.46 219.892 354.908 220.39 354.111 220.39Z" fill="#5551FF"/>
<path d="M353.837 222.625C353.831 223.326 353.226 223.863 352.467 223.842C351.79 223.824 351.241 223.263 351.255 222.606C351.268 221.929 351.848 221.426 352.607 221.431C353.31 221.438 353.842 221.955 353.837 222.625Z" fill="#5551FF"/>
<path d="M326.626 230.311C327.33 230.309 327.842 230.811 327.844 231.505C327.845 232.204 327.289 232.719 326.536 232.717C325.888 232.716 325.332 232.175 325.321 231.536C325.311 230.85 325.884 230.313 326.626 230.311Z" fill="#5551FF"/>
<path d="M334.836 224.255C334.844 224.955 334.292 225.475 333.54 225.473C332.909 225.473 332.358 224.948 332.339 224.329C332.317 223.648 332.883 223.108 333.633 223.092C334.302 223.077 334.829 223.587 334.836 224.255Z" fill="#5551FF"/>
<path d="M352.946 207.227C352.293 207.215 351.741 206.651 351.764 206.023C351.792 205.334 352.329 204.877 353.093 204.896C353.756 204.911 354.266 205.419 354.256 206.054C354.244 206.721 353.663 207.241 352.946 207.227Z" fill="#5551FF"/>
<path d="M324.391 229.505C323.735 229.507 323.223 229.032 323.213 228.415C323.204 227.791 323.76 227.266 324.441 227.257C325.08 227.249 325.623 227.781 325.612 228.408C325.604 229.032 325.079 229.505 324.391 229.505Z" fill="#5551FF"/>
<path d="M331.436 220.073C332.093 220.07 332.604 220.549 332.603 221.164C332.601 221.792 332.079 222.263 331.387 222.261C330.73 222.259 330.268 221.819 330.261 221.188C330.254 220.518 330.72 220.076 331.436 220.073Z" fill="#5551FF"/>
<path d="M350.36 220.611C349.757 220.635 349.214 220.135 349.202 219.543C349.189 218.916 349.706 218.423 350.391 218.409C350.986 218.397 351.496 218.865 351.53 219.453C351.564 220.062 351.037 220.584 350.36 220.611Z" fill="#5551FF"/>
<path d="M327.673 220.416C328.325 220.421 328.785 220.876 328.78 221.507C328.775 222.128 328.274 222.592 327.603 222.593C326.981 222.597 326.462 222.107 326.459 221.512C326.454 220.883 326.979 220.411 327.673 220.416Z" fill="#5551FF"/>
<path d="M333.096 216.62C333.681 216.628 334.186 217.13 334.191 217.706C334.194 218.32 333.638 218.833 332.982 218.822C332.359 218.811 331.873 218.318 331.882 217.71C331.89 217.068 332.402 216.611 333.096 216.62Z" fill="#5551FF"/>
<path d="M354.677 226.783C354.036 226.778 353.606 226.343 353.62 225.709C353.632 225.093 354.113 224.668 354.786 224.679C355.371 224.687 355.861 225.159 355.869 225.721C355.878 226.324 355.354 226.79 354.677 226.783Z" fill="#5551FF"/>
<path d="M355.129 210.183C354.541 210.173 354.108 209.733 354.12 209.153C354.132 208.558 354.611 208.13 355.252 208.142C355.82 208.154 356.284 208.626 356.272 209.177C356.257 209.769 355.774 210.193 355.129 210.183Z" fill="#5551FF"/>
<path d="M351.493 233.596C350.94 233.6 350.5 233.189 350.485 232.658C350.469 232.104 350.928 231.674 351.537 231.671C352.086 231.668 352.533 232.08 352.55 232.607C352.567 233.155 352.096 233.595 351.493 233.596Z" fill="#5551FF"/>
<path d="M323.802 222.765C323.272 222.76 322.839 222.335 322.847 221.825C322.856 221.28 323.313 220.87 323.901 220.886C324.408 220.899 324.832 221.315 324.839 221.808C324.848 222.347 324.389 222.77 323.802 222.765Z" fill="#5551FF"/>
<path d="M356.298 232.281C356.309 232.787 355.855 233.229 355.311 233.243C354.786 233.256 354.332 232.849 354.315 232.347C354.296 231.814 354.752 231.367 355.319 231.362C355.835 231.358 356.288 231.781 356.298 232.281Z" fill="#5551FF"/>
<path d="M324.042 234.904C324.07 234.396 324.516 234.031 325.071 234.06C325.577 234.087 325.966 234.488 325.951 234.967C325.935 235.485 325.461 235.898 324.914 235.866C324.406 235.837 324.015 235.404 324.042 234.904Z" fill="#5551FF"/>
<path d="M334.269 220.855C334.266 220.338 334.68 219.932 335.221 219.924C335.725 219.915 336.164 220.326 336.172 220.814C336.181 221.314 335.746 221.73 335.207 221.738C334.678 221.745 334.272 221.363 334.269 220.855Z" fill="#5551FF"/>
<path d="M339.545 227.963C339.023 227.954 338.619 227.552 338.626 227.052C338.634 226.551 339.089 226.147 339.623 226.167C340.116 226.186 340.529 226.593 340.525 227.059C340.522 227.56 340.077 227.971 339.545 227.963Z" fill="#5551FF"/>
<path d="M323.255 216.114C322.765 216.116 322.363 215.742 322.357 215.28C322.352 214.801 322.75 214.431 323.278 214.424C323.77 214.417 324.16 214.784 324.167 215.256C324.174 215.739 323.776 216.112 323.255 216.114Z" fill="#5551FF"/>
<path d="M351.823 226.078C351.816 226.564 351.405 226.939 350.897 226.922C350.436 226.907 350.052 226.526 350.051 226.085C350.049 225.604 350.45 225.222 350.961 225.22C351.444 225.218 351.829 225.602 351.823 226.078Z" fill="#5551FF"/>
<path d="M324.308 204.471C324.797 204.471 325.13 204.781 325.133 205.242C325.138 205.714 324.785 206.055 324.293 206.053C323.832 206.053 323.46 205.707 323.452 205.274C323.445 204.826 323.824 204.471 324.308 204.471Z" fill="#5551FF"/>
<path d="M328.184 228.825C327.731 228.821 327.385 228.492 327.379 228.061C327.374 227.634 327.753 227.285 328.227 227.281C328.664 227.278 329.025 227.626 329.029 228.054C329.03 228.494 328.664 228.828 328.184 228.825Z" fill="#5551FF"/>
<path d="M355.789 214.961C356.251 214.966 356.579 215.288 356.572 215.731C356.565 216.177 356.199 216.519 355.731 216.513C355.303 216.507 354.93 216.137 354.937 215.726C354.945 215.286 355.314 214.956 355.789 214.961Z" fill="#5551FF"/>
<path d="M336.384 233.203C336.835 233.207 337.177 233.543 337.166 233.971C337.156 234.399 336.815 234.709 336.351 234.709C335.879 234.709 335.553 234.407 335.551 233.966C335.548 233.514 335.892 233.198 336.384 233.203Z" fill="#5551FF"/>
<path d="M330.304 207.283C330.764 207.29 331.09 207.614 331.078 208.056C331.066 208.506 330.717 208.805 330.219 208.789C329.787 208.777 329.458 208.451 329.458 208.04C329.458 207.602 329.821 207.276 330.304 207.283Z" fill="#5551FF"/>
<path d="M348 222.956C348 222.544 348.342 222.223 348.781 222.223C349.192 222.223 349.512 222.542 349.509 222.95C349.507 223.374 349.175 223.69 348.735 223.683C348.325 223.68 348 223.357 348 222.956Z" fill="#5551FF"/>
<path d="M328.063 205.631C327.629 205.626 327.331 205.329 327.34 204.912C327.348 204.511 327.672 204.216 328.098 204.216C328.525 204.216 328.849 204.518 328.851 204.917C328.854 205.328 328.513 205.636 328.063 205.631Z" fill="#5551FF"/>
<path d="M337.363 224.646C336.935 224.639 336.641 224.338 336.658 223.918C336.674 223.521 337.005 223.229 337.428 223.239C337.821 223.25 338.139 223.555 338.146 223.933C338.151 224.343 337.811 224.653 337.363 224.646Z" fill="#5551FF"/>
<path d="M322.817 231.156C323.23 231.155 323.544 231.434 323.554 231.813C323.566 232.188 323.22 232.536 322.822 232.55C322.406 232.563 322.08 232.258 322.075 231.85C322.072 231.441 322.374 231.158 322.817 231.156Z" fill="#5551FF"/>
<path d="M353.681 236.414C353.273 236.412 352.961 236.114 352.971 235.737C352.98 235.365 353.301 235.08 353.713 235.08C354.112 235.08 354.433 235.387 354.423 235.763C354.411 236.139 354.095 236.417 353.681 236.414Z" fill="#5551FF"/>
<path d="M349.909 206.385C349.906 206.744 349.601 207.026 349.202 207.031C348.821 207.036 348.513 206.731 348.526 206.364C348.54 206.006 348.855 205.736 349.253 205.748C349.628 205.757 349.911 206.033 349.909 206.385Z" fill="#5551FF"/>
<path d="M348.289 209.82C348.292 210.173 347.968 210.48 347.591 210.477C347.23 210.475 346.933 210.188 346.93 209.835C346.926 209.471 347.24 209.172 347.62 209.177C347.979 209.184 348.285 209.479 348.289 209.82Z" fill="#5551FF"/>
<path d="M357.005 222.278C357.011 222.66 356.734 222.933 356.337 222.936C355.953 222.941 355.68 222.694 355.668 222.329C355.655 221.938 355.962 221.63 356.356 221.635C356.712 221.642 357 221.926 357.005 222.278Z" fill="#5551FF"/>
<path d="M334.181 231.462C333.806 231.468 333.514 231.199 333.518 230.846C333.521 230.507 333.826 230.225 334.19 230.227C334.546 230.229 334.817 230.484 334.826 230.826C334.834 231.182 334.56 231.455 334.181 231.462Z" fill="#5551FF"/>
<path d="M346.66 213.258C346.67 213.582 346.387 213.872 346.041 213.894C345.664 213.918 345.367 213.657 345.359 213.295C345.35 212.934 345.626 212.663 346.008 212.659C346.355 212.659 346.65 212.929 346.66 213.258Z" fill="#5551FF"/>
<path d="M323.321 208.707C323.32 209.058 323.06 209.299 322.687 209.299C322.315 209.299 322.059 209.052 322.065 208.697C322.07 208.357 322.348 208.091 322.701 208.09C323.049 208.09 323.325 208.363 323.321 208.707Z" fill="#5551FF"/>
<path d="M345.528 230.439C345.178 230.437 344.931 230.199 344.929 229.858C344.928 229.506 345.194 229.257 345.562 229.261C345.91 229.264 346.167 229.513 346.167 229.842C346.167 230.187 345.894 230.441 345.528 230.439Z" fill="#5551FF"/>
<path d="M347.145 226.987C346.807 226.99 346.545 226.729 346.55 226.398C346.555 226.067 346.816 225.818 347.16 225.818C347.481 225.818 347.771 226.1 347.768 226.41C347.764 226.719 347.481 226.983 347.145 226.987Z" fill="#5551FF"/>
<path d="M343.395 220.147C343.405 220.474 343.151 220.722 342.796 220.725C342.447 220.728 342.23 220.565 342.201 220.205C342.174 219.871 342.423 219.606 342.764 219.589C343.086 219.572 343.385 219.835 343.395 220.147Z" fill="#5551FF"/>
<path d="M344.972 216.726C344.967 217.033 344.706 217.283 344.391 217.285C344.074 217.287 343.818 217.036 343.821 216.724C343.823 216.414 344.079 216.17 344.399 216.168C344.717 216.165 344.978 216.419 344.972 216.726Z" fill="#5551FF"/>
<path d="M343.91 233.843C343.588 233.833 343.341 233.575 343.373 233.262C343.407 232.924 343.613 232.764 343.944 232.76C344.272 232.757 344.524 233.007 344.516 233.314C344.507 233.615 344.232 233.853 343.91 233.843Z" fill="#5551FF"/>
<path d="M341.74 223.638C341.731 223.955 341.479 224.185 341.146 224.16C340.82 224.134 340.623 223.948 340.604 223.619C340.587 223.326 340.873 223.07 341.187 223.07C341.508 223.07 341.748 223.317 341.74 223.638Z" fill="#5551FF"/>
<path d="M329.243 224.581C329.26 224.264 329.511 224.058 329.859 224.08C330.197 224.102 330.381 224.291 330.389 224.624C330.398 224.933 330.127 225.161 329.792 225.153C329.46 225.146 329.224 224.9 329.243 224.581Z" fill="#5551FF"/>
<path d="M332.458 210.631C332.755 210.629 333.022 210.883 332.997 211.165C332.966 211.499 332.751 211.671 332.427 211.668C332.112 211.664 331.934 211.468 331.909 211.161C331.888 210.885 332.165 210.633 332.458 210.631Z" fill="#5551FF"/>
<path d="M322.228 225.777C321.921 225.767 321.717 225.603 321.705 225.291C321.693 224.97 321.904 224.805 322.211 224.776C322.513 224.747 322.789 224.991 322.772 225.281C322.75 225.6 322.544 225.748 322.228 225.777Z" fill="#5551FF"/>
<path d="M338.516 237.559C338.233 237.518 338.03 237.375 338.044 237.068C338.058 236.768 338.247 236.609 338.551 236.616C338.856 236.623 339.038 236.786 339.03 237.09C339.02 237.397 338.806 237.528 338.516 237.559Z" fill="#5551FF"/>
<path d="M332.492 227.74C332.442 228.038 332.262 228.206 331.968 228.195C331.694 228.187 331.52 228.016 331.499 227.737C331.481 227.476 331.765 227.227 332.042 227.257C332.321 227.29 332.461 227.467 332.492 227.74Z" fill="#5551FF"/>
<path d="M356.902 228.398C357.197 228.415 357.38 228.566 357.39 228.843C357.4 229.126 357.211 229.295 356.938 229.307C356.645 229.32 356.444 229.165 356.445 228.85C356.449 228.556 356.648 228.435 356.902 228.398Z" fill="#5551FF"/>
<path d="M202.022 329.544C201.065 329.551 200.33 328.853 200.332 327.941C200.334 327.017 201.059 326.346 202.068 326.336C203.044 326.326 203.76 326.986 203.773 327.908C203.787 328.848 203.05 329.537 202.022 329.544Z" fill="#5551FF"/>
<path d="M203.593 326.115C202.704 326.121 201.94 325.373 201.944 324.501C201.949 323.558 202.725 322.854 203.755 322.859C204.623 322.864 205.367 323.591 205.387 324.454C205.409 325.381 204.626 326.106 203.593 326.115Z" fill="#5551FF"/>
<path d="M226.373 324.094C225.394 324.101 224.702 323.446 224.7 322.508C224.698 321.549 225.411 320.888 226.45 320.883C227.376 320.879 228.096 321.56 228.114 322.46C228.131 323.393 227.393 324.085 226.373 324.094Z" fill="#5551FF"/>
<path d="M223.087 325.944C223.09 325.02 223.854 324.327 224.867 324.327C225.766 324.327 226.513 325.069 226.505 325.949C226.494 326.872 225.723 327.567 224.716 327.566C223.807 327.562 223.084 326.843 223.087 325.944Z" fill="#5551FF"/>
<path d="M201.442 322.899C200.534 322.903 199.835 322.249 199.825 321.39C199.813 320.498 200.592 319.799 201.585 319.809C202.441 319.819 203.113 320.505 203.111 321.366C203.108 322.29 202.448 322.896 201.442 322.899Z" fill="#5551FF"/>
<path d="M228.542 327.152C227.652 327.157 226.929 326.464 226.941 325.617C226.953 324.747 227.685 324.079 228.641 324.067C229.491 324.056 230.202 324.747 230.209 325.589C230.215 326.48 229.506 327.145 228.542 327.152Z" fill="#5551FF"/>
<path d="M226.913 330.569C226.006 330.567 225.375 329.941 225.38 329.049C225.385 328.168 226.076 327.538 227.038 327.538C227.906 327.538 228.598 328.222 228.588 329.071C228.576 329.939 227.871 330.57 226.913 330.569Z" fill="#5551FF"/>
<path d="M212.925 344.979C212.068 344.984 211.41 344.356 211.407 343.536C211.403 342.687 212.108 342.035 213.027 342.04C213.861 342.044 214.524 342.7 214.521 343.517C214.516 344.37 213.857 344.974 212.925 344.979Z" fill="#5551FF"/>
<path d="M221.717 329.375C221.726 328.558 222.372 327.978 223.271 327.983C224.04 327.988 224.675 328.635 224.664 329.404C224.654 330.209 223.982 330.807 223.099 330.795C222.319 330.787 221.709 330.161 221.717 329.375Z" fill="#5551FF"/>
<path d="M205.744 328.998C204.989 328.983 204.346 328.33 204.366 327.597C204.388 326.781 205.065 326.185 205.945 326.205C206.699 326.222 207.334 326.868 207.325 327.609C207.317 328.408 206.624 329.015 205.744 328.998Z" fill="#5551FF"/>
<path d="M216.685 344.553C215.895 344.548 215.293 343.96 215.293 343.196C215.293 342.401 215.941 341.797 216.802 341.791C217.582 341.785 218.216 342.416 218.207 343.191C218.199 344.008 217.583 344.558 216.685 344.553Z" fill="#5551FF"/>
<path d="M215.142 347.967C214.301 347.977 213.709 347.426 213.708 346.632C213.706 345.873 214.327 345.288 215.152 345.271C215.957 345.254 216.559 345.811 216.573 346.582C216.585 347.411 216.022 347.957 215.142 347.967Z" fill="#5551FF"/>
<path d="M200.422 332.702C199.621 332.706 199.044 332.165 199.038 331.405C199.033 330.617 199.669 330.027 200.52 330.033C201.256 330.038 201.889 330.676 201.877 331.401C201.865 332.138 201.238 332.699 200.422 332.702Z" fill="#5551FF"/>
<path d="M199.838 326.137C199.056 326.14 198.457 325.576 198.454 324.832C198.449 324.075 199.071 323.501 199.908 323.485C200.66 323.472 201.293 324.075 201.291 324.805C201.29 325.586 200.695 326.134 199.838 326.137Z" fill="#5551FF"/>
<path d="M221.615 331.548C222.342 331.544 222.944 332.114 222.949 332.813C222.956 333.548 222.316 334.136 221.52 334.133C220.811 334.13 220.202 333.531 220.205 332.84C220.209 332.128 220.836 331.553 221.615 331.548Z" fill="#5551FF"/>
<path d="M200.945 339.219C200.246 339.215 199.666 338.639 199.665 337.943C199.661 337.235 200.314 336.654 201.095 336.667C201.798 336.679 202.374 337.257 202.374 337.948C202.373 338.675 201.759 339.22 200.945 339.219Z" fill="#5551FF"/>
<path d="M228.073 343.445C227.328 343.442 226.752 342.877 226.767 342.166C226.784 341.448 227.381 340.918 228.169 340.921C228.928 340.925 229.461 341.46 229.451 342.207C229.441 342.959 228.895 343.449 228.073 343.445Z" fill="#5551FF"/>
<path d="M210.745 341.653C209.989 341.652 209.433 341.111 209.44 340.384C209.447 339.658 210.025 339.133 210.821 339.129C211.56 339.126 212.138 339.692 212.129 340.405C212.121 341.133 211.539 341.655 210.745 341.653Z" fill="#5551FF"/>
<path d="M205.569 331.034C205.574 331.784 204.991 332.32 204.173 332.315C203.478 332.311 202.88 331.716 202.892 331.041C202.902 330.338 203.526 329.774 204.285 329.775C204.996 329.777 205.566 330.333 205.569 331.034Z" fill="#5551FF"/>
<path d="M218.318 340.977C217.576 340.977 217.037 340.46 217.032 339.744C217.025 339.007 217.634 338.449 218.434 338.461C219.128 338.472 219.723 339.067 219.711 339.74C219.696 340.464 219.117 340.977 218.318 340.977Z" fill="#5551FF"/>
<path d="M218.648 336.22C218.672 335.498 219.259 335.011 220.077 335.033C220.79 335.053 221.353 335.642 221.317 336.329C221.28 337.057 220.642 337.588 219.849 337.55C219.145 337.518 218.624 336.941 218.648 336.22Z" fill="#5551FF"/>
<path d="M229.111 333.39C228.376 333.388 227.856 332.888 227.856 332.179C227.856 331.464 228.426 330.941 229.2 330.946C229.908 330.951 230.463 331.492 230.462 332.172C230.46 332.892 229.908 333.39 229.111 333.39Z" fill="#5551FF"/>
<path d="M228.837 335.625C228.831 336.326 228.226 336.863 227.467 336.842C226.79 336.824 226.241 336.263 226.255 335.606C226.268 334.929 226.848 334.426 227.607 334.431C228.31 334.438 228.842 334.955 228.837 335.625Z" fill="#5551FF"/>
<path d="M201.626 343.311C202.33 343.31 202.842 343.811 202.844 344.505C202.845 345.204 202.289 345.719 201.536 345.718C200.888 345.716 200.332 345.175 200.321 344.536C200.311 343.85 200.884 343.313 201.626 343.311Z" fill="#5551FF"/>
<path d="M209.836 337.255C209.844 337.955 209.292 338.475 208.54 338.473C207.909 338.473 207.358 337.948 207.339 337.329C207.317 336.648 207.883 336.108 208.633 336.092C209.302 336.077 209.829 336.587 209.836 337.255Z" fill="#5551FF"/>
<path d="M227.946 320.227C227.293 320.215 226.741 319.651 226.764 319.023C226.792 318.334 227.329 317.877 228.093 317.896C228.756 317.911 229.266 318.419 229.256 319.054C229.244 319.721 228.663 320.241 227.946 320.227Z" fill="#5551FF"/>
<path d="M199.391 342.505C198.735 342.507 198.223 342.033 198.213 341.415C198.204 340.791 198.76 340.266 199.441 340.257C200.08 340.249 200.623 340.781 200.612 341.408C200.604 342.033 200.079 342.505 199.391 342.505Z" fill="#5551FF"/>
<path d="M206.436 333.073C207.093 333.07 207.604 333.549 207.603 334.164C207.601 334.792 207.079 335.263 206.387 335.261C205.73 335.259 205.268 334.819 205.261 334.188C205.254 333.518 205.72 333.076 206.436 333.073Z" fill="#5551FF"/>
<path d="M225.36 333.611C224.757 333.635 224.214 333.135 224.202 332.544C224.189 331.916 224.706 331.423 225.391 331.409C225.986 331.398 226.496 331.865 226.53 332.453C226.564 333.062 226.037 333.584 225.36 333.611Z" fill="#5551FF"/>
<path d="M202.673 333.416C203.325 333.421 203.785 333.876 203.78 334.507C203.775 335.128 203.274 335.592 202.603 335.594C201.981 335.597 201.462 335.107 201.459 334.512C201.454 333.883 201.979 333.411 202.673 333.416Z" fill="#5551FF"/>
<path d="M208.096 329.62C208.681 329.628 209.186 330.13 209.191 330.706C209.194 331.32 208.638 331.833 207.982 331.821C207.359 331.811 206.873 331.318 206.882 330.71C206.89 330.068 207.402 329.611 208.096 329.62Z" fill="#5551FF"/>
<path d="M229.677 339.783C229.036 339.778 228.606 339.343 228.62 338.709C228.632 338.093 229.113 337.668 229.786 337.679C230.371 337.687 230.861 338.16 230.869 338.721C230.878 339.324 230.354 339.79 229.677 339.783Z" fill="#5551FF"/>
<path d="M230.129 323.183C229.541 323.173 229.108 322.733 229.12 322.153C229.132 321.558 229.611 321.13 230.252 321.142C230.82 321.154 231.284 321.626 231.272 322.177C231.257 322.769 230.774 323.193 230.129 323.183Z" fill="#5551FF"/>
<path d="M226.493 346.596C225.94 346.6 225.5 346.189 225.485 345.658C225.469 345.104 225.928 344.674 226.537 344.671C227.086 344.668 227.533 345.08 227.55 345.607C227.567 346.155 227.096 346.595 226.493 346.596Z" fill="#5551FF"/>
<path d="M198.802 335.765C198.272 335.76 197.839 335.335 197.847 334.825C197.856 334.28 198.313 333.87 198.901 333.886C199.408 333.899 199.832 334.315 199.839 334.808C199.848 335.347 199.389 335.77 198.802 335.765Z" fill="#5551FF"/>
<path d="M231.298 345.281C231.309 345.787 230.855 346.229 230.311 346.243C229.786 346.256 229.332 345.849 229.315 345.347C229.296 344.814 229.752 344.367 230.319 344.362C230.835 344.358 231.288 344.781 231.298 345.281Z" fill="#5551FF"/>
<path d="M199.042 347.904C199.07 347.396 199.516 347.031 200.071 347.06C200.577 347.087 200.966 347.488 200.951 347.967C200.935 348.485 200.461 348.898 199.914 348.866C199.406 348.837 199.015 348.404 199.042 347.904Z" fill="#5551FF"/>
<path d="M209.269 333.855C209.266 333.338 209.68 332.932 210.221 332.924C210.725 332.915 211.164 333.326 211.172 333.814C211.181 334.314 210.746 334.73 210.207 334.738C209.678 334.745 209.272 334.363 209.269 333.855Z" fill="#5551FF"/>
<path d="M214.545 340.963C214.023 340.954 213.619 340.552 213.626 340.052C213.634 339.551 214.089 339.146 214.623 339.167C215.116 339.186 215.529 339.593 215.525 340.059C215.522 340.56 215.077 340.971 214.545 340.963Z" fill="#5551FF"/>
<path d="M198.255 329.114C197.765 329.116 197.363 328.742 197.357 328.28C197.352 327.801 197.75 327.431 198.278 327.424C198.77 327.417 199.16 327.784 199.167 328.256C199.174 328.739 198.776 329.112 198.255 329.114Z" fill="#5551FF"/>
<path d="M226.823 339.078C226.816 339.564 226.405 339.939 225.897 339.922C225.436 339.907 225.052 339.526 225.051 339.085C225.049 338.604 225.45 338.222 225.961 338.22C226.444 338.218 226.829 338.602 226.823 339.078Z" fill="#5551FF"/>
<path d="M199.308 317.471C199.797 317.471 200.13 317.781 200.133 318.242C200.138 318.714 199.785 319.055 199.293 319.053C198.832 319.053 198.46 318.707 198.452 318.274C198.445 317.826 198.824 317.471 199.308 317.471Z" fill="#5551FF"/>
<path d="M203.184 341.825C202.731 341.821 202.385 341.492 202.379 341.061C202.374 340.634 202.753 340.285 203.227 340.281C203.664 340.278 204.025 340.626 204.029 341.054C204.03 341.494 203.664 341.828 203.184 341.825Z" fill="#5551FF"/>
<path d="M230.789 327.961C231.251 327.966 231.579 328.288 231.572 328.731C231.565 329.177 231.199 329.519 230.731 329.512C230.303 329.507 229.93 329.137 229.937 328.726C229.945 328.286 230.314 327.955 230.789 327.961Z" fill="#5551FF"/>
<path d="M211.384 346.203C211.835 346.207 212.177 346.543 212.166 346.971C212.156 347.399 211.815 347.709 211.351 347.709C210.879 347.709 210.553 347.407 210.551 346.966C210.548 346.514 210.892 346.198 211.384 346.203Z" fill="#5551FF"/>
<path d="M205.304 320.283C205.764 320.29 206.09 320.614 206.078 321.056C206.066 321.506 205.717 321.805 205.219 321.789C204.787 321.777 204.458 321.451 204.458 321.04C204.458 320.602 204.821 320.276 205.304 320.283Z" fill="#5551FF"/>
<path d="M223 335.956C223 335.544 223.342 335.223 223.781 335.223C224.192 335.223 224.512 335.542 224.509 335.95C224.507 336.374 224.175 336.69 223.735 336.683C223.325 336.679 223 336.357 223 335.956Z" fill="#5551FF"/>
<path d="M203.063 318.631C202.629 318.626 202.331 318.329 202.34 317.912C202.348 317.511 202.672 317.216 203.098 317.216C203.525 317.216 203.849 317.518 203.851 317.917C203.854 318.328 203.513 318.636 203.063 318.631Z" fill="#5551FF"/>
<path d="M212.363 337.646C211.935 337.639 211.641 337.338 211.658 336.918C211.674 336.521 212.005 336.229 212.428 336.239C212.821 336.25 213.139 336.555 213.146 336.933C213.151 337.343 212.811 337.653 212.363 337.646Z" fill="#5551FF"/>
<path d="M197.817 344.156C198.23 344.155 198.544 344.434 198.554 344.813C198.566 345.188 198.22 345.536 197.822 345.55C197.406 345.563 197.08 345.258 197.075 344.85C197.072 344.441 197.374 344.158 197.817 344.156Z" fill="#5551FF"/>
<path d="M228.681 349.414C228.273 349.412 227.961 349.114 227.971 348.737C227.98 348.365 228.301 348.08 228.713 348.08C229.112 348.08 229.433 348.387 229.423 348.763C229.411 349.139 229.095 349.417 228.681 349.414Z" fill="#5551FF"/>
<path d="M224.909 319.385C224.906 319.744 224.601 320.026 224.202 320.031C223.821 320.036 223.513 319.731 223.526 319.364C223.54 319.006 223.855 318.736 224.253 318.748C224.628 318.757 224.911 319.033 224.909 319.385Z" fill="#5551FF"/>
<path d="M223.289 322.82C223.292 323.173 222.968 323.48 222.591 323.477C222.23 323.475 221.933 323.188 221.93 322.835C221.926 322.471 222.24 322.172 222.62 322.177C222.979 322.184 223.285 322.479 223.289 322.82Z" fill="#5551FF"/>
<path d="M232.005 335.278C232.011 335.66 231.734 335.933 231.337 335.936C230.953 335.941 230.68 335.694 230.668 335.329C230.655 334.938 230.962 334.63 231.356 334.635C231.712 334.642 232 334.926 232.005 335.278Z" fill="#5551FF"/>
<path d="M209.181 344.462C208.806 344.469 208.514 344.199 208.518 343.846C208.521 343.507 208.826 343.225 209.19 343.227C209.546 343.229 209.817 343.485 209.826 343.826C209.834 344.182 209.56 344.455 209.181 344.462Z" fill="#5551FF"/>
<path d="M221.66 326.258C221.67 326.582 221.387 326.872 221.041 326.894C220.664 326.918 220.367 326.657 220.359 326.295C220.35 325.934 220.626 325.663 221.008 325.659C221.355 325.659 221.65 325.929 221.66 326.258Z" fill="#5551FF"/>
<path d="M198.321 321.707C198.32 322.058 198.06 322.299 197.687 322.299C197.315 322.299 197.059 322.051 197.065 321.697C197.07 321.357 197.348 321.091 197.701 321.09C198.049 321.09 198.325 321.363 198.321 321.707Z" fill="#5551FF"/>
<path d="M220.528 343.439C220.178 343.437 219.931 343.199 219.929 342.858C219.928 342.506 220.194 342.257 220.562 342.261C220.91 342.264 221.167 342.513 221.167 342.842C221.167 343.187 220.894 343.441 220.528 343.439Z" fill="#5551FF"/>
<path d="M222.145 339.987C221.807 339.99 221.545 339.729 221.55 339.398C221.555 339.067 221.816 338.818 222.16 338.818C222.481 338.818 222.771 339.1 222.768 339.41C222.764 339.719 222.481 339.983 222.145 339.987Z" fill="#5551FF"/>
<path d="M218.395 333.147C218.405 333.474 218.151 333.722 217.796 333.725C217.447 333.728 217.23 333.565 217.201 333.205C217.174 332.871 217.423 332.606 217.764 332.589C218.086 332.572 218.385 332.835 218.395 333.147Z" fill="#5551FF"/>
<path d="M219.972 329.726C219.967 330.033 219.706 330.283 219.391 330.285C219.074 330.287 218.818 330.036 218.821 329.724C218.823 329.414 219.079 329.17 219.399 329.168C219.717 329.165 219.978 329.419 219.972 329.726Z" fill="#5551FF"/>
<path d="M218.91 346.843C218.588 346.833 218.341 346.575 218.373 346.262C218.407 345.924 218.613 345.764 218.944 345.76C219.272 345.757 219.524 346.007 219.516 346.314C219.507 346.615 219.232 346.853 218.91 346.843Z" fill="#5551FF"/>
<path d="M216.74 336.638C216.731 336.955 216.479 337.185 216.146 337.16C215.82 337.134 215.623 336.948 215.604 336.619C215.587 336.326 215.873 336.07 216.187 336.07C216.508 336.07 216.748 336.317 216.74 336.638Z" fill="#5551FF"/>
<path d="M204.243 337.581C204.26 337.264 204.511 337.058 204.859 337.08C205.197 337.102 205.381 337.292 205.389 337.624C205.398 337.933 205.127 338.161 204.792 338.153C204.46 338.146 204.224 337.9 204.243 337.581Z" fill="#5551FF"/>
<path d="M207.458 323.631C207.755 323.629 208.022 323.883 207.997 324.165C207.966 324.499 207.751 324.671 207.427 324.668C207.112 324.664 206.934 324.468 206.909 324.161C206.888 323.885 207.165 323.633 207.458 323.631Z" fill="#5551FF"/>
<path d="M197.228 338.777C196.921 338.767 196.717 338.603 196.705 338.291C196.693 337.97 196.904 337.805 197.211 337.776C197.513 337.747 197.789 337.991 197.772 338.281C197.75 338.6 197.544 338.748 197.228 338.777Z" fill="#5551FF"/>
<path d="M213.516 350.559C213.233 350.518 213.03 350.375 213.044 350.068C213.058 349.768 213.247 349.609 213.551 349.616C213.856 349.623 214.038 349.786 214.03 350.09C214.02 350.397 213.806 350.528 213.516 350.559Z" fill="#5551FF"/>
<path d="M207.492 340.74C207.442 341.038 207.262 341.206 206.968 341.195C206.694 341.187 206.52 341.016 206.499 340.737C206.481 340.476 206.765 340.227 207.042 340.257C207.321 340.29 207.461 340.467 207.492 340.74Z" fill="#5551FF"/>
<path d="M231.902 341.398C232.197 341.415 232.38 341.566 232.39 341.843C232.4 342.126 232.211 342.295 231.938 342.307C231.645 342.32 231.444 342.165 231.445 341.85C231.449 341.556 231.648 341.435 231.902 341.398Z" fill="#5551FF"/>
<path d="M57.0221 72.5439C56.0653 72.5507 55.3303 71.8532 55.332 70.9408C55.3337 70.0165 56.0585 69.3463 57.0681 69.3361C58.0436 69.3258 58.7599 69.9858 58.7735 70.9084C58.7871 71.8481 58.0504 72.5371 57.0221 72.5439Z" fill="#5551FF"/>
<path d="M58.593 69.1146C57.7045 69.1214 56.9404 68.3728 56.9439 67.5013C56.949 66.5582 57.7249 65.8539 58.755 65.859C59.623 65.8642 60.3666 66.5906 60.387 67.4536C60.4092 68.3813 59.6264 69.1061 58.593 69.1146Z" fill="#5551FF"/>
<path d="M81.3732 67.0938C80.3943 67.1006 79.7019 66.4458 79.7002 65.5078C79.6985 64.5494 80.4113 63.8877 81.4499 63.8826C82.3759 63.8792 83.0956 64.5596 83.1144 65.4601C83.1314 66.3929 82.393 67.0853 81.3732 67.0938Z" fill="#5551FF"/>
<path d="M78.0869 68.944C78.0903 68.0197 78.8543 67.3273 79.8673 67.3273C80.7661 67.3273 81.513 68.0691 81.5045 68.9491C81.4943 69.8717 80.7234 70.5675 79.7156 70.5658C78.8066 70.5624 78.0835 69.8427 78.0869 68.944Z" fill="#5551FF"/>
<path d="M56.4415 65.8992C55.5343 65.9026 54.8351 65.2495 54.8248 64.39C54.8129 63.498 55.5923 62.7988 56.5848 62.8091C57.4409 62.8193 58.1128 63.5049 58.1111 64.3661C58.1077 65.2904 57.4477 65.8958 56.4415 65.8992Z" fill="#5551FF"/>
<path d="M83.5424 70.1517C82.6522 70.1568 81.9291 69.4644 81.9411 68.6168C81.953 67.7471 82.6846 67.0786 83.6413 67.0666C84.4906 67.0564 85.2018 67.7471 85.2086 68.5895C85.2154 69.4798 84.506 70.1449 83.5424 70.1517Z" fill="#5551FF"/>
<path d="M81.913 73.5687C81.0058 73.567 80.3748 72.9411 80.3799 72.0492C80.385 71.1675 81.0757 70.5382 82.0375 70.5382C82.9056 70.5382 83.598 71.2221 83.5877 72.0713C83.5758 72.9394 82.8715 73.5704 81.913 73.5687Z" fill="#5551FF"/>
<path d="M67.9245 87.9787C67.0684 87.9838 66.4102 87.3562 66.4068 86.5359C66.4033 85.6867 67.1077 85.0352 68.0269 85.0403C68.8608 85.0437 69.5242 85.7003 69.5208 86.5172C69.5157 87.3699 68.8574 87.9736 67.9245 87.9787Z" fill="#5551FF"/>
<path d="M76.7174 72.3747C76.7259 71.5578 77.3722 70.9779 78.271 70.9831C79.0401 70.9882 79.6745 71.6345 79.6643 72.4036C79.654 73.2086 78.9821 73.8072 78.0987 73.7952C77.3194 73.7867 76.7088 73.1608 76.7174 72.3747Z" fill="#5551FF"/>
<path d="M60.7441 71.9984C59.9887 71.983 59.3457 71.3299 59.3662 70.5966C59.3884 69.7814 60.0654 69.1845 60.9454 69.205C61.6992 69.222 62.3336 69.8684 62.325 70.6085C62.3165 71.4083 61.6241 72.0154 60.7441 71.9984Z" fill="#5551FF"/>
<path d="M71.6846 87.5533C70.895 87.5482 70.293 86.9598 70.293 86.1958C70.293 85.4011 70.941 84.7974 71.8022 84.7906C72.5816 84.7854 73.216 85.4164 73.2075 86.1907C73.1989 87.0076 72.5833 87.5584 71.6846 87.5533Z" fill="#5551FF"/>
<path d="M70.1417 90.967C69.301 90.9772 68.7092 90.4264 68.7075 89.6317C68.7058 88.8728 69.3266 88.2878 70.152 88.2708C70.9569 88.2537 71.5589 88.8114 71.5726 89.5822C71.5845 90.411 71.0217 90.9567 70.1417 90.967Z" fill="#5551FF"/>
<path d="M55.4224 75.7023C54.6209 75.7057 54.0444 75.1651 54.0376 74.4045C54.0325 73.6166 54.6686 73.0266 55.5196 73.0334C56.2563 73.0385 56.889 73.6763 56.8771 74.4011C56.8652 75.1378 56.2376 75.6989 55.4224 75.7023Z" fill="#5551FF"/>
<path d="M54.8384 69.1371C54.0556 69.1405 53.4571 68.576 53.4536 67.8325C53.4485 67.0753 54.071 66.5006 54.9083 66.4852C55.6604 66.4716 56.2931 67.0753 56.2914 67.8052C56.2897 68.5862 55.6945 69.1337 54.8384 69.1371Z" fill="#5551FF"/>
<path d="M76.6154 74.5477C77.3419 74.5443 77.9439 75.1139 77.9491 75.8131C77.9559 76.5482 77.3164 77.1365 76.5199 77.1331C75.8105 77.1297 75.2017 76.5311 75.2051 75.8404C75.2085 75.1276 75.8361 74.5529 76.6154 74.5477Z" fill="#5551FF"/>
<path d="M55.9453 82.2186C55.2461 82.2152 54.6663 81.6388 54.6646 80.943C54.6612 80.2352 55.3143 79.6537 56.0954 79.6673C56.798 79.6793 57.3744 80.2574 57.3744 80.9481C57.3727 81.6746 56.7588 82.2203 55.9453 82.2186Z" fill="#5551FF"/>
<path d="M83.0732 86.4451C82.328 86.4417 81.7516 85.8772 81.7669 85.1661C81.784 84.4481 82.3808 83.9177 83.1687 83.9212C83.9276 83.9246 84.4614 84.4601 84.4512 85.207C84.4409 85.9591 83.8952 86.4485 83.0732 86.4451Z" fill="#5551FF"/>
<path d="M65.7446 84.6533C64.9891 84.6515 64.4332 84.1109 64.44 83.3844C64.4468 82.658 65.0249 82.1327 65.8214 82.1293C66.5598 82.1259 67.1379 82.6921 67.1294 83.4049C67.1209 84.1331 66.5393 84.655 65.7446 84.6533Z" fill="#5551FF"/>
<path d="M60.5692 74.0341C60.5743 74.7845 59.9911 75.3199 59.1725 75.3148C58.4784 75.3114 57.8798 74.7162 57.8918 74.0409C57.902 73.3383 58.5262 72.7738 59.2851 72.7755C59.9962 72.7772 60.5658 73.3332 60.5692 74.0341Z" fill="#5551FF"/>
<path d="M73.3177 83.9768C72.5758 83.9768 72.0369 83.4601 72.0318 82.7438C72.025 82.0071 72.6338 81.4494 73.4336 81.4614C74.1277 81.4716 74.7229 82.0668 74.711 82.7404C74.6956 83.4635 74.1175 83.9768 73.3177 83.9768Z" fill="#5551FF"/>
<path d="M73.6483 79.2198C73.6721 78.4984 74.2588 78.0107 75.0774 78.0328C75.7902 78.0533 76.353 78.6417 76.3172 79.3289C76.2797 80.0571 75.6418 80.5875 74.8488 80.55C74.1445 80.5176 73.6244 79.9412 73.6483 79.2198Z" fill="#5551FF"/>
<path d="M84.1111 76.3899C83.3761 76.3882 82.856 75.8885 82.856 75.1791C82.856 74.4645 83.4256 73.941 84.1998 73.9461C84.9075 73.9512 85.4635 74.4918 85.4618 75.1723C85.4601 75.8919 84.9075 76.3899 84.1111 76.3899Z" fill="#5551FF"/>
<path d="M83.8366 78.6248C83.8315 79.3257 83.2261 79.8629 82.4672 79.8425C81.7901 79.8237 81.241 79.2626 81.2546 78.6061C81.2683 77.929 81.8481 77.426 82.607 77.4311C83.3096 77.4379 83.8417 77.9546 83.8366 78.6248Z" fill="#5551FF"/>
<path d="M56.626 86.3112C57.3304 86.3095 57.842 86.8108 57.8437 87.5049C57.8454 88.2041 57.2894 88.7192 56.5357 88.7175C55.8876 88.7157 55.3317 88.1751 55.3214 87.5356C55.3112 86.8501 55.8842 86.3129 56.626 86.3112Z" fill="#5551FF"/>
<path d="M64.8357 80.2553C64.8442 80.9545 64.2917 81.4747 63.5396 81.473C62.9086 81.473 62.3578 80.9477 62.339 80.3287C62.3168 79.6482 62.883 79.1076 63.6334 79.0923C64.3019 79.0769 64.8289 79.5868 64.8357 80.2553Z" fill="#5551FF"/>
<path d="M82.9462 63.2272C82.2931 63.2153 81.7405 62.6508 81.7644 62.0232C81.7917 61.3342 82.3289 60.8772 83.0929 60.8959C83.7563 60.9113 84.2662 61.4195 84.256 62.0539C84.244 62.7207 83.6625 63.2408 82.9462 63.2272Z" fill="#5551FF"/>
<path d="M54.3914 85.5049C53.7348 85.5066 53.2232 85.0325 53.213 84.4151C53.2045 83.791 53.7604 83.2657 54.4409 83.2572C55.0804 83.2487 55.6227 83.7807 55.6125 84.4083C55.6039 85.0325 55.0787 85.5049 54.3914 85.5049Z" fill="#5551FF"/>
<path d="M61.4363 76.073C62.0929 76.0696 62.6045 76.5488 62.6028 77.1645C62.6011 77.792 62.0792 78.2627 61.3869 78.261C60.7303 78.2593 60.2681 77.8193 60.2613 77.1883C60.2545 76.5181 60.7201 76.0764 61.4363 76.073Z" fill="#5551FF"/>
<path d="M80.3604 76.6111C79.7567 76.6349 79.2144 76.1352 79.2024 75.5435C79.1888 74.9159 79.7055 74.423 80.3911 74.4094C80.9862 74.3975 81.4961 74.8647 81.5303 75.4531C81.5644 76.0619 81.0374 76.5838 80.3604 76.6111Z" fill="#5551FF"/>
<path d="M57.6733 76.4157C58.3247 76.4208 58.7852 76.8761 58.78 77.5071C58.7749 78.1279 58.2735 78.5918 57.6033 78.5935C56.9809 78.5969 56.4624 78.1074 56.459 77.5123C56.4539 76.883 56.9792 76.4106 57.6733 76.4157Z" fill="#5551FF"/>
<path d="M63.0962 72.6199C63.6811 72.6284 64.1859 73.1298 64.191 73.7062C64.1944 74.3201 63.6385 74.8335 62.9819 74.8215C62.3595 74.8113 61.8734 74.3184 61.8819 73.7096C61.8905 73.0684 62.4021 72.6113 63.0962 72.6199Z" fill="#5551FF"/>
<path d="M84.6773 82.783C84.0361 82.7779 83.6063 82.343 83.6199 81.7086C83.6319 81.0929 84.1128 80.6683 84.7864 80.6785C85.3714 80.6871 85.8608 81.1594 85.8693 81.7205C85.8779 82.3242 85.3543 82.7898 84.6773 82.783Z" fill="#5551FF"/>
<path d="M85.1295 66.1832C84.5411 66.173 84.1079 65.733 84.1199 65.1531C84.1318 64.558 84.611 64.1299 85.2522 64.1418C85.8201 64.1538 86.284 64.6262 86.2721 65.177C86.2567 65.7688 85.7741 66.1934 85.1295 66.1832Z" fill="#5551FF"/>
<path d="M81.4926 89.5963C80.9401 89.5997 80.5001 89.1887 80.4847 88.6583C80.4694 88.1041 80.9281 87.6743 81.537 87.6709C82.0861 87.6675 82.5329 88.0802 82.55 88.6072C82.567 89.1546 82.0963 89.5946 81.4926 89.5963Z" fill="#5551FF"/>
<path d="M53.8023 78.765C53.2719 78.7599 52.8388 78.3352 52.8473 77.8253C52.8558 77.2796 53.3129 76.8703 53.9012 76.8857C54.4077 76.8993 54.8324 77.3154 54.8392 77.8083C54.8477 78.3472 54.389 78.7701 53.8023 78.765Z" fill="#5551FF"/>
<path d="M86.2984 88.2809C86.3086 88.7874 85.855 89.2291 85.311 89.2428C84.7857 89.2564 84.3321 88.8488 84.315 88.3474C84.2963 87.8136 84.7516 87.3668 85.3195 87.3617C85.8345 87.3583 86.2881 87.7812 86.2984 88.2809Z" fill="#5551FF"/>
<path d="M54.0424 90.9039C54.0696 90.3957 54.5165 90.0307 55.0707 90.0597C55.5772 90.087 55.966 90.4878 55.9507 90.967C55.9353 91.4854 55.4612 91.8981 54.9138 91.8657C54.4056 91.8367 54.0151 91.4036 54.0424 90.9039Z" fill="#5551FF"/>
<path d="M64.2691 76.8549C64.2657 76.3381 64.6801 75.9322 65.2207 75.9237C65.7255 75.9152 66.1637 76.3262 66.1723 76.8139C66.1808 77.3136 65.7459 77.7297 65.207 77.7382C64.6784 77.7451 64.2725 77.3631 64.2691 76.8549Z" fill="#5551FF"/>
<path d="M69.5448 83.9628C69.0229 83.9542 68.6188 83.5518 68.6256 83.0521C68.6341 82.5507 69.0894 82.1465 69.6232 82.167C70.1161 82.1858 70.5288 82.5933 70.5254 83.0589C70.522 83.5603 70.0769 83.9713 69.5448 83.9628Z" fill="#5551FF"/>
<path d="M53.2545 72.1142C52.7651 72.1159 52.3626 71.7424 52.3575 71.2803C52.3524 70.8011 52.7497 70.431 53.2784 70.4242C53.7695 70.4173 54.1601 70.784 54.1669 71.2564C54.1737 71.739 53.7763 72.1125 53.2545 72.1142Z" fill="#5551FF"/>
<path d="M81.8227 82.0779C81.8159 82.5639 81.4049 82.9391 80.8967 82.9221C80.4362 82.9067 80.0525 82.5264 80.0508 82.0847C80.0491 81.6038 80.4498 81.2218 80.9615 81.2201C81.4441 81.2184 81.8295 81.6021 81.8227 82.0779Z" fill="#5551FF"/>
<path d="M54.3079 60.4708C54.7973 60.4708 55.1298 60.7812 55.1333 61.2417C55.1384 61.714 54.7854 62.0551 54.2925 62.0534C53.8321 62.0534 53.4603 61.7072 53.4518 61.2741C53.4449 60.8255 53.8235 60.4708 54.3079 60.4708Z" fill="#5551FF"/>
<path d="M58.1844 84.8248C57.7308 84.8214 57.3846 84.4922 57.3794 84.0608C57.3743 83.6344 57.7529 83.2848 58.227 83.2814C58.6636 83.278 59.0251 83.6259 59.0285 84.0539C59.0303 84.4939 58.6636 84.8282 58.1844 84.8248Z" fill="#5551FF"/>
<path d="M85.7893 70.9606C86.2515 70.9657 86.5789 71.2881 86.5721 71.7315C86.5653 72.1766 86.1986 72.5193 85.7313 72.5125C85.3033 72.5074 84.9298 72.1373 84.9366 71.7263C84.9451 71.2864 85.3135 70.9555 85.7893 70.9606Z" fill="#5551FF"/>
<path d="M66.3835 89.2033C66.8354 89.2067 67.1765 89.5427 67.1663 89.9707C67.1561 90.3988 66.815 90.7092 66.3511 90.7092C65.8787 90.7092 65.553 90.4073 65.5513 89.9656C65.5479 89.5137 65.8924 89.1982 66.3835 89.2033Z" fill="#5551FF"/>
<path d="M60.3039 63.2833C60.7643 63.2901 61.0901 63.6142 61.0781 64.0558C61.0662 64.5061 60.7166 64.8045 60.2186 64.7892C59.7871 64.7772 59.458 64.4515 59.458 64.0405C59.458 63.6022 59.8213 63.2765 60.3039 63.2833Z" fill="#5551FF"/>
<path d="M77.9995 78.9565C77.9995 78.5438 78.3423 78.2231 78.7806 78.2231C79.1916 78.2231 79.5122 78.5421 79.5088 78.9496C79.5071 79.3743 79.1745 79.6898 78.7345 79.683C78.3252 79.6795 77.9995 79.3572 77.9995 78.9565Z" fill="#5551FF"/>
<path d="M58.0626 61.6313C57.6294 61.6262 57.331 61.3294 57.3395 60.9116C57.3481 60.5109 57.6721 60.2158 58.0984 60.2158C58.5248 60.2158 58.8488 60.5177 58.8505 60.9167C58.8539 61.3277 58.5128 61.6364 58.0626 61.6313Z" fill="#5551FF"/>
<path d="M67.3627 80.6462C66.9347 80.6394 66.6414 80.3375 66.6584 79.918C66.6738 79.5207 67.0046 79.229 67.4275 79.2393C67.8215 79.2495 68.1387 79.5548 68.1455 79.9334C68.1506 80.3427 67.8113 80.653 67.3627 80.6462Z" fill="#5551FF"/>
<path d="M52.8171 87.1564C53.2298 87.1547 53.5436 87.4344 53.5538 87.813C53.5657 88.1881 53.2195 88.536 52.8222 88.5497C52.4061 88.5633 52.0803 88.2581 52.0752 87.8505C52.0718 87.4412 52.3737 87.1581 52.8171 87.1564Z" fill="#5551FF"/>
<path d="M83.6809 92.4141C83.2733 92.4123 82.9612 92.1139 82.9714 91.737C82.98 91.3652 83.3006 91.0804 83.7133 91.0804C84.1123 91.0804 84.4329 91.3874 84.4227 91.7626C84.4108 92.1395 84.0953 92.4175 83.6809 92.4141Z" fill="#5551FF"/>
<path d="M79.9094 62.3845C79.906 62.7444 79.6007 63.0258 79.2016 63.0309C78.8213 63.036 78.5127 62.7307 78.5263 62.3641C78.54 62.0059 78.8555 61.7365 79.2528 61.7484C79.628 61.757 79.9111 62.0332 79.9094 62.3845Z" fill="#5551FF"/>
<path d="M78.2889 65.8201C78.2923 66.1731 77.9683 66.4801 77.5914 66.4767C77.2299 66.475 76.9331 66.1885 76.9297 65.8355C76.9263 65.4705 77.2401 65.1721 77.6204 65.1772C77.9785 65.184 78.2855 65.479 78.2889 65.8201Z" fill="#5551FF"/>
<path d="M87.0054 78.2776C87.0105 78.6596 86.7343 78.9325 86.3369 78.9359C85.9532 78.941 85.6803 78.6937 85.6684 78.3288C85.6548 77.9383 85.9617 77.6296 86.3557 77.6347C86.7121 77.6415 87.0003 77.9263 87.0054 78.2776Z" fill="#5551FF"/>
<path d="M64.181 87.4616C63.8058 87.4685 63.5142 87.199 63.5176 86.846C63.521 86.5066 63.8263 86.2252 64.1895 86.2269C64.546 86.2286 64.8171 86.4844 64.8256 86.8255C64.8342 87.1819 64.5596 87.4548 64.181 87.4616Z" fill="#5551FF"/>
<path d="M76.6598 69.2579C76.67 69.5819 76.3869 69.8718 76.0407 69.894C75.6639 69.9179 75.3671 69.657 75.3586 69.2954C75.3501 68.9339 75.6263 68.6627 76.0083 68.6593C76.3545 68.6593 76.6496 68.9288 76.6598 69.2579Z" fill="#5551FF"/>
<path d="M53.3214 64.7071C53.3197 65.0584 53.0605 65.2988 52.687 65.2988C52.3152 65.2988 52.0594 65.0516 52.0645 64.6968C52.0696 64.3575 52.3476 64.0914 52.7006 64.0897C53.0485 64.0897 53.3248 64.3626 53.3214 64.7071Z" fill="#5551FF"/>
<path d="M75.5278 86.4391C75.1782 86.4374 74.9309 86.1986 74.9292 85.8575C74.9275 85.5062 75.1935 85.2572 75.5619 85.2607C75.9098 85.2641 76.1673 85.5131 76.1673 85.8422C76.1673 86.1867 75.8945 86.4408 75.5278 86.4391Z" fill="#5551FF"/>
<path d="M77.1451 82.9865C76.8074 82.99 76.5448 82.729 76.5499 82.3982C76.555 82.0673 76.8159 81.8184 77.1604 81.8184C77.481 81.8184 77.7709 82.0997 77.7675 82.4101C77.7641 82.7188 77.481 82.9831 77.1451 82.9865Z" fill="#5551FF"/>
<path d="M73.395 76.1468C73.4053 76.4743 73.1512 76.7215 72.7964 76.7249C72.4468 76.7284 72.2303 76.5646 72.2013 76.2048C72.174 75.8706 72.423 75.6062 72.764 75.5892C73.0864 75.5721 73.3848 75.8347 73.395 76.1468Z" fill="#5551FF"/>
<path d="M74.9725 72.7257C74.9673 73.0326 74.7064 73.2833 74.3909 73.285C74.0737 73.2867 73.8179 73.036 73.8213 72.724C73.823 72.4136 74.0788 72.1697 74.3994 72.168C74.7166 72.1646 74.9776 72.4187 74.9725 72.7257Z" fill="#5551FF"/>
<path d="M73.9102 89.8431C73.5879 89.8328 73.3406 89.5753 73.373 89.2615C73.4071 88.9239 73.6134 88.7636 73.9443 88.7602C74.2717 88.7568 74.5241 89.0074 74.5156 89.3144C74.5071 89.6146 74.2325 89.8533 73.9102 89.8431Z" fill="#5551FF"/>
<path d="M71.7395 79.6378C71.731 79.955 71.4786 80.1853 71.1461 80.1597C70.8203 80.1341 70.6225 79.9482 70.6038 79.6191C70.5867 79.3258 70.8732 79.0699 71.187 79.0699C71.5076 79.0699 71.7481 79.3172 71.7395 79.6378Z" fill="#5551FF"/>
<path d="M59.2432 80.5814C59.2603 80.2642 59.511 80.0578 59.8589 80.08C60.1965 80.1022 60.3807 80.2915 60.3893 80.624C60.3978 80.9327 60.1266 81.1612 59.7924 81.1527C59.4598 81.1459 59.2245 80.9003 59.2432 80.5814Z" fill="#5551FF"/>
<path d="M62.4579 66.631C62.7547 66.6293 63.0224 66.8834 62.9968 67.1648C62.9661 67.499 62.7512 67.6713 62.4272 67.6679C62.1117 67.6645 61.9344 67.4683 61.9088 67.1614C61.8883 66.8851 62.1646 66.6327 62.4579 66.631Z" fill="#5551FF"/>
<path d="M52.2281 81.777C51.9212 81.7667 51.7165 81.603 51.7046 81.2909C51.6926 80.9703 51.9041 80.8049 52.2111 80.7759C52.5129 80.7469 52.7892 80.9908 52.7722 81.2807C52.75 81.5996 52.5436 81.748 52.2281 81.777Z" fill="#5551FF"/>
<path d="M68.5165 93.5589C68.2334 93.518 68.0305 93.3747 68.0441 93.0677C68.0577 92.7676 68.247 92.609 68.5506 92.6158C68.8559 92.6226 69.0383 92.7863 69.0298 93.0899C69.0196 93.3969 68.8064 93.5282 68.5165 93.5589Z" fill="#5551FF"/>
<path d="M62.4919 83.74C62.4425 84.0384 62.2617 84.2055 61.9684 84.1953C61.6938 84.1868 61.5199 84.0162 61.4994 83.7365C61.4807 83.4756 61.7655 83.2266 62.0417 83.2573C62.3214 83.2897 62.4612 83.4671 62.4919 83.74Z" fill="#5551FF"/>
<path d="M86.9024 84.3976C87.1974 84.4146 87.3799 84.5664 87.3901 84.8427C87.4003 85.1258 87.211 85.2946 86.9382 85.3066C86.6449 85.3202 86.4436 85.165 86.4453 84.8495C86.4487 84.5562 86.6483 84.4351 86.9024 84.3976Z" fill="#5551FF"/>
<path d="M340.5 205.672L331.407 194.422L349.593 194.422L340.5 205.672Z" fill="white"/>
<path d="M223 327.672L213.474 316.422L232.526 316.422L223 327.672Z" fill="white"/>
<g filter="url(#filter3_d)">
<mask id="path-218-inside-1" fill="white">
<path fill-rule="evenodd" clip-rule="evenodd" d="M20 5.5C14.4772 5.5 10 9.97716 10 15.5V45.6724C10 51.1953 14.4772 55.6724 20 55.6724H60.9274L70 65.6724L79.0726 55.6724H121.847C127.37 55.6724 131.847 51.1953 131.847 45.6724V15.5C131.847 9.97715 127.37 5.5 121.847 5.5H20Z"/>
</mask>
<path fill-rule="evenodd" clip-rule="evenodd" d="M20 5.5C14.4772 5.5 10 9.97716 10 15.5V45.6724C10 51.1953 14.4772 55.6724 20 55.6724H60.9274L70 65.6724L79.0726 55.6724H121.847C127.37 55.6724 131.847 51.1953 131.847 45.6724V15.5C131.847 9.97715 127.37 5.5 121.847 5.5H20Z" fill="white"/>
<path d="M60.9274 55.6724L61.668 55.0005L61.3704 54.6724H60.9274V55.6724ZM70 65.6724L69.2594 66.3443L70 67.1606L70.7406 66.3443L70 65.6724ZM79.0726 55.6724V54.6724H78.6296L78.332 55.0005L79.0726 55.6724ZM11 15.5C11 10.5294 15.0294 6.5 20 6.5V4.5C13.9249 4.5 9 9.42488 9 15.5H11ZM11 45.6724V15.5H9V45.6724H11ZM20 54.6724C15.0294 54.6724 11 50.643 11 45.6724H9C9 51.7475 13.9249 56.6724 20 56.6724V54.6724ZM60.9274 54.6724H20V56.6724H60.9274V54.6724ZM70.7406 65.0004L61.668 55.0005L60.1868 56.3443L69.2594 66.3443L70.7406 65.0004ZM78.332 55.0005L69.2594 65.0004L70.7406 66.3443L79.8132 56.3443L78.332 55.0005ZM121.847 54.6724H79.0726V56.6724H121.847V54.6724ZM130.847 45.6724C130.847 50.643 126.818 54.6724 121.847 54.6724V56.6724C127.922 56.6724 132.847 51.7475 132.847 45.6724H130.847ZM130.847 15.5V45.6724H132.847V15.5H130.847ZM121.847 6.5C126.818 6.5 130.847 10.5294 130.847 15.5H132.847C132.847 9.42487 127.922 4.5 121.847 4.5V6.5ZM20 6.5H121.847V4.5H20V6.5Z" fill="#FFA451" mask="url(#path-218-inside-1)"/>
<path d="M57.5331 36.3047C57.5331 35.5299 57.287 34.8919 56.7949 34.3906C56.3027 33.8802 55.4824 33.4245 54.3339 33.0234C53.1855 32.6133 52.2923 32.235 51.6542 31.8887C49.5305 30.7493 48.4687 29.0632 48.4687 26.8301C48.4687 25.3171 48.929 24.0729 49.8495 23.0977C50.7701 22.1224 52.0188 21.5436 53.5956 21.3613V18.3809H55.7831V21.3887C57.3691 21.6165 58.595 22.291 59.4609 23.4121C60.3268 24.5241 60.7597 25.9733 60.7597 27.7598H57.4511C57.4511 26.6113 57.1913 25.709 56.6718 25.0527C56.1614 24.3874 55.4641 24.0547 54.58 24.0547C53.705 24.0547 53.0214 24.2917 52.5292 24.7656C52.037 25.2396 51.791 25.9186 51.791 26.8027C51.791 27.5957 52.0325 28.2337 52.5156 28.7168C53.0078 29.1908 53.8372 29.6419 55.0038 30.0703C56.1705 30.4987 57.0865 30.8952 57.7519 31.2598C58.4173 31.6243 58.9778 32.0436 59.4335 32.5176C59.8893 32.9824 60.2402 33.5202 60.4863 34.1309C60.7324 34.7415 60.8554 35.457 60.8554 36.2773C60.8554 37.8177 60.3814 39.0664 59.4335 40.0234C58.4947 40.9805 57.1822 41.5456 55.496 41.7188V44.3848H53.3222V41.7324C51.5175 41.5319 50.1275 40.8848 49.1523 39.791C48.1861 38.6973 47.7031 37.248 47.7031 35.4434H51.0253C51.0253 36.5918 51.3124 37.4805 51.8867 38.1094C52.47 38.7383 53.2903 39.0527 54.3476 39.0527C55.3867 39.0527 56.1751 38.8021 56.7128 38.3008C57.2597 37.7995 57.5331 37.1341 57.5331 36.3047ZM73.4472 36.3047C73.4472 35.5299 73.2011 34.8919 72.7089 34.3906C72.2167 33.8802 71.3964 33.4245 70.248 33.0234C69.0995 32.6133 68.2063 32.235 67.5683 31.8887C65.4446 30.7493 64.3828 29.0632 64.3828 26.8301C64.3828 25.3171 64.843 24.0729 65.7636 23.0977C66.6842 22.1224 67.9329 21.5436 69.5097 21.3613V18.3809H71.6972V21.3887C73.2831 21.6165 74.5091 22.291 75.3749 23.4121C76.2408 24.5241 76.6738 25.9733 76.6738 27.7598H73.3652C73.3652 26.6113 73.1054 25.709 72.5859 25.0527C72.0755 24.3874 71.3782 24.0547 70.4941 24.0547C69.6191 24.0547 68.9355 24.2917 68.4433 24.7656C67.9511 25.2396 67.705 25.9186 67.705 26.8027C67.705 27.5957 67.9466 28.2337 68.4296 28.7168C68.9218 29.1908 69.7512 29.6419 70.9179 30.0703C72.0846 30.4987 73.0006 30.8952 73.666 31.2598C74.3313 31.6243 74.8919 32.0436 75.3476 32.5176C75.8033 32.9824 76.1542 33.5202 76.4003 34.1309C76.6464 34.7415 76.7695 35.457 76.7695 36.2773C76.7695 37.8177 76.2955 39.0664 75.3476 40.0234C74.4088 40.9805 73.0963 41.5456 71.4101 41.7188V44.3848H69.2363V41.7324C67.4316 41.5319 66.0416 40.8848 65.0663 39.791C64.1002 38.6973 63.6171 37.248 63.6171 35.4434H66.9394C66.9394 36.5918 67.2265 37.4805 67.8007 38.1094C68.3841 38.7383 69.2044 39.0527 70.2617 39.0527C71.3007 39.0527 72.0891 38.8021 72.6269 38.3008C73.1738 37.7995 73.4472 37.1341 73.4472 36.3047ZM89.3613 36.3047C89.3613 35.5299 89.1152 34.8919 88.623 34.3906C88.1308 33.8802 87.3105 33.4245 86.162 33.0234C85.0136 32.6133 84.1204 32.235 83.4824 31.8887C81.3587 30.7493 80.2968 29.0632 80.2968 26.8301C80.2968 25.3171 80.7571 24.0729 81.6777 23.0977C82.5982 22.1224 83.8469 21.5436 85.4238 21.3613V18.3809H87.6113V21.3887C89.1972 21.6165 90.4231 22.291 91.289 23.4121C92.1549 24.5241 92.5878 25.9733 92.5878 27.7598H89.2792C89.2792 26.6113 89.0195 25.709 88.4999 25.0527C87.9895 24.3874 87.2923 24.0547 86.4081 24.0547C85.5331 24.0547 84.8495 24.2917 84.3574 24.7656C83.8652 25.2396 83.6191 25.9186 83.6191 26.8027C83.6191 27.5957 83.8606 28.2337 84.3437 28.7168C84.8359 29.1908 85.6653 29.6419 86.832 30.0703C87.9986 30.4987 88.9147 30.8952 89.58 31.2598C90.2454 31.6243 90.8059 32.0436 91.2617 32.5176C91.7174 32.9824 92.0683 33.5202 92.3144 34.1309C92.5605 34.7415 92.6835 35.457 92.6835 36.2773C92.6835 37.8177 92.2096 39.0664 91.2617 40.0234C90.3229 40.9805 89.0104 41.5456 87.3242 41.7188V44.3848H85.1503V41.7324C83.3456 41.5319 81.9557 40.8848 80.9804 39.791C80.0143 38.6973 79.5312 37.248 79.5312 35.4434H82.8535C82.8535 36.5918 83.1406 37.4805 83.7148 38.1094C84.2981 38.7383 85.1184 39.0527 86.1757 39.0527C87.2148 39.0527 88.0032 38.8021 88.541 38.3008C89.0878 37.7995 89.3613 37.1341 89.3613 36.3047Z" fill="#FFA451"/>
</g>
<g filter="url(#filter4_d)">
<mask id="path-221-inside-2" fill="white">
<path fill-rule="evenodd" clip-rule="evenodd" d="M290 149.5C284.477 149.5 280 153.977 280 159.5V189.672C280 195.195 284.477 199.672 290 199.672H330.927L340 209.672L349.073 199.672H391.847C397.37 199.672 401.847 195.195 401.847 189.672V159.5C401.847 153.977 397.37 149.5 391.847 149.5H290Z"/>
</mask>
<path fill-rule="evenodd" clip-rule="evenodd" d="M290 149.5C284.477 149.5 280 153.977 280 159.5V189.672C280 195.195 284.477 199.672 290 199.672H330.927L340 209.672L349.073 199.672H391.847C397.37 199.672 401.847 195.195 401.847 189.672V159.5C401.847 153.977 397.37 149.5 391.847 149.5H290Z" fill="white"/>
<path d="M330.927 199.672L331.668 199L331.37 198.672H330.927V199.672ZM340 209.672L339.259 210.344L340 211.161L340.741 210.344L340 209.672ZM349.073 199.672V198.672H348.63L348.332 199L349.073 199.672ZM281 159.5C281 154.529 285.029 150.5 290 150.5V148.5C283.925 148.5 279 153.425 279 159.5H281ZM281 189.672V159.5H279V189.672H281ZM290 198.672C285.029 198.672 281 194.643 281 189.672H279C279 195.748 283.925 200.672 290 200.672V198.672ZM330.927 198.672H290V200.672H330.927V198.672ZM340.741 209L331.668 199L330.187 200.344L339.259 210.344L340.741 209ZM348.332 199L339.259 209L340.741 210.344L349.813 200.344L348.332 199ZM391.847 198.672H349.073V200.672H391.847V198.672ZM400.847 189.672C400.847 194.643 396.818 198.672 391.847 198.672V200.672C397.922 200.672 402.847 195.748 402.847 189.672H400.847ZM400.847 159.5V189.672H402.847V159.5H400.847ZM391.847 150.5C396.818 150.5 400.847 154.529 400.847 159.5H402.847C402.847 153.425 397.922 148.5 391.847 148.5V150.5ZM290 150.5H391.847V148.5H290V150.5Z" fill="#FFA451" mask="url(#path-221-inside-2)"/>
<path d="M327.533 180.305C327.533 179.53 327.287 178.892 326.795 178.391C326.303 177.88 325.482 177.424 324.334 177.023C323.185 176.613 322.292 176.235 321.654 175.889C319.531 174.749 318.469 173.063 318.469 170.83C318.469 169.317 318.929 168.073 319.85 167.098C320.77 166.122 322.019 165.544 323.596 165.361V162.381H325.783V165.389C327.369 165.617 328.595 166.291 329.461 167.412C330.327 168.524 330.76 169.973 330.76 171.76H327.451C327.451 170.611 327.191 169.709 326.672 169.053C326.161 168.387 325.464 168.055 324.58 168.055C323.705 168.055 323.021 168.292 322.529 168.766C322.037 169.24 321.791 169.919 321.791 170.803C321.791 171.596 322.032 172.234 322.516 172.717C323.008 173.191 323.837 173.642 325.004 174.07C326.171 174.499 327.087 174.895 327.752 175.26C328.417 175.624 328.978 176.044 329.434 176.518C329.889 176.982 330.24 177.52 330.486 178.131C330.732 178.742 330.855 179.457 330.855 180.277C330.855 181.818 330.381 183.066 329.434 184.023C328.495 184.98 327.182 185.546 325.496 185.719V188.385H323.322V185.732C321.518 185.532 320.128 184.885 319.152 183.791C318.186 182.697 317.703 181.248 317.703 179.443H321.025C321.025 180.592 321.312 181.48 321.887 182.109C322.47 182.738 323.29 183.053 324.348 183.053C325.387 183.053 326.175 182.802 326.713 182.301C327.26 181.799 327.533 181.134 327.533 180.305ZM343.447 180.305C343.447 179.53 343.201 178.892 342.709 178.391C342.217 177.88 341.396 177.424 340.248 177.023C339.1 176.613 338.206 176.235 337.568 175.889C335.445 174.749 334.383 173.063 334.383 170.83C334.383 169.317 334.843 168.073 335.764 167.098C336.684 166.122 337.933 165.544 339.51 165.361V162.381H341.697V165.389C343.283 165.617 344.509 166.291 345.375 167.412C346.241 168.524 346.674 169.973 346.674 171.76H343.365C343.365 170.611 343.105 169.709 342.586 169.053C342.075 168.387 341.378 168.055 340.494 168.055C339.619 168.055 338.935 168.292 338.443 168.766C337.951 169.24 337.705 169.919 337.705 170.803C337.705 171.596 337.947 172.234 338.43 172.717C338.922 173.191 339.751 173.642 340.918 174.07C342.085 174.499 343.001 174.895 343.666 175.26C344.331 175.624 344.892 176.044 345.348 176.518C345.803 176.982 346.154 177.52 346.4 178.131C346.646 178.742 346.769 179.457 346.769 180.277C346.769 181.818 346.296 183.066 345.348 184.023C344.409 184.98 343.096 185.546 341.41 185.719V188.385H339.236V185.732C337.432 185.532 336.042 184.885 335.066 183.791C334.1 182.697 333.617 181.248 333.617 179.443H336.939C336.939 180.592 337.227 181.48 337.801 182.109C338.384 182.738 339.204 183.053 340.262 183.053C341.301 183.053 342.089 182.802 342.627 182.301C343.174 181.799 343.447 181.134 343.447 180.305ZM359.361 180.305C359.361 179.53 359.115 178.892 358.623 178.391C358.131 177.88 357.31 177.424 356.162 177.023C355.014 176.613 354.12 176.235 353.482 175.889C351.359 174.749 350.297 173.063 350.297 170.83C350.297 169.317 350.757 168.073 351.678 167.098C352.598 166.122 353.847 165.544 355.424 165.361V162.381H357.611V165.389C359.197 165.617 360.423 166.291 361.289 167.412C362.155 168.524 362.588 169.973 362.588 171.76H359.279C359.279 170.611 359.019 169.709 358.5 169.053C357.99 168.387 357.292 168.055 356.408 168.055C355.533 168.055 354.85 168.292 354.357 168.766C353.865 169.24 353.619 169.919 353.619 170.803C353.619 171.596 353.861 172.234 354.344 172.717C354.836 173.191 355.665 173.642 356.832 174.07C357.999 174.499 358.915 174.895 359.58 175.26C360.245 175.624 360.806 176.044 361.262 176.518C361.717 176.982 362.068 177.52 362.314 178.131C362.56 178.742 362.684 179.457 362.684 180.277C362.684 181.818 362.21 183.066 361.262 184.023C360.323 184.98 359.01 185.546 357.324 185.719V188.385H355.15V185.732C353.346 185.532 351.956 184.885 350.98 183.791C350.014 182.697 349.531 181.248 349.531 179.443H352.853C352.853 180.592 353.141 181.48 353.715 182.109C354.298 182.738 355.118 183.053 356.176 183.053C357.215 183.053 358.003 182.802 358.541 182.301C359.088 181.799 359.361 181.134 359.361 180.305Z" fill="#FFA451"/>
</g>
<g filter="url(#filter5_d)">
<mask id="path-224-inside-3" fill="white">
<path fill-rule="evenodd" clip-rule="evenodd" d="M166 260.5C160.477 260.5 156 264.977 156 270.5V300.672C156 306.195 160.477 310.672 166 310.672H206.927L216 320.672L225.073 310.672H267.847C273.37 310.672 277.847 306.195 277.847 300.672V270.5C277.847 264.977 273.37 260.5 267.847 260.5H166Z"/>
</mask>
<path fill-rule="evenodd" clip-rule="evenodd" d="M166 260.5C160.477 260.5 156 264.977 156 270.5V300.672C156 306.195 160.477 310.672 166 310.672H206.927L216 320.672L225.073 310.672H267.847C273.37 310.672 277.847 306.195 277.847 300.672V270.5C277.847 264.977 273.37 260.5 267.847 260.5H166Z" fill="white"/>
<path d="M206.927 310.672L207.668 310L207.37 309.672H206.927V310.672ZM216 320.672L215.259 321.344L216 322.161L216.741 321.344L216 320.672ZM225.073 310.672V309.672H224.63L224.332 310L225.073 310.672ZM157 270.5C157 265.529 161.029 261.5 166 261.5V259.5C159.925 259.5 155 264.425 155 270.5H157ZM157 300.672V270.5H155V300.672H157ZM166 309.672C161.029 309.672 157 305.643 157 300.672H155C155 306.748 159.925 311.672 166 311.672V309.672ZM206.927 309.672H166V311.672H206.927V309.672ZM216.741 320L207.668 310L206.187 311.344L215.259 321.344L216.741 320ZM224.332 310L215.259 320L216.741 321.344L225.813 311.344L224.332 310ZM267.847 309.672H225.073V311.672H267.847V309.672ZM276.847 300.672C276.847 305.643 272.818 309.672 267.847 309.672V311.672C273.922 311.672 278.847 306.748 278.847 300.672H276.847ZM276.847 270.5V300.672H278.847V270.5H276.847ZM267.847 261.5C272.818 261.5 276.847 265.529 276.847 270.5H278.847C278.847 264.425 273.922 259.5 267.847 259.5V261.5ZM166 261.5H267.847V259.5H166V261.5Z" fill="#FFA451" mask="url(#path-224-inside-3)"/>
<path d="M203.533 291.305C203.533 290.53 203.287 289.892 202.795 289.391C202.303 288.88 201.482 288.424 200.334 288.023C199.185 287.613 198.292 287.235 197.654 286.889C195.531 285.749 194.469 284.063 194.469 281.83C194.469 280.317 194.929 279.073 195.85 278.098C196.77 277.122 198.019 276.544 199.596 276.361V273.381H201.783V276.389C203.369 276.617 204.595 277.291 205.461 278.412C206.327 279.524 206.76 280.973 206.76 282.76H203.451C203.451 281.611 203.191 280.709 202.672 280.053C202.161 279.387 201.464 279.055 200.58 279.055C199.705 279.055 199.021 279.292 198.529 279.766C198.037 280.24 197.791 280.919 197.791 281.803C197.791 282.596 198.032 283.234 198.516 283.717C199.008 284.191 199.837 284.642 201.004 285.07C202.171 285.499 203.087 285.895 203.752 286.26C204.417 286.624 204.978 287.044 205.434 287.518C205.889 287.982 206.24 288.52 206.486 289.131C206.732 289.742 206.855 290.457 206.855 291.277C206.855 292.818 206.381 294.066 205.434 295.023C204.495 295.98 203.182 296.546 201.496 296.719V299.385H199.322V296.732C197.518 296.532 196.128 295.885 195.152 294.791C194.186 293.697 193.703 292.248 193.703 290.443H197.025C197.025 291.592 197.312 292.48 197.887 293.109C198.47 293.738 199.29 294.053 200.348 294.053C201.387 294.053 202.175 293.802 202.713 293.301C203.26 292.799 203.533 292.134 203.533 291.305ZM219.447 291.305C219.447 290.53 219.201 289.892 218.709 289.391C218.217 288.88 217.396 288.424 216.248 288.023C215.1 287.613 214.206 287.235 213.568 286.889C211.445 285.749 210.383 284.063 210.383 281.83C210.383 280.317 210.843 279.073 211.764 278.098C212.684 277.122 213.933 276.544 215.51 276.361V273.381H217.697V276.389C219.283 276.617 220.509 277.291 221.375 278.412C222.241 279.524 222.674 280.973 222.674 282.76H219.365C219.365 281.611 219.105 280.709 218.586 280.053C218.075 279.387 217.378 279.055 216.494 279.055C215.619 279.055 214.935 279.292 214.443 279.766C213.951 280.24 213.705 280.919 213.705 281.803C213.705 282.596 213.947 283.234 214.43 283.717C214.922 284.191 215.751 284.642 216.918 285.07C218.085 285.499 219.001 285.895 219.666 286.26C220.331 286.624 220.892 287.044 221.348 287.518C221.803 287.982 222.154 288.52 222.4 289.131C222.646 289.742 222.769 290.457 222.769 291.277C222.769 292.818 222.296 294.066 221.348 295.023C220.409 295.98 219.096 296.546 217.41 296.719V299.385H215.236V296.732C213.432 296.532 212.042 295.885 211.066 294.791C210.1 293.697 209.617 292.248 209.617 290.443H212.939C212.939 291.592 213.227 292.48 213.801 293.109C214.384 293.738 215.204 294.053 216.262 294.053C217.301 294.053 218.089 293.802 218.627 293.301C219.174 292.799 219.447 292.134 219.447 291.305ZM235.361 291.305C235.361 290.53 235.115 289.892 234.623 289.391C234.131 288.88 233.31 288.424 232.162 288.023C231.014 287.613 230.12 287.235 229.482 286.889C227.359 285.749 226.297 284.063 226.297 281.83C226.297 280.317 226.757 279.073 227.678 278.098C228.598 277.122 229.847 276.544 231.424 276.361V273.381H233.611V276.389C235.197 276.617 236.423 277.291 237.289 278.412C238.155 279.524 238.588 280.973 238.588 282.76H235.279C235.279 281.611 235.019 280.709 234.5 280.053C233.99 279.387 233.292 279.055 232.408 279.055C231.533 279.055 230.85 279.292 230.357 279.766C229.865 280.24 229.619 280.919 229.619 281.803C229.619 282.596 229.861 283.234 230.344 283.717C230.836 284.191 231.665 284.642 232.832 285.07C233.999 285.499 234.915 285.895 235.58 286.26C236.245 286.624 236.806 287.044 237.262 287.518C237.717 287.982 238.068 288.52 238.314 289.131C238.56 289.742 238.684 290.457 238.684 291.277C238.684 292.818 238.21 294.066 237.262 295.023C236.323 295.98 235.01 296.546 233.324 296.719V299.385H231.15V296.732C229.346 296.532 227.956 295.885 226.98 294.791C226.014 293.697 225.531 292.248 225.531 290.443H228.853C228.853 291.592 229.141 292.48 229.715 293.109C230.298 293.738 231.118 294.053 232.176 294.053C233.215 294.053 234.003 293.802 234.541 293.301C235.088 292.799 235.361 292.134 235.361 291.305Z" fill="#FFA451"/>
</g>
<defs>
<filter id="filter0_di" x="297" y="182.5" width="87" height="87" filterUnits="userSpaceOnUse" color-interpolation-filters="sRGB">
<feFlood flood-opacity="0" result="BackgroundImageFix"/>
<feColorMatrix in="SourceAlpha" type="matrix" values="0 0 0 0 0 0 0 0 0 0 0 0 0 0 0 0 0 0 127 0"/>
<feOffset dy="5"/>
<feGaussianBlur stdDeviation="5"/>
<feColorMatrix type="matrix" values="0 0 0 0 0 0 0 0 0 0 0 0 0 0 0 0 0 0 0.15 0"/>
<feBlend mode="normal" in2="BackgroundImageFix" result="effect1_dropShadow"/>
<feBlend mode="normal" in="SourceGraphic" in2="effect1_dropShadow" result="shape"/>
<feColorMatrix in="SourceAlpha" type="matrix" values="0 0 0 0 0 0 0 0 0 0 0 0 0 0 0 0 0 0 127 0" result="hardAlpha"/>
<feOffset dy="-1"/>
<feGaussianBlur stdDeviation="1"/>
<feComposite in2="hardAlpha" operator="arithmetic" k2="-1" k3="1"/>
<feColorMatrix type="matrix" values="0 0 0 0 0 0 0 0 0 0 0 0 0 0 0 0 0 0 0.2 0"/>
<feBlend mode="normal" in2="shape" result="effect2_innerShadow"/>
</filter>
<filter id="filter1_di" x="172" y="295.5" width="87" height="87" filterUnits="userSpaceOnUse" color-interpolation-filters="sRGB">
<feFlood flood-opacity="0" result="BackgroundImageFix"/>
<feColorMatrix in="SourceAlpha" type="matrix" values="0 0 0 0 0 0 0 0 0 0 0 0 0 0 0 0 0 0 127 0"/>
<feOffset dy="5"/>
<feGaussianBlur stdDeviation="5"/>
<feColorMatrix type="matrix" values="0 0 0 0 0 0 0 0 0 0 0 0 0 0 0 0 0 0 0.15 0"/>
<feBlend mode="normal" in2="BackgroundImageFix" result="effect1_dropShadow"/>
<feBlend mode="normal" in="SourceGraphic" in2="effect1_dropShadow" result="shape"/>
<feColorMatrix in="SourceAlpha" type="matrix" values="0 0 0 0 0 0 0 0 0 0 0 0 0 0 0 0 0 0 127 0" result="hardAlpha"/>
<feOffset dy="-1"/>
<feGaussianBlur stdDeviation="1"/>
<feComposite in2="hardAlpha" operator="arithmetic" k2="-1" k3="1"/>
<feColorMatrix type="matrix" values="0 0 0 0 0 0 0 0 0 0 0 0 0 0 0 0 0 0 0.2 0"/>
<feBlend mode="normal" in2="shape" result="effect2_innerShadow"/>
</filter>
<filter id="filter2_di" x="27" y="38.5" width="87" height="87" filterUnits="userSpaceOnUse" color-interpolation-filters="sRGB">
<feFlood flood-opacity="0" result="BackgroundImageFix"/>
<feColorMatrix in="SourceAlpha" type="matrix" values="0 0 0 0 0 0 0 0 0 0 0 0 0 0 0 0 0 0 127 0"/>
<feOffset dy="5"/>
<feGaussianBlur stdDeviation="5"/>
<feColorMatrix type="matrix" values="0 0 0 0 0 0 0 0 0 0 0 0 0 0 0 0 0 0 0.15 0"/>
<feBlend mode="normal" in2="BackgroundImageFix" result="effect1_dropShadow"/>
<feBlend mode="normal" in="SourceGraphic" in2="effect1_dropShadow" result="shape"/>
<feColorMatrix in="SourceAlpha" type="matrix" values="0 0 0 0 0 0 0 0 0 0 0 0 0 0 0 0 0 0 127 0" result="hardAlpha"/>
<feOffset dy="-1"/>
<feGaussianBlur stdDeviation="1"/>
<feComposite in2="hardAlpha" operator="arithmetic" k2="-1" k3="1"/>
<feColorMatrix type="matrix" values="0 0 0 0 0 0 0 0 0 0 0 0 0 0 0 0 0 0 0.2 0"/>
<feBlend mode="normal" in2="shape" result="effect2_innerShadow"/>
</filter>
<filter id="filter3_d" x="0" y="0.5" width="141.847" height="80.1724" filterUnits="userSpaceOnUse" color-interpolation-filters="sRGB">
<feFlood flood-opacity="0" result="BackgroundImageFix"/>
<feColorMatrix in="SourceAlpha" type="matrix" values="0 0 0 0 0 0 0 0 0 0 0 0 0 0 0 0 0 0 127 0"/>
<feOffset dy="5"/>
<feGaussianBlur stdDeviation="5"/>
<feColorMatrix type="matrix" values="0 0 0 0 0.179123 0 0 0 0 0.141873 0 0 0 0 0.107897 0 0 0 0.1 0"/>
<feBlend mode="normal" in2="BackgroundImageFix" result="effect1_dropShadow"/>
<feBlend mode="normal" in="SourceGraphic" in2="effect1_dropShadow" result="shape"/>
</filter>
<filter id="filter4_d" x="270" y="144.5" width="141.847" height="80.1724" filterUnits="userSpaceOnUse" color-interpolation-filters="sRGB">
<feFlood flood-opacity="0" result="BackgroundImageFix"/>
<feColorMatrix in="SourceAlpha" type="matrix" values="0 0 0 0 0 0 0 0 0 0 0 0 0 0 0 0 0 0 127 0"/>
<feOffset dy="5"/>
<feGaussianBlur stdDeviation="5"/>
<feColorMatrix type="matrix" values="0 0 0 0 0.179123 0 0 0 0 0.141873 0 0 0 0 0.107897 0 0 0 0.1 0"/>
<feBlend mode="normal" in2="BackgroundImageFix" result="effect1_dropShadow"/>
<feBlend mode="normal" in="SourceGraphic" in2="effect1_dropShadow" result="shape"/>
</filter>
<filter id="filter5_d" x="146" y="255.5" width="141.847" height="80.1724" filterUnits="userSpaceOnUse" color-interpolation-filters="sRGB">
<feFlood flood-opacity="0" result="BackgroundImageFix"/>
<feColorMatrix in="SourceAlpha" type="matrix" values="0 0 0 0 0 0 0 0 0 0 0 0 0 0 0 0 0 0 127 0"/>
<feOffset dy="5"/>
<feGaussianBlur stdDeviation="5"/>
<feColorMatrix type="matrix" values="0 0 0 0 0.179123 0 0 0 0 0.141873 0 0 0 0 0.107897 0 0 0 0.1 0"/>
<feBlend mode="normal" in2="BackgroundImageFix" result="effect1_dropShadow"/>
<feBlend mode="normal" in="SourceGraphic" in2="effect1_dropShadow" result="shape"/>
</filter>
<linearGradient id="paint0_linear" x1="340.5" y1="187.5" x2="340.5" y2="254.5" gradientUnits="userSpaceOnUse">
<stop stop-color="white"/>
<stop offset="1" stop-color="white" stop-opacity="0"/>
</linearGradient>
<linearGradient id="paint1_linear" x1="215.5" y1="300.5" x2="215.5" y2="367.5" gradientUnits="userSpaceOnUse">
<stop stop-color="white"/>
<stop offset="1" stop-color="white" stop-opacity="0"/>
</linearGradient>
<linearGradient id="paint2_linear" x1="70.5" y1="43.5" x2="70.5" y2="110.5" gradientUnits="userSpaceOnUse">
<stop stop-color="white"/>
<stop offset="1" stop-color="white" stop-opacity="0"/>
</linearGradient>
</defs>
</svg>
