<svg width="670" height="395" viewBox="0 0 670 395" fill="none" xmlns="http://www.w3.org/2000/svg">
<g filter="url(#filter0_d)">
<rect x="10.5" y="7.5" width="649" height="374" rx="9.5" fill="#F1F2F4" stroke="#D7D7D7"/>
<g filter="url(#filter1_ii)">
<path d="M10 17C10 11.4772 14.4772 7 20 7H650C655.523 7 660 11.4772 660 17V37H10V17Z" fill="#DEDFE1"/>
</g>
<path d="M10.5 17C10.5 11.7533 14.7533 7.5 20 7.5H650C655.247 7.5 659.5 11.7533 659.5 17V36.5H10.5V17Z" stroke="#D7D7D7"/>
<path d="M302.946 17.7207C302.946 17.6855 302.957 17.6562 302.981 17.6328C303.004 17.6094 303.034 17.5977 303.069 17.5977H304.147C304.182 17.5977 304.211 17.6094 304.235 17.6328C304.258 17.6562 304.27 17.6855 304.27 17.7207V18.7988C304.27 18.834 304.258 18.8633 304.235 18.8867C304.211 18.9102 304.182 18.9219 304.147 18.9219H303.069C303.034 18.9219 303.004 18.9102 302.981 18.8867C302.957 18.8633 302.946 18.834 302.946 18.7988V17.7207ZM304.03 26H303.186C303.108 26 303.069 25.9609 303.069 25.8828V20.1172C303.069 20.0391 303.108 20 303.186 20H304.03C304.108 20 304.147 20.0391 304.147 20.1172V25.8828C304.147 25.9609 304.108 26 304.03 26ZM306.668 25.8828V20.1172C306.668 20.0391 306.707 20 306.785 20H307.629C307.707 20 307.746 20.0391 307.746 20.1172L307.676 21.1309C307.809 20.7363 308.047 20.4297 308.391 20.2109C308.739 19.9922 309.172 19.8828 309.692 19.8828C310.125 19.8828 310.493 19.957 310.793 20.1055C311.098 20.25 311.336 20.4648 311.508 20.75C311.68 21.0352 311.803 21.3594 311.877 21.7227C311.955 22.0859 311.998 22.5117 312.006 23V25.8828C312.006 25.9609 311.967 26 311.889 26H311.034C310.955 26 310.916 25.9609 310.916 25.8828L310.928 23C310.932 22.1602 310.819 21.5703 310.588 21.2305C310.362 20.8906 309.975 20.7207 309.428 20.7207C308.881 20.7207 308.465 20.8965 308.18 21.248C307.895 21.5957 307.75 22.1797 307.746 23V25.8828C307.746 25.9609 307.707 26 307.629 26H306.785C306.707 26 306.668 25.9609 306.668 25.8828ZM314.41 17.7207C314.41 17.6855 314.422 17.6562 314.446 17.6328C314.469 17.6094 314.498 17.5977 314.533 17.5977H315.612C315.647 17.5977 315.676 17.6094 315.699 17.6328C315.723 17.6562 315.735 17.6855 315.735 17.7207V18.7988C315.735 18.834 315.723 18.8633 315.699 18.8867C315.676 18.9102 315.647 18.9219 315.612 18.9219H314.533C314.498 18.9219 314.469 18.9102 314.446 18.8867C314.422 18.8633 314.41 18.834 314.41 18.7988V17.7207ZM315.494 26H314.651C314.573 26 314.533 25.9609 314.533 25.8828V20.1172C314.533 20.0391 314.573 20 314.651 20H315.494C315.573 20 315.612 20.0391 315.612 20.1172V25.8828C315.612 25.9609 315.573 26 315.494 26ZM321.35 20.8379L319.692 20.7793V24.6816C319.692 24.7949 319.723 24.8828 319.785 24.9453C319.852 25.0078 319.942 25.0391 320.055 25.0391H321.35C321.428 25.0391 321.467 25.0801 321.467 25.1621V25.8828C321.467 25.9609 321.428 26 321.35 26H320.172C319.699 26 319.32 25.8594 319.035 25.5781C318.754 25.2969 318.613 24.918 318.613 24.4414V20.7793L317.77 20.8379C317.692 20.8379 317.653 20.7988 317.653 20.7207V20.1172C317.653 20.0391 317.692 20 317.77 20L318.613 20.0586V18.6816C318.613 18.5996 318.653 18.5586 318.731 18.5586H319.574C319.653 18.5586 319.692 18.5996 319.692 18.6816V20.0586L321.35 20C321.428 20 321.467 20.0391 321.467 20.1172V20.7207C321.467 20.7988 321.428 20.8379 321.35 20.8379ZM323.684 24.7988C323.684 24.7207 323.725 24.6816 323.807 24.6816H324.885C324.963 24.6816 325.002 24.7207 325.002 24.7988V25.8828C325.002 25.9609 324.963 26 324.885 26H323.807C323.725 26 323.684 25.9609 323.684 25.8828V24.7988ZM330.494 19.8828C331.268 19.8828 331.887 20.1562 332.352 20.7031C332.816 21.25 333.049 21.9961 333.049 22.9414C333.049 23.8945 332.816 24.6621 332.352 25.2441C331.891 25.8262 331.271 26.1172 330.494 26.1172C329.893 26.1172 329.434 26.0039 329.117 25.7773C328.801 25.5508 328.582 25.2168 328.461 24.7754L328.549 28.2793C328.549 28.3145 328.537 28.3438 328.514 28.3672C328.49 28.3906 328.461 28.4023 328.426 28.4023H327.588C327.553 28.4023 327.523 28.3906 327.5 28.3672C327.477 28.3438 327.465 28.3145 327.465 28.2793V20.1172C327.465 20.0391 327.506 20 327.588 20H328.426C328.508 20 328.549 20.0391 328.549 20.1172L328.514 20.9961C328.646 20.625 328.865 20.3477 329.17 20.1641C329.479 19.9766 329.92 19.8828 330.494 19.8828ZM330.254 25.2793C330.828 25.2793 331.256 25.0723 331.537 24.6582C331.822 24.2402 331.965 23.668 331.965 22.9414C331.965 21.4609 331.395 20.7207 330.254 20.7207C329.68 20.7207 329.252 20.9121 328.971 21.2949C328.689 21.6777 328.549 22.2266 328.549 22.9414C328.549 23.668 328.689 24.2402 328.971 24.6582C329.256 25.0723 329.684 25.2793 330.254 25.2793ZM336.01 28.4023C335.967 28.4023 335.935 28.3867 335.916 28.3555C335.9 28.3281 335.9 28.2949 335.916 28.2559L336.859 26H336.695C336.625 26 336.58 25.9688 336.56 25.9062L334.316 20.0938C334.293 20.0312 334.314 20 334.381 20H335.348C335.398 20 335.428 20.0234 335.435 20.0703L337.316 24.9219L339.191 20.0703C339.199 20.0234 339.226 20 339.273 20H340.246C340.309 20 340.328 20.0312 340.305 20.0938L337.141 28.3027C337.117 28.3691 337.072 28.4023 337.006 28.4023H336.01ZM345.392 20.8379L343.734 20.7793V24.6816C343.734 24.7949 343.765 24.8828 343.828 24.9453C343.894 25.0078 343.984 25.0391 344.098 25.0391H345.392C345.471 25.0391 345.51 25.0801 345.51 25.1621V25.8828C345.51 25.9609 345.471 26 345.392 26H344.215C343.742 26 343.363 25.8594 343.078 25.5781C342.797 25.2969 342.656 24.918 342.656 24.4414V20.7793L341.812 20.8379C341.734 20.8379 341.695 20.7988 341.695 20.7207V20.1172C341.695 20.0391 341.734 20 341.812 20L342.656 20.0586V18.6816C342.656 18.5996 342.695 18.5586 342.773 18.5586H343.617C343.695 18.5586 343.734 18.5996 343.734 18.6816V20.0586L345.392 20C345.471 20 345.51 20.0391 345.51 20.1172V20.7207C345.51 20.7988 345.471 20.8379 345.392 20.8379ZM350.451 19.8828C351.967 19.8828 352.738 20.9219 352.765 23V25.8828C352.765 25.9609 352.726 26 352.648 26H351.793C351.715 26 351.676 25.9609 351.676 25.8828L351.687 23C351.691 22.1602 351.578 21.5703 351.347 21.2305C351.121 20.8906 350.734 20.7207 350.187 20.7207C349.64 20.7207 349.224 20.8965 348.939 21.248C348.654 21.5957 348.51 22.1797 348.506 23V25.8828C348.506 25.9609 348.467 26 348.388 26H347.545C347.467 26 347.427 25.9609 347.427 25.8828V17.7207C347.427 17.6387 347.467 17.5977 347.545 17.5977H348.388C348.467 17.5977 348.506 17.6387 348.506 17.7207L348.424 21.166C348.552 20.7598 348.789 20.4453 349.133 20.2227C349.48 19.9961 349.92 19.8828 350.451 19.8828ZM355.17 17.7207C355.17 17.6855 355.181 17.6562 355.205 17.6328C355.228 17.6094 355.257 17.5977 355.293 17.5977H356.371C356.406 17.5977 356.435 17.6094 356.459 17.6328C356.482 17.6562 356.494 17.6855 356.494 17.7207V18.7988C356.494 18.834 356.482 18.8633 356.459 18.8867C356.435 18.9102 356.406 18.9219 356.371 18.9219H355.293C355.257 18.9219 355.228 18.9102 355.205 18.8867C355.181 18.8633 355.17 18.834 355.17 18.7988V17.7207ZM356.254 26H355.41C355.332 26 355.293 25.9609 355.293 25.8828V20.1172C355.293 20.0391 355.332 20 355.41 20H356.254C356.332 20 356.371 20.0391 356.371 20.1172V25.8828C356.371 25.9609 356.332 26 356.254 26ZM363.814 20C363.892 20 363.931 20.0391 363.931 20.1172V25.8828C363.931 25.9609 363.892 26 363.814 26H362.97C362.892 26 362.853 25.9609 362.853 25.8828L362.888 25.0039C362.755 25.375 362.535 25.6543 362.226 25.8418C361.921 26.0254 361.482 26.1172 360.908 26.1172C360.134 26.1172 359.515 25.8438 359.05 25.2969C358.586 24.75 358.353 24.0039 358.353 23.0586C358.353 22.1055 358.584 21.3379 359.045 20.7559C359.509 20.1738 360.13 19.8828 360.908 19.8828C361.482 19.8828 361.923 19.9844 362.232 20.1875C362.545 20.3867 362.763 20.6875 362.888 21.0898L362.853 20.1172C362.853 20.0391 362.892 20 362.97 20H363.814ZM361.148 25.2793C361.722 25.2793 362.15 25.0879 362.431 24.7051C362.713 24.3223 362.853 23.7734 362.853 23.0586C362.853 22.332 362.711 21.7617 362.425 21.3477C362.144 20.9297 361.718 20.7207 361.148 20.7207C360.574 20.7207 360.144 20.9297 359.859 21.3477C359.574 21.7617 359.431 22.332 359.431 23.0586C359.431 24.5391 360.004 25.2793 361.148 25.2793Z" fill="black" fill-opacity="0.5"/>
<path d="M39.082 65.1465C38.7305 65.1465 38.4004 65.082 38.0918 64.9531C37.7871 64.8242 37.5391 64.6289 37.3477 64.3672C37.1602 64.1055 37.0664 63.7891 37.0664 63.418C37.0664 63.0117 37.1641 62.6836 37.3594 62.4336C37.5547 62.1836 37.7988 61.998 38.0918 61.877C38.3848 61.752 38.7227 61.6523 39.1055 61.5781L41.0859 61.1973C41.0859 60.9004 41.0723 60.6738 41.0449 60.5176C41.0215 60.3574 40.9688 60.2188 40.8867 60.1016C40.8008 59.9805 40.6621 59.8848 40.4707 59.8145C40.2793 59.7441 40.0527 59.709 39.791 59.709C39.2715 59.709 38.8965 59.8105 38.666 60.0137C38.4395 60.2168 38.3262 60.5469 38.3262 61.0039L37.2715 60.8574C37.2832 60.498 37.3516 60.1875 37.4766 59.9258C37.6016 59.6641 37.7812 59.4551 38.0156 59.2988C38.2344 59.1543 38.498 59.0449 38.8066 58.9707C39.1191 58.8926 39.4668 58.8535 39.8496 58.8535C40.6035 58.8535 41.1719 59.0215 41.5547 59.3574C41.9414 59.6895 42.1348 60.1816 42.1348 60.834V63.7051C42.1348 63.8301 42.1406 63.9219 42.1523 63.9805C42.1641 64.0391 42.1934 64.084 42.2402 64.1152C42.291 64.1465 42.3711 64.1621 42.4805 64.1621C42.582 64.1621 42.6973 64.1445 42.8262 64.1094L42.8496 65C42.6465 65.0312 42.4238 65.0469 42.1816 65.0469C41.5215 65.0469 41.1602 64.7344 41.0977 64.1094C40.7617 64.8008 40.0898 65.1465 39.082 65.1465ZM39.252 64.2793C39.873 64.2793 40.334 64.1367 40.6348 63.8516C40.9355 63.5664 41.0859 63.1934 41.0859 62.7324V62L39.2754 62.3984C39.0332 62.4531 38.834 62.5156 38.6777 62.5859C38.5254 62.6523 38.4023 62.752 38.3086 62.8848C38.2188 63.0137 38.1738 63.1875 38.1738 63.4062C38.1738 63.6758 38.2773 63.8887 38.4844 64.0449C38.6914 64.2012 38.9473 64.2793 39.252 64.2793ZM50.4394 59.5273C50.6386 59.7461 50.7655 60.0117 50.8202 60.3242C50.8788 60.6328 50.9081 61.0039 50.9081 61.4375V65H49.789V61.4961C49.789 61.2578 49.7831 61.0664 49.7714 60.9219C49.7597 60.7734 49.7284 60.6289 49.6777 60.4883C49.6269 60.3438 49.5448 60.2148 49.4316 60.1016C49.2792 59.9531 49.1191 59.8594 48.9511 59.8203C48.7831 59.7773 48.5859 59.7559 48.3593 59.7559C47.9687 59.7559 47.6112 59.8906 47.287 60.1602C46.9628 60.4297 46.8007 60.9395 46.8007 61.6895V65H45.7226V59H46.8007V59.9199C47.1171 59.209 47.7343 58.8535 48.6523 58.8535C49.0468 58.8535 49.3886 58.9082 49.6777 59.0176C49.9667 59.127 50.2206 59.2969 50.4394 59.5273ZM56.7752 65.1465C56.1541 65.1465 55.619 65.0215 55.1698 64.7715C54.7205 64.5176 54.3748 64.1543 54.1327 63.6816C53.8944 63.209 53.7752 62.6484 53.7752 62C53.7752 61.3906 53.8963 60.8496 54.1385 60.377C54.3807 59.9004 54.7284 59.5273 55.1815 59.2578C55.6346 58.9883 56.1659 58.8535 56.7752 58.8535C57.3729 58.8535 57.8983 58.9883 58.3514 59.2578C58.8045 59.5273 59.1522 59.9023 59.3944 60.3828C59.6405 60.8594 59.7635 61.3984 59.7635 62C59.7635 62.6211 59.6385 63.1699 59.3885 63.6465C59.1424 64.123 58.7928 64.4922 58.3397 64.7539C57.8905 65.0156 57.369 65.1465 56.7752 65.1465ZM56.7752 64.291C57.4237 64.291 57.8885 64.0957 58.1698 63.7051C58.4549 63.3145 58.5975 62.7461 58.5975 62C58.5975 61.2539 58.4549 60.6855 58.1698 60.2949C57.8885 59.9043 57.4237 59.709 56.7752 59.709C56.1151 59.709 55.6444 59.9043 55.3631 60.2949C55.0819 60.6816 54.9412 61.25 54.9412 62C54.9412 62.7539 55.0799 63.3242 55.3573 63.7109C55.6385 64.0977 56.1112 64.291 56.7752 64.291ZM67.4822 59.5273C67.6814 59.7461 67.8084 60.0117 67.863 60.3242C67.9216 60.6328 67.9509 61.0039 67.9509 61.4375V65H66.8318V61.4961C66.8318 61.2578 66.8259 61.0664 66.8142 60.9219C66.8025 60.7734 66.7712 60.6289 66.7205 60.4883C66.6697 60.3438 66.5877 60.2148 66.4744 60.1016C66.322 59.9531 66.1619 59.8594 65.9939 59.8203C65.8259 59.7773 65.6287 59.7559 65.4021 59.7559C65.0115 59.7559 64.6541 59.8906 64.3298 60.1602C64.0056 60.4297 63.8435 60.9395 63.8435 61.6895V65H62.7654V59H63.8435V59.9199C64.1599 59.209 64.7771 58.8535 65.6951 58.8535C66.0896 58.8535 66.4314 58.9082 66.7205 59.0176C67.0095 59.127 67.2634 59.2969 67.4822 59.5273ZM73.0739 63.4766H74.527V65H73.0739V63.4766ZM73.0739 59.4219H74.527V60.9453H73.0739V59.4219ZM85.4098 64.0859V65H79.7496V64.0859H82.1344V59.9141H80.0953V59H83.2125V64.0859H85.4098ZM81.9469 56.4102H83.2418V57.9336H81.9469V56.4102ZM93.0464 59.5273C93.2456 59.7461 93.3726 60.0117 93.4273 60.3242C93.4859 60.6328 93.5152 61.0039 93.5152 61.4375V65H92.396V61.4961C92.396 61.2578 92.3902 61.0664 92.3784 60.9219C92.3667 60.7734 92.3355 60.6289 92.2847 60.4883C92.2339 60.3438 92.1519 60.2148 92.0386 60.1016C91.8862 59.9531 91.7261 59.8594 91.5581 59.8203C91.3902 59.7773 91.1929 59.7559 90.9663 59.7559C90.5757 59.7559 90.2183 59.8906 89.8941 60.1602C89.5698 60.4297 89.4077 60.9395 89.4077 61.6895V65H88.3296V59H89.4077V59.9199C89.7241 59.209 90.3413 58.8535 91.2593 58.8535C91.6538 58.8535 91.9956 58.9082 92.2847 59.0176C92.5737 59.127 92.8277 59.2969 93.0464 59.5273ZM102.453 64.0859V65H96.7924V64.0859H99.1772V59.9141H97.1381V59H100.255V64.0859H102.453ZM98.9897 56.4102H100.285V57.9336H98.9897V56.4102ZM109.058 65.0586C108.562 65.0586 108.16 65.0039 107.851 64.8945C107.542 64.7812 107.314 64.6035 107.165 64.3613C107.017 64.1191 106.943 63.7969 106.943 63.3945V59.9141H105.285V59H106.943V57.3301H108.009V59H110.195V59.9141H108.009V63.3535C108.009 63.5449 108.044 63.6934 108.115 63.7988C108.189 63.9043 108.306 63.9785 108.466 64.0215C108.626 64.0645 108.851 64.0859 109.14 64.0859C109.3 64.0859 109.472 64.0742 109.656 64.0508C109.839 64.0234 110.003 63.9883 110.148 63.9453L110.171 64.9414C110.05 64.9727 109.884 65 109.673 65.0234C109.466 65.0469 109.261 65.0586 109.058 65.0586ZM113.531 65.791H119.29V66.6348H113.531V65.791ZM125.345 58.8535C125.876 58.8535 126.351 58.9805 126.769 59.2344C127.187 59.4883 127.513 59.8535 127.747 60.3301C127.986 60.8027 128.105 61.3594 128.105 62C128.105 62.625 127.989 63.1758 127.759 63.6523C127.532 64.1289 127.212 64.498 126.798 64.7598C126.388 65.0176 125.915 65.1465 125.38 65.1465C124.536 65.1465 123.892 64.8379 123.446 64.2207V67.4023H122.368V59H123.446V59.873C123.896 59.1934 124.529 58.8535 125.345 58.8535ZM125.128 64.2793C125.773 64.2793 126.232 64.0898 126.505 63.7109C126.779 63.3281 126.915 62.7578 126.915 62C126.915 61.5 126.863 61.084 126.757 60.752C126.655 60.4199 126.476 60.1641 126.218 59.9844C125.96 59.8008 125.605 59.709 125.152 59.709C124.573 59.709 124.138 59.9004 123.845 60.2832C123.556 60.6621 123.411 61.2305 123.411 61.9883C123.411 62.668 123.53 63.2207 123.769 63.6465C124.011 64.0684 124.464 64.2793 125.128 64.2793ZM136.333 59L133.89 65.5508C133.718 66.0078 133.55 66.373 133.386 66.6465C133.222 66.9238 133.038 67.1289 132.835 67.2617C132.632 67.3945 132.392 67.4609 132.114 67.4609C131.802 67.4609 131.485 67.4199 131.165 67.3379L131.189 66.3184C131.466 66.416 131.726 66.4648 131.968 66.4648C132.112 66.4648 132.239 66.4121 132.349 66.3066C132.458 66.2012 132.56 66.0488 132.653 65.8496C132.747 65.6504 132.874 65.3496 133.034 64.9473L130.696 59H131.845L132.987 62.2402C133.194 62.8457 133.372 63.377 133.521 63.834C133.747 63.1309 133.925 62.5996 134.054 62.2402L135.208 59H136.333ZM143.144 65.0586C142.647 65.0586 142.245 65.0039 141.937 64.8945C141.628 64.7812 141.399 64.6035 141.251 64.3613C141.103 64.1191 141.028 63.7969 141.028 63.3945V59.9141H139.37V59H141.028V57.3301H142.095V59H144.28V59.9141H142.095V63.3535C142.095 63.5449 142.13 63.6934 142.2 63.7988C142.274 63.9043 142.392 63.9785 142.552 64.0215C142.712 64.0645 142.937 64.0859 143.226 64.0859C143.386 64.0859 143.558 64.0742 143.741 64.0508C143.925 64.0234 144.089 63.9883 144.233 63.9453L144.257 64.9414C144.136 64.9727 143.97 65 143.759 65.0234C143.552 65.0469 143.347 65.0586 143.144 65.0586ZM152.696 59.5273C152.895 59.7461 153.022 60.0078 153.077 60.3125C153.136 60.6172 153.165 60.9844 153.165 61.4141V65H152.046V61.4727C152.046 61.2227 152.04 61.0293 152.028 60.8926C152.02 60.752 151.991 60.6133 151.94 60.4766C151.89 60.3359 151.806 60.2109 151.688 60.1016C151.536 59.9531 151.376 59.8594 151.208 59.8203C151.04 59.7773 150.843 59.7559 150.616 59.7559C149.577 59.7559 149.058 60.3809 149.058 61.6309V65H147.979V56.5977H149.058V59.9023C149.222 59.5508 149.462 59.2891 149.778 59.1172C150.099 58.9414 150.476 58.8535 150.909 58.8535C151.304 58.8535 151.645 58.9082 151.935 59.0176C152.224 59.127 152.478 59.2969 152.696 59.5273ZM162.102 64.0859V65H156.442V64.0859H158.827V59.9141H156.788V59H159.905V64.0859H162.102ZM158.64 56.4102H159.934V57.9336H158.64V56.4102ZM166.903 65.1465C166.552 65.1465 166.221 65.082 165.913 64.9531C165.608 64.8242 165.36 64.6289 165.169 64.3672C164.981 64.1055 164.887 63.7891 164.887 63.418C164.887 63.0117 164.985 62.6836 165.18 62.4336C165.376 62.1836 165.62 61.998 165.913 61.877C166.206 61.752 166.544 61.6523 166.927 61.5781L168.907 61.1973C168.907 60.9004 168.893 60.6738 168.866 60.5176C168.843 60.3574 168.79 60.2188 168.708 60.1016C168.622 59.9805 168.483 59.8848 168.292 59.8145C168.1 59.7441 167.874 59.709 167.612 59.709C167.093 59.709 166.718 59.8105 166.487 60.0137C166.261 60.2168 166.147 60.5469 166.147 61.0039L165.093 60.8574C165.104 60.498 165.173 60.1875 165.298 59.9258C165.423 59.6641 165.602 59.4551 165.837 59.2988C166.055 59.1543 166.319 59.0449 166.628 58.9707C166.94 58.8926 167.288 58.8535 167.671 58.8535C168.425 58.8535 168.993 59.0215 169.376 59.3574C169.762 59.6895 169.956 60.1816 169.956 60.834V63.7051C169.956 63.8301 169.962 63.9219 169.973 63.9805C169.985 64.0391 170.014 64.084 170.061 64.1152C170.112 64.1465 170.192 64.1621 170.302 64.1621C170.403 64.1621 170.518 64.1445 170.647 64.1094L170.671 65C170.468 65.0312 170.245 65.0469 170.003 65.0469C169.343 65.0469 168.981 64.7344 168.919 64.1094C168.583 64.8008 167.911 65.1465 166.903 65.1465ZM167.073 64.2793C167.694 64.2793 168.155 64.1367 168.456 63.8516C168.757 63.5664 168.907 63.1934 168.907 62.7324V62L167.096 62.3984C166.854 62.4531 166.655 62.5156 166.499 62.5859C166.346 62.6523 166.223 62.752 166.13 62.8848C166.04 63.0137 165.995 63.1875 165.995 63.4062C165.995 63.6758 166.098 63.8887 166.305 64.0449C166.512 64.2012 166.768 64.2793 167.073 64.2793ZM186.782 59.5273C186.981 59.7461 187.108 60.0117 187.163 60.3242C187.221 60.6328 187.251 61.0039 187.251 61.4375V65H186.131V61.4961C186.131 61.2578 186.126 61.0664 186.114 60.9219C186.102 60.7734 186.071 60.6289 186.02 60.4883C185.969 60.3438 185.887 60.2148 185.774 60.1016C185.622 59.9531 185.462 59.8594 185.294 59.8203C185.126 59.7773 184.928 59.7559 184.702 59.7559C184.311 59.7559 183.954 59.8906 183.63 60.1602C183.305 60.4297 183.143 60.9395 183.143 61.6895V65H182.065V59H183.143V59.9199C183.46 59.209 184.077 58.8535 184.995 58.8535C185.389 58.8535 185.731 58.9082 186.02 59.0176C186.309 59.127 186.563 59.2969 186.782 59.5273ZM193.118 65.1465C192.497 65.1465 191.961 65.0215 191.512 64.7715C191.063 64.5176 190.717 64.1543 190.475 63.6816C190.237 63.209 190.118 62.6484 190.118 62C190.118 61.3906 190.239 60.8496 190.481 60.377C190.723 59.9004 191.071 59.5273 191.524 59.2578C191.977 58.9883 192.508 58.8535 193.118 58.8535C193.715 58.8535 194.241 58.9883 194.694 59.2578C195.147 59.5273 195.495 59.9023 195.737 60.3828C195.983 60.8594 196.106 61.3984 196.106 62C196.106 62.6211 195.981 63.1699 195.731 63.6465C195.485 64.123 195.135 64.4922 194.682 64.7539C194.233 65.0156 193.711 65.1465 193.118 65.1465ZM193.118 64.291C193.766 64.291 194.231 64.0957 194.512 63.7051C194.797 63.3145 194.94 62.7461 194.94 62C194.94 61.2539 194.797 60.6855 194.512 60.2949C194.231 59.9043 193.766 59.709 193.118 59.709C192.458 59.709 191.987 59.9043 191.706 60.2949C191.424 60.6816 191.284 61.25 191.284 62C191.284 62.7539 191.422 63.3242 191.7 63.7109C191.981 64.0977 192.454 64.291 193.118 64.291ZM204.264 56.5977V65H203.186V64.127C202.737 64.8066 202.106 65.1465 201.293 65.1465C200.758 65.1465 200.282 65.0195 199.864 64.7656C199.446 64.5117 199.118 64.1484 198.879 63.6758C198.645 63.1992 198.528 62.6406 198.528 62C198.528 61.375 198.641 60.8242 198.868 60.3477C199.098 59.8711 199.418 59.5039 199.829 59.2461C200.243 58.9844 200.717 58.8535 201.252 58.8535C202.096 58.8535 202.741 59.1621 203.186 59.7793V56.5977H204.264ZM201.481 64.291C202.059 64.291 202.493 64.1016 202.782 63.7227C203.075 63.3398 203.221 62.7695 203.221 62.0117C203.221 61.332 203.1 60.7812 202.858 60.3594C202.62 59.9336 202.168 59.7207 201.504 59.7207C200.86 59.7207 200.401 59.9121 200.127 60.2949C199.854 60.6738 199.717 61.2422 199.717 62C199.717 62.5 199.768 62.916 199.87 63.248C199.975 63.5801 200.157 63.8379 200.415 64.0215C200.672 64.2012 201.028 64.291 201.481 64.291ZM212.51 60.043C212.67 60.2969 212.795 60.5996 212.885 60.9512C212.975 61.3027 213.02 61.668 213.02 62.0469C213.02 62.168 213.018 62.2598 213.014 62.3223H208.467C208.479 62.9863 208.623 63.4785 208.901 63.7988C209.182 64.1191 209.606 64.2793 210.172 64.2793C210.68 64.2793 211.075 64.1699 211.356 63.9512C211.637 63.7285 211.815 63.3906 211.889 62.9375L212.932 63.0195C212.799 63.7188 212.498 64.248 212.03 64.6074C211.565 64.9668 210.95 65.1465 210.184 65.1465C209.27 65.1465 208.549 64.8535 208.022 64.2676C207.534 63.7207 207.289 62.9609 207.289 61.9883C207.289 61.5391 207.352 61.125 207.477 60.7461C207.606 60.3633 207.795 60.0332 208.045 59.7559C208.311 59.459 208.623 59.2344 208.983 59.082C209.342 58.9297 209.739 58.8535 210.172 58.8535C210.657 58.8535 211.106 58.957 211.52 59.1641C211.938 59.3672 212.268 59.6602 212.51 60.043ZM210.184 59.7324C209.852 59.7324 209.563 59.791 209.317 59.9082C209.071 60.0215 208.887 60.1797 208.766 60.3828C208.668 60.5469 208.596 60.7227 208.549 60.9102C208.506 61.0938 208.483 61.2734 208.479 61.4492H211.913C211.905 61.2773 211.871 61.0918 211.813 60.8926C211.758 60.6895 211.684 60.5195 211.59 60.3828C211.434 60.1562 211.243 59.9922 211.016 59.8906C210.789 59.7852 210.512 59.7324 210.184 59.7324ZM218.67 56.6387C219.319 56.6387 219.864 56.8184 220.305 57.1777C220.75 57.5332 221.082 58.0293 221.301 58.666C221.524 59.3027 221.635 60.043 221.635 60.8867C221.635 61.7383 221.524 62.4844 221.301 63.125C221.082 63.7656 220.75 64.2637 220.305 64.6191C219.864 64.9707 219.319 65.1465 218.67 65.1465C217.701 65.1465 216.965 64.7871 216.461 64.0684C215.957 63.3457 215.705 62.2852 215.705 60.8867C215.705 60.0391 215.815 59.2969 216.034 58.6602C216.252 58.0234 216.582 57.5273 217.024 57.1719C217.469 56.8164 218.018 56.6387 218.67 56.6387ZM218.67 57.5586C218.194 57.5586 217.823 57.6836 217.557 57.9336C217.295 58.1836 217.114 58.5488 217.012 59.0293C216.91 59.5059 216.86 60.125 216.86 60.8867C216.86 61.8477 216.94 62.5762 217.1 63.0723L219.625 57.8164C219.375 57.6445 219.057 57.5586 218.67 57.5586ZM218.67 64.2441C219.139 64.2441 219.504 64.1172 219.766 63.8633C220.032 63.6055 220.217 63.2344 220.323 62.75C220.428 62.2656 220.481 61.6445 220.481 60.8867C220.481 60.3867 220.459 59.9531 220.416 59.5859C220.377 59.2148 220.309 58.8965 220.211 58.6309L217.657 63.9453C217.914 64.1445 218.252 64.2441 218.67 64.2441ZM230.397 62.5508C230.397 63.4062 230.137 64.0371 229.617 64.4434C229.102 64.8457 228.453 65.0762 227.672 65.1348V65.8145H226.77V65.1172C226.25 65.0625 225.783 64.9258 225.369 64.707C224.955 64.4883 224.623 64.1855 224.373 63.7988C224.123 63.4082 223.987 62.9414 223.963 62.3984L225.117 62.2871C225.145 62.8105 225.307 63.2383 225.604 63.5703C225.901 63.8984 226.289 64.1055 226.77 64.1914V61.1973H226.758C226.266 61.0762 225.838 60.9316 225.475 60.7637C225.115 60.5918 224.815 60.3496 224.572 60.0371C224.334 59.7207 224.215 59.3145 224.215 58.8184C224.215 58.3223 224.336 57.9023 224.578 57.5586C224.824 57.2148 225.141 56.9551 225.528 56.7793C225.918 56.5996 226.332 56.4941 226.77 56.4629V55.7832H227.672V56.498C228.364 56.5879 228.928 56.834 229.365 57.2363C229.803 57.6348 230.067 58.2188 230.156 58.9883L229.026 59.1934C228.994 58.7207 228.862 58.334 228.627 58.0332C228.393 57.7285 228.074 57.5254 227.672 57.4238V60.2246C228.27 60.3379 228.756 60.4688 229.131 60.6172C229.506 60.7656 229.811 60.9941 230.045 61.3027C230.28 61.6074 230.397 62.0234 230.397 62.5508ZM225.328 58.7949C225.328 59.123 225.457 59.3848 225.715 59.5801C225.973 59.7715 226.324 59.9238 226.77 60.0371V57.3711C226.5 57.4062 226.256 57.4844 226.037 57.6055C225.822 57.7266 225.651 57.8887 225.522 58.0918C225.393 58.2949 225.328 58.5293 225.328 58.7949ZM227.672 64.209C228.145 64.1504 228.528 63.9922 228.821 63.7344C229.117 63.4766 229.266 63.1113 229.266 62.6387C229.266 62.373 229.196 62.1602 229.055 62C228.918 61.8359 228.739 61.7109 228.516 61.625C228.297 61.5391 228.016 61.4609 227.672 61.3906V64.209Z" fill="black" fill-opacity="0.9"/>
<rect x="237" y="53" width="5" height="15" fill="#C4C4C4"/>
</g>
<defs>
<filter id="filter0_d" x="0" y="0" width="670" height="395" filterUnits="userSpaceOnUse" color-interpolation-filters="sRGB">
<feFlood flood-opacity="0" result="BackgroundImageFix"/>
<feColorMatrix in="SourceAlpha" type="matrix" values="0 0 0 0 0 0 0 0 0 0 0 0 0 0 0 0 0 0 127 0"/>
<feOffset dy="3"/>
<feGaussianBlur stdDeviation="5"/>
<feColorMatrix type="matrix" values="0 0 0 0 0 0 0 0 0 0 0 0 0 0 0 0 0 0 0.15 0"/>
<feBlend mode="normal" in2="BackgroundImageFix" result="effect1_dropShadow"/>
<feBlend mode="normal" in="SourceGraphic" in2="effect1_dropShadow" result="shape"/>
</filter>
<filter id="filter1_ii" x="10" y="7" width="650" height="31" filterUnits="userSpaceOnUse" color-interpolation-filters="sRGB">
<feFlood flood-opacity="0" result="BackgroundImageFix"/>
<feBlend mode="normal" in="SourceGraphic" in2="BackgroundImageFix" result="shape"/>
<feColorMatrix in="SourceAlpha" type="matrix" values="0 0 0 0 0 0 0 0 0 0 0 0 0 0 0 0 0 0 127 0" result="hardAlpha"/>
<feMorphology radius="0.5" operator="dilate" in="SourceAlpha" result="effect1_innerShadow"/>
<feOffset dy="1"/>
<feGaussianBlur stdDeviation="0.5"/>
<feComposite in2="hardAlpha" operator="arithmetic" k2="-1" k3="1"/>
<feColorMatrix type="matrix" values="0 0 0 0 0 0 0 0 0 0 0 0 0 0 0 0 0 0 0.25 0"/>
<feBlend mode="normal" in2="shape" result="effect1_innerShadow"/>
<feColorMatrix in="SourceAlpha" type="matrix" values="0 0 0 0 0 0 0 0 0 0 0 0 0 0 0 0 0 0 127 0" result="hardAlpha"/>
<feOffset dy="1"/>
<feGaussianBlur stdDeviation="1"/>
<feComposite in2="hardAlpha" operator="arithmetic" k2="-1" k3="1"/>
<feColorMatrix type="matrix" values="0 0 0 0 1 0 0 0 0 1 0 0 0 0 1 0 0 0 1 0"/>
<feBlend mode="normal" in2="effect1_innerShadow" result="effect2_innerShadow"/>
</filter>
</defs>
</svg>
