<svg width="562" height="558" viewBox="0 0 562 558" fill="none" xmlns="http://www.w3.org/2000/svg">
<g filter="url(#filter0_dii)">
<path d="M8 9.99999C8 4.47714 12.4772 0 18 0H548C553.523 0 558 4.47715 558 10V550H8V9.99999Z" fill="white"/>
<path d="M8 9.99999C8 4.47714 12.4772 0 18 0H548C553.523 0 558 4.47715 558 10V550H8V9.99999Z" fill="#5F5CFE"/>
<path d="M8.5 9.99999C8.5 4.75329 12.7533 0.5 18 0.5H548C553.247 0.5 557.5 4.7533 557.5 10V549.5H8.5V9.99999Z" stroke="#4A47E2"/>
</g>
<path d="M383.389 535.725V536H386.564V535.725C385.776 535.625 385.326 535.537 385.326 534.925V530.162H387.164V529.725H385.326V528.662C385.326 527.537 385.776 527.187 386.401 527.187C386.914 527.187 387.201 527.55 387.351 528.2L388.501 527.725C388.251 527.112 387.464 526.737 386.526 526.737C385.314 526.737 384.264 527.487 384.264 529.062V529.725H383.226V530.162H384.264V534.962C384.264 535.512 383.889 535.637 383.389 535.725ZM390.061 534.962V529.55H389.836L388.111 530.05V530.312L388.249 530.325C388.849 530.35 389.011 530.625 389.011 531.112V534.962C389.011 535.512 388.624 535.637 388.111 535.725V536H390.949V535.725C390.449 535.637 390.061 535.512 390.061 534.962ZM388.774 527.837C388.774 528.275 389.099 528.6 389.549 528.6C389.974 528.6 390.299 528.275 390.299 527.837C390.299 527.412 389.974 527.087 389.549 527.087C389.099 527.087 388.774 527.412 388.774 527.837ZM394.117 536.138C395.055 536.138 395.73 535.525 396.067 535.037V536.213C396.067 537.463 395.592 538.15 394.555 538.15C393.642 538.15 393.155 537.588 392.917 537.013L391.78 537.65C392.092 538.1 392.83 538.65 394.28 538.65C396.255 538.65 397.13 537.6 397.13 535.912V529.55H396.717L396.305 530.337C395.955 529.9 395.492 529.55 394.63 529.55C392.992 529.55 391.542 530.85 391.542 533.075C391.542 534.775 392.542 536.138 394.117 536.138ZM392.667 532.6C392.667 531.062 393.405 530 394.392 530C395.63 530 396.067 531.175 396.067 531.95V534.737C395.805 535.062 395.167 535.4 394.505 535.4C393.205 535.4 392.667 533.937 392.667 532.6ZM403.11 534.662V527.475H402.835C402.36 527.837 401.535 528.15 400.647 528.287V528.55H401.972V534.662C401.972 535.475 401.435 535.662 400.647 535.725V536H404.322V535.725C403.572 535.662 403.11 535.475 403.11 534.662ZM405.532 529.975C405.532 529.658 405.607 529.437 405.757 529.312C405.907 529.187 406.086 529.125 406.295 529.125C406.511 529.125 406.695 529.187 406.845 529.312C407.003 529.437 407.082 529.658 407.082 529.975C407.082 530.275 407.003 530.492 406.845 530.625C406.695 530.758 406.511 530.825 406.295 530.825C406.086 530.825 405.907 530.758 405.757 530.625C405.607 530.492 405.532 530.275 405.532 529.975ZM405.532 535.325C405.532 535.017 405.607 534.8 405.757 534.675C405.907 534.55 406.086 534.487 406.295 534.487C406.511 534.487 406.695 534.55 406.845 534.675C407.003 534.8 407.082 535.017 407.082 535.325C407.082 535.625 407.003 535.842 406.845 535.975C406.695 536.108 406.511 536.175 406.295 536.175C406.086 536.175 405.907 536.108 405.757 535.975C405.607 535.842 405.532 535.625 405.532 535.325ZM421.406 527.925V527.65H419.319L416.031 534.55L412.906 527.65H410.706V527.925C411.519 527.962 411.831 528.25 411.831 528.887V534.775C411.831 535.35 411.519 535.65 410.719 535.725V536H413.431V535.737C412.631 535.65 412.294 535.35 412.294 534.775V529.075L415.444 536H415.869L419.156 529.075V534.775C419.156 535.35 418.831 535.65 418.031 535.725V536H421.406V535.737C420.606 535.65 420.281 535.362 420.281 534.775V528.887C420.281 528.25 420.606 527.962 421.406 527.925ZM423.642 534.012V529.55H423.404L421.692 530.05V530.312L421.817 530.325C422.417 530.35 422.579 530.625 422.579 531.112V534.087C422.579 535.487 423.417 536.175 424.442 536.175C425.179 536.175 425.854 535.762 426.542 534.775V536.175H426.779L428.504 535.65V535.375H428.354C427.767 535.375 427.604 535.087 427.604 534.587V529.55H427.367L425.654 530.05V530.312L425.779 530.325C426.379 530.35 426.542 530.625 426.542 531.112V534.4C425.954 535.112 425.429 535.4 424.854 535.4C424.129 535.4 423.642 534.975 423.642 534.012ZM432.04 536.175C433.665 536.175 435.027 534.812 435.027 532.75C435.027 530.9 433.877 529.55 432.115 529.55C430.502 529.55 429.152 530.925 429.152 533C429.152 534.837 430.302 536.175 432.04 536.175ZM430.277 532.537C430.277 531.075 430.94 530.037 431.965 530.037C433.39 530.037 433.915 531.887 433.915 533.162C433.915 534.625 433.252 535.675 432.227 535.675C430.802 535.675 430.277 533.825 430.277 532.537ZM437.62 534.962V531.35C438.195 530.612 438.745 530.325 439.307 530.325C440.045 530.325 440.532 530.75 440.532 531.712V534.962C440.532 535.512 440.157 535.637 439.682 535.725V536H442.482V535.725C441.982 535.637 441.595 535.512 441.595 534.962V531.637C441.595 530.237 440.745 529.55 439.732 529.55C438.97 529.55 438.307 529.975 437.62 530.962V529.55H437.395L435.67 530.05V530.312L435.807 530.325C436.407 530.35 436.57 530.625 436.57 531.112V534.962C436.57 535.512 436.182 535.637 435.67 535.725V536H438.507V535.725C438.007 535.637 437.62 535.512 437.62 534.962ZM443.904 534.55C443.442 534.55 443.079 534.912 443.079 535.387C443.079 535.887 443.579 536.325 444.254 536.1C444.229 536.775 443.642 537.275 443.079 537.4V537.688C444.179 537.575 444.879 536.763 444.879 535.625C444.879 534.987 444.467 534.55 443.904 534.55ZM450.588 529.55C449.213 529.55 448.051 530.425 448.051 531.437C448.051 531.7 448.126 531.912 448.301 532.162L449.288 531.8C449.163 531.55 449.101 531.35 449.101 531.112C449.101 530.487 449.551 529.987 450.276 529.987C451.213 529.987 451.788 530.737 451.788 531.962V532.162L450.926 532.362C448.988 532.812 448.063 533.35 448.063 534.55C448.063 535.475 448.763 536.175 449.776 536.175C450.601 536.175 451.363 535.725 451.788 534.762V536.175H452.013L453.788 535.65V535.375H453.651C452.963 535.375 452.838 535.075 452.838 534.562V532C452.838 530.475 452.013 529.55 450.588 529.55ZM449.176 534.375C449.176 533.537 449.638 533.1 451.038 532.762L451.788 532.587V534.4C451.413 535.087 450.838 535.487 450.226 535.487C449.588 535.487 449.176 535.037 449.176 534.375ZM466.825 530V529.725H464.7V530C465.512 530.137 465.7 530.25 465.5 530.812L464.062 534.637L462.587 530.812C462.387 530.287 462.537 530.15 463.337 530V529.725H460.55V530.012C461.025 530.125 461.187 530.262 461.3 530.537L461.475 530.95L460.087 534.65L458.625 530.812C458.425 530.287 458.575 530.15 459.375 530V529.725H456.587V530.012C457.05 530.125 457.212 530.237 457.337 530.537L459.625 536.175H459.912L461.712 531.562L463.587 536.175H463.862L466.075 530.55C466.2 530.225 466.375 530.1 466.825 530ZM469.857 536.175C471.482 536.175 472.845 534.812 472.845 532.75C472.845 530.9 471.695 529.55 469.932 529.55C468.32 529.55 466.97 530.925 466.97 533C466.97 534.837 468.12 536.175 469.857 536.175ZM468.095 532.537C468.095 531.075 468.757 530.037 469.782 530.037C471.207 530.037 471.732 531.887 471.732 533.162C471.732 534.625 471.07 535.675 470.045 535.675C468.62 535.675 468.095 533.825 468.095 532.537ZM473.487 535.725V536H476.675V535.725C475.737 535.6 475.437 535.412 475.437 534.912V531.837C475.775 531.025 476.337 530.537 476.987 530.512C477.262 530.5 477.6 530.587 477.825 530.762L477.975 529.612C477.825 529.562 477.512 529.525 477.275 529.537C476.55 529.562 475.875 530.137 475.437 531.437V529.55H475.212L473.487 530.05V530.312L473.625 530.325C474.225 530.362 474.387 530.625 474.387 531.112V534.912C474.387 535.412 474.187 535.6 473.487 535.725ZM480.32 534.962V527.15H480.095L478.37 527.65V527.9L478.507 527.912C479.107 527.95 479.27 528.225 479.27 528.712V534.962C479.27 535.512 478.882 535.637 478.37 535.725V536H481.207V535.725C480.707 535.637 480.32 535.512 480.32 534.962ZM484.354 536.175C485.017 536.175 485.717 535.762 486.192 534.95V536.175H486.429L488.154 535.65V535.375H487.967C487.429 535.375 487.254 535.137 487.254 534.587V527.15H487.017L485.304 527.65V527.9L485.454 527.912C486.017 527.937 486.192 528.175 486.192 528.712V530.087C485.867 529.775 485.442 529.55 484.767 529.55C483.129 529.55 481.679 530.85 481.679 533.075C481.679 534.912 482.654 536.175 484.354 536.175ZM482.804 532.6C482.804 531.05 483.529 529.987 484.529 529.987C485.667 529.987 486.117 530.987 486.192 531.787V534.575C485.867 535.112 485.279 535.45 484.654 535.45C483.492 535.45 482.804 534.287 482.804 532.6ZM494.1 536.175C495.175 536.175 496.162 535.45 496.587 534.163L496.362 534.062C495.962 534.825 495.212 535.312 494.525 535.312C493.05 535.312 492.287 534.125 492.287 532.487C492.287 531.1 492.925 530.012 494.025 530.012C494.762 530.012 495.187 530.637 495.362 531.487L496.362 531C496.2 530.25 495.387 529.55 494.187 529.55C492.387 529.55 491.237 531.112 491.237 532.95C491.237 534.762 492.275 536.175 494.1 536.175ZM500.118 536.175C501.743 536.175 503.106 534.812 503.106 532.75C503.106 530.9 501.956 529.55 500.193 529.55C498.581 529.55 497.231 530.925 497.231 533C497.231 534.837 498.381 536.175 500.118 536.175ZM498.356 532.537C498.356 531.075 499.018 530.037 500.043 530.037C501.468 530.037 501.993 531.887 501.993 533.162C501.993 534.625 501.331 535.675 500.306 535.675C498.881 535.675 498.356 533.825 498.356 532.537ZM505.698 534.962V531.35C506.273 530.612 506.823 530.325 507.386 530.325C508.123 530.325 508.611 530.75 508.611 531.712V534.962C508.611 535.512 508.236 535.637 507.748 535.725V536H510.561V535.725C510.061 535.637 509.673 535.512 509.673 534.962V531.637C509.673 531.537 509.673 531.437 509.661 531.35C510.248 530.612 510.786 530.325 511.361 530.325C512.086 530.325 512.573 530.75 512.573 531.712V534.962C512.573 535.512 512.198 535.637 511.723 535.725V536H514.523V535.725C514.023 535.637 513.636 535.512 513.636 534.962V531.637C513.636 530.237 512.798 529.55 511.773 529.55C511.011 529.55 510.323 529.987 509.611 531.037C509.411 530.037 508.661 529.55 507.811 529.55C507.048 529.55 506.386 529.975 505.698 530.962V529.55H505.473L503.748 530.05V530.312L503.886 530.325C504.486 530.362 504.648 530.625 504.648 531.112V534.962C504.648 535.512 504.261 535.637 503.748 535.725V536H506.586V535.725C506.086 535.637 505.698 535.512 505.698 534.962ZM514.893 538.2V538.475H517.781V538.2C517.256 538.113 516.843 537.988 516.843 537.438V535.625C517.181 535.937 517.606 536.175 518.381 536.175C519.918 536.175 521.368 534.875 521.368 532.65C521.368 530.95 520.381 529.55 518.793 529.55C517.881 529.55 517.181 530.175 516.843 530.65V529.55H516.618L514.893 530.05V530.312L515.043 530.325C515.618 530.35 515.793 530.575 515.793 531.112V537.438C515.793 537.988 515.406 538.113 514.893 538.2ZM516.843 533.762V530.962C517.093 530.637 517.756 530.3 518.393 530.3C519.706 530.3 520.256 531.775 520.256 533.125C520.256 534.662 519.518 535.737 518.518 535.737C517.368 535.737 516.843 534.675 516.843 533.762ZM523.825 534.012V529.55H523.587L521.875 530.05V530.312L522 530.325C522.6 530.35 522.762 530.625 522.762 531.112V534.087C522.762 535.487 523.6 536.175 524.625 536.175C525.362 536.175 526.037 535.762 526.725 534.775V536.175H526.962L528.687 535.65V535.375H528.537C527.95 535.375 527.787 535.087 527.787 534.587V529.55H527.55L525.837 530.05V530.312L525.962 530.325C526.562 530.35 526.725 530.625 526.725 531.112V534.4C526.137 535.112 525.612 535.4 525.037 535.4C524.312 535.4 523.825 534.975 523.825 534.012ZM528.989 530.162H530.076V534.325C530.076 535.588 530.614 536.175 531.551 536.175C532.201 536.175 532.676 535.725 533.014 535.412L532.889 535.2C532.639 535.4 532.414 535.525 532.064 535.525C531.526 535.525 531.114 535.212 531.114 534.337V530.162H532.776V529.725H531.114V527.962H530.889L530.076 528.45V529.725H528.989V530.162ZM536.375 529.55C534.65 529.55 533.4 530.85 533.4 533.025C533.4 534.725 534.475 536.175 536.188 536.175C537.475 536.175 538.4 535.337 538.725 534.312L538.5 534.212C538.1 534.775 537.5 535.287 536.625 535.287C535.35 535.287 534.5 534.225 534.45 532.537H538.763C538.763 530.937 537.975 529.55 536.375 529.55ZM534.463 532.087C534.563 530.862 535.1 530.012 536.163 530.012C537.175 530.012 537.55 530.9 537.625 532.087H534.463ZM539.393 535.725V536H542.58V535.725C541.643 535.6 541.343 535.412 541.343 534.912V531.837C541.68 531.025 542.243 530.537 542.893 530.512C543.168 530.5 543.505 530.587 543.73 530.762L543.88 529.612C543.73 529.562 543.418 529.525 543.18 529.537C542.455 529.562 541.78 530.137 541.343 531.437V529.55H541.118L539.393 530.05V530.312L539.53 530.325C540.13 530.362 540.293 530.625 540.293 531.112V534.912C540.293 535.412 540.093 535.6 539.393 535.725Z" fill="white"/>
<path fill-rule="evenodd" clip-rule="evenodd" d="M283.162 366.923C333.775 366.923 374.81 325.721 374.81 274.89C374.81 224.059 333.775 182.857 283.162 182.857C232.548 182.857 191.513 224.059 191.513 274.89C191.513 325.721 232.548 366.923 283.162 366.923ZM283.162 367.57C334.135 367.57 375.457 326.076 375.457 274.89C375.457 223.704 334.135 182.21 283.162 182.21C232.188 182.21 190.866 223.704 190.866 274.89C190.866 326.076 232.188 367.57 283.162 367.57Z" fill="#FCAB60"/>
<path fill-rule="evenodd" clip-rule="evenodd" d="M283.161 385.459C343.969 385.459 393.268 335.958 393.268 274.89C393.268 213.822 343.969 164.321 283.161 164.321C222.353 164.321 173.053 213.822 173.053 274.89C173.053 335.958 222.353 385.459 283.161 385.459ZM283.161 386.106C344.329 386.106 393.915 336.313 393.915 274.89C393.915 213.467 344.329 163.674 283.161 163.674C221.993 163.674 172.406 213.467 172.406 274.89C172.406 336.313 221.993 386.106 283.161 386.106Z" fill="#FCAB60"/>
<path fill-rule="evenodd" clip-rule="evenodd" d="M283.161 402.904C353.564 402.904 410.641 345.593 410.641 274.89C410.641 204.187 353.564 146.876 283.161 146.876C212.758 146.876 155.68 204.187 155.68 274.89C155.68 345.593 212.758 402.904 283.161 402.904ZM283.161 403.552C353.924 403.552 411.289 345.948 411.289 274.89C411.289 203.832 353.924 146.229 283.161 146.229C212.398 146.229 155.033 203.832 155.033 274.89C155.033 345.948 212.398 403.552 283.161 403.552Z" fill="#FCAB60"/>
<path fill-rule="evenodd" clip-rule="evenodd" d="M283.162 423.621C364.959 423.621 431.273 357.035 431.273 274.89C431.273 192.746 364.959 126.159 283.162 126.159C201.365 126.159 135.05 192.746 135.05 274.89C135.05 357.035 201.365 423.621 283.162 423.621ZM283.162 424.268C365.319 424.268 431.92 357.389 431.92 274.89C431.92 192.391 365.319 125.512 283.162 125.512C201.005 125.512 134.403 192.391 134.403 274.89C134.403 357.389 201.005 424.268 283.162 424.268Z" fill="#FCAB60"/>
<path fill-rule="evenodd" clip-rule="evenodd" d="M283.162 442.157C375.154 442.157 449.732 367.272 449.732 274.89C449.732 182.508 375.154 107.623 283.162 107.623C191.17 107.623 116.591 182.508 116.591 274.89C116.591 367.272 191.17 442.157 283.162 442.157ZM283.162 442.804C375.513 442.804 450.379 367.626 450.379 274.89C450.379 182.154 375.513 106.976 283.162 106.976C190.81 106.976 115.944 182.154 115.944 274.89C115.944 367.626 190.81 442.804 283.162 442.804Z" fill="#FCAB60"/>
<path fill-rule="evenodd" clip-rule="evenodd" d="M283.161 461.784C385.947 461.784 469.276 378.111 469.276 274.89C469.276 171.669 385.947 87.9967 283.161 87.9967C180.375 87.9967 97.0455 171.669 97.0455 274.89C97.0455 378.111 180.375 461.784 283.161 461.784ZM283.161 462.431C386.307 462.431 469.923 378.466 469.923 274.89C469.923 171.314 386.307 87.3496 283.161 87.3496C180.015 87.3496 96.3984 171.314 96.3984 274.89C96.3984 378.466 180.015 462.431 283.161 462.431Z" fill="#FCAB60"/>
<path fill-rule="evenodd" clip-rule="evenodd" d="M283.161 479.229C395.542 479.229 486.65 387.746 486.65 274.89C486.65 162.034 395.542 70.5511 283.161 70.5511C170.78 70.5511 79.6724 162.034 79.6724 274.89C79.6724 387.746 170.78 479.229 283.161 479.229ZM283.161 479.876C395.902 479.876 487.297 388.101 487.297 274.89C487.297 161.679 395.902 69.9041 283.161 69.9041C170.42 69.9041 79.0254 161.679 79.0254 274.89C79.0254 388.101 170.42 479.876 283.161 479.876Z" fill="#FCAB60"/>
<path fill-rule="evenodd" clip-rule="evenodd" d="M283.162 499.946C406.937 499.946 507.281 399.187 507.281 274.89C507.281 150.593 406.937 49.8343 283.162 49.8343C159.387 49.8343 59.0426 150.593 59.0426 274.89C59.0426 399.187 159.387 499.946 283.162 499.946ZM283.162 500.593C407.297 500.593 507.928 399.542 507.928 274.89C507.928 150.238 407.297 49.1873 283.162 49.1873C159.027 49.1873 58.3955 150.238 58.3955 274.89C58.3955 399.542 159.027 500.593 283.162 500.593Z" fill="#FCAB60"/>
<path fill-rule="evenodd" clip-rule="evenodd" d="M283.162 520.663C418.331 520.663 527.912 410.629 527.912 274.89C527.912 139.151 418.331 29.1178 283.162 29.1178C147.993 29.1178 38.4117 139.151 38.4117 274.89C38.4117 410.629 147.993 520.663 283.162 520.663ZM283.162 521.31C418.691 521.31 528.559 410.984 528.559 274.89C528.559 138.796 418.691 28.4707 283.162 28.4707C147.633 28.4707 37.7646 138.796 37.7646 274.89C37.7646 410.984 147.633 521.31 283.162 521.31Z" fill="#FCAB60"/>
<path d="M128.312 173.562C129.54 173.562 130.535 172.567 130.535 171.339C130.535 170.111 129.54 169.115 128.312 169.115C127.083 169.115 126.088 170.111 126.088 171.339C126.088 172.567 127.083 173.562 128.312 173.562Z" fill="#B4B3FD"/>
<path d="M59.3995 277.092C60.6276 277.092 61.6231 276.096 61.6231 274.868C61.6231 273.64 60.6276 272.644 59.3995 272.644C58.1714 272.644 57.1758 273.64 57.1758 274.868C57.1758 276.096 58.1714 277.092 59.3995 277.092Z" fill="#B4B3FD"/>
<path d="M170.047 181.004C171.275 181.004 172.271 180.008 172.271 178.78C172.271 177.552 171.275 176.556 170.047 176.556C168.819 176.556 167.823 177.552 167.823 178.78C167.823 180.008 168.819 181.004 170.047 181.004Z" fill="#B4B3FD"/>
<path d="M159.942 247.825C161.844 247.825 163.385 246.283 163.385 244.382C163.385 242.48 161.844 240.938 159.942 240.938C158.041 240.938 156.499 242.48 156.499 244.382C156.499 246.283 158.041 247.825 159.942 247.825Z" fill="#B4B3FD"/>
<path d="M117.236 286.648C119.138 286.648 120.679 285.107 120.679 283.205C120.679 281.304 119.138 279.762 117.236 279.762C115.335 279.762 113.793 281.304 113.793 283.205C113.793 285.107 115.335 286.648 117.236 286.648Z" fill="#B4B3FD"/>
<path d="M236.657 377.96C238.044 377.96 239.168 376.836 239.168 375.449C239.168 374.063 238.044 372.938 236.657 372.938C235.271 372.938 234.146 374.063 234.146 375.449C234.146 376.836 235.271 377.96 236.657 377.96Z" fill="#B4B3FD"/>
<path d="M110.157 420.342C111.544 420.342 112.668 419.218 112.668 417.831C112.668 416.445 111.544 415.321 110.157 415.321C108.771 415.321 107.646 416.445 107.646 417.831C107.646 419.218 108.771 420.342 110.157 420.342Z" fill="#B4B3FD"/>
<path d="M393.282 293.592C394.51 293.592 395.506 292.596 395.506 291.368C395.506 290.14 394.51 289.144 393.282 289.144C392.054 289.144 391.059 290.14 391.059 291.368C391.059 292.596 392.054 293.592 393.282 293.592Z" fill="#B4B3FD"/>
<path d="M404.929 271.592C406.157 271.592 407.152 270.596 407.152 269.368C407.152 268.14 406.157 267.144 404.929 267.144C403.701 267.144 402.705 268.14 402.705 269.368C402.705 270.596 403.701 271.592 404.929 271.592Z" fill="#B4B3FD"/>
<path d="M406.87 359.915C408.098 359.915 409.094 358.92 409.094 357.691C409.094 356.463 408.098 355.468 406.87 355.468C405.642 355.468 404.646 356.463 404.646 357.691C404.646 358.92 405.642 359.915 406.87 359.915Z" fill="#B4B3FD"/>
<path d="M348.958 366.709C350.186 366.709 351.182 365.714 351.182 364.486C351.182 363.258 350.186 362.262 348.958 362.262C347.73 362.262 346.734 363.258 346.734 364.486C346.734 365.714 347.73 366.709 348.958 366.709Z" fill="#B4B3FD"/>
<path d="M66.8409 334.357C68.069 334.357 69.0646 333.361 69.0646 332.133C69.0646 330.905 68.069 329.909 66.8409 329.909C65.6128 329.909 64.6172 330.905 64.6172 332.133C64.6172 333.361 65.6128 334.357 66.8409 334.357Z" fill="#B4B3FD"/>
<path d="M378.076 190.062C379.304 190.062 380.3 189.067 380.3 187.839C380.3 186.611 379.304 185.615 378.076 185.615C376.848 185.615 375.853 186.611 375.853 187.839C375.853 189.067 376.848 190.062 378.076 190.062Z" fill="#B4B3FD"/>
<path d="M246.399 154.15C247.628 154.15 248.623 153.155 248.623 151.927C248.623 150.699 247.628 149.703 246.399 149.703C245.171 149.703 244.176 150.699 244.176 151.927C244.176 153.155 245.171 154.15 246.399 154.15Z" fill="#B4B3FD"/>
<path d="M402.59 229.707C404.491 229.707 406.033 228.166 406.033 226.264C406.033 224.362 404.491 222.821 402.59 222.821C400.688 222.821 399.146 224.362 399.146 226.264C399.146 228.166 400.688 229.707 402.59 229.707Z" fill="#B4B3FD"/>
<path d="M350.502 145.266C352.403 145.266 353.945 143.724 353.945 141.823C353.945 139.921 352.403 138.38 350.502 138.38C348.6 138.38 347.059 139.921 347.059 141.823C347.059 143.724 348.6 145.266 350.502 145.266Z" fill="#B4B3FD"/>
<path d="M432.782 280.062C435.634 280.062 437.947 277.75 437.947 274.897C437.947 272.045 435.634 269.733 432.782 269.733C429.929 269.733 427.617 272.045 427.617 274.897C427.617 277.75 429.929 280.062 432.782 280.062Z" fill="#B4B3FD"/>
<path d="M470.311 276.827C473.164 276.827 475.476 274.514 475.476 271.662C475.476 268.81 473.164 266.497 470.311 266.497C467.459 266.497 465.146 268.81 465.146 271.662C465.146 274.514 467.459 276.827 470.311 276.827Z" fill="#B4B3FD"/>
<path d="M196.282 401.062C199.134 401.062 201.447 398.75 201.447 395.897C201.447 393.045 199.134 390.733 196.282 390.733C193.429 390.733 191.117 393.045 191.117 395.897C191.117 398.75 193.429 401.062 196.282 401.062Z" fill="#B4B3FD"/>
<path d="M505.899 313.062C508.751 313.062 511.064 310.75 511.064 307.897C511.064 305.045 508.751 302.733 505.899 302.733C503.047 302.733 500.734 305.045 500.734 307.897C500.734 310.75 503.047 313.062 505.899 313.062Z" fill="#B4B3FD"/>
<path d="M403.737 322.267C406.273 322.267 408.328 320.212 408.328 317.676C408.328 315.141 406.273 313.085 403.737 313.085C401.202 313.085 399.146 315.141 399.146 317.676C399.146 320.212 401.202 322.267 403.737 322.267Z" fill="#B4B3FD"/>
<path d="M437.384 366.914C439.919 366.914 441.975 364.859 441.975 362.323C441.975 359.788 439.919 357.733 437.384 357.733C434.848 357.733 432.793 359.788 432.793 362.323C432.793 364.859 434.848 366.914 437.384 366.914Z" fill="#B4B3FD"/>
<path d="M160.443 311.591C162.979 311.591 165.034 309.535 165.034 307C165.034 304.465 162.979 302.409 160.443 302.409C157.908 302.409 155.853 304.465 155.853 307C155.853 309.535 157.908 311.591 160.443 311.591Z" fill="#B4B3FD"/>
<path d="M119.289 351.577C120.359 351.577 121.226 350.71 121.226 349.64C121.226 348.57 120.359 347.703 119.289 347.703C118.22 347.703 117.353 348.57 117.353 349.64C117.353 350.71 118.22 351.577 119.289 351.577Z" fill="#EFEFEF"/>
<path d="M367.113 399.783C368.182 399.783 369.049 398.916 369.049 397.846C369.049 396.776 368.182 395.909 367.113 395.909C366.043 395.909 365.176 396.776 365.176 397.846C365.176 398.916 366.043 399.783 367.113 399.783Z" fill="#EFEFEF"/>
<g filter="url(#filter1_d)">
<g filter="url(#filter2_d)">
<path d="M128.353 215.056C128.353 235.068 112.13 251.291 92.1181 251.291C72.1059 251.291 55.8828 235.068 55.8828 215.056C55.8828 195.044 72.1059 178.821 92.1181 178.821C112.13 178.821 128.353 195.044 128.353 215.056Z" fill="#F5F5F5"/>
<path d="M128.353 215.056C128.353 235.068 112.13 251.291 92.1181 251.291C72.1059 251.291 55.8828 235.068 55.8828 215.056C55.8828 195.044 72.1059 178.821 92.1181 178.821C112.13 178.821 128.353 195.044 128.353 215.056Z" fill="url(#paint0_linear)"/>
</g>
</g>
<path d="M85.5675 212.001H80.5131V215.2H85.1338C85.2286 215.2 85.276 215.249 85.276 215.349V216.223C85.276 216.318 85.2286 216.365 85.1338 216.365H80.5131V219.572H85.5675C85.667 219.572 85.7167 219.619 85.7167 219.714V220.737C85.7167 220.832 85.667 220.88 85.5675 220.88H79.3544C79.2548 220.88 79.2051 220.832 79.2051 220.737V210.835C79.2051 210.792 79.2193 210.757 79.2477 210.728C79.2762 210.7 79.3117 210.686 79.3544 210.686H85.5675C85.6101 210.686 85.6457 210.7 85.6741 210.728C85.7025 210.757 85.7167 210.792 85.7167 210.835V211.851C85.7167 211.894 85.7025 211.93 85.6741 211.958C85.6457 211.986 85.6101 212.001 85.5675 212.001Z" fill="#5F5CFE"/>
<path d="M95.6079 210.686C95.6506 210.686 95.6861 210.7 95.7146 210.728C95.743 210.757 95.7572 210.792 95.7572 210.835V211.709C95.7572 211.804 95.7074 211.851 95.6079 211.851H92.1886V220.737C92.1886 220.832 92.1388 220.88 92.0393 220.88H91.0227C90.9232 220.88 90.8735 220.832 90.8735 220.737V211.851H87.4541C87.3593 211.851 87.312 211.804 87.312 211.709V210.835C87.312 210.735 87.3593 210.686 87.4541 210.686H95.6079Z" fill="#5F5CFE"/>
<path d="M104.888 210.686C104.983 210.686 105.03 210.735 105.03 210.835V220.737C105.03 220.832 104.983 220.88 104.888 220.88H103.871C103.772 220.88 103.722 220.832 103.722 220.737V216.159H98.959V220.737C98.959 220.832 98.9116 220.88 98.8168 220.88H97.8003C97.7008 220.88 97.651 220.832 97.651 220.737V210.835C97.651 210.792 97.6652 210.757 97.6936 210.728C97.7221 210.7 97.7576 210.686 97.8003 210.686H98.8168C98.9116 210.686 98.959 210.735 98.959 210.835V215.001H103.722V210.835C103.722 210.792 103.736 210.757 103.765 210.728C103.793 210.7 103.829 210.686 103.871 210.686H104.888Z" fill="#5F5CFE"/>
<g filter="url(#filter3_d)">
<g filter="url(#filter4_d)">
<path d="M154.558 353.527C154.558 369.251 141.812 381.997 126.088 381.997C110.364 381.997 97.6172 369.251 97.6172 353.527C97.6172 337.803 110.364 325.056 126.088 325.056C141.812 325.056 154.558 337.803 154.558 353.527Z" fill="#F5F5F5"/>
<path d="M154.558 353.527C154.558 369.251 141.812 381.997 126.088 381.997C110.364 381.997 97.6172 369.251 97.6172 353.527C97.6172 337.803 110.364 325.056 126.088 325.056C141.812 325.056 154.558 337.803 154.558 353.527Z" fill="url(#paint1_linear)"/>
</g>
</g>
<path d="M120.514 353.983C121.007 353.983 121.403 354.133 121.703 354.433C122.004 354.73 122.154 355.085 122.154 355.499C122.154 356.027 121.966 356.477 121.59 356.85C121.214 357.223 120.762 357.409 120.234 357.409H117.14C117.073 357.409 117.04 357.378 117.04 357.314V350.713C117.04 350.684 117.05 350.66 117.068 350.642C117.087 350.623 117.111 350.613 117.14 350.613H119.983C120.508 350.613 120.956 350.801 121.329 351.177C121.705 351.55 121.893 352 121.893 352.528C121.893 352.635 121.879 352.749 121.85 352.869C121.822 352.989 121.773 353.115 121.703 353.248C121.634 353.378 121.547 353.495 121.443 353.599C121.342 353.7 121.211 353.785 121.049 353.855C120.888 353.921 120.71 353.954 120.514 353.954V353.983ZM119.983 351.39H117.912V353.622H119.983C120.286 353.622 120.534 353.515 120.727 353.3C120.923 353.085 121.021 352.828 121.021 352.528C121.021 352.174 120.933 351.896 120.756 351.694C120.579 351.491 120.321 351.39 119.983 351.39ZM120.234 356.632C120.579 356.632 120.839 356.534 121.016 356.338C121.193 356.142 121.282 355.863 121.282 355.499C121.282 355.199 121.182 354.942 120.983 354.727C120.787 354.509 120.538 354.4 120.234 354.4H117.912V356.632H120.234Z" fill="#5F5CFE"/>
<path d="M126.141 357.504C126.618 357.504 127.056 357.414 127.454 357.234C127.852 357.051 128.17 356.799 128.407 356.48C128.647 356.158 128.775 355.801 128.79 355.409C128.8 355.182 128.778 354.978 128.724 354.798C128.674 354.618 128.59 354.463 128.473 354.333C128.356 354.201 128.225 354.087 128.08 353.992C127.937 353.897 127.76 353.815 127.549 353.746C127.34 353.676 127.135 353.619 126.933 353.575C126.734 353.531 126.498 353.488 126.227 353.447C126.027 353.412 125.868 353.382 125.748 353.357C125.628 353.332 125.495 353.3 125.35 353.262C125.208 353.221 125.095 353.179 125.013 353.134C124.931 353.09 124.852 353.036 124.776 352.973C124.7 352.907 124.647 352.831 124.615 352.746C124.584 352.657 124.568 352.558 124.568 352.447C124.568 352.109 124.71 351.833 124.994 351.618C125.279 351.403 125.661 351.296 126.141 351.296C126.615 351.296 126.99 351.405 127.264 351.623C127.539 351.841 127.688 352.149 127.71 352.547C127.71 352.61 127.743 352.641 127.809 352.641H128.487C128.553 352.641 128.587 352.61 128.587 352.547C128.571 352.142 128.449 351.784 128.222 351.471C127.994 351.158 127.699 350.921 127.335 350.76C126.972 350.599 126.574 350.518 126.141 350.518C125.459 350.518 124.887 350.702 124.426 351.068C123.964 351.435 123.721 351.894 123.696 352.447C123.686 352.624 123.701 352.787 123.738 352.935C123.779 353.081 123.833 353.207 123.9 353.314C123.969 353.419 124.064 353.515 124.184 353.604C124.307 353.689 124.429 353.762 124.549 353.822C124.669 353.878 124.821 353.932 125.004 353.983C125.19 354.033 125.359 354.074 125.511 354.106C125.666 354.134 125.855 354.167 126.08 354.205C126.762 354.319 127.238 354.457 127.506 354.618C127.778 354.779 127.914 355.043 127.914 355.409C127.914 355.795 127.76 356.112 127.454 356.362C127.151 356.608 126.713 356.731 126.141 356.731C125.642 356.731 125.225 356.596 124.89 356.324C124.558 356.049 124.38 355.712 124.355 355.314C124.355 355.248 124.318 355.215 124.246 355.215H123.577C123.511 355.215 123.478 355.245 123.478 355.305C123.494 355.744 123.626 356.134 123.876 356.475C124.125 356.814 124.448 357.069 124.843 357.243C125.238 357.417 125.67 357.504 126.141 357.504Z" fill="#5F5CFE"/>
<path d="M134.958 354.964C134.967 354.904 135.002 354.874 135.062 354.874H135.764C135.83 354.874 135.858 354.91 135.849 354.983C135.767 355.352 135.65 355.687 135.498 355.987C135.347 356.284 135.157 356.548 134.93 356.779C134.702 357.009 134.422 357.188 134.091 357.314C133.762 357.441 133.394 357.504 132.986 357.504C132.506 357.504 132.077 357.415 131.697 357.238C131.318 357.062 131.007 356.815 130.764 356.499C130.521 356.183 130.334 355.815 130.205 355.395C130.078 354.972 130.015 354.51 130.015 354.011C130.015 353.509 130.078 353.047 130.205 352.627C130.331 352.204 130.514 351.836 130.754 351.523C130.998 351.207 131.309 350.961 131.688 350.784C132.07 350.607 132.503 350.518 132.986 350.518C133.391 350.518 133.756 350.58 134.081 350.703C134.41 350.823 134.688 350.997 134.915 351.224C135.143 351.449 135.332 351.708 135.484 352.002C135.639 352.292 135.761 352.623 135.849 352.992C135.858 353.065 135.83 353.101 135.764 353.101H135.062C135.002 353.101 134.967 353.071 134.958 353.011C134.888 352.746 134.802 352.514 134.697 352.314C134.593 352.112 134.464 351.932 134.309 351.774C134.157 351.616 133.969 351.496 133.745 351.414C133.524 351.329 133.271 351.286 132.986 351.286C132.519 351.286 132.124 351.406 131.802 351.646C131.483 351.886 131.25 352.207 131.105 352.608C130.96 353.01 130.887 353.477 130.887 354.011C130.887 354.403 130.93 354.763 131.015 355.092C131.1 355.417 131.227 355.705 131.394 355.954C131.562 356.201 131.781 356.393 132.053 356.532C132.325 356.671 132.636 356.741 132.986 356.741C133.271 356.741 133.524 356.698 133.745 356.613C133.969 356.524 134.157 356.398 134.309 356.234C134.464 356.069 134.593 355.885 134.697 355.679C134.802 355.474 134.888 355.235 134.958 354.964Z" fill="#5F5CFE"/>
<g filter="url(#filter5_dii)">
<circle cx="126.419" cy="353.975" r="33.9814" fill="#F5F5F5"/>
<circle cx="126.419" cy="353.975" r="33.9814" fill="url(#paint2_linear)"/>
</g>
<path d="M118.426 355.058C119.137 355.058 119.709 355.274 120.142 355.707C120.575 356.135 120.791 356.648 120.791 357.245C120.791 358.006 120.52 358.656 119.978 359.193C119.435 359.731 118.784 360 118.022 360H113.559C113.463 360 113.415 359.954 113.415 359.863V350.341C113.415 350.3 113.429 350.266 113.456 350.238C113.483 350.211 113.518 350.197 113.559 350.197H117.66C118.417 350.197 119.064 350.468 119.602 351.011C120.144 351.549 120.415 352.198 120.415 352.959C120.415 353.114 120.395 353.278 120.354 353.451C120.312 353.624 120.242 353.807 120.142 353.998C120.041 354.185 119.916 354.354 119.766 354.504C119.62 354.65 119.431 354.773 119.198 354.873C118.966 354.969 118.708 355.017 118.426 355.017V355.058ZM117.66 351.318H114.673V354.538H117.66C118.098 354.538 118.455 354.383 118.733 354.073C119.016 353.763 119.157 353.392 119.157 352.959C119.157 352.449 119.03 352.048 118.774 351.756C118.519 351.464 118.148 351.318 117.66 351.318ZM118.022 358.879C118.519 358.879 118.895 358.738 119.15 358.455C119.406 358.173 119.533 357.769 119.533 357.245C119.533 356.812 119.39 356.441 119.103 356.131C118.82 355.816 118.46 355.659 118.022 355.659H114.673V358.879H118.022ZM125.843 360.137C126.531 360.137 127.162 360.007 127.736 359.747C128.311 359.483 128.769 359.12 129.11 358.66C129.457 358.195 129.641 357.68 129.664 357.115C129.678 356.787 129.646 356.493 129.568 356.233C129.495 355.974 129.375 355.75 129.206 355.563C129.037 355.372 128.848 355.208 128.639 355.071C128.434 354.935 128.178 354.816 127.873 354.716C127.572 354.616 127.276 354.534 126.984 354.47C126.697 354.406 126.358 354.344 125.966 354.285C125.679 354.235 125.449 354.192 125.275 354.155C125.102 354.119 124.911 354.073 124.701 354.019C124.496 353.959 124.334 353.898 124.216 353.834C124.097 353.77 123.983 353.693 123.874 353.602C123.765 353.506 123.687 353.396 123.642 353.273C123.596 353.146 123.573 353.002 123.573 352.843C123.573 352.355 123.778 351.956 124.188 351.646C124.599 351.337 125.15 351.182 125.843 351.182C126.526 351.182 127.066 351.339 127.463 351.653C127.859 351.968 128.074 352.412 128.105 352.986C128.105 353.077 128.153 353.123 128.249 353.123H129.227C129.322 353.123 129.37 353.077 129.37 352.986C129.347 352.403 129.172 351.886 128.844 351.435C128.516 350.983 128.09 350.642 127.565 350.409C127.041 350.177 126.467 350.061 125.843 350.061C124.858 350.061 124.034 350.325 123.368 350.854C122.703 351.382 122.352 352.045 122.315 352.843C122.302 353.098 122.322 353.333 122.377 353.547C122.436 353.757 122.514 353.939 122.609 354.094C122.71 354.244 122.846 354.383 123.02 354.511C123.197 354.634 123.373 354.739 123.546 354.825C123.719 354.907 123.938 354.985 124.202 355.058C124.471 355.131 124.715 355.19 124.934 355.235C125.157 355.276 125.43 355.324 125.754 355.379C126.738 355.543 127.424 355.741 127.812 355.974C128.203 356.206 128.399 356.587 128.399 357.115C128.399 357.671 128.178 358.129 127.736 358.489C127.299 358.845 126.668 359.022 125.843 359.022C125.123 359.022 124.521 358.826 124.038 358.435C123.56 358.038 123.302 357.553 123.266 356.979C123.266 356.883 123.213 356.835 123.108 356.835H122.145C122.049 356.835 122.001 356.878 122.001 356.965C122.024 357.598 122.215 358.161 122.575 358.653C122.935 359.141 123.4 359.51 123.97 359.761C124.539 360.011 125.164 360.137 125.843 360.137ZM137.86 356.473C137.874 356.386 137.924 356.343 138.011 356.343H139.022C139.118 356.343 139.159 356.395 139.146 356.5C139.027 357.033 138.858 357.516 138.64 357.949C138.421 358.378 138.147 358.758 137.819 359.091C137.491 359.424 137.088 359.681 136.609 359.863C136.135 360.046 135.604 360.137 135.017 360.137C134.324 360.137 133.704 360.009 133.157 359.754C132.61 359.499 132.161 359.143 131.811 358.688C131.46 358.232 131.191 357.701 131.004 357.095C130.822 356.484 130.73 355.819 130.73 355.099C130.73 354.374 130.822 353.709 131.004 353.103C131.186 352.492 131.451 351.961 131.797 351.51C132.148 351.054 132.597 350.699 133.144 350.443C133.695 350.188 134.319 350.061 135.017 350.061C135.6 350.061 136.126 350.149 136.596 350.327C137.07 350.5 137.471 350.751 137.799 351.079C138.127 351.403 138.4 351.776 138.619 352.2C138.842 352.619 139.018 353.096 139.146 353.629C139.159 353.734 139.118 353.786 139.022 353.786H138.011C137.924 353.786 137.874 353.743 137.86 353.656C137.76 353.273 137.635 352.938 137.484 352.651C137.334 352.36 137.147 352.1 136.924 351.872C136.705 351.644 136.434 351.471 136.11 351.353C135.791 351.229 135.427 351.168 135.017 351.168C134.342 351.168 133.772 351.341 133.308 351.688C132.847 352.034 132.512 352.496 132.303 353.075C132.093 353.654 131.988 354.328 131.988 355.099C131.988 355.664 132.05 356.183 132.173 356.657C132.296 357.127 132.478 357.541 132.72 357.901C132.961 358.257 133.278 358.535 133.67 358.735C134.062 358.936 134.511 359.036 135.017 359.036C135.427 359.036 135.791 358.975 136.11 358.852C136.434 358.724 136.705 358.542 136.924 358.305C137.147 358.068 137.334 357.801 137.484 357.505C137.635 357.209 137.76 356.865 137.86 356.473Z" fill="#5F5CFE"/>
<g filter="url(#filter6_d)">
<g filter="url(#filter7_d)">
<path d="M475.5 328.291C475.5 339.727 466.229 348.997 454.794 348.997C443.358 348.997 434.088 339.727 434.088 328.291C434.088 316.856 443.358 307.585 454.794 307.585C466.229 307.585 475.5 316.856 475.5 328.291Z" fill="#F5F5F5"/>
<path d="M475.5 328.291C475.5 339.727 466.229 348.997 454.794 348.997C443.358 348.997 434.088 339.727 434.088 328.291C434.088 316.856 443.358 307.585 454.794 307.585C466.229 307.585 475.5 316.856 475.5 328.291Z" fill="url(#paint3_linear)"/>
</g>
</g>
<path d="M440.463 332.174C440.396 332.174 440.363 332.142 440.363 332.079V325.477C440.363 325.449 440.373 325.425 440.392 325.406C440.411 325.387 440.434 325.378 440.463 325.378H441.259C441.303 325.378 441.338 325.405 441.363 325.458L443.79 331.088L446.216 325.458C446.241 325.405 446.278 325.378 446.325 325.378H447.121C447.185 325.378 447.216 325.411 447.216 325.477V332.079C447.216 332.142 447.185 332.174 447.121 332.174H446.439C446.376 332.174 446.344 332.142 446.344 332.079V327.368L444.254 332.098C444.238 332.148 444.204 332.174 444.15 332.174H443.43C443.376 332.174 443.341 332.148 443.325 332.098L441.235 327.368V332.079C441.235 332.142 441.204 332.174 441.141 332.174H440.463Z" fill="#5F5CFE"/>
<path d="M454.37 332.065C454.382 332.096 454.381 332.123 454.365 332.145C454.349 332.164 454.324 332.174 454.289 332.174H453.573C453.513 332.174 453.474 332.148 453.455 332.098L452.853 330.416H449.943L449.351 332.098C449.335 332.148 449.295 332.174 449.232 332.174H448.517C448.482 332.174 448.457 332.164 448.441 332.145C448.428 332.123 448.428 332.096 448.441 332.065L450.962 325.458C450.981 325.405 451.02 325.378 451.081 325.378H451.73C451.787 325.378 451.825 325.405 451.844 325.458L454.37 332.065ZM450.223 329.638H452.583L451.398 326.321L450.223 329.638Z" fill="#5F5CFE"/>
<path d="M459.66 325.378C459.689 325.378 459.712 325.387 459.731 325.406C459.75 325.425 459.76 325.449 459.76 325.477V326.06C459.76 326.123 459.727 326.155 459.66 326.155H457.381V332.079C457.381 332.142 457.348 332.174 457.281 332.174H456.604C456.537 332.174 456.504 332.142 456.504 332.079V326.155H454.224C454.161 326.155 454.13 326.123 454.13 326.06V325.477C454.13 325.411 454.161 325.378 454.224 325.378H459.66Z" fill="#5F5CFE"/>
<path d="M461.022 325.477C461.022 325.449 461.032 325.425 461.051 325.406C461.07 325.387 461.093 325.378 461.122 325.378H461.809C461.872 325.378 461.904 325.411 461.904 325.477V332.079C461.904 332.142 461.872 332.174 461.809 332.174H461.122C461.056 332.174 461.022 332.142 461.022 332.079V325.477Z" fill="#5F5CFE"/>
<path d="M468.398 329.728C468.408 329.668 468.443 329.638 468.503 329.638H469.204C469.271 329.638 469.299 329.675 469.289 329.747C469.207 330.117 469.09 330.452 468.939 330.752C468.787 331.049 468.598 331.313 468.37 331.543C468.143 331.774 467.863 331.953 467.531 332.079C467.203 332.205 466.835 332.269 466.427 332.269C465.947 332.269 465.517 332.18 465.138 332.003C464.759 331.826 464.448 331.58 464.204 331.264C463.961 330.948 463.775 330.58 463.645 330.16C463.519 329.736 463.456 329.275 463.456 328.776C463.456 328.273 463.519 327.812 463.645 327.392C463.771 326.969 463.955 326.6 464.195 326.288C464.438 325.972 464.749 325.725 465.128 325.548C465.511 325.371 465.944 325.283 466.427 325.283C466.831 325.283 467.196 325.345 467.522 325.468C467.85 325.588 468.128 325.762 468.356 325.989C468.583 326.213 468.773 326.472 468.925 326.766C469.079 327.057 469.201 327.387 469.289 327.757C469.299 327.829 469.271 327.866 469.204 327.866H468.503C468.443 327.866 468.408 327.836 468.398 327.776C468.329 327.51 468.242 327.278 468.138 327.079C468.034 326.877 467.904 326.697 467.749 326.539C467.598 326.381 467.41 326.261 467.185 326.179C466.964 326.093 466.711 326.051 466.427 326.051C465.959 326.051 465.564 326.171 465.242 326.411C464.923 326.651 464.691 326.972 464.546 327.373C464.4 327.774 464.328 328.242 464.328 328.776C464.328 329.168 464.37 329.528 464.455 329.856C464.541 330.182 464.667 330.469 464.835 330.719C465.002 330.965 465.222 331.158 465.493 331.297C465.765 331.436 466.076 331.506 466.427 331.506C466.711 331.506 466.964 331.463 467.185 331.378C467.41 331.289 467.598 331.163 467.749 330.998C467.904 330.834 468.034 330.649 468.138 330.444C468.242 330.239 468.329 330 468.398 329.728Z" fill="#5F5CFE"/>
<g filter="url(#filter8_dii)">
<circle cx="454.749" cy="327.855" r="24.7137" fill="#F5F5F5"/>
<circle cx="454.749" cy="327.855" r="24.7137" fill="url(#paint4_linear)"/>
</g>
<path d="M438.182 333C438.1 333 438.059 332.961 438.059 332.883V324.721C438.059 324.686 438.07 324.656 438.094 324.633C438.117 324.609 438.146 324.598 438.182 324.598H439.166C439.221 324.598 439.264 324.631 439.295 324.697L442.295 331.658L445.295 324.697C445.326 324.631 445.371 324.598 445.43 324.598H446.414C446.492 324.598 446.531 324.639 446.531 324.721V332.883C446.531 332.961 446.492 333 446.414 333H445.57C445.492 333 445.453 332.961 445.453 332.883V327.059L442.869 332.906C442.85 332.969 442.807 333 442.74 333H441.85C441.783 333 441.74 332.969 441.721 332.906L439.137 327.059V332.883C439.137 332.961 439.098 333 439.02 333H438.182ZM454.775 332.865C454.791 332.904 454.789 332.938 454.77 332.965C454.75 332.988 454.719 333 454.676 333H453.791C453.717 333 453.668 332.969 453.645 332.906L452.9 330.826H449.303L448.57 332.906C448.551 332.969 448.502 333 448.424 333H447.539C447.496 333 447.465 332.988 447.445 332.965C447.43 332.938 447.43 332.904 447.445 332.865L450.562 324.697C450.586 324.631 450.635 324.598 450.709 324.598H451.512C451.582 324.598 451.629 324.631 451.652 324.697L454.775 332.865ZM449.648 329.865H452.566L451.102 325.764L449.648 329.865ZM460.717 324.598C460.752 324.598 460.781 324.609 460.805 324.633C460.828 324.656 460.84 324.686 460.84 324.721V325.441C460.84 325.52 460.799 325.559 460.717 325.559H457.898V332.883C457.898 332.961 457.857 333 457.775 333H456.938C456.855 333 456.814 332.961 456.814 332.883V325.559H453.996C453.918 325.559 453.879 325.52 453.879 325.441V324.721C453.879 324.639 453.918 324.598 453.996 324.598H460.717ZM461.801 324.721C461.801 324.686 461.812 324.656 461.836 324.633C461.859 324.609 461.889 324.598 461.924 324.598H462.773C462.852 324.598 462.891 324.639 462.891 324.721V332.883C462.891 332.961 462.852 333 462.773 333H461.924C461.842 333 461.801 332.961 461.801 332.883V324.721ZM470.32 329.977C470.332 329.902 470.375 329.865 470.449 329.865H471.316C471.398 329.865 471.434 329.91 471.422 330C471.32 330.457 471.176 330.871 470.988 331.242C470.801 331.609 470.566 331.936 470.285 332.221C470.004 332.506 469.658 332.727 469.248 332.883C468.842 333.039 468.387 333.117 467.883 333.117C467.289 333.117 466.758 333.008 466.289 332.789C465.82 332.57 465.436 332.266 465.135 331.875C464.834 331.484 464.604 331.029 464.443 330.51C464.287 329.986 464.209 329.416 464.209 328.799C464.209 328.178 464.287 327.607 464.443 327.088C464.6 326.564 464.826 326.109 465.123 325.723C465.424 325.332 465.809 325.027 466.277 324.809C466.75 324.59 467.285 324.48 467.883 324.48C468.383 324.48 468.834 324.557 469.236 324.709C469.643 324.857 469.986 325.072 470.268 325.354C470.549 325.631 470.783 325.951 470.971 326.314C471.162 326.674 471.312 327.082 471.422 327.539C471.434 327.629 471.398 327.674 471.316 327.674H470.449C470.375 327.674 470.332 327.637 470.32 327.562C470.234 327.234 470.127 326.947 469.998 326.701C469.869 326.451 469.709 326.229 469.518 326.033C469.33 325.838 469.098 325.689 468.82 325.588C468.547 325.482 468.234 325.43 467.883 325.43C467.305 325.43 466.816 325.578 466.418 325.875C466.023 326.172 465.736 326.568 465.557 327.064C465.377 327.561 465.287 328.139 465.287 328.799C465.287 329.283 465.34 329.729 465.445 330.135C465.551 330.537 465.707 330.893 465.914 331.201C466.121 331.506 466.393 331.744 466.729 331.916C467.064 332.088 467.449 332.174 467.883 332.174C468.234 332.174 468.547 332.121 468.82 332.016C469.098 331.906 469.33 331.75 469.518 331.547C469.709 331.344 469.869 331.115 469.998 330.861C470.127 330.607 470.234 330.312 470.32 329.977Z" fill="#5F5CFE"/>
<g filter="url(#filter9_d)">
<g filter="url(#filter10_d)">
<path d="M317.941 405.615C317.941 417.051 308.671 426.321 297.235 426.321C285.8 426.321 276.529 417.051 276.529 405.615C276.529 394.18 285.8 384.909 297.235 384.909C308.671 384.909 317.941 394.18 317.941 405.615Z" fill="#F5F5F5"/>
<path d="M317.941 405.615C317.941 417.051 308.671 426.321 297.235 426.321C285.8 426.321 276.529 417.051 276.529 405.615C276.529 394.18 285.8 384.909 297.235 384.909C308.671 384.909 317.941 394.18 317.941 405.615Z" fill="url(#paint5_linear)"/>
</g>
</g>
<path d="M292.19 409.379C292.209 409.407 292.211 409.434 292.195 409.46C292.182 409.485 292.157 409.497 292.119 409.497H291.304C291.25 409.497 291.212 409.478 291.19 409.441L289.318 406.749L287.494 409.441C287.471 409.478 287.432 409.497 287.375 409.497H286.56C286.522 409.497 286.497 409.485 286.484 409.46C286.472 409.434 286.475 409.407 286.494 409.379L288.802 406.005L286.579 402.82C286.56 402.791 286.557 402.765 286.569 402.739C286.582 402.714 286.607 402.701 286.645 402.701H287.46C287.514 402.701 287.554 402.722 287.579 402.763L289.375 405.341L291.143 402.763C291.168 402.722 291.206 402.701 291.257 402.701H292.072C292.11 402.701 292.135 402.714 292.147 402.739C292.163 402.765 292.162 402.791 292.143 402.82L289.906 406.099L292.19 409.379Z" fill="#5F5CFE"/>
<path d="M295.377 402.701C295.949 402.701 296.454 402.79 296.893 402.967C297.336 403.141 297.691 403.384 297.96 403.697C298.228 404.009 298.429 404.366 298.562 404.768C298.697 405.169 298.765 405.61 298.765 406.09C298.765 406.469 298.724 406.826 298.642 407.161C298.56 407.496 298.429 407.807 298.249 408.095C298.072 408.382 297.852 408.63 297.59 408.839C297.331 409.044 297.012 409.205 296.633 409.322C296.257 409.439 295.838 409.497 295.377 409.497H293.524C293.457 409.497 293.424 409.466 293.424 409.403V402.801C293.424 402.773 293.434 402.749 293.453 402.73C293.472 402.711 293.495 402.701 293.524 402.701H295.377ZM295.377 408.635C295.743 408.635 296.07 408.591 296.358 408.502C296.648 408.414 296.889 408.294 297.078 408.142C297.268 407.987 297.424 407.801 297.547 407.583C297.674 407.365 297.764 407.134 297.817 406.891C297.871 406.644 297.898 406.377 297.898 406.09C297.898 405.727 297.854 405.398 297.765 405.104C297.677 404.81 297.536 404.547 297.344 404.313C297.154 404.076 296.892 403.893 296.557 403.763C296.225 403.633 295.832 403.569 295.377 403.569H294.287V408.635H295.377Z" fill="#5F5CFE"/>
<path d="M305.364 409.388C305.377 409.42 305.375 409.447 305.359 409.469C305.344 409.488 305.318 409.497 305.284 409.497H304.568C304.508 409.497 304.468 409.472 304.45 409.422L303.848 407.739H300.938L300.345 409.422C300.33 409.472 300.29 409.497 300.227 409.497H299.511C299.477 409.497 299.451 409.488 299.435 409.469C299.423 409.447 299.423 409.42 299.435 409.388L301.957 402.782C301.976 402.728 302.015 402.701 302.075 402.701H302.724C302.781 402.701 302.819 402.728 302.838 402.782L305.364 409.388ZM301.217 406.962H303.577L302.393 403.645L301.217 406.962Z" fill="#5F5CFE"/>
<path d="M306.584 402.801C306.584 402.773 306.594 402.749 306.612 402.73C306.631 402.711 306.655 402.701 306.684 402.701H307.371C307.434 402.701 307.466 402.735 307.466 402.801V409.403C307.466 409.466 307.434 409.497 307.371 409.497H306.684C306.617 409.497 306.584 409.466 306.584 409.403V402.801Z" fill="#5F5CFE"/>
<g filter="url(#filter11_dii)">
<circle cx="297.693" cy="405.145" r="24.7137" fill="#F5F5F5"/>
<circle cx="297.693" cy="405.145" r="24.7137" fill="url(#paint6_linear)"/>
</g>
<path d="M288.992 401.598C289.699 401.598 290.324 401.707 290.867 401.926C291.414 402.141 291.854 402.441 292.186 402.828C292.518 403.215 292.766 403.656 292.93 404.152C293.098 404.648 293.182 405.193 293.182 405.787C293.182 406.256 293.131 406.697 293.029 407.111C292.928 407.525 292.766 407.91 292.543 408.266C292.324 408.621 292.053 408.928 291.729 409.186C291.408 409.439 291.014 409.639 290.545 409.783C290.08 409.928 289.562 410 288.992 410H286.701C286.619 410 286.578 409.961 286.578 409.883V401.721C286.578 401.686 286.59 401.656 286.613 401.633C286.637 401.609 286.666 401.598 286.701 401.598H288.992ZM288.992 408.934C289.445 408.934 289.85 408.879 290.205 408.77C290.564 408.66 290.861 408.512 291.096 408.324C291.33 408.133 291.523 407.902 291.676 407.633C291.832 407.363 291.943 407.078 292.01 406.777C292.076 406.473 292.109 406.143 292.109 405.787C292.109 405.338 292.055 404.932 291.945 404.568C291.836 404.205 291.662 403.879 291.424 403.59C291.189 403.297 290.865 403.07 290.451 402.91C290.041 402.75 289.555 402.67 288.992 402.67H287.645V408.934H288.992ZM297.945 410.117C298.562 410.117 299.113 410.01 299.598 409.795C300.082 409.58 300.477 409.279 300.781 408.893C301.086 408.506 301.316 408.053 301.473 407.533C301.633 407.01 301.713 406.432 301.713 405.799C301.713 405.166 301.633 404.588 301.473 404.064C301.312 403.537 301.078 403.082 300.77 402.699C300.461 402.312 300.066 402.014 299.586 401.803C299.105 401.588 298.559 401.48 297.945 401.48C297.324 401.48 296.771 401.588 296.287 401.803C295.807 402.014 295.412 402.312 295.104 402.699C294.795 403.086 294.561 403.541 294.4 404.064C294.244 404.588 294.166 405.166 294.166 405.799C294.166 406.654 294.305 407.402 294.582 408.043C294.859 408.684 295.285 409.189 295.859 409.561C296.434 409.932 297.129 410.117 297.945 410.117ZM297.945 402.441C298.824 402.441 299.488 402.744 299.938 403.35C300.387 403.955 300.611 404.771 300.611 405.799C300.611 406.299 300.557 406.752 300.447 407.158C300.338 407.564 300.176 407.918 299.961 408.219C299.75 408.52 299.473 408.752 299.129 408.916C298.785 409.08 298.391 409.162 297.945 409.162C297.496 409.162 297.1 409.08 296.756 408.916C296.412 408.752 296.133 408.52 295.918 408.219C295.703 407.918 295.541 407.564 295.432 407.158C295.326 406.752 295.273 406.299 295.273 405.799C295.273 405.299 295.326 404.848 295.432 404.445C295.541 404.039 295.703 403.686 295.918 403.385C296.133 403.084 296.412 402.852 296.756 402.688C297.1 402.523 297.496 402.441 297.945 402.441ZM308.896 401.598C308.932 401.598 308.961 401.609 308.984 401.633C309.008 401.656 309.02 401.686 309.02 401.721V402.441C309.02 402.52 308.979 402.559 308.896 402.559H306.078V409.883C306.078 409.961 306.037 410 305.955 410H305.117C305.035 410 304.994 409.961 304.994 409.883V402.559H302.176C302.098 402.559 302.059 402.52 302.059 402.441V401.721C302.059 401.639 302.098 401.598 302.176 401.598H308.896Z" fill="#5F5CFE"/>
<g filter="url(#filter12_d)">
<g filter="url(#filter13_d)">
<path d="M201.795 137.409C201.795 148.845 192.524 158.115 181.089 158.115C169.653 158.115 160.383 148.845 160.383 137.409C160.383 125.973 169.653 116.703 181.089 116.703C192.524 116.703 201.795 125.973 201.795 137.409Z" fill="#F5F5F5"/>
<path d="M201.795 137.409C201.795 148.845 192.524 158.115 181.089 158.115C169.653 158.115 160.383 148.845 160.383 137.409C160.383 125.973 169.653 116.703 181.089 116.703C192.524 116.703 201.795 125.973 201.795 137.409Z" fill="url(#paint7_linear)"/>
</g>
</g>
<path d="M175.949 134.495C175.977 134.495 176.001 134.505 176.02 134.524C176.039 134.543 176.048 134.566 176.048 134.595V135.273C176.048 135.301 176.039 135.325 176.02 135.344C176.001 135.363 175.977 135.372 175.949 135.372H172.579V137.505H175.66C175.723 137.505 175.754 137.538 175.754 137.604V138.187C175.754 138.25 175.723 138.282 175.66 138.282H172.579V141.197C172.579 141.26 172.547 141.291 172.484 141.291H171.807C171.74 141.291 171.707 141.26 171.707 141.197V134.595C171.707 134.566 171.717 134.543 171.735 134.524C171.754 134.505 171.778 134.495 171.807 134.495H175.949Z" fill="#5F5CFE"/>
<path d="M182.254 134.495C182.282 134.495 182.306 134.505 182.325 134.524C182.344 134.543 182.353 134.566 182.353 134.595V135.178C182.353 135.241 182.32 135.273 182.254 135.273H179.974V141.197C179.974 141.26 179.941 141.291 179.875 141.291H179.197C179.131 141.291 179.097 141.26 179.097 141.197V135.273H176.818C176.755 135.273 176.723 135.241 176.723 135.178V134.595C176.723 134.529 176.755 134.495 176.818 134.495H182.254Z" fill="#5F5CFE"/>
<path d="M183.715 141.291C183.649 141.291 183.616 141.26 183.616 141.197V134.595C183.616 134.566 183.625 134.543 183.644 134.524C183.663 134.505 183.687 134.495 183.715 134.495H184.511C184.556 134.495 184.59 134.522 184.616 134.576L187.042 140.206L189.469 134.576C189.494 134.522 189.53 134.495 189.578 134.495H190.374C190.437 134.495 190.469 134.529 190.469 134.595V141.197C190.469 141.26 190.437 141.291 190.374 141.291H189.691C189.628 141.291 189.597 141.26 189.597 141.197V136.486L187.507 141.216C187.491 141.266 187.456 141.291 187.402 141.291H186.682C186.628 141.291 186.593 141.266 186.578 141.216L184.488 136.486V141.197C184.488 141.26 184.456 141.291 184.393 141.291H183.715Z" fill="#5F5CFE"/>
<g filter="url(#filter14_dii)">
<circle cx="180.59" cy="137.194" r="24.7137" fill="#F5F5F5"/>
<circle cx="180.59" cy="137.194" r="24.7137" fill="url(#paint8_linear)"/>
</g>
<path d="M174.746 133.598C174.781 133.598 174.811 133.609 174.834 133.633C174.857 133.656 174.869 133.686 174.869 133.721V134.559C174.869 134.594 174.857 134.623 174.834 134.646C174.811 134.67 174.781 134.682 174.746 134.682H170.58V137.318H174.389C174.467 137.318 174.506 137.359 174.506 137.441V138.162C174.506 138.24 174.467 138.279 174.389 138.279H170.58V141.883C170.58 141.961 170.541 142 170.463 142H169.625C169.543 142 169.502 141.961 169.502 141.883V133.721C169.502 133.686 169.514 133.656 169.537 133.633C169.561 133.609 169.59 133.598 169.625 133.598H174.746ZM181.941 133.598C181.977 133.598 182.006 133.609 182.029 133.633C182.053 133.656 182.064 133.686 182.064 133.721V134.441C182.064 134.52 182.023 134.559 181.941 134.559H179.123V141.883C179.123 141.961 179.082 142 179 142H178.162C178.08 142 178.039 141.961 178.039 141.883V134.559H175.221C175.143 134.559 175.104 134.52 175.104 134.441V133.721C175.104 133.639 175.143 133.598 175.221 133.598H181.941ZM183.148 142C183.066 142 183.025 141.961 183.025 141.883V133.721C183.025 133.686 183.037 133.656 183.061 133.633C183.084 133.609 183.113 133.598 183.148 133.598H184.133C184.188 133.598 184.23 133.631 184.262 133.697L187.262 140.658L190.262 133.697C190.293 133.631 190.338 133.598 190.396 133.598H191.381C191.459 133.598 191.498 133.639 191.498 133.721V141.883C191.498 141.961 191.459 142 191.381 142H190.537C190.459 142 190.42 141.961 190.42 141.883V136.059L187.836 141.906C187.816 141.969 187.773 142 187.707 142H186.816C186.75 142 186.707 141.969 186.688 141.906L184.104 136.059V141.883C184.104 141.961 184.064 142 183.986 142H183.148Z" fill="#5F5CFE"/>
<g filter="url(#filter15_d)">
<g filter="url(#filter16_d)">
<path d="M307.589 133.527C307.589 144.962 298.318 154.233 286.883 154.233C275.447 154.233 266.177 144.962 266.177 133.527C266.177 122.091 275.447 112.821 286.883 112.821C298.318 112.821 307.589 122.091 307.589 133.527Z" fill="#F5F5F5"/>
<path d="M307.589 133.527C307.589 144.962 298.318 154.233 286.883 154.233C275.447 154.233 266.177 144.962 266.177 133.527C266.177 122.091 275.447 112.821 286.883 112.821C298.318 112.821 307.589 122.091 307.589 133.527Z" fill="url(#paint9_linear)"/>
</g>
</g>
<path d="M280.747 137.3C280.759 137.332 280.758 137.358 280.742 137.381C280.726 137.4 280.701 137.409 280.666 137.409H279.951C279.891 137.409 279.851 137.384 279.832 137.333L279.23 135.651H276.32L275.728 137.333C275.712 137.384 275.673 137.409 275.61 137.409H274.894C274.859 137.409 274.834 137.4 274.818 137.381C274.805 137.358 274.805 137.332 274.818 137.3L277.339 130.694C277.358 130.64 277.398 130.613 277.458 130.613H278.107C278.164 130.613 278.202 130.64 278.221 130.694L280.747 137.3ZM276.6 134.874H278.96L277.775 131.556L276.6 134.874Z" fill="#5F5CFE"/>
<path d="M283.232 137.409C283.175 137.409 283.139 137.384 283.123 137.333L280.573 130.732C280.561 130.7 280.561 130.673 280.573 130.651C280.589 130.626 280.614 130.613 280.649 130.613H281.398C281.449 130.613 281.483 130.64 281.502 130.694L283.63 136.381L285.744 130.694C285.763 130.64 285.799 130.613 285.853 130.613H286.597C286.632 130.613 286.657 130.626 286.673 130.651C286.689 130.673 286.69 130.7 286.677 130.732L284.123 137.333C284.107 137.384 284.072 137.409 284.019 137.409H283.232Z" fill="#5F5CFE"/>
<path d="M292.532 137.3C292.545 137.332 292.543 137.358 292.528 137.381C292.512 137.4 292.486 137.409 292.452 137.409H291.736C291.676 137.409 291.637 137.384 291.618 137.333L291.016 135.651H288.106L287.513 137.333C287.498 137.384 287.458 137.409 287.395 137.409H286.679C286.645 137.409 286.619 137.4 286.604 137.381C286.591 137.358 286.591 137.332 286.604 137.3L289.125 130.694C289.144 130.64 289.183 130.613 289.243 130.613H289.893C289.949 130.613 289.987 130.64 290.006 130.694L292.532 137.3ZM288.385 134.874H290.746L289.561 131.556L288.385 134.874Z" fill="#5F5CFE"/>
<path d="M298.937 137.291C298.956 137.319 298.957 137.346 298.942 137.371C298.929 137.396 298.904 137.409 298.866 137.409H298.051C297.997 137.409 297.959 137.39 297.937 137.352L296.065 134.66L294.24 137.352C294.218 137.39 294.179 137.409 294.122 137.409H293.307C293.269 137.409 293.243 137.396 293.231 137.371C293.218 137.346 293.221 137.319 293.24 137.291L295.548 133.916L293.326 130.732C293.307 130.703 293.303 130.676 293.316 130.651C293.329 130.626 293.354 130.613 293.392 130.613H294.207C294.261 130.613 294.3 130.634 294.326 130.675L296.122 133.253L297.889 130.675C297.915 130.634 297.953 130.613 298.003 130.613H298.818C298.856 130.613 298.882 130.626 298.894 130.651C298.91 130.676 298.908 130.703 298.889 130.732L296.653 134.011L298.937 137.291Z" fill="#5F5CFE"/>
<g filter="url(#filter17_dii)">
<circle cx="286.719" cy="133.609" r="24.7137" fill="#F5F5F5"/>
<circle cx="286.719" cy="133.609" r="24.7137" fill="url(#paint10_linear)"/>
</g>
<path d="M280.033 138.524C280.049 138.563 280.047 138.596 280.027 138.624C280.008 138.647 279.977 138.659 279.934 138.659H279.049C278.975 138.659 278.926 138.627 278.902 138.565L278.158 136.485H274.561L273.828 138.565C273.809 138.627 273.76 138.659 273.682 138.659H272.797C272.754 138.659 272.723 138.647 272.703 138.624C272.687 138.596 272.687 138.563 272.703 138.524L275.82 130.356C275.844 130.29 275.893 130.256 275.967 130.256H276.769C276.84 130.256 276.887 130.29 276.91 130.356L280.033 138.524ZM274.906 135.524H277.824L276.359 131.422L274.906 135.524ZM282.506 138.659C282.436 138.659 282.391 138.627 282.371 138.565L279.219 130.403C279.203 130.364 279.203 130.331 279.219 130.303C279.238 130.272 279.269 130.256 279.312 130.256H280.238C280.301 130.256 280.344 130.29 280.367 130.356L282.998 137.387L285.611 130.356C285.635 130.29 285.68 130.256 285.746 130.256H286.666C286.709 130.256 286.74 130.272 286.76 130.303C286.779 130.331 286.781 130.364 286.766 130.403L283.607 138.565C283.588 138.627 283.545 138.659 283.478 138.659H282.506ZM293.404 138.524C293.42 138.563 293.418 138.596 293.398 138.624C293.379 138.647 293.348 138.659 293.305 138.659H292.42C292.346 138.659 292.297 138.627 292.273 138.565L291.529 136.485H287.932L287.199 138.565C287.18 138.627 287.131 138.659 287.053 138.659H286.168C286.125 138.659 286.094 138.647 286.074 138.624C286.059 138.596 286.059 138.563 286.074 138.524L289.191 130.356C289.215 130.29 289.264 130.256 289.338 130.256H290.141C290.211 130.256 290.258 130.29 290.281 130.356L293.404 138.524ZM288.277 135.524H291.195L289.73 131.422L288.277 135.524ZM300.723 138.512C300.746 138.547 300.748 138.581 300.728 138.612C300.713 138.643 300.682 138.659 300.635 138.659H299.627C299.561 138.659 299.514 138.635 299.486 138.588L297.172 135.26L294.916 138.588C294.889 138.635 294.84 138.659 294.769 138.659H293.762C293.715 138.659 293.684 138.643 293.668 138.612C293.652 138.581 293.656 138.547 293.68 138.512L296.533 134.34L293.785 130.403C293.762 130.368 293.758 130.334 293.773 130.303C293.789 130.272 293.82 130.256 293.867 130.256H294.875C294.941 130.256 294.99 130.282 295.021 130.333L297.242 133.52L299.428 130.333C299.459 130.282 299.506 130.256 299.568 130.256H300.576C300.623 130.256 300.654 130.272 300.67 130.303C300.689 130.334 300.687 130.368 300.664 130.403L297.898 134.458L300.723 138.512Z" fill="#5F5CFE"/>
<g filter="url(#filter18_d)">
<g filter="url(#filter19_d)">
<path d="M459.647 162.644C459.647 176.045 448.783 186.909 435.382 186.909C421.981 186.909 411.117 176.045 411.117 162.644C411.117 149.243 421.981 138.38 435.382 138.38C448.783 138.38 459.647 149.243 459.647 162.644Z" fill="#F5F5F5"/>
<path d="M459.647 162.644C459.647 176.045 448.783 186.909 435.382 186.909C421.981 186.909 411.117 176.045 411.117 162.644C411.117 149.243 421.981 138.38 435.382 138.38C448.783 138.38 459.647 149.243 459.647 162.644Z" fill="url(#paint11_linear)"/>
</g>
</g>
<path d="M428.016 159.731C428.588 159.731 429.093 159.819 429.533 159.996C429.975 160.17 430.33 160.413 430.599 160.726C430.867 161.039 431.068 161.396 431.201 161.797C431.337 162.198 431.405 162.639 431.405 163.119C431.405 163.498 431.363 163.855 431.281 164.19C431.199 164.525 431.068 164.836 430.888 165.124C430.711 165.411 430.491 165.66 430.229 165.868C429.97 166.073 429.651 166.235 429.272 166.351C428.896 166.468 428.477 166.527 428.016 166.527H426.163C426.097 166.527 426.063 166.495 426.063 166.432V159.83C426.063 159.802 426.073 159.778 426.092 159.759C426.111 159.74 426.135 159.731 426.163 159.731H428.016ZM428.016 165.664C428.383 165.664 428.71 165.62 428.997 165.532C429.288 165.443 429.528 165.323 429.717 165.171C429.907 165.017 430.063 164.83 430.187 164.612C430.313 164.394 430.403 164.164 430.457 163.92C430.51 163.674 430.537 163.407 430.537 163.119C430.537 162.756 430.493 162.427 430.405 162.134C430.316 161.84 430.176 161.576 429.983 161.342C429.793 161.105 429.531 160.922 429.196 160.792C428.864 160.663 428.471 160.598 428.016 160.598H426.926V165.664H428.016Z" fill="#5F5CFE"/>
<path d="M435.743 166.622C436.242 166.622 436.687 166.535 437.079 166.361C437.471 166.187 437.79 165.944 438.037 165.631C438.283 165.318 438.469 164.952 438.596 164.532C438.725 164.108 438.79 163.641 438.79 163.129C438.79 162.617 438.725 162.149 438.596 161.726C438.466 161.299 438.277 160.931 438.027 160.622C437.778 160.309 437.458 160.067 437.07 159.897C436.681 159.723 436.239 159.636 435.743 159.636C435.24 159.636 434.793 159.723 434.402 159.897C434.013 160.067 433.694 160.309 433.444 160.622C433.195 160.935 433.005 161.303 432.876 161.726C432.749 162.149 432.686 162.617 432.686 163.129C432.686 163.821 432.798 164.426 433.023 164.944C433.247 165.462 433.591 165.871 434.056 166.171C434.52 166.471 435.082 166.622 435.743 166.622ZM435.743 160.413C436.454 160.413 436.991 160.658 437.354 161.148C437.717 161.638 437.899 162.298 437.899 163.129C437.899 163.533 437.855 163.9 437.766 164.228C437.678 164.557 437.547 164.843 437.373 165.086C437.202 165.329 436.978 165.517 436.7 165.65C436.422 165.783 436.103 165.849 435.743 165.849C435.379 165.849 435.059 165.783 434.781 165.65C434.503 165.517 434.277 165.329 434.103 165.086C433.929 164.843 433.798 164.557 433.71 164.228C433.624 163.9 433.582 163.533 433.582 163.129C433.582 162.724 433.624 162.359 433.71 162.034C433.798 161.705 433.929 161.42 434.103 161.176C434.277 160.933 434.503 160.745 434.781 160.612C435.059 160.48 435.379 160.413 435.743 160.413Z" fill="#5F5CFE"/>
<path d="M445.086 159.731C445.114 159.731 445.138 159.74 445.157 159.759C445.176 159.778 445.185 159.802 445.185 159.83V160.413C445.185 160.476 445.152 160.508 445.086 160.508H442.806V166.432C442.806 166.495 442.773 166.527 442.707 166.527H442.029C441.963 166.527 441.929 166.495 441.929 166.432V160.508H439.65C439.587 160.508 439.555 160.476 439.555 160.413V159.83C439.555 159.764 439.587 159.731 439.65 159.731H445.086Z" fill="#5F5CFE"/>
<path d="M231.073 283.088C231.877 283.088 232.529 282.364 232.529 281.471C232.529 280.577 231.877 279.853 231.073 279.853C230.269 279.853 229.617 280.577 229.617 281.471C229.617 282.364 230.269 283.088 231.073 283.088Z" fill="#B4B3FD"/>
<path d="M253.235 281.147C254.128 281.147 254.852 280.423 254.852 279.53C254.852 278.636 254.128 277.912 253.235 277.912C252.341 277.912 251.617 278.636 251.617 279.53C251.617 280.423 252.341 281.147 253.235 281.147Z" fill="#B4B3FD"/>
<path d="M259.706 290.529C260.599 290.529 261.323 289.805 261.323 288.912C261.323 288.018 260.599 287.294 259.706 287.294C258.812 287.294 258.088 288.018 258.088 288.912C258.088 289.805 258.812 290.529 259.706 290.529Z" fill="#B4B3FD"/>
<path d="M278.794 283.735C279.688 283.735 280.412 283.011 280.412 282.118C280.412 281.224 279.688 280.5 278.794 280.5C277.901 280.5 277.177 281.224 277.177 282.118C277.177 283.011 277.901 283.735 278.794 283.735Z" fill="white"/>
<path d="M232.206 234.235C233.099 234.235 233.823 233.511 233.823 232.618C233.823 231.724 233.099 231 232.206 231C231.312 231 230.588 231.724 230.588 232.618C230.588 233.511 231.312 234.235 232.206 234.235Z" fill="#B4B3FD"/>
<path d="M233.985 254.618C235.325 254.618 236.412 253.531 236.412 252.191C236.412 250.851 235.325 249.765 233.985 249.765C232.645 249.765 231.559 250.851 231.559 252.191C231.559 253.531 232.645 254.618 233.985 254.618Z" fill="#B4B3FD"/>
<path d="M274.426 277.912C275.588 277.912 276.529 276.97 276.529 275.809C276.529 274.648 275.588 273.706 274.426 273.706C273.265 273.706 272.323 274.648 272.323 275.809C272.323 276.97 273.265 277.912 274.426 277.912Z" fill="white"/>
<path d="M232.691 302.824C233.852 302.824 234.794 301.955 234.794 300.883C234.794 299.811 233.852 298.941 232.691 298.941C231.529 298.941 230.588 299.811 230.588 300.883C230.588 301.955 231.529 302.824 232.691 302.824Z" fill="#B4B3FD"/>
<path d="M248.706 292.147C249.957 292.147 250.971 291.133 250.971 289.882C250.971 288.632 249.957 287.618 248.706 287.618C247.455 287.618 246.441 288.632 246.441 289.882C246.441 291.133 247.455 292.147 248.706 292.147Z" fill="white"/>
<path d="M272.647 309.294C273.897 309.294 274.911 308.28 274.911 307.03C274.911 305.779 273.897 304.765 272.647 304.765C271.396 304.765 270.382 305.779 270.382 307.03C270.382 308.28 271.396 309.294 272.647 309.294Z" fill="#B4B3FD"/>
<path d="M266.177 299.912C267.249 299.912 268.118 299.043 268.118 297.971C268.118 296.899 267.249 296.03 266.177 296.03C265.104 296.03 264.235 296.899 264.235 297.971C264.235 299.043 265.104 299.912 266.177 299.912Z" fill="#B4B3FD"/>
<path d="M239.162 312.853C240.681 312.853 241.912 311.622 241.912 310.103C241.912 308.584 240.681 307.353 239.162 307.353C237.643 307.353 236.412 308.584 236.412 310.103C236.412 311.622 237.643 312.853 239.162 312.853Z" fill="white"/>
<path d="M250 245.882C252.323 245.882 254.206 243.999 254.206 241.677C254.206 239.354 252.323 237.471 250 237.471C247.677 237.471 245.794 239.354 245.794 241.677C245.794 243.999 247.677 245.882 250 245.882Z" fill="white"/>
<path d="M243.529 235.853C246.031 235.853 248.059 233.825 248.059 231.324C248.059 228.822 246.031 226.794 243.529 226.794C241.028 226.794 239 228.822 239 231.324C239 233.825 241.028 235.853 243.529 235.853Z" fill="white"/>
<path d="M245.147 255.912C247.291 255.912 249.029 254.174 249.029 252.03C249.029 249.885 247.291 248.147 245.147 248.147C243.003 248.147 241.265 249.885 241.265 252.03C241.265 254.174 243.003 255.912 245.147 255.912Z" fill="white"/>
<path d="M256.309 254.294C258.542 254.294 260.353 252.484 260.353 250.25C260.353 248.017 258.542 246.206 256.309 246.206C254.075 246.206 252.265 248.017 252.265 250.25C252.265 252.484 254.075 254.294 256.309 254.294Z" fill="white"/>
<path d="M240.618 265.294C242.762 265.294 244.5 263.484 244.5 261.25C244.5 259.017 242.762 257.206 240.618 257.206C238.474 257.206 236.735 259.017 236.735 261.25C236.735 263.484 238.474 265.294 240.618 265.294Z" fill="white"/>
<path d="M251.618 264C253.762 264 255.5 262.334 255.5 260.28C255.5 258.225 253.762 256.559 251.618 256.559C249.474 256.559 247.735 258.225 247.735 260.28C247.735 262.334 249.474 264 251.618 264Z" fill="white"/>
<path d="M262.941 262.706C264.728 262.706 266.177 261.185 266.177 259.309C266.177 257.433 264.728 255.912 262.941 255.912C261.155 255.912 259.706 257.433 259.706 259.309C259.706 261.185 261.155 262.706 262.941 262.706Z" fill="white"/>
<path d="M258.088 272.735C259.875 272.735 261.323 271.287 261.323 269.5C261.323 267.713 259.875 266.265 258.088 266.265C256.301 266.265 254.853 267.713 254.853 269.5C254.853 271.287 256.301 272.735 258.088 272.735Z" fill="white"/>
<path d="M246.765 273.706C248.551 273.706 250 272.257 250 270.471C250 268.684 248.551 267.235 246.765 267.235C244.978 267.235 243.529 268.684 243.529 270.471C243.529 272.257 244.978 273.706 246.765 273.706Z" fill="white"/>
<path d="M242.073 284.383C244.128 284.383 245.794 282.717 245.794 280.662C245.794 278.607 244.128 276.941 242.073 276.941C240.018 276.941 238.353 278.607 238.353 280.662C238.353 282.717 240.018 284.383 242.073 284.383Z" fill="white"/>
<path d="M237.383 294.088C239.17 294.088 240.618 292.567 240.618 290.691C240.618 288.815 239.17 287.294 237.383 287.294C235.596 287.294 234.147 288.815 234.147 290.691C234.147 292.567 235.596 294.088 237.383 294.088Z" fill="white"/>
<path d="M270.868 291.5C272.923 291.5 274.589 289.834 274.589 287.78C274.589 285.725 272.923 284.059 270.868 284.059C268.813 284.059 267.147 285.725 267.147 287.78C267.147 289.834 268.813 291.5 270.868 291.5Z" fill="white"/>
<path d="M264.397 282.441C266.452 282.441 268.118 280.775 268.118 278.721C268.118 276.666 266.452 275 264.397 275C262.343 275 260.677 276.666 260.677 278.721C260.677 280.775 262.343 282.441 264.397 282.441Z" fill="white"/>
<path d="M243.691 303.794C245.746 303.794 247.412 302.128 247.412 300.074C247.412 298.019 245.746 296.353 243.691 296.353C241.636 296.353 239.971 298.019 239.971 300.074C239.971 302.128 241.636 303.794 243.691 303.794Z" fill="white"/>
<path d="M235.603 274.03C237.121 274.03 238.353 272.798 238.353 271.28C238.353 269.761 237.121 268.53 235.603 268.53C234.084 268.53 232.853 269.761 232.853 271.28C232.853 272.798 234.084 274.03 235.603 274.03Z" fill="white"/>
<path d="M269.25 271.118C270.769 271.118 272 269.886 272 268.368C272 266.849 270.769 265.618 269.25 265.618C267.731 265.618 266.5 266.849 266.5 268.368C266.5 269.886 267.731 271.118 269.25 271.118Z" fill="white"/>
<path d="M238.838 245.882C241.072 245.882 242.882 244.072 242.882 241.838C242.882 239.605 241.072 237.794 238.838 237.794C236.605 237.794 234.794 239.605 234.794 241.838C234.794 244.072 236.605 245.882 238.838 245.882Z" fill="white"/>
<path d="M336.382 283.088C337.276 283.088 338 282.364 338 281.471C338 280.577 337.276 279.853 336.382 279.853C335.489 279.853 334.765 280.577 334.765 281.471C334.765 282.364 335.489 283.088 336.382 283.088Z" fill="#B4B3FD"/>
<path d="M314.059 281.147C314.952 281.147 315.677 280.423 315.677 279.53C315.677 278.636 314.952 277.912 314.059 277.912C313.166 277.912 312.441 278.636 312.441 279.53C312.441 280.423 313.166 281.147 314.059 281.147Z" fill="#B4B3FD"/>
<path d="M307.588 290.529C308.482 290.529 309.206 289.805 309.206 288.912C309.206 288.018 308.482 287.294 307.588 287.294C306.695 287.294 305.971 288.018 305.971 288.912C305.971 289.805 306.695 290.529 307.588 290.529Z" fill="#B4B3FD"/>
<path d="M288.824 283.735C289.717 283.735 290.441 283.011 290.441 282.118C290.441 281.224 289.717 280.5 288.824 280.5C287.93 280.5 287.206 281.224 287.206 282.118C287.206 283.011 287.93 283.735 288.824 283.735Z" fill="white"/>
<path d="M335.735 234.883C336.628 234.883 337.352 234.158 337.352 233.265C337.352 232.371 336.628 231.647 335.735 231.647C334.841 231.647 334.117 232.371 334.117 233.265C334.117 234.158 334.841 234.883 335.735 234.883Z" fill="#B4B3FD"/>
<path d="M333.47 254.618C334.9 254.618 336.058 253.531 336.058 252.191C336.058 250.851 334.9 249.765 333.47 249.765C332.041 249.765 330.882 250.851 330.882 252.191C330.882 253.531 332.041 254.618 333.47 254.618Z" fill="#B4B3FD"/>
<path d="M293.191 277.912C294.352 277.912 295.294 276.97 295.294 275.809C295.294 274.648 294.352 273.706 293.191 273.706C292.029 273.706 291.088 274.648 291.088 275.809C291.088 276.97 292.029 277.912 293.191 277.912Z" fill="white"/>
<path d="M334.764 302.824C335.837 302.824 336.706 301.955 336.706 300.883C336.706 299.811 335.837 298.941 334.764 298.941C333.692 298.941 332.823 299.811 332.823 300.883C332.823 301.955 333.692 302.824 334.764 302.824Z" fill="#B4B3FD"/>
<path d="M318.912 292.147C320.163 292.147 321.177 291.133 321.177 289.882C321.177 288.632 320.163 287.618 318.912 287.618C317.661 287.618 316.647 288.632 316.647 289.882C316.647 291.133 317.661 292.147 318.912 292.147Z" fill="white"/>
<path d="M294.971 309.294C296.222 309.294 297.235 308.28 297.235 307.03C297.235 305.779 296.222 304.765 294.971 304.765C293.72 304.765 292.706 305.779 292.706 307.03C292.706 308.28 293.72 309.294 294.971 309.294Z" fill="#B4B3FD"/>
<path d="M301.279 299.912C302.262 299.912 303.059 299.043 303.059 297.971C303.059 296.899 302.262 296.03 301.279 296.03C300.297 296.03 299.5 296.899 299.5 297.971C299.5 299.043 300.297 299.912 301.279 299.912Z" fill="#B4B3FD"/>
<path d="M328.294 312.853C329.724 312.853 330.883 311.622 330.883 310.103C330.883 308.584 329.724 307.353 328.294 307.353C326.865 307.353 325.706 308.584 325.706 310.103C325.706 311.622 326.865 312.853 328.294 312.853Z" fill="white"/>
<path d="M317.618 245.882C319.941 245.882 321.824 243.999 321.824 241.677C321.824 239.354 319.941 237.471 317.618 237.471C315.295 237.471 313.412 239.354 313.412 241.677C313.412 243.999 315.295 245.882 317.618 245.882Z" fill="white"/>
<path d="M324.088 235.853C326.59 235.853 328.617 233.825 328.617 231.324C328.617 228.822 326.59 226.794 324.088 226.794C321.586 226.794 319.559 228.822 319.559 231.324C319.559 233.825 321.586 235.853 324.088 235.853Z" fill="white"/>
<path d="M322.309 255.912C324.542 255.912 326.353 254.174 326.353 252.03C326.353 249.885 324.542 248.147 322.309 248.147C320.075 248.147 318.265 249.885 318.265 252.03C318.265 254.174 320.075 255.912 322.309 255.912Z" fill="white"/>
<path d="M311.147 254.294C313.47 254.294 315.353 252.484 315.353 250.25C315.353 248.017 313.47 246.206 311.147 246.206C308.824 246.206 306.941 248.017 306.941 250.25C306.941 252.484 308.824 254.294 311.147 254.294Z" fill="white"/>
<path d="M327 265.294C329.144 265.294 330.882 263.484 330.882 261.25C330.882 259.017 329.144 257.206 327 257.206C324.855 257.206 323.117 259.017 323.117 261.25C323.117 263.484 324.855 265.294 327 265.294Z" fill="white"/>
<path d="M315.838 264C317.893 264 319.558 262.334 319.558 260.28C319.558 258.225 317.893 256.559 315.838 256.559C313.783 256.559 312.117 258.225 312.117 260.28C312.117 262.334 313.783 264 315.838 264Z" fill="white"/>
<path d="M304.677 262.706C306.464 262.706 307.912 261.185 307.912 259.309C307.912 257.433 306.464 255.912 304.677 255.912C302.89 255.912 301.441 257.433 301.441 259.309C301.441 261.185 302.89 262.706 304.677 262.706Z" fill="white"/>
<path d="M309.368 272.735C311.244 272.735 312.765 271.287 312.765 269.5C312.765 267.713 311.244 266.265 309.368 266.265C307.492 266.265 305.971 267.713 305.971 269.5C305.971 271.287 307.492 272.735 309.368 272.735Z" fill="white"/>
<path d="M320.529 273.706C322.316 273.706 323.765 272.257 323.765 270.471C323.765 268.684 322.316 267.235 320.529 267.235C318.742 267.235 317.294 268.684 317.294 270.471C317.294 272.257 318.742 273.706 320.529 273.706Z" fill="white"/>
<path d="M325.221 284.383C327.275 284.383 328.941 282.717 328.941 280.662C328.941 278.607 327.275 276.941 325.221 276.941C323.166 276.941 321.5 278.607 321.5 280.662C321.5 282.717 323.166 284.383 325.221 284.383Z" fill="white"/>
<path d="M330.074 294.088C331.95 294.088 333.471 292.567 333.471 290.691C333.471 288.815 331.95 287.294 330.074 287.294C328.198 287.294 326.677 288.815 326.677 290.691C326.677 292.567 328.198 294.088 330.074 294.088Z" fill="white"/>
<path d="M296.427 291.5C298.481 291.5 300.147 289.834 300.147 287.78C300.147 285.725 298.481 284.059 296.427 284.059C294.372 284.059 292.706 285.725 292.706 287.78C292.706 289.834 294.372 291.5 296.427 291.5Z" fill="white"/>
<path d="M302.897 282.441C304.952 282.441 306.618 280.775 306.618 278.721C306.618 276.666 304.952 275 302.897 275C300.843 275 299.177 276.666 299.177 278.721C299.177 280.775 300.843 282.441 302.897 282.441Z" fill="white"/>
<path d="M323.602 303.794C325.657 303.794 327.323 302.128 327.323 300.074C327.323 298.019 325.657 296.353 323.602 296.353C321.548 296.353 319.882 298.019 319.882 300.074C319.882 302.128 321.548 303.794 323.602 303.794Z" fill="white"/>
<path d="M331.691 274.03C333.21 274.03 334.441 272.798 334.441 271.28C334.441 269.761 333.21 268.53 331.691 268.53C330.173 268.53 328.941 269.761 328.941 271.28C328.941 272.798 330.173 274.03 331.691 274.03Z" fill="white"/>
<path d="M298.367 271.118C299.886 271.118 301.117 269.886 301.117 268.368C301.117 266.849 299.886 265.618 298.367 265.618C296.848 265.618 295.617 266.849 295.617 268.368C295.617 269.886 296.848 271.118 298.367 271.118Z" fill="white"/>
<path d="M328.779 245.882C331.013 245.882 332.824 244.072 332.824 241.838C332.824 239.605 331.013 237.794 328.779 237.794C326.546 237.794 324.735 239.605 324.735 241.838C324.735 244.072 326.546 245.882 328.779 245.882Z" fill="white"/>
<path d="M283.647 291.824C285.434 291.824 286.883 290.375 286.883 288.588C286.883 286.802 285.434 285.353 283.647 285.353C281.861 285.353 280.412 286.802 280.412 288.588C280.412 290.375 281.861 291.824 283.647 291.824Z" fill="white"/>
<path d="M283.647 309.618C285.434 309.618 286.883 308.169 286.883 306.383C286.883 304.596 285.434 303.147 283.647 303.147C281.861 303.147 280.412 304.596 280.412 306.383C280.412 308.169 281.861 309.618 283.647 309.618Z" fill="white"/>
<path d="M277.177 300.235C278.964 300.235 280.412 298.787 280.412 297C280.412 295.213 278.964 293.765 277.177 293.765C275.39 293.765 273.941 295.213 273.941 297C273.941 298.787 275.39 300.235 277.177 300.235Z" fill="white"/>
<path d="M290.117 300.235C291.904 300.235 293.352 298.787 293.352 297C293.352 295.213 291.904 293.765 290.117 293.765C288.33 293.765 286.882 295.213 286.882 297C286.882 298.787 288.33 300.235 290.117 300.235Z" fill="white"/>
<path d="M278.956 317.706C279.76 317.706 280.412 317.054 280.412 316.25C280.412 315.446 279.76 314.794 278.956 314.794C278.152 314.794 277.5 315.446 277.5 316.25C277.5 317.054 278.152 317.706 278.956 317.706Z" fill="#EFEFEF"/>
<path d="M288.5 317.706C289.215 317.706 289.794 317.054 289.794 316.25C289.794 315.446 289.215 314.794 288.5 314.794C287.785 314.794 287.206 315.446 287.206 316.25C287.206 317.054 287.785 317.706 288.5 317.706Z" fill="#EFEFEF"/>
<defs>
<filter id="filter0_dii" x="4" y="0" width="558" height="558" filterUnits="userSpaceOnUse" color-interpolation-filters="sRGB">
<feFlood flood-opacity="0" result="BackgroundImageFix"/>
<feColorMatrix in="SourceAlpha" type="matrix" values="0 0 0 0 0 0 0 0 0 0 0 0 0 0 0 0 0 0 127 0"/>
<feOffset dy="4"/>
<feGaussianBlur stdDeviation="2"/>
<feColorMatrix type="matrix" values="0 0 0 0 0 0 0 0 0 0 0 0 0 0 0 0 0 0 0.25 0"/>
<feBlend mode="normal" in2="BackgroundImageFix" result="effect1_dropShadow"/>
<feBlend mode="normal" in="SourceGraphic" in2="effect1_dropShadow" result="shape"/>
<feColorMatrix in="SourceAlpha" type="matrix" values="0 0 0 0 0 0 0 0 0 0 0 0 0 0 0 0 0 0 127 0" result="hardAlpha"/>
<feMorphology radius="0.5" operator="dilate" in="SourceAlpha" result="effect2_innerShadow"/>
<feOffset dy="1"/>
<feGaussianBlur stdDeviation="0.5"/>
<feComposite in2="hardAlpha" operator="arithmetic" k2="-1" k3="1"/>
<feColorMatrix type="matrix" values="0 0 0 0 0 0 0 0 0 0 0 0 0 0 0 0 0 0 0.25 0"/>
<feBlend mode="normal" in2="shape" result="effect2_innerShadow"/>
<feColorMatrix in="SourceAlpha" type="matrix" values="0 0 0 0 0 0 0 0 0 0 0 0 0 0 0 0 0 0 127 0" result="hardAlpha"/>
<feOffset dy="1"/>
<feGaussianBlur stdDeviation="1"/>
<feComposite in2="hardAlpha" operator="arithmetic" k2="-1" k3="1"/>
<feColorMatrix type="matrix" values="0 0 0 0 1 0 0 0 0 1 0 0 0 0 1 0 0 0 1 0"/>
<feBlend mode="normal" in2="effect2_innerShadow" result="effect3_innerShadow"/>
</filter>
<filter id="filter1_d" x="0.882812" y="123.821" width="182.471" height="182.471" filterUnits="userSpaceOnUse" color-interpolation-filters="sRGB">
<feFlood flood-opacity="0" result="BackgroundImageFix"/>
<feColorMatrix in="SourceAlpha" type="matrix" values="0 0 0 0 0 0 0 0 0 0 0 0 0 0 0 0 0 0 127 0"/>
<feOffset/>
<feGaussianBlur stdDeviation="27.5"/>
<feColorMatrix type="matrix" values="0 0 0 0 0.333333 0 0 0 0 0.317647 0 0 0 0 1 0 0 0 0.4 0"/>
<feBlend mode="normal" in2="BackgroundImageFix" result="effect1_dropShadow"/>
<feBlend mode="normal" in="SourceGraphic" in2="effect1_dropShadow" result="shape"/>
</filter>
<filter id="filter2_d" x="51.8828" y="178.821" width="80.4706" height="80.4706" filterUnits="userSpaceOnUse" color-interpolation-filters="sRGB">
<feFlood flood-opacity="0" result="BackgroundImageFix"/>
<feColorMatrix in="SourceAlpha" type="matrix" values="0 0 0 0 0 0 0 0 0 0 0 0 0 0 0 0 0 0 127 0"/>
<feOffset dy="4"/>
<feGaussianBlur stdDeviation="2"/>
<feColorMatrix type="matrix" values="0 0 0 0 0 0 0 0 0 0 0 0 0 0 0 0 0 0 0.25 0"/>
<feBlend mode="normal" in2="BackgroundImageFix" result="effect1_dropShadow"/>
<feBlend mode="normal" in="SourceGraphic" in2="effect1_dropShadow" result="shape"/>
</filter>
<filter id="filter3_d" x="42.6172" y="270.056" width="166.941" height="166.941" filterUnits="userSpaceOnUse" color-interpolation-filters="sRGB">
<feFlood flood-opacity="0" result="BackgroundImageFix"/>
<feColorMatrix in="SourceAlpha" type="matrix" values="0 0 0 0 0 0 0 0 0 0 0 0 0 0 0 0 0 0 127 0"/>
<feOffset/>
<feGaussianBlur stdDeviation="27.5"/>
<feColorMatrix type="matrix" values="0 0 0 0 0.333333 0 0 0 0 0.317647 0 0 0 0 1 0 0 0 0.4 0"/>
<feBlend mode="normal" in2="BackgroundImageFix" result="effect1_dropShadow"/>
<feBlend mode="normal" in="SourceGraphic" in2="effect1_dropShadow" result="shape"/>
</filter>
<filter id="filter4_d" x="93.6172" y="325.056" width="64.9412" height="64.9412" filterUnits="userSpaceOnUse" color-interpolation-filters="sRGB">
<feFlood flood-opacity="0" result="BackgroundImageFix"/>
<feColorMatrix in="SourceAlpha" type="matrix" values="0 0 0 0 0 0 0 0 0 0 0 0 0 0 0 0 0 0 127 0"/>
<feOffset dy="4"/>
<feGaussianBlur stdDeviation="2"/>
<feColorMatrix type="matrix" values="0 0 0 0 0 0 0 0 0 0 0 0 0 0 0 0 0 0 0.25 0"/>
<feBlend mode="normal" in2="BackgroundImageFix" result="effect1_dropShadow"/>
<feBlend mode="normal" in="SourceGraphic" in2="effect1_dropShadow" result="shape"/>
</filter>
<filter id="filter5_dii" x="88.4375" y="315.994" width="75.9628" height="79.9628" filterUnits="userSpaceOnUse" color-interpolation-filters="sRGB">
<feFlood flood-opacity="0" result="BackgroundImageFix"/>
<feColorMatrix in="SourceAlpha" type="matrix" values="0 0 0 0 0 0 0 0 0 0 0 0 0 0 0 0 0 0 127 0"/>
<feOffset dy="4"/>
<feGaussianBlur stdDeviation="2"/>
<feColorMatrix type="matrix" values="0 0 0 0 0 0 0 0 0 0 0 0 0 0 0 0 0 0 0.25 0"/>
<feBlend mode="normal" in2="BackgroundImageFix" result="effect1_dropShadow"/>
<feBlend mode="normal" in="SourceGraphic" in2="effect1_dropShadow" result="shape"/>
<feColorMatrix in="SourceAlpha" type="matrix" values="0 0 0 0 0 0 0 0 0 0 0 0 0 0 0 0 0 0 127 0" result="hardAlpha"/>
<feOffset dy="-4"/>
<feGaussianBlur stdDeviation="2"/>
<feComposite in2="hardAlpha" operator="arithmetic" k2="-1" k3="1"/>
<feColorMatrix type="matrix" values="0 0 0 0 0 0 0 0 0 0 0 0 0 0 0 0 0 0 0.1 0"/>
<feBlend mode="normal" in2="shape" result="effect2_innerShadow"/>
<feColorMatrix in="SourceAlpha" type="matrix" values="0 0 0 0 0 0 0 0 0 0 0 0 0 0 0 0 0 0 127 0" result="hardAlpha"/>
<feOffset/>
<feGaussianBlur stdDeviation="1"/>
<feComposite in2="hardAlpha" operator="arithmetic" k2="-1" k3="1"/>
<feColorMatrix type="matrix" values="0 0 0 0 1 0 0 0 0 1 0 0 0 0 1 0 0 0 1 0"/>
<feBlend mode="normal" in2="effect2_innerShadow" result="effect3_innerShadow"/>
</filter>
<filter id="filter6_d" x="379.088" y="252.585" width="151.412" height="151.412" filterUnits="userSpaceOnUse" color-interpolation-filters="sRGB">
<feFlood flood-opacity="0" result="BackgroundImageFix"/>
<feColorMatrix in="SourceAlpha" type="matrix" values="0 0 0 0 0 0 0 0 0 0 0 0 0 0 0 0 0 0 127 0"/>
<feOffset/>
<feGaussianBlur stdDeviation="27.5"/>
<feColorMatrix type="matrix" values="0 0 0 0 0.333333 0 0 0 0 0.317647 0 0 0 0 1 0 0 0 0.4 0"/>
<feBlend mode="normal" in2="BackgroundImageFix" result="effect1_dropShadow"/>
<feBlend mode="normal" in="SourceGraphic" in2="effect1_dropShadow" result="shape"/>
</filter>
<filter id="filter7_d" x="430.088" y="307.585" width="49.4118" height="49.4118" filterUnits="userSpaceOnUse" color-interpolation-filters="sRGB">
<feFlood flood-opacity="0" result="BackgroundImageFix"/>
<feColorMatrix in="SourceAlpha" type="matrix" values="0 0 0 0 0 0 0 0 0 0 0 0 0 0 0 0 0 0 127 0"/>
<feOffset dy="4"/>
<feGaussianBlur stdDeviation="2"/>
<feColorMatrix type="matrix" values="0 0 0 0 0 0 0 0 0 0 0 0 0 0 0 0 0 0 0.25 0"/>
<feBlend mode="normal" in2="BackgroundImageFix" result="effect1_dropShadow"/>
<feBlend mode="normal" in="SourceGraphic" in2="effect1_dropShadow" result="shape"/>
</filter>
<filter id="filter8_dii" x="426.035" y="299.141" width="57.4275" height="61.4275" filterUnits="userSpaceOnUse" color-interpolation-filters="sRGB">
<feFlood flood-opacity="0" result="BackgroundImageFix"/>
<feColorMatrix in="SourceAlpha" type="matrix" values="0 0 0 0 0 0 0 0 0 0 0 0 0 0 0 0 0 0 127 0"/>
<feOffset dy="4"/>
<feGaussianBlur stdDeviation="2"/>
<feColorMatrix type="matrix" values="0 0 0 0 0 0 0 0 0 0 0 0 0 0 0 0 0 0 0.25 0"/>
<feBlend mode="normal" in2="BackgroundImageFix" result="effect1_dropShadow"/>
<feBlend mode="normal" in="SourceGraphic" in2="effect1_dropShadow" result="shape"/>
<feColorMatrix in="SourceAlpha" type="matrix" values="0 0 0 0 0 0 0 0 0 0 0 0 0 0 0 0 0 0 127 0" result="hardAlpha"/>
<feOffset dy="-4"/>
<feGaussianBlur stdDeviation="2"/>
<feComposite in2="hardAlpha" operator="arithmetic" k2="-1" k3="1"/>
<feColorMatrix type="matrix" values="0 0 0 0 0 0 0 0 0 0 0 0 0 0 0 0 0 0 0.1 0"/>
<feBlend mode="normal" in2="shape" result="effect2_innerShadow"/>
<feColorMatrix in="SourceAlpha" type="matrix" values="0 0 0 0 0 0 0 0 0 0 0 0 0 0 0 0 0 0 127 0" result="hardAlpha"/>
<feOffset/>
<feGaussianBlur stdDeviation="1"/>
<feComposite in2="hardAlpha" operator="arithmetic" k2="-1" k3="1"/>
<feColorMatrix type="matrix" values="0 0 0 0 1 0 0 0 0 1 0 0 0 0 1 0 0 0 1 0"/>
<feBlend mode="normal" in2="effect2_innerShadow" result="effect3_innerShadow"/>
</filter>
<filter id="filter9_d" x="221.529" y="329.909" width="151.412" height="151.412" filterUnits="userSpaceOnUse" color-interpolation-filters="sRGB">
<feFlood flood-opacity="0" result="BackgroundImageFix"/>
<feColorMatrix in="SourceAlpha" type="matrix" values="0 0 0 0 0 0 0 0 0 0 0 0 0 0 0 0 0 0 127 0"/>
<feOffset/>
<feGaussianBlur stdDeviation="27.5"/>
<feColorMatrix type="matrix" values="0 0 0 0 0.333333 0 0 0 0 0.317647 0 0 0 0 1 0 0 0 0.4 0"/>
<feBlend mode="normal" in2="BackgroundImageFix" result="effect1_dropShadow"/>
<feBlend mode="normal" in="SourceGraphic" in2="effect1_dropShadow" result="shape"/>
</filter>
<filter id="filter10_d" x="272.529" y="384.909" width="49.4118" height="49.4118" filterUnits="userSpaceOnUse" color-interpolation-filters="sRGB">
<feFlood flood-opacity="0" result="BackgroundImageFix"/>
<feColorMatrix in="SourceAlpha" type="matrix" values="0 0 0 0 0 0 0 0 0 0 0 0 0 0 0 0 0 0 127 0"/>
<feOffset dy="4"/>
<feGaussianBlur stdDeviation="2"/>
<feColorMatrix type="matrix" values="0 0 0 0 0 0 0 0 0 0 0 0 0 0 0 0 0 0 0.25 0"/>
<feBlend mode="normal" in2="BackgroundImageFix" result="effect1_dropShadow"/>
<feBlend mode="normal" in="SourceGraphic" in2="effect1_dropShadow" result="shape"/>
</filter>
<filter id="filter11_dii" x="268.979" y="376.432" width="57.4275" height="61.4275" filterUnits="userSpaceOnUse" color-interpolation-filters="sRGB">
<feFlood flood-opacity="0" result="BackgroundImageFix"/>
<feColorMatrix in="SourceAlpha" type="matrix" values="0 0 0 0 0 0 0 0 0 0 0 0 0 0 0 0 0 0 127 0"/>
<feOffset dy="4"/>
<feGaussianBlur stdDeviation="2"/>
<feColorMatrix type="matrix" values="0 0 0 0 0 0 0 0 0 0 0 0 0 0 0 0 0 0 0.25 0"/>
<feBlend mode="normal" in2="BackgroundImageFix" result="effect1_dropShadow"/>
<feBlend mode="normal" in="SourceGraphic" in2="effect1_dropShadow" result="shape"/>
<feColorMatrix in="SourceAlpha" type="matrix" values="0 0 0 0 0 0 0 0 0 0 0 0 0 0 0 0 0 0 127 0" result="hardAlpha"/>
<feOffset dy="-4"/>
<feGaussianBlur stdDeviation="2"/>
<feComposite in2="hardAlpha" operator="arithmetic" k2="-1" k3="1"/>
<feColorMatrix type="matrix" values="0 0 0 0 0 0 0 0 0 0 0 0 0 0 0 0 0 0 0.1 0"/>
<feBlend mode="normal" in2="shape" result="effect2_innerShadow"/>
<feColorMatrix in="SourceAlpha" type="matrix" values="0 0 0 0 0 0 0 0 0 0 0 0 0 0 0 0 0 0 127 0" result="hardAlpha"/>
<feOffset/>
<feGaussianBlur stdDeviation="1"/>
<feComposite in2="hardAlpha" operator="arithmetic" k2="-1" k3="1"/>
<feColorMatrix type="matrix" values="0 0 0 0 1 0 0 0 0 1 0 0 0 0 1 0 0 0 1 0"/>
<feBlend mode="normal" in2="effect2_innerShadow" result="effect3_innerShadow"/>
</filter>
<filter id="filter12_d" x="105.383" y="61.7031" width="151.412" height="151.412" filterUnits="userSpaceOnUse" color-interpolation-filters="sRGB">
<feFlood flood-opacity="0" result="BackgroundImageFix"/>
<feColorMatrix in="SourceAlpha" type="matrix" values="0 0 0 0 0 0 0 0 0 0 0 0 0 0 0 0 0 0 127 0"/>
<feOffset/>
<feGaussianBlur stdDeviation="27.5"/>
<feColorMatrix type="matrix" values="0 0 0 0 0.333333 0 0 0 0 0.317647 0 0 0 0 1 0 0 0 0.4 0"/>
<feBlend mode="normal" in2="BackgroundImageFix" result="effect1_dropShadow"/>
<feBlend mode="normal" in="SourceGraphic" in2="effect1_dropShadow" result="shape"/>
</filter>
<filter id="filter13_d" x="156.383" y="116.703" width="49.4118" height="49.4118" filterUnits="userSpaceOnUse" color-interpolation-filters="sRGB">
<feFlood flood-opacity="0" result="BackgroundImageFix"/>
<feColorMatrix in="SourceAlpha" type="matrix" values="0 0 0 0 0 0 0 0 0 0 0 0 0 0 0 0 0 0 127 0"/>
<feOffset dy="4"/>
<feGaussianBlur stdDeviation="2"/>
<feColorMatrix type="matrix" values="0 0 0 0 0 0 0 0 0 0 0 0 0 0 0 0 0 0 0.25 0"/>
<feBlend mode="normal" in2="BackgroundImageFix" result="effect1_dropShadow"/>
<feBlend mode="normal" in="SourceGraphic" in2="effect1_dropShadow" result="shape"/>
</filter>
<filter id="filter14_dii" x="151.876" y="108.48" width="57.4275" height="61.4275" filterUnits="userSpaceOnUse" color-interpolation-filters="sRGB">
<feFlood flood-opacity="0" result="BackgroundImageFix"/>
<feColorMatrix in="SourceAlpha" type="matrix" values="0 0 0 0 0 0 0 0 0 0 0 0 0 0 0 0 0 0 127 0"/>
<feOffset dy="4"/>
<feGaussianBlur stdDeviation="2"/>
<feColorMatrix type="matrix" values="0 0 0 0 0 0 0 0 0 0 0 0 0 0 0 0 0 0 0.25 0"/>
<feBlend mode="normal" in2="BackgroundImageFix" result="effect1_dropShadow"/>
<feBlend mode="normal" in="SourceGraphic" in2="effect1_dropShadow" result="shape"/>
<feColorMatrix in="SourceAlpha" type="matrix" values="0 0 0 0 0 0 0 0 0 0 0 0 0 0 0 0 0 0 127 0" result="hardAlpha"/>
<feOffset dy="-4"/>
<feGaussianBlur stdDeviation="2"/>
<feComposite in2="hardAlpha" operator="arithmetic" k2="-1" k3="1"/>
<feColorMatrix type="matrix" values="0 0 0 0 0 0 0 0 0 0 0 0 0 0 0 0 0 0 0.1 0"/>
<feBlend mode="normal" in2="shape" result="effect2_innerShadow"/>
<feColorMatrix in="SourceAlpha" type="matrix" values="0 0 0 0 0 0 0 0 0 0 0 0 0 0 0 0 0 0 127 0" result="hardAlpha"/>
<feOffset/>
<feGaussianBlur stdDeviation="1"/>
<feComposite in2="hardAlpha" operator="arithmetic" k2="-1" k3="1"/>
<feColorMatrix type="matrix" values="0 0 0 0 1 0 0 0 0 1 0 0 0 0 1 0 0 0 1 0"/>
<feBlend mode="normal" in2="effect2_innerShadow" result="effect3_innerShadow"/>
</filter>
<filter id="filter15_d" x="211.177" y="57.8208" width="151.412" height="151.412" filterUnits="userSpaceOnUse" color-interpolation-filters="sRGB">
<feFlood flood-opacity="0" result="BackgroundImageFix"/>
<feColorMatrix in="SourceAlpha" type="matrix" values="0 0 0 0 0 0 0 0 0 0 0 0 0 0 0 0 0 0 127 0"/>
<feOffset/>
<feGaussianBlur stdDeviation="27.5"/>
<feColorMatrix type="matrix" values="0 0 0 0 0.333333 0 0 0 0 0.317647 0 0 0 0 1 0 0 0 0.4 0"/>
<feBlend mode="normal" in2="BackgroundImageFix" result="effect1_dropShadow"/>
<feBlend mode="normal" in="SourceGraphic" in2="effect1_dropShadow" result="shape"/>
</filter>
<filter id="filter16_d" x="262.177" y="112.821" width="49.4118" height="49.4118" filterUnits="userSpaceOnUse" color-interpolation-filters="sRGB">
<feFlood flood-opacity="0" result="BackgroundImageFix"/>
<feColorMatrix in="SourceAlpha" type="matrix" values="0 0 0 0 0 0 0 0 0 0 0 0 0 0 0 0 0 0 127 0"/>
<feOffset dy="4"/>
<feGaussianBlur stdDeviation="2"/>
<feColorMatrix type="matrix" values="0 0 0 0 0 0 0 0 0 0 0 0 0 0 0 0 0 0 0.25 0"/>
<feBlend mode="normal" in2="BackgroundImageFix" result="effect1_dropShadow"/>
<feBlend mode="normal" in="SourceGraphic" in2="effect1_dropShadow" result="shape"/>
</filter>
<filter id="filter17_dii" x="258.005" y="104.896" width="57.4275" height="61.4275" filterUnits="userSpaceOnUse" color-interpolation-filters="sRGB">
<feFlood flood-opacity="0" result="BackgroundImageFix"/>
<feColorMatrix in="SourceAlpha" type="matrix" values="0 0 0 0 0 0 0 0 0 0 0 0 0 0 0 0 0 0 127 0"/>
<feOffset dy="4"/>
<feGaussianBlur stdDeviation="2"/>
<feColorMatrix type="matrix" values="0 0 0 0 0 0 0 0 0 0 0 0 0 0 0 0 0 0 0.25 0"/>
<feBlend mode="normal" in2="BackgroundImageFix" result="effect1_dropShadow"/>
<feBlend mode="normal" in="SourceGraphic" in2="effect1_dropShadow" result="shape"/>
<feColorMatrix in="SourceAlpha" type="matrix" values="0 0 0 0 0 0 0 0 0 0 0 0 0 0 0 0 0 0 127 0" result="hardAlpha"/>
<feOffset dy="-4"/>
<feGaussianBlur stdDeviation="2"/>
<feComposite in2="hardAlpha" operator="arithmetic" k2="-1" k3="1"/>
<feColorMatrix type="matrix" values="0 0 0 0 0 0 0 0 0 0 0 0 0 0 0 0 0 0 0.1 0"/>
<feBlend mode="normal" in2="shape" result="effect2_innerShadow"/>
<feColorMatrix in="SourceAlpha" type="matrix" values="0 0 0 0 0 0 0 0 0 0 0 0 0 0 0 0 0 0 127 0" result="hardAlpha"/>
<feOffset/>
<feGaussianBlur stdDeviation="1"/>
<feComposite in2="hardAlpha" operator="arithmetic" k2="-1" k3="1"/>
<feColorMatrix type="matrix" values="0 0 0 0 1 0 0 0 0 1 0 0 0 0 1 0 0 0 1 0"/>
<feBlend mode="normal" in2="effect2_innerShadow" result="effect3_innerShadow"/>
</filter>
<filter id="filter18_d" x="356.117" y="83.3796" width="158.529" height="158.529" filterUnits="userSpaceOnUse" color-interpolation-filters="sRGB">
<feFlood flood-opacity="0" result="BackgroundImageFix"/>
<feColorMatrix in="SourceAlpha" type="matrix" values="0 0 0 0 0 0 0 0 0 0 0 0 0 0 0 0 0 0 127 0"/>
<feOffset/>
<feGaussianBlur stdDeviation="27.5"/>
<feColorMatrix type="matrix" values="0 0 0 0 0.333333 0 0 0 0 0.317647 0 0 0 0 1 0 0 0 0.4 0"/>
<feBlend mode="normal" in2="BackgroundImageFix" result="effect1_dropShadow"/>
<feBlend mode="normal" in="SourceGraphic" in2="effect1_dropShadow" result="shape"/>
</filter>
<filter id="filter19_d" x="407.117" y="138.38" width="56.5294" height="56.5294" filterUnits="userSpaceOnUse" color-interpolation-filters="sRGB">
<feFlood flood-opacity="0" result="BackgroundImageFix"/>
<feColorMatrix in="SourceAlpha" type="matrix" values="0 0 0 0 0 0 0 0 0 0 0 0 0 0 0 0 0 0 127 0"/>
<feOffset dy="4"/>
<feGaussianBlur stdDeviation="2"/>
<feColorMatrix type="matrix" values="0 0 0 0 0 0 0 0 0 0 0 0 0 0 0 0 0 0 0.25 0"/>
<feBlend mode="normal" in2="BackgroundImageFix" result="effect1_dropShadow"/>
<feBlend mode="normal" in="SourceGraphic" in2="effect1_dropShadow" result="shape"/>
</filter>
<linearGradient id="paint0_linear" x1="92.1181" y1="178.821" x2="92.1181" y2="251.291" gradientUnits="userSpaceOnUse">
<stop stop-color="white"/>
<stop offset="1" stop-color="white" stop-opacity="0"/>
</linearGradient>
<linearGradient id="paint1_linear" x1="126.088" y1="325.056" x2="126.088" y2="381.997" gradientUnits="userSpaceOnUse">
<stop stop-color="white"/>
<stop offset="1" stop-color="white" stop-opacity="0"/>
</linearGradient>
<linearGradient id="paint2_linear" x1="126.419" y1="319.994" x2="126.419" y2="387.956" gradientUnits="userSpaceOnUse">
<stop stop-color="white"/>
<stop offset="1" stop-color="white" stop-opacity="0"/>
</linearGradient>
<linearGradient id="paint3_linear" x1="454.794" y1="307.585" x2="454.794" y2="348.997" gradientUnits="userSpaceOnUse">
<stop stop-color="white"/>
<stop offset="1" stop-color="white" stop-opacity="0"/>
</linearGradient>
<linearGradient id="paint4_linear" x1="454.749" y1="303.141" x2="454.749" y2="352.569" gradientUnits="userSpaceOnUse">
<stop stop-color="white"/>
<stop offset="1" stop-color="white" stop-opacity="0"/>
</linearGradient>
<linearGradient id="paint5_linear" x1="297.235" y1="384.909" x2="297.235" y2="426.321" gradientUnits="userSpaceOnUse">
<stop stop-color="white"/>
<stop offset="1" stop-color="white" stop-opacity="0"/>
</linearGradient>
<linearGradient id="paint6_linear" x1="297.693" y1="380.432" x2="297.693" y2="429.859" gradientUnits="userSpaceOnUse">
<stop stop-color="white"/>
<stop offset="1" stop-color="white" stop-opacity="0"/>
</linearGradient>
<linearGradient id="paint7_linear" x1="181.089" y1="116.703" x2="181.089" y2="158.115" gradientUnits="userSpaceOnUse">
<stop stop-color="white"/>
<stop offset="1" stop-color="white" stop-opacity="0"/>
</linearGradient>
<linearGradient id="paint8_linear" x1="180.59" y1="112.48" x2="180.59" y2="161.908" gradientUnits="userSpaceOnUse">
<stop stop-color="white"/>
<stop offset="1" stop-color="white" stop-opacity="0"/>
</linearGradient>
<linearGradient id="paint9_linear" x1="286.883" y1="112.821" x2="286.883" y2="154.233" gradientUnits="userSpaceOnUse">
<stop stop-color="white"/>
<stop offset="1" stop-color="white" stop-opacity="0"/>
</linearGradient>
<linearGradient id="paint10_linear" x1="286.719" y1="108.896" x2="286.719" y2="158.323" gradientUnits="userSpaceOnUse">
<stop stop-color="white"/>
<stop offset="1" stop-color="white" stop-opacity="0"/>
</linearGradient>
<linearGradient id="paint11_linear" x1="435.382" y1="138.38" x2="435.382" y2="186.909" gradientUnits="userSpaceOnUse">
<stop stop-color="white"/>
<stop offset="1" stop-color="white" stop-opacity="0"/>
</linearGradient>
</defs>
</svg>
