<svg width="18" height="14" viewBox="0 0 18 14" fill="none" xmlns="http://www.w3.org/2000/svg">
<path d="M2.99609 3.27734V10.8008C3.03125 11.0469 2.96094 11.3281 2.78516 11.5391L0.992188 13.6836V13.9648H6.05469V13.6836L4.26172 11.5391C4.05078 11.3281 3.98047 11.0469 4.01562 10.8008V4.29688L8.44531 14H8.97266L12.8047 4.29688V11.9961C12.8047 12.207 12.8047 12.2422 12.6641 12.3828L11.293 13.7188V14H17.9727V13.7188L16.6367 12.418C16.5312 12.3477 16.4609 12.1719 16.4961 12.0312V2.46875C16.4609 2.32812 16.5312 2.1875 16.6367 2.11719L17.9727 0.816406V0.5H13.2969L9.92188 8.86719L6.125 0.5H1.20312V0.816406L2.78516 2.71484C2.92578 2.85547 3.03125 3.06641 2.99609 3.27734Z" fill="#313144"/>
</svg>
