<svg width="17" height="19" viewBox="0 0 17 19" fill="none" xmlns="http://www.w3.org/2000/svg">
<path d="M11.0664 8.82812C11.0664 8.26562 10.6445 7.80859 10.1523 7.80859C9.625 7.80859 9.20312 8.26562 9.20312 8.82812C9.20312 9.35547 9.625 9.8125 10.1523 9.8125C10.6445 9.8125 11.0664 9.35547 11.0664 8.82812ZM6.84766 7.80859C6.35547 7.80859 5.93359 8.26562 5.93359 8.82812C5.93359 9.35547 6.35547 9.8125 6.84766 9.8125C7.375 9.8125 7.76172 9.35547 7.76172 8.82812C7.79688 8.26562 7.375 7.80859 6.84766 7.80859ZM16.375 2.11328C16.375 1.09375 15.5312 0.25 14.5117 0.25H2.45312C1.43359 0.25 0.625 1.09375 0.625 2.11328V14.2773C0.625 15.332 1.43359 16.1406 2.45312 16.1406H12.6484L12.1914 14.4883C14.8281 16.9141 14.0898 16.2812 16.375 18.25V2.11328ZM13.8086 10.6562C13.8086 10.6562 13.0352 11.957 11.0312 12.0273C11.0312 12.0273 10.7148 11.6406 10.4336 11.2891C11.6289 10.9727 12.0859 10.2344 12.0859 10.2344C11.6992 10.4805 11.3477 10.6211 11.0312 10.7617C9.09766 11.5703 6.95312 11.2891 5.40625 10.4453C5.40625 10.4102 5.19531 10.3047 5.05469 10.1992C5.05469 10.1992 5.47656 10.9375 6.63672 11.2891C6.35547 11.6055 6.03906 12.0273 6.03906 12.0273C4.03516 11.957 3.29688 10.6562 3.29688 10.6562C3.29688 7.73828 4.5625 5.41797 4.5625 5.41797C5.86328 4.43359 7.09375 4.46875 7.09375 4.46875L7.19922 4.57422C5.58203 5.03125 4.84375 5.73438 4.84375 5.73438C4.84375 5.73438 5.01953 5.62891 5.37109 5.48828C7.44531 4.57422 9.94141 4.57422 12.0859 5.73438C12.0859 5.73438 11.3828 5.06641 9.83594 4.60938L9.97656 4.46875C9.97656 4.46875 11.207 4.43359 12.5078 5.41797C12.5078 5.41797 13.8086 7.73828 13.8086 10.6562Z" fill="white"/>
</svg>
