<svg width="18" height="14" viewBox="0 0 18 14" fill="none" xmlns="http://www.w3.org/2000/svg">
<path d="M2.49609 3.27734V10.8008C2.53125 11.0469 2.46094 11.3281 2.28516 11.5391L0.492188 13.6836V13.9648H5.55469V13.6836L3.76172 11.5391C3.55078 11.3281 3.48047 11.0469 3.51562 10.8008V4.29688L7.94531 14H8.47266L12.3047 4.29688V11.9961C12.3047 12.207 12.3047 12.2422 12.1641 12.3828L10.793 13.7188V14H17.4727V13.7188L16.1367 12.418C16.0312 12.3477 15.9609 12.1719 15.9961 12.0312V2.46875C15.9609 2.32812 16.0312 2.1875 16.1367 2.11719L17.4727 0.816406V0.5H12.7969L9.42188 8.86719L5.625 0.5H0.703125V0.816406L2.28516 2.71484C2.42578 2.85547 2.53125 3.06641 2.49609 3.27734Z" fill="white"/>
</svg>
