<?xml version="1.0" standalone="no"?>
<!DOCTYPE svg PUBLIC "-//W3C//DTD SVG 20010904//EN"
 "http://www.w3.org/TR/2001/REC-SVG-20010904/DTD/svg10.dtd">
<svg version="1.0" xmlns="http://www.w3.org/2000/svg"
 width="1024.000000pt" height="1024.000000pt" viewBox="0 0 1024.000000 1024.000000"
 preserveAspectRatio="xMidYMid meet">
<metadata>
Created by potrace 1.14, written by Peter Selinger 2001-2017
</metadata>
<g transform="translate(0.000000,1024.000000) scale(0.100000,-0.100000)"
fill="#000000" stroke="none">
<path d="M1975 8329 c-162 -65 -255 -237 -214 -394 27 -106 95 -190 188 -234
75 -35 211 -37 283 -4 62 28 134 96 163 153 26 51 45 140 39 179 -12 79 -17
99 -35 133 -32 62 -88 117 -153 150 -80 41 -194 48 -271 17z"/>
<path d="M8064 8341 c-58 -15 -125 -55 -166 -99 -209 -228 -40 -590 267 -570
130 9 231 77 286 193 82 174 5 377 -171 456 -49 22 -166 33 -216 20z"/>
<path d="M1176 7996 c-30 -28 -36 -40 -36 -75 0 -92 64 -144 149 -121 137 37
106 230 -37 230 -32 0 -48 -7 -76 -34z"/>
<path d="M8915 8012 c-78 -67 -70 -163 18 -209 48 -24 122 -1 150 47 34 56 13
136 -43 165 -38 20 -100 19 -125 -3z"/>
<path d="M2480 7543 c-87 -29 -158 -98 -191 -183 -102 -268 178 -519 432 -389
55 28 117 92 142 148 32 69 31 198 -3 264 -30 59 -96 122 -158 149 -59 26
-162 32 -222 11z"/>
<path d="M7575 7547 c-97 -32 -156 -82 -197 -165 -19 -39 -23 -63 -23 -137 0
-81 3 -95 29 -143 131 -236 472 -214 567 37 41 109 12 246 -70 327 -75 75
-213 111 -306 81z"/>
<path d="M1642 7515 c-43 -13 -101 -51 -136 -89 -34 -38 -68 -126 -71 -186
-15 -279 320 -429 520 -234 58 56 86 120 91 206 10 214 -195 368 -404 303z"/>
<path d="M8410 7521 c-120 -39 -206 -146 -217 -269 -23 -257 260 -425 474
-282 61 40 113 112 131 180 35 132 -38 286 -165 350 -51 26 -173 37 -223 21z"/>
<path d="M3012 6908 c-69 -10 -120 -37 -172 -91 -117 -120 -114 -310 8 -431
114 -114 311 -114 428 1 58 58 86 119 91 203 14 194 -157 347 -355 318z"/>
<path d="M7109 6905 c-67 -18 -90 -30 -134 -68 -151 -130 -136 -375 31 -485
114 -76 258 -70 360 13 165 136 155 385 -21 497 -72 47 -162 63 -236 43z"/>
<path d="M2172 6748 c-222 -38 -319 -300 -176 -475 50 -61 121 -95 210 -101
62 -4 79 -1 130 22 71 33 118 79 151 152 21 47 25 66 21 127 -4 80 -22 125
-72 184 -60 69 -171 108 -264 91z"/>
<path d="M7970 6748 c-118 -21 -208 -105 -235 -222 -45 -194 104 -368 302
-354 113 8 198 66 247 168 21 43 25 64 23 128 -2 64 -8 86 -32 130 -60 111
-183 171 -305 150z"/>
<path d="M1344 6640 c-108 -23 -170 -133 -135 -237 20 -61 44 -86 101 -112 51
-23 70 -25 122 -11 76 21 137 102 138 180 0 111 -116 203 -226 180z"/>
<path d="M8835 6643 c-11 -2 -30 -6 -43 -9 -40 -8 -98 -70 -112 -119 -40 -143
72 -264 216 -235 166 35 194 267 41 343 -40 20 -72 26 -102 20z"/>
<path d="M3510 6159 c-80 -15 -146 -63 -182 -133 -27 -50 -29 -153 -5 -207 37
-85 146 -150 237 -144 95 7 173 62 210 147 44 103 9 231 -80 293 -48 33 -132
54 -180 44z"/>
<path d="M6647 6158 c-194 -41 -265 -270 -126 -410 121 -122 322 -86 391 71
40 88 26 185 -39 260 -53 62 -149 96 -226 79z"/>
<path d="M2603 6104 c-231 -94 -239 -408 -13 -515 64 -31 168 -30 233 1 62 29
128 104 148 166 72 224 -152 436 -368 348z"/>
<path d="M7490 6123 c-14 -2 -32 -7 -40 -10 -8 -4 -17 -7 -20 -8 -27 -6 -75
-43 -109 -81 -155 -177 -27 -456 209 -457 160 -1 283 120 283 278 0 170 -154
303 -323 278z"/>
<path d="M1785 6057 c-89 -30 -140 -73 -180 -155 -23 -46 -28 -70 -28 -127 0
-118 57 -210 164 -266 63 -33 185 -33 251 -1 226 111 225 424 0 533 -53 26
-153 34 -207 16z"/>
<path d="M8288 6057 c-179 -51 -268 -265 -176 -424 53 -92 141 -145 248 -149
122 -5 226 61 278 175 101 221 -113 464 -350 398z"/>
<path d="M3950 5419 c-57 -26 -77 -44 -103 -94 -65 -126 20 -286 159 -298 87
-8 151 23 199 95 29 44 39 123 22 172 -38 113 -172 173 -277 125z"/>
<path d="M6140 5427 c-49 -16 -116 -86 -130 -137 -49 -181 144 -330 305 -235
132 77 132 273 0 351 -51 29 -120 38 -175 21z"/>
<path d="M3120 5388 c-97 -27 -170 -128 -170 -233 1 -137 98 -237 235 -241 98
-4 178 43 222 130 97 191 -80 403 -287 344z"/>
<path d="M6945 5374 c-98 -50 -147 -133 -140 -238 11 -134 116 -228 249 -222
131 6 224 96 234 226 5 73 -15 128 -67 183 -68 74 -187 96 -276 51z"/>
<path d="M2300 5320 c-114 -21 -193 -119 -193 -240 0 -260 356 -335 463 -97
80 175 -77 372 -270 337z"/>
<path d="M7819 5314 c-138 -41 -211 -205 -149 -337 72 -153 291 -185 401 -59
162 185 -16 464 -252 396z"/>
<path d="M1435 5203 c-132 -46 -179 -217 -88 -323 45 -52 83 -71 148 -75 191
-12 291 220 153 352 -56 54 -139 72 -213 46z"/>
<path d="M8667 5206 c-64 -24 -110 -70 -129 -131 -46 -144 60 -280 209 -270
132 9 219 133 183 264 -28 105 -161 174 -263 137z"/>
<path d="M4368 4833 c-16 -2 -43 -19 -62 -36 -114 -108 -18 -292 138 -263 135
26 162 214 40 283 -38 22 -58 25 -116 16z"/>
<path d="M5756 4817 c-137 -77 -86 -287 69 -287 161 0 216 213 75 287 -54 29
-94 29 -144 0z"/>
<path d="M3607 4739 c-82 -19 -146 -68 -185 -143 -36 -68 -38 -189 -5 -252
120 -226 447 -197 519 47 59 198 -126 394 -329 348z"/>
<path d="M6520 4740 c-144 -29 -240 -155 -228 -298 10 -103 69 -185 167 -230
72 -33 176 -28 244 11 87 51 133 123 143 225 18 173 -154 328 -326 292z"/>
<path d="M1960 4600 c-83 -11 -173 -70 -209 -139 -101 -188 31 -413 244 -414
223 -2 351 240 230 433 -51 80 -166 133 -265 120z"/>
<path d="M8213 4599 c-139 -18 -240 -126 -247 -262 -10 -209 211 -355 398
-263 74 36 142 121 152 189 2 18 6 41 7 52 5 29 -11 94 -34 139 -52 100 -165
159 -276 145z"/>
<path d="M7382 4509 c-112 -24 -131 -174 -28 -223 97 -46 203 50 162 148 -25
58 -77 88 -134 75z"/>
<path d="M2769 4495 c-27 -14 -59 -69 -59 -99 0 -32 29 -85 55 -102 87 -57
196 13 182 117 -11 83 -101 126 -178 84z"/>
<path d="M1124 4364 c-35 -8 -75 -58 -81 -101 -16 -120 126 -179 212 -89 15
15 20 34 20 73 0 45 -4 57 -30 83 -31 31 -77 43 -121 34z"/>
<path d="M9045 4362 c-98 -33 -117 -160 -33 -212 108 -66 229 47 169 158 -24
45 -88 70 -136 54z"/>
<path d="M4685 4312 c-46 -29 -59 -49 -59 -100 -1 -55 24 -96 68 -112 86 -31
166 22 166 110 0 93 -97 149 -175 102z"/>
<path d="M5443 4315 c-58 -25 -84 -117 -48 -171 23 -36 72 -57 117 -51 112 15
141 159 45 217 -37 23 -70 25 -114 5z"/>
<path d="M4062 4041 c-46 -16 -65 -28 -108 -66 -6 -6 -23 -29 -37 -51 -48 -77
-52 -173 -12 -258 98 -208 390 -212 496 -6 36 68 38 163 6 232 -63 136 -206
198 -345 149z"/>
<path d="M5999 4047 c-110 -37 -188 -143 -190 -258 -4 -207 207 -343 394 -255
199 94 212 370 23 484 -43 27 -67 34 -122 37 -39 2 -85 -1 -105 -8z"/>
<path d="M5034 3861 c-76 -35 -129 -127 -118 -210 6 -52 44 -112 92 -146 39
-26 52 -30 111 -29 72 0 116 19 156 66 114 130 18 338 -155 338 -25 0 -63 -9
-86 -19z"/>
<path d="M3258 3808 c-36 -21 -64 -66 -61 -100 0 -10 1 -25 2 -33 2 -28 60
-83 94 -88 59 -9 135 39 138 87 5 72 -11 110 -54 133 -46 23 -80 23 -119 1z"/>
<path d="M6895 3822 c-97 -22 -124 -161 -42 -215 76 -49 170 -8 187 82 14 79
-64 151 -145 133z"/>
<path d="M1542 3790 c-53 -24 -100 -66 -125 -114 -29 -54 -31 -174 -3 -225 63
-118 212 -169 329 -112 158 77 189 284 61 405 -67 63 -179 83 -262 46z"/>
<path d="M2426 3795 c-107 -37 -150 -153 -92 -250 56 -95 200 -107 271 -23 29
35 48 97 41 139 -15 99 -126 166 -220 134z"/>
<path d="M7715 3797 c-81 -26 -125 -89 -122 -173 6 -148 190 -215 290 -104 58
63 62 150 11 217 -40 53 -119 80 -179 60z"/>
<path d="M8533 3801 c-65 -17 -143 -87 -164 -149 -20 -57 -16 -150 8 -197 95
-182 349 -187 442 -9 82 157 -23 349 -196 360 -32 1 -73 -1 -90 -5z"/>
<path d="M4587 3329 c-77 -18 -144 -72 -174 -139 -24 -54 -21 -156 4 -206 25
-47 82 -100 129 -120 50 -21 147 -18 194 6 86 44 130 110 138 207 4 53 1 70
-22 117 -50 103 -164 160 -269 135z"/>
<path d="M5565 3332 c-89 -16 -172 -87 -196 -168 -55 -193 116 -361 309 -304
125 38 198 189 151 314 -40 106 -159 177 -264 158z"/>
<path d="M2053 3140 c-40 -9 -111 -51 -140 -82 -71 -77 -92 -211 -49 -304 99
-213 395 -218 504 -9 69 133 5 315 -133 376 -49 22 -132 30 -182 19z"/>
<path d="M3735 3139 c-21 -12 -65 -58 -66 -68 0 -3 -2 -24 -5 -46 -12 -97 100
-173 191 -130 88 42 102 161 26 229 -25 23 -116 32 -146 15z"/>
<path d="M6356 3119 c-43 -37 -58 -85 -44 -136 42 -151 263 -120 261 36 -1 82
-51 130 -135 131 -39 0 -54 -6 -82 -31z"/>
<path d="M8057 3139 c-87 -21 -149 -71 -188 -153 -25 -52 -28 -69 -24 -130 5
-88 29 -140 90 -194 141 -124 348 -82 437 88 32 62 32 176 0 238 -62 118 -193
181 -315 151z"/>
<path d="M1212 2933 c-113 -55 -113 -218 -1 -275 100 -52 221 19 222 129 1 90
-55 152 -141 158 -29 2 -61 -3 -80 -12z"/>
<path d="M8895 2936 c-40 -18 -73 -55 -85 -94 -37 -131 94 -244 216 -186 42
20 70 58 82 110 27 118 -101 220 -213 170z"/>
<path d="M5036 2570 c-52 -26 -74 -47 -97 -92 -88 -172 92 -360 266 -279 166
77 157 308 -15 377 -44 18 -112 15 -154 -6z"/>
<path d="M4245 2459 c-121 -37 -131 -206 -14 -253 107 -43 209 51 179 164 -17
64 -100 108 -165 89z"/>
<path d="M5899 2451 c-46 -25 -70 -61 -76 -112 -10 -105 98 -176 195 -128 67
33 90 111 55 183 -28 60 -115 88 -174 57z"/>
<path d="M1689 2288 c-55 -24 -76 -44 -100 -90 -75 -146 38 -311 201 -296 98
10 180 100 180 197 0 53 -29 124 -62 152 -60 53 -151 68 -219 37z"/>
<path d="M8428 2301 c-95 -19 -158 -100 -158 -203 1 -167 202 -259 331 -151
124 105 77 308 -82 353 -37 11 -38 11 -91 1z"/>
</g>
</svg>
