<svg width="352" height="300" viewBox="0 0 352 300" fill="none" xmlns="http://www.w3.org/2000/svg">
<path d="M44.0212 140.433C46.228 140.433 48.017 138.644 48.017 136.437C48.017 134.231 46.228 132.442 44.0212 132.442C41.8144 132.442 40.0254 134.231 40.0254 136.437C40.0254 138.644 41.8144 140.433 44.0212 140.433Z" fill="white"/>
<path d="M99.5759 135.6C101.783 135.6 103.572 133.811 103.572 131.604C103.572 129.397 101.783 127.608 99.5759 127.608C97.3691 127.608 95.5801 129.397 95.5801 131.604C95.5801 133.811 97.3691 135.6 99.5759 135.6Z" fill="white"/>
<path d="M115.623 158.478C117.83 158.478 119.619 156.689 119.619 154.483C119.619 152.276 117.83 150.487 115.623 150.487C113.416 150.487 111.627 152.276 111.627 154.483C111.627 156.689 113.416 158.478 115.623 158.478Z" fill="white"/>
<path d="M162.992 141.722C165.199 141.722 166.988 139.933 166.988 137.726C166.988 135.519 165.199 133.73 162.992 133.73C160.785 133.73 158.996 135.519 158.996 137.726C158.996 139.933 160.785 141.722 162.992 141.722Z" fill="white"/>
<path d="M47.2438 18.5612C49.4507 18.5612 51.2397 16.7722 51.2397 14.5654C51.2397 12.3586 49.4507 10.5696 47.2438 10.5696C45.037 10.5696 43.248 12.3586 43.248 14.5654C43.248 16.7722 45.037 18.5612 47.2438 18.5612Z" fill="white"/>
<path d="M51.4331 69.0885C54.8502 69.0885 57.6202 66.3184 57.6202 62.9014C57.6202 59.4844 54.8502 56.7144 51.4331 56.7144C48.0161 56.7144 45.2461 59.4844 45.2461 62.9014C45.2461 66.3184 48.0161 69.0885 51.4331 69.0885Z" fill="white"/>
<path d="M151.971 127.093C154.819 127.093 157.127 124.784 157.127 121.937C157.127 119.089 154.819 116.781 151.971 116.781C149.124 116.781 146.815 119.089 146.815 121.937C146.815 124.784 149.124 127.093 151.971 127.093Z" fill="white"/>
<path d="M48.0162 189.93C50.8637 189.93 53.1721 187.622 53.1721 184.774C53.1721 181.927 50.8637 179.618 48.0162 179.618C45.1687 179.618 42.8604 181.927 42.8604 184.774C42.8604 187.622 45.1687 189.93 48.0162 189.93Z" fill="white"/>
<path d="M87.7164 162.539C90.8487 162.539 93.3879 160 93.3879 156.867C93.3879 153.735 90.8487 151.196 87.7164 151.196C84.5841 151.196 82.0449 153.735 82.0449 156.867C82.0449 160 84.5841 162.539 87.7164 162.539Z" fill="white"/>
<path d="M147.719 205.913C150.852 205.913 153.391 203.373 153.391 200.241C153.391 197.109 150.852 194.57 147.719 194.57C144.587 194.57 142.048 197.109 142.048 200.241C142.048 203.373 144.587 205.913 147.719 205.913Z" fill="white"/>
<path d="M131.606 181.873C134.098 181.873 136.118 179.854 136.118 177.362C136.118 174.87 134.098 172.851 131.606 172.851C129.115 172.851 127.095 174.87 127.095 177.362C127.095 179.854 129.115 181.873 131.606 181.873Z" fill="white"/>
<path d="M64.1304 214.549C67.8677 214.549 70.8975 211.519 70.8975 207.782C70.8975 204.044 67.8677 201.015 64.1304 201.015C60.393 201.015 57.3633 204.044 57.3633 207.782C57.3633 211.519 60.393 214.549 64.1304 214.549Z" fill="white"/>
<path d="M91.1321 47.0476C96.8627 47.0476 101.508 42.402 101.508 36.6714C101.508 30.9408 96.8627 26.2952 91.1321 26.2952C85.4014 26.2952 80.7559 30.9408 80.7559 36.6714C80.7559 42.402 85.4014 47.0476 91.1321 47.0476Z" fill="white"/>
<path d="M74.9552 22.6859C81.2198 22.6859 86.2982 17.6075 86.2982 11.3429C86.2982 5.0784 81.2198 0 74.9552 0C68.6907 0 63.6123 5.0784 63.6123 11.3429C63.6123 17.6075 68.6907 22.6859 74.9552 22.6859Z" fill="white"/>
<path d="M79.1468 72.5689C84.5214 72.5689 88.8785 68.2119 88.8785 62.8372C88.8785 57.4625 84.5214 53.1055 79.1468 53.1055C73.7721 53.1055 69.415 57.4625 69.415 62.8372C69.415 68.2119 73.7721 72.5689 79.1468 72.5689Z" fill="white"/>
<path d="M107.181 68.2505C112.84 68.2505 117.428 63.6626 117.428 58.0032C117.428 52.3437 112.84 47.7559 107.181 47.7559C101.521 47.7559 96.9336 52.3437 96.9336 58.0032C96.9336 63.6626 101.521 68.2505 107.181 68.2505Z" fill="white"/>
<path d="M67.5442 95.4483C72.9545 95.4483 77.3404 91.0624 77.3404 85.6521C77.3404 80.2418 72.9545 75.856 67.5442 75.856C62.1339 75.856 57.748 80.2418 57.748 85.6521C57.748 91.0624 62.1339 95.4483 67.5442 95.4483Z" fill="white"/>
<path d="M95.3216 92.6771C100.483 92.6771 104.667 88.4932 104.667 83.3321C104.667 78.171 100.483 73.9871 95.3216 73.9871C90.1605 73.9871 85.9766 78.171 85.9766 83.3321C85.9766 88.4932 90.1605 92.6771 95.3216 92.6771Z" fill="white"/>
<path d="M123.291 89.0032C127.776 89.0032 131.412 85.3675 131.412 80.8827C131.412 76.3979 127.776 72.7622 123.291 72.7622C118.807 72.7622 115.171 76.3979 115.171 80.8827C115.171 85.3675 118.807 89.0032 123.291 89.0032Z" fill="white"/>
<path d="M111.435 114.396C115.92 114.396 119.555 110.76 119.555 106.275C119.555 101.79 115.92 98.1545 111.435 98.1545C106.95 98.1545 103.314 101.79 103.314 106.275C103.314 110.76 106.95 114.396 111.435 114.396Z" fill="white"/>
<path d="M83.4633 116.845C87.9481 116.845 91.5838 113.209 91.5838 108.725C91.5838 104.24 87.9481 100.604 83.4633 100.604C78.9784 100.604 75.3428 104.24 75.3428 108.725C75.3428 113.209 78.9784 116.845 83.4633 116.845Z" fill="white"/>
<path d="M71.6702 143.204C76.7958 143.204 80.9508 139.049 80.9508 133.924C80.9508 128.798 76.7958 124.643 71.6702 124.643C66.5447 124.643 62.3896 128.798 62.3896 133.924C62.3896 139.049 66.5447 143.204 71.6702 143.204Z" fill="white"/>
<path d="M59.8734 167.502C64.4294 167.502 68.1228 163.808 68.1228 159.252C68.1228 154.696 64.4294 151.003 59.8734 151.003C55.3174 151.003 51.624 154.696 51.624 159.252C51.624 163.808 55.3174 167.502 59.8734 167.502Z" fill="white"/>
<path d="M143.464 161.121C148.554 161.121 152.68 156.995 152.68 151.905C152.68 146.815 148.554 142.689 143.464 142.689C138.374 142.689 134.248 146.815 134.248 151.905C134.248 156.995 138.374 161.121 143.464 161.121Z" fill="white"/>
<path d="M127.289 138.435C132.415 138.435 136.57 134.28 136.57 129.154C136.57 124.029 132.415 119.874 127.289 119.874C122.164 119.874 118.009 124.029 118.009 129.154C118.009 134.28 122.164 138.435 127.289 138.435Z" fill="white"/>
<path d="M75.8577 191.606C80.9833 191.606 85.1383 187.451 85.1383 182.325C85.1383 177.199 80.9833 173.044 75.8577 173.044C70.7322 173.044 66.5771 177.199 66.5771 182.325C66.5771 187.451 70.7322 191.606 75.8577 191.606Z" fill="white"/>
<path d="M55.4272 118.005C59.2358 118.005 62.3232 114.918 62.3232 111.109C62.3232 107.301 59.2358 104.213 55.4272 104.213C51.6187 104.213 48.5312 107.301 48.5312 111.109C48.5312 114.918 51.6187 118.005 55.4272 118.005Z" fill="white"/>
<path d="M139.341 110.658C143.15 110.658 146.237 107.571 146.237 103.762C146.237 99.9536 143.15 96.8662 139.341 96.8662C135.533 96.8662 132.445 99.9536 132.445 103.762C132.445 107.571 135.533 110.658 139.341 110.658Z" fill="white"/>
<path d="M63.2913 47.6916C68.9507 47.6916 73.5386 43.1038 73.5386 37.4443C73.5386 31.7849 68.9507 27.197 63.2913 27.197C57.6318 27.197 53.0439 31.7849 53.0439 37.4443C53.0439 43.1038 57.6318 47.6916 63.2913 47.6916Z" fill="white"/>
<path d="M174.4 161.121C178.244 161.121 181.36 158.005 181.36 154.161C181.36 150.316 178.244 147.2 174.4 147.2C170.556 147.2 167.439 150.316 167.439 154.161C167.439 158.005 170.556 161.121 174.4 161.121Z" fill="white"/>
<path d="M307.034 140.434C309.241 140.434 311.03 138.645 311.03 136.438C311.03 134.231 309.241 132.442 307.034 132.442C304.827 132.442 303.038 134.231 303.038 136.438C303.038 138.645 304.827 140.434 307.034 140.434Z" fill="white"/>
<path d="M251.416 135.6C253.623 135.6 255.412 133.811 255.412 131.604C255.412 129.397 253.623 127.608 251.416 127.608C249.209 127.608 247.42 129.397 247.42 131.604C247.42 133.811 249.209 135.6 251.416 135.6Z" fill="white"/>
<path d="M235.434 158.478C237.641 158.478 239.43 156.689 239.43 154.483C239.43 152.276 237.641 150.487 235.434 150.487C233.227 150.487 231.438 152.276 231.438 154.483C231.438 156.689 233.227 158.478 235.434 158.478Z" fill="white"/>
<path d="M188.062 141.722C190.269 141.722 192.058 139.933 192.058 137.726C192.058 135.519 190.269 133.73 188.062 133.73C185.855 133.73 184.066 135.519 184.066 137.726C184.066 139.933 185.855 141.722 188.062 141.722Z" fill="white"/>
<path d="M303.812 18.5612C306.019 18.5612 307.808 16.7722 307.808 14.5654C307.808 12.3586 306.019 10.5696 303.812 10.5696C301.605 10.5696 299.816 12.3586 299.816 14.5654C299.816 16.7722 301.605 18.5612 303.812 18.5612Z" fill="white"/>
<path d="M299.624 69.0889C303.041 69.0889 305.811 66.3189 305.811 62.9019C305.811 59.4849 303.041 56.7148 299.624 56.7148C296.207 56.7148 293.437 59.4849 293.437 62.9019C293.437 66.3189 296.207 69.0889 299.624 69.0889Z" fill="white"/>
<path d="M199.086 127.093C201.933 127.093 204.241 124.784 204.241 121.937C204.241 119.089 201.933 116.781 199.086 116.781C196.238 116.781 193.93 119.089 193.93 121.937C193.93 124.784 196.238 127.093 199.086 127.093Z" fill="white"/>
<path d="M302.974 189.93C305.822 189.93 308.13 187.622 308.13 184.774C308.13 181.927 305.822 179.618 302.974 179.618C300.127 179.618 297.818 181.927 297.818 184.774C297.818 187.622 300.127 189.93 302.974 189.93Z" fill="white"/>
<path d="M263.275 162.539C266.407 162.539 268.946 160 268.946 156.867C268.946 153.735 266.407 151.196 263.275 151.196C260.143 151.196 257.604 153.735 257.604 156.867C257.604 160 260.143 162.539 263.275 162.539Z" fill="white"/>
<path d="M203.337 205.913C206.47 205.913 209.009 203.373 209.009 200.241C209.009 197.109 206.47 194.57 203.337 194.57C200.205 194.57 197.666 197.109 197.666 200.241C197.666 203.373 200.205 205.913 203.337 205.913Z" fill="white"/>
<path d="M219.385 181.873C221.877 181.873 223.897 179.854 223.897 177.362C223.897 174.87 221.877 172.851 219.385 172.851C216.894 172.851 214.874 174.87 214.874 177.362C214.874 179.854 216.894 181.873 219.385 181.873Z" fill="white"/>
<path d="M286.863 214.549C290.6 214.549 293.63 211.519 293.63 207.782C293.63 204.044 290.6 201.015 286.863 201.015C283.125 201.015 280.096 204.044 280.096 207.782C280.096 211.519 283.125 214.549 286.863 214.549Z" fill="white"/>
<path d="M259.859 47.0476C265.589 47.0476 270.235 42.402 270.235 36.6714C270.235 30.9408 265.589 26.2952 259.859 26.2952C254.128 26.2952 249.482 30.9408 249.482 36.6714C249.482 42.402 254.128 47.0476 259.859 47.0476Z" fill="white"/>
<path d="M276.035 22.6859C282.3 22.6859 287.378 17.6075 287.378 11.3429C287.378 5.0784 282.3 0 276.035 0C269.771 0 264.692 5.0784 264.692 11.3429C264.692 17.6075 269.771 22.6859 276.035 22.6859Z" fill="white"/>
<path d="M271.846 72.5689C277.221 72.5689 281.578 68.2119 281.578 62.8372C281.578 57.4625 277.221 53.1055 271.846 53.1055C266.471 53.1055 262.114 57.4625 262.114 62.8372C262.114 68.2119 266.471 72.5689 271.846 72.5689Z" fill="white"/>
<path d="M243.875 68.2505C249.535 68.2505 254.123 63.6626 254.123 58.0032C254.123 52.3437 249.535 47.7559 243.875 47.7559C238.216 47.7559 233.628 52.3437 233.628 58.0032C233.628 63.6626 238.216 68.2505 243.875 68.2505Z" fill="white"/>
<path d="M283.448 95.4483C288.858 95.4483 293.244 91.0624 293.244 85.6521C293.244 80.2418 288.858 75.856 283.448 75.856C278.037 75.856 273.651 80.2418 273.651 85.6521C273.651 91.0624 278.037 95.4483 283.448 95.4483Z" fill="white"/>
<path d="M255.734 92.6771C260.895 92.6771 265.079 88.4932 265.079 83.3321C265.079 78.171 260.895 73.9871 255.734 73.9871C250.573 73.9871 246.389 78.171 246.389 83.3321C246.389 88.4932 250.573 92.6771 255.734 92.6771Z" fill="white"/>
<path d="M227.762 89.0032C232.247 89.0032 235.883 85.3675 235.883 80.8827C235.883 76.3979 232.247 72.7622 227.762 72.7622C223.277 72.7622 219.642 76.3979 219.642 80.8827C219.642 85.3675 223.277 89.0032 227.762 89.0032Z" fill="white"/>
<path d="M239.559 114.396C244.044 114.396 247.679 110.76 247.679 106.275C247.679 101.79 244.044 98.1545 239.559 98.1545C235.074 98.1545 231.438 101.79 231.438 106.275C231.438 110.76 235.074 114.396 239.559 114.396Z" fill="white"/>
<path d="M267.593 116.845C272.078 116.845 275.714 113.21 275.714 108.725C275.714 104.24 272.078 100.604 267.593 100.604C263.108 100.604 259.473 104.24 259.473 108.725C259.473 113.21 263.108 116.845 267.593 116.845Z" fill="white"/>
<path d="M279.323 143.204C284.448 143.204 288.603 139.049 288.603 133.924C288.603 128.798 284.448 124.643 279.323 124.643C274.197 124.643 270.042 128.798 270.042 133.924C270.042 139.049 274.197 143.204 279.323 143.204Z" fill="white"/>
<path d="M291.117 167.502C295.673 167.502 299.366 163.808 299.366 159.252C299.366 154.696 295.673 151.003 291.117 151.003C286.561 151.003 282.867 154.696 282.867 159.252C282.867 163.808 286.561 167.502 291.117 167.502Z" fill="white"/>
<path d="M207.527 161.121C212.617 161.121 216.743 156.995 216.743 151.905C216.743 146.815 212.617 142.689 207.527 142.689C202.437 142.689 198.311 146.815 198.311 151.905C198.311 156.995 202.437 161.121 207.527 161.121Z" fill="white"/>
<path d="M223.702 138.435C228.828 138.435 232.983 134.28 232.983 129.154C232.983 124.029 228.828 119.874 223.702 119.874C218.577 119.874 214.422 124.029 214.422 129.154C214.422 134.28 218.577 138.435 223.702 138.435Z" fill="white"/>
<path d="M275.198 191.606C280.323 191.606 284.478 187.451 284.478 182.325C284.478 177.199 280.323 173.044 275.198 173.044C270.072 173.044 265.917 177.199 265.917 182.325C265.917 187.451 270.072 191.606 275.198 191.606Z" fill="white"/>
<path d="M295.564 118.005C299.373 118.005 302.46 114.918 302.46 111.109C302.46 107.301 299.373 104.213 295.564 104.213C291.755 104.213 288.668 107.301 288.668 111.109C288.668 114.918 291.755 118.005 295.564 118.005Z" fill="white"/>
<path d="M211.716 110.658C215.525 110.658 218.612 107.571 218.612 103.762C218.612 99.9536 215.525 96.8662 211.716 96.8662C207.908 96.8662 204.82 99.9536 204.82 103.762C204.82 107.571 207.908 110.658 211.716 110.658Z" fill="white"/>
<path d="M287.764 47.6916C293.423 47.6916 298.011 43.1038 298.011 37.4443C298.011 31.7849 293.423 27.197 287.764 27.197C282.104 27.197 277.517 31.7849 277.517 37.4443C277.517 43.1038 282.104 47.6916 287.764 47.6916Z" fill="white"/>
<path d="M176.656 161.121C180.5 161.121 183.616 158.005 183.616 154.161C183.616 150.316 180.5 147.2 176.656 147.2C172.812 147.2 169.695 150.316 169.695 154.161C169.695 158.005 172.812 161.121 176.656 161.121Z" fill="white"/>
<path d="M175.496 162.282C179.981 162.282 183.617 158.646 183.617 154.161C183.617 149.676 179.981 146.041 175.496 146.041C171.012 146.041 167.376 149.676 167.376 154.161C167.376 158.646 171.012 162.282 175.496 162.282Z" fill="white"/>
<path d="M175.496 206.557C179.981 206.557 183.617 202.922 183.617 198.437C183.617 193.952 179.981 190.316 175.496 190.316C171.012 190.316 167.376 193.952 167.376 198.437C167.376 202.922 171.012 206.557 175.496 206.557Z" fill="white"/>
<path d="M159.449 183.033C163.933 183.033 167.569 179.398 167.569 174.913C167.569 170.428 163.933 166.792 159.449 166.792C154.964 166.792 151.328 170.428 151.328 174.913C151.328 179.398 154.964 183.033 159.449 183.033Z" fill="white"/>
<path d="M191.543 183.033C196.028 183.033 199.664 179.398 199.664 174.913C199.664 170.428 196.028 166.792 191.543 166.792C187.059 166.792 183.423 170.428 183.423 174.913C183.423 179.398 187.059 183.033 191.543 183.033Z" fill="white"/>
<path d="M163.701 226.729C165.623 226.729 167.181 225.171 167.181 223.249C167.181 221.327 165.623 219.769 163.701 219.769C161.779 219.769 160.221 221.327 160.221 223.249C160.221 225.171 161.779 226.729 163.701 226.729Z" fill="white"/>
<path d="M187.354 226.729C189.276 226.729 190.834 225.171 190.834 223.249C190.834 221.327 189.276 219.769 187.354 219.769C185.432 219.769 183.874 221.327 183.874 223.249C183.874 225.171 185.432 226.729 187.354 226.729Z" fill="white"/>
<path d="M0.586536 299.414C0.195512 299.414 0 299.218 0 298.827V258.943C0 258.747 0.048878 258.649 0.195512 258.503C0.342146 258.356 0.439902 258.307 0.635414 258.307H5.42545C5.66984 258.307 5.91423 258.454 6.06087 258.796L20.7243 292.815L35.3876 258.796C35.5343 258.454 35.7787 258.307 36.0231 258.307H40.8131C41.2041 258.307 41.3996 258.503 41.3996 258.894V298.827C41.3996 299.218 41.2041 299.414 40.8131 299.414H36.7074C36.3163 299.414 36.1208 299.218 36.1208 298.827V270.38L23.5103 298.974C23.4125 299.267 23.217 299.414 22.8749 299.414H18.5248C18.1826 299.414 17.9871 299.267 17.8893 298.974L5.27882 270.38V298.827C5.27882 299.218 5.08331 299.414 4.69229 299.414H0.586536Z" fill="white"/>
<path d="M73.0729 270.087C73.4639 270.087 73.6594 270.282 73.6594 270.673V298.827C73.6594 299.218 73.4639 299.413 73.0729 299.413H68.9671C68.5761 299.413 68.3806 299.218 68.3806 298.827L68.7228 293.89C68.0873 295.796 66.9143 297.312 65.2035 298.387C63.4928 299.462 61.3911 300 58.8494 300C54.8414 300 51.9576 298.778 50.198 296.285C48.4384 293.792 47.5586 289.98 47.5586 284.75V270.673C47.5586 270.282 47.7541 270.087 48.1451 270.087H52.3486C52.7397 270.087 52.9352 270.282 52.9352 270.673L52.8863 284.75C52.8863 286.998 53.0329 288.856 53.3751 290.322C53.7172 291.788 54.2549 292.962 54.9392 293.744C55.6723 294.526 56.4544 295.112 57.3831 295.405C58.3117 295.699 59.4359 295.894 60.8045 295.894C63.1995 295.894 65.0569 295.014 66.4255 293.304C67.7452 291.593 68.4295 288.709 68.4295 284.75V270.673C68.4295 270.282 68.625 270.087 69.016 270.087H73.0729Z" fill="white"/>
<path d="M81.3826 295.992C78.9876 293.353 77.7656 289.687 77.7656 284.995C77.7656 280.302 78.9876 276.49 81.3826 273.704C83.7776 270.869 87.1502 269.5 91.4515 269.5C95.7038 269.5 99.0275 270.918 101.423 273.704C103.818 276.49 105.04 280.302 105.04 284.995C105.04 289.638 103.866 293.304 101.471 295.943C99.1253 298.583 95.7527 299.902 91.4026 299.902C87.1502 299.951 83.7776 298.632 81.3826 295.992ZM85.1462 276.636C83.7287 278.689 83.0444 281.475 83.0444 284.995C83.0444 292.229 85.8305 295.845 91.4515 295.845C96.9747 295.845 99.7607 292.229 99.7607 284.995C99.7607 281.426 99.0764 278.64 97.7078 276.636C96.3392 274.632 94.2375 273.606 91.4515 273.606C88.6654 273.606 86.5637 274.584 85.1462 276.636Z" fill="white"/>
<path d="M109.146 298.827V270.624C109.146 270.233 109.341 270.037 109.732 270.037H113.838C114.229 270.037 114.424 270.233 114.424 270.624L114.082 275.561C114.718 273.654 115.891 272.139 117.601 271.064C119.312 269.989 121.414 269.451 123.956 269.451C126.057 269.451 127.866 269.793 129.332 270.526C130.798 271.259 131.972 272.286 132.802 273.703C133.633 275.121 134.269 276.685 134.611 278.444C134.953 280.204 135.197 282.306 135.246 284.701V298.827C135.246 299.218 135.051 299.413 134.66 299.413H130.505C130.114 299.413 129.919 299.218 129.919 298.827L129.968 284.75C129.968 280.644 129.43 277.76 128.306 276.098C127.181 274.436 125.275 273.606 122.636 273.606C119.948 273.606 117.944 274.436 116.526 276.147C115.109 277.858 114.424 280.693 114.424 284.701V298.827C114.424 299.218 114.229 299.413 113.838 299.413H109.732C109.341 299.413 109.146 299.218 109.146 298.827Z" fill="white"/>
<path d="M173.76 258.307C177.035 258.307 179.772 259.431 181.972 261.631C184.171 263.83 185.295 266.763 185.295 270.477C185.295 272.53 185.002 274.339 184.416 275.952C183.829 277.565 182.998 278.885 181.923 279.911C180.848 280.937 179.626 281.671 178.257 282.208C176.888 282.746 175.373 282.99 173.76 282.99H161.296V298.827C161.296 299.218 161.101 299.413 160.71 299.413H156.555C156.213 299.413 156.018 299.218 156.018 298.876V258.942C156.018 258.551 156.213 258.356 156.555 258.356H173.76V258.307ZM170.828 278.298C173.956 278.298 176.302 277.711 177.768 276.538C179.283 275.365 180.017 273.361 180.017 270.477C180.017 265.443 176.937 262.901 170.779 262.901H161.296V278.298H170.828Z" fill="white"/>
<path d="M189.01 298.827V270.624C189.01 270.233 189.205 270.038 189.596 270.038H193.702C194.093 270.038 194.289 270.233 194.289 270.624L193.946 275.512C194.533 273.606 195.462 272.237 196.83 271.358C198.199 270.478 200.105 270.038 202.647 270.038H205.726C206.117 270.038 206.313 270.233 206.313 270.624V273.557C206.313 273.948 206.117 274.144 205.726 274.144H202.647C199.861 274.144 197.759 275.072 196.439 276.881C195.071 278.689 194.386 281.329 194.337 284.701V298.827C194.337 299.218 194.142 299.414 193.751 299.414H189.645C189.205 299.414 189.01 299.218 189.01 298.827Z" fill="white"/>
<path d="M210.712 295.992C208.317 293.353 207.095 289.687 207.095 284.995C207.095 280.302 208.317 276.49 210.712 273.704C213.107 270.869 216.479 269.5 220.781 269.5C225.033 269.5 228.357 270.918 230.752 273.704C233.147 276.49 234.369 280.302 234.369 284.995C234.369 289.638 233.196 293.304 230.801 295.943C228.454 298.583 225.082 299.902 220.732 299.902C216.479 299.951 213.107 298.632 210.712 295.992ZM214.475 276.636C213.058 278.689 212.374 281.475 212.374 284.995C212.374 292.229 215.16 295.845 220.781 295.845C226.304 295.845 229.09 292.229 229.09 284.995C229.09 281.426 228.406 278.64 227.037 276.636C225.668 274.632 223.567 273.606 220.781 273.606C217.995 273.606 215.893 274.584 214.475 276.636Z" fill="white"/>
<path d="M254.214 274.144L246.1 273.851V292.913C246.1 293.451 246.247 293.891 246.589 294.184C246.882 294.477 247.322 294.624 247.908 294.624H254.214C254.605 294.624 254.8 294.819 254.8 295.21V298.729C254.8 299.121 254.605 299.316 254.214 299.316H248.446C246.149 299.316 244.291 298.632 242.923 297.263C241.554 295.895 240.87 294.037 240.87 291.691V273.899L236.764 274.193C236.373 274.193 236.178 273.997 236.178 273.606V270.674C236.178 270.283 236.373 270.087 236.764 270.087L240.87 270.38V263.635C240.87 263.244 241.066 263.049 241.457 263.049H245.562C245.953 263.049 246.149 263.244 246.149 263.635V270.38L254.263 270.087C254.654 270.087 254.849 270.283 254.849 270.674V273.606C254.8 273.997 254.605 274.144 254.214 274.144Z" fill="white"/>
<path d="M259.542 295.992C257.147 293.353 255.925 289.687 255.925 284.995C255.925 280.302 257.147 276.49 259.542 273.704C261.937 270.869 265.309 269.5 269.611 269.5C273.863 269.5 277.187 270.918 279.582 273.704C281.977 276.49 283.199 280.302 283.199 284.995C283.199 289.638 282.026 293.304 279.631 295.943C277.284 298.583 273.912 299.902 269.562 299.902C265.309 299.951 261.937 298.632 259.542 295.992ZM263.305 276.636C261.888 278.689 261.204 281.475 261.204 284.995C261.204 292.229 263.99 295.845 269.611 295.845C275.134 295.845 277.92 292.229 277.92 284.995C277.92 281.426 277.236 278.64 275.867 276.636C274.498 274.632 272.397 273.606 269.611 273.606C266.825 273.606 264.723 274.584 263.305 276.636Z" fill="white"/>
<path d="M307.247 288.709C307.296 288.367 307.491 288.172 307.833 288.172H311.939C312.135 288.172 312.281 288.221 312.379 288.367C312.477 288.465 312.526 288.612 312.428 288.807C311.841 292.326 310.424 295.063 308.127 297.019C305.878 298.974 302.897 299.951 299.182 299.951C294.881 299.951 291.508 298.632 289.113 295.992C286.718 293.353 285.496 289.687 285.496 284.995C285.496 280.302 286.718 276.49 289.113 273.704C291.508 270.869 294.881 269.5 299.182 269.5C302.701 269.5 305.634 270.478 307.882 272.482C310.179 274.486 311.646 277.223 312.33 280.693C312.379 281.133 312.232 281.329 311.792 281.329H307.687C307.296 281.329 307.1 281.133 307.051 280.791C306.025 276.001 303.385 273.557 299.133 273.557C296.347 273.557 294.245 274.584 292.828 276.588C291.41 278.64 290.726 281.426 290.726 284.946C290.726 292.18 293.512 295.797 299.133 295.797C303.728 295.894 306.416 293.499 307.247 288.709Z" fill="white"/>
<path d="M318.098 295.992C315.703 293.353 314.481 289.687 314.481 284.995C314.481 280.302 315.703 276.49 318.098 273.704C320.493 270.869 323.866 269.5 328.167 269.5C332.42 269.5 335.743 270.918 338.138 273.704C340.533 276.49 341.755 280.302 341.755 284.995C341.755 289.638 340.582 293.304 338.187 295.943C335.841 298.583 332.469 299.902 328.118 299.902C323.866 299.951 320.493 298.632 318.098 295.992ZM321.911 276.636C320.493 278.689 319.809 281.475 319.809 284.995C319.809 292.229 322.595 295.845 328.216 295.845C333.739 295.845 336.525 292.229 336.525 284.995C336.525 281.426 335.841 278.64 334.473 276.636C333.104 274.632 331.002 273.606 328.216 273.606C325.381 273.606 323.279 274.584 321.911 276.636Z" fill="white"/>
<path d="M350.6 299.413H346.495C346.104 299.413 345.908 299.218 345.908 298.827V258.942C345.908 258.551 346.104 258.356 346.495 258.356H350.6C350.991 258.356 351.187 258.551 351.187 258.942V298.827C351.138 299.218 350.991 299.413 350.6 299.413Z" fill="white"/>
</svg>
